<?xml version="1.0" encoding="UTF-8"?>
<svg id="Layer_1" xmlns="http://www.w3.org/2000/svg" version="1.1" viewBox="0 0 1920 1080">
  <!-- Generator: Adobe Illustrator 29.5.1, SVG Export Plug-In . SVG Version: 2.1.0 Build 141)  -->
  <rect x="1831.59" y="7.61" width="1.48" height="3.47"/>
  <text/>
  <g>
    <path d="M621.73,959.84c1.02-.57,1.02-1.15,0-1.72v1.72Z"/>
    <rect x="47.61" y="940.93" width="4.71" height="1.69"/>
    <path d="M21.61,930.58v1.72c1.02-.57,1.02-1.15,0-1.72Z"/>
    <polygon points="528.81 806.62 531.16 803.24 524.87 803.24 524.87 804.92 528.81 806.62"/>
    <path d="M71.22,937.48c-2.94-.46-5.46-.01-6.3,3.41,2.94.46,5.46.01,6.3-3.41Z"/>
    <path d="M78.31,1051.06v1.72c1.02-.57,1.02-1.15,0-1.72Z"/>
    <path d="M632.75,1006.31c1.02-.57,1.02-1.15,0-1.72v1.72Z"/>
    <path d="M20.03,1033.85v1.72c1.02-.57,1.02-1.15,0-1.72Z"/>
    <path d="M610.7,932.3c1.02-.57,1.02-1.15,0-1.72v1.72Z"/>
    <path d="M21.61,1028.69v1.72c1.02-.57,1.02-1.15,0-1.72Z"/>
    <path d="M24.76,1030.41v1.72c1.02-.57,1.02-1.15,0-1.72Z"/>
    <path d="M29.48,1040.73v1.72c1.02-.57,1.02-1.15,0-1.72Z"/>
    <polygon points="613.07 963.27 615.4 963.27 617.76 960.69 613.07 961.58 613.07 963.27"/>
    <path d="M683.91,817.83l-6.26,2.59c1.02-4.09.6-11.29.58-17.88-1.89-.01-3.78-.03-5.67-.03l.11.12-2.8,30.82-61.3-1.23-3.21-29.08c-1.63-.04-3.28.06-4.88.05-6.68-.04-13.36-.21-20.03-.29-2.78-.03-5.57-.06-8.35-.08v.38h-7.86v-.42c-.69,0-1.38,0-2.07,0-2.01,2.24-8.48-.38-9.81,2.03l-.74,8.74c-4.75-.56-1.18-9.93-1.56-10.31h-17.31s7.13,3.38,7.13,3.38l3.88,18.98c-4.98.53-8.64-3.86-7.05-8.54-2.13,1.9-3.92,1.61-5.51-.92l3.12-6.01c-5.18-1.25-8.08-1.99-12.58,1.71v-8.61s-98.16,0-98.16,0c-3.02.45-6.05.83-9.08,1.15-.11.19-.33.38-.67.58v-.5c-4.96.53-9.93,1.08-14.9,1.53-10.21.92-20.43,1.81-30.67,2.32-5.09.25-10.18.41-15.27.43-5.12.02-10.24-.1-15.37-.12-5.07-.02-10.13-.09-15.2-.31-4.96-.22-9.97-.47-14.87-1.27-8.23-1.34-16.36-4.13-24.74-4.34l1.07.53-119.7-1.7v-175.55l-4.71-1.72-.02,12.05h-82.69c-.69,0-5.78,3.95-6.31,5.15-1.57,3.54.93,15.62-3.12,13.77-11.35-12.88-26.21-21.18-14.12-41.21,7.88-13.05,20.19-8.86,31.45-10.41,2.86-.39,2.56.57,2.33-3.44-17.37.36-37.07-4.59-39.37-26.68-1.35-12.9-.76-30.94,0-43.89h63c1.7,8.67,1.41,30.08,8.3,34.97,18.31,12.99,24.17-16.21,2.79-16.1l-.07-18.86h37.02l1.64,3.57c-4.56,15.7,5.54,46.98-7.26,59.13-10.61,10.07-36.95,11.1-47.95,1-9.83-9.03-8.24-27.02-13.28-38.85l-19.91.84c-6.24,12.78,9.68,13.29,18.25,12.16l1.48,35.34c20.55,1.15,41.71,1.76,61.95-.97l4.28-3.37,1.59,17.21h4.72v-70.57l6.29,1.72,1.57-15.47-1.76,3.03-6.09.41c-1.51-2.36.93-43.58.93-50.95,0-9.27-3.8-22.4.64-29.93-10.81-5-4.85,15.82-6.3,22.36h-84.27c-3.4,0-10.98,1.95-11.69,6.28,5.21,14.34,18.88,8.5,29.81,9.21l.79-6.87,6.23,6.99,59.12-.11v30.98H24.76c-6.51,0-8.1-.23-5.52-8.59l-7.87,3.41,1.59-6.88,6.29,1.72v-6.85s-7.86,3.42-7.86,3.42l-.91-6.93c2.54-3.42,8.07,1.95,8.65-9.54l14.91-.78,2.52-3.38,1.03,3.47,14.74-.06c-9.96-10.44-12.57-31.58-.03-40.41-8.76-11.27-12.37-29.95-.02-39.67,12.41-9.76,41.2-4.09,56.04-4.17,5.04-.03,26.34-.67,29.86-1.68,5.01-1.43-.49-4.14,7.09-1.84,4.38,1.33,8.49.75,12.59,3.44l-2.38-6.86,5.05,4.24c.05.74-1.07,1.34-1.07,1.75v31.84h-92.14c-.49,0-2.9,3.5-3.91,4.3,1.09,1.66,2.05,2.25,3.9,2.59,21.71,4.11,58.32-1.65,81.91-.76,6.07.23,9.55,1.64,14.96,4.18l.02-122.2c-24.4-.45-48.9.61-73.32.08-6.45-.14-13.14-1.82-20.49-1.87-5.38-.04-16.96,4.68-20.45-1.58-1.52-2.73-.04-6.95,1.63-6.95h70.09c-1.03-2.08-.76-3.65.07-5.74,1.36-3.41,5.08-9.05,7.79-11.46l-6.28,17.19c9.93-.91,21.28,3.32,29.15-5.12l-2.38,5.11,14.17,1.73-1.57-75.71H53.11c-5.66,0-4.32-8.61-1.58-8.61h105.53c2.31,0,7.54-17.08,5.5-20.67l-3.16-.84c6.02-1.84,2.23-10.46,3.16-16.37l-4.75.97c-2.58-1.76-2.28-8.58.09-10.45,3.94-3.1,6.13,1.4,4.65-11.17-3.38,4.48-6.63,1.56-9.48,2.48-4.71,1.5-9.5,10.31-12.55-2.46,8.65-4.01,20.84,3.76,23.57-9.51l-4.66-.84.88-6.93-34.88-1.83-3.01,3.59c-4.53-6.05-12.48-2.59-18.84-3.55-.99,7.65-5.62,8.17-2.44.13-2.82.29-5.99-.49-8.71-.15-4.01.5-2.33,5.43-6.23,5.32l.77-5.18h-37.02c-3.22,0-3.13-5.06-5.5-5.15l1.38,8.45-2.95,1.84c2.91-2.05,5.1,9.87,4.69,10.35l-4.57-1.59c-4.76,5.8-1.54,10.81-2.36,15.52-.36,2.06-5.02,4.66-4.98,11.03.03,5.61,6.14,4.16,5.61,9.46-14.49-2.22-7.4-11.83-5.37-20.66.72-3.16-.62-6.31.46-9.5,1.14-3.37,4.58-5.34,4.94-8.58.68-6.11-3.91-7.16-6.47-3.09-1.6,2.54,3.87,10.97-3.82,14.28-3.8,1.63-1.54-7.75-6.26-6.87l-2.42,5.16c-3.23-2.83-3.8-3.11-7.85-1.72l1.51,4.96-5.45,3.64-.95-3.14c-.84-.85-5.6,4.16-4.58-1.18,1.14-5.99,10.44-8.76,6.31-18.05-5.9,1.87-11.06,4.76-7.85,12.03H-1.24c2.78-4.87-1.13-7.17-3.02-11.34l2.22,1.01c6.14-7.52,22.01-1.53,21.27-13.75l-9.43,1.71v-3.41c6.12-.83,11.75-6.03,16.91-8.22,4.84-2.06,8.58,2.95,5.14-5.56,2.13,1.14,5.51,4.94,4.77,7.66l-5.59,4.34.02-5.12-5.51,8.59c7.14-.7,11.34-.03,16.89-3.72l-.43-3.01c2.57,1.99,4.62.72,6.39-1.85l.77,6.85,4.57-.13,1.81-6.69,4.7.96,2.32-4.47c5.26-1.94.13,9.72.78,10.33h29.92s-1.57-5.14-1.57-5.14l5.5-.02-.78,5.16h69.29c-4.43-35.91-2.92-72.23-3.15-108.42l133.89-1.69-5.43,2.63c4.74-1.16,9.41-2.61,14.04-4.08,8.72-2.77,17.45-5.69,26.5-7.21,9.43-1.58,18.99-2,28.52-1.28,4.07.31,8.12.81,12.16,1.44-.05-.61-.12-1.23-.17-1.84l.29,1.86c5.45.86,10.87,1.95,16.24,3.18,7.11,1.63,13.87,4.35,20.56,7.21-.43-.46-.74-1.06-.87-1.92l151.27-.82,4.64-3.52c-1.76-1.72-3.34,3.27-3.16-1.74.31-9.14,1.48-15.55,2.17-24.68.73-9.66,1.28-19.79,1.03-29.5h-34.65c-.96,3.41-3.36,3.82-6.29,3.43v-3.43h-70.89l-2.36,8.64-3.94-.05,3.15-8.59h-80.33c.98,2.61,5.26,25.82,2.36,25.83l-5.51-25.83c-93.43.1-186.94-.14-280.37,0-.53,0-1.05,0-1.58,0H-15.41V59.72l4.73.88-.02,2.56-4.72-1.71v39.58l1.11,2.08-1.11,1.36v1.72l3.15.02-3.15,3.42v56.8l9.47-4.29-9.47,6.01v12.05l9.45-5.15-9.45,8.59v58.52l6.3-1.7c-1.41,4.1-1.8,6.25-6.3,5.15v13.77l25.22.86c-.01,2.36-22.35,3.07-25.22,2.58v192.76c12.1.26,24.79-1.57,36.84.19,1.5.22,12.76,3.16,10.41,4.95-7.63-.51-16.61-1.34-24.16-1.09-3.96.13-11.6,2.88-15.22,2.83l14.17,1.73-7.86,5.17,6.28,6.87c-4.56-1.38-11.69-4.98-14.95,0l-5.51-1.71v5.16c4.39,3.96,1.88-1.78,5.43-1.9,1.9-.07,4.06-.06,5.75.99,1.59,4.68-1.13,8.25,4.59,10.38l-15.77.86v8.61l3.94-5.17,3.94,3.41c-5.72-.62-2.72,7.81-7.88,6.92v39.58l3.17.86-3.17.86v3.44h3.14s.02,2.56.02,2.56l-3.16.88v189.32c5.28-.48,10.4,2.18,14.14,6.02l-14.14,2.58v127.36l6.27-3.43,4.75,6.85-6.29.87c2.23,3.53,9.64,1.56,9.46,6.88-.02.52-5.91,3.16-5.52,7.8l-3.94-.05-4.73-5.15v18.93c2.82-1.08,5.6,2.72,7.14,2.81,6.18.34,15.03-2.31,23.39-1.04,10.41,1.59,5.34,6.57,6.2,10.84.4,2.01,2.06,8.24,2.68,10.27.71,2.31,3.72.06,3.1,2.92-7.97-.6-14.39-.57-22.04,1.73-1.15-6.03,8.15-2.68,11.01-5.18-1.55-1.98-4.51-5.62-6.29-6.86-.29.55.33,2.33-.09,3.35-5.26-3.18-12.99,1.57-16.18,1.42-2.86-.13-5.7-4.06-8.93-1.33v37.86c5.75-2.33,7.5-.33,12.6,1.7l-.84-3.43,3.96-1.71c4.02,12.31,6,2.05,8.59-.07,4.37-3.58,9.5-5.86,13.56-11.49,1.08-1.5,1-4.98,2.38-7.27,1.9-3.17,6.97-1.73,3.86-8.7,12.03,4.21,22.92.64,34.64-1.75l-4.71-2.56,7.08-7.72c3.67.08,2.74,18.68,9.44,6.86,3.26,4.12,5.6,6.87,10.82,6.71l.99,5.33c-3.7.16-4.25-3.54-8.51-3.44-5.59.13-6.54,8.65-12.76,5.23l.8,13.7-7.8-1.87-.07-11.87c-11.74-1.52.85,15.84-7.93,19.88l1.65,5.91-7.07,1.73c-5.37-4.12,1.79-6.49,2.82-8.98,3.05-7.36-1.03-6.12-1.38-6.96-1.59-3.81-4.4-8.39-2.26-11.57l-11.8-3.45c-4.43,1.59,1.96,13.9,1.7,18.11-.21,3.26-3.76,5.08-3.94,8.46-.25,4.72,4.55,10.67,1.42,16.43-14.21-8.2-8.2-2.97-14.09.89-1.4.92-7.02-1.92-9.52-.88l3.17,8.6,6.26-3.43c-.4,4.73-4.74,5.97-1.54,11.15l-4.75.91c1.01,3.97,4.99,3.61,7.87,3.42l-1.57-6.86c5.57,1.24,5.66,10.3,12.56,2.58l-5.48-7.75-3.93,3.42,1.43-4.37-3-5.93c9.63.8,11.31,5.36,14.96,13.75l2.36-12.04c3.49-.89,3.15,1.15,4.72,3.44,4.86-9.5,11.23-2.82,16.74-2.21,3.68.41,10.5-4.75,10.07,2.19,5.81.73,4.23-23.28,3.25-24.96-.47-.81-2.84-3.03-3.26-2.56.33,5.42-3.54,13.2-9.46,11.2,2.06-4.13.61-7.21,6.3-6.05l-3.16-5.13c5.43-.42,13.26-7.03,9.45-13.77l4.71-.02.22,11.82,9.05,2.27.2,4.86c13.28-4.05,4.21,3.83,4.71,5.97,6.08,2.71,7.25,5.38,9.5,12.05.09,1.03-11.1,2.7-11.7,2.62-1-.12-3.04-8.08-8.81-5.15l6.29,5.12c-12.81,3.02-10.12,10.2-2.82,18.51l1.99-.84.81,4.72c-4.73-5.5-6.8-1.86-11.01-1.72,2.41,7.76,5.79,3.71,7.87,10.32l-7.09-3.49-6.29,5.2-3.92-8.57,2.32,3.45,3.96-1.77-1.56-6.86c.24-.35,3.2,1.77,4.71,1.72-.65-2.08-2.7-14.88-3.16-15.5-5.09-.85-5.19,8.19-7.88,11.26l3.15,3.35c-.58,1.9-10.4,7.13-12.12,7.41-1.68.27-6.87-4.18-10.99-4.26-3.94-.08-7.37,3.55-11.52,2.89-.57-4.06,1.72-6.99,3.14-10.32-.64-.07-1.64-1.61-2.79-1.2-.97.34-4,8.69-8.21,6.39-.22,2.42.2,4.89,1.55,6.86l-4.72.02,4.73,5.99-4.71,3.48c4.83-1.18,1.56,1.95,4.67,2.55l1.6-10.31c1.06.6,7.36.97,7.89,1.74-3.14,3.86-1.15,9.9-1.7,12.64-.12.58-3.32,1.78-2.99,5.43.23.82,9.66-1.41,11.54-.71,2.57.95,1.95,8.82,9.41,3.39,3.34-2.43,2.34-17.75,3.42-22.49,5.76,3.97,2.36,7.81,2.38,13.74l4.72.03c1.46,6.23-7.45,7.21-6.29,12.88,1.11,5.41,6.7-1.5,8.62-1.77,1.99-.28,4.77,1.53,7.11.91l.78-8.54c5.03,2.04,5.6,6.25,6.99,11.22l7.98-.92c-5.08,18.61-11.38,5.69-16.16,5.55-4.84-.14-10.47,4.03-14.64,4.66-5.63.86-19.45.87-25.15.14-5.7-.74-6.92-4.11-11.77-5.19l1.57,6.86H.36c-.92,4.82,1.6,3.38,4.71,3.46l-3.08,9.52-6.38-.93,6.3-3.44c-.6-5.64-4.76-9.48-9.45-6.87l1.58,6.86-9.45-3.43v15.49h61.67l-5.49-5.38h8.47s-.01,5.38-.01,5.38h63.89c-.48-.48-.94-1.02-1.35-1.63l3.65-6.81h3.63s4.42,5.74,4.42,5.74l1.93-.18c-.2.64-.46,1.2-.74,1.72l.9,1.16h451.28v-24.96c0-.81,1.06-9.88,3.13-9.46-2.21,7.58,2.14,13.76,3.17,18.92.22-.8,1.44-1.34,1.58-1.72.28-.78-.23-2.39.01-3.46l4.71,1.73-3.13-8.59,5.52,1.45,3.9-3.17-1.39,11.29,2.98,1.82-.08,5.7-4.67.96,4.76.87-1.58,8.59,14.17.02-.02-26.65,3.16-.86.81,3.02,2.34-1.34c.56,2.8-.43,10.57,2.4,12.04,3.85,2,.07-5.63,3.9-5.15l4.73,18.92c-1.24-17.42,3.14-34.49,0-51.61,8.18,1.18,15.1-7.39,3.23-5.18l-.18-10.99c-1.23-5.37-7.55,1.71-6.16-3.61.29-1.11,5.33-7.77,5.79-7.83,2.65-.38,4.47,1.44,6.07,1.54.69.04.61-2.12,1.31-2.52,1.44-.83,3.29-.55,3.78-.94.26-.2-.51-4.87,1.92-6.61l-7.89-1.75,1.58-5.16-3.13,1.75c-2.43-8.95,8.74-7.79,4.69-17.22-2.86,1-1,5.04-3.78,8.74-1.86,2.47-4.22,3.79-7.22,3.28,2.13-3.56,6.96-4.44,5.74-10.33-2.08-10.04-10.99-4.68-16.39-3.83-2.27.36-4.78-1.76-6.69-.51-4.11,2.69,1.15,7.93,1.73,11.12l4.57-1.59v4.28s-7.88,3.35-7.88,3.35c-5.45,1.72-2.19-11.12-2.44-13.74-.42-4.33-3.09-10.44-2.45-15.49l3.33-4.21-4.82-.95.75-19.79,7.23-1.67-3.12-4.29,5.51-.89.75-3.38-4.71-3.46c8-1.53,3.26,9.98,14.14,7.71-3.62,4.86-6.32,15.07,3.17,9.46.7-2.86-2.74-.95-3.18-2.55-1.37-4.95,3.29-4.13,3.24-5.18l-3.18-5.98,3.16-3.46,4.69,2.57-6.26-6.91,4.71-2.56c-6.74,2.04-5.82-2.58-7.94-4.29-1.29-1.04-9.65.4-11.77-6.03l-3.14,6.84-2.38-6.84-3.19.83,2.42-7.69,5.5,3.4-4.72-4.33c3.86-12.7,4.67-23.75,3.16-36.96h14.17s-1.56,6.87-1.56,6.87c1.03.12,2.12-.13,3.14.01,3.24-6.84,10.81-7.67,17.33-6.9v6.89s4.19-6.95,4.19-6.95l27.14,1.96c.69.87-1.21,20.15-1.54,22.92-.39,3.29-6.16,15.45,1.21,11.68,4.38-2.24,4.64-9.93,5.19-15,.65-5.89-.66-24.94.79-28.38,1.89-4.49,4.41,5.73,8.68,3.43-2.37-10.16-5.51-21.4-1.6-31.85ZM86.98,560.54v-3.43s3.14,3.42,3.14,3.42h-3.14ZM75.16,486.54v-1.72c1.02.57,1.02,1.15,0,1.72ZM88.57,486.54v-3.43s3.13,0,3.13,0l-3.13,3.42ZM105.88,488.26l1.59-8.59h3.12c.44,4.25.1,9.06-4.71,8.59ZM139.74,483.1v-1.72c1.02.57,1.02,1.15,0,1.72ZM63.33,391.88c-6.25,1.38-1.07-9.57-1.53-12.03,3.76,1.41,2.41,9.03,1.53,12.03ZM77.51,393.6l1.58,10.32c-7.39,1.49-5.05-15.14-1.58-10.32ZM75.16,379.84v-1.72c1.02.57,1.02,1.15,0,1.72ZM93.27,400.47h-3.13v-1.69h3.13v1.69ZM123.22,403.93c-1.05-2.16,2.52-6,3.12-5.16,1.05,2.16-2.52,6-3.12,5.16ZM123.99,374.67v-1.72c1.02.57,1.02,1.15,0,1.72ZM127.92,395.32h-3.13v-3.42h3.13v3.42ZM129.49,384.99h-1.54v-3.42h1.54v3.42ZM135.8,403.92h-6.29c.84-3.43,3.35-3.87,6.29-3.42v3.42ZM138.17,403.93v-1.72c1.02.57,1.02,1.15,0,1.72ZM138.95,395.32h-6.28v-3.42h6.28v3.42ZM142.89,390.16v-1.72c1.02.57,1.02,1.15,0,1.72ZM146.79,397.95l-1.53-6.05,6.33.81,1.53,6.05-6.33-.81ZM160.99,395.32h-1.54v-3.42h1.54v3.42ZM152.35,329.93l.77,3.42h-3.14s2.37-3.42,2.37-3.42ZM149.19,335.09c1.02.57,1.02,1.15,0,1.72v-1.72ZM141.33,345.45c1.57,1.13-.73,2.28-1.61,3.37l-.74-.81,2.35-2.56ZM135.02,329.93c1.02.57,1.02,1.15,0,1.72v-1.72ZM133.44,341.97c1.02.57,1.02,1.15,0,1.72v-1.72ZM76.74,343.69c1.02.57,1.02,1.15,0,1.72v-1.72ZM76.74,350.58c1.02.57,1.02,1.15,0,1.72v-1.72ZM73.59,345.42c1.02.57,1.02,1.15,0,1.72v-1.72ZM155.49,354.02c4.47.38,4.19,4.48,3.94,8.6l-109.56-1.62-.69-5.23,106.31-1.75ZM123.22,292.06v-3.43s3.13,0,3.13,0l-3.13,3.42ZM132.65,297.21h-3.13v-1.69h3.13v1.69ZM131.87,293.78v-1.72c1.02.57,1.02,1.15,0,1.72ZM140.52,300.65h-3.13v-1.69h3.13v1.69ZM154.72,302.39v-3.43s3.13,0,3.13,0l-3.13,3.42ZM160.23,264.53l.77,3.42h-3.14s2.37-3.42,2.37-3.42ZM141.32,259.36c1.02.57,1.02,1.15,0,1.72v-1.72ZM130.29,259.36c1.02.57,1.02,1.15,0,1.72v-1.72ZM128.72,247.31c1.02.57,1.02,1.15,0,1.72v-1.72ZM105.09,259.36c1.02.57,1.02,1.15,0,1.72v-1.72ZM95.64,261.08c1.02.57,1.02,1.15,0,1.72v-1.72ZM51.54,278.29h85.84c.59-10.37,15.71-21.44,7.88-30.96l10.23-.03c3.46,4.78-3.08,2.64-4.74,5.11-1.1,1.63-.88,5.56-2.05,8.13-2.89,6.32-7.18,11.29-9.74,17.76h22.05v6.88s-24.11-.04-24.11-.04l-3.47,5.18c-1.22-3.2,2.72-2.43-1.56-3.35-18.51-3.99-46.62-2.14-66.21-1.86-6.04.09-11.32,4.59-16.47-2.52l2.36-4.28ZM151.57,161.27h1.54v3.42h-1.54v-3.42ZM102.74,202.56v-3.43s3.13,0,3.13,0l-3.13,3.42ZM109.02,190.5h-3.13v-1.69h3.13v1.69ZM113.75,200.83l6.28-5.15c.41,4.34-2.5,5.82-6.28,5.15ZM113.76,176.76h3.13s-.77,5.15-.77,5.15l-2.35-2.6v-2.55ZM118.49,192.24l-3.17-8.59,4.65.03c-.04,3.3,3.01,7.17-1.48,8.56ZM122.42,183.63v-1.72c1.02.57,1.02,1.15,0,1.72ZM129.5,226.64h-6.28v-1.69h6.28v1.69ZM142.1,231.81h-3.13v-1.69h3.13v1.69ZM140.55,218.05l.67-6.99,7.18-1.6-1.59,8.58-1.57-3.43-4.7,3.44ZM151.55,228.37c-1.05,1.07-6.24-.8-6.26-2.57-.05-5.13,9.26-.48,6.26,2.57ZM151.54,192.24l-4.66,14.69-4.76-1.8c-.18-1.44-.18-2.61.37-3.97.24-.61,8.18-6.75,9.05-8.91ZM147.62,190.52c1.02.57,1.02,1.15,0,1.72v-1.72ZM143.16,188.14c1.23-.73-.66-5.66,3.64-.2-2.48,1.46-6.67,8.35-9.39,3.44,1.41-2.21,3.81-2.08,5.75-3.24ZM140.52,223.23c0,6.76-6.25,6.85-6.28,0h6.28ZM133.44,193.96c1.02.57,1.02,1.15,0,1.72v-1.72ZM126.35,176.75v3.44s2.37-1.66,2.37-1.66c3.24,2.59,3.09,4.26,0,6.79-2.24-.8-2.15-4.96-2.36-5.13-.55-.43-3.45.3-4.72,0v-3.42s4.71,0,4.71,0ZM118.49,169.88h3.13v1.69h-3.13v-1.69ZM118.48,157.83c-.25,1.45-2.1,3.68-3.15,4.28-7.7,4.39-5.56-6.47,3.15-4.28ZM103.51,163.01l8.63,11.17-9.43-.89.8-10.28ZM92.49,188.8c1.02.57,1.02,1.15,0,1.72v-1.72ZM544.55,28.73l-2.37-3.42h3.14s-.77,3.42-.77,3.42ZM540.62,11.52v-3.42h3.13v3.42h-3.13ZM544.55,18.41v-1.72c1.02.57,1.02,1.15,0,1.72ZM548.48,18.39l2.37-3.42.77,3.42h-3.14ZM554,23.57v-1.72c1.02.57,1.02,1.15,0,1.72ZM554.79,14.98h3.13v1.69h-3.13v-1.69ZM550.85-5.69c1.02.57,1.02,1.15,0,1.72v-1.72ZM554.77,8.1c-.08,2.92-11.6,3.53-9.42-1.74l9.42,1.74ZM542.19-17.72h3.13v1.69h-3.13v-1.69ZM543.76-12.55l-3.13,3.42v-3.43s3.13,0,3.13,0ZM541.4-2.24l.77,3.42h-3.14s2.37-3.42,2.37-3.42ZM538.25,2.92c1.02.57,1.02,1.15,0,1.72v-1.72ZM476.04,14.98h1.54s1.55,4.31,1.55,4.31l-3.09,2.56v-6.88ZM467.37,30.46c1.02.57,1.02,1.15,0,1.72v-1.72ZM460.29-16h1.54s1.59,5.14,1.59,5.14h-3.14s0-5.14,0-5.14ZM454.76,21.85c1.02.57,1.02,1.15,0,1.72v-1.72ZM-3.59,157.82v-1.72c1.02.57,1.02,1.15,0,1.72ZM2.71,152.65v-1.72c1.02.57,1.02,1.15,0,1.72ZM5.08,150.92v-3.43s3.14,3.42,3.14,3.42h-3.14ZM9.01,142.33v-1.72c1.02.57,1.02,1.15,0,1.72ZM41.29,140.59h-3.13v-1.69h3.13v1.69ZM25.56,131.99c-.91-4.88,1.32-2.74,3.37-3.97,4.88-2.92,8.24-5.41,13.94-2.92l-1.57-5.14,12.6-1.73c.6,3.39-1.44,4.16-3.63,5.48-5.9,3.59-17.98,4.05-24.71,8.27ZM55.46,125.12v3.43s-3.13-.84-3.13-.84l3.13-2.59ZM48.39,130.28v-1.72c1.02.57,1.02,1.15,0,1.72ZM42.88,138.88c-.87-4.8,1.16-2.78,3.35-4,3.24-1.8,6.51-3.36,10.09-4.15l2.29,4.7-15.73,3.45ZM61.76,131.99h-1.54v-3.42h1.54v3.42ZM58.64,126.84v-3.43s3.13,0,3.13,0l-3.13,3.42ZM64.93,131.99c-.73-3.67,1.71-3.91,3.66-5.45,1.43-1.13,9.71-7.42,10.5-6.58,2.42,2.58-13.13,13.11-14.16,12.03ZM66.51,119.96h3.14s-3.13,3.43-3.13,3.43v-3.43ZM75.16,118.23v-1.72c1.02.57,1.02,1.15,0,1.72ZM83.82,111.33h-3.13v-1.69h3.13v1.69ZM86.94,119.08l-2.35,2.58h-2.33v-1.69l4.69-.9ZM85.38,126.84v3.43s-3.13-.84-3.13-.84l3.13-2.59ZM86.16,138.87h-2.33s0-5.15,0-5.15l4.71,1.74-2.39,3.41ZM89.34,116.51v-1.72c1.02.57,1.02,1.15,0,1.72ZM93.27,131.98h-3.13v-1.69h3.13v1.69ZM94.84,125.12h-4.69v-3.43s4.7,0,4.7,0v3.43ZM105.09,142.33v-1.72c1.02.57,1.02,1.15,0,1.72ZM106.66,138.89v-1.72c1.02.57,1.02,1.15,0,1.72ZM109.01,145.76h-1.54v-3.42h1.54v3.42ZM105.88,135.43v-3.43s3.14,3.42,3.14,3.42h-3.14ZM121.62,101h-3.13v-1.69h3.13v1.69ZM123.99,101.02v-1.72c1.02.57,1.02,1.15,0,1.72ZM142.1,113.06h-3.13v-3.42h3.13v3.42ZM160.22,138.89c1.02.57,1.02,1.15,0,1.72v-1.72ZM157.07,97.58c1.02.57,1.02,1.15,0,1.72v-1.72ZM156.29,109.64h3.13v5.15h-3.13v-5.15ZM156.29,119.97h3.13v1.69h-3.13v-1.69ZM156.27,138.88l-4.71.02v-8.61s3.12,0,3.12,0l1.59,8.59ZM154.7,66.62c.77.65-2.75,4.56-4.72,3.41-.77-.65,2.75-4.56,4.72-3.41ZM151.29,75.54l3.4,4.82h-7.85s4.45-4.82,4.45-4.82ZM147.62,118.23v-1.72c1.02.57,1.02,1.15,0,1.72ZM145.26,137.17h3.13v3.42h-3.13v-3.42ZM142.89,66.6c1.02.57,1.02,1.15,0,1.72v-1.72ZM143.67,80.38c.37,6.05-5.23,5.39-9.44,5.14.24-3.17,8.2-6.4,9.44-5.14ZM130.29,76.93c1.02.57,1.02,1.15,0,1.72v-1.72ZM128.72,123.4c1.02.57,1.02,1.15,0,1.72v-1.72ZM127.16,128.53l10.21,3.46-1.56-6.86,5.52,1.7.5,3.22-2.96,1.21,1.66,7.62-14.16-6.91.8-3.43ZM122.42,82.09c1.02.57,1.02,1.15,0,1.72v-1.72ZM116.91,87.27h7.86v1.69h-7.86v-1.69ZM110.61,97.59h3.13v3.42h-3.13v-3.42ZM110.61,125.13h3.13v1.69h-3.13v-1.69ZM109.81,88.97c1.02.57,1.02,1.15,0,1.72v-1.72ZM110.6,107.92c-.77,3.31-3.48,3.88-6.29,3.41-1.63-.83,4.24-4.11,6.29-3.41ZM99.55,123.38c-1.59,1.59-4.3-.43-3.09-3.4,4.66,1.56,2.56-8.39,5.48-8.6,5.02-.36-1.92,11.52-2.39,12ZM98.01,76.91v-1.69h3.13v1.69h-3.13ZM99.58,82.11l-2.39,3.42-3.91-2.58,6.29-.83ZM98.79,47.67c1.02.57,1.02,1.15,0,1.72v-1.72ZM99.56,66.6c3.55,3.74-6.99,4.55-7.85,5.18l3.13,6.85c-3.86,1.5-5.75-3.06-7.27-5.88-2.09-3.85,1.85-5.78-5.32-2.73l2.34-6.82c2.88,4.8,14.4,2.8,14.97,3.4ZM94.06-14.29c1.02.57,1.02,1.15,0,1.72v-1.72ZM98,56.26l-14.18,1.72c2.18-5.22,11.57-8.02,14.18-1.72ZM90.12,45.94h-3.13v-3.42h3.13v3.42ZM87.77,4.63l-2.37-3.42h3.14s-.77,3.42-.77,3.42ZM83.83-3.95h3.13v1.69h-3.13v-1.69ZM83.82,37.36c.77.65-2.75,4.56-4.72,3.41-.77-.65,2.75-4.56,4.72-3.41ZM80.67,64.9l-2.36,3.39-2.35-2.56,4.72-.83ZM77.54,28.74h1.54v3.42h-1.54v-3.42ZM75.97,44.23h1.54v3.42h-1.54v-3.42ZM75.16,1.2c1.02.57,1.02,1.15,0,1.72v-1.72ZM76.75,51.14c1.57,1.13-.73,2.28-1.61,3.37l-.74-.81,2.35-2.56ZM73.59,59.72c1.02.57,1.02,1.15,0,1.72v-1.72ZM69.64,82.07l-9.89,3.21-8.97-7.5c6.31-6.99,8.39,12.17,14.14.88l-6.29-3.45,7.11-1.68c3.67,1.84.17,5.55.97,6.53.79.97,3.59-.89,2.93,1.99ZM61.76,97.59c.98,1.35-.93,4.12-2.35,5.12l-3.91-4.27c.47-2.92,5.68-1.65,6.26-.85ZM67.29-3.96c1.02.57,1.02,1.15,0,1.72v-1.72ZM68.07,56.28v3.42h-3.13v-3.42h3.13ZM65.71-19.45c1.02.57,1.02,1.15,0,1.72v-1.72ZM66.48,54.55c-.6.84-4.17-3.01-3.12-5.16.6-.84,4.17,3.01,3.12,5.16ZM62.56,40.78c1.02.57,1.02,1.15,0,1.72v-1.72ZM57.08,27.03h3.12s-5.53,6.84-5.53,6.84l-.74-.81,3.15-6.03ZM52.34-9.12h1.54v3.42h-1.54v-3.42ZM51.54,39.06c1.02.57,1.02,1.15,0,1.72v-1.72ZM46.03-17.72h3.14v5.14h-3.14s0-5.14,0-5.14ZM49.17,45.96l-1.59,5.14h-3.12c-.5-3.26,1.84-5.73,4.72-5.14ZM44.44-9.12l-.77,5.15-2.35-2.6v-2.55s3.13,0,3.13,0ZM39.71-21.17v3.41s-4.7,1.74-4.7,1.74c-.53-3.14,1.73-5.7,4.7-5.15ZM36.58,47.69h3.13v1.69h-3.13v-1.69ZM35,42.49v-1.69h3.13v1.69h-3.13ZM34.98-14.29c1.05,2.16-2.52,6-3.12,5.16-1.05-2.16,2.52-6,3.12-5.16ZM35,13.26l-3.13,3.42v-3.43s3.13,0,3.13,0ZM31.85-.51h3.14s-.77,3.42-.77,3.42l-2.37-3.42ZM31.06-5.69c1.02.57,1.02,1.15,0,1.72v-1.72ZM30.28,39.08h3.13v1.69h-3.13v-1.69ZM27.91-5.69c1.02.57,1.02,1.15,0,1.72v-1.72ZM26.33-12.57c1.02.57,1.02,1.15,0,1.72v-1.72ZM49.96,54.55c1.8.14,15.92,2.73,13.39,5.15l-6.29,3.45c3.12.04,11.02-1.54,11.03,4.29l-5.64,2.47-.7-3.3c-3.02,2.5-4.06,3.27-7.85,1.72l.72,3.43-4.65,1.73c-.66-7.67-8.98-9.66-14.96-6.9l11.01-6.86c-3.91-1.21-9.07-.14-12.63-.85-1.95-.39-8.8-2-9.42-4.33,8.56.5,17.45-.69,25.99,0ZM43.68,78.7l2.31,2.53-2.36,2.58-7.05-1.74v-1.68s7.1-1.68,7.1-1.68ZM42.08,76.93v-1.72c1.02.57,1.02,1.15,0,1.72ZM22.41-2.23h1.54V1.19h-1.54v-3.42ZM21.61-7.41c1.02.57,1.02,1.15,0,1.72v-1.72ZM16.1-17.72h3.13v1.69h-3.13v-1.69ZM16.88-10.85v-1.72c1.02.57,1.02,1.15,0,1.72ZM-2.79,78.66h1.54v3.42h-1.54v-3.42ZM-8.32,78.65c1.02.57,1.02,1.15,0,1.72v-1.72ZM-9.15,91.59l-1.53-4.33,9.44,1.72c.15,5.83-6.12,7.49-10.12,8.5-4.43-4.44-4.15-8.01,2.2-5.9ZM-10.69,145.76h-3.13v-3.42h3.13v3.42ZM-6.74,125.12v-1.72c1.02.57,1.02,1.15,0,1.72ZM5.15,119.45c-.36-1.53-6.43-3.01-4.83-8.1-6.56-2.08-4.05,5.95-9.42,5.16l3.13-10.32-4.69,3.44-.94-8.67,19.82-3.4-4.13-5.13-3.73,1.7c1.42-4.15.68-5.27-1.59-8.58,5.15.72,7.34,1.52,11.79-1.77l1.48,10.39,8.79,2.59,4.72,6c-1.86-9.28,2.89-5.03,6.3-10.32-2.3.31-4.79-1.53-6.88-1.25-2.19.3-9.2,6.6-8.85.4l9.44-4.34-1.59-8.58,7.88-1.75-2.96-6.24,1.86.45,5.82,4.06-4.71,2.62,3.15,4.29-6.31,3.44c10.47.45,26.8,7.07,25.22,20.66l11-3.44-.96,5.29c-3.04,1.01-7.46,2.14-6.89,6.75,2.6-2.56,7.02-3.92,9.34-6.12,6.95-6.57.38-5.87-.82-7.57-1.48-2.11,1.54-5.39.79-6.72-.66-1.17-5.82-.9-4.59-5.4l18.89-1.75c.88-.98-15.24-15.42,7.88-10.3l-1.64,7.6,3.1,2.1-.8,4.16,7.18,4.2-7.84,6.01,9.44.02v-5.17s4.72.85,4.72.85c-1.1,1.24-6.16,8.91-6.65,9.13-1.6.71-10.83-1.93-15.72.39-2.25,1.07-2.27,4.91-4.37,6.09-1.89,1.06-7.08-1.79-11.39.79-3.94,2.36-6.82,15.92-9.13-1.76l-14.16,5.15-1.56-8.59-3.22,12.85c-5.85,1.95-34.53,22.36-37.78,20.78-1.33-.65-4.13-4.62-3.12-6.08,7.71,1.54,11.03-9.59,9.53-16.01ZM4.28,193.96c1.02.57,1.02,1.15,0,1.72v-1.72ZM5.05,245.58h-1.54v-3.42h1.54v3.42ZM5.86,230.1v-1.72c1.02.57,1.02,1.15,0,1.72ZM35.78,465.89v-1.72c1.02.57,1.02,1.15,0,1.72ZM42.86,481.38l-4.71-1.74,2.39-3.41h2.33s0,5.15,0,5.15ZM40.51,467.61v-1.72c1.02.57,1.02,1.15,0,1.72ZM42.86,459c-4.07.52-8.34-.04-7.86-5.15l7.87,1.73v3.41ZM43.66,489.99v-1.72c1.02.57,1.02,1.15,0,1.72ZM43.66,484.82v-1.72c1.02.57,1.02,1.15,0,1.72ZM47.61,230.97l3.13-2.59v3.43s-3.13-.84-3.13-.84ZM57.03,228.37h-1.54v-3.42h1.54v3.42ZM64.92,207.71h-3.13v-1.69h3.13v1.69ZM60.21,188.79v-3.42h3.13v3.42h-3.13ZM61.81,199.98c2.24-3.53,5.84-2.63,9.42-2.56-1.99,4.82-6.35,7.46-9.42,2.56ZM72.78,206h-1.54v-3.42h1.54v3.42ZM85.42,162.99h1.54v3.42h-1.54v-3.42ZM74.38,162.99c6.27.04,6.19,6.87,0,6.87v-6.87ZM77.49,188.81l4.7,7.73-3.89,4.3-.8-5.15-4.69,3.44c-.03-5.99,5.01-1.28,1.53-9.44l3.15-.88ZM73.6,185.32c-.76-1.01-3.16-2.18-1.61-3.37.87,1.1,3.17,2.24,1.61,3.37ZM72.78,175.03v3.43s-3.13-.84-3.13-.84l3.13-2.59ZM69.65,185.37l-2.39,3.41h-2.33s0-3.42,0-3.42h4.72ZM63.33,166.42v3.43s-3.13-.84-3.13-.84l3.13-2.59ZM55.48,197.41c5.78.03,5.78,5.12,0,5.15v-5.15ZM51.54,166.42c1.02.57,1.02,1.15,0,1.72v-1.72ZM47.61,162.97v-3.42h3.13v3.42h-3.13ZM39.75,194.82l2.34-2.57.76,5.15-3.1-2.58ZM41.3,208.66c.34-1.7,5.01-2.01,5.56-5.96.24-1.75-1.75-4.49-2.03-7.16-.51-4.99,3.56-7.85-2.08-9.38.42-6.13,6.39-4.85,4.01-11.15l3.92-1.66,4.79,8.55-7.72.15c-2.78,6.19,4.25,7.71-1.73,13.61l4.75.03-1.4,4.35,2.97,1.88.03,4.97c-6.51.04-8.33,9.01-1.5,7.03,2.95-.86,4.87-6.85,7.74-1.87-4.27,6.65-18.99,5.09-17.29-3.37ZM53.11,195.68v-1.72c1.02.57,1.02,1.15,0,1.72ZM40.51,219.78c1.02.57,1.02,1.15,0,1.72v-1.72ZM38.93,216.33c1.02.57,1.02,1.15,0,1.72v-1.72ZM28.71,204.29h3.12c.5,3.26-1.84,5.73-4.72,5.14l1.59-5.14ZM28.69,211.19v1.69h-3.13v-1.69h3.13ZM23.99,195.68l3.1,2.58c-2.58,3.4-5.51,6.99-7.84.87l4.74-3.46ZM20.81,226.67v3.42h-3.13v-3.42h3.13ZM9.8,190.51v-3.42h3.13v3.42h-3.13ZM-2.82,341.98c.24.58-1.36,6.6-1.58,6.86-.2.24-1.03-.08-1.54,0,.41-2.61.84-7.34,3.12-6.86ZM-6.74,269.69c1.02.57,1.02,1.15,0,1.72v-1.72ZM-9.1,430.62l3.13-2.59v3.43s-3.13-.84-3.13-.84ZM-3.59,422.83c-1.04,0-3.26-4.13-2.35-5.12,2.38-2.6,6.71,5.12,2.35,5.12ZM12.16,426.31v-1.72c1.02.57,1.02,1.15,0,1.72ZM12.94,422.85h-3.13v-1.69h3.13v1.69ZM-.46,340.22c2.64-8.19,8.69-16.94,14.96-22.34L-.46,340.22ZM15.31,405.65v-1.72c1.02.57,1.02,1.15,0,1.72ZM16.08,231.81h-1.54v-3.42h1.54v3.42ZM16.1,202.57h3.13v3.42h-3.13v-3.42ZM16.88,436.63v-1.72c1.02.57,1.02,1.15,0,1.72ZM17.69,314.43c-.47-3.11,7.11-14.29,9.43-12.03l-9.43,12.03ZM25.56,230.1c2.9-6.29-2.28-9.06-1.57-15.49,1.46,2.78,8.76,5.06,9.13,5.57.77,1.08.23,3.31.32,4.76l4.7-3.45v12.04c-1.81,2.49-5.86-6.5-8.68-6.38-1.26.05-3.2,3.85-3.9,2.95ZM31.06,233.54v-1.72c1.02.57,1.02,1.15,0,1.72ZM30.28,247.3v-1.69h3.13v1.69h-3.13ZM-2.81,944.33h-3.13v-1.69h3.13v1.69ZM16.07,945.2l-12.56,3.43,8.58-6.07,7.15-1.63-3.17,4.28ZM20.03,949.52v-1.72c1.02.57,1.02,1.15,0,1.72ZM37.36,946.11l2.35,15.45c-4.47.8-2.72-1.02-3.35-4.11-.42-2.03-2.26-11.22,1-11.34ZM37.37,966.73l.76,5.15-3.1-2.58,2.34-2.57ZM36.58,985.65c-.19-3.6-.6-6.45,2.35-8.56l1.62,1.68.76,6.88h-4.73ZM48.39,983.94v-1.72c1.02.57,1.02,1.15,0,1.72ZM55.46,977.04h-3.13v-3.42h3.13v3.42ZM61.78,977.06c1.02-1.11,8.73.05,7.86,4.27-1.36,6.6-11.46-.34-7.86-4.27ZM83.81,999.42h-1.54v-3.42h1.54v3.42ZM30.26,1016.64l-3.13-2.59,3.13-.84v3.43ZM37.36,1033.85v-1.72c1.02.57,1.02,1.15,0,1.72ZM46.01,1023.51c-1.96,2.31-9.73-6.97,0-5.15v5.15ZM49.16,1032.12h-3.13v-6.88c3.14.92,3.54,3.67,3.13,6.88ZM60.21,1025.24v-5.15s4.7,0,4.7,0v3.41s-4.7,1.74-4.7,1.74ZM72.77,1033.84c-9.33.3.33-14.47,2.38-5.19l-2.38,5.19ZM-9.1,1076.87v-3.43s3.14,3.42,3.14,3.42h-3.14ZM14.51,1069.98h-2.33c-2.47-1.82-2.75-3.7-2.38-6.87h4.71s0,6.87,0,6.87ZM20.23,1068.71l-.63-.2c.17.26.36.5.55.74l-.11.73-2.35-2.6v-2.55s3.13,0,3.13,0l-.3,1.97,3.3-6.16h4.19s5.1,6.63,5.1,6.63l-12.84,1.18-.04.26ZM34.43,1073.16l-2.67-.84c.19.37-.04.74-.7,1.11v-.89c.17-.09.35-.17.52-.28l-.52-.16v-.39c.29.16.49.32.61.49,1.1-.71,2.07-1.75,2.82-3.14l1.99,2.59-2.05,1.52ZM49.96,1071.71v-1.72c1.02.57,1.02,1.15,0,1.72ZM53.48,1066.91l-12.69-3.16v-3.1s12.7,0,12.7,0v6.27ZM524.87,818.72h3.13v3.42h-3.13v-3.42ZM519.34,815.27c1.02.57,1.02,1.15,0,1.72v-1.72ZM495.72,873.79c1.02.57,1.02,1.15,0,1.72v-1.72ZM494.14,865.18c1.02.57,1.02,1.15,0,1.72v-1.72ZM491.76,808.39c.9,8.63,4.6,16.95-5.44,20.65-6.11-7.68-5.28-18.93,5.44-20.65ZM491.76,834.21v6.87h-1.54v-6.87h1.54ZM487.07,868.62v-3.42h1.54v3.42h-1.54ZM488.61,971.9v3.42h-1.54v-3.42h1.54ZM487.85,837.64l-2.35-2.6v-2.55s3.13,0,3.13,0l-.77,5.15ZM480.77,1016.63c-3.15-5.82,6.95-7.37,7.73-6.74,5.17,4.13-3.39,18.08-3.03,5.01l-4.7,1.73ZM480.77,1008.02v-3.42h1.54v3.42h-1.54ZM484.7,951.24l.77,3.42h-3.14s2.37-3.42,2.37-3.42ZM482.35,928.85v-3.42h1.54v3.42h-1.54ZM487.04,844.52h-1.54v-3.42h1.54v3.42ZM482.34,882.4h3.13v3.42h-3.13v-3.42ZM483.87,890.14c0,1.14-3.78,3.56-4.69,2.57-2.38-2.6,4.68-7.34,4.69-2.57ZM476.04,884.11l.76-5.15,2.34,2.57-3.1,2.58ZM476.02,958.11c-2.38,2.6-6.71-5.12-2.35-5.12,1.04,0,3.26,4.13,2.35,5.12ZM478.39,906.49c1.02.57,1.02,1.15,0,1.72v-1.72ZM479.19,834.21h1.54v3.42h-1.54v-3.42ZM476.04,818.72h3.13v6.87h-3.13v-6.87ZM472.86,847.97l-4.71-1.74v-3.41c2.98-.55,5.24,2.01,4.71,5.15ZM469.74,839.36v-3.42h1.54v3.42h-1.54ZM470.52,856.58v-1.72c1.02.57,1.02,1.15,0,1.72ZM474.44,866.9l-5.89-.8-.4-4.34c3.78-.67,6.69.8,6.29,5.14ZM471.31,810.13h3.13v1.69h-3.13v-1.69ZM472.87,818.72l-.09,8.5-9.34,1.81v-8.59s5.62,1.6,5.62,1.6l3.81-3.32ZM465.02,846.24v-3.42h1.54v3.42h-1.54ZM465.79,860.02v-1.72c1.02.57,1.02,1.15,0,1.72ZM465.79,839.37v-1.72c1.02.57,1.02,1.15,0,1.72ZM464.22,868.62v-1.72c1.02.57,1.02,1.15,0,1.72ZM466.58,804.96l-3.13,3.42v-3.43s3.13,0,3.13,0ZM466.58,915.99c3.39-2.08-3.62-9.09,3.13-7.78-1.99,8.18,6.29,10.44,4.51,17.7-1.06,4.33-5.77,5.14-9.22,4.66.37-3.56,3.9-2.5,5.25-3.35,3.39-2.13-.45-8.95-2.9-10.39l-1.56,5.15-3.94-6.86,4.73.88ZM468.15,959.82h-4.72s0-3.42,0-3.42h2.33s2.39,3.42,2.39,3.42ZM459.49,928.86c1.02.57,1.02,1.15,0,1.72v-1.72ZM450.05,870.31c-.76-1.01-3.16-2.18-1.61-3.37.87,1.1,3.17,2.24,1.61,3.37ZM450.04,891v-1.72c1.02.57,1.02,1.15,0,1.72ZM449.27,927.14l3.13,3.42h-3.14s0-3.42,0-3.42ZM450.83,958.14h3.13v1.69h-3.13v-1.69ZM452.42,908.21v-3.43s3.13,0,3.13,0l-3.13,3.42ZM454.76,892.72v-1.72c1.02.57,1.02,1.15,0,1.72ZM455.54,870.33h-3.13v-1.69h3.13v1.69ZM453.67,862.69l-3.65,2.46-2.34-8.56h6.29s-.31,6.1-.31,6.1ZM453.97,847.96h-3.13v-3.42h3.13v3.42ZM451.6,839.33l-.74-.81,2.35-2.56c1.57,1.13-.73,2.28-1.61,3.37ZM449.26,813.56h3.13v3.42h-3.13v-3.42ZM444.54,820.44h1.54v3.42h-1.54v-3.42ZM449.22,836.77l-3.91,4.29-2.36-3.39,6.27-.89ZM444.53,847.95v-1.69h3.13v1.69h-3.13ZM445.31,870.35v-1.72c1.02.57,1.02,1.15,0,1.72ZM444.52,889.29v1.69h-3.13v-1.69h3.13ZM442.94,885.82h-3.13v-1.69h3.13v1.69ZM453.98,1021.79l-.02,5.16h-1.54s-3.14-6.03-3.14-6.03l4.7.87ZM450.04,1018.36v-1.72c1.02.57,1.02,1.15,0,1.72ZM450.05,1026.97l.76,5.15-3.1-2.58,2.34-2.57ZM449.24,1006.29h-3.13v-1.69h3.13v1.69ZM444.53,1025.23v-1.69h3.13v1.69h-3.13ZM446.09,1045.91v1.68s-4.7,1.74-4.7,1.74v-3.43s4.7,0,4.7,0ZM446.09,1001.16l-3.13-.02v-2.55s3.95-4.29,3.95-4.29l-.81,6.86ZM447.54,1016.86c-1.35,4.37-1.44,5.88-6.16,4.92l.02-8.59,6.14,3.66ZM438.23,1001.14v-3.42h3.13v3.42h-3.13ZM439.01,1044.17v-1.72c1.02.57,1.02,1.15,0,1.72ZM420.91,1037.27l9.44-10.29c-1.33,3.23-5.11,5.47-3.41,9.5l-6.03.79ZM422.46,1039.02v3.42h-1.54v-3.42h1.54ZM414.6,1006.29l2.37-3.42.77,3.42h-3.14ZM411.46,1016.63l1.59-6.87h3.12c.6,4.13-.74,7.3-4.71,6.87ZM416.21,1000.3l8.61-6.02c6.26,7.09.3,6.65-3.4,9.25-1.04.73.34,3.48-2.07,2.77l-3.13-6ZM419.33,992.53l2.37-3.42.77,3.42h-3.14ZM430.35,1002.89l-3.13,3.42v-3.43s3.13,0,3.13,0ZM424.03,1008.03c1.05,2.16-2.52,6-3.12,5.16-1.05-2.16,2.52-6,3.12-5.16ZM428.77,1039.03v6.85s-3.14,0-3.14,0v-6.87h3.14ZM431.92,1049.35c1.03,3.16-4.8,8.43-6.28,6.87-1.03-3.16,4.8-8.43,6.28-6.87ZM431.94,995.98v-3.42h1.54v3.42h-1.54ZM429.55,970.24l-7.05,9.4c.05,2.11,14.06,6.15-1.51,7.65-3.24-2.92,3.88-13.71-2.48-15.38-3.9-1.03-2.48,8.62-8.5,3.55l-4.1,6.75-.75-5.13c-5.31.35-5.74-5.86-12.62-3.46-.23-4.13-.48-3.01,2.35-3.41,4.37-.62,10.68-1.28,14.96-.02l-7.86-5.18c2.67-5.78,9.15-4.57,14.17-3.41l-3.12,4.28c.02,7.1,31.26-3.92,21.2,7.76l-4.69-3.39ZM400.41,1018.37v5.15h-1.54v-5.15h1.54ZM398.84,1011.47h-3.14s2.37-3.42,2.37-3.42l.77,3.42ZM395.69,978.78l-.77,3.42-2.37-3.42h3.14ZM400.43,928.88h3.13v1.69h-3.13v-1.69ZM395.71,918.52c-.37-2.61,3.96-2.22,5.51-5.11l2.35,3.39-7.86,1.73ZM401.21,949.52v-1.72c1.02.57,1.02,1.15,0,1.72ZM409.89,825.6c.6-.84,4.17,3.01,3.12,5.16-.6.84-4.17-3.01-3.12-5.16ZM410.66,841.09v-1.72c1.02.57,1.02,1.15,0,1.72ZM413.03,928.84v-1.69h3.13v1.69h-3.13ZM419.34,961.55v-3.42h1.54v3.42h-1.54ZM425.6,918.54l-3.12-3.41,5.53-3.44-2.41,6.85ZM426.41,961.56v-1.72c1.02.57,1.02,1.15,0,1.72ZM428.78,884.1v-1.69h3.13v1.69h-3.13ZM429.55,908.17l-.74-.81,2.35-2.56c1.57,1.13-.73,2.28-1.61,3.37ZM433.49,927.16v1.69h-4.71v-1.69h4.71ZM432.72,956.41l.77,3.42h-3.14s2.37-3.42,2.37-3.42ZM431.94,952.95v-3.42h1.54v3.42h-1.54ZM435.86,892.72v-1.72c1.02.57,1.02,1.15,0,1.72ZM435.86,885.84v-1.72c1.02.57,1.02,1.15,0,1.72ZM437.44,956.43l2.36,3.39-4.72-.83,2.35-2.56ZM433.51,983.95h3.13v3.42h-3.13v-3.42ZM435.08,1049.32v-1.69h3.13v1.69h-3.13ZM438.22,1054.51l-.77,3.42-2.37-3.42h3.14ZM435.08,982.21v-6.87h4.72s0,6.86,0,6.86h-4.72ZM440.59,992.54v-1.72c1.02.57,1.02,1.15,0,1.72ZM438.23,928.84v-1.69h3.13v1.69h-3.13ZM440.59,920.26v-1.72c1.02.57,1.02,1.15,0,1.72ZM441.36,897.88l-4.7-1.74v-1.68s4.71,0,4.71,0v3.43ZM442.94,877.22h-6.28s0-1.69,0-1.69l6.28-1.74v3.43ZM442.16,815.27c1.02.57,1.02,1.15,0,1.72v-1.72ZM442.16,866.9c1.02.57,1.02,1.15,0,1.72v-1.72ZM440.59,861.74c1.02.57,1.02,1.15,0,1.72v-1.72ZM436.66,868.62v-3.43s3.14,3.42,3.14,3.42h-3.14ZM437.44,856.58v-1.72c1.02.57,1.02,1.15,0,1.72ZM431.13,815.26l3.96-8.6c4.52,3.56,2.91,15.35,1.54,20.64l-2.46-5.33-5.39.18v-10.31s2.34,3.42,2.34,3.42ZM431.16,829.06h2.33s0,3.43,0,3.43l-6.25.88,3.93-4.3ZM429.56,863.46v-1.72c1.02.57,1.02,1.15,0,1.72ZM429.56,868.62v-1.72c1.02.57,1.02,1.15,0,1.72ZM429.57,870.35l.77,3.42h-3.14s2.37-3.42,2.37-3.42ZM424.84,832.48c1.02.57,1.02,1.15,0,1.72v-1.72ZM424.06,896.18h3.13v1.69h-3.13v-1.69ZM424.03,908.2h-1.54v-3.42h1.54v3.42ZM423.28,866.94c1.57,1.13-.73,2.28-1.61,3.37l-.74-.81,2.35-2.56ZM422.47,923.71v5.15c-5.78-.03-5.78-5.12,0-5.15ZM413.81,918.5l-2.35-2.56,4.72-.83-2.36,3.39ZM413.81,811.83c1.02.57,1.02,1.15,0,1.72v-1.72ZM413.03,815.28h3.13v3.42h-3.13v-3.42ZM408.31,817h3.13v5.15h-3.13v-5.15ZM405.94,880.67c1.02.57,1.02,1.15,0,1.72v-1.72ZM404.34,901.33c5.02,1.11-3.1,10.96-3.9,10.32-1.83-3.27-.13-11.2,3.9-10.32ZM397.28,806.67h3.13v3.42h-3.13v-3.42ZM394.45,878.46l4.38-14.98c2.44,5.69-.7,12.03-.81,16.32-.12,4.65,5.53,10.28-3.88,14.65l3.16-7.72-3.17-.9,3.15-1.72-2.82-5.64ZM394.12,808.4c-.84,3.42-3.36,3.87-6.3,3.41.84-3.42,3.36-3.87,6.3-3.41ZM388.3,892.89c.45-3.83-2.38-10.05,2.66-8.77l-2.66,8.77ZM390.18,940.91v-1.72c1.02.57,1.02,1.15,0,1.72ZM389.41,882.38v-3.42h1.54v3.42h-1.54ZM387.81,899.61c-.62,8.51-1.59,15.75-11.01,15.5l4.72,5.13-11.01,1.74,3.22-4.4-1.65-9.36,4.7,1.73c-1.58-4.69,8.06-13.32,11.03-10.33ZM387.81,951.25v3.42h-6.28v-3.42h6.28ZM377.58,927.14v-1.72c1.02.57,1.02,1.15,0,1.72ZM376.01,949.52v-1.72c1.02.57,1.02,1.15,0,1.72ZM370.5,897.9h3.13v1.69h-3.13v-1.69ZM368.13,877.23c1.02.57,1.02,1.15,0,1.72v-1.72ZM366.56,866.9c1.02.57,1.02,1.15,0,1.72v-1.72ZM365.79,920.26l3.13,3.42h-3.14s0-3.42,0-3.42ZM358.08,968.63c-.3.59,3.38,6.27-1,8.41-2.75,1.35-2.34-2.74-2.63-2.85-1.1-.43-5.62-.13-8.29-1.15-1.4-.54-3.83-6.16-8.73-2.87-3.73-6.71,22.47-7.23,25.18-6.87,1.27,4.42-4.06,4.39-4.53,5.33ZM354.74,1008.03c.14,5.05-8.46,2.49-1.58-1.72.04-1.57.41-3.29,1.59-4.34l-3.17-1.68,3.15-4.3c-11.6-.15-.51-6.74,1.57-10.33l-6.31-3.45,10.23-3.47c2.87,2.05-1.73,4.29-1.81,6.05-.08,1.71,2.38,3.41,1.91,6.14-.57,3.32-5.39,11.42-5.6,15.37,8.46-2.22,11.77,6.48,1.62,6.85.63-1.97-1.54-4.33-1.62-5.13ZM345.28,1006.31c.27,5.18-4.28,7.53-6.28,1.74l6.28-1.74ZM341.36,1001.15v-1.72c1.02.57,1.02,1.15,0,1.72ZM342.15,994.25v-3.42h3.13v3.42h-3.13ZM339,985.64v-1.68s7.86-1.73,7.86-1.73v3.43s-7.86,0-7.86,0ZM340.58,976.2l2.35-2.56,2.36,3.39-4.72-.83ZM338.21,1014.92v-1.72c1.02.57,1.02,1.15,0,1.72ZM327.98,1028.68v-3.42h1.54v3.42h-1.54ZM328.76,1061.39v-1.72c1.02.57,1.02,1.15,0,1.72ZM324.83,1006.31l.11-6.75,6.01-.28c1.47-2.06-.38-10.1,4.89-8.45v10.23s-11,5.25-11,5.25ZM310.65,966.74l8.57,3.42,8.74-8.59-1.57,12.05c-6.08-3.18-14.62,3.89-15.73-6.88ZM324.8,1025.25v3.42h-1.54v-3.42h1.54ZM323.24,987.36h-3.14s0-3.42,0-3.42l3.13,3.42ZM316.06,942.76l4.02,5.03,4.74-6.86-1.64,8.41c-8.82,5.13-5.06-6.25-14.12-1.55l1.58-3.43-2.96-.26c-1.1-1.28,4.75-7.95-2.58-3.22l1.62-3.39c3.14-.75,4.25,4.45,3.91,6.88l5.42-1.59ZM312.22,936.62l3.13-2.59v3.43s-3.13-.84-3.13-.84ZM310.63,977.06v3.42h-4.71v-3.42h4.71ZM305.92,985.68h4.71v1.69h-4.71v-1.69ZM309.07,1002.89h3.13v1.69h-3.13v-1.69ZM327.18,951.24v-1.72c1.02.57,1.02,1.15,0,1.72ZM327.95,983.95v3.42h-1.54v-3.42h1.54ZM327.97,1020.1l-3.13,3.42v-3.43s3.13,0,3.13,0ZM330.33,985.66v-1.72c1.02.57,1.02,1.15,0,1.72ZM335.06,928.86v-1.72c1.02.57,1.02,1.15,0,1.72ZM335.83,1006.32v3.42h-1.54v-3.42h1.54ZM337.4,1028.69c.24,3.22.44,7.56-3.12,8.6-.8-2.39,2.21-10.72,3.12-8.6ZM339,947.79v-3.42h3.13v3.42h-3.13ZM341.37,954.64c-.76-1.01-3.16-2.18-1.61-3.37.87,1.1,3.17,2.24,1.61,3.37ZM339.78,942.63v-1.72c1.02.57,1.02,1.15,0,1.72ZM339,929.73l3.13-2.59v3.43s-3.13-.84-3.13-.84ZM342.16,939.18v-3.42h1.54v3.42h-1.54ZM344.51,913.37v-1.72c1.02.57,1.02,1.15,0,1.72ZM351.08,897.45c-.12.27-3.35,3.73-4.2,3.86l3.93-8.59c1.67.4.84,3.38.26,4.72ZM353.17,918.55l-1.59,5.13h-1.54s0-5.14,0-5.14h3.14ZM347.68,906.51h2.33s0,3.42,0,3.42h-4.72s2.39-3.42,2.39-3.42ZM348.44,918.54v3.42h-3.13v-3.42h3.13ZM355.53,930.58v-1.72c1.02.57,1.02,1.15,0,1.72ZM361.83,847.97c1.02.57,1.02,1.15,0,1.72v-1.72ZM361.04,870.35v2.55s-3.13,2.61-3.13,2.61v-5.15s3.13,0,3.13,0ZM357.11,866.9c1.02.57,1.02,1.15,0,1.72v-1.72ZM359.47,908.23l-3.13,3.42v-3.43s3.13,0,3.13,0ZM359.45,916.82v3.43s-3.13-.84-3.13-.84l3.13-2.59ZM356.3,894.44l-3.13-2.59,3.13-.84v3.43ZM353.96,880.67c1.02.57,1.02,1.15,0,1.72v-1.72ZM351.61,861.75h1.54v3.42h-1.54v-3.42ZM342.93,820.43c1.02.57,1.02,1.15,0,1.72v-1.72ZM340.58,834.22h3.13v1.69h-3.13v-1.69ZM332.69,823.89l-3.13,3.42v-3.43s3.13,0,3.13,0ZM329.53,834.21l-.77,5.15-2.35-2.6v-2.55s3.13,0,3.13,0ZM329.53,847.97l-3.1-2.58,2.34-2.57.76,5.15ZM315.35,860.01c5.26,14.3-8.53,10.72-6.29,24.11,13.88,2.88,23.11-6.72,14.86-20.6l1.65-3.22,14.99,1.45-4.7,22.36c5.96-1.34,10.54-23.98,11.8-24.06,3.57-.22-.25,10.74.8,12.01l4.69-5.15c.41,5.13-3.01,7.05-6.28,9.47l4.71,3.51c-.85,4.53-1.9,7.1-6.26,6.8l3.12,4.3-6.28-3.42-4.73,8.6c3.74-22.83-6.58-3.3-3.15,6.9l2.88-1.45c5.74,6.3,1.3,11.29,1.7,15.91.13,1.53,5.26.15,3.27,4.46-8.8.87-19.45-3.17-25.99,5.17-.41-7.37-20.52-2.48-21.24-3.45,2.66-3.14-.51-18.06,0-18.83.4-.6,4.13-.59,5.36-1.63,1.92-1.62-1-7.11,5.65-5.37l-4.7-5.15,7.83.84c-3.19,2.78-2.3,8.42-3.91,11.35-.61,1.1-4.86-1.1-6.22,5.03-.59,2.69,2.99,6.34.71,10.3,4.08.91,2.45-.81,3.31-2.45,3.97-7.54,2.89-18.45,14-13.04,2.52-10.04-10.39-14.17-11.84-17.16-3.55-7.3,3.74-22.51-7.02-26.74l17.28-.86ZM301.18,946.08c2.38,2.6-4.68,7.34-4.69,2.57,0-1.14,3.78-3.56,4.69-2.57ZM298.83,934.03v-1.72c1.02.57,1.02,1.15,0,1.72ZM302.76,977.07v1.69h-3.13v-1.69h3.13ZM298.83,959.84v-1.72c1.02.57,1.02,1.15,0,1.72ZM298.05,985.68h4.71v1.69h-4.71v-1.69ZM301.2,931.44l3.13-.84v3.43s-3.13-2.59-3.13-2.59ZM295.68,956.4v-1.72c1.02.57,1.02,1.15,0,1.72ZM288.6,987.36v-1.69h3.13v1.69h-3.13ZM290.18,1042.46h1.54v3.42h-1.54v-3.42ZM290.17,975.31v-1.69h3.13v1.69h-3.13ZM292.53,963.28v-1.72c1.02.57,1.02,1.15,0,1.72ZM289.44,923.79c-4.95,1.24-8.5.67-13.44-.11l17.31-3.42c.76,5.09-1.09,2.84-3.86,3.53ZM288.58,1037.31v1.69h-3.13v-1.69h3.13ZM287.03,1033.84v-3.42h1.54v3.42h-1.54ZM284.65,1013.2v-1.72c1.02.57,1.02,1.15,0,1.72ZM283.85,939.2v3.42h-1.54v-3.42h1.54ZM282.31,934.02v-3.42h1.54v3.42h-1.54ZM283.85,959.85v5.15h-1.54v-5.15h1.54ZM278.35,913.37v-1.72c1.02.57,1.02,1.15,0,1.72ZM283.86,909.94v3.43s-3.13-2.59-3.13-2.59l3.13-.84ZM280.72,897.87v-3.42h3.13v3.42h-3.13ZM291.75,897.87v-5.15h3.13v5.15h-3.13ZM298.06,899.6v-3.42h1.54v3.42h-1.54ZM295.68,866.9c1.02.57,1.02,1.15,0,1.72v-1.72ZM295.39,873.84c.58-.05,2.95-4.95,5.02-5.2l.77,5.15-3.11-.91,1.53,6.07-11-1.73c.03-7.4,3.96-3.13,6.79-3.38ZM290.17,808.4h3.13v3.42h-3.13v-3.42ZM294.88,818.72v3.41s-4.7,1.74-4.7,1.74c-.53-3.14,1.73-5.7,4.7-5.15ZM294.89,844.51l-3.13.02-1.59-8.6,3.14-.02,1.58,8.6ZM288.6,860.04h4.71v1.69h-4.71v-1.69ZM288.58,872.05h-3.13v-1.69h3.13v1.69ZM272.05,816.99c1.02.57,1.02,1.15,0,1.72v-1.72ZM266.55,825.61h1.54v3.42h-1.54v-3.42ZM266.53,813.55l-.91,5.31-8.52,1.58-.81-8.58c3.13,4.67,5.88,3.02,10.24,1.69ZM265.75,837.64v-1.72c1.02.57,1.02,1.15,0,1.72ZM257.88,825.61l.76,5.15-3.1-2.58,2.34-2.57ZM256.3,842.81v-1.72c1.02.57,1.02,1.15,0,1.72ZM264.95,858.3l.79,8.59c2.5-1.44,3.73-6.53,5.52-7.72,4.54-3.02,17.98.69,14.18,4.28l-14.2,3.47c1.52,6.63,2.73,4.03-1.56,5.14-.3.08-.64,1.65-1.58,0l-5.56-.06.03-3.4-7.07,3.45-.02-12.03,9.46-1.72ZM275.98,904.78v3.42h-3.13v-3.42h3.13ZM263.4,915.95l3.13-.84v3.43s-3.13-2.59-3.13-2.59ZM265.75,1013.2v-1.72c1.02.57,1.02,1.15,0,1.72ZM258.68,878.95c-1.05-2.16,2.52-6,3.12-5.16,1.05,2.16-2.52,6-3.12,5.16ZM263.38,978.78v3.42s-2.33,0-2.33,0l-2.38-2.57,4.71-.84ZM257.88,891v-1.72c1.02.57,1.02,1.15,0,1.72ZM261.03,908.21v-1.72c1.02.57,1.02,1.15,0,1.72ZM263.39,947.81l-3.13,3.42v-3.43s3.13,0,3.13,0ZM261.82,923.68v-1.69h3.13v1.69h-3.13ZM264.96,889.26c1.13-2.8,3.46-5.69,6.3-5.13-1.13,2.8-3.46,5.69-6.3,5.13ZM268.12,878.94v-3.42h3.13v3.42h-3.13ZM250.8,868.63h3.13v3.42h-3.13v-3.42ZM250.8,882.4h3.13v3.42h-3.13v-3.42ZM249.22,908.23h3.13v1.69h-3.13v-1.69ZM241.35,839.37h1.54v3.42h-1.54v-3.42ZM240.55,813.55c1.02.57,1.02,1.15,0,1.72v-1.72ZM240.55,822.16c1.02.57,1.02,1.15,0,1.72v-1.72ZM239.78,825.61h1.54v3.42h-1.54v-3.42ZM240.55,832.48v-1.72c1.02.57,1.02,1.15,0,1.72ZM235.03,823.89v3.43s-3.13-2.59-3.13-2.59l3.13-.84ZM228.75,823.88c.76-1.78,3.76,4.64,3.12,6.88-3.03-.84-3.55-3.8-3.12-6.88ZM226.37,808.39c1.02.57,1.02,1.15,0,1.72v-1.72ZM216.14,820.44h3.13v3.42h-3.13v-3.42ZM214.57,897.9h3.13v1.69h-3.13v-1.69ZM216.92,925.42v-1.72c1.02.57,1.02,1.15,0,1.72ZM211.42,860.03h3.13v3.42h-3.13v-3.42ZM213,916.81v-3.42h1.54v3.42h-1.54ZM213.77,1009.75v-1.72c1.02.57,1.02,1.15,0,1.72ZM212.2,878.95v-1.72c1.02.57,1.02,1.15,0,1.72ZM208.27,923.72h3.13v1.69h-3.13v-1.69ZM206.7,808.4h1.54v3.42h-1.54v-3.42ZM207.47,1023.52v-1.72c1.02.57,1.02,1.15,0,1.72ZM201.97,1040.72v-1.69h3.13v1.69h-3.13ZM203.53,1044.19l-3.13,3.42v-3.43s3.13,0,3.13,0ZM197.25,1011.48l.97-5.28,6.9.13-1.59,3.41,3.16.91-9.45.82ZM206.68,1013.21v1.69h-3.13v-1.69h3.13ZM196.45,968.45v-1.72c1.02.57,1.02,1.15,0,1.72ZM196.45,961.56v-1.72c1.02.57,1.02,1.15,0,1.72ZM197.23,1025.25v3.42h-3.13v-3.42h3.13ZM197.22,956.39l-3.13-.84,3.95-4.28-.81,5.12ZM176.75,1010.58c-.77-5.03,5.5-7.88,9.45-7.69-2.48,4.09.02,4.74.7,6.89,1.41,4.49-9.83,2.92-10.16.8ZM182.27,1028.69v-1.72c1.02.57,1.02,1.15,0,1.72ZM164.16,1009.72c7.21.56,13.4,4.1,5.49,10.34l-2.33.02-.32-4.82c-6.57,1.13-7.41-11.82-3.65-15.88,3.53-3.81,15.06,2.79,16.61-8.56l4.93,6.63,2.89,1.97c-8.6-4.73-7.57,1.85-10.67,3.39-2.99,1.49-9.43,1.49-12.96,1.78v5.12ZM151.54,1006.3l.03-6.88c5.64,2.07,9.1,2.63,7.85,10.32l-1.55-3.42-6.33-.02ZM157.84,1028.69v3.42h-1.54v-3.42h1.54ZM153.12,1044.19v1.69h-3.13v-1.69h3.13ZM151.57,1030.4v-3.42h1.54v3.42h-1.54ZM146.83,1016.64l1.57,3.43-4.72-2.57,3.14-.85-.9-6.96,7.2-1.63c-1.93,3.22-2.09,9.11-6.3,8.59ZM138.16,1032.13c7.38,3.47-3.96,11.11-3.96,15.47l-3.11-.88c-3.39-2.58,6.33-14.94,7.07-14.59ZM132.67,1023.51v-3.42h1.54v3.42h-1.54ZM139.73,1030.37l-2.34-5.12c3.8,2.05,6.14-2.19,9.42-3.44l-.2,4.94-6.88,3.63ZM133.43,966.77c-3.72,2.59-2.2,6.33.8,8.57.07.05.09-.43,1.58,0,3.9,1.13,5.61-1.72,5.53,6.89-5.5,4.02-6.95-.83-8.68-3.44-1.16.48-4.22,2.2-4.71,1.72-1.02-5.63,2.25-2.58,4.71-3.44-.69-1.05-3.27-1.19-4.23-2.29-1.34-1.55.99-5.08-5.28-5.44l.24-5.89,4.55-.16-1.45-6.63,7.74-3.67-1.48,7.51c1.02,4.04,7.95,2.72,10.93,2.79-3.65-9.46,2.78-11.59,7.87-4.28-7.92,2.05-6.72,6.83-7.9,14.61h-4.7s1.52-3.32,1.52-3.32l-7.04-3.52ZM115.29,1015.82c-2.01-1.49-1.65-3.55-1.52-6.06l6.28,6.87-4.76-.8ZM120.05,1030.39h-3.14s0-3.42,0-3.42l3.13,3.42ZM101.15,957.29c.32-2.03,2.03-2.84,3.99-.9,2.24,2.23.8,4.06,1.24,4.81,1.64,2.78,8.45,2.4.1,10.45l-5.31-1.5c4.78-6.53-.64-8.84-.01-12.86ZM107.45,940.93l-2.39,3.42-3.91-2.58,6.29-.83ZM103.51,937.47v-1.72c1.02.57,1.02,1.15,0,1.72ZM109.04,954.67v-3.42h1.54v3.42h-1.54ZM109.02,977.06v3.42s-3.93,1.7-3.93,1.7l-2.33-2.54c1.67-2.66,3.37-2.98,6.26-2.57ZM107.46,992.55h3.13v3.42h-3.13v-3.42ZM109.04,944.34v-3.42h6.28v3.42h-6.28ZM121.63,952.97l-1.33,3.23,2.89,1.89c-6.08-1.35-.37,7.38-5.48,6.9l-3.97-6.04c5.75-1.43-1.98-9.8,7.89-5.98ZM113.76,984.79l3.13-.84v3.43s-3.13-2.59-3.13-2.59ZM114.54,999.43v-1.72c1.02.57,1.02,1.15,0,1.72ZM118.49,981.35l7.86-2.57v2.55s-2.44,2.53-2.44,2.53h-2.98s-2.44-2.52-2.44-2.52ZM146.85,939.18v-3.42h1.54v3.42h-1.54ZM149.98,913.39l4.76-.97,4.6,7.72-3.58,2.28,2.09,8.15-7.86-5.18,3.14-5.12-3.14-.02-.02-2.56h3.13s-3.12-4.3-3.12-4.3ZM153.14,950.37l4.72-.83-2.36,3.39-2.35-2.56ZM154.69,956.41v3.42h-1.54v-3.42h1.54ZM154.73,947.8l-3.17-8.6c8.31-1.04,10.82,4.2,3.17,8.6ZM147.62,971.92l2.36,3.39-4.72-.83,2.35-2.56ZM152.17,977.23l7.25,6.73c.06,1.86-8.09,1.74-8.68,1.68-10.13-.91-2.22-9.5,1.43-8.41ZM153.13,997.69c1.91-5.88.63-10.23,7.83-10.3l1.49,6.64-9.32,3.67ZM165.72,1018.36l-3.92,10.29c-4.5-2.99,1.25-8.93,3.92-10.29ZM161.79,1018.36v-1.72c1.02.57,1.02,1.15,0,1.72ZM175.18,1032.13l.79-1.69c.37.03.43,1.55.78,1.69,1.55.64,3.63.18,4.72,2.6l-1.56,3.43-3.25.05c-1.41-1.06-1.07-3.15-1.48-4.36-.13-.38-1.52-.45-1.55-.85l1.55-.87ZM194.08,1040.75l-5.53,6.85h-2.33c-2.01-2.11,5.03-7.81,7.87-6.85ZM193.3,994.26v-1.72c1.02.57,1.02,1.15,0,1.72ZM192.52,940.9v-3.42h4.71v3.42h-4.71ZM182.29,952.94l-2.35-2.56,1.55-4.3h3.13s0,6.86,0,6.86h-2.33ZM183.84,956.4v-1.72c1.02.57,1.02,1.15,0,1.72ZM181.49,939.18v-3.42h4.71v3.42h-4.71ZM179.91,927.12c1.22-4.37,5.99-3.5,9.44-3.42v3.42s-9.44,0-9.44,0ZM180.69,896.16v-1.72c1.02.57,1.02,1.15,0,1.72ZM190.93,946.06h-4.72s0-3.42,0-3.42h2.33s2.39,3.42,2.39,3.42ZM186.99,956.44c5.54,2.55,6.23,5.63,5.51,12h-6.3s.78-12,.78-12ZM195.64,911.65c1.05,2.16-2.52,6-3.12,5.16-1.05-2.16,2.52-6,3.12-5.16ZM196.45,946.07v-1.72c1.02.57,1.02,1.15,0,1.72ZM199.61,992.51c-.76-1.01-3.16-2.18-1.61-3.37.87,1.1,3.17,2.24,1.61,3.37ZM199.6,968.45v-1.72c1.02.57,1.02,1.15,0,1.72ZM206.68,1002.86h-3.13v-3.42h3.13v3.42ZM205.1,992.53h-3.13v-3.42h3.13v3.42ZM203.53,925.4h-7.86v-1.69h7.86v1.69ZM197.24,841.1h3.13v1.69h-3.13v-1.69ZM198.84,862.76c6.17-1.75,5.37,3.57,1.49,6.67-1.01.81-11.96,7.8-12.93,8.25-3.07,1.41-6.97.6-8.72,1.68-1.4.86-1.08,6.02-5.06,4.75,1.23-4.9,3.51-6.42,1.57-12.03l8.69,3.23,7.89-13.58c5.28,3.97,4.04,1.9,7.08,1.04ZM164.85,961.48c-.95-1.64-6.68-1.66-2.99-6.82,2.42-.27,4.29-.17,6.63.64.43.15.17,2.07,1.19,2.41.78.26,5.07-1.16,7.08.42l-1.6,8.59-6.27-3.44-.03,6.88c-5.36-1.1-3.24-7.34-4.02-8.69ZM164.14,896.17v5.15h-1.54v-5.15h1.54ZM163.37,844.53v-1.72c1.02.57,1.02,1.15,0,1.72ZM168.87,940.92v3.42c-2.9.42-4.59.07-6.28-2.58l6.28-.84ZM164.94,925.42v-1.72c1.02.57,1.02,1.15,0,1.72ZM164.94,908.21v-1.72c1.02.57,1.02,1.15,0,1.72ZM172.03,930.6h4.73s-.13,7.48-.13,7.48l-4.58,4.56-1.23-6.58,2.88-1.29-1.67-4.17ZM165.74,869.46l9.43-5.99-1.55,7.86-7.88-1.87ZM172.04,927.12v-1.69h6.28v1.69h-6.28ZM185.42,806.67c1.02.57,1.02,1.15,0,1.72v-1.72ZM180.69,863.5c2.64,1.39.77,3.67,1.34,4.78.25.49,1.81.31,2.56.37.77,8.81-9.33-1.89-3.9-5.15ZM183.06,842.79c-3.45-1.22-12.18,5.49-11.03-1.7,3.65,1.16,9.41-3.74,11.03,1.7ZM178.32,817.01c1.78.89-4.35,3.81-6.28,3.41-1.78-.89,4.35-3.81,6.28-3.41ZM167.32,834.21h1.54v3.42h-1.54v-3.42ZM167.3,863.44h-3.13v-1.69h3.13v1.69ZM164.14,806.67c.42,3.21.01,5.96-3.12,6.88-.42-3.21-.01-5.96,3.12-6.88ZM160.22,816.99c1.02.57,1.02,1.15,0,1.72v-1.72ZM162.57,934.03v3.43s-3.13-2.59-3.13-2.59l3.13-.84ZM160.16,971.12c3.21,5.04,4.31,6.25,9.53,9.38l1.09-3.13c7.88,2.89-.97-4.85,7.53-.29l1.47-6.16,7.99-.74c-1.76,6.22,8.15,6.72,4.72,17.19l-7.08-10.28-3.96,12c-3.02.05-2.06-7.43-3.15-8.59-2.87-3.02-4.69,5.05-4.72,6.87-2.07,1.6-17.64-8.16-18.45-10.65-.32-.99,1.39-3.11.46-4.79-1.26-2.27-7.41-2.48-4.83-6.93,4.1-7.06,8.07,4.04,9.4,6.12ZM156.3,823.88h1.54v5.15h-1.54v-5.15ZM157.07,878.95v-1.72c1.02.57,1.02,1.15,0,1.72ZM157.87,880.68h1.54s0,5.14,0,5.14h-3.14s1.59-5.14,1.59-5.14ZM155.49,837.64c1.02.57,1.02,1.15,0,1.72v-1.72ZM151.57,843.69l2.35-2.6.77,5.15h-3.13s0-2.55,0-2.55ZM154.7,866.91v3.42h-3.13v-3.42h3.13ZM154.69,885.84l-1.24,10.01c.72.97,4.53-.64,2.84,3.74l-7.85-.81,6.26-12.94ZM147.62,818.71c1.02.57,1.02,1.15,0,1.72v-1.72ZM148.39,904.77c-.18,3.9-.9,10.3-4.69,12.05.18-3.9.9-10.3,4.69-12.05ZM146.81,868.62c1.05,2.16-2.52,6-3.12,5.16-1.05-2.16,2.52-6,3.12-5.16ZM142.12,803.23h1.54v3.42h-1.54v-3.42ZM142.12,925.42l4.71,1.74v3.41s-4.71,0-4.71,0v-5.15ZM136.59,875.51c1.02.57,1.02,1.15,0,1.72v-1.72ZM128.72,875.51c1.02.57,1.02,1.15,0,1.72v-1.72ZM135.18,921.9c1.07.65,5.15,1.6,5.34,1.83,2.96,3.53-5.84,4.09-4.55,7.46.05.49,4.03,8.18,4.46,8.61,2.59,2.64,6.68-1.32,4.58,7.75l-7.63,1.97,1.11-4.31-2.05-2.45-14.81,1.6c-.66-6.74,10.82-4.14,14.16-5.17l-3.31-2.74,1.73-7.56-3.72,1.36-2.56-4.79c4.21.48,5.69.73,7.25-3.53ZM125.57,915.09c1.02.57,1.02,1.15,0,1.72v-1.72ZM122.42,808.39c1.02.57,1.02,1.15,0,1.72v-1.72ZM122.42,918.54c1.02.57,1.02,1.15,0,1.72v-1.72ZM120.84,882.39c1.02.57,1.02,1.15,0,1.72v-1.72ZM118.49,765.37h1.54v3.42h-1.54v-3.42ZM116.91,875.52h3.13v3.42h-3.13v-3.42ZM116.11,903.05c1.02.57,1.02,1.15,0,1.72v-1.72ZM112.2,934.92c1.56-5.78,7.9-8.98,12.56-11.22.36.47-3.12,11.2-3.51,11.64-.73.82-10.37,4.47-9.05-.42ZM109.02,935.74c-.85,1.02-6.36-4.05-7.3-4.84-1.87-1.58-4.51-1.71-3.71-5.47,1.36-1.42,13.24,7.65,11.01,10.31ZM99.57,934.04v1.69h-3.13v-1.69h3.13ZM105.09,878.95v-1.72c1.02.57,1.02,1.15,0,1.72ZM108.24,913.37v-1.72c1.02.57,1.02,1.15,0,1.72ZM108.24,801.5c1.02.57,1.02,1.15,0,1.72v-1.72ZM108.24,822.16c1.02.57,1.02,1.15,0,1.72v-1.72ZM106.66,842.84l2.36,3.39-4.72-.83,2.35-2.56ZM103.51,794.62c1.02.57,1.02,1.15,0,1.72v-1.72ZM98.01,844.55h3.13v1.69h-3.13v-1.69ZM99.57,897.89v3.43s-3.13-2.59-3.13-2.59l3.13-.84ZM95.65,835.96c1.57,1.13-.73,2.28-1.61,3.37l-.74-.81,2.35-2.56ZM96.41,918.54v3.42h-1.54v-3.42h1.54ZM91.71,885.83v-3.43s3.14,3.42,3.14,3.42h-3.14ZM92.49,930.58v-1.72c1.02.57,1.02,1.15,0,1.72ZM92.5,648.33l.76,5.15-3.1-2.58,2.34-2.57ZM90.11,906.48c-.22.24-1.03-.09-1.54,0-.43-3.07.09-6.03,3.12-6.88.17,1.35-1.22,6.48-1.58,6.87ZM90.91,947.79v-1.72c1.02.57,1.02,1.15,0,1.72ZM90.11,841.09v5.15s-6.28-.84-6.28-.84l6.28-4.31ZM75.96,751.61h4.71v1.69h-4.71v-1.69ZM71.23,844.55h6.28v1.69h-6.28v-1.69ZM80.59,850.4l3.24,2.7c-7.64.86-8.12,13.06-15.74,13.79-2.24-2.54,9.24-15.63,12.5-16.49ZM82.24,889.29v1.69h-3.13v-1.69h3.13ZM75.94,882.4v3.42h-3.13v-3.42h3.13ZM64.37,877.48c3-1.11,6.35-.79,8.4,2.33-3.47,3.74-7.45.07-10.21,5.99-3.78-1.91-.61-7.43,1.81-8.33ZM56.26,799.78c1.02.57,1.02,1.15,0,1.72v-1.72ZM55.47,593.26c2.5,2.73-2.21,7.88-4.71,5.15-2.5-2.73,2.21-7.88,4.71-5.15ZM47.74,585.66l1.43,7.59c-9.66.39-4.84-4.85-4.72-8.6-1.03-.36-3.28.71-4.44-.24-2.86-2.31-1.25-8.36,2.08-10.06,3.26,2.64,2.49,6.62,2.36,10.29.86.3,2.64-.84,3.29,1.01ZM42.86,844.55v1.69h-3.13v-1.69h3.13ZM42.08,703.4v-1.72c1.02.57,1.02,1.15,0,1.72ZM26.23,689.74l.79-28.62,19.89.86.69,29.37-21.37-1.61ZM36.57,701.66h-3.14s0-3.42,0-3.42l3.13,3.42ZM20.83,835.94h3.13v1.69h-3.13v-1.69ZM20.82,622.49c-.77-.65,2.75-4.56,4.72-3.41.77.65-2.75,4.56-4.72,3.41ZM22.4,636.27c1.18-5.03,4.31-8.97,8.67-10.28.95.73-.93,3.92-1.38,4.53-.68.91-5.95,7.35-7.29,5.76ZM22.4,572.59l-.02-5.15h7.88c1.21.95-6.63,6.66-7.87,5.15ZM29.48,610.46v-1.72c1.02.57,1.02,1.15,0,1.72ZM42.86,629.4c1.07,6.1-5.55.43-7.85,5.15l.91-3.55,6.94-1.6ZM38.15,615.61v-1.69h3.13v1.69h-3.13ZM39.73,596.68v-1.69h3.13v1.69h-3.13ZM46.01,617.36v1.69h-3.13v-1.69h3.13ZM43.66,605.3v-1.72c1.02.57,1.02,1.15,0,1.72ZM39.71,589.82v3.42h-1.54v-3.42h1.54ZM38.93,588.09v-1.72c1.02.57,1.02,1.15,0,1.72ZM41.31,541.63h1.54v3.42h-1.54v-3.42ZM35.01,553.67h1.54v3.42h-1.54v-3.42ZM44.44,567.44l-2.28,4.59-7.15-1.17c.38-3.09,7.1-2.16,9.43-3.42ZM41.29,598.42c0,6.76-6.25,6.85-6.28,0h6.28ZM37.38,607.04h2.33s0,3.42,0,3.42h-4.72s2.39-3.42,2.39-3.42ZM33.44,619.07l3.13,3.42h-3.14s0-3.42,0-3.42ZM30.28,637.99v-3.43s3.14,3.42,3.14,3.42h-3.14ZM31.86,586.38h1.54v3.42h-1.54v-3.42ZM28.7,543.36h3.13v1.69h-3.13v-1.69ZM22.4,543.36h3.13v1.69h-3.13v-1.69ZM23.18,550.22v-1.72c1.02.57,1.02,1.15,0,1.72ZM23.96,555.4v3.43s-3.13-2.59-3.13-2.59l3.13-.84ZM25.54,607.01c-1.05,1.07-6.25-.8-6.26-2.57-.05-5.13,9.26-.48,6.26,2.57ZM16.1,570.87v-3.43s3.14,3.42,3.14,3.42h-3.14ZM19.23,866.91v3.42h-1.54v-3.42h1.54ZM16.88,558.83v-1.72c1.02.57,1.02,1.15,0,1.72ZM18.46,526.13c1.02.57,1.02,1.15,0,1.72v-1.72ZM16.1,543.36h3.13v1.69h-3.13v-1.69ZM14.54,546.78l3.13,3.42h-3.14s0-3.42,0-3.42ZM15.31,588.09v-1.72c1.02.57,1.02,1.15,0,1.72ZM14.53,672.44h3.13v1.69h-3.13v-1.69ZM12.95,748.14v-3.42h4.71v3.42h-4.71ZM14.51,834.21v3.43s-6.28-1.74-6.28-1.74v-1.68s6.28,0,6.28,0ZM11.38,643.15v-3.42h3.13v3.42h-3.13ZM11.38,615.64h3.13v1.69h-3.13v-1.69ZM12.93,648.33v3.43s-3.13-.84-3.13-.84l3.13-2.59ZM8.23,558.81v-1.69h3.13v1.69h-3.13ZM10.58,591.53v-1.72c1.02.57,1.02,1.15,0,1.72ZM11.37,526.15c-1.17,4.75-4.53,1.78-7.87,1.68v-1.68s7.87,0,7.87,0ZM9.79,543.36v1.69H3.5v-1.69h6.28ZM3.51,538.17v-3.42h1.54v3.42h-1.54ZM5.86,519.24v-1.72c1.02.57,1.02,1.15,0,1.72ZM5.86,514.08v-1.72c1.02.57,1.02,1.15,0,1.72ZM10.58,491.71v-1.72c1.02.57,1.02,1.15,0,1.72ZM31.84,469.34c1.01.95-6.79,18.13-11.01,13.75-3.35-3.47,5.72-7.73,4.72-8.58l-7.84,2.58c3.83-6.65,6.26-9.31,14.14-7.75ZM19.24,469.35l-1.59,5.13h-1.54s0-5.14,0-5.14h3.14ZM16.88,484.82v-1.72c1.02.57,1.02,1.15,0,1.72ZM17.65,488.27c1.05,2.16-2.52,6-3.12,5.16-1.05-2.16,2.52-6,3.12-5.16ZM12.16,469.33c1.02.57,1.02,1.15,0,1.72v-1.72ZM8.29,486.13c-.98,1.47-.15,5.28-3.21,5.58-.05-3.5,2.26-9.12,6.28-8.59.47,2.53-1.74,1.02-3.07,3.01ZM9.01,465.89c1.02.57,1.02,1.15,0,1.72v-1.72ZM.35,483.09l11.02-8.58c-3.52,2.91-5.91,9.63-11.02,8.58ZM-9.1,498.57l4.7,1.76.02-5.19,14.16.02c1.48,7.13-6.94,1.37-7.66,1.95-.45.36-.69,3.32-2.69,4.74-1.27.91-9.29,4.32-10.11,3.61l1.58-6.89ZM.34,512.37v3.43s-3.13-2.59-3.13-2.59l3.13-.84ZM-10.67,550.21v-1.69h3.13v1.69h-3.13ZM-9.12,557.12v3.42h-1.54v-3.42h1.54ZM-10.67,546.78v-3.43s3.13,0,3.13,0l-3.13,3.42ZM-7.54,519.24h-3.13v-3.42h3.13v3.42ZM-13.04,512.36v-1.72c1.02.57,1.02,1.15,0,1.72ZM-12.25,536.44v-1.69h3.13v1.69h-3.13ZM-13.82,555.4h1.54v3.42h-1.54v-3.42ZM-13.82,603.59h4.72s-2.39,3.42-2.39,3.42h-2.33s0-3.42,0-3.42ZM-9.12,674.13h-1.54v-3.42h1.54v3.42ZM-9.11,648.31h-3.13v-1.69h3.13v1.69ZM-5.13,632.88c-1.29,2.25-3.28,1.77-5.55,1.66l6.28-8.59-.73,6.93ZM-4.37,517.53H1.91v3.42h-6.28v-3.42ZM-2.02,545.06v-1.72c1.02.57,1.02,1.15,0,1.72ZM11.36,548.52c.05,2.77-6.57,1.93-8.55,1.99-2.2.06-3.73,2.22-5.61-1.15l14.16-.83ZM7.43,674.14v-1.72c1.02.57,1.02,1.15,0,1.72ZM5.06,632.85v3.43s-3.13-2.59-3.13-2.59l3.13-.84ZM4.28,558.83v-1.72c1.02.57,1.02,1.15,0,1.72ZM1.91,557.13v1.69H-1.22v-1.69H1.91ZM-2.02,615.63v-1.72c1.02.57,1.02,1.15,0,1.72ZM-2.79,638.83v-2.55s3.13,0,3.13,0l-.77,5.15-2.35-2.6ZM1.91,799.8v1.69H-1.22v-1.69H1.91ZM1.8,834.33c1.14,3.79,2.4,14.65-3.8,13.63-5.69-.93,2.93-6.98,2.34-9.44l-4.72-4.3,6.18.11ZM-1.22,849.7H1.91s-.77,6.87-.77,6.87c-2.42-1.86-2.74-3.69-2.36-6.87ZM-1.24,870.36v1.69h-3.13v-1.69H-1.24ZM-9.1,815.29h3.13v1.69h-3.13v-1.69ZM-11.47,773.96c1.02.57,1.02,1.15,0,1.72v-1.72ZM-13.04,799.78c1.02.57,1.02,1.15,0,1.72v-1.72ZM-13.04,854.86v-1.72c1.02.57,1.02,1.15,0,1.72ZM-11.47,863.46v-1.72c1.02.57,1.02,1.15,0,1.72ZM-13.82,835.07c1.71-2.76,6.94-3.12,7.87.83l-7.87-.83ZM-5.95,874.64l4.57-.69,1.71,6.72-6.28-6.03ZM-7.52,904.77v-3.43s3.13,0,3.13,0l-3.13,3.42ZM.34,894.42h-3.13v-1.69H.34v1.69ZM1.13,899.6v-1.72c1.02.57,1.02,1.15,0,1.72ZM3.48,888.39l-3.12,2.61v-5.15s3.13,0,3.13,0v2.55ZM3.5,742.99c2.17-2.2,8.35,3.04,6.28,5.15-2.17,2.2-8.35-3.04-6.28-5.15ZM6.66,763.63v-5.15h1.54v5.15h-1.54ZM7.43,775.69v-1.72c1.02.57,1.02,1.15,0,1.72ZM17.67,844.55c-1.15,4.99-11.3,2-12.6-1.72l12.6,1.72ZM16.08,853.14v3.42h-1.54v-3.42h1.54ZM11.38,868.64h3.13v1.69h-3.13v-1.69ZM9.8,858.28v-1.69h3.13v1.69h-3.13ZM5.09,891v-3.43s3.13,0,3.13,0l-3.13,3.42ZM6.65,882.38c-3.23-3.2,9.58-9.37,12.59-6.87,1.27,6.98-4.43.61-6.08,1.86-.34.26-2.95,8.53-6.51,5.01ZM10.58,894.44v-1.72c1.02.57,1.02,1.15,0,1.72ZM14.51,904.76h-3.13v-3.42h3.13v3.42ZM20.81,906.48h-4.71v-3.42h4.71v3.42ZM20.03,896.16v-1.72c1.02.57,1.02,1.15,0,1.72ZM11.38,885.84l11.53-1.55,2.63,4.96c-4.67,1.32-13.78,5.01-14.16-3.41ZM26.25,847.33c-2.31.02-3.77.84-5.42-1.94,4.87-3.56,10.43-.62,15.74-.83-.43,2.41-8.45,2.76-10.32,2.78ZM34.21,891v-1.72c1.02.57,1.02,1.15,0,1.72ZM30.26,903.04l-3.13-.84,3.13-2.59v3.43ZM30.26,921.98l-3.13-2.59,3.13-.84v3.43ZM30.29,923.7l6.28,10.32c-4.03,1.09-5.2-7.67-6.28-10.32ZM43.82,894.62c-4.55,5.47-8.34,15.33-15.13,17.01-1.24-1.2,19.21-26.56,20.73-28.11,2.06-2.1,1.98-3.81,6.04-2.85,2.63,2.65-10.32,12.35-11.64,13.94ZM58.62,899.59h-3.13v-1.69h3.13v1.69ZM57.06,857.41v-2.55s4.71,0,4.71,0l-2.35,5.14-2.35-2.6ZM58.63,873.8h3.14s-3.13,3.43-3.13,3.43v-3.43ZM66.49,920.24h-3.13v-1.69h3.13v1.69ZM67.3,912.08c-1.53,6.16-6.36,2.24-2.98-.52l5.32-1.63-2.34,2.14ZM60.21,897.86l15.1-5.19,8.32,3.19.96-3.17,3.97,1.77c-8.59,11.47-17.39,4.1-28.34,3.4ZM75.96,927.14c1.67-5.88-3.97-3.6-3.15-8.59h6.3s0,7.71,0,7.71l-3.15.88ZM83.04,901.32c1.02.57,1.02,1.15,0,1.72v-1.72ZM83.83,915.09c-2.02-2.37,2.79-9.13,4.71-6.87,2.02,2.37-2.79,9.13-4.71,6.87ZM99.25,956.06l-15.42,5.49,1.58-10.31c4.4-.57,6.09,7.16,6.56.45l2.87,1.29.02-5.19c6.86-.66,6.41,2.72,4.39,8.27ZM83.83,1018.38l6.31-1.76c-1.48-3.67-3.09-7.43.77-10.27,7.38,5.47-4.8,25.59-7.08,12.03ZM96.43,1050.21l2.35-2.56,2.36,3.39-4.72-.83ZM103.99,1021.49c-.21.39-6.83,4.59-7.56,3.74l3.93-13.73c2.68,2.01,5.47,6.59,3.63,9.98ZM105.09,1040.73v-1.72c1.02.57,1.02,1.15,0,1.72ZM110.59,1013.19c-4.52,1.21-2.2-3.52-6.21-4.5-2.71-.67-4-.08-6.37,1.09l-.02-5.19-4.71,1.75c1.85-7.22-5.8-4.96-7.88-10.33,5.15,4.12,20.05-9,20.18.43.03,2.2-2.07,4.05-.88,7.75.46,1.42,8.34,4.14,5.89,9.01ZM111.39,1054.5v-1.72c1.02.57,1.02,1.15,0,1.72ZM111.39,959.84v-1.72c1.02.57,1.02,1.15,0,1.72ZM112.96,1020.08c1.02.57,1.02,1.15,0,1.72v-1.72ZM116.92,1045.9l-.79,3.43c-4.76-4.7-2.8-7.81,2.95-8.37l5.67,7.52c-3.22,5.3-4.61-1.71-7.83-2.58ZM120.84,1006.31v-1.72c1.02.57,1.02,1.15,0,1.72ZM124,1028.68l-2.35-2.6v-2.55s3.13,0,3.13,0l-.77,5.15ZM120.08,998.57c.02-1.77,5.21-3.64,6.26-2.57,3,3.05-6.31,7.7-6.26,2.57ZM138.06,997.77c.98-1.19-1.57-7.42,7.06-5.02l3.31,5.95c-1.83,13.79-11.02-6.75-14.39,10.84-15.63-2.55,1.74-9,4.02-11.77ZM135.8,1013.19l1.58,5.15h-9.45s7.87-5.15,7.87-5.15ZM129.51,1028.69h3.13v3.42h-3.13v-3.42ZM141.1,1075.58l-10.99-2.74v-2.69s11,0,11,0v5.43ZM145.24,1039.01l1.59,8.6c-7.79.71-9.14-7.01-1.59-8.6ZM142.11,1056.2c-.66-9.49,16.76-3.44,17.29-7.73l-4.67-1.71,3.12-4.29-3.06-.07-.05-3.36c4.9-3.84,11.87-7.29,16.87-1.31,3.35,4.01,2.89,8.55-1.97,9.9-2.64-8.43-4.08-.65-7.06,2.58,9.45,5.41-3.87,5.34-8.57,6.15-4.63.8-4.97,4.36-11.9-.17ZM176.79,1074.29c0-1.14,3.78-3.56,4.69-2.57,2.38,2.6-4.68,7.34-4.69,2.57ZM186.2,1075.14h-3.13v-1.69h3.13v1.69ZM179.16,1054.44c-3.14,8.04-9.64,7.24-16.57,6.93l8.22-9.9c4.19.42,11.63-3.17,14.96-1.63.33.15,1.45,4.63,5.17,2.95-.76,8.68-7.26,4.63-11.77,1.65ZM194.12,1069.97l-3.17-6.86,6.29,1.73-3.12,5.13ZM194.08,1052.8l7.06-1.74,2.36,2.58c-2.3,3.87-7.76,3.91-9.42-.84ZM198.82,1064.82v-3.41s6.28-1.74,6.28-1.74v3.41s-6.28,1.74-6.28,1.74ZM205.13,1035.56c-.43-3.07.09-6.03,3.12-6.88.17,1.35-1.22,6.48-1.58,6.87-.22.24-1.03-.09-1.54,0ZM208.27,1066.55v-3.43s3.13,0,3.13,0l-3.13,3.42ZM214.54,1066.54h-1.54v-3.42h1.54v3.42ZM217.7,1057.94c-3.91-1.64-8.35,1.65-11.02-2.61l3.96-7.7c3.24-.85,3.33,4.34,4.5,6.31.67,1.12,4.18-.13,2.55,4.01ZM220.84,1028.68h-1.54v-3.42h1.54v3.42ZM218.48,1023.49v-6.82l2.37,2.57-2.37,4.24ZM219.29,1014.9l1.59-5.13h1.54s0,5.14,0,5.14h-3.14ZM221.65,925.42v-1.72c1.02.57,1.02,1.15,0,1.72ZM222.42,865.18l-3.13-2.59,3.13-.84v3.43ZM220.89,823l6.26.9v1.69c-2.89.42-4.6.1-6.26-2.58ZM233.45,925.4h-6.28v-1.69h6.28v1.69ZM233.47,841.1h3.13v1.69h-3.13v-1.69ZM234.25,1020.08v-1.72c1.02.57,1.02,1.15,0,1.72ZM244.49,860.03c.15,2.54-1.72,9.18-4.7,6.84l-4.74-8.57,9.44,1.72ZM241.34,940.89v-1.69h3.13v1.69h-3.13ZM244.48,959.85v3.43s-3.13-2.59-3.13-2.59l3.13-.84ZM242.9,875.49h-3.13v-1.69h3.13v1.69ZM241.32,891.01v3.42h-1.54v-3.42h1.54ZM238.97,916.81v-1.72c1.02.57,1.02,1.15,0,1.72ZM236.62,921.99h3.13v3.42h-3.13v-3.42ZM244.48,965.01c0,6.76-6.25,6.85-6.28,0h6.28ZM243.7,1076.88v-1.72c1.02.57,1.02,1.15,0,1.72ZM243.7,1064.83v-1.72c1.02.57,1.02,1.15,0,1.72ZM247.61,1032.12h-3.12s1.59-6.87,1.59-6.87h3.12s-1.59,6.87-1.59,6.87ZM247.62,1018.36l-7.84-4.33c-1.78-3.54,7.99-4.08,9.43-4.27l-1.59,8.6ZM250.78,973.6h-3.13v-3.42h3.13v3.42ZM250.78,965c-2.38,2.6-6.71-5.12-2.35-5.12,1.04,0,3.26,4.13,2.35,5.12ZM252.35,949.51h-1.54v-3.42h1.54v3.42ZM244.49,925.41c-1.15-6.77,10.58-2.17,14.17-3.42-2.2,5.49-9.92,1.79-14.17,3.42ZM257.88,966.73v-1.72c1.02.57,1.02,1.15,0,1.72ZM255.5,1056.21h-3.13v-3.42h3.13v3.42ZM261.03,1049.34v-1.72c1.02.57,1.02,1.15,0,1.72ZM261.03,1033.85v-1.72c1.02.57,1.02,1.15,0,1.72ZM252.37,1012.33l11.02-.83c-1.54,4.79-8.19,4.73-11.02.83ZM264.95,971l-4.7,4.33v-6.88s4.7,0,4.7,0v2.55ZM266.52,1030.4h-1.54v-3.42h1.54v3.42ZM268.1,1066.54h-1.54v-3.42h1.54v3.42ZM268.1,1056.21h-1.54v-3.42h1.54v3.42ZM264.97,1021.79v-3.43s3.14,3.42,3.14,3.42h-3.14ZM272.83,1076.86h-3.13v-1.69h3.13v1.69ZM272.83,968.43h-3.13v-1.69h3.13v1.69ZM269.7,954.67v-3.42h1.54v3.42h-1.54ZM272.83,944.33h-3.13v-1.69h3.13v1.69ZM274.41,923.68l-6.28,1.74v-3.43s6.28,0,6.28,0v1.68ZM277.56,1023.5h-3.13v-1.69h3.13v1.69ZM279.15,968.46h3.13v1.69h-3.13v-1.69ZM285.44,1044.19c.77.65-2.75,4.56-4.72,3.41-.77-.65,2.75-4.56,4.72-3.41ZM280.72,1056.23h3.14s-3.13,3.43-3.13,3.43v-3.43ZM285.43,1075.14h-3.13v-1.69h3.13v1.69ZM283.9,1053.64l1.55-4.3h4.72s-3.94,6.85-3.94,6.85l-2.33-2.54ZM291.73,1066.54h-3.13v-3.42h3.13v3.42ZM298.83,1037.29v-1.72c1.02.57,1.02,1.15,0,1.72ZM304.33,1073.42h-1.54v-3.42h1.54v3.42ZM305.9,1068.27l-3.13-2.59,3.13-.84v3.43ZM310.63,1063.1h-3.13v-3.42h3.13v3.42ZM307.4,1053.76l1.66,4.17c-9.83,3.18-11.68-12.22-5.02-6.39.42.36.26,2.11.31,2.95h1.53s4.74-3.41,4.74-3.41l-3.23,2.69ZM305.92,1049.32l2.39-3.41h2.33s0,3.42,0,3.42h-4.72ZM326.38,1069.99l-14.16-6.91c1.32-1.93,3.09-11.3,3.48-11.74,1.76-2,6.61-.13,6.01-4.59-.95-7.08-7.05-7.26-11.06-2.58,1.73-7.69,6.82-9.99,2.98-18.81-2.56,1.02-5.14.26-7.72-.12h-.65c.22-.02.44-.03.65,0v-1.72l-1.58,1.72c-5.27-1.05-6.55-3.21-6.99-3.21-1.81,0-6.63,3.96-6.43-1.97l9.48-6.84,5.51,10.29,3.16-10.33,6.29,1.74-2.93,6.66,9.2,6.22-4.68,9.47,4.76-.97c2.3,1.8.8,6.89,2.36,9.62,1.1,1.93,8.07,1.79,1.53,8.56l-3.9-.85,6.26,2.6-6.26,6.01,4.68,7.74ZM327.98,1069.14l2.35-2.56,2.36,3.39-4.72-.83ZM335.84,1056.2h-3.13v-1.69h3.13v1.69ZM339,1069.98v-5.15s3.13,2.61,3.13,2.61v2.55s-3.13,0-3.13,0ZM346.85,1050.18c-1.68,6.96-9.3-4.53-12.59-2.58l2.41-5.16c2.89,3.38,11.86.8,10.18,7.74ZM346.88,1044.17c-.48-6.22,5.95-4.31,9.43-5.14l-9.43,5.14ZM348.45,1031.28l3.13-2.59v3.43s-3.13-.84-3.13-.84ZM356.32,1026.95c-.77-.65,2.75-4.56,4.72-3.41.77.65-2.75,4.56-4.72,3.41ZM357.11,1052.78v-1.72c1.02.57,1.02,1.15,0,1.72ZM355.53,1035.57v-1.72c1.02.57,1.02,1.15,0,1.72ZM360.26,1069.99v-1.72c1.02.57,1.02,1.15,0,1.72ZM359.45,1061.37h-1.54l-1.59-5.13h4.72l-1.59,5.13ZM361.06,1054.5c-.55-4.54.59-8.61,4.69-10.33.2,3.82-1.17,8.84-4.69,10.33ZM366.68,1030.37c-.55-2.08.69-2.95.67-3.4-5.22.98-4.48,5.43-5.51,5.16-4.88-1.28,2.04-5.96.37-9.94-1.53-3.66-12.93-6.92-14.55-.41-2.65.09-3.13-12.05.77-12.01-2.96,9.78,17.84,4.44,20.48,6.89-2.35,5.51-1.8,5.39-1.57,10.32,1.44-.27,3.21.16,4.72.01l-1.45,4.39,2.64,1.06-1.21,6.58c-1.54-.49-5.13-7.69-5.38-8.64ZM371.28,1016.64v-1.72c1.02.57,1.02,1.15,0,1.72ZM372.86,1052.78v-1.72c1.02.57,1.02,1.15,0,1.72ZM374.43,1068.27v-1.72c1.02.57,1.02,1.15,0,1.72ZM373.37,987.57c-.33-.39-7.85-3.87-9.17-3.65-.11-5.21,5.54-9.19,4.83-16.15-.16-1.59-5.2-.16-3.26-4.46l7.11-3.47c1.32-.04.48,2.54,1.07,2.95,3.86,2.66,6.7-2.34,8.66-2.65.98-.16,9.85,5.02,14.65,1.44.81,5.12-1.23,2.73-3.69,3.62-4.44,1.61-8.69,1.5-11.83,6.09-3.81,5.57-2.46,6.24,2.87,4.88l-1.54,4.33,7.88.02-3.17,15.46-1.68-3.24-10.11,6.66c-4.16-2.15-1.24-10.18-2.64-11.82ZM389.38,971.9v3.42h-1.54v-3.42h1.54ZM386.25,1002.89l-9.44,6.85c1.97-3.03,5.75-7.2,9.44-6.85ZM381.54,999.42v-3.42h1.54v3.42h-1.54ZM390.96,1068.26l-6.28-1.73v-1.68s3.94-1.7,3.94-1.7c1.69,1.53,2.84,2.6,2.34,5.11ZM394.11,1058.79c-1.8,4.56-6.61,1.43-9.45.86l1.57-6.86c-3.98,2.68-5.66-.64-9.43-1.75l4.68-4.27c-6.79-7.15-3.52-12.65-3.08-21.54l3.08.89c-3.03-3.63-3.23-5.32-1.54-9.48l-3.17-.86c-.05-1.66,2-.57,3.17-.86.08-.02-.24-1.55.79-1.69l.79,1.69c1.56-.93,2.68-2.15,4.72-1.71.13,2.45-1.14,4.57-1.57,6.88.76.4,3.25-.94,3.16.87l-.03,4.29c-.16.25-2.61-1.36-3.13-1.72-.32,2.62-3.46,2.43,1.57,4.29-4.44,4.9-5.24,11.94-3.12,18.08,3.43-2.45,6.01-5.96,9.4-.86l-6.27,6.01,4.71.86-3.12,7.76,3.16-5.15c3.37-1.1,4.16,1.61,3.11,4.27ZM391.76,1040.7l-2.36-12.01h4.72s-1.45,4.41-1.45,4.41l3.04,1.58-3.95,6.02ZM401.99,1069.98h-3.13c-.63-8.89,6.33-8.49,3.13,0ZM407.51,1066.55v-1.72c1.02.57,1.02,1.15,0,1.72ZM408.28,1051.07l-4.73,10.31c-7.91.84,2.19-10.19,2.7-13.17.75-4.42,1.13-14.08,2.18-18.52.8-3.41,3.28-5.87,3.05-9.61l3.15.88-1.58,7.71c2.12.58,1.86-2.53,3.14-3.43.55-.39,1.02-1.49,1.58-1.72.81-4.03-1.29-5.06,4.71-6.88.57,2.99-1.8,4.36-3.13,6.88,1.04-.04,2.11,0,3.16.01-3.14,6.47-.82,3.2,1.56,6.86-6.31-1.94-14.7,2.61-12.64,10.98l3.19,2.79-6.26.87,6.25,4.29,3.96-6.84,3.94,5.11-6.3.03,1.39,4.86-6.93,7.16-2.36-8.58ZM416.96,1061.39v-1.72c1.02.57,1.02,1.15,0,1.72ZM419.32,1068.26h-3.13v-3.42h3.13v3.42ZM424.04,1056.21h-3.13v-5.15h3.13v5.15ZM425.63,1064.82c-.97-1.14.73-6.82,2.35-6.84,4.7-.05.44,10.12-2.35,6.84ZM449.24,1068.27c-6.29,1.14-1.5-5.58-2.36-8.62l-3.92,8.61c-5.3,1.65-1.9-4.68-3.94-5.16-7.23-1.7-.55,7.62-8.65,5.16,1.37-3.3,5.39-4.46,3.15-8.57,7.23,2.51,5.85.74,9.45-1.74h-3.14s0-2.56,0-2.56l2.35-2.6.78,5.15c2.57-1.77,2.94,1.69,3.16-6.87,8.24.54,3.62,11.23,3.12,17.2ZM458.69,1025.24l-3.14,6.87,3.14,1.72-6.31.86,6.3-9.45ZM460.48,999.08l4.51-1.37-.04,4.26-7.02,6.05-3.6-7.82,5.18-4.23.96,3.11ZM460.28,994.25l2.37-3.42.77,3.42h-3.14ZM460.29,1047.6v-1.69h3.13v1.69h-3.13ZM462.64,1054.5v-1.72c1.02.57,1.02,1.15,0,1.72ZM462.65,1026.96l-2.37-3.42h3.14s-.77,3.42-.77,3.42ZM461.85,1021.78c-1.97,1.15-5.49-2.75-4.72-3.41,1.97-1.15,5.49,2.75,4.72,3.41ZM458.68,1056.22h-3.12s1.59-8.6,1.59-8.6c4.49,1.58,2.37,4.86,1.53,8.6ZM464.17,1070.01c-3.87-2.53-5.69-3.13-10.19-1.75l1.58-10.31c5.73,1.07,5.74,7.28,12.59,3.45l-3.98,8.61ZM465.02,1045.9v-3.43s3.13,0,3.13,0l-3.13,3.42ZM472.87,1069.98h-4.71v-3.42h4.71v3.42ZM474.44,1064.82h-1.54v-5.15h1.54v5.15ZM474.45,1030.41c-7.16.37-3.82-2.23-4.73-3.44-.75-.99-3.29-1.36-3.15-3.43,1.04-.04,2.1-.02,3.15-.02-.85-2.94-1.58-3.57,0-6.87l-6.28,5.15-1.5-9.26c8.01-3.48,6.44-6.34,9.36-11.39-1.05-.05-2.1.07-3.14,0,2.65-5.99-3.83-23.18-8.75-24.12-5.06-.96-12.53,3.37-18.02,0l12.58-3.44-12.59-1.72c.8-3.56,4.04-3.55,6.99-3.5,3.81.06,11.93,1.17,9.53,5.2,3.32-5.1,7.82-.74,12.71-.33,1.74.15,13.58-3.05,9.36,3.82-1.84,3-5.19-.28-5.43.04-.76.99.52,7.37-4.81,6.86-.5,3.37,3.85.92,4.74,1.71.53.47-5.07,11.22,4.69,6.88-.51,6.12-4.4,2.61-7.86,8.6,2.09.1,4.21-.09,6.29,0l-3.14,8.58,4.74.88c0,1.08-9.49,1.94-7.88,7.74l5.51-5.12.83,8.58c.5.43,4.95-3.01,6.23.87,1.83,5.58-3.32,4.73-6.28,6.01-.1.04.56,1.22-1.58,1.72.02,1.07,2.31,12.34,2.62,13.36.63,2.07,3.12,1.95,3.42,3,.26.93-3.15,11.19-3.69,11.19l-2.47-17.65c-4.05-1.78-1.99-4.83-1.45-9.9ZM483.92,1047.62l-1.59-5.15c4.4-.19,6.32,3.38,1.59,5.15ZM481.54,1037.29v-1.72c1.02.57,1.02,1.15,0,1.72ZM481.54,1061.39v-1.72c1.02.57,1.02,1.15,0,1.72ZM477.61,1069.97l1.97-3.92,6.7-2.93-3.96,1.75,6.3,6.84-11.01-1.74ZM488.38,1057.66l-6.04.26c-.64-2.72,1.9-1.04,2.67-2.22,1.68-2.58-1.66-6,5.19-4.64l-1.82,6.6ZM490.2,1035.56h-3.13s-1.54-6.04-1.54-6.04l2.32-2.52c2.95,2.11,2.56,4.97,2.35,8.56ZM491.76,1008.02h-1.54v-3.42h1.54v3.42ZM487.06,994.25l1.59-6.87h3.12c.6,4.13-.74,7.3-4.71,6.87ZM495.35,940.58c-1.03,2.42.95,4.7-3.56,3.76,2.54-5.69,4.29-10.55,6.12-16.61.81-2.7-1.37-4.92,3.32-4.02-2.2,5.5-3.56,11.4-5.88,16.87ZM515.39,813.55c-3.03-.84-3.55-3.8-3.12-6.88.76-1.78,3.76,4.64,3.12,6.88ZM518.56,830.74c1.36-3.85,5.96-5.35,9.45-5.13-1.36,3.85-5.96,5.35-9.45,5.13ZM535.87,827.31h-3.13v-3.42h3.13v3.42ZM539.04,861.76h3.13v1.69h-3.13v-1.69ZM539.82,868.62v-1.72c1.02.57,1.02,1.15,0,1.72ZM542.17,1076.87h-1.54v-3.42h1.54v3.42ZM540.61,961.55l2.37-3.42.77,3.42h-3.14ZM546.89,982.21h-1.54v-5.15h1.54v5.15ZM547.7,1069.99v-1.72c1.02.57,1.02,1.15,0,1.72ZM550.05,865.16h-3.13v-1.69h3.13v1.69ZM550.05,860.01c-1.05,1.06-6.24-.8-6.26-2.57-.05-5.13,9.26-.48,6.26,2.57ZM546.92,830.75c-.56-.59,1.56-11.69,2.04-13.81.68-2.96.98-3.95,2.67-1.67v15.49s-4.71-.02-4.71-.02ZM553.19,894.43h-1.54v-3.42h1.54v3.42ZM560.3,870.35v-1.72c1.02.57,1.02,1.15,0,1.72ZM595.72,989.1c-2.2-4.3-7.42-3.32-7.68-3.71-.44-.65.2-3.21-.63-4.29-.89-1.14-8.44-5.89-4.32-8.4,16.16-4.47,11.05,4.26,12.64,16.4ZM588.65,999.43v-1.72c1.02.57,1.02,1.15,0,1.72ZM578.43,865.19h1.54v3.42h-1.54v-3.42ZM565.82,853.14h3.13v3.42h-3.13v-3.42ZM566.15,874.84c.36-2.12,3.45-3.15,3.76-5.27.32-2.17-1.83-6.58-.94-9.54,2.28-.45,2.11,3.39,2.4,5.22,2.23,14.06,3.26,30.69.72,44.68l-7.87-21.51c4.89-5.28,1.36-10.21,1.93-13.58ZM571.32,915.09v-1.72c1.02.57,1.02,1.15,0,1.72ZM570.55,916.82c3.62,2.25.62,11.49,1.54,15.47-3.64-2.4-.61-11.5-1.54-15.47ZM570.54,949.52h3.13v3.42h-3.13v-3.42ZM578.42,970.18c.42-6.48.65-10.55-6.2-10.48l-.1-5.04,3.79,1.52,2.44-2.45c-3.05-14.41.99-29.93,1.71-44.59.55-11.13-.55-22.49-.05-33.62,2.47.91,2.81,8.65,3.08,11.22,1.08,10.08-.47,20.08.06,30.09l3.13-1.75c-3.49,6.1,3.15,9.13,3.21,9.75.18,1.87-1.37,4.33-1.1,6.35.44,3.33,3.36,13,2.28,15.59-1.04,2.5-4.25,2.27-4.51,3.87-.66,4.01,2.11,8.74,6.22,7.62l.21,8.47c-6.17-3.28-7.39,5.34-14.16,3.45ZM587.09,1009.72l-.74-8.41,5.83-1.77-2.77-9.56,3.22,5.98,3.09-1.72v20.66s-7.09-3.42-7.09-3.42l.03,5.12-7.1-12,5.52,5.12ZM594.95,1021.8v-1.72c1.02.57,1.02,1.15,0,1.72ZM592.57,1016.65v3.42h-1.54v-3.42h1.54ZM587.08,1039c-5.92-1.83-5.6-8.1.78-8.58l-.78,8.58ZM589.42,1049.33h-1.54v-3.42h1.54v3.42ZM592.59,1035.57l-3.13,1.72-.02-2.56c-.08-1.46,2.22-1.11,3.16-.88-2.62-2.33-4.01-1.85-3.13-6.88l2.34,3.43,3.93-3.43.81,15.48-3.95-6.88ZM596.52,1047.62v-1.72c1.02.57,1.02,1.15,0,1.72ZM633.56,992.55h1.54v3.42h-1.54v-3.42ZM631.96,997.69h-3.13v-1.69h3.13v1.69ZM630.39,987.4l-4.71,5.15c-.53-3.14,1.73-5.71,4.71-5.15ZM622.5,1056.21h-1.54v-3.42h1.54v3.42ZM621.73,1014.92v-1.72c1.02.57,1.02,1.15,0,1.72ZM620.95,1002.89h3.13v1.69h-3.13v-1.69ZM609.92,1040.75c1.16-4.29-4.06-16.08,3.14-15.49l1.58,15.46-4.72.03ZM609.93,1023.52l3.13-10.31v4.31s4.72-1.74,4.72-1.74l-7.85,7.75ZM609.92,1011.47v-5.15h3.13v5.15h-3.13ZM619.35,1008.03v3.43s-4.7,0-4.7,0v-3.43h4.7ZM613.85,983.94c1.02.57,1.02,1.15,0,1.72v-1.72ZM609.88,985.67l1.48,4.39,4.84-.95-2.91,4.26,2.91,9.5-4.46-1.5c-.26,3.39-.09,3.7-3.4,3.22l-1.59-18.07,3.13-.85ZM616.23,906.5h1.54v3.42h-1.54v-3.42ZM616.22,916.82h3.13v3.42h-3.13v-3.42ZM608.35,906.5h3.13v3.42h-3.13v-3.42ZM603.6,923.69h-1.54v-5.15h1.54v5.15ZM605.98,906.49c1.02.57,1.02,1.15,0,1.72v-1.72ZM602.05,913.38h3.13v3.42h-3.13v-3.42ZM608.32,842.8h-1.54v-3.42h1.54v3.42ZM676.08,841.09c-.42-3.21-.01-5.96,3.12-6.88.42,3.21.01,5.96-3.12,6.88Z"/>
    <polygon points="115.32 429.76 105.89 431.49 105.89 433.17 115.32 431.45 115.32 429.76"/>
    <path d="M132.65,977.05c.25.38-.25,1.34,0,1.72.67-.28,2.15.17,3.14,0v-3.43s-1.57,0-1.57,0c-.45.53-1.05,1.54-1.58,1.72Z"/>
    <path d="M177.54,873.79v1.72c1.02-.57,1.02-1.15,0-1.72Z"/>
    <path d="M180.69,978.77v1.72c1.02-.57,1.02-1.15,0-1.72Z"/>
    <path d="M175.18,1033.85l1.58-1.72c-.52.14-1.37-.22-1.58,0-.2.22.12,1.15,0,1.72Z"/>
    <polygon points="381.53 1050.21 384.66 1051.05 384.66 1047.62 381.53 1050.21"/>
    <path d="M381.51,1019.24c-.41,2.51,1.63,3.23,3.17,4.29.14-1.11-.19-2.42,0-3.44-.91-.47-3.09-2.82-3.17-.84Z"/>
    <path d="M379.95,1014.92c-.25.28.21,1.2,0,1.72l1.58-1.72c-.42.25-1.33-.28-1.58,0Z"/>
    <path d="M419.32,1023.52c-.55.02-1.23-.15-1.58,0-.23,1.16-.1,1.89-1.58,1.72l3.14,1.71c.23-1.04-.3-2.86,0-3.44Z"/>
    <path d="M470.52,980.49v1.72c1.02-.57,1.02-1.15,0-1.72Z"/>
    <path d="M470.52,977.05v1.72c1.02-.57,1.02-1.15,0-1.72Z"/>
    <path d="M476.03,1030.41c-.04-1.76,1.57-1.6,1.58-1.72.08-2.54-.74-4.6-3.13-5.16-.2,2.25.22,4.64-.02,6.88.52-.03,1.11.11,1.58,0Z"/>
    <path d="M591.8,978.77v1.72c1.02-.57,1.02-1.15,0-1.72Z"/>
    <polygon points="592.57 999.43 592.18 999.54 594.15 1006.3 592.57 999.43"/>
    <rect x="592.6" y="1008.04" width="1.54" height="3.42"/>
    <path d="M592.59,1033.85c.15.04-.16,1.64,0,1.72l1.54-.86c0-1.1-1.38-.72-1.54-.86Z"/>
    <rect x="28.7" y="1045.91" width="3.13" height="1.69"/>
    <path d="M42.08,1044.17v1.72c1.02-.57,1.02-1.15,0-1.72Z"/>
    <path d="M613.85,951.24c1.02-.57,1.02-1.15,0-1.72v1.72Z"/>
    <rect x="620.96" y="935.76" width="1.54" height="3.42"/>
    <path d="M622.49,940.92l-3.13,12.02c6.55.42,3.42-8.1,3.13-12.02Z"/>
    <polygon points="639.86 978.77 642.99 975.35 639.85 975.34 639.86 978.77"/>
    <path d="M629.6,925.42c1.02-.57,1.02-1.15,0-1.72v1.72Z"/>
    <path d="M613.85,947.79c1.02-.57,1.02-1.15,0-1.72v1.72Z"/>
    <path d="M613.85,928.86v1.72c1.02-.57,1.02-1.15,0-1.72Z"/>
    <path d="M613.85,935.75c1.02-.57,1.02-1.15,0-1.72v1.72Z"/>
    <path d="M371.3,978.81l-2.35,2.56.74.81c.87-1.1,3.17-2.24,1.61-3.37Z"/>
    <path d="M469.73,1023.52c.25.88-.16,2.37,0,3.44,4.48.64,5.67-3.44,0-3.44Z"/>
    <path d="M692.61,741.26v1.72c1.02-.57,1.02-1.15,0-1.72Z"/>
    <path d="M163.37,1044.17v1.72c1.02-.57,1.02-1.15,0-1.72Z"/>
    <path d="M668.21,1018.36c-.19,1.67.21,3.54-.02,5.16,4.45,2.74,6.6,4.23,11.01-1.71-5.85,2.95-6.67.08-11-3.45Z"/>
    <path d="M667.41,995.98c1.02-.57,1.02-1.15,0-1.72v1.72Z"/>
    <path d="M667.41,944.35v1.72c1.02-.57,1.02-1.15,0-1.72Z"/>
    <path d="M665.81,1001.18c-1.56,1.2.85,2.36,1.61,3.37,1.57-1.13-.73-2.28-1.61-3.37Z"/>
    <rect x="669.78" y="1051.08" width="3.13" height="1.69"/>
    <path d="M668.98,1013.2c1.02-.57,1.02-1.15,0-1.72v1.72Z"/>
    <rect x="665.06" y="1049.35" width="1.54" height="5.15"/>
    <path d="M675.28,1044.17v1.72c1.02-.57,1.02-1.15,0-1.72Z"/>
    <path d="M664.27,1016.67l-2.18,8.34,6.09,1.95c.13-1.12-.14-2.35.02-3.44-2.74-1.69-4.39.69-3.92-6.85Z"/>
    <rect x="676.08" y="985.67" width="1.54" height="3.42"/>
    <path d="M686.31,983.94v1.72c1.02-.57,1.02-1.15,0-1.72Z"/>
    <polygon points="47.15 1079.47 49.23 1079.48 49.23 1078.6 46.26 1078.6 47.15 1079.47"/>
    <path d="M622.5,863.47l-3.09-1.71-1.65,4.31,3.15,5.99c-.44,1.72-2.8-7.36-4.7-.82-.7,2.4,8.55,5.94-.04,5.16l-1.54,6.02,4.73,1.72c-1.63,3.77-2.95,7.25.78,10.3,1.46-3.46-2.96-4.56,2.15-5.98l-2.95-10.33,2.38-2.58,3.93,2.51-1.57-7.7,6.27,8.58-3.27-15.32-2.98.77,1.54-4.36c-1.03-.11-2.13.13-3.16,0-.3.64.21,2.4-.01,3.45Z"/>
    <path d="M9.74,915.16c-4.83.2-3.08,6.65-10.3,1.82-1.18,5.64-9.92,1.55-14.85,3.27v3.44c8.72-1.5,17.46-3.68,25.2,1.72,3.5-6.63,4.02-3.52-.05-10.26Z"/>
    <path d="M668.98,989.1v1.72c1.02-.57,1.02-1.15,0-1.72Z"/>
    <path d="M676.05,1004.6c-.51.08-1.35-.24-1.54,0-.27.34-2.35,7.04-2.4,8.56,1.73-1.45,4.73-6.71,3.94-8.56Z"/>
    <path d="M670.56,1032.13v1.72c1.02-.57,1.02-1.15,0-1.72Z"/>
    <rect x="669.78" y="997.71" width="1.54" height="3.42"/>
    <path d="M673.71,985.66v1.72c1.02-.57,1.02-1.15,0-1.72Z"/>
    <path d="M-15.41,460.73v3.44l7.88-1.72c-2.3-.03-5.26-1.99-7.88-1.72Z"/>
    <path d="M584.71,1063.11l1.56-.86-1.56-.86c-.14.05.14,1.68,0,1.72Z"/>
    <path d="M124.66,1077.43l-1.19-1.55-11.69,1.08,5.21,1.63h-3.87c2.65,2.66,6.28,3.3,9.02,1.61l2.47.77,1.78-1.31-.83-1.07h-1.65c.27-.35.53-.74.75-1.16Z"/>
    <path d="M583.14,1063.11c1.01,5.04,1.85,10.27,1.59,15.49l4.7-1.74-3.12-4.26,4.68-1.73-6.27-7.76c-.49.14-1.07-.1-1.58,0Z"/>
    <path d="M60.2,1002.88l-3.14-1.72,4.75-.03c-.61-18.06-9.43-10.63-9.43,3.34,3.45,1.16,6.37,3.3,7.83-1.59Z"/>
    <path d="M83.82,980.48l-1.56-5.14,4.7.02-4.75-5.18c-4.65,2.07-5.65,6.25-2.32,10.36l3.93-.05Z"/>
    <path d="M49.17,1003.7c-2.48-4.2-5.16-8.92-7.87-12.88-1.89,3.71-4.58,9.75-6.3,13.77,2.35.27,13.43,3.14,14.17-.89Z"/>
    <path d="M9,1054.5l-.79-3.43,6.31,1.69-3.15-5.13,6.28-.02c.46-.96-4.21-18.88-7.85-17.24-.07-2.85,5.32-.69,3.14-5.99-2.18-5.29-15.75-.12-9.43-11.18l-6.29-3.45-.08,12.94c17.64,3.88,8.16,4.64.05,9.43.95,5.02-2.16,12.51-4.73,17.21l5.48,6.97,11.05-1.8ZM8.23,1039.02h4.71v3.42h-4.71v-3.42Z"/>
    <path d="M14.52,971.9l-.78-5.17c-5.84,4.1-7.92,8.16-14.96,5.16-.59,5.43.77,2.72,3.44,2.92,7.75.59,14.44,6.31,17.79-2.9l7.1,3.41c1.18-5.73,1.48-7.55-3.12-11.18,4.26-4.53,7.59-6.01,4.68-12.9l-12.57,11.21,6.28,2.57c.19,4.77-3.99,7.53-7.86,6.89Z"/>
    <path d="M668.98,1035.57v1.72c1.02-.57,1.02-1.15,0-1.72Z"/>
    <path d="M8.01,989.34c-2.31-1.48-5.65.96-6.94,3.22l.88,10.29c8.63,3.45,10.8-10.48,6.06-13.52Z"/>
    <rect x="8.23" y="1014.93" width="3.13" height="1.69"/>
    <path d="M-1.24,1025.26l-14.17-1.74v15.49c5.15.4,8.45-4.44,12.6-6.88-.2-1.05-1.76-2.18-1.67-4.25.09-1.88,3.88.41,3.23-2.61Z"/>
    <path d="M-1.26,466.73c-5.13,2.6-8.73,1.02-14.14.88v3.44c5.16-2.33,10.53,2.26,14.14-4.32Z"/>
    <path d="M-10.8,1006.19l-1.62-1.77c-.22,1.31.58,1.63,1.62,1.77Z"/>
    <path d="M-12.24,1003.76c1.68-4.92,8.17-3.64,9.19-4.58,1.36-1.26.21-7.11.73-7.99.46-.78,5.92-3.54,5.78-6.4-.08-1.65-3-2.92-5.14-2.24-4.22,1.34-2.62,5.89-8.19-.5l-5.53,3.61v15.49l3,3.27c.03-.2.09-.42.17-.66ZM-9.89,983.94c1.02.57,1.02,1.15,0,1.72v-1.72ZM-10.67,990.82l3.13,3.42h-3.14s0-3.42,0-3.42Z"/>
    <polygon points="-15.41 880.67 -15.41 882.39 -12.24 881.53 -15.41 880.67"/>
    <path d="M-10.8,1006.19l3.26,3.56c1.14-3.63-1.42-3.31-3.26-3.56Z"/>
    <path d="M664.25,983.94v1.72c1.02-.57,1.02-1.15,0-1.72Z"/>
    <path d="M662.68,982.22c1.02-.57,1.02-1.15,0-1.72v1.72Z"/>
    <path d="M662.68,1075.15v1.72c1.02-.57,1.02-1.15,0-1.72Z"/>
    <rect x="661.9" y="1011.49" width="3.13" height="1.69"/>
    <path d="M659.53,894.44c1.02-.57,1.02-1.15,0-1.72v1.72Z"/>
    <path d="M664.25,944.35v1.72c1.02-.57,1.02-1.15,0-1.72Z"/>
    <path d="M659.53,1056.22v1.72c1.02-.57,1.02-1.15,0-1.72Z"/>
    <path d="M662.68,875.51v1.72c1.02-.57,1.02-1.15,0-1.72Z"/>
    <path d="M665.03,990.83c-2.98-.55-5.23,2.01-4.7,5.15l4.71-1.74v-3.41Z"/>
    <path d="M662.68,901.32c1.02-.57,1.02-1.15,0-1.72v1.72Z"/>
    <rect x="663.48" y="880.68" width="1.54" height="3.42"/>
    <path d="M667.39,1066.51l-.77-8.56c.58-.43,9.22,2.65,9.44-1.72h-11.01s2.34,10.27,2.34,10.27Z"/>
    <path d="M-7.53,1049.34c-.45.17-.97.94-1.29,1.39.44-.46,1-.87,1.29-1.39Z"/>
    <polygon points="665.07 1041.58 669 1045.89 672.89 1043.3 665.81 1040.77 665.07 1041.58"/>
    <path d="M670.56,1069.99v1.72c1.02-.57,1.02-1.15,0-1.72Z"/>
    <path d="M664.25,1066.55v1.72c1.02-.57,1.02-1.15,0-1.72Z"/>
    <path d="M670.56,1075.15v1.72c1.02-.57,1.02-1.15,0-1.72Z"/>
    <path d="M662.68,1069.99v1.72c1.02-.57,1.02-1.15,0-1.72Z"/>
    <path d="M662.68,1057.94v1.72c1.02-.57,1.02-1.15,0-1.72Z"/>
    <path d="M667.41,1068.27v1.72c1.02-.57,1.02-1.15,0-1.72Z"/>
    <path d="M672.13,1061.39v1.72c1.02-.57,1.02-1.15,0-1.72Z"/>
    <path d="M618.58,1075.15v1.72c1.02-.57,1.02-1.15,0-1.72Z"/>
    <polygon points="135.62 1086.44 137.42 1086.45 137.43 1081.02 130.1 1081.03 135.62 1086.44"/>
    <path d="M637.49,1006.32l-1.55,3.43c1.49,1.03,7.06,1.78,7.05-1.7l-4.54,1.4-.96-3.13Z"/>
    <polygon points="635.12 1014.91 638.27 1014.9 635.13 1011.47 635.12 1014.91"/>
    <path d="M661.1,985.66c1.02-.57,1.02-1.15,0-1.72v1.72Z"/>
    <path d="M-8.82,1050.73c-.1.11-.2.21-.29.33.04,0,.15-.13.29-.33Z"/>
    <polygon points="-15.41 1057.94 -15.41 1061.39 -14.28 1059.32 -15.41 1057.94"/>
    <path d="M-9.11,1051.06c-1.65-.27-4.01-2.27-6.3-1.72v5.16c3.46,3.14,4.43-.79,6.3-3.44Z"/>
    <polygon points="14.51 1006.32 11.38 1007.16 14.5 1009.75 14.51 1006.32"/>
    <path d="M637.48,1026.96v1.72c1.02-.57,1.02-1.15,0-1.72Z"/>
    <path d="M657.95,875.51v1.72c1.02-.57,1.02-1.15,0-1.72Z"/>
    <path d="M657.95,863.46v1.72c1.02-.57,1.02-1.15,0-1.72Z"/>
    <rect x="644.58" y="990.83" width="1.54" height="3.42"/>
    <path d="M657.95,880.67v1.72c1.02-.57,1.02-1.15,0-1.72Z"/>
    <rect x="658.75" y="856.59" width="3.13" height="1.69"/>
    <path d="M657.95,1059.66v1.72c1.02-.57,1.02-1.15,0-1.72Z"/>
    <path d="M653.23,1057.94v1.72c1.02-.57,1.02-1.15,0-1.72Z"/>
    <path d="M645.35,954.68v1.72c1.02-.57,1.02-1.15,0-1.72Z"/>
    <path d="M656.38,868.62v1.72c1.02-.57,1.02-1.15,0-1.72Z"/>
    <path d="M31.57,1072.27l.18.06s-.05-.08-.08-.12c-.03.02-.06.05-.1.07Z"/>
    <path d="M16.34,161.51c-4.66,11.98,7.13,10.01,7.65-.24l1.57,5.15,6.29-3.47c-3.9-9.59-8.46-.28-15.51-1.44Z"/>
    <polygon points="161.01 233.53 164.15 233.54 163.38 230.11 161.01 233.53"/>
    <polygon points="32.66 154.39 30.27 157.8 34.99 157.81 34.99 154.38 32.66 154.39"/>
    <rect x="99.59" y="627.68" width="1.54" height="5.15"/>
    <polygon points="144.47 407.37 145.25 403.93 142.1 403.95 144.47 407.37"/>
    <path d="M268.11,872.07c.5-.05,1.57.09,1.58,0,.02-.49-.63-1.07-.79-1.7l-.79,1.7Z"/>
    <polygon points="304.35 919.4 307.48 920.25 307.48 916.82 304.35 919.4"/>
    <polygon points="405.15 975.31 408.29 975.32 407.52 971.9 405.15 975.31"/>
    <rect x="466.59" y="823.89" width="3.13" height="1.69"/>
    <polygon points="19.6 1068.51 20.27 1068.45 20.52 1066.81 19.6 1068.51"/>
    <path d="M354.74,1006.31c-.55.14-1.24-.21-1.58,0-.04,1.65,1.57,1.6,1.58,1.72-.06-.54-.03-1.17,0-1.72Z"/>
    <rect x="47.61" y="1061.4" width="3.13" height="1.69"/>
    <polygon points="327.19 892.73 324.85 895.3 327.95 897.88 327.19 892.73"/>
    <path d="M326.39,899.62c-6.94.96-5.66,6.31-4.7,12.04l4.7-12.04Z"/>
    <polygon points="310.66 916.82 310.65 920.25 313.79 920.24 310.66 916.82"/>
    <polygon points="329.54 918.55 327.99 908.22 324.82 918.52 329.54 918.55"/>
    <polygon points="321.65 915.09 318.52 917.68 321.66 918.53 321.65 915.09"/>
    <path d="M333.48,873.79v1.72c1.02-.57,1.02-1.15,0-1.72Z"/>
    <rect x="350.03" y="968.46" width="3.13" height="1.69"/>
    <rect x="334.28" y="865.2" width="3.13" height="1.69"/>
    <path d="M335.85,918.52v-5.13c-2.88-.58-5.23,1.89-4.73,5.14h4.73Z"/>
    <path d="M333.48,909.93v1.72c1.02-.57,1.02-1.15,0-1.72Z"/>
    <rect x="83.83" y="90.71" width="3.13" height="1.69"/>
    <path d="M46.83,109.6l5.46-2.55-3.14-7.75c-5.37-1.96-5.36,9.54-2.33,10.31Z"/>
    <path d="M31.06,101.02v1.72c1.02-.57,1.02-1.15,0-1.72Z"/>
    <path d="M85.37,100.14l-6.92-.84-.91-3.41,4.7-6.92c-3.4,4.43-6.51,1.61-9.47,2.51-13.19,3.97,8.07,18.62,12.61,8.66Z"/>
    <path d="M9.79,106.2c-1.97-1.15-5.49,2.75-4.72,3.41,1.97,1.15,5.49-2.75,4.72-3.41Z"/>
    <path d="M6.65,117.38c-.29,1.2,5.65-.09,1.8,5.15l4.46,3.46-4.68,6.01,7.75-3.58.1-5.01-4.45-.2c1.21-3.42-3.45-12.11-4.98-5.82Z"/>
    <path d="M29.48,106.18v1.72c1.02-.57,1.02-1.15,0-1.72Z"/>
    <path d="M31.85,116.53c-4.77.15-12.54,2.05-12.59,8.58.78.83,12.32-5.48,12.59-8.58Z"/>
    <rect x="8.23" y="111.37" width="3.13" height="1.69"/>
    <polygon points="55.46 59.72 53.13 59.73 50.75 63.14 55.46 63.15 55.46 59.72"/>
  </g>
  <rect x="23.19" y="358.63" width="140.38" height="350.04"/>
</svg>