<?xml version="1.0" encoding="UTF-8"?>
<svg id="Layer_1" xmlns="http://www.w3.org/2000/svg" version="1.1" viewBox="0 0 1920 1080">
  <!-- Generator: Adobe Illustrator 29.5.1, SVG Export Plug-In . SVG Version: 2.1.0 Build 141)  -->
  <rect x="1831.59" y="7.61" width="1.48" height="3.47"/>
  <text/>
  <g>
    <path d="M576.05,326.48c1.02-.57,1.02-1.15,0-1.72v1.72Z"/>
    <path d="M577.62,331.65c1.02-.57,1.02-1.15,0-1.72v1.72Z"/>
    <path d="M568.17,355.74v1.72c1.02-.57,1.02-1.15,0-1.72Z"/>
    <path d="M572.11,341.96c.77-.65-2.75-4.56-4.72-3.41-.77.65,2.75,4.56,4.72,3.41Z"/>
    <rect x="567.4" y="469.34" width="1.54" height="3.42"/>
    <polygon points="568.16 366.03 570.52 363.46 570.53 360.91 567.39 360.92 568.16 366.03"/>
    <path d="M568.17,476.22c1.02-.57,1.02-1.15,0-1.72v1.72Z"/>
    <path d="M596.52,52.83c1.02-.57,1.02-1.15,0-1.72v1.72Z"/>
    <path d="M559.53,467.61l7.99-2.21c-3.73.32-9.16-3.39-7.99,2.21Z"/>
    <path d="M555.57,467.61c1.02-.57,1.02-1.15,0-1.72v1.72Z"/>
    <path d="M554.89,456.25c.29-7.13,4.36-14.3,2.37-21.39-.75-2.65-7.07-13.5-10.34-10.27l3.15,15.5,3.11-.9c-5.59,6.36-.13,18.61.8,24.94l5.53-5.09-4.63-2.8Z"/>
    <path d="M568.93,465.01l-1.41.39c.51-.04.99-.16,1.41-.39Z"/>
    <path d="M557.15,496.87c1.02-.57,1.02-1.15,0-1.72v1.72Z"/>
    <path d="M543.77,588.09c-.73,2.51,2.2,10.14,3.92,10.29,4.58.42-1.17-10.65-3.92-10.29Z"/>
    <path d="M566.6,601.86v1.72c1.02-.57,1.02-1.15,0-1.72Z"/>
    <path d="M558.72,574.32v1.72c1.02-.57,1.02-1.15,0-1.72Z"/>
    <path d="M542.97,610.46v1.72c1.02-.57,1.02-1.15,0-1.72Z"/>
    <path d="M531.95,694.79c1.02-.57,1.02-1.15,0-1.72v1.72Z"/>
    <path d="M557.15,491.71v1.72c1.02-.57,1.02-1.15,0-1.72Z"/>
    <path d="M557.15,483.1v1.72c1.02-.57,1.02-1.15,0-1.72Z"/>
    <rect x="557.95" y="507.21" width="1.54" height="3.42"/>
    <rect x="580" y="323.05" width="1.54" height="3.42"/>
    <path d="M566.6,503.75c1.02-.57,1.02-1.15,0-1.72v1.72Z"/>
    <path d="M566.6,555.39v1.72c1.02-.57,1.02-1.15,0-1.72Z"/>
    <polygon points="579.98 476.23 575.27 476.23 575.28 479.66 579.98 477.92 579.98 476.23"/>
    <rect x="573.7" y="484.83" width="1.54" height="3.42"/>
    <path d="M572.9,471.05v1.72c1.02-.57,1.02-1.15,0-1.72Z"/>
    <path d="M690.24,767.97l-6.26-1.73,1.55-9.49h-6.31c-1.42-5.28,5.76-4.35,6.33-6.02l-.05-4.31-4.7,1.73c-2.66-8.61-.5-15.49,0-24.1l4.7,3.43c-1.19-12.26.04-26.15-.96-38.07-.59-7.05-4.4-13.49-3.43-22.52,1.35-12.57,9.13-12.52,9.13-13.41v-359.71l-7.89-.88c.08-4.5,4.63-4.57,7.89-4.29V40.78h-80.33c.35-4.96,1.66-9.99,3.1-14.68,3.57-11.64,7-19.52,7.72-32.56.32-5.76-3.6-10.58-2.95-16.43h-9.45c-3.43,9.74,2.69,11.06,3.22,19.88.14,2.32-.05,5.07-1.61,6.81,11.89-2.29-.08,7.37-.76,9.35-.63,1.85,1,4.81.49,7.41-.62,3.17-3.76,5.43-4.07,7.55-.39,2.73,2.07,6.16.98,9.8-.79,2.61-5.49,3.23-7.05,8.03-.94,2.89-1.36,11.19,2.49,11.19l-3.19,5.17,3.19,3.42-4.71,6.03c5.7,1.14,21.13-3.65,25.26-.82,1.69,1.16.61,5.98,5.45,4.27l3.35-6.99,6.89.12-4.71,5.13h17.33s1.56-3.41,1.56-3.41v8.59s-25.2,1.74-25.2,1.74c2.44,6.24,10.6,1.63,14.16,6.03.6,6.16-8.32-.22-9.43.85l-.02,10.31c-2.74-.6-2.18-6.17-3.48-9.08-.65-1.45-2.38-4.12-3.61-4.67-4.76-2.12-.15,8.91-3.89,8.58l-1.61-12.02c-2.41-.48-1.78,3.05-3.13,4.45-2.1,2.18-4.3.4-4.75,2.18v-3.19c-11.44-1.24-5.88,5.11-6.29,6.87.84-.12,2.74-2.41,3.13-1.72,1.31,4.9-2.54,6.64-6.28,8.6l3.95,5.16,3.93-3.42-1.58,5.14c2.93-.41,5.28-.21,4.76,3.44l3.11-3.42c-1.23,7.2,2.19,3.05,6.3,6.87l-.79-5.13,6.33,1.73-2.36,4.26,9.42,6.01-10.92,3.38c-.22-3.38-8.67-8.68-11.14-6.79l1.6,3.42-4.06-1.57-1.45,3.29c-.92-3.08-5.1-1.8-5.28-2.06-.74-1.06-.29-4.5-1.72-5.77-6.32-5.64-4.42,6.03-7.96,7.82-2.51-5.51-.05-7.86,1.58-12.87-3.42-3.64-3.3,2.21-5.4,4.36-2.31,2.37-5.25,3.41-7.13,6.11l2.87,8.21c-8.7,5.78-4.69,8.55-6.8,16.77-1.05,4.1-3.86,3.03-4.02,3.28-2.1,3.36,2.25,3.36,2.63,3.98,1.43,2.36-1.15,5.71,3.64,4.58-2.19-7.99,5.82-15.56,7.15-24.02l2.94-1.67,4.07,3.33.03-8.61c2.4,2.16,5.42-.17,6.91.09,1.11.2.96,2.67,1.28,2.77,1.73.55,4.74-1.91,6.78,2.27l.75-6.84c-.32,3.25,2.09,4.88,3.17,6.87-.43-2.95-1.33-5.65-1.56-8.6,1.74-2.4,10.07,16.9,9.45,19.78-4.12-1.53-7.06-3.47-7.89-7.73-1.35-.53-2.97,1.71-3.15,1.72l1.54.86c-.02,1.08-1.5.78-1.54.86-.4.78-1.93,3.09-1.59,3.42l6.31,2.61-3.24,1.73,3.24,7.71c-6.57-4.15-4.06,6.52-11.02-1.71-1.53-1.81-3.88-1.4-1.98-6.1l-5.87-1.66-.03,5.17c7.46,2.75,1.35,7,7.1,11.16l-.02-6.84c2.63,4.39,2.65,7.42,7.91,3.48-1.62,5.94,3.42,2.48,5.5,6.43,3.3,6.26-2.04,12-1.59,12.45l4.68-.86c-2.96,7.78-1.49,13.33,2.42,19.8,3.79-.19,4.13-2.95,2.32-5.98l3.16.85-1.58-7.74,3.16.86-1.61-6.88-2.32,1.35-.77-4.8,6.31,2.55-3.16-13.71-3.14.84c-2.45-4,4.91-3.44,3.13-5.14-1.13-1.07-5.8-.43-4.71-5.19h6.26s3.19,34.42,3.19,34.42c1.46.33,3.49-.38,4.72,0-.51-6.28,4.78-2.63,7.87-3.43l-3.62,3.41.43,4.36c-.5,1.21-2.65-.48-3.1-.89,1.69,3.98,4.06,7.91,4.71,12.05l-9.42-8.6-1.27,4.81,5.97,6.38-4.7-.87,3.1,6.04-1.55,4.27-5.52-5.14-3.68,3.68,2.89,10.08c-3.5-1.43-5.53-7.98-10.2-6.88-5.62,1.32,1.82,7.79,2.34,8.6-.26-.58.12-2.38.02-3.44l4.4,2.03.27,4.01c-.76,1.11-4.57-2.34-4.69-2.6,2.66,4.13,5.31,5.92,3.82,10.41l10.34,4.25-4.7.84,1.52,9.47,1.63-6.02,3.93,5.14,1.69-5.29,8.41.91c-2.85,5.08.77,9.74,1.68,13.9,1.49,6.82-4.15-3.77-4.68-2.61-2.83,10.18-.29,13.55,3.12,22.36l-6.27-6.88,6.25,11.2-6.27-5.2-3.13,1.77,3.11,16.32c-19.48-13.44-4.78,6.44-6.3,8.6-3.26-1.07-5.96-.86-9.44-1.72-.14,1.1.09,2.32,0,3.44,3.55.77,17.49,2.3,17.61-1.24l2.85,1.25-.78-8.61c2.47,2.55,8.63,14.96,7.09,17.21-5.53-1.21-7.3,1.79-10.1-4.74l-7.28,2.17-2.3,12.92c1.53-7.51-2.36-6.1-2.38-12.07l-4.7,1.75c-1.22.87,6.3,3.4,3.13,6.86-1.91,2.09-7.47-3.76-7.83-3.43l-4.76,6.02,4.57,2.35.92-3.21c2.01,3.08,3.98,3.59,6.98,1.89l1.7,4.98c-2.54-.23-5.4.4-7.88.02.31,1.49-1.15,6.79,1.64,4.33l9.38-.9.02-6.86,3.11,3.41.31-2.85,4.43-1.44-4.7-6.02,7.85,3.44.79-6.87,5.49,12.92-7.83-1.72,6.28,5.16-4.71,6.89c2.36,1.47,4.58,3.74,6.3,5.99-.19-1.85-1.64-3.81-.8-5.13,5.05,3.33,8.69,10.21,14.98,10.31l-.78,3.41c-3.65-3.51-7.35-5.1-11.82-6.87.44.7,1.79,3.2,1.57,3.42l-2.35.03c-1.57.05-.55-2.34-.8-3.45-3.11-1.26-15.77-5.3-17.33-6.88.15,1.08-.26,2.58,0,3.44.91.04,2.41,1.48,3.92.52l1.65,4.64c7.2-3.59,5.11,1.57,10.15,6.05l-4.41-.67c-1.87,8.35-6.34,1.42-12.88-.21-.18-.04-1.16,2.03-3.43,1.43-3.23-.86-8.63-4.24-13.16-4.79l-.69-6.13c.18-.83,7.49,2.36,6.24-4.28l-4.72.92-1.56-4.35,3.13-1.71-4.71-3.45,4.7-1.74,2.39,6.9.79-6.9c-1.59-.26-4.2-5.13-7.83-1.75l-.05-10.28c-2.06-2.15-15.43,7.3-14.2.83,1.16-6.09,6.82-6.16,1.61-14.6,4.25,2.2,4.78,7.85,3.15,12.03,3.04.35,4.64-4.67,4.97-4.8,1.22-.48,4.89,2.91,7.73.64l1.48-7.88c2.67-.7.98,2.24,1.76,3.15.6.69,2.39-1.42,2.95-1.44-.24-.09-2.21-2.14-3.98-3.31-2.47-1.63-5-1.99-.74-4.45,2.45-1.42,2.08,3.31,4.32,4.34,1.07.49,2.62-.26,3.56-.02.14-1.08-.03-2.32,0-3.44-2.43-.6-4.02-6.14-4.75-8.59l-1.56,5.17-7.84-3.49-.02-13.73,2.98.92,1.72-9.52-4.69,6.86-6.31-17.19c.18,3.28,4.11,11.89,0,13.75l-4.83-19.74,3.23-2.61h-4.7s-.03,17.19-.03,17.19l-6.27-5.16c-.72,3.33,2.54,3.87,2.42,6.98-.03.77-2.48,13.91-2.75,14.59-.58,1.44-2.98-.02-2.85,1.67-1.65,4.7,5.37-1.26,3.14,3.4-1.08,2.27-4.11,5.31-5.5,7.77-2.18-1.53-1.09-9.77-5.53-5.99l3.27,11.09c3.6-2.25,5.44-.77,7.66,2.65l-3.01,4.27,3.17,3.44,3.11.02.8-8.58c1.75,2.99-1.05,7.86,3.91,6.9l-5.47,5.21-5.52-5.24,9.46,24.09,3.91-3.43,3.94,4.3-5.55.91-1.55,6.79c.57-4.17-1.44-3.68-2.35-5.13.26.57-.13,2.37,0,3.43h-3.13s0-5.15,0-5.15c.1-.16,3.06,1.55,3.13,1.72-4.68-7.44-8.09-16.07-14.16-22.37-.19,4.04,2.58,7.53,2.66,11.48.06,3.1-1.87,5.4-1.94,7.34-.09,2.54,2.94,4.86.83,8.71l-12.58-3.42c1.38,4.41.36,11.45,6.28,12.06l-3.13,2.55,6.31,12.05-3.16-.85-.78,3.44-2.37-3.42h3.15s-4.69-4.33-4.69-4.33l3.11-1.68c-1.27-1.51-2.97-3.65-4.71-4.33-.07.87.24,1.85-.02,2.56l-1.56.88c.85,5.08.57,8.7,4.69,12.93l-3.1,1.68c5.1,6.65,4.39-1.11,7.84-2.55l-.79,8.56c5.32-.52,5.57-2.18,4.65-8.37-.58-3.93,1.96-2.59,2.45-1.91l-1.4,8.41,4.53,2.76-9.42.88,1.59,6.87,3.93-3.44,2.35,4.31-4.03-.7-.7,3.25-14.14-18.91,7.85,11.19-4.71,2.55,6.28,2.61-4.7,4.29h6.28s-1.58,6.87-1.58,6.87l5.54,1.73-.03-5.12c4.65,3.64,1.02,5.05-.77,8.55l15.74,10.39-.8,3.44-3.9-1.75c-2.56,3.48,14.59,38.47,17.42,45.16.68,1.6,3.09,1.03,3.08,2.16l-2.57,4.02-6.91-1.43-.02,8.59-3.14-8.61c-2.83-.93-3.24.65-4.72,1.73l3.15,3.42c-1,.19-2.32-.24-3.15.02-.22.07-.39,1.32-.86,1.28l-.72-1.28-1.59-.92c-.12-1.77,1.54-2.3,1.59-2.53.33-1.38,1.94-1.68.82-3.45-2.2-3.49-6.14-1.69-6.86-2.24l-1.82-2.91,4.68,11.2c-2.72,1.69-2.75-4.02-3.14-4.31-5.39-4.03.79,5.38-4.7,3.43,1.91-4.71-2.99-12.37-6.37-14.72-1.58-1.1-3.75.98-4.41.56-.53-.34-.73-3.15-1.89-3.76-3.05-1.62-6.5-1.61-9.38-4.46l1.55,15.48-4.68-.87,4.67,4.32,1.72-6.76,12.4,5.27-1.5,4.93c3.62,2.61,3.29-7.07,6.29-3.41,1.49,1.81-3.1,8.13-3.14,8.59-.47,5.38,3.7,9.04,6.27,12.92l-4.69-.87.79,5.14-5.5-8.59c-.44,2.77-1.2,5.02-.33,7.89,1.02,3.4,4.51,1.32,3.46,5.86-2.57,3-9.46-2.7-7.86,3.43,2.6-.31,8.03,4.88,6.28,6.91-2.78,3.22-3.25-2.86-3.43-3-.34-.26-3.11,2.03-6-3.87l-1.62,8.61-2.94-1.45-1.74,3.15c-2.62-8.69-.91-7.17,3.45-13.39,8.69,2.23-1.94-3.53-1.91-6.38l4.73-2.58-6.29-.03,1.57-13.74-4.7,3.41-1.45-5.86-4.86-1.02v10.34c6.4-4.38,7.41,4.33,4.72,6.88h1.56s1.59,6.88,1.59,6.88l.79-5.18c1.79-.02.2,4.16.79,5.18.09.15,3.39-.29,3.17.83-1.01,5.24-7.03,4.41-9.44,8.64l4.68.86c-3.79,9.66,8.9,9.43,12.61,15.47l-10.27-5.22-3.11,3.51-3.93-5.15v18.91s6.27-8.59,6.27-8.59l2.36,17.27,10.25-.06-1.58,12.05c-3.4-1.78-1.5-4.49-6.28-5.16-.28-.04-.56,3.37-1.58,0v6.06s6.3-.89,6.3-.89c-2.9,3.71,4.6,4.94-.7,9.73-4.37,1.35-7.35-2.89-11.04-2.98-7.18-.16-10.77,5.36-13.48-8.49-6.64,4.91-3.28,12.05-1.57,18.93l-4.73-4.28c1.63,12.3,2.85,27.19,15.76,31.81l-4.7-30.96,5.52,6.84c-1.09-8.72,9.57-17.09,7.07-1.69l11.02,3.44-.79-5.12,3.94,3.4-1.56-5.14h3.12s2.4,5.14,2.4,5.14l1.56-3.43,10.24,11.16c-3.64,6.89-13.58,3.89-16.53,5.02-4.98,1.9-11.5,10.36-18.12,9.65-1.25,5.55,5.78,2.96,8.58,5.24l2.43-3.53,2.39,6.87,1.77-3.54,11.61,1.84-5.52,8.58c.69-4.11-11.11-3.64-13.82-3.09-1.36.28-14.59,7.56-15.3,6.53,2.26-12.39-3.29-10.03-11.03-15.49-1.05,1.41,9.93,19.81,0,20.68l3.26,2.74-1.79,8.32c6.8,2.31,1,4.17.5,7.21-.39,2.38,1.6,5.31,1.23,8.11-.17,1.29-2.94.3-3.35,3.59-1.81,14.7,1.6,33.93.12,49.18l14.18,1.73c-2.34,5.72-9.7,2.85-14.17,3.42v96.38h20.46c.16.83.15,1.48.03,2,.52,0,1.05,0,1.57,0v-.27h7.86v.3c6.65.05,13.3.14,19.96.24,3.21.05,6.43.17,9.65.12,1.17-.02,2.36-.05,3.55-.03l-.07-.65,29.21-.48,3.2-6.55,19.47,2.08.94,5.06,12.36-1.7,1.61,1.89c2.09.08,4.18.09,6.27-.02.02-5.13.33-9.8,1.83-12.24,1.98-3.22,7.02-4.74,8.57-9.57l-7.83,2.59c-3.73-9,10.26-10.28,9.43-14.6ZM612.28,64.88v-1.72c1.02.57,1.02,1.15,0,1.72ZM613.05,59.68l-6.28,3.47v-10.3s7.86,0,7.86,0l-4.69,2.56,3.1,4.28ZM638.27,56.26c-.2-4.14-1-10.65,4.71-10.31-1.37,2.85.24,11.63-4.71,10.31ZM647.71,71.75h-4.71v-3.42h4.71v3.42ZM650.86,61.43h-7.87c.96-3.89,4.87-3.67,7.87-3.42v3.42ZM593.37,126.84v-1.72c1.02.57,1.02,1.15,0,1.72ZM593.37,123.4v-1.72c1.02.57,1.02,1.15,0,1.72ZM600.47,121.67v-3.43s3.14,3.42,3.14,3.42h-3.14ZM632.75,138.89c1.02.57,1.02,1.15,0,1.72v-1.72ZM619.37,149.23h3.13v1.69h-3.13v-1.69ZM619.38,152.65c.6-.84,4.17,3.01,3.12,5.16-.6.84-4.17-3.01-3.12-5.16ZM627.22,168.14l-6.27-1.72,2.37-5.15c3.68.13,4.4,3.45,3.9,6.88ZM631.19,147.43l-8.67.05,4.73-3.45c-3.04-5.09-4.76-15.28-.79-20.63,1.22,2.63,5.13,14.86,3.64,16.92-.7.97-3.52-.87-2.85,1.99,2.19-1.15,5.35,4.48,3.94,5.13ZM632.74,149.25c1.3,1.4,3.74,4.71,3.18,6.82-1.3-1.4-3.74-4.71-3.18-6.82ZM635.9,176.75v-1.72c1.02.57,1.02,1.15,0,1.72ZM635.9,125.12v-1.72c1.02.57,1.02,1.15,0,1.72ZM635.9,106.18v-1.72c1.02.57,1.02,1.15,0,1.72ZM631.18,221.5c1.02.57,1.02,1.15,0,1.72v-1.72ZM628.82,230.09l.77-3.42,3.91,4.31-4.69-.89ZM638.25,221.49h-1.54v-3.42h1.54v3.42ZM640.63,204.29c1.02.57,1.02,1.15,0,1.72v-1.72ZM642.2,235.27v-1.72c1.02.57,1.02,1.15,0,1.72ZM642.98,216.33h-1.54l-.82-5.12,2.36,2.57v2.55ZM645.35,281.74v-1.72c1.02.57,1.02,1.15,0,1.72ZM647.72,286.89v-3.43s3.14,3.42,3.14,3.42h-3.14ZM608.35,280.02h1.54v3.42h-1.54v-3.42ZM605.2,288.64h3.13v1.69h-3.13v-1.69ZM599.68,288.62v-1.72c1.02.57,1.02,1.15,0,1.72ZM601.25,323.04v-1.72c1.02.57,1.02,1.15,0,1.72ZM603.62,326.47v-3.43s3.14,3.42,3.14,3.42h-3.14ZM592.6,331.66h1.54v3.42h-1.54v-3.42ZM593.37,355.74v-1.72c1.02.57,1.02,1.15,0,1.72ZM591.8,364.35c1.02.57,1.02,1.15,0,1.72v-1.72ZM590.22,324.76c1.02.57,1.02,1.15,0,1.72v-1.72ZM589.45,333.38h1.54v3.42h-1.54v-3.42ZM588.65,340.25c1.02.57,1.02,1.15,0,1.72v-1.72ZM584.73,346.26v-4.29c.14-.21,3.78,1.66,4.24,2.23,1.36,1.65,2.11,4.13,2.03,6.37-2.53.59-.76-1.69-2.34-2.99-.16-.14-3.11,1.22-3.93-1.31ZM587.87,357.45v-3.43s3.14,3.42,3.14,3.42h-3.14ZM591.81,393.6l-2.37-3.42h3.14s-.77,3.42-.77,3.42ZM594.95,398.77v-1.72c1.02.57,1.02,1.15,0,1.72ZM594.95,383.28v-1.72c1.02.57,1.02,1.15,0,1.72ZM595.73,379.83h-3.13v-3.42h3.13v3.42ZM601.25,343.69c1.02.57,1.02,1.15,0,1.72v-1.72ZM596.52,357.46v-1.72c1.02.57,1.02,1.15,0,1.72ZM600.45,364.34h-1.54v-3.42h1.54v3.42ZM601.25,378.12v-1.72c1.02.57,1.02,1.15,0,1.72ZM598.91,352.29l-1.58-6.88,4.7,4.33v2.55s-3.11,0-3.11,0ZM569.75,452.12v-1.72c1.02.57,1.02,1.15,0,1.72ZM586.27,479.65h-1.54v-3.42h1.54v3.42ZM569.75,510.64v-1.72c1.02.57,1.02,1.15,0,1.72ZM572.9,508.92v-1.72c1.02.57,1.02,1.15,0,1.72ZM571.32,524.41c1.02.57,1.02,1.15,0,1.72v-1.72ZM569.75,527.85c1.02.57,1.02,1.15,0,1.72v-1.72ZM572.09,538.17h-1.54l-.82-5.12,2.36,2.57v2.55ZM572.9,565.71v-1.72c1.02.57,1.02,1.15,0,1.72ZM579.2,538.18v-1.72c1.02.57,1.02,1.15,0,1.72ZM590.22,479.66c1.02.57,1.02,1.15,0,1.72v-1.72ZM587.07,500.31v-1.72c1.02.57,1.02,1.15,0,1.72ZM585.48,491.74c.87,1.1,3.17,2.24,1.61,3.37-.76-1.01-3.16-2.18-1.61-3.37ZM581.58,496.88h1.54v5.15h-1.54v-5.15ZM582.35,520.97v-1.72c1.02.57,1.02,1.15,0,1.72ZM584.7,551.94h-1.54v-3.42h1.54v3.42ZM583.15,546.78l-.04-9.13,4.75-1.18-1.56,5.14,6.28,1.71-9.42,3.46ZM591.81,507.19l-2.37-3.42h3.14s-.77,3.42-.77,3.42ZM546.12,734.38c1.02.57,1.02,1.15,0,1.72v-1.72ZM546.12,741.26c1.02.57,1.02,1.15,0,1.72v-1.72ZM544.55,749.87c1.02.57,1.02,1.15,0,1.72v-1.72ZM543.77,770.51c-1.61-1.79,3.13-6.9,4.71-5.15,1.61,1.79-3.13,6.9-4.71,5.15ZM562.68,613.91h1.54v2.55s-2.36,2.57-2.36,2.57l.82-5.12ZM563.45,629.39v-1.72c1.02.57,1.02,1.15,0,1.72ZM561.89,637.96c-.76-1.01-3.16-2.18-1.61-3.37.87,1.1,3.17,2.24,1.61,3.37ZM561.08,620.81v1.69h-2.33s-2.35-2.58-2.35-2.58l4.69.9ZM557.15,625.95v-1.72c1.02.57,1.02,1.15,0,1.72ZM558.74,629.43c1.57,1.13-.73,2.28-1.61,3.37l-.74-.81,2.35-2.56ZM556.37,769.67l3.13-2.59v3.43s-3.13-.84-3.13-.84ZM564.23,765.35c-2.28.31-4.03-1.61-6.28-1.74v-3.41s6.29,1.74,6.29,1.74v3.41ZM572.9,610.46c1.02.57,1.02,1.15,0,1.72v-1.72ZM567.37,772.23h-1.54v-3.42h1.54v3.42ZM568.94,625.94h-1.54v-3.42h1.54v3.42ZM570.54,615.64c6.42-.37,3.62,7.9,4.7,12.04l-4.7-12.04ZM611.5,467.62h1.54v3.42h-1.54v-3.42ZM596.52,479.66c1.02.57,1.02,1.15,0,1.72v-1.72ZM594.18,489.99l3.13,3.42h-3.14s0-3.42,0-3.42ZM594.95,496.87v-1.72c1.02.57,1.02,1.15,0,1.72ZM594.19,544.18l4.69.9v1.69h-2.33s-2.35-2.58-2.35-2.58ZM598.87,574.33v3.42h-1.54v-3.42h1.54ZM588.65,608.74v-1.72c1.02.57,1.02,1.15,0,1.72ZM589.45,598.43h3.13v1.69h-3.13v-1.69ZM593.37,655.21v-1.72c1.02.57,1.02,1.15,0,1.72ZM591.02,607.01v-3.43s3.14,3.42,3.14,3.42h-3.14ZM600.45,701.66h-6.28v-1.69h6.28v1.69ZM599.68,572.6v-1.72c1.02.57,1.02,1.15,0,1.72ZM603.6,512.35h-1.54c-.22-3.14-.5-7.5,3.12-8.59l-1.58,8.59ZM605.98,570.88v-1.72c1.02.57,1.02,1.15,0,1.72ZM605.17,486.54c-.42.68-2.28-1.56-3.13-1.72.31,4.97,3.02,2.69,3.84,6.62.41,1.97.73,9.07-1.5,10.57l-2.61-11.83-4.46-.21c1.65-3.41.84-5.86,4.74-5.15-.12-1.91,1.06-4.27.86-6.04-.24-2.13-3.35-3.03-2.42-6l6.33,4.45-1.63,9.32ZM610.72,653.45c-.76-1.01-3.16-2.18-1.61-3.37.87,1.1,3.17,2.24,1.61,3.37ZM609.94,507.19l-1.59-6.87h1.53c-.18,1,.05,1.92.67,2.67.59.7,1.62.77,2.47.79l.03,3.4h-3.12ZM609.11,484.86c.87,1.1,3.17,2.24,1.61,3.37-.76-1.01-3.16-2.18-1.61-3.37ZM609.13,495.15v-1.72c1.02.57,1.02,1.15,0,1.72ZM613.06,483.08h-2.33s-2.35-2.58-2.35-2.58l4.69.9v1.69ZM613.85,512.36v-1.72c1.02.57,1.02,1.15,0,1.72ZM613.07,493.42v-3.43s3.14,3.42,3.14,3.42h-3.14ZM683.94,453c-.08,2.12,1.2,6.39-1.57,6.01v-75.73c2.27-.45,2.09,3.27,2.39,5.11,1.71,10.46-.72,17.13-.84,26.65-.17,12.62.51,25.36.03,37.96ZM685.51,355.75v3.42s-6.29,0-6.29,0c.84-3.42,3.35-3.86,6.29-3.42ZM679.23,347.12v-1.69h3.13v1.69h-3.13ZM685.5,347.13h-1.54v-3.42h1.54v3.42ZM685.49,332.52c-7.22-2.73-7.7,12.27-15.36,3.5,1.26-5.43,3.91-11.12-.35-15.59l3.13-.85.02,5.18,4.71-1.75c-1.45,7.06,4.57,5.19,7.85,9.5ZM676.87,355.71c-.76-1.01-3.16-2.18-1.61-3.37.87,1.1,3.17,2.24,1.61,3.37ZM670.56,354.02v-1.72c1.02.57,1.02,1.15,0,1.72ZM670.56,347.14v-1.72c1.02.57,1.02,1.15,0,1.72ZM672.15,355.78c1.57,1.13-.73,2.28-1.61,3.37l-.74-.81,2.35-2.56ZM666.63,275.7l4.71-.84v3.42s-2.33,0-2.33,0l-2.38-2.57ZM667.41,281.74v-1.72c1.02.57,1.02,1.15,0,1.72ZM668.96,218.02l1.62-3.39,3.88,2.59-5.5.8ZM673.71,219.78c1.02.57,1.02,1.15,0,1.72v-1.72ZM665.11,209.52l-.07,13.69c-2.67.45-4.24-1.93-6.29-3.43.28.69-.18,1.33-.79,1.69l-.79-1.69-3.14-6.88,6.28,3.43-3.13-6.84,8.62-6.2,11.85,6.14-12.53.09ZM663.46,233.56v1.69h-3.13v-1.69h3.13ZM661.1,226.66v-1.72c1.02.57,1.02,1.15,0,1.72ZM663.46,240.44l-.77,3.42-2.37-3.42h3.14ZM665.03,257.63c-2.67-.96-4.32-7.54-4.7-10.31,3.47,1.29,4.03,6.81,4.7,10.31ZM657.95,255.92v-1.72c1.02.57,1.02,1.15,0,1.72ZM650.87,99.28v-1.69h3.13v1.69h-3.13ZM653.23,102.74v-1.72c1.02.57,1.02,1.15,0,1.72ZM655.58,224.94l-4.7-4.33v-2.55s3.11,0,3.11,0l1.58,6.88ZM654.8,183.63v-1.72c1.02.57,1.02,1.15,0,1.72ZM656.38,206.01v-1.72c1.02.57,1.02,1.15,0,1.72ZM659.53,175.03v-1.72c1.02.57,1.02,1.15,0,1.72ZM659.53,101.02v-1.72c1.02.57,1.02,1.15,0,1.72ZM661.1,181.91v-1.72c1.02.57,1.02,1.15,0,1.72ZM662.68,178.47v-1.72c1.02.57,1.02,1.15,0,1.72ZM662.68,137.16v-1.72c1.02.57,1.02,1.15,0,1.72ZM663.45,192.25v3.42h-1.54v-3.42h1.54ZM661.9,90.68v-1.69h4.71v1.69h-4.71ZM668.21,185.35v-3.42h1.54v3.42h-1.54ZM675.28,154.37v-1.72c1.02.57,1.02,1.15,0,1.72ZM676.86,212.89c1.02.57,1.02,1.15,0,1.72v-1.72ZM680.01,226.67l.76,5.15-3.1-2.58,2.34-2.57ZM680.01,152.65v-1.72c1.02.57,1.02,1.15,0,1.72ZM686.31,168.14v-1.72c1.02.57,1.02,1.15,0,1.72ZM683.94,104.48l-3.13,3.42v-3.43s3.13,0,3.13,0ZM680.01,59.72c1.02.57,1.02,1.15,0,1.72v-1.72ZM686.91,144.24l.18,8.4-4.71-2.58,3.13-4.29-9.42,3.44-1.58-10.33,12.4,5.35ZM663.48,58h4.71v3.42h-4.71v-3.42ZM657.28,76.84l1.45-4.3,12.51,1.05.1,11.95-14.17-3.47,3.14-4.29-3.03-.94ZM660.31,85.54v3.43s-4.71-1.74-4.71-1.74v-1.68s4.71,0,4.71,0ZM657.97,130.25l-5.5-16.35,3.11-.83,2.39,17.18ZM654.8,80.37c1.02.57,1.02,1.15,0,1.72v-1.72ZM643.01,83.81l10.27.15.74,4.99-7.87-1.7,3.94,6.86c-3.76-2.77-8.01-4.28-7.08-10.31ZM650.08,190.52v-1.72c1.02.57,1.02,1.15,0,1.72ZM648.5,137.16v-1.72c1.02.57,1.02,1.15,0,1.72ZM648.5,162.98v-1.72c1.02.57,1.02,1.15,0,1.72ZM646.16,118.22v-5.15h1.54v5.15h-1.54ZM646.93,123.4v-1.72c1.02.57,1.02,1.15,0,1.72ZM641.41,90.69c-1.15,3.66,4.7,11.69-1.56,10.34l-1.55-9.51,3.11-.83ZM641.4,106.19v5.15h-1.54v-5.15h1.54ZM639.85,123.4c1.15-3.67-4.69-11.69,1.56-10.34l.02,6.89,3.02-2.7-4.6,6.16ZM642.97,126.85v3.42h-1.54v-3.42h1.54ZM644.55,140.61c-.6.84-4.17-3.01-3.12-5.16.6-.84,4.17,3.01,3.12,5.16ZM644.57,128.54v-1.69h3.13v1.69h-3.13ZM646.93,132v-1.72c1.02.57,1.02,1.15,0,1.72ZM646.93,176.75v-1.72c1.02.57,1.02,1.15,0,1.72ZM645.35,211.17c1.02.57,1.02,1.15,0,1.72v-1.72ZM651.65,261.08v-1.72c1.02.57,1.02,1.15,0,1.72ZM652.43,236.98l-7.86-7.76,4.71-.85-4.71-7.74,3.11-.82,6.21,9.59-1.47-1.02-3.11,2.58,3.12,6.01ZM652.46,328.2l4.71,5.15c-2.87.58-5.23-1.89-4.71-5.15ZM656.38,312.71v-1.72c1.02.57,1.02,1.15,0,1.72ZM662.68,343.69v-1.72c1.02.57,1.02,1.15,0,1.72ZM665.83,341.97v-1.72c1.02.57,1.02,1.15,0,1.72ZM663.54,304.99c-2.82,2.1-2.14,5.66-4.78,6-1.63-13.02,1.02-27.62-4.74-39.56l10.34,1.59.68,17.33h9.45c1.21,7.21-8.86,4.02-9.45,6.03-1.65,5.59,11.74-.34,9.44,5.12-1.51,3.58-7.44.89-10.94,3.49ZM668.18,357.47v3.42h-1.54v-3.42h1.54ZM665.83,388.44c1.02.57,1.02,1.15,0,1.72v-1.72ZM663.47,376.39l-.8,1.71-3.19-1.65-.72-6.93h1.54c-.26,2.17.59,3.46,1.59,5.15,2.31-5.2,5.28,1.47,1.58,1.72ZM665.03,381.57v3.42h-1.54v-3.42h1.54ZM660.31,379.85v1.69h-4.71v-1.69h4.71ZM661.1,360.9v-1.72c1.02.57,1.02,1.15,0,1.72ZM661.11,350.59l.77,3.42h-3.14s2.37-3.42,2.37-3.42ZM658.73,364.36v2.55s-2.37,2.57-2.37,2.57l-.77-5.11h3.14ZM653.21,354.05c.87,1.1,3.17,2.24,1.61,3.37-.76-1.01-3.16-2.18-1.61-3.37ZM651.65,366.07c1.02.57,1.02,1.15,0,1.72v-1.72ZM650.88,371.23c.6-.84,4.17,3.01,3.12,5.16-.6.84-4.17-3.01-3.12-5.16ZM653.23,383.28v-1.72c1.02.57,1.02,1.15,0,1.72ZM650.88,393.6l-1.59-5.15c4.4-.19,6.32,3.38,1.59,5.15ZM651.65,763.64v-1.72c1.02.57,1.02,1.15,0,1.72ZM645.35,403.93v-1.72c1.02.57,1.02,1.15,0,1.72ZM645.35,414.26v-1.72c1.02.57,1.02,1.15,0,1.72ZM644.57,398.76v-5.15s6.28,3.46,6.28,3.46v1.68s-6.28,0-6.28,0ZM644.57,359.2h4.71v1.69h-4.71v-1.69ZM644.58,376.4c.76-1.78,3.76,4.64,3.12,6.88-3.03-.84-3.55-3.8-3.12-6.88ZM644.55,419.43v3.42h-1.54v-3.42h1.54ZM643.79,374.64c-.76-1.01-3.16-2.18-1.61-3.37.87,1.1,3.17,2.24,1.61,3.37ZM638.27,359.18c1.05-.01,4.56-4.14,4.71,3.44-.2.28-2.47-1.21-3.13-1.72.94,2.39.8,5.73,3.14,7.76l-3.12.84-4.7-11.2c.94-1.73,2.11.89,3.12.88ZM640.63,379.84v-1.72c1.02.57,1.02,1.15,0,1.72ZM635.13,371.23c.6-.84,4.17,3.01,3.12,5.16-.6.84-4.17-3.01-3.12-5.16ZM631.97,364.36c2.87-.58,5.23,1.89,4.71,5.15l-4.71-5.15ZM623.31,352.31l3.91,6.86,6.32-5.14c1.65,7.55-4.22,5.31-8.4,6.85-1.39-1.66-5.96-6.9-1.83-8.57ZM627.23,362.63v3.43s-4.69-.84-4.69-.84l2.35-2.58h2.33ZM628.04,381.52l-3.94-8.57,2.74.89,1.94-4.33c-.74,3.56,4.12,4.79,4.43,5.43.22.45-.71,5.76.33,10.06,1.38.44,2.79,2.35,3.94,3.41l1.56-6.82,3.97,5.97c-4.49-.38-4.52,4.06-4.81,4.27-.32.23-4.52-3.09-4.66-3.39l-1.59,3.41c4.74.69,9.64,4.24,11.06,9.48l-5.55-6,.02,5.12h-3.2c.26-6.55-9.89-8.49-5.49-17.17-3.34,1.62-5.46,2.87-7.86-.87l3.14-1.7c-1.81-5.63-11.03-3.62-11.03-5.19-1.28-3.79,7.09-1.42,7.43-1.24,3.12,1.61,5.07,4.83,7.56,7.25ZM640.63,393.61v-1.72c1.02.57,1.02,1.15,0,1.72ZM638.28,403.93c.6-.84,4.17,3.01,3.12,5.16-.6.84-4.17-3.01-3.12-5.16ZM637.48,414.26v-1.72c1.02.57,1.02,1.15,0,1.72ZM640.63,429.75v-1.72c1.02.57,1.02,1.15,0,1.72ZM642.98,681.04l-.77,3.42-2.37-3.42h3.14ZM636.69,641.43v5.17s-6.3-1.74-6.3-1.74l.02-3.42h6.28ZM631.98,405.64v-3.42h1.54v3.42h-1.54ZM635.9,419.42v-1.72c1.02.57,1.02,1.15,0,1.72ZM629.6,405.65v-1.72c1.02.57,1.02,1.15,0,1.72ZM627.23,490v1.69h-3.13v-1.69h3.13ZM624.88,429.75v-1.72c1.02.57,1.02,1.15,0,1.72ZM624.09,397.03l-1.56-10.3,6.26,7.73-4.69,2.57ZM624.08,668.99l-.77,3.42-2.37-3.42h3.14ZM618.58,369.51v-1.72c1.02.57,1.02,1.15,0,1.72ZM617.38,356.19c.66.7,3.78,6.77.43,6.42l-3.16-5.15c1.16,8.04-6.31-1.88-4.73-3.44,2.31-.13,5.8.38,7.46,2.16ZM610.72,379.8c-.76-1.01-3.16-2.18-1.61-3.37.87,1.1,3.17,2.24,1.61,3.37ZM611.5,331.66h1.54v3.42h-1.54v-3.42ZM614.62,341.97c-.6.84-4.17-3.01-3.12-5.16.6-.84,4.17,3.01,3.12,5.16ZM609.93,324.77h1.54v3.42h-1.54v-3.42ZM609.13,321.32c1.02.57,1.02,1.15,0,1.72v-1.72ZM609.9,336.82c-.41,2-1.45,7.13.33,8.32,1.08.72,3.05.15,4.4.29l-3.14,1.72,3.15,5.13c-1.51,1.56-5.74-3.9-6.22-4.74-3.43-6.02-3.99-6.74,1.48-10.72ZM604.4,395.33v-1.72c1.02.57,1.02,1.15,0,1.72ZM605.98,379.84v-1.72c1.02.57,1.02,1.15,0,1.72ZM603.61,350.6c1.97-1.15,5.49,2.75,4.72,3.41-1.97,1.15-5.49-2.75-4.72-3.41ZM608.35,424.58v-3.43s3.14,3.42,3.14,3.42h-3.14ZM614.63,428.01h-3.13v-1.69h3.13v1.69ZM613.87,400.46c-.76-1.01-3.16-2.18-1.61-3.37.87,1.1,3.17,2.24,1.61,3.37ZM613.85,395.33v-1.72c1.02.57,1.02,1.15,0,1.72ZM615.4,384.26c-2.21.98-4.62,2.23-7.05,2.46-1.29-5.02,1.36-2.24,2.38-2.69,2.21-.98,4.62-2.23,7.05-2.46,1.29,5.02-1.36,2.24-2.38,2.69ZM618.58,760.2v-1.72c1.02.57,1.02,1.15,0,1.72ZM621.73,760.2v-1.72c1.02.57,1.02,1.15,0,1.72ZM628.03,760.2v-1.72c1.02.57,1.02,1.15,0,1.72ZM625.65,709.42l.81,4.27-3.93-4.28,6.28-2.56-3.16,2.57ZM629.6,780.85v-1.72c1.02.57,1.02,1.15,0,1.72ZM624.98,701.96c-2.09-.03-3.73,2.28-5.61-1.15l17.31-.83c-1.01,2.84-9.14,2.02-11.7,1.99ZM633.56,687.08l2.36-2.57-.82,5.12h-1.54v-2.55ZM628.82,648.33l9.43,3.45c-.25,3.38-11.57.72-9.43-3.45ZM640.63,710.28v-1.72c1.02.57,1.02,1.15,0,1.72ZM646.13,701.66h-7.86v-1.69h7.86v1.69ZM646.93,691.35v-1.72c1.02.57,1.02,1.15,0,1.72ZM648.5,402.21v-1.72c1.02.57,1.02,1.15,0,1.72ZM652.43,782.56h-1.54c-.39-3.16-.09-5.03,2.36-6.84l-.82,6.84ZM653.23,708.56v-1.72c1.02.57,1.02,1.15,0,1.72ZM653.23,701.68v-1.72c1.02.57,1.02,1.15,0,1.72ZM655.59,402.23c-.32.24,4.03,8.33-.84,3.44l-2.31-9.48,7.87,2.57-.43-6.05c-3.69,1.93-9.1-10-3.49-6.38l.79-3.03c2.55-.72,1.02,2.13,1.87,2.8.56.44,2.58-.61,2.7-.29.11.3-1.24,3,.43,6.49,1.76,3.67,5.82,6.67,7.55,10.8l-5.49-4.32-1.02,3.09-2.9-1.37,1.55,6.88-3.16-5.15h-3.12ZM670.56,744.71l.77,5.15h-3.13s0-2.55,0-2.55l2.35-2.6ZM664.25,689.63v-1.72c1.02.57,1.02,1.15,0,1.72ZM660.33,780.85v-3.43s3.13,0,3.13,0l-3.13,3.42ZM665.03,772.23h-1.54v-3.42h1.54v3.42ZM668.18,422.85h-3.13v-1.69h3.13v1.69ZM669.78,794.61c1.22-3.49-3.17-16.53,3.13-15.47-1.52,4.12.57,12.9-3.13,15.47ZM669.78,770.52l3.09,2.56-1.55,4.31h-1.54s0-6.87,0-6.87ZM668.21,768.8v-3.42s3.93-1.73,3.93-1.73l.78,3.41-4.71,1.74ZM669,383.3c-2-.01-2.1-15.3,0-17.32l10.22-1.64.79-3.46.79,3.46,3.19.86-3.19,6.01,6.37-.93,1.48,7.83-3.22-6.87-12.52,1.72c1.35,6.68,10.71.73,9.46,6.86l-13.37,3.47ZM682.35,764.47l-3.12,2.61v-5.15s3.13,0,3.13,0v2.55Z"/>
    <path d="M675.28,328.2v1.72c1.02-.57,1.02-1.15,0-1.72Z"/>
    <path d="M675.28,333.37v1.72c1.02-.57,1.02-1.15,0-1.72Z"/>
    <path d="M657.95,218.09l-.79,1.69c.08.21,1.49-.21,1.58,0-.07-.05.2-1.66-.79-1.69Z"/>
    <path d="M663.47,376.39l-1.58-1.72c.24.4-.33,1.85,1.58,1.72Z"/>
    <path d="M639.84,360.9c-.29-.75.11-1.95-1.58-1.72-.25,1.94,1.27,1.49,1.58,1.72Z"/>
    <path d="M630.39,385.02l3.15,3.43c-.31-.66.25-2.42,0-3.44-.8-.26-2.15.1-3.15.02Z"/>
    <polygon points="680.79 364.35 679.22 364.35 680.01 366.03 680.79 364.35"/>
    <path d="M692.61,741.26v1.72c1.02-.57,1.02-1.15,0-1.72Z"/>
    <path d="M605.19,90.69c-1.53.21-3.18-.12-4.72-.02-.92-.79,8.84-16.33.02-15.47l-6.33,23.2c1.72,3.7,5.21.57,7.88-.83-.33-3.04,2.7-4.95,3.15-6.88Z"/>
    <path d="M608.35,132c-.09,1.14.07,2.31-.01,3.45h3.15v-1.72c-.56.03-1.98-1.85-3.14-1.73Z"/>
    <path d="M598.9,130.3l4.73,1.71v3.43s-4.74,3.43-4.74,3.43l9.44,3.45c.14-2.27-.16-4.61,0-6.88l-1.67-4.99-7.77-.16Z"/>
    <path d="M614.64,128.56c.16,1.09-.2,2.43,0,3.44l1.57-2.58c-.15-.67-1.42-.59-1.57-.86Z"/>
    <path d="M624.07,335.95l3.17.86v-1.72c-.8.53-3.19-.97-3.17.86Z"/>
    <path d="M556.36,486.56l2.37,3.42.78-3.44c-.34.32-2.25-.27-3.15.01Z"/>
    <path d="M570.54,460.74c-1.05,1.18,6.95,14.82,11.02,12.04l-4.71-1.71c-.15-4.1-1.31-10.67-6.3-10.33Z"/>
    <path d="M605.2,146.66l-.02,2.56c9.54.6,7.57-10.3.02-2.56Z"/>
    <path d="M626.44,286.93c2.31,4.26.88,5.22.8,8.57,6.25,1.54,2.28-6.89-.8-8.57Z"/>
    <path d="M624.09,302.39c.25,0,1.41,1.95,2.3,1.72l.85-1.72c-.98-.21-2.39.29-3.15,0Z"/>
    <rect x="616.22" y="312.72" width="3.13" height="3.42"/>
    <path d="M643.77,331.62l-2.35.03.79-5.13c-4.18,1.97-3.76,3.61-5.49,7.74l6.25,2.55.79-5.19Z"/>
    <path d="M623.3,324.8l-.79,1.69c.51.09,1.06-.08,1.58,0-.12-.59.15-1.69-.79-1.69Z"/>
    <path d="M631.97,347.14c.39,1.08-.84,3.57,1.58,3.44.85-3.06-1.52-3.21-1.58-3.44Z"/>
    <path d="M652.44,343.69c.46.19,1.11-.18,1.58,0-.42-.66-1.11-1.11-1.58-1.72.06.59-.11,1.23,0,1.72Z"/>
    <path d="M630.39,340.25c-.97,3.28.81,4.77,1.58,6.88-.21-.94.09-2.34.01-3.44l4.68.87c-1.35-1.08-1.1-2.85-1.54-4.32-1-.04-2.86,1.69-4.73,0Z"/>
    <path d="M644.55,352.3c.34-6.27-5.75-5.39-9.43-5.14.86,3.55,6.98,2.93,9.43,5.14Z"/>
    <path d="M632.72,331.66c-3.86-1.25-4.52,2.8-5.48,3.43l1.54.86c-.06,1.11-1.53.77-1.54.86-1.36,9.83-4.28,1.48-4.72,8.6,4.53,1.1,5.17-2.28,7.87-5.15.72-.77,1.19-2.96,2.37-3.43h2.35c-.37-.39-.32-4.49-2.4-5.17ZM631.18,335.09v-1.72c1.02.57,1.02,1.15,0,1.72Z"/>
    <path d="M638.27,183.63c.17,2.06.12,2.14,1.58,3.44-.43-1.01.6-2.78-1.58-3.44Z"/>
    <path d="M598.89,469.33v-3.44c-.35.26-1.46-.27-1.58,0v3.44h1.58Z"/>
    <path d="M568.96,546.78c.78-1.5-2.59-1.59-1.58,0,.04.07,1.54.07,1.58,0Z"/>
    <path d="M572.11,352.3c-1.04-.06-2.11,0-3.15.02l3.15,3.42c-.18-1.05.13-2.34,0-3.44Z"/>
    <path d="M573.69,352.3c.15-1.91-1.04-4.71-.77-6.85l-3.94,3.38c3.7-.28,2.83.84,3.14,3.47.55.03,1.2-.14,1.58,0Z"/>
    <polygon points="563.45 495.11 564.24 493.43 562.66 493.43 563.45 495.11"/>
  </g>
</svg>