<?xml version="1.0" encoding="UTF-8"?>
<svg id="Layer_1" xmlns="http://www.w3.org/2000/svg" version="1.1" viewBox="0 0 1920 1080">
  <!-- Generator: Adobe Illustrator 29.5.1, SVG Export Plug-In . SVG Version: 2.1.0 Build 141)  -->
  <rect x="1831.59" y="7.61" width="1.48" height="3.47"/>
  <text/>
  <g>
    <path d="M720.96,708.56v1.72c1.02-.57,1.02-1.15,0-1.72Z"/>
    <polygon points="726.46 713.74 721.75 713.74 721.76 717.17 726.46 717.17 726.46 713.74"/>
    <rect x="745.38" y="787.74" width="3.13" height="3.42"/>
    <path d="M702.06,789.45v1.72c1.02-.57,1.02-1.15,0-1.72Z"/>
    <path d="M708.36,651.77c1.02-.57,1.02-1.15,0-1.72v1.72Z"/>
    <path d="M708.36,646.6v1.72c1.02-.57,1.02-1.15,0-1.72Z"/>
    <path d="M735.92,782.57c.22.11-.22,1.58,0,1.72,2.08,1.32,4.97,1.82,7.12,3.27l2.33-3.25c-3.31.37-6.32-1.07-9.45-1.74Z"/>
    <path d="M711.51,550.22c1.02-.57,1.02-1.15,0-1.72v1.72Z"/>
    <path d="M1143.09-16.01v1.72c1.02-.57,1.02-1.15,0-1.72Z"/>
    <path d="M717.81,662.09c1.02-.57,1.02-1.15,0-1.72v1.72Z"/>
    <path d="M720.18,725.76l3.13,1.74,1.59-8.6c-5.91-.11-6.2,9.2-6.28,13.74l1.57-6.89Z"/>
    <path d="M903.71,792.91c.87-2.55-1.19-9-.81-12.06,4.84,3.08,1.68,11.34,7.84,13.76l-1.58-125.63c-7.4,4.58-15.15,6.68-22.89,1.79l-10.17-8.65c3.01,4.76.19,8.4,0,12.91-.55,13.11,2.5,30.05-6.29,40.42-.85-23.73,1.06-47.78.05-71.5-2.05-48.11-11.54-97.13,3.1-144.48l2.33-147.18c-47.11,33.12-104.66,62.75-131.78,119.34-3.99,8.33-4.79,13.84-8.13,20.46-10.08,20-14.4,63.39-15.3,86.46-1.17,30.15,1.36,60.35,1.63,90.43l-2.34-5.15c-8.26,16.18,10.28,30.86,5.52,48.18,2.9,2.05,1.51-11.8,3.94-5.18,4.74,12.9,7.57,29.21,11.31,42.67l3.61,2.13v3.41s-4.69-1.71-4.69-1.71l2.28,22.52,8.72,3.29c1.25-3.5-4.68-6.57-4.68-7.74-.02-7.52,6.26,1.83,6.67,2.11,1.63,1.12,4.52.19,6.79,2.03,2.66,2.17,2.38,7.33,8.51,7.06l1.6-5.17c.23,8.27,6.71,12.75,12.57,16.4,5.45,3.4,15.66,4.05,14.23,11.12l3.12-.83,1.59-4.33c-.96,5.12,1.37,9.94,1.6,14.63.24,4.87-4.57,8.31,1.61,10.53,1.54,2.61-3.22,10.74-4.71,8.4l-4.52-20.83c-3.62-6.76-7.39-4.65-9.08,2.23-2.31,9.43,4.27,16.69,2.52,26.35l8.63-3.47.81,5.2,4.7-1.73c-.29,4.8,1.97,9.64-2.96,11.09l2.95,6.11,3.15-6.86c3.27,6.2-3.52,4.81-1.54,12.03l2.34-5.15c18.42,23.05,12.32-12,17.29-17.26,3.9-4.13,10.45-2.42,10.17,4.19l3.18.9c2.13-4.8,6.15-7.43,3.23-13.64,7.16-1.07-1.33,7.61,3.93,10.27l9.52-3.6,3.86,3.63v-6.89c-5.69,3.44-7.54-.67-3.91-5.16l5.49,3.44c-2.5-7.56.09-9.71,3.99-15.56,7.86-1.61,5.58,14.35,10.22,18.99l1.56-5.16,9.44,3.45c2.21-2.56-7.8-12.5-4.38-18.6.6-1.08,6.76-1.9,4.18-6.99-.55-1.08-8.67-4.71-10.81-3.64l3.22,2.8c-.22,3.61.33,12.16-4.8,10.96v-13.76s-6.31,0-6.31,0l.02,8.58-3.17-13.76h37.8l-1.57-10.32c2.88-3.55,3.57,7.47,5.54,1.72ZM724.88,687.9h-1.54s-1.59-5.14-1.59-5.14h3.14s0,5.14,0,5.14ZM721.76,681.03v-3.43s3.13,0,3.13,0l-3.13,3.42ZM746.16,526.13c1.02.57,1.02,1.15,0,1.72v-1.72ZM733.56,503.75c1.02.57,1.02,1.15,0,1.72v-1.72ZM734.34,660.36h-3.13v-1.69h3.13v1.69ZM735.14,636.28v-1.72c1.02.57,1.02,1.15,0,1.72ZM741.44,639.72v-1.72c1.02.57,1.02,1.15,0,1.72ZM739.08,558.84c1.48-2.29,8.29-1.28,9.42,2.57-3.46,8.06-12.65,2.43-9.42-2.57ZM749.31,493.43v-1.72c1.02.57,1.02,1.15,0,1.72ZM774.51,734.38c1.02.57,1.02,1.15,0,1.72v-1.72ZM768.99,736.09l-3.13-.84,3.13-2.59v3.43ZM767.42,679.31c1.61,1.79-3.13,6.9-4.71,5.15-1.61-1.79,3.13-6.9,4.71-5.15ZM757.99,489.99h1.54v3.42h-1.54v-3.42ZM755.61,527.85v-1.72c1.02.57,1.02,1.15,0,1.72ZM766.64,749.87v-1.72c1.02.57,1.02,1.15,0,1.72ZM756.41,742.98c-1.06-5.69,8.17-4.54,11.02-5.14l-11.02,5.14ZM769.8,770.51l-2.37-3.42h3.14s-.77,3.42-.77,3.42ZM775.28,749.86h-1.54v-6.87h1.54v6.87ZM776.09,777.41v-1.72c1.02.57,1.02,1.15,0,1.72ZM776.87,739.53h-3.13v-1.69h3.13v1.69ZM796.56,775.69v-1.72c1.02.57,1.02,1.15,0,1.72ZM796.56,737.82v-1.72c1.02.57,1.02,1.15,0,1.72ZM802.87,835.92v-1.72c1.02.57,1.02,1.15,0,1.72ZM808.37,847.95h-3.13v-1.69h3.13v1.69ZM868.22,503.74h-3.13v-1.69h3.13v1.69ZM865.09,458.15l2.35-2.56,2.36,3.39-4.72-.83ZM868.22,371.24v2.55s-3.13,2.61-3.13,2.61v-5.15s3.13,0,3.13,0ZM865.88,378.12l.77,3.42h-3.14s2.37-3.42,2.37-3.42ZM866.65,388.45v3.42h-3.13v-3.42h3.13ZM867,404.37c3.27,7.95.62,21.92,1.22,30.54l-6.28-10.33-.8,1.69c-.69.08-.69-1.7-.78-1.69-.68.12-2.88,2.19-3.14,1.73l-.02-5.17c14.7,1.74,4.1-4.93,4.72-13.78l-4.69,3.44-.03-5.16c5.94,3.09,7.23-7.54,9.81-1.29ZM868.22,443.53v3.43s-4.71-1.74-4.71-1.74v-1.68s4.71,0,4.71,0ZM867.44,440.07v-1.72c1.02.57,1.02,1.15,0,1.72ZM847.76,801.51h3.12s1.59,6.87,1.59,6.87h-2.33c-2.47-1.82-2.75-3.7-2.38-6.87ZM830.45,823.87c-2.7-7.12,2.06-14.1-3.13-19.79l7.04-2.56-2.33,3.43,4.7,8.6-4.7-1.71c-.4.44,2.36,11.54-1.57,12.03ZM836.71,839.37l-3.13-2.59,3.13-.84v3.43ZM833.59,829.03v-3.43s3.14,3.42,3.14,3.42h-3.14ZM840.67,830.73c-2.21-.01-5.09-12.35.77-10.29.1,3.52,2.95,7.77-.77,10.29ZM839.89,806.66v-3.42h6.28v3.42h-6.28ZM846.97,815.27v-1.72c1.02.57,1.02,1.15,0,1.72ZM844.61,810.98l2.35-2.56,2.36,3.39-4.72-.83ZM851.7,818.7l-2.35-2.6v-2.55s3.13,0,3.13,0l-.77,5.15ZM854.05,811.81h-3.13v-1.69h3.13v1.69ZM858.01,808.35c-.76-1.01-3.16-2.18-1.61-3.37.87,1.1,3.17,2.24,1.61,3.37ZM858.79,429.77h3.13v1.69h-3.13v-1.69ZM858.79,438.36h3.14s-3.13,3.43-3.13,3.43v-3.43ZM860.36,450.38v-1.69h7.86v1.69h-7.86ZM902.1,765.36v-1.72c1.02.57,1.02,1.15,0,1.72ZM906.05,758.48h1.54v3.42h-1.54v-3.42ZM904.48,732.67h1.54v3.42h-1.54v-3.42ZM901.33,736.1l3.12,2.61v2.55s-3.13,0-3.13,0v-5.15ZM896.67,755.78l-.08-2.46h3.12s1.58,8.6,1.58,8.6l-4.63-6.13ZM900.54,727.53c1.57,1.13-.73,2.28-1.61,3.37l-.74-.81,2.35-2.56ZM897.39,732.69l-10.28,20.62-2.38-3.44,12.66-17.17ZM883.2,741.26c1.02.57,1.02,1.15,0,1.72v-1.72ZM879.29,781.71l2.34-2.57.76,5.15-3.1-2.58ZM883.97,748.14h-1.54v-3.42h1.54v3.42ZM888.69,798.05h-1.54v-3.42h1.54v3.42ZM883.99,779.12v-2.55s3.95-4.32,3.95-4.32l3.9,2.6v2.54s-7.85,1.73-7.85,1.73ZM887.91,756.79c4.48,7.4,9.92,15,11.06,24.03l-11.06-24.03ZM898.18,784.3h1.54v3.42h-1.54v-3.42Z"/>
    <path d="M792.63,806.68c-1.63.83,4.24,4.11,6.29,3.41-.77-3.31-3.48-3.88-6.29-3.41Z"/>
    <path d="M861.14,835.92v1.72c1.02-.57,1.02-1.15,0-1.72Z"/>
    <path d="M860.36,424.58c.08.21,1.49-.21,1.58,0l-.79-1.69c-.59.03-1.03,1.07-.79,1.69Z"/>
    <rect x="797.37" y="811.84" width="1.54" height="3.42"/>
    <path d="M850.12,870.35v1.72c1.02-.57,1.02-1.15,0-1.72Z"/>
    <path d="M840.67,844.53v1.72c1.02-.57,1.02-1.15,0-1.72Z"/>
    <rect x="835.16" y="847.99" width="3.13" height="1.69"/>
    <path d="M783.98,834.24l-2.35,2.56.74.81c.87-1.1,3.17-2.24,1.61-3.37Z"/>
    <rect x="803.67" y="865.19" width="1.54" height="6.87"/>
    <path d="M782.39,853.13c1.02-.57,1.02-1.15,0-1.72v1.72Z"/>
    <rect x="781.62" y="829.05" width="1.54" height="3.42"/>
    <path d="M783.96,846.25v1.72c1.02-.57,1.02-1.15,0-1.72Z"/>
    <path d="M798.14,878.95v1.72c1.02-.57,1.02-1.15,0-1.72Z"/>
    <path d="M796.56,851.41v1.72c1.02-.57,1.02-1.15,0-1.72Z"/>
    <path d="M800.5,847.95c.77-.65-2.75-4.56-4.72-3.41-.77.65,2.75,4.56,4.72,3.41Z"/>
    <path d="M798.14,860.02v1.72c1.02-.57,1.02-1.15,0-1.72Z"/>
    <path d="M1044.92,1052.52c-1.07,0-1.07,1.88,0,1.88s1.07-1.88,0-1.88Z"/>
    <path d="M771.36,107.91v-1.72c1.02.57,1.02,1.15,0,1.72Z"/>
    <rect x="871.39" y="841.1" width="3.13" height="1.69"/>
    <path d="M405.94,615.63v1.72c1.02-.57,1.02-1.15,0-1.72Z"/>
  </g>
</svg>