<?xml version="1.0" encoding="UTF-8"?>
<svg id="Layer_2" xmlns="http://www.w3.org/2000/svg" version="1.1" viewBox="0 0 1220.3 595.28">
  <!-- Generator: Adobe Illustrator 29.5.1, SVG Export Plug-In . SVG Version: 2.1.0 Build 141)  -->
  <defs>
    <style>
      .st0 {
        fill: #fff;
      }
    </style>
  </defs>
  <rect x="1112.49" y="16.45" width=".9" height="1.87"/>
  <text/>
  <rect class="st0" x="1551.48" y="270.29" width=".98" height="1.99" transform="translate(-14.24 442.17) rotate(-16.14)"/>
  <path class="st0" d="M1459.72,80.1c-.5-.53-.82-.44-.96.28l.96-.28Z"/>
  <g>
    <polygon points="347.09 229.86 343.31 227.07 346.63 231.69 347.09 229.86"/>
    <polygon points="347.09 209.47 346.16 209.47 345.2 212.23 347.1 212.24 347.09 209.47"/>
    <rect x="349.96" y="231.7" width="1.89" height=".91"/>
    <path d="M349.1,263.85c.3-.02.59-.09.84-.21l-.84.21Z"/>
    <path d="M353.29,78.84v.93c.62-.31.62-.62,0-.93Z"/>
    <path d="M354.24,189.08c.62-.31.62-.62,0-.93v.93Z"/>
    <path d="M355.19,191.86c.62-.31.62-.62,0-.93v.93Z"/>
    <path d="M350.43,238.18c.62-.31.62-.62,0-.93v.93Z"/>
    <path d="M363.75,255.78c.62-.31.62-.62,0-.93v.93Z"/>
    <path d="M362.78,243.76c-2.14-2.45-5.74-9.11-8.69-10.08-3.06-1-1.36,2.71-4.12.79-.59,2.45.62,1.45,1.38,1.93,5.38,3.4,4.94,4.36,8.4,7.99l9.21,5.37c-1.37-2.93-4.26-3.8-6.19-6.01Z"/>
    <path d="M354.24,74.21v.93c.62-.31.62-.62,0-.93Z"/>
    <polygon points="349.47 210.37 350.9 208.98 350.9 207.61 349.01 207.62 349.47 210.37"/>
    <path d="M334.26,312.29c.62-.31.62-.62,0-.93v.93Z"/>
    <path d="M341.87,265.05c.62-.31.62-.62,0-.93v.93Z"/>
    <rect x="333.79" y="299.33" width=".93" height="2.77"/>
    <rect x="333.79" y="307.66" width=".93" height="1.84"/>
    <rect x="349.01" y="265.98" width=".93" height="1.84"/>
    <path d="M351.86,197.41c.46-.35-1.66-2.45-2.85-1.83-.46.35,1.66,2.45,2.85,1.83Z"/>
    <path d="M349.48,204.83v.93c.62-.31.62-.62,0-.93Z"/>
    <path d="M349.48,269.68c.62-.31.62-.62,0-.93v.93Z"/>
    <path d="M341.46,258.93c.18-3.84,2.63-7.7,1.43-11.51-.45-1.43-4.27-7.27-6.24-5.53l1.9,8.34,1.88-.48c-3.38,3.42-.08,10.02.48,13.42l3.34-2.74-2.79-1.51Z"/>
    <path d="M344.26,265.04l4.84-1.19c-2.25.18-5.55-1.83-4.84,1.19Z"/>
    <path d="M338.16,305.7c.75-.51,2.27-.48,3.2-.88l.04-2.72-3.68-.12-3.93-17.48c-2.08,8.37,4.67,16.09,1.89,24.07,3.1.76,1.12-1.97,2.47-2.87Z"/>
    <path d="M366.6,41.79c.62-.31.62-.62,0-.93v.93Z"/>
    <rect x="366.13" y="36.24" width="1.89" height=".91"/>
    <path d="M365.65,54.75v.93c.62-.31.62-.62,0-.93Z"/>
    <path d="M403.7,130.74l-.48.91c.05.11.9-.11.95,0-.04-.03.12-.89-.48-.91Z"/>
    <path d="M372.31,141.84v.93c.62-.31.62-.62,0-.93Z"/>
    <path d="M342.82,280.79c.62-.31.62-.62,0-.93v.93Z"/>
    <rect x="369.94" y="114.97" width=".93" height="1.84"/>
    <path d="M343.77,322.48v.93c.62-.31.62-.62,0-.93Z"/>
    <path d="M348.53,337.3v.93c.62-.31.62-.62,0-.93Z"/>
    <path d="M334.26,341.94v.93c.62-.31.62-.62,0-.93Z"/>
    <path d="M334.75,329.89c-.44,1.35,1.33,5.46,2.37,5.54,2.76.22-.71-5.73-2.37-5.54Z"/>
    <path d="M364.7,105.71v.93c.62-.31.62-.62,0-.93Z"/>
    <path d="M363.75,129.79v.93c.62-.31.62-.62,0-.93Z"/>
    <path d="M363.75,148.32v.93c.62-.31.62-.62,0-.93Z"/>
    <path d="M365.65,94.59c.62-.31.62-.62,0-.93v.93Z"/>
    <path d="M367.55,104.78v.93c.62-.31.62-.62,0-.93Z"/>
    <path d="M342.82,278.02v.93c.62-.31.62-.62,0-.93Z"/>
    <rect x="365.19" y="96.45" width=".93" height="1.84"/>
    <path d="M365.65,89.03v.93c.62-.31.62-.62,0-.93Z"/>
    <path d="M368.51,136.28v.93c.62-.31.62-.62,0-.93Z"/>
    <rect x="343.31" y="286.36" width=".93" height="1.84"/>
    <path d="M342.82,273.38v.93c.62-.31.62-.62,0-.93Z"/>
    <path d="M348.53,284.5c.62-.31.62-.62,0-.93v.93Z"/>
    <path d="M348.53,312.29v.93c.62-.31.62-.62,0-.93Z"/>
    <path d="M372.31,255.78v.93c.62-.31.62-.62,0-.93Z"/>
    <polygon points="356.61 269.69 353.77 269.68 353.77 271.53 356.61 270.59 356.61 269.69"/>
    <path d="M352.33,266.9v.93c.62-.31.62-.62,0-.93Z"/>
    <rect x="356.62" y="187.23" width=".93" height="1.84"/>
    <rect x="352.82" y="274.31" width=".93" height="1.84"/>
    <path d="M359.46,222.42l-8.54-10.18,4.74,6.02-2.84,1.37,3.79,1.4-2.84,2.31h3.79s-.96,3.7-.96,3.7l3.34.93-.02-2.75c2.81,1.96.61,2.72-.47,4.6l9.5,5.59-.48,1.85-2.35-.94c-1.54,1.87,8.81,20.71,10.52,24.31.41.86,1.87.56,1.86,1.16l-1.55,2.17-4.17-.77v4.62s-1.91-4.64-1.91-4.64c-1.71-.5-1.96.35-2.85.93l1.9,1.84c-.61.1-1.4-.13-1.9,0-.13.04-.24.71-.52.69l-.43-.69-.96-.49c-.07-.95.93-1.24.96-1.36.2-.74,1.17-.9.5-1.86-1.33-1.88-3.71-.91-4.14-1.2l-1.1-1.57,2.82,6.03c-1.65.91-1.66-2.17-1.9-2.32-3.26-2.17.48,2.89-2.84,1.85,1.15-2.53-1.81-6.66-3.85-7.92-.95-.59-2.26.53-2.66.3-.32-.18-.44-1.69-1.14-2.02-1.84-.87-3.93-.86-5.67-2.4l.94,8.33-2.83-.47,2.82,2.32,1.04-3.64,7.49,2.84-.9,2.65c2.19,1.4,1.99-3.81,3.8-1.84.9.97-1.88,4.38-1.9,4.63-.28,2.89,2.24,4.87,3.79,6.96l-2.83-.47.48,2.77-3.32-4.63c-.27,1.49-.72,2.7-.2,4.24.62,1.83,2.72.71,2.09,3.15-1.55,1.62-5.72-1.45-4.75,1.85,1.57-.17,4.85,2.62,3.79,3.72-1.68,1.73-1.96-1.54-2.07-1.62-.2-.14-1.88,1.09-3.62-2.08l-.98,4.63-1.78-.78-1.05,1.7c-1.58-4.68-.55-3.86,2.08-7.2,5.25,1.2-1.17-1.9-1.15-3.43l2.86-1.39-3.8-.02.95-7.4-2.84,1.84-.88-3.16-2.94-.55v5.57c3.86-2.36,4.48,2.33,2.85,3.7h.94s.96,3.71.96,3.71l.48-2.79c1.08-.01.12,2.24.48,2.79.05.08,2.05-.16,1.92.45-.61,2.82-4.25,2.37-5.7,4.65l2.83.46c-2.29,5.2,5.38,5.08,7.62,8.33l-6.2-2.81-1.88,1.89-2.37-2.77v10.18s3.79-4.63,3.79-4.63l1.42,9.29,6.19-.03-.95,6.48c-2.05-.96-.91-2.42-3.79-2.78-.17-.02-.34,1.81-.95,0v3.26s3.81-.48,3.81-.48c-1.75,1.99,2.78,2.66-.42,5.24-2.64.73-4.44-1.56-6.67-1.6-4.34-.09-6.5,2.88-8.14-4.57-4.01,2.65-1.98,6.49-.95,10.19l-2.86-2.31c.98,6.62,1.72,14.63,9.52,17.12l-2.84-16.66,3.33,3.68c-.66-4.69,5.78-9.2,4.27-.91l6.65,1.85-.48-2.76,2.38,1.83-.94-2.77h1.88s1.45,2.77,1.45,2.77l.94-1.85,6.18,6.01c-2.2,3.71-8.2,2.09-9.98,2.7-3.01,1.02-6.94,5.57-10.94,5.2-.76,2.99,3.49,1.59,5.18,2.82l1.47-1.9,1.44,3.7,1.07-1.91,7.01.99-3.33,4.62c.42-2.21-6.71-1.96-8.34-1.66-.82.15-8.81,4.07-9.24,3.52,1.36-6.67-1.99-5.4-6.66-8.34-.64.76,6,10.66,0,11.13l1.97,1.48-1.08,4.48c4.11,1.24.61,2.25.3,3.88-.24,1.28.97,2.86.74,4.36-.1.7-1.78.16-2.02,1.93-1.09,7.91.97,18.26.07,26.47l8.56.93c-1.42,3.08-5.86,1.54-8.56,1.84v51.88h12.36c.07.33.07.59.05.83,2.33,0,4.67.03,7,.07,2.48.04,5.01-.05,7.48.23,1.07.12,2.14.32,3.19.54,1.13.24,2.33.65,3.5.62.91-.02,1.77-.35,2.61-.67.62-.24,1.24-.45,1.88-.61v-.08s.4,0,.4,0c.18-.04.36-.07.55-.1.14-.02.24.02.32.08l16.36-.24,1.93-3.52,11.76,1.12.57,2.72,7.46-.92.56.58c1.4-.02,2.81-.06,4.21-.13.03-2.54.25-4.81,1.1-6.04,1.2-1.73,4.24-2.55,5.17-5.15l-4.73,1.39c-2.25-4.85,6.2-5.53,5.7-7.86l-3.78-.93.94-5.11h-3.81c-.85-2.84,3.48-2.34,3.82-3.24l-.03-2.32-2.84.93c-1.6-4.63-.3-8.34,0-12.97l2.84,1.85c-.72-6.6.02-14.07-.58-20.49-.36-3.79-2.66-7.26-2.07-12.12.81-6.77,5.52-6.74,5.52-7.22v-193.62l-4.77-.47c.05-2.42,2.8-2.46,4.77-2.31V35.3h-48.51c.21-2.67,1-5.37,1.87-7.9,2.16-6.27,4.23-10.51,4.66-17.53.19-3.1-2.17-5.69-1.78-8.85h-5.71c-2.07,5.24,1.62,5.95,1.94,10.7.08,1.25-.03,2.73-.97,3.67,7.18-1.23-.05,3.97-.46,5.03-.38,1,.6,2.59.3,3.99-.38,1.7-2.27,2.92-2.46,4.06-.24,1.47,1.25,3.32.59,5.27-.47,1.41-3.32,1.74-4.26,4.32-.56,1.56-.82,6.02,1.5,6.02l-1.93,2.78,1.92,1.84-2.85,3.25c3.44.61,12.76-1.97,15.25-.44,1.02.62.37,3.22,3.29,2.3l2.02-3.76,4.16.06-2.84,2.76h10.46s.94-1.84.94-1.84v4.63s-15.22.94-15.22.94c1.48,3.36,6.4.88,8.55,3.25.36,3.32-5.02-.12-5.69.45l-.02,5.55c-1.65-.32-1.32-3.32-2.1-4.89-.39-.78-1.44-2.22-2.18-2.51-2.88-1.14-.09,4.79-2.35,4.62l-.97-6.47c-1.45-.26-1.07,1.64-1.89,2.4-1.27,1.17-2.59.22-2.87,1.17v-1.72c-6.91-.67-3.55,2.75-3.8,3.7.51-.06,1.65-1.3,1.89-.93.79,2.64-1.54,3.57-3.8,4.63l2.38,2.78,2.37-1.84-.96,2.76c1.77-.22,3.19-.11,2.88,1.85l1.88-1.84c-.74,3.88,1.32,1.64,3.81,3.7l-.48-2.76,3.83.93-1.42,2.29,5.69,3.23-6.6,1.82c-.13-1.82-5.24-4.67-6.73-3.66l.97,1.84-2.45-.84-.87,1.77c-.56-1.66-3.08-.97-3.19-1.11-.45-.57-.18-2.42-1.04-3.11-3.82-3.03-2.67,3.25-4.81,4.21-1.52-2.97-.03-4.23.95-6.93-2.07-1.96-1.99,1.19-3.26,2.35-1.39,1.27-3.17,1.84-4.31,3.29l1.73,4.42c-5.25,3.11-2.84,4.6-4.11,9.03-.63,2.2-2.33,1.63-2.43,1.77-1.27,1.81,1.36,1.81,1.59,2.14.86,1.27-.7,3.07,2.2,2.47-1.32-4.3,3.51-8.37,4.32-12.93l1.78-.9,2.46,1.79.02-4.64c1.45,1.16,3.27-.09,4.17.05.67.11.58,1.44.77,1.49,1.05.3,2.86-1.03,4.1,1.22l.45-3.68c-.19,1.75,1.26,2.63,1.91,3.7-.26-1.59-.8-3.04-.94-4.63,1.05-1.29,6.08,9.09,5.71,10.64-2.49-.82-4.26-1.87-4.77-4.16-.82-.29-1.8.92-1.9.93l.93.46c-.01.58-.91.42-.93.46-.24.42-1.17,1.66-.96,1.84l3.81,1.41-1.95.93,1.95,4.15c-3.97-2.24-2.45,3.51-6.66-.92-.93-.98-2.35-.75-1.19-3.28l-3.54-.9-.02,2.78c4.51,1.48.82,3.77,4.29,6.01v-3.68c1.57,2.36,1.59,4,4.77,1.87-.98,3.2,2.06,1.34,3.32,3.46,1.99,3.37-1.23,6.46-.96,6.7l2.83-.46c-1.79,4.19-.9,7.17,1.46,10.66,2.29-.1,2.5-1.59,1.4-3.22l1.91.46-.96-4.17,1.91.46-.97-3.71-1.4.73-.47-2.58,3.81,1.37-1.91-7.38-1.9.45c-1.48-2.15,2.96-1.85,1.89-2.77-.68-.58-3.51-.23-2.84-2.79h3.78s1.93,18.53,1.93,18.53c.88.18,2.11-.2,2.85,0-.31-3.38,2.89-1.41,4.75-1.85l-2.18,1.83.26,2.35c-.3.65-1.6-.26-1.87-.48,1.02,2.14,2.45,4.26,2.84,6.48l-5.69-4.63-.77,2.59,3.61,3.44-2.84-.47,1.87,3.25-.93,2.3-3.33-2.77-2.23,1.98,1.74,5.43c-2.11-.77-3.34-4.29-6.16-3.7-3.39.71,1.1,4.2,1.41,4.63-.16-.31.07-1.28,0-1.85l2.66,1.09.16,2.16c-.46.6-2.76-1.26-2.83-1.4,1.6,2.22,3.21,3.19,2.31,5.6l6.24,2.29-2.84.45.92,5.1.98-3.24,2.38,2.77,1.02-2.85,5.08.49c-1.72,2.73.47,5.24,1.01,7.48.9,3.67-2.5-2.03-2.83-1.41-1.71,5.48-.17,7.29,1.88,12.04l-3.79-3.7,3.78,6.03-3.79-2.8-1.89.95,1.88,8.78c-11.76-7.23-2.89,3.47-3.8,4.63-1.97-.58-3.6-.46-5.7-.93-.08.59.06,1.25,0,1.85,2.14.42,10.56,1.24,10.64-.67l1.72.68-.47-4.63c1.49,1.37,5.21,8.05,4.28,9.26-3.34-.65-4.41.96-6.1-2.55l-4.4,1.17-1.39,6.95c.92-4.04-1.42-3.28-1.44-6.5l-2.84.94c-.74.47,3.8,1.83,1.89,3.69-1.15,1.12-4.51-2.03-4.73-1.85l-2.87,3.24,2.76,1.27.55-1.73c1.21,1.66,2.4,1.93,4.22,1.02l1.03,2.68c-1.53-.12-3.26.21-4.76,0,.19.8-.69,3.66.99,2.33l5.67-.49v-3.69s1.89,1.83,1.89,1.83l.19-1.53,2.67-.78-2.84-3.24,4.74,1.85.48-3.7,3.31,6.95-4.73-.92,3.79,2.78-2.85,3.71c1.43.79,2.77,2.01,3.81,3.23-.11-1-.99-2.05-.49-2.76,3.05,1.79,5.25,5.5,9.05,5.55l-.47,1.83c-2.2-1.89-4.44-2.74-7.14-3.7.27.37,1.08,1.72.95,1.84h-1.42c-.95.04-.33-1.25-.49-1.84-1.88-.68-9.53-2.85-10.46-3.71.09.58-.15,1.39,0,1.85.55.02,1.46.8,2.37.28l.99,2.5c4.35-1.93,3.08.85,6.13,3.25l-2.66-.36c-1.13,4.5-3.83.77-7.78-.11-.11-.02-.7,1.09-2.07.77-1.95-.46-5.21-2.28-7.95-2.58l-.42-3.3c.11-.45,4.52,1.27,3.77-2.3l-2.85.49-.94-2.34,1.89-.92-2.85-1.85,2.84-.94,1.44,3.72.48-3.71c-.96-.14-2.54-2.76-4.73-.94l-.03-5.53c-1.24-1.16-9.32,3.93-8.57.45.7-3.28,4.12-3.31.97-7.86,2.56,1.18,2.89,4.22,1.9,6.48,1.84.19,2.8-2.51,3-2.58.74-.26,2.95,1.57,4.67.35l.89-4.24c1.61-.38.59,1.21,1.06,1.7.36.37,1.44-.76,1.78-.77-.14-.05-1.34-1.15-2.4-1.78-1.49-.88-3.02-1.07-.45-2.4,1.48-.76,1.26,1.78,2.61,2.34.64.27,1.58-.14,2.15-.01.08-.58-.02-1.25,0-1.85-1.46-.32-2.43-3.3-2.87-4.62l-.94,2.78-4.73-1.88v-7.39s1.79.5,1.79.5l1.04-5.13-2.83,3.69-3.81-9.25c.11,1.77,2.48,6.4,0,7.4l-2.92-10.62,1.95-1.4h-2.84s-.02,9.25-.02,9.25l-3.79-2.78c-.43,1.79,1.54,2.08,1.46,3.76-.02.42-1.5,7.49-1.66,7.86-.35.78-1.8-.01-1.72.9-1,2.53,3.24-.68,1.9,1.83-.65,1.22-2.48,2.86-3.32,4.18-1.32-.82-.66-5.26-3.34-3.22l1.97,5.97c2.18-1.21,3.29-.41,4.62,1.43l-1.82,2.3,1.91,1.85h1.88s.48-4.61.48-4.61c1.06,1.61-.63,4.23,2.36,3.72l-3.3,2.81-3.34-2.82,5.71,12.97,2.36-1.85,2.38,2.32-3.35.49-.94,3.65c.35-2.25-.87-1.98-1.42-2.76.16.3-.08,1.28,0,1.85h-1.89s0-2.77,0-2.77c.06-.09,1.85.83,1.89.93-2.83-4-4.89-8.65-8.55-12.04-.11,2.17,1.56,4.05,1.6,6.18.04,1.67-1.13,2.9-1.17,3.95-.05,1.37,1.78,2.62.5,4.69l-7.6-1.84c.83,2.38.22,6.16,3.79,6.49l-1.89,1.37,3.81,6.48-1.91-.46-.47,1.85-1.43-1.84h1.9s-2.83-2.33-2.83-2.33l1.88-.91c-.77-.81-1.79-1.96-2.85-2.33-.04.47.14,1,0,1.38l-.94.47c.51,2.73.34,4.68,2.83,6.96l-1.87.9c3.08,3.58,2.65-.6,4.74-1.37l-.48,4.61c3.21-.28,3.36-1.17,2.81-4.51-.35-2.12,1.19-1.4,1.48-1.03l-.85,4.53,2.74,1.49-5.69.47.96,3.7,2.37-1.85,1.42,2.32-2.44-.37-.42,1.75ZM350.43,256.71v-.93c.62.31.62.62,0,.93ZM360.41,271.53h-.93v-1.84h.93v1.84ZM350.43,288.21v-.93c.62.31.62.62,0,.93ZM352.33,287.28v-.93c.62.31.62.62,0,.93ZM351.38,295.62c.62.31.62.62,0,.93v-.93ZM350.43,297.47c.62.31.62.62,0,.93v-.93ZM351.85,303.02h-.93l-.49-2.76,1.43,1.39v1.37ZM352.33,317.85v-.93c.62.31.62.62,0,.93ZM356.14,303.03v-.93c.62.31.62.62,0,.93ZM362.8,271.53c.62.31.62.62,0,.93v-.93ZM360.9,282.65v-.93c.62.31.62.62,0,.93ZM359.93,278.03c.53.59,1.92,1.21.97,1.82-.46-.54-1.91-1.17-.97-1.82ZM357.58,280.8h.93v2.77h-.93v-2.77ZM358.04,293.76v-.93c.62.31.62.62,0,.93ZM359.46,310.43h-.93v-1.84h.93v1.84ZM358.53,307.66l-.03-4.91,2.87-.64-.94,2.77,3.79.92-5.69,1.86ZM363.75,286.35l-1.43-1.84h1.9s-.47,1.84-.47,1.84ZM336.16,408.64c.62.31.62.62,0,.93v-.93ZM336.16,412.34c.62.31.62.62,0,.93v-.93ZM335.21,416.97c.62.31.62.62,0,.93v-.93ZM334.74,428.09c-.97-.96,1.89-3.71,2.84-2.77.97.96-1.89,3.71-2.84,2.77ZM352.33,341.94c.62.31.62.62,0,.93v-.93ZM346.16,343.79h.93v1.37s-1.43,1.39-1.43,1.39l.49-2.76ZM346.63,352.13v-.93c.62.31.62.62,0,.93ZM345.68,356.74c-.46-.54-1.91-1.17-.97-1.82.53.59,1.92,1.21.97,1.82ZM345.19,347.5v.91h-1.41s-1.42-1.39-1.42-1.39l2.83.48ZM342.82,350.27v-.93c.62.31.62.62,0,.93ZM343.78,352.14c.95.61-.44,1.23-.97,1.82l-.45-.44,1.42-1.38ZM342.35,427.63l1.89-1.39v1.85s-1.89-.45-1.89-.45ZM347.1,425.31c-1.38.17-2.43-.87-3.8-.94v-1.83s3.8.94,3.8.94v1.83ZM349,429.01h-.93v-1.84h.93v1.84ZM349.95,350.27h-.93v-1.84h.93v1.84ZM350.91,344.72c3.88-.2,2.19,4.25,2.84,6.48l-2.84-6.48ZM366.6,271.53c.62.31.62.62,0,.93v-.93ZM365.19,277.09l1.89,1.84h-1.9s0-1.84,0-1.84ZM365.65,280.79v-.93c.62.31.62.62,0,.93ZM365.2,306.26l2.83.48v.91h-1.41s-1.42-1.39-1.42-1.39ZM368.02,322.49v1.84h-.93v-1.84h.93ZM361.85,341.01v-.93c.62.31.62.62,0,.93ZM362.33,335.46h1.89v.91h-1.89v-.91ZM364.7,366.02v-.93c.62.31.62.62,0,.93ZM363.28,340.08v-1.85s1.9,1.84,1.9,1.84h-1.9ZM368.98,391.03h-3.8v-.91h3.8v.91ZM368.51,321.56v-.93c.62.31.62.62,0,.93ZM370.87,289.13h-.93c-.13-1.69-.3-4.04,1.88-4.63l-.95,4.63ZM372.31,320.63v-.93c.62.31.62.62,0,.93ZM371.83,275.24c-.26.36-1.38-.84-1.89-.93.19,2.67,1.83,1.45,2.32,3.56.25,1.06.44,4.88-.91,5.69l-1.58-6.37-2.69-.11c.99-1.84.51-3.15,2.86-2.77-.07-1.03.64-2.3.52-3.25-.14-1.14-2.02-1.63-1.46-3.23l3.82,2.39-.99,5.02ZM375.65,265.05h.93v1.84h-.93v-1.84ZM375.17,365.08c-.46-.54-1.91-1.17-.97-1.82.53.59,1.92,1.21.97,1.82ZM374.7,286.35l-.96-3.7h.93c-.11.54.03,1.04.41,1.44.35.38.98.42,1.49.43l.02,1.83h-1.88ZM374.2,274.33c.53.59,1.92,1.21.97,1.82-.46-.54-1.91-1.17-.97-1.82ZM374.21,279.87v-.93c.62.31.62.62,0,.93ZM376.59,273.37h-1.41s-1.42-1.39-1.42-1.39l2.83.48v.91ZM377.07,289.13v-.93c.62.31.62.62,0,.93ZM376.6,278.94v-1.85s1.9,1.84,1.9,1.84h-1.9ZM418.44,423.46v1.37s-1.89,1.4-1.89,1.4v-2.77s1.89,0,1.89,0ZM376.12,48.27v-.93c.62.31.62.62,0,.93ZM376.58,45.47l-3.79,1.87v-5.55s4.75,0,4.75,0l-2.83,1.38,1.87,2.31ZM391.82,43.63c-.12-2.23-.61-5.73,2.84-5.55-.83,1.53.15,6.26-2.84,5.55ZM397.51,51.97h-2.84v-1.84h2.84v1.84ZM399.42,46.41h-4.75c.58-2.1,2.94-1.98,4.75-1.84v1.84ZM364.7,81.62v-.93c.62.31.62.62,0,.93ZM364.7,79.77v-.93c.62.31.62.62,0,.93ZM368.99,78.84v-1.85s1.9,1.84,1.9,1.84h-1.9ZM388.48,88.1c.62.31.62.62,0,.93v-.93ZM380.4,93.67h1.89v.91h-1.89v-.91ZM380.41,95.52c.36-.45,2.52,1.62,1.88,2.78-.36.45-2.52-1.62-1.88-2.78ZM385.14,103.85l-3.79-.93,1.43-2.77c2.22.07,2.66,1.86,2.35,3.7ZM387.54,92.7l-5.24.03,2.86-1.86c-1.84-2.74-2.88-8.22-.48-11.1.74,1.41,3.1,8,2.2,9.11-.43.52-2.13-.47-1.72,1.07,1.32-.62,3.23,2.41,2.38,2.76ZM388.47,93.68c.79.75,2.26,2.54,1.92,3.67-.79-.75-2.26-2.54-1.92-3.67ZM390.38,108.49v-.93c.62.31.62.62,0,.93ZM390.38,80.69v-.93c.62.31.62.62,0,.93ZM390.38,70.5v-.93c.62.31.62.62,0,.93ZM387.53,132.57c.62.31.62.62,0,.93v-.93ZM386.11,137.2l.47-1.84,2.36,2.32-2.83-.48ZM391.8,132.57h-.93v-1.84h.93v1.84ZM393.24,123.31c.62.31.62.62,0,.93v-.93ZM394.19,139.98v-.93c.62.31.62.62,0,.93ZM394.66,129.79h-.93l-.49-2.76,1.43,1.39v1.37ZM396.09,165v-.93c.62.31.62.62,0,.93ZM397.52,167.77v-1.85s1.9,1.84,1.9,1.84h-1.9ZM373.75,164.07h.93v1.84h-.93v-1.84ZM371.84,168.71h1.89v.91h-1.89v-.91ZM368.51,168.7v-.93c.62.31.62.62,0,.93ZM369.46,187.23v-.93c.62.31.62.62,0,.93ZM370.89,189.08v-1.85s1.9,1.84,1.9,1.84h-1.9ZM371.36,226.14v-.93c.62.31.62.62,0,.93ZM372.31,217.8v-.93c.62.31.62.62,0,.93ZM373.74,241.88v-1.85s1.9,1.84,1.9,1.84h-1.9ZM377.54,243.73h-1.89v-.91h1.89v.91ZM377.08,228.9c-.46-.54-1.91-1.17-.97-1.82.53.59,1.92,1.21.97,1.82ZM377.07,226.14v-.93c.62.31.62.62,0,.93ZM378,220.18c-1.34.53-2.79,1.2-4.26,1.32-.78-2.7.82-1.21,1.44-1.45,1.34-.53,2.79-1.2,4.26-1.32.78,2.7-.82,1.21-1.44,1.45ZM374.2,215.97c.53.59,1.92,1.21.97,1.82-.46-.54-1.91-1.17-.97-1.82ZM379.92,422.53v-.93c.62.31.62.62,0,.93ZM381.82,422.53v-.93c.62.31.62.62,0,.93ZM385.63,422.53v-.93c.62.31.62.62,0,.93ZM384.19,395.2l.49,2.3-2.37-2.3,3.79-1.38-1.91,1.38ZM386.58,433.65v-.93c.62.31.62.62,0,.93ZM383.79,391.19c-1.26-.02-2.25,1.23-3.39-.62l10.45-.45c-.61,1.53-5.52,1.09-7.07,1.07ZM385.15,277.1v.91h-1.89v-.91h1.89ZM383.73,244.66v-.93c.62.31.62.62,0,.93ZM383.25,227.06l-.94-5.54,3.78,4.16-2.84,1.38ZM383.24,373.44l-.47,1.84-1.43-1.84h1.9ZM388.97,383.17l1.43-1.39-.49,2.76h-.93v-1.37ZM386.11,362.32l5.7,1.86c-.15,1.82-6.99.39-5.7-1.86ZM386.58,231.7v-.93c.62.31.62.62,0,.93ZM390.86,358.61v2.78s-3.8-.93-3.8-.93v-1.84s3.8,0,3.8,0ZM388.02,231.69v-1.84h.93v1.84h-.93ZM390.38,239.11v-.93c.62.31.62.62,0,.93ZM394.66,379.92l-.47,1.84-1.43-1.84h1.9ZM393.24,244.66v-.93c.62.31.62.62,0,.93ZM393.7,233.55c-.36.45-2.52-1.62-1.88-2.78.36-.45,2.52,1.62,1.88,2.78ZM391.34,236.33v-.93c.62.31.62.62,0,.93ZM393.24,395.67v-.93c.62.31.62.62,0,.93ZM396.56,391.03h-4.75v-.91h4.75v.91ZM394.67,240.95v-1.84h.93v1.84h-.93ZM396.09,230.77v-.93c.62.31.62.62,0,.93ZM396.09,236.33v-.93c.62.31.62.62,0,.93ZM395.62,227.99v-2.77s3.79,1.86,3.79,1.86v.91s-3.79,0-3.79,0ZM397.04,385.48v-.93c.62.31.62.62,0,.93ZM397.99,229.84v-.93c.62.31.62.62,0,.93ZM400.36,434.57h-.93c-.23-1.7-.05-2.71,1.43-3.68l-.49,3.68ZM399.9,424.39v-.93c.62.31.62.62,0,.93ZM400.85,394.74v-.93c.62.31.62.62,0,.93ZM400.85,391.03v-.93c.62.31.62.62,0,.93ZM405.14,433.65v-1.85s1.89,0,1.89,0l-1.89,1.84ZM407.97,429.01h-.93v-1.84h.93v1.84ZM407.51,384.55v-.93c.62.31.62.62,0,.93ZM409.88,240.95h-1.89v-.91h1.89v.91ZM410.85,441.06c.73-1.88-1.92-8.9,1.89-8.33-.92,2.22.35,6.94-1.89,8.33ZM410.85,428.09l1.87,1.38-.94,2.32h-.93s0-3.7,0-3.7ZM409.89,427.16v-1.84s2.37-.93,2.37-.93l.47,1.84-2.84.94ZM409.89,416.97v-1.37s1.43-1.4,1.43-1.4l.47,2.77h-1.89ZM419.38,236.75c-.1,6.79.31,13.65.02,20.43-.05,1.14.72,3.44-.95,3.23v-40.76c1.37-.24,1.26,1.76,1.44,2.75,1.03,5.63-.43,9.22-.51,14.35ZM422.24,216.87l-1.95-3.7-7.56.93c.82,3.6,6.47.39,5.71,3.69l-8.08,1.87c-1.21,0-1.27-8.24,0-9.32l6.17-.88.48-1.86.48,1.86,1.93.46-1.93,3.24,3.85-.5.9,4.21ZM408.94,207.6v-1.84h.93v1.84h-.93ZM411.31,203.9v-.93c.62.31.62.62,0,.93ZM411.31,200.2v-.93c.62.31.62.62,0,.93ZM412.27,204.85c.95.61-.44,1.23-.97,1.82l-.45-.44,1.42-1.38ZM414.16,203c.53.59,1.92,1.21.97,1.82-.46-.54-1.91-1.17-.97-1.82ZM420.34,206.68h-3.8c.51-1.85,2.03-2.08,3.8-1.84v1.84ZM416.55,200.19v-.91h1.89v.91h-1.89ZM420.34,200.19h-.93v-1.84h.93v1.84ZM420.33,192.33c-4.36-1.47-4.65,6.61-9.27,1.89.76-2.92,2.36-5.98-.21-8.39l1.89-.46v2.79s2.85-.94,2.85-.94c-.88,3.8,2.76,2.79,4.74,5.11ZM408.94,161.75l2.84-.45v1.84s-1.41,0-1.41,0l-1.44-1.39ZM409.41,165v-.93c.62.31.62.62,0,.93ZM410.35,130.7l.98-1.83,2.34,1.39-3.32.43ZM413.21,131.65c.62.31.62.62,0,.93v-.93ZM408.02,126.13l-.04,7.37c-1.61.24-2.56-1.04-3.8-1.85.17.37-.11.72-.48.91l-.48-.91-1.9-3.7,3.79,1.85-1.89-3.68,5.21-3.34,7.15,3.31-7.56.05ZM407.03,139.07v.91h-1.89v-.91h1.89ZM405.6,135.35v-.93c.62.31.62.62,0,.93ZM407.03,142.77l-.47,1.84-1.43-1.84h1.9ZM407.97,152.02c-1.61-.52-2.61-4.06-2.84-5.55,2.09.7,2.43,3.67,2.84,5.55ZM403.7,151.1v-.93c.62.31.62.62,0,.93ZM399.43,66.79v-.91h1.89v.91h-1.89ZM400.85,68.65v-.93c.62.31.62.62,0,.93ZM402.27,134.42l-2.84-2.33v-1.37s1.88,0,1.88,0l.96,3.7ZM401.8,112.19v-.93c.62.31.62.62,0,.93ZM402.75,124.23v-.93c.62.31.62.62,0,.93ZM404.65,107.56v-.93c.62.31.62.62,0,.93ZM404.65,67.72v-.93c.62.31.62.62,0,.93ZM405.6,111.26v-.93c.62.31.62.62,0,.93ZM406.56,109.41v-.93c.62.31.62.62,0,.93ZM406.56,87.18v-.93c.62.31.62.62,0,.93ZM407.02,116.83v1.84h-.93v-1.84h.93ZM406.08,62.16v-.91h2.84v.91h-2.84ZM409.89,113.11v-1.84h.93v1.84h-.93ZM414.17,96.44v-.93c.62.31.62.62,0,.93ZM415.12,127.94c.62.31.62.62,0,.93v-.93ZM417.02,135.36l.46,2.77-1.87-1.39,1.41-1.39ZM417.02,95.52v-.93c.62.31.62.62,0,.93ZM420.82,103.85v-.93c.62.31.62.62,0,.93ZM419.4,69.59l-1.89,1.84v-1.85s1.89,0,1.89,0ZM417.02,45.49c.62.31.62.62,0,.93v-.93ZM421.19,90.99l.11,4.52-2.85-1.39,1.89-2.31-5.69,1.85-.95-5.56,7.49,2.88ZM407.04,44.57h2.84v1.84h-2.84v-1.84ZM403.3,54.71l.88-2.31,7.55.56.06,6.43-8.56-1.87,1.9-2.31-1.83-.5ZM405.12,59.39v1.85s-2.84-.94-2.84-.94v-.91s2.84,0,2.84,0ZM403.71,83.45l-3.32-8.8,1.88-.45,1.45,9.25ZM401.8,56.61c.62.31.62.62,0,.93v-.93ZM394.67,58.46l6.2.08.45,2.69-4.75-.91,2.38,3.69c-2.27-1.49-4.83-2.3-4.28-5.55ZM398.95,115.9v-.93c.62.31.62.62,0,.93ZM397.99,87.18v-.93c.62.31.62.62,0,.93ZM397.99,101.07v-.93c.62.31.62.62,0,.93ZM396.58,76.98v-2.77h.93v2.77h-.93ZM397.04,79.77v-.93c.62.31.62.62,0,.93ZM393.71,62.16c-.7,1.97,2.84,6.29-.94,5.57l-.94-5.12,1.88-.45ZM393.7,70.51v2.77h-.93v-2.77h.93ZM392.77,79.77c.69-1.97-2.83-6.29.94-5.57v3.71s1.84-1.46,1.84-1.46l-2.78,3.32ZM394.66,81.62v1.84h-.93v-1.84h.93ZM395.61,89.03c-.36.45-2.52-1.62-1.88-2.78.36-.45,2.52,1.62,1.88,2.78ZM395.62,82.54v-.91h1.89v.91h-1.89ZM397.04,84.4v-.93c.62.31.62.62,0,.93ZM397.04,108.49v-.93c.62.31.62.62,0,.93ZM396.09,127.01c.62.31.62.62,0,.93v-.93ZM399.9,153.88v-.93c.62.31.62.62,0,.93ZM400.37,140.9l-4.75-4.18,2.84-.46-2.85-4.17,1.88-.44,3.75,5.16-.89-.55-1.88,1.39,1.88,3.24ZM400.38,190.01l2.84,2.77c-1.73.31-3.16-1.02-2.84-2.77ZM402.75,181.67v-.93c.62.31.62.62,0,.93ZM406.56,198.35v-.93c.62.31.62.62,0,.93ZM408.46,197.42v-.93c.62.31.62.62,0,.93ZM407.07,177.51c-1.71,1.13-1.29,3.05-2.89,3.23-.98-7.01.62-14.86-2.86-21.29l6.24.86.41,9.33h5.71c.73,3.88-5.35,2.17-5.71,3.25-1,3.01,7.09-.18,5.7,2.76-.91,1.93-4.49.48-6.61,1.88ZM408.46,222.43c.62.31.62.62,0,.93v-.93ZM407.03,215.95l-.48.92-1.93-.89-.43-3.73h.93c-.15,1.17.35,1.86.96,2.77,1.4-2.8,3.19.79.95.93ZM407.97,218.73v1.84h-.93v-1.84h.93ZM405.12,217.81v.91h-2.84v-.91h2.84ZM405.6,207.61v-.93c.62.31.62.62,0,.93ZM405.61,202.06l.47,1.84h-1.9s1.43-1.84,1.43-1.84ZM404.17,209.47v1.37s-1.43,1.39-1.43,1.39l-.47-2.75h1.9ZM402.76,221.29l.47-1.63c1.54-.39.62,1.14,1.13,1.51.34.24,1.56-.33,1.63-.16.07.16-.75,1.61.26,3.49,1.06,1.98,3.51,3.59,4.56,5.81l-3.31-2.32-.61,1.66-1.75-.74.93,3.71-1.91-2.77h-1.88c-.19.13,2.43,4.48-.51,1.85l-1.39-5.11,4.75,1.39-.26-3.26c-2.23,1.04-5.5-5.38-2.11-3.43ZM400.85,219.65v-.93c.62.31.62.62,0,.93ZM400.84,203.92c.53.59,1.92,1.21.97,1.82-.46-.54-1.91-1.17-.97-1.82ZM399.9,210.39c.62.31.62.62,0,.93v-.93ZM399.43,213.17c.36-.45,2.52,1.62,1.88,2.78-.36.45-2.52-1.62-1.88-2.78ZM399.43,225.21l-.96-2.77c2.65-.1,3.82,1.82.96,2.77ZM395.62,206.69h2.84v.91h-2.84v-.91ZM395.63,215.95c.46-.96,2.27,2.5,1.88,3.7-1.83-.45-2.14-2.05-1.88-3.7ZM395.15,215c-.46-.54-1.91-1.17-.97-1.82.53.59,1.92,1.21.97,1.82ZM391.81,206.68c.63,0,2.76-2.23,2.84,1.85-.12.15-1.49-.65-1.89-.93.57,1.29.49,3.08,1.89,4.18l-1.89.45-2.84-6.03c.57-.93,1.27.48,1.88.47ZM393.24,217.8v-.93c.62.31.62.62,0,.93ZM389.92,213.17c.36-.45,2.52,1.62,1.88,2.78-.36.45-2.52-1.62-1.88-2.78ZM388.01,209.47c1.73-.31,3.16,1.02,2.84,2.77l-2.84-2.77ZM382.78,202.98l2.36,3.7,3.81-2.77c1,4.07-2.55,2.86-5.07,3.69-.84-.9-3.6-3.71-1.1-4.61ZM385.15,208.54v1.85s-2.83-.45-2.83-.45l1.42-1.39h1.41ZM385.64,218.71l-2.38-4.61,1.66.48,1.17-2.33c-.45,1.92,2.49,2.58,2.68,2.92.14.24-.43,3.1.2,5.41.83.24,1.68,1.27,2.38,1.83l.94-3.67,2.4,3.21c-2.71-.21-2.73,2.19-2.9,2.3-.19.13-2.73-1.67-2.82-1.83l-.96,1.84c2.86.37,5.82,2.28,6.68,5.1l-3.35-3.23v2.76s-1.92,0-1.92,0c.16-3.53-5.97-4.57-3.32-9.24-2.02.87-3.3,1.54-4.75-.47l1.9-.92c-1.09-3.03-6.66-1.95-6.66-2.79-.77-2.04,4.28-.76,4.49-.67,1.88.86,3.06,2.6,4.56,3.9ZM393.24,225.21v-.93c.62.31.62.62,0,.93ZM379.92,212.24v-.93c.62.31.62.62,0,.93ZM379.2,205.07c.4.38,2.28,3.65.26,3.46l-1.91-2.77c.7,4.33-3.81-1.01-2.86-1.85,1.39-.07,3.51.2,4.51,1.16ZM375.65,191.87h.93v1.84h-.93v-1.84ZM377.53,197.42c-.36.45-2.52-1.62-1.88-2.78.36-.45,2.52,1.62,1.88,2.78ZM374.7,188.16h.93v1.84h-.93v-1.84ZM374.21,186.3c.62.31.62.62,0,.93v-.93ZM374.68,194.65c-.25,1.07-.88,3.84.2,4.48.65.39,1.84.08,2.66.16l-1.9.93,1.9,2.76c-.91.84-3.47-2.1-3.76-2.55-2.07-3.24-2.41-3.63.9-5.77ZM370.88,202.06c1.19-.62,3.32,1.48,2.85,1.83-1.19.62-3.32-1.48-2.85-1.83ZM368.97,209.46h-.93v-1.84h.93v1.84ZM369.46,216.87v-.93c.62.31.62.62,0,.93ZM369.46,198.35c.62.31.62.62,0,.93v-.93ZM369.92,201.6v1.37s-1.88,0-1.88,0l-.96-3.7,2.84,2.33ZM366.6,204.83c.62.31.62.62,0,.93v-.93ZM365.65,227.99v-.93c.62.31.62.62,0,.93ZM365.65,219.65v-.93c.62.31.62.62,0,.93ZM364.23,191.87h.93v1.84h-.93v-1.84ZM364.7,204.83v-.93c.62.31.62.62,0,.93ZM364.23,215.95h1.89v1.84h-1.89v-1.84ZM363.75,209.46c.62.31.62.62,0,.93v-.93ZM362.8,188.16c.62.31.62.62,0,.93v-.93ZM362.33,192.79h.93v1.84h-.93v-1.84ZM361.85,196.49c.62.31.62.62,0,.93v-.93ZM359.48,199.73v-2.31c.08-.11,2.28.9,2.56,1.2.82.89,1.27,2.22,1.22,3.43-1.53.32-.46-.91-1.41-1.61-.1-.07-1.88.66-2.37-.71ZM361.38,205.75v-1.85s1.9,1.84,1.9,1.84h-1.9ZM364.22,223.36l-.47,1.84-1.43-1.84h1.9Z"/>
    <path d="M387.06,220.59l1.9,1.84c-.19-.36.15-1.3,0-1.85-.48-.14-1.3.06-1.9,0Z"/>
    <rect x="407.99" y="56.62" width="1.89" height=".91"/>
    <path d="M392.76,207.61c-.18-.4.07-1.05-.95-.93-.15,1.05.77.8.95.93Z"/>
    <path d="M407.03,215.95l-.95-.93c.14.21-.2,1,.95.93Z"/>
    <path d="M414.17,192.79v.93c.62-.31.62-.62,0-.93Z"/>
    <path d="M414.17,190.01v.93c.62-.31.62-.62,0-.93Z"/>
    <polygon points="417.49 209.46 416.54 209.46 417.02 210.37 417.49 209.46"/>
    <polygon points="371.84 110.34 373.73 108.93 373.73 107.56 370.88 107.57 371.84 110.34"/>
    <path d="M383.73,55.68v.93c.62-.31.62-.62,0-.93Z"/>
    <path d="M378.98,54.77l-1.42,1.38.45.44c.53-.59,1.92-1.21.97-1.82Z"/>
    <path d="M373.26,13.99v.93c.62-.31.62-.62,0-.93Z"/>
    <path d="M365.65,68.65v.93c.62-.31.62-.62,0-.93Z"/>
    <rect x="376.6" y="152.96" width="1.89" height="1.84"/>
    <polygon points="379.45 118.68 381.35 116.83 379.45 116.83 379.45 118.68"/>
    <path d="M372.32,139.96c.95-.61-.44-1.23-.97-1.82-.94.64.51,1.27.97,1.82Z"/>
    <rect x="378.5" y="137.21" width="1.89" height=".91"/>
    <path d="M379.92,141.84c.62-.31.62-.62,0-.93v.93Z"/>
    <path d="M373.74,148.34l-.02-2.79c-3.52,2.62,1.69,3.39,2.8,4.23,1.03.79.53,2.48,1.95,2.24l.94-3.26c-1.48-1.16-5.51-.19-5.68-.43Z"/>
    <path d="M372.31,115.9v.93c.62-.31.62-.62,0-.93Z"/>
    <path d="M372.31,126.09c.62-.31.62-.62,0-.93v.93Z"/>
    <path d="M371.36,127.94v.93c.62-.31.62-.62,0-.93Z"/>
    <rect x="371.84" y="119.61" width=".93" height="1.84"/>
    <path d="M383.23,123.77l-.93.46c.53.54.76,1.9,1.89,1.85.96-2.97.75-3.06-1.89-4.63v1.85s.93-.11.93.46Z"/>
    <polygon points="374.22 105.7 374.69 103.85 372.78 103.86 374.22 105.7"/>
    <path d="M375.16,99.22v.93c.62-.31.62-.62,0-.93Z"/>
    <path d="M374.69,103.85l1.89.93c.84-3.5-2.18-4.32-1.89-.93Z"/>
    <path d="M388.96,120.55l-3.79-2.79c-2.26,3.95,1.33,6.85,3.79,2.79Z"/>
    <path d="M372.31,105.71v.93c.62-.31.62-.62,0-.93Z"/>
    <path d="M381.35,123.31c.16.3.66.63.95.93v-.93c-.12-.14-.88.14-.95,0Z"/>
    <path d="M380.4,120.53c-.67,1.87.69,2.31.95,2.77l.95-1.85c-.29-.17-.1-1.43-1.9-.92Z"/>
    <path d="M381.82,118.68v.93c.62-.31.62-.62,0-.93Z"/>
    <rect x="371.84" y="129.8" width="1.89" height=".91"/>
    <path d="M374.21,132.57c.62-.31.62-.62,0-.93v.93Z"/>
    <polygon points="373.75 128.39 375.17 129.77 374.68 127.02 373.75 127.02 373.75 128.39"/>
    <path d="M375.16,122.38v.93c.62-.31.62-.62,0-.93Z"/>
    <path d="M374.69,107.54c4.58.02,1.61,5.93,4.75,7.42-.47-3.07-.81-12.58-4.75-7.42Z"/>
    <path d="M385.63,147.39v.93c.62-.31.62-.62,0-.93Z"/>
    <polygon points="387.52 151.09 388.96 149.26 385.16 149.71 387.52 151.09"/>
    <polygon points="382.77 148.3 384.2 146.48 381.35 146.93 382.77 148.3"/>
    <path d="M384.68,144.61v.93c.62-.31.62-.62,0-.93Z"/>
    <path d="M381.82,135.35v.93c.62-.31.62-.62,0-.93Z"/>
    <path d="M376.12,143.69c.62-.31.62-.62,0-.93v.93Z"/>
    <path d="M375.63,111.27h-.93c-.1.9.11,1.88,0,2.77l.95.93c-.01-.24,1.28-2.3-.01-3.7Z"/>
    <rect x="374.7" y="139.06" width=".93" height="1.84"/>
    <path d="M374.69,114.97c0-.06-.01-.16-.02-.32-.02.14-.03.27.02.32Z"/>
    <path d="M374.69,114.04c-.04.27-.03.46-.02.6.02-.19.07-.43.02-.6Z"/>
    <path d="M374.2,117.73l2.39-.92c.19-.14-.94-1.48-.96-1.84-.31-.07-.83.12-.95,0-.09,1-1,2.04-.49,2.76Z"/>
    <rect x="376.6" y="126.09" width=".93" height="1.84"/>
    <path d="M376.45,120.67l2.04,2.64-1.42-5.55-.66,1.69-2.64-.31c1.65,1.53-.06,2.95,2.69,1.54Z"/>
    <path d="M368.98,62.16c-.56-.43,5.34-8.79.01-8.33l-3.82,12.49c1.04,1.99,3.15.31,4.76-.45-.2-1.64,1.63-2.66,1.9-3.71-.92.11-1.92-.06-2.85,0Z"/>
    <path d="M373.75,84.4c-.05.61.04,1.24,0,1.86h1.9v-.93c-.34.02-1.2-.99-1.89-.93Z"/>
    <path d="M377.54,82.55c.1.59-.12,1.31,0,1.85l.95-1.39c-.09-.36-.86-.32-.95-.46Z"/>
    <path d="M391.81,112.19c.1,1.11.07,1.15.95,1.85-.26-.54.36-1.5-.95-1.85Z"/>
    <path d="M388.01,200.2c.24.58-.51,1.92.95,1.85.51-1.65-.92-1.73-.95-1.85Z"/>
    <path d="M383.24,194.18l1.91.46v-.93c-.48.29-1.93-.52-1.91.46Z"/>
    <path d="M350.91,261.34c-.64.63,4.19,7.98,6.65,6.48l-2.85-.92c-.09-2.21-.79-5.74-3.81-5.56Z"/>
    <path d="M384.67,167.79c1.39,2.29.53,2.81.49,4.61,3.78.83,1.38-3.71-.49-4.61Z"/>
    <path d="M352.81,202.98c.09-1.03-.63-2.53-.47-3.69l-2.38,1.82c2.23-.15,1.71.45,1.9,1.87.33.02.73-.08.95,0Z"/>
    <path d="M371.84,92.29v1.38c5.75.32,4.56-5.55,0-1.38Z"/>
    <rect x="378.5" y="181.68" width="1.89" height="1.84"/>
    <path d="M383.25,176.11c.15,0,.85,1.05,1.39.93l.51-.93c-.59-.11-1.44.16-1.9,0Z"/>
    <path d="M395.61,202.98c.21-3.37-3.47-2.9-5.69-2.77.52,1.91,4.21,1.58,5.69,2.77Z"/>
    <path d="M382.77,188.17l-.48.91c.31.05.64-.04.95,0-.07-.32.09-.91-.48-.91Z"/>
    <path d="M342.34,275.24l1.43,1.84.47-1.85c-.2.17-1.36-.14-1.9,0Z"/>
    <path d="M387.05,196.49c-.59,1.77.49,2.57.95,3.71-.13-.5.06-1.26,0-1.85l2.83.47c-.81-.58-.67-1.53-.93-2.33-.61-.02-1.73.91-2.85,0Z"/>
    <path d="M388.46,191.87c-2.33-.67-2.73,1.51-3.31,1.85l.93.46c-.03.6-.92.41-.93.46-.82,5.29-2.58.8-2.85,4.63,2.74.59,3.12-1.23,4.75-2.77.43-.41.72-1.59,1.43-1.84h1.42c-.22-.21-.19-2.42-1.45-2.78ZM387.53,193.71v-.93c.62.31.62.62,0,.93Z"/>
    <path d="M395.14,191.85l-1.42.02.48-2.76c-2.53,1.06-2.27,1.94-3.32,4.17l3.77,1.37.48-2.79Z"/>
    <path d="M400.37,198.35c.28.1.67-.1.95,0-.25-.35-.67-.6-.95-.93.04.32-.07.66,0,.93Z"/>
    <path d="M368.03,83.48l2.86.92v1.85s-2.86,1.84-2.86,1.84l5.7,1.86c.09-1.22-.1-2.48,0-3.7l-1.01-2.69-4.69-.08Z"/>
    <polygon points="346.63 279.85 347.1 278.94 346.15 278.94 346.63 279.85"/>
    <path d="M351.86,202.98c-.63-.03-1.27,0-1.9,0l1.9,1.84c-.11-.57.08-1.26,0-1.85Z"/>
    <path d="M368.03,265.97v-1.85c-.21.14-.88-.15-.95,0v1.85h.95Z"/>
    <path d="M349.96,307.66c.47-.81-1.56-.85-.95,0,.03.04.93.04.95,0Z"/>
    <polygon points="352.8 171.48 350.91 171.49 352.34 173.33 352.8 171.48"/>
    <path d="M351.38,95.52v.93c.62-.31.62-.62,0-.93Z"/>
    <polygon points="346.17 213.62 348.53 215.94 349 214.1 346.17 213.62"/>
    <path d="M337.11,240.96c.62-.31.62-.62,0-.93v.93Z"/>
    <polygon points="336.64 226.15 338.07 227.99 338.54 226.14 336.64 226.15"/>
    <path d="M339.97,227.99v.93c.62-.31.62-.62,0-.93Z"/>
    <path d="M339.97,240.03v.93c.62-.31.62-.62,0-.93Z"/>
    <polygon points="338.54 228.93 335.71 228.44 337.13 229.83 338.54 229.83 338.54 228.93"/>
    <rect x="348.06" y="248.38" width=".93" height="1.84"/>
    <path d="M348.04,233.55l-.95,1.85-2.84-1.85c-1.6,1.55,5.36,5.35,3.79,0Z"/>
    <path d="M334.26,280.79c.62-.31.62-.62,0-.93v.93Z"/>
    <polygon points="251.03 538.32 252.92 538.33 252.46 536.48 251.03 538.32"/>
  </g>
</svg>