<?xml version="1.0" encoding="UTF-8"?>
<svg id="Layer_1" xmlns="http://www.w3.org/2000/svg" version="1.1" viewBox="0 0 1920 1080">
  <!-- Generator: Adobe Illustrator 29.5.1, SVG Export Plug-In . SVG Version: 2.1.0 Build 141)  -->
  <rect x="1831.59" y="7.61" width="1.48" height="3.47"/>
  <text/>
  <g>
    <path d="M1143.09-16.01v1.72c1.02-.57,1.02-1.15,0-1.72Z"/>
    <path d="M846.37-4.95c0,7.87,2.85,18.16,1.38,26.81l6.97.02c3.72-.58-1.64-17.6-1.88-20.24-.31-3.57-.47-15.65,2.9-15.16l-3.26-9.38h-4.73c-.84,4.29.93,9.06.79,12.94-.05,1.31-2.18,2.98-2.18,5.01Z"/>
    <path d="M1018.66,829.04v1.72c1.02-.57,1.02-1.15,0-1.72Z"/>
    <path d="M980.85,866.9v1.72c1.02-.57,1.02-1.15,0-1.72Z"/>
    <path d="M1015.51,830.76v1.72c1.02-.57,1.02-1.15,0-1.72Z"/>
    <path d="M1007.63,834.2v1.72c1.02-.57,1.02-1.15,0-1.72Z"/>
    <path d="M987.15,863.46v1.72c1.02-.57,1.02-1.15,0-1.72Z"/>
    <rect x="839.9" y="311" width="1.54" height="6.87"/>
    <rect x="992.68" y="820.44" width="1.54" height="3.42"/>
    <rect x="924.94" y="813.57" width="3.13" height="1.69"/>
    <polygon points="924.94 829.03 928.08 829.03 928.08 820.45 924.94 820.44 924.94 829.03"/>
    <path d="M1021.03,829.02c2.57-.7,8.58-2.03,9.43-5.13-2.57.7-8.58,2.03-9.43,5.13Z"/>
    <path d="M963.53,810.11v1.72c1.02-.57,1.02-1.15,0-1.72Z"/>
    <path d="M944.63,810.11v1.72c1.02-.57,1.02-1.15,0-1.72Z"/>
    <path d="M943.05,806.67v1.72c1.02-.57,1.02-1.15,0-1.72Z"/>
    <rect x="939.13" y="386.73" width="1.54" height="3.42"/>
    <path d="M946.99,374.69l-6.29-1.74.78,12.04c-.73-10.42,5.4-3.75,5.51-10.3Z"/>
    <path d="M1044.92,1052.52c-1.07,0-1.07,1.88,0,1.88s1.07-1.88,0-1.88Z"/>
    <path d="M1032.83,822.16v1.72c1.02-.57,1.02-1.15,0-1.72Z"/>
    <polygon points="948.55 412.55 945.41 412.55 947.78 415.97 948.55 412.55"/>
    <path d="M855.62,33.91v-6.91s-7.17,1.7-7.17,1.7l.88,6.91-14.16,1.72-1.58-60.23h-1.58l-.16,61.79c-97.48,24.43-97.2,152.07-93.66,239.51l94.28,5.03,5.86,25.83c2.8.43,1.49-3.8,1.18-5.57-1.31-7.51-3.53-11.93-1.18-20.24l4.62.07c-.57,2.1,1.67,5.03,1.67,5.96v40.45h1.58v-43.89c0-5.32,21.24,1.14,25.21-.87v-6.88c-.28-.38-7.89,2.76-7.87-1.71l4.45,1.33,3-3.95c1.08-18.99-.38-39.6,2.01-58.47,1.22-9.62,5.43-19.05,6.29-27.55,1.89-18.69-2.52-38.77,3.16-57.66l3.13,12.9v40.45c6.2-4.62,13.8-4.73,20.35-.72,27.53,16.85,14.34,99.08,17.36,128.85-1.66,11.53-13.6,11.62-18.18,20.67,3.48,5.67-.26,13.24.13,16.55.61,5.18,4.78,5.5,5.55,9.33-.48,2.76-9.99-6.32-4.71,6.03l3.11-3.42-3.92,10.28-2.36-3.39,3.14-1.72-4.73-.02c-.78-4.49.85-2.62,3.18-4.26-4.87-2.48-.71-27.33-1.6-28.43l-20.54,13.19c1.46,13.85-1.52,29.39-.79,42.81.15,2.68,2.1,3.87,2.43,5.12.36,1.37-2.36.38-2.83,1.63-2.55,6.79-.02,67.73-.24,81.04-.05,2.98-.77,5.74-1.67,8.5,1.12,2.31,1.93,1.34,3.31-.22,7.17-8.12,12.97-22.2,23.3-27.49l.2-29.92c2.03-2.94,2.84.22,3.12,2.55.87,7.21,1.48,16.3.02,23.25l14.16-6.86c-2.08,54.08,2.78,110.62.07,164.43-.71,14.17-4.3,28.01-5.82,41.5-.2,1.8,1.52,4.98,1.02,5.77l-3.11-1.73-1.62,7.73,4.73-2.56,4.74,139.41h40.95l-3.14,4.29,6.29,3.44c-2.47,4.48-6.21,4.91-4.73,11.19l-2.34-3.43-5.49,9.48,10.98-6.04-3.27,10.27-14.03,1.77c-.5-7.21,1.61-15.88,9.44-13.78.27-3.19-3.82-1.08-5.62-3.31-.93-1.16,2.22-8.83-1.48-10.43-7.63,1.3,1.29,9.62-5.33,11.06,3.51,7.56,1.2,12-6.43,12.19l4.54-13.52-4.45-2.76-.12-1.79-4.22,2.49c1.98,5.38.61,12.22,1.44,17.33.14.88,4.16.35,1.18,4.25l4.57.12.19,8.49c4.14,1.51,4.14-4.7,4.76-5.14,1.21-.87,7.36,5.48,10.98,1.71-.6,5.59,2.01,13.02-2.35,17.17l-3.95-10.29c-5.81-1.87-1.99,7.44-3.12,8.62h-6.33c-2.79,12.63,12.98,17.92,20.52,12.93,2.24-1.48,2.66-7.95,5.44-11.26,4.56-5.43,15.32-6.91,20.59-12.02l.45-18.63-5.09-2.12-3.34,5.27c-6.12.22,1.29-10.33,3.35-11.83,3.14-2.3,7.76-3.86,6.93,1.5h1.54c-.02-3.19.64-7.58,4.74-6.87v52.49c0,1.05,3.25,3.31,4.72,2.57,1.4-14.82-3.28-32.29,3.17-45.58l-3.15.86v-20.67s34.64,0,34.64,0c1.57,17.98-2.78,44.14,0,61.1.7,4.25,2.51,4.79,6.29,4.3-.35-14.6.48-29.34.07-43.95-.25-8.99-6.56-19.83,4.77-22.49l1.47-239.91h-96.08c-.22,25.09.93,49.86,0,74.88-.08,2.11,1.2,6.39-1.57,6.01v-44.75l-6.27,2.6c2.59-4.35,6.08-5.22,4.68-11.22l-3.16-.84,3.19-4.3-4.73-.86,6.39-3.65-1.66-40.26h-6.31c.28-3.71,5.18-2.59,6.02-3.73,1.7-2.29.14-14.07,1.88-17.74l-4.75-.92c8.32-15.3,3.33-35.33,4.88-52.61l-3.29-3.29c5.29-6.83,6.14-23.56-4.13-24.91l.97-5.21-7.86,5.15c1.59-11-1.58-23.29-1.65-33.53-.06-9.19,8.21,5.79,11.08,2.54.96-6.31-5.05-7.19-7.2-10.13-5.19-7.11-1.45-15.09-2.35-23.29l10.84-8.7-6-7.75,7.86-2.61-9.43-2.59,7.86-4.29-6.31-.86v-5.15s7.89,0,7.89,0v-37c0-.24-2.24-1.65-2.63-3.72-.43-2.32,1.01-6.2-.54-9.19l-3.14.86c-1.96-7.52,5.18-.74,6.3-6l-5.66-1.65c.29-5.34,1.01-12.57-.68-17.7-.88-2.66-11.18-5.34-3.95-11.21l6.19,1.21,2.27-2.67-1.33-20.34,3.16-1.87-6.29-.88,4.74-4.29-4.73-1.71,7.86-5.16c-4.58-6.5-8.67,4.07-14.17,2.57v-39.58l4.87,1.01,1.45,7.59,3.95-5.18,5.45,2.63c-2.13-9.12-1.39-20.46-.81-30.11.14-2.24-1.21-4.27,2.4-5.2l-1.57,406.18h96.1s.06-312.46.06-312.46c-3.31-55.32,1.41-117.39-33.91-162.59-39.27-50.25-103.71-53.71-159.9-48.16ZM771.36,107.91v-1.72c1.02.57,1.02,1.15,0,1.72ZM828.07,157.82c1.02.57,1.02,1.15,0,1.72v-1.72ZM817.04,130.28c1.02.57,1.02,1.15,0,1.72v-1.72ZM809.94,181.9h-3.13v-3.42h3.13v3.42ZM818.62,157.83l.77,3.42h-3.14s2.37-3.42,2.37-3.42ZM816.29,153.51l2.34-2.57.76,5.15-3.1-2.58ZM819.4,168.13h-3.13v-1.69h3.13v1.69ZM819.4,147.47h-3.13v-1.69h3.13v1.69ZM826.49,264.52v-1.72c1.02.57,1.02,1.15,0,1.72ZM829.64,247.31v-1.72c1.02.57,1.02,1.15,0,1.72ZM824.14,186.21l6.28-.84v3.42c-2.9.42-4.59.07-6.28-2.58ZM835.94,199.12v-1.72c1.02.57,1.02,1.15,0,1.72ZM837.52,281.74v-1.72c1.02.57,1.02,1.15,0,1.72ZM837.52,261.08v-1.72c1.02.57,1.02,1.15,0,1.72ZM842.24,211.17v-1.72c1.02.57,1.02,1.15,0,1.72ZM842.24,195.68v-1.72c1.02.57,1.02,1.15,0,1.72ZM868.22,235.27c.23,3.28.43,7.55-3.13,8.6v-8.6s3.13,0,3.13,0ZM865.09,266.25l-1.58-13.76h6.29c-3.49,3.86,1.44,14.98-4.72,13.76ZM890.29,175.02c.03-6.31,4.68-6.31,4.71,0h-4.71ZM903.67,156.1v-1.72c1.02.57,1.02,1.15,0,1.72ZM883.97,405.64h-1.54v-5.15h1.54v5.15ZM918.65,393.61h1.54v5.15h-1.54v-5.15ZM896.6,345.42h1.54v3.42h-1.54v-3.42ZM888.71,348.87l-2.39,3.41h-2.33s0-3.42,0-3.42h4.72ZM887.75,357.23c3.53-1.06,8.28-1.11,11.98-1.47-2.67,5.22-11.07,3.49-15.74,5.14-.78-5.01,1.09-2.86,3.76-3.67ZM898.15,364.36v3.42h-3.13v-3.42h3.13ZM891.07,369.51v-1.72c1.02.57,1.02,1.15,0,1.72ZM888.7,366.08v3.42h-3.13v-3.42h3.13ZM886.35,388.43l-2.37-3.42h3.14s-.77,3.42-.77,3.42ZM887.93,376.4c-5.8,7.79-4.9-8.97.77-3.44.41.4.05,2.34-.77,3.44ZM890.29,372.96c6.04.11,1.6,8.31,7.09-1.73l.79,3.43,4.7-3.44c3.03,3.5-13.29,12.31-12.58,1.73ZM904.46,421.13c-.7-.63,1.4-15.86.78-19.77-.35-2.21-3.13-3.08-2.35-6.02l4.71-.02c-.32,5.99,1.76,15.67.95,21.21-.25,1.73-1.2,7.22-4.09,4.59ZM909.18,426.3h-3.13v-3.42h3.13v3.42ZM910.75,381.55h-6.29s3.94-6.84,3.94-6.84c2.44,1.82,2.73,3.69,2.35,6.84ZM914.71,366.06l-2.37-3.42h3.14s-.77,3.42-.77,3.42ZM916.27,348.86v-1.72c1.02.57,1.02,1.15,0,1.72ZM920.2,436.62h-1.54v-5.15h1.54v5.15ZM919.42,429.75v-1.72c1.02.57,1.02,1.15,0,1.72ZM917.07,424.58v-2.55s2.36-2.6,2.36-2.6l.77,5.15h-3.13ZM917.06,409.11h3.14s-.77,3.42-.77,3.42l-2.37-3.42ZM920.2,415.96h-3.13v-1.69h3.13v1.69ZM918.65,407.37l.76-6.88,2.36,4.27-3.13,2.61ZM922.57,376.39v-1.72c1.02.57,1.02,1.15,0,1.72ZM948.57,860.04c3.9-1.06,8.54-4.02,9.44,2.54-2.7,4.57-9.95,3.43-9.44-2.54ZM1039.9,792.89h-1.54v-6.87h1.54v6.87ZM1039.9,780.84h-1.54v-10.31h1.54v10.31ZM1041.49,672.41c-.42,17.47.56,35.09.07,52.57-.1,3.67-1.49,6.94-1.62,10.27-.31,7.44.27,14.94-.02,22.37-.08,2.1,1.19,6.4-1.56,6l-1.58-91.22h4.71ZM968.77,851.98l-4.45,2.87-1.21-12.97,5.92-2.5-.26,12.6ZM975.35,847.96c-.18-2.38-.02-4.67.71-6.95,4.35-13.5,14.11,5.48-.71,6.95ZM1000.54,792.04c0,.3-2.13,2.71-3.15,2.58v-36.14h3.15v33.56ZM998.18,756.75v-1.72c1.02.57,1.02,1.15,0,1.72ZM995.81,674.97c.28-2.4.82-4.94,3.13-2.54l.8,80.89c-3.65,1.15-2.26-3.7-2.35-6.02-.77-21.59-3.98-51.66-1.58-72.33ZM969.04,801.5h28.35c-1.74,10.2-20.58,6.01-23.31,16.7-1.91,7.5,2.77,11.93-8.18,14.28-1.08-1.3,5.31-9.76,5.56-13.6.21-3.21-3.55-12.49-2.43-17.38ZM960.38,608.74c1.02.57,1.02,1.15,0,1.72v-1.72ZM956.45,608.75h1.54v3.42h-1.54v-3.42ZM947.78,682.75v-1.72c1.02.57,1.02,1.15,0,1.72ZM947.78,677.58v-1.72c1.02.57,1.02,1.15,0,1.72ZM952.5,751.59v-1.72c1.02.57,1.02,1.15,0,1.72ZM952.5,742.99v-1.72c1.02.57,1.02,1.15,0,1.72ZM952.5,717.17v-1.72c1.02.57,1.02,1.15,0,1.72ZM952.5,712.01v-1.72c1.02.57,1.02,1.15,0,1.72ZM952.5,708.56v-1.72c1.02.57,1.02,1.15,0,1.72ZM952.5,701.68v-1.72c1.02.57,1.02,1.15,0,1.72ZM953.27,698.23h-1.54v-5.15h1.54v5.15ZM953.27,691.34h-1.54v-5.15h1.54v5.15ZM951.71,643.16h1.58v41.31h-1.58v-41.31ZM947,670.71h3.13v3.42h-3.13v-3.42ZM946.2,739.54c1.02.57,1.02,1.15,0,1.72v-1.72ZM945.42,545.08h3.13v1.69h-3.13v-1.69ZM938.32,457.29v-1.72c1.02.57,1.02,1.15,0,1.72ZM939.9,634.56c1.02.57,1.02,1.15,0,1.72v-1.72ZM938.32,440.07c1.02.57,1.02,1.15,0,1.72v-1.72ZM937.55,446.97h1.54v3.42h-1.54v-3.42ZM942.28,230.11h1.54v3.42h-1.54v-3.42ZM939.9,226.66c1.02.57,1.02,1.15,0,1.72v-1.72ZM937.55,237h1.54v3.42h-1.54v-3.42ZM937.52,109.63l1.59,5.14c-2.55,2.14-8.51-6.5-1.59-5.14ZM917.85,123.4v-1.72c1.02.57,1.02,1.15,0,1.72ZM920.2,157.81h-1.54v-3.42h1.54v3.42ZM924.15,183.63v-1.72c1.02.57,1.02,1.15,0,1.72ZM920.21,149.19l2.39-3.41h2.33s0,3.42,0,3.42h-4.72ZM923.36,125.1l1.59-6.86h1.54s0,6.87,0,6.87h-3.14ZM926.52,298.96h3.13v1.69h-3.13v-1.69ZM928.87,450.4v-1.72c1.02.57,1.02,1.15,0,1.72ZM928.87,555.39v-1.72c1.02.57,1.02,1.15,0,1.72ZM928.07,742.98h-1.54v-3.42h1.54v3.42ZM928.87,737.82v-1.72c1.02.57,1.02,1.15,0,1.72ZM929.64,734.37c-.2.24-1.03-.08-1.54,0,.41-2.61.84-7.34,3.12-6.86.24.58-1.36,6.6-1.58,6.86ZM930.45,173.31v-1.72c1.02.57,1.02,1.15,0,1.72ZM938.32,348.86v-1.72c1.02.57,1.02,1.15,0,1.72ZM939.13,298.95v-3.43s3.13,0,3.13,0l-3.13,3.42ZM938.32,276.57c1.02.57,1.02,1.15,0,1.72v-1.72ZM938.32,280.01c1.02.57,1.02,1.15,0,1.72v-1.72ZM937.55,283.46h3.13v5.15h-3.13v-5.15ZM936.75,355.74v-1.72c1.02.57,1.02,1.15,0,1.72ZM935.87,161.16l-6.21.08c8.68-13.08,2.22-17.67-3.14-29.23,2.43.45,2.31,3.65,4.79,5.93,1.63,1.5,5.53,4.84,7.63,4.11.47-.16.5-6.64,3.29-.59-5.01,4.95-5.7,12.75-6.37,19.69ZM942.25,168.13h-1.54v-3.42h1.54v3.42ZM943.82,110.46l-3.12,2.61v-5.15s3.13,0,3.13,0v2.55ZM961.95,267.97c1.02.57,1.02,1.15,0,1.72v-1.72ZM954.08,59.72c1.02.57,1.02,1.15,0,1.72v-1.72ZM954.08,75.21c1.02.57,1.02,1.15,0,1.72v-1.72ZM953.3,107.91h1.54v3.42h-1.54v-3.42ZM954.08,140.61v-1.72c1.02.57,1.02,1.15,0,1.72ZM948.55,157.81h-3.13v-3.42h3.13v3.42ZM951.74,146.63l2.34-2.57.76,5.15-3.1-2.58ZM957.23,479.66v-1.72c1.02.57,1.02,1.15,0,1.72ZM960.38,309.27v-1.72c1.02.57,1.02,1.15,0,1.72ZM962.73,295.49h-3.13v-1.69h3.13v1.69ZM962.73,288.6h-3.13v-1.69h3.13v1.69ZM963.53,92.42v-1.72c1.02.57,1.02,1.15,0,1.72ZM987.93,201.71c-9.27,1.03-7.3-11.7,1.58-12.9-3.32,4.95-7.74,7.48-1.58,12.9ZM992.67,202.55v-1.68s3.95-1.69,3.95-1.69l2.35,3.38h-6.29ZM1011.56,200.84h-7.87c.96-3.89,4.87-3.67,7.87-3.42v3.42ZM995.82,175.01c4.25-5.95,12.52-10.62,18.9-13.73l-18.9,13.73ZM1037.56,188.83l2.36,3.39-4.72-.83,2.35-2.56ZM1032.04,192.26c1.63.83-4.24,4.11-6.29,3.41.77-3.31,3.48-3.88,6.29-3.41ZM1028.12,152.69c1.48,1.93-3.93,4.83-5.5,4.28l5.5-4.28ZM1020.23,195.68c1.02.57,1.02,1.15,0,1.72v-1.72Z"/>
    <rect x="940.7" y="195.69" width="1.54" height="3.42"/>
    <path d="M946.2,428.03c1.02-.57,1.02-1.15,0-1.72v1.72Z"/>
    <path d="M952.5,192.24v1.72c1.02-.57,1.02-1.15,0-1.72Z"/>
    <path d="M405.94,615.63v1.72c1.02-.57,1.02-1.15,0-1.72Z"/>
  </g>
</svg>