<?xml version="1.0" encoding="UTF-8"?>
<svg id="Layer_2" xmlns="http://www.w3.org/2000/svg" version="1.1" viewBox="0 0 1220.3 595.28">
  <!-- Generator: Adobe Illustrator 29.5.1, SVG Export Plug-In . SVG Version: 2.1.0 Build 141)  -->
  <defs>
    <style>
      .st0 {
        fill: #fff;
      }
    </style>
  </defs>
  <text/>
  <rect class="st0" x="1551.48" y="270.29" width=".98" height="1.99" transform="translate(-14.24 442.17) rotate(-16.14)"/>
  <path class="st0" d="M1459.72,80.1c-.5-.53-.82-.44-.96.28l.96-.28Z"/>
  <g>
    <path d="M525.94,241.89c.05.11.9-.11.95,0l-.48-.91c-.35.02-.62.57-.48.91Z"/>
    <path d="M622.97,459.58c1.55-.38,5.18-1.09,5.7-2.76-1.55.38-5.18,1.09-5.7,2.76Z"/>
    <path d="M598.71,479.97v.93c.62-.31.62-.62,0-.93Z"/>
    <rect x="513.58" y="180.75" width=".93" height="3.7"/>
    <path d="M614.88,462.37v.93c.62-.31.62-.62,0-.93Z"/>
    <path d="M619.64,460.51v.93c.62-.31.62-.62,0-.93Z"/>
    <path d="M621.54,459.59v.93c.62-.31.62-.62,0-.93Z"/>
    <rect x="605.85" y="454.96" width=".93" height="1.84"/>
    <path d="M602.51,478.12v.93c.62-.31.62-.62,0-.93Z"/>
    <rect x="564.94" y="451.26" width="1.89" height=".91"/>
    <polygon points="564.94 459.58 566.84 459.58 566.84 454.96 564.94 454.96 564.94 459.58"/>
    <path d="M630.1,455.88v.93c.62-.31.62-.62,0-.93Z"/>
    <path d="M588.24,449.4v.93c.62-.31.62-.62,0-.93Z"/>
    <path d="M576.83,449.4v.93c.62-.31.62-.62,0-.93Z"/>
    <path d="M575.88,447.54v.93c.62-.31.62-.62,0-.93Z"/>
    <rect x="573.51" y="221.51" width=".93" height="1.84"/>
    <path d="M578.26,215.03l-3.8-.93.47,6.48c-.44-5.61,3.26-2.02,3.33-5.55Z"/>
    <path d="M523.08,31.6v-3.72s-4.33.92-4.33.92l.53,3.72-8.55.93-.96-32.42h-.95l-.1,33.26c-58.87,13.15-58.7,81.86-56.56,128.92l56.94,2.71,3.54,13.9c1.69.23.9-2.04.71-3-.79-4.04-2.13-6.42-.71-10.9l2.79.04c-.34,1.13,1.01,2.71,1.01,3.21v21.77h.95v-23.62c0-2.86,12.83.61,15.22-.47v-3.7c-.17-.2-4.77,1.49-4.75-.92l2.69.72,1.81-2.12c.65-10.22-.23-21.31,1.21-31.47.73-5.18,3.28-10.25,3.8-14.83,1.14-10.06-1.52-20.87,1.91-31.03l1.89,6.94v21.77c3.75-2.48,8.34-2.54,12.29-.39,16.63,9.07,8.66,53.33,10.49,69.35-1,6.21-8.21,6.25-10.98,11.12,2.1,3.05-.16,7.13.08,8.91.37,2.79,2.89,2.96,3.35,5.02-.29,1.49-6.03-3.4-2.85,3.25l1.88-1.84-2.37,5.54-1.43-1.83,1.9-.93h-2.86c-.47-2.43.51-1.42,1.92-2.31-2.94-1.33-.43-14.71-.96-15.3l-12.4,7.1c.88,7.46-.92,15.82-.48,23.05.09,1.44,1.27,2.08,1.47,2.75.22.74-1.42.2-1.71.87-1.54,3.66-.01,36.46-.15,43.62-.03,1.61-.46,3.09-1.01,4.58.68,1.24,1.17.72,2-.12,4.33-4.37,7.83-11.95,14.07-14.79l.12-16.11c1.23-1.58,1.72.12,1.89,1.37.52,3.88.9,8.78.01,12.51l8.55-3.69c-1.25,29.11,1.68,59.54.04,88.5-.43,7.63-2.6,15.07-3.52,22.34-.12.97.92,2.68.62,3.1l-1.88-.93-.98,4.16,2.86-1.38,2.86,75.04h24.73l-1.9,2.31,3.8,1.85c-1.49,2.41-3.75,2.64-2.86,6.02l-1.41-1.85-3.32,5.1,6.63-3.25-1.97,5.53-8.48.95c-.3-3.88.97-8.55,5.7-7.42.17-1.72-2.31-.58-3.39-1.78-.56-.62,1.34-4.75-.9-5.62-4.61.7.78,5.18-3.22,5.95,2.12,4.07.73,6.46-3.88,6.56l2.74-7.28-2.69-1.48-.07-.97-2.55,1.34c1.19,2.9.37,6.58.87,9.33.09.47,2.51.19.71,2.29l2.76.07.11,4.57c2.5.81,2.5-2.53,2.87-2.77.73-.47,4.44,2.95,6.63.92-.36,3.01,1.21,7.01-1.42,9.24l-2.39-5.54c-3.51-1.01-1.2,4-1.88,4.64h-3.82c-1.68,6.8,7.84,9.64,12.39,6.96,1.35-.8,1.61-4.28,3.29-6.06,2.76-2.93,9.25-3.72,12.43-6.47l.27-10.03-3.07-1.14-2.01,2.84c-3.7.12.78-5.56,2.02-6.37,1.9-1.24,4.69-2.08,4.18.81h.93c-.01-1.72.39-4.08,2.86-3.7v28.26c0,.56,1.96,1.78,2.85,1.38.85-7.98-1.98-17.38,1.92-24.54l-1.9.46v-11.13s20.92,0,20.92,0c.95,9.68-1.68,23.76,0,32.89.42,2.29,1.52,2.58,3.8,2.31-.21-7.86.29-15.79.04-23.66-.15-4.84-3.96-10.67,2.88-12.1l.89-129.13h-58.03c-.13,13.5.56,26.84,0,40.31-.05,1.14.72,3.44-.95,3.23v-24.09l-3.79,1.4c1.56-2.34,3.67-2.81,2.83-6.04l-1.91-.45,1.93-2.32-2.86-.46,3.86-1.96-1-21.67h-3.81c.17-2,3.13-1.4,3.63-2.01,1.03-1.23.08-7.57,1.13-9.55l-2.87-.49c5.02-8.24,2.01-19.01,2.94-28.32l-1.99-1.77c3.2-3.68,3.71-12.68-2.49-13.41l.59-2.8-4.75,2.77c.96-5.92-.96-12.54-1-18.05-.04-4.95,4.96,3.12,6.69,1.37.58-3.39-3.05-3.87-4.35-5.46-3.13-3.83-.88-8.12-1.42-12.54l6.55-4.69-3.63-4.17,4.75-1.41-5.7-1.39,4.75-2.31-3.81-.46v-2.77s4.76,0,4.76,0v-19.92c0-.13-1.35-.89-1.59-2-.26-1.25.61-3.34-.33-4.95l-1.9.46c-1.18-4.05,3.13-.4,3.8-3.23l-3.42-.89c.18-2.88.61-6.77-.41-9.53-.53-1.43-6.75-2.88-2.39-6.03l3.74.65,1.37-1.44-.8-10.95,1.91-1-3.8-.48,2.86-2.31-2.86-.92,4.75-2.78c-2.77-3.5-5.24,2.19-8.56,1.38v-21.31l2.94.54.88,4.08,2.39-2.79,3.29,1.41c-1.28-4.91-.84-11.01-.49-16.2.08-1.21-.73-2.3,1.45-2.8l-.95,218.63h58.04l.03-168.18c-2-29.78.85-63.19-20.48-87.52-23.71-27.05-62.63-28.91-96.57-25.92ZM472.19,71.43v-.93c.62.31.62.62,0,.93ZM506.44,98.29c.62.31.62.62,0,.93v-.93ZM499.78,83.47c.62.31.62.62,0,.93v-.93ZM495.49,111.26h-1.89v-1.84h1.89v1.84ZM500.73,98.3l.47,1.84h-1.9s1.43-1.84,1.43-1.84ZM499.32,95.98l1.41-1.39.46,2.77-1.87-1.39ZM501.2,103.84h-1.89v-.91h1.89v.91ZM501.2,92.73h-1.89v-.91h1.89v.91ZM505.49,155.73v-.93c.62.31.62.62,0,.93ZM507.39,146.47v-.93c.62.31.62.62,0,.93ZM504.06,113.58l3.8-.45v1.84c-1.75.22-2.77.04-3.8-1.39ZM511.19,120.53v-.93c.62.31.62.62,0,.93ZM512.14,165v-.93c.62.31.62.62,0,.93ZM512.14,153.88v-.93c.62.31.62.62,0,.93ZM515,127.01v-.93c.62.31.62.62,0,.93ZM515,118.68v-.93c.62.31.62.62,0,.93ZM530.69,139.99c.14,1.77.26,4.06-1.89,4.63v-4.63s1.89,0,1.89,0ZM528.8,156.66l-.95-7.4h3.8c-2.11,2.08.87,8.06-2.85,7.4ZM544.02,107.55c.02-3.4,2.83-3.4,2.84,0h-2.84ZM552.1,97.37v-.93c.62.31.62.62,0,.93ZM540.2,231.69h-.93v-2.77h.93v2.77ZM561.14,225.22h.93v2.77h-.93v-2.77ZM547.83,199.28h.93v1.84h-.93v-1.84ZM543.06,201.13l-1.44,1.83h-1.41s0-1.84,0-1.84h2.85ZM542.48,205.63c2.13-.57,5-.6,7.24-.79-1.61,2.81-6.68,1.88-9.51,2.77-.47-2.7.66-1.54,2.27-1.97ZM548.76,209.47v1.84h-1.89v-1.84h1.89ZM544.49,212.24v-.93c.62.31.62.62,0,.93ZM543.06,210.39v1.84h-1.89v-1.84h1.89ZM541.64,222.43l-1.43-1.84h1.9s-.47,1.84-.47,1.84ZM542.59,215.95c-3.5,4.2-2.96-4.83.47-1.85.25.22.03,1.26-.47,1.85ZM544.02,214.1c3.65.06.96,4.47,4.28-.93l.48,1.85,2.84-1.85c1.83,1.88-8.02,6.63-7.6.93ZM552.57,240.02c-.42-.34.85-8.54.47-10.64-.21-1.19-1.89-1.66-1.42-3.24h2.84c-.19,3.21,1.06,8.43.58,11.41-.15.93-.73,3.89-2.47,2.47ZM555.42,242.81h-1.89v-1.84h1.89v1.84ZM556.37,218.72h-3.8s2.38-3.68,2.38-3.68c1.47.98,1.65,1.98,1.42,3.68ZM558.76,210.38l-1.43-1.84h1.9s-.47,1.84-.47,1.84ZM559.71,201.12v-.93c.62.31.62.62,0,.93ZM562.08,248.37h-.93v-2.77h.93v2.77ZM561.61,244.66v-.93c.62.31.62.62,0,.93ZM560.19,241.88v-1.37s1.43-1.4,1.43-1.4l.47,2.77h-1.89ZM560.18,233.56h1.9s-.47,1.84-.47,1.84l-1.43-1.84ZM562.08,237.24h-1.89v-.91h1.89v.91ZM561.14,232.62l.46-3.7,1.43,2.3-1.89,1.4ZM563.51,215.95v-.93c.62.31.62.62,0,.93ZM579.21,476.27c2.36-.57,5.16-2.16,5.7,1.37-1.63,2.46-6.01,1.85-5.7-1.37ZM634.37,440.13h-.93v-3.7h.93v3.7ZM634.37,433.64h-.93v-5.55h.93v5.55ZM635.33,375.28c-.25,9.4.34,18.89.04,28.3-.06,1.97-.9,3.74-.98,5.53-.19,4,.16,8.04,0,12.04-.05,1.13.72,3.45-.94,3.23l-.96-49.1h2.85ZM591.41,471.93l-2.68,1.54-.73-6.98,3.57-1.35-.16,6.78ZM595.38,469.77c-.11-1.28-.02-2.52.43-3.74,2.63-7.27,8.52,2.95-.43,3.74ZM610.6,439.67c0,.16-1.29,1.46-1.9,1.39v-19.45h1.9v18.06ZM609.17,420.68v-.93c.62.31.62.62,0,.93ZM607.74,376.66c.17-1.29.49-2.66,1.89-1.37l.48,43.54c-2.21.62-1.37-1.99-1.42-3.24-.46-11.62-2.41-27.81-.95-38.93ZM591.57,444.77h17.12c-1.05,5.49-12.43,3.24-14.08,8.99-1.15,4.04,1.67,6.42-4.94,7.69-.65-.7,3.21-5.26,3.36-7.32.13-1.73-2.15-6.72-1.47-9.36ZM586.34,341.01c.62.31.62.62,0,.93v-.93ZM583.97,341.01h.93v1.84h-.93v-1.84ZM578.73,380.84v-.93c.62.31.62.62,0,.93ZM578.73,378.07v-.93c.62.31.62.62,0,.93ZM581.59,417.9v-.93c.62.31.62.62,0,.93ZM581.59,413.27v-.93c.62.31.62.62,0,.93ZM581.59,399.37v-.93c.62.31.62.62,0,.93ZM581.59,396.59v-.93c.62.31.62.62,0,.93ZM581.59,394.74v-.93c.62.31.62.62,0,.93ZM581.59,391.03v-.93c.62.31.62.62,0,.93ZM582.05,389.18h-.93v-2.77h.93v2.77ZM582.05,385.47h-.93v-2.77h.93v2.77ZM581.11,359.54h.95v22.23h-.95v-22.23ZM578.26,374.36h1.89v1.84h-1.89v-1.84ZM577.78,411.42c.62.31.62.62,0,.93v-.93ZM577.31,306.74h1.89v.91h-1.89v-.91ZM573.02,259.49v-.93c.62.31.62.62,0,.93ZM573.98,354.91c.62.31.62.62,0,.93v-.93ZM573.02,250.22c.62.31.62.62,0,.93v-.93ZM572.56,253.93h.93v1.84h-.93v-1.84ZM575.41,137.21h.93v1.84h-.93v-1.84ZM573.98,135.35c.62.31.62.62,0,.93v-.93ZM572.56,140.91h.93v1.84h-.93v-1.84ZM572.54,72.36l.96,2.77c-1.54,1.15-5.14-3.5-.96-2.77ZM560.66,79.77v-.93c.62.31.62.62,0,.93ZM562.08,98.29h-.93v-1.84h.93v1.84ZM564.46,112.19v-.93c.62.31.62.62,0,.93ZM562.09,93.65l1.44-1.83h1.41s0,1.84,0,1.84h-2.85ZM563.99,80.68l.96-3.69h.93s0,3.7,0,3.7h-1.9ZM565.9,174.27h1.89v.91h-1.89v-.91ZM567.32,255.78v-.93c.62.31.62.62,0,.93ZM567.32,312.29v-.93c.62.31.62.62,0,.93ZM566.83,413.26h-.93v-1.84h.93v1.84ZM567.32,410.49v-.93c.62.31.62.62,0,.93ZM567.78,408.63c-.12.13-.62-.05-.93,0,.25-1.41.51-3.95,1.89-3.69.15.31-.82,3.55-.96,3.69ZM568.27,106.63v-.93c.62.31.62.62,0,.93ZM573.02,201.12v-.93c.62.31.62.62,0,.93ZM573.51,174.26v-1.85s1.89,0,1.89,0l-1.89,1.84ZM573.02,162.22c.62.31.62.62,0,.93v-.93ZM573.02,164.07c.62.31.62.62,0,.93v-.93ZM572.55,165.93h1.89v2.77h-1.89v-2.77ZM572.07,204.83v-.93c.62.31.62.62,0,.93ZM571.54,100.09l-3.75.04c5.24-7.04,1.34-9.51-1.89-15.73,1.47.24,1.39,1.96,2.89,3.19.99.81,3.34,2.6,4.61,2.21.29-.09.3-3.57,1.99-.32-3.03,2.67-3.44,6.86-3.84,10.6ZM575.39,103.85h-.93v-1.84h.93v1.84ZM576.34,72.81l-1.88,1.4v-2.77s1.89,0,1.89,0v1.37ZM587.29,157.58c.62.31.62.62,0,.93v-.93ZM582.54,45.49c.62.31.62.62,0,.93v-.93ZM582.54,53.83c.62.31.62.62,0,.93v-.93ZM582.07,71.43h.93v1.84h-.93v-1.84ZM582.54,89.03v-.93c.62.31.62.62,0,.93ZM579.2,98.29h-1.89v-1.84h1.89v1.84ZM581.13,92.27l1.41-1.38.46,2.77-1.87-1.39ZM584.44,271.53v-.93c.62.31.62.62,0,.93ZM586.34,179.82v-.93c.62.31.62.62,0,.93ZM587.76,172.4h-1.89v-.91h1.89v.91ZM587.76,168.69h-1.89v-.91h1.89v.91ZM588.24,63.09v-.93c.62.31.62.62,0,.93ZM602.98,121.92c-5.6.56-4.41-6.29.96-6.94-2.01,2.66-4.67,4.03-.96,6.94ZM605.85,122.37v-.91s2.38-.91,2.38-.91l1.42,1.82h-3.8ZM617.25,121.45h-4.75c.58-2.1,2.94-1.98,4.75-1.84v1.84ZM607.75,107.55c2.57-3.2,7.56-5.72,11.41-7.39l-11.41,7.39ZM632.95,114.99l1.43,1.83-2.85-.45,1.42-1.38ZM629.62,116.83c.98.45-2.56,2.21-3.8,1.83.46-1.78,2.1-2.09,3.8-1.83ZM627.26,95.53c.9,1.04-2.37,2.6-3.32,2.31l3.32-2.31ZM622.49,118.68c.62.31.62.62,0,.93v-.93Z"/>
    <path d="M577.78,243.74c.62-.31.62-.62,0-.93v.93Z"/>
    <path d="M637.4,579.88c-.65,0-.65,1.01,0,1.01s.65-1.01,0-1.01Z"/>
    <polygon points="579.2 235.41 577.31 235.41 578.74 237.25 579.2 235.41"/>
    <rect x="574.46" y="118.68" width=".93" height="1.84"/>
    <path d="M581.59,116.82v.93c.62-.31.62-.62,0-.93Z"/>
    <path d="M815.6,582.82l-1.42,1.38.45.44c.53-.59,1.92-1.21.97-1.82Z"/>
    <path d="M251.5,344.72v.93c.62-.31.62-.62,0-.93Z"/>
  </g>
</svg>