<?xml version="1.0" encoding="UTF-8"?>
<svg id="Layer_1" xmlns="http://www.w3.org/2000/svg" version="1.1" viewBox="0 0 1920 1080">
  <!-- Generator: Adobe Illustrator 29.5.1, SVG Export Plug-In . SVG Version: 2.1.0 Build 141)  -->
  <rect x="1831.59" y="7.61" width="1.48" height="3.47"/>
  <text/>
  <g>
    <path d="M1443.94,35.62v1.72c1.02-.57,1.02-1.15,0-1.72Z"/>
    <path d="M1109.63,678.9c-7.26,3.36-6.03,24.04-5.16,32.28,1.63,15.46,14.57,7.84,25.15,9.34,3.02-14.79,3.15-52.34-19.99-41.62Z"/>
    <path d="M1213.4,752.69l15.53-7.96-15.73,3.42-1.58-187.6h-15.76v33.57c0,4.27-7.6,22.71-10.92,25.97-2.45,2.4-12.29,9.28-15.44,10.63-4.36,1.87-19.21,5.9-23.28,5.61-3.77-.27-3.62-2.69-3.99-5.99-1.56-13.79,2.13-28.49,1.64-42.26,9.33,1.24,26.86-3.64,26.61-16.38-.31-15.41-33.54-8.27-43.15-8.56-1.28-.04-3.37-2.57-6.2-2.67-8.84-.31-17.81.15-26.65.33-7.35,11.17-1.42,26.18,11.59,27.3v46.47c-10.55-.76-23.55-4.79-31.5-12.91v-59.38h-1.58v239.95c2.1-.06,4.21-.26,6.3-.06v-.65h48.04l1.91,2.08c1.69.01,3.39.03,5.08.05-.34-7.84-.86-16.22-1.34-23.65-1.21-18.76-5.18-34.85-11.37-52.26-6.18-.37-19.28-.46-22.25-7.53-1.7-4.04-2.02-33.06-1.12-38.27,2.17-12.56,29.51-17.7,35.41.81,2.16,6.79,4.43,38.31.82,42.23-1.64,1.78-6.43,1.91-6.4,3.51,9.21,24.17,10.98,46.92,9.51,73.02h28.35c-.2.44-.41.87-.61,1.3,1.29-.14,2.6-.16,3.9-.23,1.84-.1,3.69-.25,5.53-.39.66-.05,1.32-.1,1.98-.14.58-.17,1.18-.35,1.81-.53-.23-14.8-5.16-32.57,1.66-47.24l-.08-80.13h4.71c-2.64,25.56,4.59,55.24,1.71,80.16-.38,3.29-3.02,1.64-3.4,4.93-1.39,12.04,1.5,27.05-.12,39.46-.86,2.98-2.58,2.28-4.49,2.83,0,.14,0,.29,0,.43,2.1-.1,4.2-.13,6.29.01v-.44h27.56c6.5-14.44-1.94-32.86,1-48.81ZM1106.07,579.46h-3.13v-1.69h3.13v1.69ZM1095.04,756.74l-6.27-15.48c4.33,2.75,4.82,10.68,6.27,15.48ZM1088.74,751.6c1.6,1.73-3.08,6.91-4.71,5.15-1.6-1.73,3.08-6.91,4.71-5.15ZM1091.89,758.49v1.69h-4.71v-1.69h4.71ZM1085.59,746.44c-.49,1.99-8.45,7.8-9.44,6.85,1.56-3.74,5.64-6.72,9.44-6.85ZM1079.3,758.49l-3.13,3.42v-3.43s3.13,0,3.13,0ZM1076.16,766.23l3.13-2.59v3.43s-3.13-.84-3.13-.84ZM1077.74,784.29l1.25-12.49c.28,4.69,2.92,10.62-1.25,12.49ZM1093.44,764.5l-10.99,2.57c-1.72-6.07,10.94-5.62,10.99-2.57ZM1085.58,770.53v3.42h-1.54v-3.42h1.54ZM1082.48,788.61l8.65-6c.67,3.09-6.11,5.81-8.65,6ZM1095.04,770.51h-3.13v-1.69h3.13v1.69ZM1095.84,760.2v-1.72c1.02.57,1.02,1.15,0,1.72ZM1098.99,768.8c1.02.57,1.02,1.15,0,1.72v-1.72ZM1133.64,567.43c1.02.57,1.02,1.15,0,1.72v-1.72ZM1133.64,581.2c1.02.57,1.02,1.15,0,1.72v-1.72ZM1128.91,598.41v-1.72c1.02.57,1.02,1.15,0,1.72ZM1132.86,675.01l3.13-2.59v3.43s-3.13-.84-3.13-.84Z"/>
    <path d="M1044.92,1052.52c-1.07,0-1.07,1.88,0,1.88s1.07-1.88,0-1.88Z"/>
    <path d="M1256.5,737.82v1.72c1.02-.57,1.02-1.15,0-1.72Z"/>
    <path d="M1231.3,744.71v1.72c1.02-.57,1.02-1.15,0-1.72Z"/>
  </g>
</svg>