<?xml version="1.0" encoding="UTF-8"?>
<svg id="Layer_1" xmlns="http://www.w3.org/2000/svg" version="1.1" viewBox="0 0 1920 1080">
  <!-- Generator: Adobe Illustrator 29.5.1, SVG Export Plug-In . SVG Version: 2.1.0 Build 141)  -->
  <rect x="1831.59" y="7.61" width="1.48" height="3.47"/>
  <text/>
  <g>
    <path d="M1443.94,35.62v1.72c1.02-.57,1.02-1.15,0-1.72Z"/>
    <path d="M1044.92,1052.52c-1.07,0-1.07,1.88,0,1.88s1.07-1.88,0-1.88Z"/>
    <path d="M1256.5,737.82v1.72c1.02-.57,1.02-1.15,0-1.72Z"/>
    <path d="M1231.3,744.71v1.72c1.02-.57,1.02-1.15,0-1.72Z"/>
    <path d="M1271.29,798.63c2.95-.95,6.35-1.75,9.42-.97,1.43.36,3.1,1.09,4.18,2.11.25.24.45.53.67.8.12.14.33.47.52.53.44.15,1.15-.78,1.5-1.04,2.4-1.77,5.38-2.73,8.37-2.41,2.98.32,5.66,1.76,7.85,3.77.03.03.04.06.06.08h92.04l-1.57-239.23h-132.31l-1.68,238.29,4.61,1.76c1.5-1.92,4.13-2.97,6.35-3.69Z"/>
  </g>
</svg>