<?xml version="1.0" encoding="UTF-8"?>
<svg id="Layer_2" xmlns="http://www.w3.org/2000/svg" version="1.1" viewBox="0 0 1220.3 595.28">
  <!-- Generator: Adobe Illustrator 29.5.1, SVG Export Plug-In . SVG Version: 2.1.0 Build 141)  -->
  <defs>
    <style>
      .st0 {
        fill: #fff;
      }
    </style>
  </defs>
  <text/>
  <rect class="st0" x="1551.48" y="270.29" width=".98" height="1.99" transform="translate(-14.24 442.17) rotate(-16.14)"/>
  <path class="st0" d="M1459.72,80.1c-.5-.53-.82-.44-.96.28l.96-.28Z"/>
  <path class="st0" d="M27.69,586.71c-1.55,4.4-6.86,4.35-9.51.78l9.51-.78Z"/>
  <polygon class="st0" points="30.98 583.25 30.98 584.92 38.64 586.63 38.65 583.25 30.98 583.25"/>
  <polygon class="st0" points="30.97 590.02 34.82 593.38 36.08 593.39 36.09 590.01 30.97 590.02"/>
  <polygon class="st0" points="18.18 587.49 27.14 589.99 28.38 589.17 23.26 583.25 20.73 583.25 18.18 587.49"/>
  <path class="st0" d="M73.85,592.04c2.29,3.09,6.89,3.13,8.23-.68l-8.23.68Z"/>
  <polygon class="st0" points="84.92 588.37 84.92 589.82 91.56 591.29 91.56 588.37 84.92 588.37"/>
  <polygon class="st0" points="84.92 594.22 88.25 597.14 89.34 597.14 89.35 594.22 84.92 594.22"/>
  <polygon class="st0" points="73.85 592.04 81.6 594.2 82.67 593.49 78.25 588.37 76.06 588.37 73.85 592.04"/>
  <path class="st0" d="M637.4,579.89c.65,0,.65-1.01,0-1.01s-.65,1.01,0,1.01Z"/>
  <g>
    <path d="M1069.1,231.62v-5.56s30.44,0,30.44,0l-.47-4.63c1.27.65.94,3.97,1.6,4.48,1.29,1,6.4-.24,5.54,5.72h-37.1Z"/>
    <path d="M1119.52,226.07l-1.45,4.62c-1.84.64-1.15-1.65-2.03-1.85-1.63-.37-3.76.21-5.52-.06l-1.46,2.84-2.86-6.48,3.79.92v-9.25s2.85,8.86,2.85,8.86l6.67.41Z"/>
    <path d="M1128.07,225.14c1.53,2.26-3.29,1.29-.96,3.66l-5.69,1.9c-.35-3.76-.24-7.54-.34-11.34-.04-1.34-1.19-2.25.82-3.47l.89,9.32c1.13,1.74,5.13-.28,5.28-.06Z"/>
    <path d="M1120.47,235.32h-4.76s.01-2.77.01-2.77c1.59.91,4.16.79,4.75,2.77Z"/>
    <polygon points="1105.24 224.21 1100.01 217.73 1098.6 220.5 1099.55 214.95 1105.24 224.21"/>
    <polygon points="1087.18 238.12 1085.28 239.96 1085.28 238.11 1087.18 238.12"/>
    <rect x="1071.96" y="221.44" width="1.89" height=".91"/>
    <rect x="1075.77" y="221.44" width="1.89" height=".91"/>
    <rect x="1113.82" y="232.55" width=".93" height="1.84"/>
    <rect x="1091.94" y="238.12" width="1.89" height=".91"/>
    <rect x="841.76" y="544.75" width=".93" height="1.84"/>
    <path d="M1080.99,239.03c.62.31.62.62,0,.93v-.93Z"/>
    <path d="M1061.02,580.87c.62.31.62.62,0,.93v-.93Z"/>
  </g>
  <path d="M252.93,32.46h-67.54s67.54,0,67.54,0Z"/>
  <line x1="177.77" y1="444.68" x2="259.59" y2="444.69"/>
  <text/>
</svg>