<?xml version="1.0" encoding="UTF-8"?>
<svg id="Layer_1" xmlns="http://www.w3.org/2000/svg" version="1.1" viewBox="0 0 1920 1080">
  <!-- Generator: Adobe Illustrator 29.5.1, SVG Export Plug-In . SVG Version: 2.1.0 Build 141)  -->
  <rect x="1831.59" y="7.61" width="1.48" height="3.47"/>
  <text/>
  <g>
    <path d="M478.39,749.87c1.02-.57,1.02-1.15,0-1.72v1.72Z"/>
    <path d="M462.64,469.33c1.02-.57,1.02-1.15,0-1.72v1.72Z"/>
    <path d="M566.6,601.86v1.72c1.02-.57,1.02-1.15,0-1.72Z"/>
    <path d="M465.79,469.33c1.02-.57,1.02-1.15,0-1.72v1.72Z"/>
    <path d="M487.84,553.67c1.02-.57,1.02-1.15,0-1.72v1.72Z"/>
    <path d="M531.95,694.79c1.02-.57,1.02-1.15,0-1.72v1.72Z"/>
    <path d="M514.62,705.12c1.02-.57,1.02-1.15,0-1.72v1.72Z"/>
    <polygon points="498.09 558.81 507.52 557.09 503.6 551.94 498.09 558.81"/>
    <path d="M566.6,555.39v1.72c1.02-.57,1.02-1.15,0-1.72Z"/>
    <rect x="463.44" y="471.06" width="1.54" height="3.42"/>
    <path d="M481.59,744.89c1.88-1.6,8.44-13.7,9.91-16.84,17.24-36.72,24.9-89.47,22.32-130.48-.25-3.99-3.85-30.46-4.99-31.55-6.28-1.5-14.6-3.29-20.55-5.62-1.38-.54-1.25-2.67-2.46-3.13-5.09-1.99-20.36-5.1-23.94-7.94-2.24-1.78-1.69-3.35-1.6-5.98l31.48,1.73-3.13,2.55c5.96,7.73,7.16-9.32,15.75-6.03.11-1.11-2.09-3.43-2.36-3.43h-104.75c.17-2.85,4.79-3.44,7.09-3.44h96.87c1.7-4.64-4.67-4.01-4.7-6.02,0-.37,2.61-1.71,2.43-4.41-.11-1.63-5.31-14.93-6.42-17.09-1.7-3.31-2.93-1.74-2.36,1.69h-1.54c.58-3.77-1.71-3.72-4.74-3.45l4.5-5.65c-2.59-5.08-2.43-14.87-9.24-13.28,3.28-7.04-1.55-12.09-7.86-8.6-2.97-4.81,8.37-3.15,4.7-6.87-.44-.45-11.38-.04-9.42,5.17.17.46,4.39-4.34,3.13,1.7l-7.86-1.7.92,8.72-7.23,1.6c-1.29,7.03,4.74.4,6.32,1.73l-1.36,3.24,2.95,1.05-6.32.88,1.66,4.17-3.23,2.69,7.83-.84-12.56,2.57,4.7-10.32-6.28,1.7c-.06-3.72,6.96.93,4.75-6.01-.41-1.28-4.21-1.58-4.75-3.55-.84-3.06,2.5-5.21,2.52-6.78.01-.94-3.31-9.81-2.53-12.89l20.47-.02-.26-3.99-43.06-64.83,5.74,68.59,13.95,1.99-12.58,1.72,11,4.31-9.37,4.38,1.53,36.03c-4.16-8.5-.65-26.05-9.46-29.28l.18-3.27,3.06-1.06-6.39-12,5.92-3.34c-.7-6.7-3.47-14.71-3.9-21.14-.14-2.01,2.09-3.57,1.92-5.73-.8-10.43-3.4-40-6.44-47.95-.92-2.42-17.41-25.25-18.78-25.95-2.54,7.1-5.2,4.39-1.5-1.7-24.42-34.04-75.93-93.13-74.94-138.48.51-23.4,15.6-47.45,38.92-35.69,15.96,8.05,16.71,38.08,14.77,54.62-.42,3.59-3.44,7.27-3.23,7.62.15.25,2.91-.92,4.03,3.3,1.21,4.55.61,9.32.68,13.94h25.2c-11.32-78.85-27.27-156.78-34.38-236.34-5.39-.86-10.81-1.48-16.27-1.72-9.46-.41-19.03.28-28.29,2.26s-17.59,4.96-26.31,7.65c-4.71,1.45-9.48,2.8-14.32,3.78l-18.52,8.95c-76,45.98-85.74,186-64.65,267.43,2.67,10.33,6.84,20.14,9.02,30.61,9.53-3.56,16.57,1.46,3.11,4.33l6.34,16.31,3.12-3.42c-1.72,3.36-.46,9.8,1.58,12.55,1.73,2.33,4.17.77,4.71,1.25.4.36-2.76,5.88,2.39,10.28,1.53-7.63,7.24,1.83.76,2.55,23.24,42.82,56.12,77.48,85.03,115.39,23.48,30.79,60.1,75.74,63.1,116.93.82,11.18,2.12,28.94-8.04,34.64l6.42,8.46-3.98,5.99c-3.55.87-3.21-5.29-4.73-5.21-2.84.15-10.92,6.65-17.33,7.02-10.89.64-21.04-6.1-25.74-16.65-2.08-4.67-4.92-17.49-4.92-22.16v-84.33c-11.63-6.17-27.41-1.02-40.12-.74l-.92-5.11-5.1-.15c-4.1-7.69,2.65-5.76,6.73-1.76l6.33-6.85c-4.45,2.78-12.47-3.05-13.43-3.06-1.12,0-2.79,3.68-5,4.43-4.18,1.42-10.15-.27-14.64.35l14.16,1.71-4.19,13.85-74.54-.09c.92,84.41-6.62,193.48,72.94,239.55l13.72,6.75c.77-.02,1.54-.03,2.31,0,9.44.33,18.37,3.83,27.72,4.79,10.1,1.04,20.25,1.13,30.39,1.14,5.09,0,10.17.16,15.26.08,5.1-.08,10.19-.29,15.27-.58,10.23-.59,20.48-1.39,30.67-2.45,3.8-.39,7.62-.75,11.43-1.17v-.27c.14.08.25.15.35.23,1.71-.19,3.41-.4,5.11-.62-.64-4.38,1.22-2.47,3.51-3.49,16.33-7.25,30.42-16.84,42.18-31.42l-9.42.87v-6.87s12.62,2.64,12.62,2.64c5.73-6.47,9.51-7.77,4.7-16.41h3.14c-.09-1.11.22-2.51,0-3.44-.53-.14-1.16.18-1.58,0-.12.81-1.84,2.57-1.68,3.26-5.1-9.07-13.85-17-18.76-26.52,4.35.07,9.47,13.2,11.3,14.41,1.36.9,6.62-1.64,9.14.25,1.98,6.92-6.61-1.36-4.73,4.27.34,1,3.37,1.46,4.74,2.6.61.51,1.33.62,1.58,1.72,1.94.52,3.61,1.83,5.56.18ZM485.49,510.65h3.13v5.15h-3.13v-5.15ZM482.32,488.27c2.38,2.6-4.68,7.34-4.69,2.57,0-1.14,3.78-3.56,4.69-2.57ZM482.33,496.89l-2.39,3.41h-2.33s0-3.42,0-3.42h4.72ZM476.04,503.77h4.71v1.69h-4.71v-1.69ZM473.67,512.36v-1.72c1.02.57,1.02,1.15,0,1.72ZM473.67,479.66c1.02.57,1.02,1.15,0,1.72v-1.72ZM471.31,490h3.13v1.69h-3.13v-1.69ZM457.14,503.76l6.28,1.74v1.68s-6.28,0-6.28,0v-3.43ZM452.41,505.49h3.13v1.69h-3.13v-1.69ZM458.72,459.02h1.54v3.42h-1.54v-3.42ZM453.19,438.35c1.02.57,1.02,1.15,0,1.72v-1.72ZM439.79,438.34h-3.13v-1.69h3.13v1.69ZM440.59,531.29c1.02.57,1.02,1.15,0,1.72v-1.72ZM439.01,477.94c1.02.57,1.02,1.15,0,1.72v-1.72ZM437.44,517.52c1.02.57,1.02,1.15,0,1.72v-1.72ZM424.84,479.66c1.02.57,1.02,1.15,0,1.72v-1.72ZM422.49,483.11h1.54v3.42h-1.54v-3.42ZM419.33,465.9h3.13v3.42h-3.13v-3.42ZM409.09,388.44c1.02.57,1.02,1.15,0,1.72v-1.72ZM408.31,433.2h4.71v3.42h-4.71v-3.42ZM417.74,465.9c3.67,3.36-8.43,5.1-9.44,5.14-.09-2.88,8.77-5.75,9.44-5.14ZM403.57,471.07v1.69h-3.13v-1.69h3.13ZM399.64,383.28c1.02.57,1.02,1.15,0,1.72v-1.72ZM398.86,434.93h3.13v1.69h-3.13v-1.69ZM326.41,181.92h1.54v3.42h-1.54v-3.42ZM264.18,388.44c1.02.57,1.02,1.15,0,1.72v-1.72ZM236.62,328.22h3.13v1.69h-3.13v-1.69ZM239.55,340.01l-4.51.23v-5.15s6.29,0,6.29,0l-1.78,4.91ZM249.2,409.09h-1.54v-3.42h1.54v3.42ZM257.88,424.58v-1.72c1.02.57,1.02,1.15,0,1.72ZM261.82,393.62h3.13v1.69h-3.13v-1.69ZM262.6,398.77v-1.72c1.02.57,1.02,1.15,0,1.72ZM261.83,407.37v-3.43s3.13,0,3.13,0l-3.13,3.42ZM273.63,391.88v-1.72c1.02.57,1.02,1.15,0,1.72ZM321.68,163h3.13v1.69h-3.13v-1.69ZM320.88,147.49c1.02.57,1.02,1.15,0,1.72v-1.72ZM320.11,171.59h1.54v3.42h-1.54v-3.42ZM320.88,185.35v-1.72c1.02.57,1.02,1.15,0,1.72ZM302.78,362.64c-3.42-4.6,2.29-18.15,6.28-13.77,2.89,3.17-3.22,5.78-3.21,6.14.14,4.61,5.44,8.75-3.07,7.63ZM305.13,369.48c-1.04,0-3.26-4.13-2.35-5.12,2.38-2.6,6.71,5.12,2.35,5.12ZM302.77,345.4v-1.69h3.13v1.69h-3.13ZM307.48,328.2l-3.42-16.18,1.08-6.17c2.43,7.12,2.66,14.82,2.34,22.36ZM305.91,298.95v3.42s-7.87,1.72-7.87,1.72c-1.06-.92,5.67-6.15,7.87-5.14ZM288.61,309.27l17.31,22.36-10.27-10.28-7.04-12.08ZM299.62,452.11c-1.06-.92,5.67-6.15,7.87-5.14v3.42s-7.87,1.72-7.87,1.72ZM305.13,424.55c-4.72-.36-2.23-9.77-2.29-12.78-.11-5.21-4.05-8.6,2.3-12.99,1.11-.47.51,1.61,1.51,2.69.59.64,1.9.83,2.11,1.65-2.35,2.85-.69,21.66-3.63,21.43ZM309.05,393.58l-7.86,1.73,1.61-5.14,6.26,1.74v1.68ZM310.65,381.54c-2.04,2.53-11.7-.14-14.17-2.56l7.19-6.12c3.33-.09,9.41,5.66,6.98,8.68ZM308.26,335.12c3.56,3.84,8.26,8.16,9.48,13.7-3.56-3.84-8.26-8.16-9.48-13.7ZM318.5,326.48c-3.56-1.04-3.36-5.38-3.12-8.6.91-2.13,3.92,6.21,3.12,8.6ZM321.66,312.71c-3.29,3.07-10.05-13.32-12.59-15.46,2.25-2.36,8.82,9.59,10.09,11.41.31.44,5.35,1.4,2.51,4.06ZM320.1,305.82v-5.15s4.72,5.15,4.72,5.15h-4.72ZM327.96,324.74h-3.13v-1.69h3.13v1.69ZM329.32,278.89c-.58,2.35-6.42,6.74-8.41,6.29-5.23-3.1-.3-10.71,3.39-11.78,3.55-1.03,6.02,1.55,5.02,5.49ZM330.33,304.11v-1.72c1.02.57,1.02,1.15,0,1.72ZM364.2,379.83c-1.61-1.79,3.13-6.9,4.71-5.15,1.61,1.79-3.13,6.9-4.71,5.15ZM216.13,718.87h-3.13v-1.69h3.13v1.69ZM220.84,718.88h-1.54v-3.42h1.54v3.42ZM226.37,662.09v-1.72c1.02.57,1.02,1.15,0,1.72ZM227.95,705.12v-1.72c1.02.57,1.02,1.15,0,1.72ZM227.95,646.6v-1.72c1.02.57,1.02,1.15,0,1.72ZM313.8,607.04h3.13v1.69h-3.13v-1.69ZM298.05,557.12h7.88s-.02,5.15-.02,5.15l-7.87-1.73v-3.41ZM301.21,569.15v-3.42h1.54v3.42h-1.54ZM301.98,576.04v-1.72c1.02.57,1.02,1.15,0,1.72ZM300.4,581.2v-1.72c1.02.57,1.02,1.15,0,1.72ZM300.4,596.69v-1.72c1.02.57,1.02,1.15,0,1.72ZM294.88,610.46l1.57,20.64c-2.16.42-2.38-3.07-2.71-4.74-.75-3.75-1.43-9.5-1.88-13.49-.38-3.41.34-2.47,3.03-2.42ZM291.74,605.32l-4.71,5.15c-.53-3.14,1.73-5.71,4.71-5.15ZM274.42,549.35l7.86-.84v3.42c-3,.28-5.98.33-7.86-2.58ZM279.93,773.96v-1.72c1.02.57,1.02,1.15,0,1.72ZM290.95,658.65v-1.72c1.02.57,1.02,1.15,0,1.72ZM282.33,625.05c-1.87-2.55-4.75-6.03-4.75-9.42l17.27,21.56,12.63,19.74c-8.26-10.53-17.21-21.09-25.14-31.89ZM304.35,631.11v-6.87s1.55,0,1.55,0l1.59,6.86h-3.14ZM304.36,617.35l-1.5-6.06c.28-3.57-10.25-8.55-7.96-11.15,2.25-2.55,9.28,12.16,12.59,12.04-.27-2.3-1.62-4.47-1.57-6.87l6.3,7.76-4.73-.88c.4,3.46.87,6.16-3.13,5.16ZM316.93,629.38h-4.71v-1.69h4.71v1.69ZM372.06,701.66h-3.13v-1.69h3.13v1.69ZM376.01,701.68v-1.72c1.02.57,1.02,1.15,0,1.72ZM403.31,545.5l1.82,3c-.34-5.71,3.01-4.83,3.94,0l7.1-3.43-6.3,3.44c.93,3.85,6.1,1.88,4.72,6.85l-9.44,1.76,6.29,1.72c-1.67,5.25-8.27,1.93-12.53,3.4-2.05-4.88-2.08-21.78,4.39-16.75ZM416.17,562.25h-3.14s0-3.42,0-3.42l3.13,3.42ZM401.21,581.2v-1.72c1.02.57,1.02,1.15,0,1.72ZM389.41,551.95h3.13v3.42h-3.13v-3.42ZM392.54,701.66h-4.71v-1.69h4.71v1.69ZM415.39,717.17v-1.72c1.02.57,1.02,1.15,0,1.72ZM404.55,619.27c-2.77,1.07-1.43,5.27-4.11,4.94,4.27-9.18-5.62-.74-3.15-12.03l12.3.37,1.06,3.06,3.93-3.43-1.58,5.14,4.74,1.72c-3.85.67-9.8-1.09-13.19.23ZM455.57,749.88c.91-2.13,3.92,6.21,3.12,8.6-3.56-1.04-3.36-5.38-3.12-8.6ZM482.31,739.53h-1.54v-3.42h1.54v3.42ZM480.79,640.6l2.35-2.56c1.57,1.13-.73,2.28-1.61,3.37l-.74-.81ZM483.12,729.22v-1.72c1.02.57,1.02,1.15,0,1.72ZM485.47,646.59h-3.13v-1.69h3.13v1.69ZM486.27,658.65v-1.72c1.02.57,1.02,1.15,0,1.72ZM490.2,691.34h-3.13v-5.15h3.13v5.15ZM490.2,651.75h-4.71v-1.69h4.71v1.69ZM490.2,637.99c-1.87,1.95-14.45-12.04-12.58-13.75l12.7.78c2.74,1.85-.58,10.05-.12,12.97ZM465.01,667.24l6.28-4.29-4.71-1.7,6.28-4.29-3.13,3.41,7.88.88-4.74,4.29,6.3,1.71h-14.16ZM477.6,669v1.69h-3.13v-1.69h3.13ZM466.57,680.16l-11,7.75,6.25-7.76-3.11-2.56c1.51-.23,3.35.3,4.72,0-.16-.53-.15-2.83,0-3.44-1.57-.09-3.16.08-4.72-.02,2.53-5.76,9.21-5.41,14.17-5.13-.88,4.56-8.34.54-9.44,5.15,2,.12,9.46-.77,9.47.86-2.46,2.06-6.52,1.91-9.47,2.58.8,2.7,3.74,1.15,3.14,2.57ZM470.84,647.24l-8.98,2.79c.91-3.33,5.67-2.34,8.98-2.79ZM468.94,639.72v-1.72c1.02.57,1.02,1.15,0,1.72ZM471.3,653.51v1.69h-6.28v-1.69h6.28ZM464.22,637.99l-2.37-3.42h3.14s-.77,3.42-.77,3.42ZM471.31,644.87v-1.69h3.13v1.69h-3.13ZM476.04,653.47v-1.69h4.71v1.69h-4.71ZM474.46,650.03v-1.69h4.71v1.69h-4.71ZM469.74,636.28l-.03-6.88-4.67,3.44c-.09-4.22-2.77-5.5-6.34-5.18-.44-3.65-.11-3.75,3.15-3.44l-2.09-1.7c-5.28-4.14,8.21-5.95,9.95-6.89l-3.13,8.6c7.28-1.12,11.42,5.67,14.17,12.04h-11.01ZM460.29,609.59l4.71-.84v3.42s-2.33,0-2.33,0l-2.38-2.57ZM494.14,713.73v-1.72c1.02.57,1.02,1.15,0,1.72ZM491.8,593.25v-3.43s3.13,0,3.13,0l-3.13,3.42ZM509.11,607.04l-3.13,3.42v-3.43s3.13,0,3.13,0ZM505.96,624.25h3.13v1.69h-3.13v-1.69ZM501.24,679.32h3.13v1.69h-3.13v-1.69ZM500.44,610.46c1.02.57,1.02,1.15,0,1.72v-1.72ZM497.29,586.37c1.02.57,1.02,1.15,0,1.72v-1.72ZM493.37,567.44l3.13,3.42h-3.14s0-3.42,0-3.42ZM486.27,577.76c1.02.57,1.02,1.15,0,1.72v-1.72ZM485.49,581.22c.57-.85,7.84-2.55,7.82.84,0,.59-3.3,6-3.9,6-.61,0-5.14-5.04-3.93-6.84ZM483.12,582.92c1.02.57,1.02,1.15,0,1.72v-1.72ZM482.34,586.38h3.13v3.42h-3.13v-3.42ZM479.97,586.37c1.02.57,1.02,1.15,0,1.72v-1.72ZM476.82,584.65c1.02.57,1.02,1.15,0,1.72v-1.72ZM474.47,572.61h1.54v3.42h-1.54v-3.42ZM477.61,596.71l-1.59,3.41,14.91,3.34,2.39,6.14c-.04,3.6-9.67.85-11.66.85-7.54-.02-14.78,4.57-18.21-8.59l11.01-.02-1.57-5.13h4.73ZM464.22,600.14v-1.72c1.02.57,1.02,1.15,0,1.72ZM468.94,596.69c1.02.57,1.02,1.15,0,1.72v-1.72ZM457.91,569.16c1.02.57,1.02,1.15,0,1.72v-1.72ZM460.24,574.32l4.75,5.18c-.22,4.04-9.45,1.21-9.41-.88l4.66-4.3ZM455.56,603.59c2.38-2.6,6.71,5.12,2.35,5.12-1.04,0-3.26-4.13-2.35-5.12ZM449.26,598.43h3.13v1.69h-3.13v-1.69ZM447.71,719.79l-6.33,10.3c8.6,4.63-.31,3.66-4.72,4.29l6.29-13.76c-3.36.74-4.43-.77-1.58-2.62,2.4-1.56,2.59.73,3.15.9.98.29,3.24-.87,3.18.9ZM445.31,715.45v-1.72c1.02.57,1.02,1.15,0,1.72ZM439.83,711.15c0-1.14,3.78-3.56,4.69-2.57,2.38,2.6-4.68,7.34-4.69,2.57ZM442.97,682.76h1.54v3.42h-1.54v-3.42ZM439.81,677.58v-3.43s3.14,3.42,3.14,3.42h-3.14ZM435.08,672.41l3.16-4.29-3.16-3.42,6.28-4.32v12.05s-6.28-.02-6.28-.02ZM431.94,646.6v-3.42s3.93-1.73,3.93-1.73l.78,3.41-4.71,1.74ZM434.29,656.93v-1.72c1.02.57,1.02,1.15,0,1.72ZM425.63,648.31v-1.69h3.13v1.69h-3.13ZM426.41,675.86v-1.72c1.02.57,1.02,1.15,0,1.72ZM424.06,587.24l3.13-2.59v3.43s-3.13-.84-3.13-.84ZM427.97,644.85l-.74-.81,2.35-2.56c1.57,1.13-.73,2.28-1.61,3.37ZM425.64,637.98v-1.69s7.85-.01,7.85-.01v3.43s-7.85-1.73-7.85-1.73ZM431.14,557.11v-1.72c1.02.57,1.02,1.15,0,1.72ZM430.36,670.72h3.13v1.69h-3.13v-1.69ZM434.29,562.27v-1.72c1.02.57,1.02,1.15,0,1.72ZM437.44,613.9v-1.72c1.02.57,1.02,1.15,0,1.72ZM438.23,636.29h3.13v3.42h-3.13v-3.42ZM439.01,650.05v-1.72c1.02.57,1.02,1.15,0,1.72ZM438.23,655.22h3.13v3.42h-3.13v-3.42ZM438.22,553.66h-2.33s-2.38-2.58-2.38-2.58l4.71-.84v3.42ZM438.21,543.34c.56,6.47-8.01,4.9-9.43.85l9.43-.85ZM425.64,565.71v-3.43s3.13,0,3.13,0l-3.13,3.42ZM424.06,558.82v-3.43s3.14,3.42,3.14,3.42h-3.14ZM424.06,546.78l3.14.02-1.59,6.87-3.14-.02,1.59-6.87ZM422.48,701.66c2.7-6.01,10.87-2.67,15.74-3.42,5.47,4.55-14.74,3.62-15.74,3.42ZM425.64,720.61v-3.43s3.13,0,3.13,0l-3.13,3.42ZM433.49,768.79h-4.71v-3.42h4.71v3.42ZM447.67,749.88l-.06,8.53c-5.33-.49-8.5,2.05-12.52,5.23-1.82-2.01,10.97-15.79,12.58-13.76ZM438.22,768.79l.13-5,8.32-1.74,1.87,1.51.71,5.23h-11.03ZM444.53,701.68c-.12-1.12,2.09-3.44,2.36-3.44h33.86v3.44h-36.23ZM477.59,739.53h-1.54v-3.42h1.54v3.42Z"/>
    <path d="M504.39,218.06c.81-56.18-7.91-115.68-49.66-153.15-13.18-11.83-24.75-16.06-39.6-22.86.03.33-.34.71-.76.54-1.07-.46-2.15-.92-3.22-1.39-4.3-1.86-8.6-3.7-13.02-5.28-4.48-1.6-9.03-2.74-13.68-3.74-3.95-.85-7.93-1.62-11.92-2.26l37.46,236.19,94.38-5.04v-39.58h-11.02c-1.78-6.79,9.64-1.91,11.03-3.43ZM439.01,247.31v-1.72c1.02.57,1.02,1.15,0,1.72ZM439.01,242.15v-1.72c1.02.57,1.02,1.15,0,1.72ZM444.52,247.3h-3.13v-1.69h3.13v1.69ZM455.54,252.47h-1.54v-3.42h1.54v3.42ZM463.42,255.9h-3.13v-1.69h3.13v1.69ZM483.89,233.54h-1.54v-3.42h1.54v3.42ZM486.27,231.82v-1.72c1.02.57,1.02,1.15,0,1.72ZM490.2,221.5h-54.34c-2.58-.66-2.46-3.98.02-5.16,16.4,2.27,35.76-.55,51.98,1.72,2.87.4,2.54-.58,2.33,3.45Z"/>
    <path d="M172.82,61.44v1.72c1.02-.57,1.02-1.15,0-1.72Z"/>
    <path d="M188.57,570.88v1.72c1.02-.57,1.02-1.15,0-1.72Z"/>
    <path d="M188.57,567.43v1.72c1.02-.57,1.02-1.15,0-1.72Z"/>
    <path d="M444.53,718.89l-1.58,1.72c1.09-.24,1.73-.13,1.58-1.72Z"/>
    <path d="M484.69,607.02v1.72c1.02-.57,1.02-1.15,0-1.72Z"/>
    <path d="M474.45,742.99l-1.55.87c-.07.76,1.56.76,1.55.85-.19-.08.19-1.63,0-1.72Z"/>
    <path d="M265.73,522.66l-7.05-5.14c.73,4.88.32,12.79,5.5,13.77,7.96,1.51,19.17-1.1,27.56,0v-18.93c4.63.24,12.5-.02,12.59-6.89l-10.15,3.38c-4.01-2.1-.45-5.99-1.56-8.53-.99-2.27-5.54-3.91-7.2-6.11l-5.49,4.35-2.35-8.54c4.51-2.11,11.81,2.58,14.16-3.46h-31.49c2.18,3.84,9.27.67,13.11,2,6.14,2.12-.97,6.03-1.42,10.15l-13.26-.11-.02,13.75,25.2,4.34-18.12,5.97Z"/>
    <polygon points="247.62 460.73 244.49 463.32 247.63 464.16 247.62 460.73"/>
    <path d="M277.48,478.06c.91,1.04-1.42,5.61,1.64,5.03,4.79-13.88-9.35-4.46-17.3-6.86,1.82,4.21,14.2.15,15.66,1.83Z"/>
    <polygon points="280.71 464.18 278.38 464.19 275.99 467.59 280.71 467.6 280.71 464.18"/>
    <polygon points="275.96 458.15 273.63 455.6 271.3 458.15 273.63 460.69 275.96 458.15"/>
    <rect x="263.4" y="464.19" width="6.28" height="1.69"/>
    <rect x="282.3" y="474.51" width="6.28" height="3.42"/>
    <path d="M298.8,515.82h-2.33s0,6.86,0,6.86h4.71c.37-3.18.09-5.05-2.38-6.86Z"/>
    <rect x="287.02" y="546.8" width="3.13" height="1.69"/>
    <path d="M265.75,548.5v1.72c1.02-.57,1.02-1.15,0-1.72Z"/>
    <path d="M405.94,615.63v1.72c1.02-.57,1.02-1.15,0-1.72Z"/>
  </g>
</svg>