<?xml version="1.0" encoding="UTF-8"?>
<svg id="Layer_2" xmlns="http://www.w3.org/2000/svg" version="1.1" viewBox="0 0 1220.3 595.28">
  <!-- Generator: Adobe Illustrator 29.5.1, SVG Export Plug-In . SVG Version: 2.1.0 Build 141)  -->
  <defs>
    <style>
      .st0 {
        fill: #fff;
      }
    </style>
  </defs>
  <text/>
  <rect class="st0" x="1551.48" y="270.29" width=".98" height="1.99" transform="translate(-14.24 442.17) rotate(-16.14)"/>
  <path class="st0" d="M1459.72,80.1c-.5-.53-.82-.44-.96.28l.96-.28Z"/>
  <g>
    <path d="M441.75,394.74v.93c.62-.31.62-.62,0-.93Z"/>
    <rect x="444.14" y="416.05" width=".93" height="1.84"/>
    <polygon points="445.08 397.52 442.23 397.52 442.24 399.37 445.07 399.37 445.08 397.52"/>
    <path d="M441.7,430.04l9.08.83v-11.11s-12.35-.93-12.35-.93c-.98,1.1,1.77,9.94,3.27,11.21ZM446.51,424.39c.62.31.62.62,0,.93v-.93ZM443.18,422.54h1.89v.91h-1.89v-.91Z"/>
    <path d="M441.28,404l1.89.94.96-4.63c-3.57-.06-3.75,4.95-3.79,7.4l.95-3.71Z"/>
    <path d="M439.85,369.73c.62-.31.62-.62,0-.93v.93Z"/>
    <rect x="447.94" y="415.13" width="1.89" height="1.84"/>
    <polygon points="446.97 438.28 446.97 436.91 445.55 435.52 446.04 438.28 446.97 438.28"/>
    <path d="M443.65,432.72v.93c.62-.31.62-.62,0-.93Z"/>
    <path d="M450.79,434.58c.13.06-.13.85,0,.93,1.26.71,3,.98,4.3,1.76l1.41-1.75c-2,.2-3.82-.58-5.71-.94Z"/>
    <rect x="456.5" y="437.36" width="1.89" height="1.84"/>
    <path d="M434.14,361.39v.93c.62-.31.62-.62,0-.93Z"/>
    <path d="M430.34,438.28v.93c.62-.31.62-.62,0-.93Z"/>
    <path d="M434.14,364.17c.62-.31.62-.62,0-.93v.93Z"/>
    <path d="M449.86,435.04l.93-.46c-.09-.02-.57-1.15-1.39-.93l-1.33,1.37.83,3.27c2.29.49,2.2-.65,1.89-2.78,0-.05-.9.13-.93-.46Z"/>
    <path d="M525.94,241.89c.05.11.9-.11.95,0l-.48-.91c-.35.02-.62.57-.48.91Z"/>
    <path d="M552.12,440.14c.53-1.37-.72-4.85-.49-6.49,2.93,1.66,1.01,6.11,4.74,7.41l-.95-67.62c-4.47,2.47-9.15,3.6-13.82.96l-6.14-4.66c1.82,2.56.12,4.52,0,6.95-.33,7.06,1.51,16.17-3.8,21.76-.51-12.77.64-25.72.03-38.48-1.24-25.9-6.97-52.28,1.87-77.77l1.41-79.22c-28.45,17.82-63.21,33.77-79.58,64.23-2.41,4.48-2.89,7.45-4.91,11.01-6.09,10.76-8.7,34.12-9.24,46.54-.71,16.23.82,32.48.99,48.68l-1.41-2.77c-4.99,8.71,6.21,16.61,3.33,25.93,1.75,1.1.91-6.35,2.38-2.79,2.86,6.94,4.57,15.72,6.83,22.97l2.18,1.14v1.84s-2.83-.92-2.83-.92l1.38,12.12,5.26,1.77c.76-1.88-2.82-3.53-2.83-4.17-.01-4.05,3.78.99,4.03,1.14.98.6,2.73.1,4.1,1.09,1.61,1.17,1.43,3.95,5.14,3.8l.97-2.78c.14,4.45,4.05,6.86,7.59,8.83,3.29,1.83,9.46,2.18,8.6,5.99l1.88-.45.96-2.33c-.58,2.76.82,5.35.97,7.87.15,2.62-2.76,4.47.97,5.67.93,1.4-1.94,5.78-2.85,4.52l-2.73-11.21c-2.18-3.64-4.47-2.5-5.48,1.2-1.39,5.07,2.58,8.99,1.52,14.18l5.21-1.87.49,2.8,2.84-.93c-.18,2.58,1.19,5.19-1.79,5.97l1.78,3.29,1.9-3.69c1.97,3.34-2.12,2.59-.93,6.47l1.41-2.77c11.12,12.41,7.44-6.46,10.44-9.29,2.36-2.22,6.31-1.3,6.14,2.25l1.92.49c1.29-2.58,3.72-4,1.95-7.34,4.32-.58-.81,4.1,2.37,5.53l5.75-1.94,2.33,1.96v-3.71c-3.44,1.85-4.55-.36-2.36-2.78l3.32,1.85c-1.51-4.07.06-5.23,2.41-8.37,4.74-.86,3.37,7.72,6.17,10.22l.94-2.78,5.7,1.86c1.33-1.38-4.71-6.73-2.65-10.01.36-.58,4.08-1.02,2.53-3.76-.33-.58-5.24-2.54-6.53-1.96l1.95,1.5c-.13,1.94.2,6.55-2.9,5.9v-7.41s-3.81,0-3.81,0v4.62s-1.9-7.4-1.9-7.4h22.83l-.95-5.55c1.74-1.91,2.16,4.02,3.34.93ZM444.12,383.62h-.93s-.96-2.77-.96-2.77h1.9s0,2.77,0,2.77ZM442.24,379.92v-1.85s1.89,0,1.89,0l-1.89,1.84ZM456.97,296.54c.62.31.62.62,0,.93v-.93ZM449.36,284.5c.62.31.62.62,0,.93v-.93ZM449.83,368.79h-1.89v-.91h1.89v.91ZM450.31,355.83v-.93c.62.31.62.62,0,.93ZM454.12,357.68v-.93c.62.31.62.62,0,.93ZM452.69,314.15c.89-1.23,5.01-.69,5.69,1.38-2.09,4.34-7.64,1.31-5.69-1.38ZM458.87,278.94v-.93c.62.31.62.62,0,.93ZM470.76,407.71v1.85s-1.89-.45-1.89-.45l1.89-1.39ZM469.81,379c.97.96-1.89,3.71-2.84,2.77-.97-.96,1.89-3.71,2.84-2.77ZM464.12,277.09h.93v1.84h-.93v-1.84ZM462.68,297.47v-.93c.62.31.62.62,0,.93ZM469.34,416.97v-.93c.62.31.62.62,0,.93ZM463.16,413.26c-.64-3.06,4.94-2.44,6.65-2.77l-6.65,2.77ZM471.25,428.09l-1.43-1.84h1.9s-.47,1.84-.47,1.84ZM474.09,408.64c.62.31.62.62,0,.93v-.93ZM474.56,416.97h-.93v-3.7h.93v3.7ZM475.05,431.8v-.93c.62.31.62.62,0,.93ZM475.52,411.41h-1.89v-.91h1.89v.91ZM487.41,430.87v-.93c.62.31.62.62,0,.93ZM487.41,410.49v-.93c.62.31.62.62,0,.93ZM491.22,463.29v-.93c.62.31.62.62,0,.93ZM494.54,469.77h-1.89v-.91h1.89v.91ZM530.69,284.49h-1.89v-.91h1.89v.91ZM528.8,259.95l1.42-1.38,1.43,1.83-2.85-.45ZM530.69,213.17v1.37s-1.89,1.4-1.89,1.4v-2.77s1.89,0,1.89,0ZM529.27,216.88l.47,1.84h-1.9s1.43-1.84,1.43-1.84ZM529.74,222.44v1.84h-1.89v-1.84h1.89ZM529.95,231c1.98,4.28.37,11.8.73,16.44l-3.8-5.56-.48.91c-.42.04-.42-.92-.47-.91-.41.06-1.74,1.18-1.89.93v-2.78c8.87.94,2.46-2.65,2.84-7.42l-2.83,1.85-.02-2.78c3.59,1.66,4.37-4.06,5.92-.69ZM530.69,252.08v1.85s-2.84-.94-2.84-.94v-.91s2.84,0,2.84,0ZM530.22,250.22v-.93c.62.31.62.62,0,.93ZM518.33,444.77h1.88s.96,3.7.96,3.7h-1.41c-1.49-.98-1.66-1.99-1.44-3.7ZM507.87,456.8c-1.63-3.83,1.25-7.59-1.89-10.65l4.25-1.38-1.41,1.85,2.84,4.63-2.84-.92c-.24.24,1.42,6.21-.95,6.48ZM511.66,465.15l-1.89-1.39,1.89-.45v1.85ZM509.77,459.58v-1.85s1.9,1.84,1.9,1.84h-1.9ZM514.05,460.5c-1.33,0-3.07-6.65.46-5.54.06,1.89,1.78,4.18-.46,5.54ZM513.58,447.54v-1.84h3.8v1.84h-3.8ZM517.85,452.18v-.93c.62.31.62.62,0,.93ZM516.43,449.87l1.42-1.38,1.43,1.83-2.85-.45ZM520.71,454.02l-1.42-1.4v-1.37s1.89,0,1.89,0l-.47,2.77ZM522.13,450.31h-1.89v-.91h1.89v.91ZM524.52,448.45c-.46-.54-1.91-1.17-.97-1.82.53.59,1.92,1.21.97,1.82ZM524.99,244.67h1.89v.91h-1.89v-.91ZM524.99,249.3h1.9s-1.89,1.85-1.89,1.85v-1.85ZM525.94,255.77v-.91h4.75v.91h-4.75ZM551.15,425.31v-.93c.62.31.62.62,0,.93ZM553.53,421.61h.93v1.84h-.93v-1.84ZM552.58,407.71h.93v1.84h-.93v-1.84ZM550.68,409.56l1.88,1.4v1.37s-1.89,0-1.89,0v-2.77ZM547.87,420.16l-.05-1.33h1.88s.96,4.63.96,4.63l-2.79-3.3ZM550.2,404.95c.95.61-.44,1.23-.97,1.82l-.45-.44,1.42-1.38ZM548.3,407.73l-6.21,11.1-1.44-1.85,7.65-9.24ZM539.73,412.34c.62.31.62.62,0,.93v-.93ZM537.37,434.11l1.41-1.39.46,2.77-1.87-1.39ZM540.2,416.04h-.93v-1.84h.93v1.84ZM543.05,442.91h-.93v-1.84h.93v1.84ZM540.21,432.72v-1.37s2.39-2.33,2.39-2.33l2.36,1.4v1.37s-4.74.93-4.74.93ZM542.58,420.7c2.7,3.98,5.99,8.07,6.68,12.93l-6.68-12.93ZM548.78,435.51h.93v1.84h-.93v-1.84Z"/>
    <path d="M485.04,447.55c-.98.45,2.56,2.21,3.8,1.83-.46-1.78-2.1-2.09-3.8-1.83Z"/>
    <path d="M526.41,463.29v.93c.62-.31.62-.62,0-.93Z"/>
    <rect x="487.9" y="450.33" width=".93" height="1.84"/>
    <rect x="510.72" y="469.79" width="1.89" height=".91"/>
    <path d="M514.05,467.93v.93c.62-.31.62-.62,0-.93Z"/>
    <path d="M479.8,469.78c.62-.31.62-.62,0-.93v.93Z"/>
    <path d="M487.41,471.63v.93c.62-.31.62-.62,0-.93Z"/>
    <path d="M488.36,476.26v.93c.62-.31.62-.62,0-.93Z"/>
    <path d="M489.79,469.77c.46-.35-1.66-2.45-2.85-1.83-.46.35,1.66,2.45,2.85,1.83Z"/>
    <path d="M637.4,579.88c-.65,0-.65,1.01,0,1.01s.65-1.01,0-1.01Z"/>
    <path d="M815.6,582.82l-1.42,1.38.45.44c.53-.59,1.92-1.21.97-1.82Z"/>
    <path d="M424.63,412.34v.93c.62-.31.62-.62,0-.93Z"/>
    <path d="M251.5,344.72v.93c.62-.31.62-.62,0-.93Z"/>
  </g>
</svg>