<?xml version="1.0" encoding="UTF-8"?>
<svg id="Layer_1" xmlns="http://www.w3.org/2000/svg" version="1.1" viewBox="0 0 1920 1080">
  <!-- Generator: Adobe Illustrator 29.5.1, SVG Export Plug-In . SVG Version: 2.1.0 Build 141)  -->
  <rect x="1831.59" y="7.61" width="1.48" height="3.47"/>
  <text/>
  <g>
    <path d="M1636.07,331.65c2.1.15,9.81,1.37,10.26-1.7l-14.16-1.73c-.65,4.81.75,3.21,3.9,3.44Z"/>
    <polygon points="1564.42 59.72 1564.42 52.84 1562.88 52.84 1561.33 57.15 1564.42 59.72"/>
    <path d="M1560.5,99.3v1.72c1.02-.57,1.02-1.15,0-1.72Z"/>
    <path d="M1529.68,58.77l2.91,1.21-1.22,4.89,3.92-5.15,4.92,8.7c6.36.81,7.82-.03,8.49-6.98l9.42,6.87-3.26-14.44c.33-2.03,4.38-1.37,6.03-3.17,1.66-1.81,3.02-7.28.41-9.09-5.44,1.42-42.55-6.42-33.89,7.85,1.52,2.5,6.71-.07,2.26,9.31ZM1547.89,45.98c4.73,3.53,6.13,9.85-.78,10.29l.78-10.29ZM1539.23,51.13l-2.36,3.39-2.35-2.56,4.72-.83Z"/>
    <path d="M1558.11,85.52l4.74.03-3.21,2.57c-.43,6.03,3.14,7.11,6.44,3.14l-3.21-10.87,7.84-2.6-10.98-6.02-1.62,13.76Z"/>
    <polygon points="1569.17 142.33 1572.29 139.72 1572.3 137.17 1569.17 137.17 1569.17 142.33"/>
    <polygon points="1558.14 102.76 1558.14 104.45 1562.83 105.34 1560.47 102.76 1558.14 102.76"/>
    <rect x="1584.92" y="157.83" width="3.13" height="1.69"/>
    <path d="M1563.65,119.95c1.02-.57,1.02-1.15,0-1.72v1.72Z"/>
    <polygon points="1569.18 135.43 1570.72 135.43 1570.73 128.57 1567.59 128.57 1569.18 135.43"/>
    <path d="M1548.68,87.25v-1.72c-.25,1.48-.06.85,0,1.72Z"/>
    <path d="M1551.77,95l4.75-17.11c-4.78-7.16-6.92,2.27-7.84,7.64l3.17.86-3.17.86c.16,2.28-.71,8.63,3.09,7.75Z"/>
    <path d="M1584.12,242.15v1.72c1.02-.57,1.02-1.15,0-1.72Z"/>
    <path d="M1310.05,40.78v1.72c1.02-.57,1.02-1.15,0-1.72Z"/>
    <path d="M1310.04,56.24c.87-1.1,3.17-2.24,1.61-3.37l-2.35,2.56.74.81Z"/>
    <path d="M1310.07,59.75l-2.35,2.56.74.81c.87-1.1,3.17-2.24,1.61-3.37Z"/>
    <path d="M1480.71,69.98c-1.03-.27-6.53-3.53-6.05,3.51,2.48-.89,4.32-2.18,6.05-3.51Z"/>
    <path d="M1399.03,66.59c-.36-6.77,2.37-15.63-4.69-18.92-.33,2.98.15,5.77.7,8.68.41,2.17,1.92,9.51,3.99,10.24Z"/>
    <path d="M1443.94,35.62v1.72c1.02-.57,1.02-1.15,0-1.72Z"/>
    <polygon points="1397.49 73.48 1400.62 70.06 1397.48 70.05 1397.49 73.48"/>
    <path d="M1381.72,63.14l-.8-5.12c8.45,9.17,5.09-12.04-.75-13.79-1.17,6.35.94,10.57-3.18,16.29.77,1.51,3.71,3.71,4.73,2.61Z"/>
    <path d="M1388.81,49.39v1.72c1.02-.57,1.02-1.15,0-1.72Z"/>
    <path d="M1384.08,68.32c1.02-.57,1.02-1.15,0-1.72v1.72Z"/>
    <rect x="1383.3" y="63.18" width="3.13" height="1.69"/>
    <path d="M1143.09-7.41v1.72c1.02-.57,1.02-1.15,0-1.72Z"/>
    <path d="M1143.09-16.01v1.72c1.02-.57,1.02-1.15,0-1.72Z"/>
    <polygon points="1239.98 39.05 1241.52 39.05 1241.53 28.74 1238.39 28.74 1239.98 39.05"/>
    <path d="M1236.69.45c.39,3.37,3.36,1.76,3.45,4.98.18,6.29-5.59,17.08,1.38,21.58-3.08-17.17,5.47-32.41-1.56-49.91h-3.15c.71,7.35-.95,16.3-.12,23.35Z"/>
    <polygon points="1256.51 -3.96 1254.15 -1.36 1254.14 1.19 1257.28 1.19 1256.51 -3.96"/>
    <rect x="1306.13" y="39.07" width="1.54" height="3.42"/>
    <polygon points="1309.25 44.23 1307.71 44.23 1307.7 46.78 1310.07 49.35 1309.25 44.23"/>
    <path d="M1262.8,44.23v1.72c1.02-.57,1.02-1.15,0-1.72Z"/>
    <polygon points="1263.58 58 1260.44 58.01 1262.81 61.43 1263.58 58"/>
    <polygon points="1265.16 47.69 1262.02 47.68 1262.03 51.11 1265.16 47.69"/>
    <polygon points="1502.22 101.06 1499.86 105.3 1502.99 107.9 1504.55 103.6 1502.22 101.06"/>
    <path d="M1481.02,69.74c-.1.08-.21.16-.31.24.08.02.13.03.15,0,.04-.03.1-.12.15-.24Z"/>
    <path d="M1503.79,116.51v1.72c1.02-.57,1.02-1.15,0-1.72Z"/>
    <rect x="1536.1" y="106.19" width="1.54" height="3.42"/>
    <path d="M1491.2,54.57c-6.58.49-9.27,13.2-10.18,15.18,2.96-2.31,5.64-4.68,10.64-5.26l-.46-9.91Z"/>
    <path d="M1479.36,51.11l1.57-10.32c-4.28,1.86-7.36,7.78-1.57,10.32Z"/>
    <path d="M1493.53,52.82c.46-.53,1.97-7.66,1.58-8.58-2.09-.95-3.72,7.17-3.12,8.59.51-.09,1.33.24,1.54,0Z"/>
    <path d="M1496.68,95.01l42.55,4.28c1.24-6.66-1.3-7.01-5.65-10.2l-3.02,3.39c-5.54-4.76-5.22-.82-10.23-.77l-9.43-16.47,3.95-3.48-14.2-6.84c-3.47,10.96-4.63,9.25-13.38,12.88,9.34,1.44,5.87,10.22,9.42,17.21ZM1510.09,90.69c1.02.57,1.02,1.15,0,1.72v-1.72ZM1499.86,78.65l7.88,1.73c-1.65,3.09-1.5,5.44-.02,8.58-1.38,1.59-10.05-7.48-7.86-10.3Z"/>
    <path d="M1506.15,44.23h-4.71c2.75,7.84-.53,11.57-1.57,18.92,7.74-5.11,5.17-10.07,6.28-18.92Z"/>
    <path d="M1532.14,106.18c1.02-.57,1.02-1.15,0-1.72v1.72Z"/>
    <path d="M1540.81,77.8c-.39-1.64-7.07-3.63-6.34-7.76-5.6,5.92-10.65,2.63-17.28,1.73l1.58,8.61c2.19-2.97,23.85,4.92,22.04-2.59Z"/>
    <path d="M1526.66,86.41l.74.81c.87-1.1,3.17-2.24,1.61-3.37l-2.35,2.56Z"/>
    <path d="M1520.35,82.09c-1.05,2.16,2.52,6,3.12,5.16,1.05-2.16-2.52-6-3.12-5.16Z"/>
    <path d="M1519.56,51.08l-.02-5.12,3.87.95-1.51-6.11-1.57,3.43-1.57-3.43c-4.25-4.52-2.83,10.2.81,10.28Z"/>
    <path d="M1521.89,64.87c.36-2.11-2.31-8.81-3.12-6.86-.36,2.11,2.31,8.81,3.12,6.86Z"/>
    <rect x="1084.04" y="550.23" width="1.54" height="6.87"/>
    <path d="M1044.92,1052.52c-1.07,0-1.07,1.88,0,1.88s1.07-1.88,0-1.88Z"/>
    <path d="M1086.39,531.29v1.72c1.02-.57,1.02-1.15,0-1.72Z"/>
    <path d="M1239.17,550.22v1.72c1.02-.57,1.02-1.15,0-1.72Z"/>
    <path d="M1131.24,485.68c0-4.76-7.07-.03-4.69,2.57.9.99,4.69-1.43,4.69-2.57Z"/>
    <polygon points="1149.4 538.17 1150.17 533.02 1147.04 533.02 1147.04 535.57 1149.4 538.17"/>
    <polygon points="1132.86 483.11 1132.87 486.54 1136 483.12 1132.86 483.11"/>
    <path d="M1134.49,519.16c11.89,3.07,47.9-14.05,34.67-30.13-5.47-6.64-30.26-4.01-35.64.82-5.17,4.64,1.35,22.2.97,29.31ZM1146.24,493.43c1.02.57,1.02,1.15,0,1.72v-1.72Z"/>
    <polygon points="1147.01 548.5 1147.02 541.63 1140.74 541.63 1140.74 545.03 1147.01 548.5"/>
    <path d="M1221.85,557.11v1.72c1.02-.57,1.02-1.15,0-1.72Z"/>
    <polygon points="1186.41 536.46 1175.39 538.16 1186.39 541.62 1186.41 536.46"/>
    <rect x="1115.54" y="305.84" width="1.54" height="5.15"/>
    <path d="M1193.49,321.32c1.02-.57,1.02-1.15,0-1.72v1.72Z"/>
    <path d="M1193.5,297.23c-5.14,2.82-3.81,11.46,2.35,12.03l-2.35-12.03Z"/>
    <polygon points="1365.96 104.47 1363.63 104.48 1361.24 107.89 1365.96 107.9 1365.96 104.47"/>
    <path d="M1612.41,725.81c-.69-13.82-.82-27.67-.83-41.5-.01-13.82.14-27.64.15-41.46.01-14,.28-27.99.59-41.98.31-14.04.63-28.09.63-42.14,0-.13.05-.23.11-.31-.07-.08-.11-.17-.11-.31,0-1.1,0-2.19.02-3.29.04-2.95.13-5.89.22-8.84-1.07-1.13-2.14-3.06-1.5-4.37.23-.33.93.07,1.62.8.01-.38.02-.75.04-1.13.01-.47.02-.93.03-1.4h-1.69s0-3.43,0-3.43l1.72,1.88c.07-3.41.12-6.81.21-10.22.22-8.47-.1-16.94-.57-25.39-.49-8.7-1.14-17.38-1.62-26.08-.47-8.6-.77-17.21-.52-25.82.02-.72.05-1.45.08-2.17l-16.64-.82c5.8-3.29,12.17-4.88,16.83-3.02.35-5.7,1-11.37,2.04-16.99-.44-12.33-5.58-15.25-17.31-13.57v-5.15c6.39.05,13.8.94,18.9-4.32-7.01-2.1.3-12.73-3.07-18.98l-14.26.91v-5.14c21.41.03,22.1-27.41-1.58-21.65-6.01,12.43-4.66,26.21-3.34,39.5l-9.25,2.8c.22-5.8-1.68-12.38,3.14-16.36l-3.23-1.8c2.63-5.22,1.27-11.84,2.23-16.8,1.02-5.26,5.99-5.03,1.01-13.21l11.8,1.7,1.57-5.13,3.49,5.24c4.21-1.87,11.14,1.97,13.04-3.52l-2.81-.88,1.26-2.56c-1.5-1.66-23.25-.24-27.54.02-3.61.21-6.27-4.27-7.15,3.39l-2.53-3.48c-8.34-2.51-5.05,8.92-11.62,8.64,2.47-9.58.7-10.61-7.9-11.17l7.69-2.79.2-6.68h-26.78v-1.72h22.84c.82,0,3.4-2.71,5.5-1.73l2.62,8.69,41.48-.08v-10.33s18.9,0,18.9,0c.11-2.46-5.88-2.72-7.63-2.97-3.22-.46-6.38.87-9.68-.47l3.14-8.58-34.64-.02,8.66-5.15h35.44c.36,4.31-3.82,9.02.72,11.65l19.75-1.34c.35-4.49.22-2.86-2.36-3.38-4.88-.99-13.58.09-16.53-5.2,5.29-.55,11.42.7,16.57-.01,2.3-.32,4.89-1.31,2.33-3.44l-34.62-1.76c-2.4-8.65,2.81-8.17,3.09-8.63.32-.53-4.53-7.31-1.46-11.91l31.94-1.73,2.64-5.22c-2.55-2.06-18.05,4.72-21.27-1.71l-.79,5.11c-7.54,2.24-13.6-2.13-19.7-3.14-4.11-.68-8.17,3.46-9.4,3.17-2.1-.5-1.83-5.89-3.4-7.06-1.94-1.44-14.55-4.96-14.75.15l11.02,1.76c-2.97,6.74-11.61,1.07-17.32,3.42l.11-10.23,4.63-.95c-6.11-2.49-4.94-6.6-4.74-12.91,9.15,1.9,18.6-.35,27.58-.12,8.75.23,17.02,2.28,26.78,1.84,1.91-.09,5.86,1.3,5.49-1.7l-59.85-1.73c.53-5.31-2.76-12.07,4.72-10.35l-4.74-1.72,1.61-3.42c-8.75-.66-15.49,2.6-23.63-1.75-.36-2.43,4.4-2.72,5.94-2.93,6.02-.85,13.13,1.31,17.67-3.08l-18.91-1.71,17.42-3.41-.07-7.76,7.86-.03-7.88-1.7,1.58-13.76-114.97-1.76c-.37-3,3.58-1.62,5.49-1.7,36.66-1.64,72.81-.07,109.48-.02l-39.37-5.15c-.22-3.98-.54-3.12,2.42-3.45,8.42-.94,22.14,4.19,31.45,4.21,1.47,0,5.93.14,5.49-2.45l-36.22-5.2c-5.28-4.72,13.4-3.36,14.99-3.43,1.91-.09,5.86,1.3,5.49-1.7-8.96-.28-18.64.41-26.76-4.31,8.2-5.38,21.56.23,30.73.83,6,.39,12.09-.2,18.09,0-.77-2.26-8.37-3.01-10.43-3.21-8.59-.82-17.38.59-25.79-1.96-1.28-6.05,4.87-1.66,8.58-1.62,5.26.05,13.19.8,17.81-1.35,2.25-1.05,2.38-.45,1.95-3.88-8.64-.51-18.64.74-27.1-.6-2.63-.42-7.1-.07-5.96-4.57,11.41,3.82,24.39-1.61,34.63,5.16l-4.71-8.59,14.17-3.48c-3.28-8.8-13.28-1.29-20.46-3.43-.43-2.36.55-4.14,2.62-4.86,3-1.04,9,1.86,8.38-2.85l-18.87-5.22c-.47-5.53,7.44.59,6.31-5.98l3.92,3.42c3.98-10.65-5.51-9.33-8.5-14.81-2.19-4.01-2.83-11.53-4.92-16.15-2.88-2.86-6.38,8.35-6.26,10.32l6.28-1.72.87,10.34-10.32-.02c1.12-5.33,2.69-11.2-3.12-13.76l-.21,13.6c-8.06-1.42-5.58,3.85-10.04,8.74-2.74.01-8.48-29.96-8.68-34.38-5.31,2.9.84,15.31-4.69,13.78,2.73,3.97,5.16,8.42,1.6,13.01-1.19.93-7.09-.59-8.41-1.33-2.92-1.64-1.63-4.92-4.22-4.82.18,2.75,1.15,9.47-3.94,6.86-4.06-2.08.5-9.28-3.17-12.05l-3.18,12.02c-2.75-3.44-25.11,2.31-21.15-5.03.49-.92,7.15-1.92,3.08-10.41l4.7,1.71c-1.52-5.83-5.79-11.27-.02-16.35l-6.28-2.6,1.62-5.13,11.1,6.16-.11,7.6-4.69-1.74-1.67,5.86c4.62,1.84,3.36,4.68,3.24,9.64l1.57-5.17,6.28,1.74c.56-.82-1.92-17.43-2.61-20.21-1.11-4.45-5.98-22.54-9.96-17.62l-1.57-5.18-3.15,12.02c.85-9.56-6.97-18.33-6.26-26.47.45-5.13,4.46-10.52,3.08-16.54-6.08-1.78-1.79,8.3-3.15,10.34l-3.13-1.75.79,5.11-5.52.05,1.59-5.13-6.31-1.73c1.79,4.72-1.26,18-7.09,17.21l-.54-19.88,2.77-1.53-1.46-6.14-3.15,3.45-3.92-3.28c-5.66,3.86-3.64,7.75-2.38,13.61-7.75-2.4-5.59-11.99-13.34-5.14l-3.17-5.18c-3.72,2.35-.34,5.27-.67,7.5-.27,1.83-4.91-.09-3.27,4.53,7.32-3.27,7.96,16.36,3.9,17.23l-9.41-6.9-8.66-17.19,1.52,14.36c5.54,2.09.87,3.92,1.51,8.69.21,1.57,5.2.15,3.26,4.47l-11.02-1.7-.75,12.08-10.26,3.39c-1.46-2.24,5.6-13.69-6.41-18.16-4.17-1.55-8.56,7.98-10.85-1.67-5.78-5.27-7.08,19.85-7.95,23.26l23.61.02c.25,4.09.51,3.03-2.34,3.42-7.46,1.02-15.32,1.59-22.84,1.74l2.35,5.13,3.15-3.39,2.36,2.59-1.58,4.26,14.19.02v-6.91s3.16,6.89,3.16,6.89l7.87-1.74-4.74-12.01c6.99-1.89,13.8,4.32,11.03,12.02l12.59-3.42v5.1s-51.81,5.4-51.81,5.4l-20.62,87.59-20.51-99.81c-5.54,3.37-3.75,12.09-5.13,17.59-.51,2.03-3.26,10.15-4.22,10.87l-22.12-.95v-8.58s3.95,5.12,3.95,5.12l.02-5.14c3.42,1.77,6.27.64,8.6-2.57l-4.68-.86c-.91-8.52,8.72-5.59,4.69-15.48l-3.11,3.42c-1.8-4.21-5.62-6.59-1.2-11.6,3.95-4.48,9.02,2.37,13.77-.42l-.8,5.11,8.68-1.69-4.75-25.8-8.37,3.49c-5.64-8.99-19.67-19.03-13.66-31.01-4.94-1.25-3.37,4.13-3.92,6.84-1.62-2.19-3.86-4.98-5.51-.8-1.67,4.22,6.39-.41,4.69,6l-3.13-.84c-1.65,10.05.98,16.46-11.02,18.07l-.02-5.19-5.43,1.84-.9-3.49-3.05.04c-3.43,10.28-6.46-3.02-8.75-6.97-5.31-.76.92,7.57-.78,10.29h-11.01s6.28-8.58,6.28-8.58l-9.43,3.43,1.56-20.63h-4.72c2,7.26.72,17.13-2.35,24.08-2.69-3.83-3.4-11.88-3.79-16.66-1.38-17.12.28-36.37-1.75-53.89l-1.63,14.7,1.65,31.76h-56.7v5.15s7.82-2.69,7.82-2.69l3.2,1.9-1.59,11.13c-3.21-1.71-4.37-5.78-8.64-5.32-3.93.42-2.43,4.74-6.23,5.42-11.13,2.02,3.77-14.15,2.28-15.59l-18.89-.02,1.57-63.67h-1.58l-1.58,63.69h-4.72V-2.24h-1.58v43.03h-67.73l-1.13,49.17,4.3,3.33-4.85,1.8.12,35.19,17.32-8.58c-1.86,6.47-12.94,7.68-15.77,11.15-4.02,4.92-.12,33.26-1.7,41.47l3.29,3.29-2.8,3.84-.35,369.67,1.57,6.01v-39.58h30.71l7.21,39.44c4.02-.82,8.46,3.48,10.86-.71l-21.77-67.49,10.75-9.99-13.76,8.55,4.34,16.42h-25.99l-2.36-2.58v-50.77h124.43c-.41,17.63,1.32,36.16-2.27,53.46-1.16,5.58-5.84,11.74-5.29,17.56.99,10.6,7.33,23.19,4.4,35.7h15.77l1.58-194.5-12.56-1.72c-2.79,20.06-27.47,25.56-41.58,16.98-14.97-9.1-20.63-41.2-18.32-58.29h-33.08c-1.53,9.69,1.44,16.54,10.59,18.55,5.15,1.13,11.16-1.55,14.61,2.97v38.72c-14.58-1.79-32.16-3.21-41.64-17.32-1.82-2.71-7.19-15.35-7.19-17.96v-57.66l72.29,1.89c1.95,13.9.64,37.57,11.15,47.2,13.25,12.14,19.32-6.07,9.53-17.29-2.93-3.36-8.07-3.69-9.91-8.1-.99-2.36-3.5-22.86-2.73-23.7l15.75-.03.8,5.21c3.25-9.75,11.04-2.61,18.18-4.41,2.93,2.37,1.24,31.63,1.44,38.03.33,10.35,3.96,21.91.46,32.71l2.18,2.26,10.03.26,1.56-68c1.82-18.55,15.64-25.65,31.52-23.22l-1.61,3.42c6.21-1.68,9.08,11.33,10.6,16.85,2.31,8.35,3.44,17.01,4.97,25.55,3.87,80.31.8,161.12,1.76,241.61l132.32-.87v-246.11c0-.5,1.42-2.94,1.64-5.1,1.23-12.09-.06-21.39,10.19-30.18,20.53-17.61,28.74,6.8,31.86,25.41,5.96,35.65,4.6,76.83,5.22,113.05.83,48.46-.75,97.05-.06,145.5h58.28v3.44h-58.28l-3.15,239.23h132.31c2.5-10.51-2.18-25.59,1.54-35.01.7-1.77,6.75-.05,6.25-7.21-.23-3.32-3.67-4.2-3.06-7.68,7.5.39,33.07-2.8,38.42,6.31-.87-10.72-2.52-21.36-3.05-32.11ZM1606.95,395.33v6.87s-9.42-2.6-9.42-2.6l9.42-4.27ZM1605.38,367.81l-2.35,3.38-3.94-1.69v-3.42s6.29,1.73,6.29,1.73ZM1634.53,321.32c1.02.57,1.02,1.15,0,1.72v-1.72ZM1594.35,292.07h12.62v6.87h-12.62v-6.87ZM1598.94,300.92l.83,2.97,5.66-.74,1.53,6.11-12.6-1.72c-.57-3.66.64-7.57,4.58-6.62ZM1592,283.46c1.02.57,1.02,1.15,0,1.72v-1.72ZM1591.23,292.07h1.54s0,6.87,0,6.87l-3.09-2.56,1.55-4.31ZM1589.64,302.4h3.13v5.15h-3.13v-5.15ZM1608.54,326.48v8.62s-33.09-.02-33.09-.02v-5.15c11.09-.93,21.54-4.41,33.09-3.46ZM1580.97,328.2v-1.72c1.02.57,1.02,1.15,0,1.72ZM1574.6,293.71c3.95-3.76,8.73-2.07,13.37-1.54l.1,6.77c-13.46-2.71-20.01,6.3-2.49,1.91l2.48,6.7h-14.16s.71-13.83.71-13.83ZM1569.95,280.01c1.02.57,1.02,1.15,0,1.72v-1.72ZM1572.28,314.44l1.58,6.88-4.7-4.33v-2.55s3.11,0,3.11,0ZM1568.37,324.76c1.02.57,1.02,1.15,0,1.72v-1.72ZM1563.65,304.11v-1.72c1.02.57,1.02,1.15,0,1.72ZM1563.65,297.22v-1.72c1.02.57,1.02,1.15,0,1.72ZM1564.42,285.17h-1.54v-3.42h1.54v3.42ZM1565.22,290.34v-1.72c1.02.57,1.02,1.15,0,1.72ZM1566.8,281.74c1.02.57,1.02,1.15,0,1.72v-1.72ZM1566.02,311h1.54v3.42h-1.54v-3.42ZM1566,276.58l-.77,3.42-2.37-3.42h3.14ZM1569.95,216.33c1.02.57,1.02,1.15,0,1.72v-1.72ZM1563.65,214.61c1.02.57,1.02,1.15,0,1.72v-1.72ZM1539.24,175.05h3.13v1.69h-3.13v-1.69ZM1550.25,157.8h-3.13v-1.69h3.13v1.69ZM1548.67,150.94l-.77,3.42-2.37-3.42h3.14ZM1535.29,168.14v-1.72c1.02.57,1.02,1.15,0,1.72ZM1536.07,164.68h-3.13v-1.69h3.13v1.69ZM1532.94,150.1c1.99-6.08,9.36,4.52,7.85,5.99-1.9,1.86-8.59-3.74-7.85-5.99ZM1528.99,152.65c1.02.57,1.02,1.15,0,1.72v-1.72ZM1528.21,164.72h3.13v1.69h-3.13v-1.69ZM1527.42,173.31c1.02.57,1.02,1.15,0,1.72v-1.72ZM1527.4,180.23c.87,1.1,3.17,2.24,1.61,3.37-.76-1.01-3.16-2.18-1.61-3.37ZM1525.84,149.21c1.02.57,1.02,1.15,0,1.72v-1.72ZM1531.34,190.53l-3.13,2.56,4.71,4.3-7.66-.1-1.77-6.77h7.85ZM1521.12,152.65c1.02.57,1.02,1.15,0,1.72v-1.72ZM1520.34,173.32h3.13v1.69h-3.13v-1.69ZM1499.07,173.31v-1.72c1.02.57,1.02,1.15,0,1.72ZM1511.67,180.19v-1.72c1.02.57,1.02,1.15,0,1.72ZM1517.17,185.34h-3.13v-1.69h3.13v1.69ZM1518.75,152.67c-.46,2.85-7.82,1.93-10.12,1.99-2.19.05-3.73,2.23-5.61-1.15l15.74-.83ZM1507.72,144.07c3.9,4.42-12.84,4.13-14.16,5.13-1.03-10.1,8.44-6.98,14.16-5.13ZM1499.07,154.37v-1.72c1.02.57,1.02,1.15,0,1.72ZM1495.92,154.37v-1.72c1.02.57,1.02,1.15,0,1.72ZM1517.19,162.99c.91,5.01-2.13,3.49-5.48,3.4l-19.72-5.12,25.2,1.71ZM1488.04,187.08c1.02.57,1.02,1.15,0,1.72v-1.72ZM1373.84,104.45l2.39-3.41h2.33s0,3.42,0,3.42h-4.72ZM1298.24,104.48l-3.13,3.42v-3.43s3.13,0,3.13,0ZM1313.23,82.11h2.33s0,3.42,0,3.42h-4.72s2.39-3.42,2.39-3.42ZM1307.68,76.93c2.02,2.37-2.79,9.13-4.71,6.87-2.02-2.37,2.79-9.13,4.71-6.87ZM1095.84,510.64c1.02.57,1.02,1.15,0,1.72v-1.72ZM1187.19,63.16c1.02.57,1.02,1.15,0,1.72v-1.72ZM1186.41,111.36h3.13v3.42h-3.13v-3.42ZM1182.47,57.99c1.02.57,1.02,1.15,0,1.72v-1.72ZM1173.8,106.19c-.03,6.31-4.68,6.31-4.71,0h4.71ZM1165.94,125.12c-1.05-2.16,2.52-6,3.12-5.16,1.05,2.16-2.52,6-3.12,5.16ZM1173.02,97.58c1.02.57,1.02,1.15,0,1.72v-1.72ZM1172.22,58v3.42h-6.29c.84-3.43,3.35-3.87,6.29-3.42ZM1164.37,75.21h1.54v3.42h-1.54v-3.42ZM1167.05,87.71c4.55,3.93-2.86,9.33.31,13.96l-3.8,2.76c-3.5-.02-1.28-15.95-2.34-18.9,1.65,1.26,4.72,1.21,5.83,2.17ZM1161.99,109.63v-1.72c1.02.57,1.02,1.15,0,1.72ZM1160.42,119.96l.76,5.15-3.1-2.58,2.34-2.57ZM1148.62,75.21h1.54v3.42h-1.54v-3.42ZM1137.58,75.22h3.13v1.69h-3.13v-1.69ZM1140.72,83.82v3.42h-3.13v-3.42h3.13ZM1138.36,82.09v-1.72c1.02.57,1.02,1.15,0,1.72ZM1136.72,90.62l7.92.1-.76-5.18c9.36,1.14,1.53,17.9,1.56,24.07l-1.64-5.03-7.8-.11.73-13.85ZM1143.09,123.4v-1.72c1.02.57,1.02,1.15,0,1.72ZM1137.56,106.19v3.42h-1.54v-3.42h1.54ZM1134.44,119.95l3.13,3.42h-3.14s0-3.42,0-3.42ZM1126.54,144.06c2.96,2.79-8.05,7.33-9.44,6.86.43-2.85,7.98-8.23,9.44-6.86ZM1115.53,123.39v-3.42h4.71v3.42h-4.71ZM1121.83,73.5h3.13v1.69h-3.13v-1.69ZM1122.61,87.25v-1.72c1.02.57,1.02,1.15,0,1.72ZM1121.04,57.99c1.02.57,1.02,1.15,0,1.72v-1.72ZM1116.31,61.44c1.02.57,1.02,1.15,0,1.72v-1.72ZM1118.68,82.11l-3.13,3.42v-3.43s3.13,0,3.13,0ZM1115.63,92.51l2.72,1.11c.7-3.58,1.81-3.2,5.05-2.94v12.04s-8.77-3.45-8.77-3.45l1.01-6.78ZM1109.23,83.83h4.71v1.69h-4.71v-1.69ZM1099.75,112.23c-5.19-3.28,7.95-11.2,8.69-11.17,5.56.23-1.31,16.52-8.69,11.17ZM1106.04,120.81l-3.1,2.58.76-5.15,2.34,2.57ZM1110.79,171.59c.43,5.28-3.97,5.58-7.86,5.14-.43-5.28,3.97-5.58,7.86-5.14ZM1104.51,159.52c-1.48-.77,6.44-5.87,7.86-5.13,1.46.76-5.75,5.39-7.86,5.13ZM1106.86,82.09c1.02.57,1.02,1.15,0,1.72v-1.72ZM1105.29,56.27c1.02.57,1.02,1.15,0,1.72v-1.72ZM1098.21,90.7l11.01,1.73-3.14,5.13,6.3,1.72c-4.37.86-7.63-1.85-11.03-4.34-1.8-1.32-4.09.45-3.13-4.24ZM1099.77,161.28c.77.65-2.75,4.56-4.72,3.41-.77-.65,2.75-4.56,4.72-3.41ZM1091.91,71.77h3.13v3.42h-3.13v-3.42ZM1090.34,80.37l3.12,2.61v2.55s-3.13,0-3.13,0v-5.15ZM1084.01,55.39c-1.66,2.7-3.37,3-6.28,2.6v-5.15s6.28,0,6.28,0v2.55ZM1076.14,47.66c-1.05-7.47,9.05-.51,12.62-1.7,1.14,7.32-8.94-.09-12.62,1.7ZM1088.76,95.85v-8.59s4.69,3.4,4.69,3.4c-4.82-1.12-1.43,4.99-4.69,5.19ZM1081.66,171.59c1.02.57,1.02,1.15,0,1.72v-1.72ZM1180.89,443.52v-1.72c1.02.57,1.02,1.15,0,1.72ZM1136.02,376.4h1.54v3.42h-1.54v-3.42ZM1133.64,326.48c1.02.57,1.02,1.15,0,1.72v-1.72ZM1100.56,391.37c32.57.5,65.7.32,98.46.51v37.86s-62.15.13-62.15.13l-1.65-5.3-1.65,5.3-58.99-.12v-37c1.73-5.96,21.1-1.45,25.98-1.38ZM1082.44,326.5v1.69h-3.13v-1.69h3.13ZM1080.09,317.88v-1.72c1.02.57,1.02,1.15,0,1.72ZM1200.58,215.47c-3.75,4.71-10.57,1.94-15.76,2.6v-6.89s-3.12,5.14-3.12,5.14l-4.74-6.86v8.6h-71.68c-7.03,0-8.03,16.04.32,18.58.88.27,11.66,2.07,12.28,2.07h82.69v36.14h-126.01v-35.28c0-4.55,10.02-.4,12.59-.87,1.12-1.1-9.39-15.15-10.28-18.87-2.18-9.04-1.26-22.52,3.98-30.19,1.59-2.33,9.97-9.45,11.82-9.45h107.9v35.28ZM1202.14,119.94h-1.54v-3.42h1.54v3.42ZM1248.62,83.81c1.02.57,1.02,1.15,0,1.72v-1.72ZM1247.05,95.86c1.02.57,1.02,1.15,0,1.72v-1.72ZM1244.69,104.48h3.13v1.69h-3.13v-1.69ZM1243.9,97.58c1.02.57,1.02,1.15,0,1.72v-1.72ZM1241.54,109.64h3.13v3.42h-3.13v-3.42ZM1243.11,180.21l-2.36,3.39-2.35-2.56,4.72-.83ZM1228.94,76.94h3.13v1.69h-3.13v-1.69ZM1232.08,107.92l-.77,6.84-2.38-6.83h3.14ZM1225.58,62.89c1.55-2.99-5.08-11.37,1.77-10.06l-.08,15.41-6.2.08c-1.23-4.43,3.88-4.2,4.51-5.43ZM1226.57,87.25v-1.72c1.02.57,1.02,1.15,0,1.72ZM1203.73,125.1l2.37-3.42.77,3.42h-3.14ZM1212.8,51.47c.98-2.44-1.03-4.73,3.52-3.8,2.03,6.93-4.1,11.59-1.56,17.19h-6.3c-.92-.93,3.5-11.33,4.33-13.4ZM1211.6,118.21h-3.13v-1.69h3.13v1.69ZM1210.05,99.29c-2.31-3.72-.55-21.08,4.73-18.09l3.12,6.02-4.69,2.6,2.43,6.07-5.59,3.41ZM1218.7,116.55c.76,0,3.64,4.94,3.74,6.26.85,11.11-10.1-6.3-3.74-6.26ZM1221.85,252.48v-1.72c1.02.57,1.02,1.15,0,1.72ZM1221.85,245.59v-1.72c1.02.57,1.02,1.15,0,1.72ZM1221.85,224.94v-1.72c1.02.57,1.02,1.15,0,1.72ZM1222.65,119.95v-5.15s6.28,0,6.28,0v3.42s-6.28,1.74-6.28,1.74ZM1229.72,245.59v-1.72c1.02.57,1.02,1.15,0,1.72ZM1233.65,221.49h-3.13v-3.42h3.13v3.42ZM1232.53,119.89c.78-2.39-2.24-4.08,2.7-3.36.24,6.7-6.55,15.17-2.7,3.36ZM1233.68,114.78v-3.42h1.54v3.42h-1.54ZM1230.52,92.42l9.19,2.52-2.92,12.95-6.27-15.47ZM1237.6,245.59v-1.72c1.02.57,1.02,1.15,0,1.72ZM1239.95,238.7h-3.13v-3.42h3.13v3.42ZM1239.96,199.14h3.14s-.77,3.42-.77,3.42l-2.37-3.42ZM1240.75,209.45v-1.72c1.02.57,1.02,1.15,0,1.72ZM1241.55,247.31v-3.43s6.28,0,6.28,0c-.52,3.52-3.83,2.11-6.28,3.42ZM1243.13,238.7v-3.42h1.54v3.42h-1.54ZM1241.54,231.81v-3.42c2.94-.44,5.45,0,6.29,3.42h-6.29ZM1243.13,176.75v-3.43s3.13,0,3.13,0l-3.13,3.42ZM1243.88,192.2l-.74-.81,2.35-2.56c1.57,1.13-.73,2.28-1.61,3.37ZM1246.25,211.18v3.42h-3.13v-3.42h3.13ZM1246.25,219.79v1.69h-3.13v-1.69h3.13ZM1250.2,245.59v-1.72c1.02.57,1.02,1.15,0,1.72ZM1257.82,95.44c-.26,10.28-3.38,21.88-.54,31.38h-14.17c-1.25-5.69,2.68-10.74,7.87-10.33-4.28-4.96-3.65-27.25,5.48-25.8,3.06,2.04,1.41,2.82,1.36,4.75ZM1446.29,720.59h-3.13v-1.69h3.13v1.69ZM1468.34,570.87h-1.54v-3.42h1.54v3.42ZM1469.14,601.86v-1.72c1.02.57,1.02,1.15,0,1.72ZM1595.94,539.89c-1.15-6.77,10.57-2.16,14.16-3.42,1.15,6.77-10.57,2.16-14.16,3.42ZM1594.37,525.28c3.18-3.87,12.08-4.4,14.17.83l-14.17-.83ZM1594.39,471.91c4.13-5.8,11.8-.92,14.14,4.29l-14.14-4.29ZM1608.53,462.44c-3.02-1.29-13.83,3.02-14.15-2.55,3.33-4.23,14.41-4.7,14.15,2.55ZM1603.8,424.59l-4.69,3.44.15-6.69c8.5-4.43,13.07,6.52,6.27,12.86-2.45,2.29-10.07,5.94-11.16.73,4.95-.72,10.35-4.16,9.43-10.35ZM1606.95,484.83c1.26,6.59-9.14,2.3-12.58,3.42-1.26-6.59,9.14-2.3,12.58-3.42ZM1586.44,416.67c.5-3.13-9.3-8.93,6.36-5.84.35,7.29-7.76,12.66-4.73,18.91l-12.61-1.73c-1.61-9.04,8.29-5.1,10.98-11.34ZM1580.17,410.84c0,3.42-8.4,1.73-9.51.91l-4.64-16.41,6.33,12.85,7.82,2.65ZM1575.47,402.2v-10.32c4,1.33,3.21,6.55,3.13,10.32h-3.13ZM1575.45,444.39l15.75.86c2.55,2.13-.03,3.12-2.33,3.44-5.06.7-11.25-.38-16.48-.11l-4.8-18.82,7.85,14.63ZM1577.05,433.19l4.71,1.74-2.36,3.39c-1.69-1.54-2.87-2.61-2.35-5.13ZM1583.34,436.62v-3.42h6.28v3.42h-6.28ZM1591.22,462.44h-18.9c-2.47-2.05-.04-3.14,2.32-3.45,5.35-.68,11.04.85,16.56-1.7l.02,5.15ZM1570.74,474.49c-.37-4.53-.18-2.83,2.36-3.38,5.93-1.27,12.18-.44,18.1-1.77l.02,5.15h-20.48ZM1572.3,498.58l-3.13.02-.81-6.86,3.94,4.29v2.55ZM1591.2,508.94v1.69h-4.71v-1.69h4.71ZM1588.85,498.59v-1.72c1.02.57,1.02,1.15,0,1.72ZM1591.2,484.83l-2.32,3.44-16.54-.87c4.7-5.1,12.93-1.65,18.86-2.57ZM1582.55,510.64v-1.72c1.02.57,1.02,1.15,0,1.72ZM1576.25,500.31v-1.72c1.02.57,1.02,1.15,0,1.72ZM1592.78,526.11l-18.89,1.73-.02-5.15c5.72,1.05,15.44-3.04,18.91,3.42ZM1586.48,360.92l-3.13,3.42v-3.43s3.13,0,3.13,0ZM1583.32,354.03l-1.58,8.59-3.11-3.4c4.82,1.12,1.43-4.99,4.69-5.19ZM1575.46,359.2l-3.13,3.42v-3.43s3.13,0,3.13,0ZM1572.32,364.35c.6-.84,4.17,3.01,3.12,5.16-.6.84-4.17-3.01-3.12-5.16ZM1580.18,384.98c-5.42,1.12-7.89-1.54-9.45-6.85,1.27-1.19,8.92,4.63,9.45,6.85ZM1569.15,376.4v2.55s-3.13,2.61-3.13,2.61v-5.15s3.13,0,3.13,0ZM1569.15,385.01c.41,3.21,0,5.95-3.13,6.88v-6.88s3.13,0,3.13,0ZM1588.88,536.45c2.87.4,2.54-.59,2.33,3.44h-22.05l-.79,10.34-2.36-12.05c7.48-.91,15.25-2.81,22.87-1.74ZM1591.2,548.51l-.75,3.4c-4.13-3-9.19-2.16-13.4.03-1-6.9,10.96-2.08,14.15-3.43ZM1562.07,338.53c1.02.57,1.02,1.15,0,1.72v-1.72ZM1556.57,338.55h3.13v1.69h-3.13v-1.69ZM1561.25,391.02c.05,5.13-9.26.48-6.26-2.57,1.05-1.07,6.24.8,6.26,2.57ZM1554.19,338.53c1.02.57,1.02,1.15,0,1.72v-1.72ZM1552.63,379.85l2.35,6.87h-3.13s-1.55-4.3-1.55-4.3l2.33-2.56ZM1551.04,395.33v-1.72c1.02.57,1.02,1.15,0,1.72ZM1547.11,338.55h3.13v1.69h-3.13v-1.69ZM1547.89,345.42v-1.72c1.02.57,1.02,1.15,0,1.72ZM1543.17,338.53c1.02.57,1.02,1.15,0,1.72v-1.72ZM1540.02,385c1.02.57,1.02,1.15,0,1.72v-1.72ZM1540.02,465.89c1.02.57,1.02,1.15,0,1.72v-1.72ZM1542.42,575.19c-.36,1.57-3.9-.31-3.18,2.55,3.86-1.72,4.75-.62,7.85,1.73l-.8-4.96,3.95-1.08c.69-4.67-1.87-.74-3.92-2.38-1.85-1.48-4.37-4.77-5.51-7.06h59.07l1.82-2.56c-2.62-5.97,2.84-10.06,6.85-12.93v42.17l-3.15,1.74-7.06-9.52-49.64.02,2.36-6.87-6.32,6.87-1.57-3.46-1.76,3.5c-6.32-1.34-30.62-1.62-32.88,3.42-1.44,3.21.19,7.78-3.16,10.28-5.19-7.43-3.05-18.19,3.91-23.2-6.19-5.2-7.01-11.61-6.26-19.78,6.63-1.72,5.2,4.74,7.89,7.71,4.26,4.71,20.94,2,27.56,2.88-.31,4.41,4.71,7.64,3.96,10.93ZM1522.69,452.12v-1.72c1.02.57,1.02,1.15,0,1.72ZM1532.18,285.26c4.64-.89,10.58-1.93,15.21-2.37,2.65-.25,3.68-2.46,5.98,1.43-.09,3.87-20.89,2.46-25.16,4.29-.74-5.25,1.17-2.82,3.97-3.36ZM1530.57,274.85v-1.72c1.02.57,1.02,1.15,0,1.72ZM1540.8,271.42v3.43h-6.28v-3.43s6.28,0,6.28,0ZM1536.09,253.33l4.72-.83-2.36,3.39-2.35-2.56ZM1540.02,278.29v-1.72c1.02.57,1.02,1.15,0,1.72ZM1547.12,274.86h3.14s-3.13,3.43-3.13,3.43v-3.43ZM1551.04,292.06v-1.72c1.02.57,1.02,1.15,0,1.72ZM1547.09,288.63v3.42h-1.54v-3.42h1.54ZM1540.02,292.06v-1.72c1.02.57,1.02,1.15,0,1.72ZM1536.09,477.92v-1.69h3.13v1.69h-3.13ZM1536.85,557.07l-.74-.81,2.35-2.56c1.57,1.13-.73,2.28-1.61,3.37ZM1537.65,336.79h-6.28v-1.69h6.28v1.69ZM1532.14,388.44v-1.72c1.02.57,1.02,1.15,0,1.72ZM1534.52,298.94v-3.42h1.54v3.42h-1.54ZM1530.57,298.95v-1.72c1.02.57,1.02,1.15,0,1.72ZM1528.2,293.79l-.77,3.42-2.37-3.42h3.14ZM1527.42,336.81v-1.72c1.02.57,1.02,1.15,0,1.72ZM1526.61,469.34v3.42h-1.54v-3.42h1.54ZM1541.59,304.11v-1.72c1.02.57,1.02,1.15,0,1.72ZM1542.37,298.94h-2.33s-2.38-2.58-2.38-2.58l4.71-.84v3.42ZM1543.17,290.34v-1.72c1.02.57,1.02,1.15,0,1.72ZM1551.82,314.43h-2.33s-2.38-2.58-2.38-2.58l4.71-.84v3.42ZM1553.4,297.21h-9.43v-1.69h9.43v1.69ZM1557.35,312.71v-1.72c1.02.57,1.02,1.15,0,1.72ZM1556.57,250.76l3.13,3.42h-3.14s0-3.42,0-3.42ZM1558.92,276.57v-1.72c1.02.57,1.02,1.15,0,1.72ZM1557.35,290.34v-1.72c1.02.57,1.02,1.15,0,1.72ZM1556.57,295.52h3.13v1.69h-3.13v-1.69ZM1554.19,273.13c1.02.57,1.02,1.15,0,1.72v-1.72ZM1539.24,269.68c-.57-5.34.65-2.78,3.42-2.95,3.53-.22,7.19-.14,10.74-.47-2.45,6.1-9.65.74-14.16,3.42ZM1544.74,252.48v-1.72c1.02.57,1.02,1.15,0,1.72ZM1547.11,254.19v-3.42c2.94-.44,5.45,0,6.29,3.42h-6.29ZM1539.24,233.54l-.02-5.15,14.18-1.72c.03,7.51-9.76,4.56-14.16,6.87ZM1539.24,226.64v-1.69h3.13v1.69h-3.13ZM1544.74,224.94v-1.72c1.02.57,1.02,1.15,0,1.72ZM1553.41,218.07l-3.13,3.42v-3.43s3.13,0,3.13,0ZM1548.67,211.19l-3.14,2.56c7.02,5.77-3.27,8.79-7.87,6.01l11.01-8.57ZM1535.29,224.94c1.02.57,1.02,1.15,0,1.72v-1.72ZM1532.94,230.11h3.13v3.42h-3.13v-3.42ZM1521.1,228.42c.87,1.1,3.17,2.24,1.61,3.37-.76-1.01-3.16-2.18-1.61-3.37ZM1461.26,61.47l2.35,2.57-2.35,4.24-2.35-2.57,2.35-4.24ZM1462.04,71.77v3.42h-3.13v-3.42h3.13ZM1471.59,96.61c4.79,3.63-4.59,25.58-2.4,31.96l-3.19,1.75c-2-.12-3.58-2.79-5.05-3.12-2.54-.57-7.24,5.54-8.34.48-1.46-6.75,6.59-5.46,7.85-8.61l-.14-2.42-2.99-1.25v-5.77s4.71,1.71,4.71,1.71l-1.57-6.87,4.74-.02v-5.15s-15.51.15-15.51.15l-3.41,10.16c-3.66-.3-.68-7.54.21-9.25,3.08-5.92,21.85-6.22,25.1-3.76ZM1446.3,123.38h-3.14s0-3.42,0-3.42l3.13,3.42ZM1444.74,118.22v-3.42h1.54v3.42h-1.54ZM1447.86,137.16c-3.57-1.22-2.26-8.99-3.12-12.03l3.12,12.03ZM1451.01,156.1c-4.4-2.58-4.3-10.77-4.69-15.49,4.39,2.5,3.7,10.87,4.69,15.49ZM1451.01,166.42l-4.71-6.87c3.97-.45,5.33,2.74,4.71,6.87ZM1451.04,192.23v-3.42h1.54v3.42h-1.54ZM1452.58,193.97v3.42h-1.54v-3.42h1.54ZM1449.46,180.18v-5.15h3.13v5.15h-3.13ZM1450.24,171.59v-1.72c1.02.57,1.02,1.15,0,1.72ZM1452.59,223.23v5.15s-1.55,0-1.55,0l-1.59-5.13h3.14ZM1451.04,206.01l.76-5.15,2.34,2.57-3.1,2.58ZM1452.62,233.55h1.54v3.42h-1.54v-3.42ZM1447.87,76.92h-3.13s0-6.88,0-6.88c3.13.92,3.53,3.67,3.13,6.88ZM1435.28,63.17l11.02,5.14c-3.27-.22-11.98.95-11.02-5.14ZM1441.57,95.88l-2.45,3.34h-2.98s-2.43-2.53-2.43-2.53v-2.55s7.86,1.73,7.86,1.73ZM1439.98,125.13v3.42h-1.54v-3.42h1.54ZM1428.19,54.55c1.02.57,1.02,1.15,0,1.72v-1.72ZM1415.56,94.13c5.14-.72,11.27.51,16.56.01,2.56,2.12-.03,3.12-2.33,3.44-5.14.72-11.27-.51-16.56-.01-2.56-2.12.03-3.12,2.33-3.44ZM1433.69,104.47l-.77,5.15-2.35-2.6v-2.55s3.13,0,3.13,0ZM1408.51,123.4c2.64-.77.73,3.29,2.49,3.58,4.01.68,15.54-11.41,21.1-12.2,2.54,6.24-3.56,8.56,1.59,13.77h-25.2l.02-5.15ZM1414.03,187.11l-.81,5.12-3.13-.84,3.95-4.28ZM1405.35,118.24h3.13v3.42h-3.13v-3.42ZM1399.04,111.36c1.04,5.08-3.6,4.5-6.28,3.44,2.26,5.81.03,6.44-4.72,8.6.36-8.63,2.18-13.85,11-12.04ZM1388.81,128.56v-1.72c1.02.57,1.02,1.15,0,1.72ZM1388.81,231.82v-1.72c1.02.57,1.02,1.15,0,1.72ZM1383.29,113.08c3,3.05-6.31,7.7-6.26,2.57.02-1.77,5.21-3.64,6.26-2.57ZM1369.12,114.81c-3.45,4-1.54,13.76-7.87,13.74-.88-1.07,4.91-17.03,7.87-13.74ZM1315.57,125.13h3.13v1.69h-3.13v-1.69ZM1312.42,362.64h3.13v1.69h-3.13v-1.69ZM1312.41,243.89l-2.39,3.42-3.91-2.58,6.29-.83ZM1304.54,243.89l-3.13,3.42v-3.43s3.13,0,3.13,0ZM1299.03,352.3c1.02.57,1.02,1.15,0,1.72v-1.72ZM1293.52,243.88h3.13v3.42h-3.13v-3.42ZM1293.52,350.6h3.13v1.69h-3.13v-1.69ZM1290.36,243.89l-2.36,3.39-2.35-2.56,4.72-.83ZM1290.35,386.73v3.42h-1.54v-3.42h1.54ZM1288,350.58v-1.72c1.02.57,1.02,1.15,0,1.72ZM1283.28,245.59v-1.72c1.02.57,1.02,1.15,0,1.72ZM1283.28,343.69v-1.72c1.02.57,1.02,1.15,0,1.72ZM1280.92,126.82v-1.69l6.28-1.74v3.43s-6.28-.01-6.28-.01ZM1290.37,114.78v-5.15s1.55,0,1.55,0l1.59,5.13h-3.14ZM1291.16,56.28l.77,12.03c-5.65,1.6-3.57-9.79-.77-12.03ZM1276.18,83.83v1.68s-6.28,1.74-6.28,1.74v-3.43s6.28,0,6.28,0ZM1264.38,85.54l.77,3.42h-3.14s2.37-3.42,2.37-3.42ZM1262.02,245.57v-1.69h6.28v1.69h-6.28ZM1269.89,398.75l2.37-3.42.77,3.42h-3.14ZM1273.03,362.61h-6.28v-1.69h6.28v1.69ZM1271.46,118.23c-.74-.3-2.16.2-3.15-.02-.64-.8,1.9-3.06,3.15-3.42.17-6.36-3.02-11.6,3.11-18.08l-6.25-3.42c2.81-7.31,12.08-3.78,12.58-4.32,3.29-3.54-3.97-2.8-3.13-5.14l9.43-1.73-3.26,4.38,6.38,18.93c-5.2,1.28-1.42,3.85-2.72,7.14-1.57,3.96-11.38,16.08-11.48,17.15-.28,2.76,2.23,6.05,1.63,9.18-10.56-3.1-6.09-13.79-6.29-20.64ZM1273.82,144.05v-1.72c1.02.57,1.02,1.15,0,1.72ZM1275.4,245.59v-1.72c1.02.57,1.02,1.15,0,1.72ZM1288.78,360.92c-1.39,3.9-9.47.74-12.58,1.69,1.39-3.9,9.47-.74,12.58-1.69ZM1279.35,376.41h3.13v1.69h-3.13v-1.69ZM1279.34,371.25h3.14s-.77,3.42-.77,3.42l-2.37-3.42ZM1279.33,397.04h-3.13v-3.42h3.13v3.42ZM1281.72,386.74h2.33s0,3.42,0,3.42h-4.72s2.39-3.42,2.39-3.42ZM1295.09,414.24l2.37-3.42.77,3.42h-3.14ZM1301.37,426.3h-1.54v-8.59h1.54v8.59ZM1303.75,414.26v-1.72c1.02.57,1.02,1.15,0,1.72ZM1333.68,403.93v-1.72c1.02.57,1.02,1.15,0,1.72ZM1336.83,484.82v-1.72c1.02.57,1.02,1.15,0,1.72ZM1343.94,385.89c-18.5,1.09-39.39,8.97-57.46,9.52-1.77.05-5.97,1.09-5.56-1.78l28.41-4.24c1.55-4.91,1.92-5.99,4.66-9.54,1.11-1.44,1.37-3.99,3.92-3.46,1.7-.13.39,2.96.8,3.46,1.78,2.13,4.36,3.67,5.8,7.01,6.05-.41,12.7-3.15,18.6-3.6,3.39-.26,2.93.49.82,2.64ZM1316.35,367.79v-1.72c1.02.57,1.02,1.15,0,1.72ZM1318.73,374.66v-3.42h1.54v3.42h-1.54ZM1323.45,372.94v-3.42h3.13v3.42h-3.13ZM1348.63,402.2h-1.54v-3.42h1.54v3.42ZM1357.31,405.65v-1.72c1.02.57,1.02,1.15,0,1.72ZM1357.31,398.77v-1.72c1.02.57,1.02,1.15,0,1.72ZM1364.39,402.23l-3.13,3.42v-3.43s3.13,0,3.13,0ZM1361.25,397.04v-3.42h3.13v3.42h-3.13ZM1364.42,421.16h1.54s-1.51,4.34-1.51,4.34l-4.77.79v-1.69c3.02.27,5.33.32,4.74-3.44ZM1361.25,465.88c-1.15-1.25.59-7.66,3.91-6.87,5.82,1.4-.86,10.19-3.91,6.87ZM1369.91,446.96v-1.72c1.02.57,1.02,1.15,0,1.72ZM1373.83,387.56c-1.66,2.7-3.38,3.01-6.28,2.59l3.96-5.13h2.33s0,2.54,0,2.54ZM1379.36,400.49v-1.72c1.02.57,1.02,1.15,0,1.72ZM1379.36,391.88v-1.72c1.02.57,1.02,1.15,0,1.72ZM1379.36,386.72v-1.72c1.02.57,1.02,1.15,0,1.72ZM1381.72,391.87l2.37-3.42.77,3.42h-3.14ZM1452.61,254.21h3.13s-.77,6.87-.77,6.87c-2.42-1.86-2.74-3.69-2.36-6.87ZM1454.19,269.7h1.54v5.15h-1.54v-5.15ZM1455.77,281.74c3.57,1.52.67,10.35,1.54,13.75-3.57-1.52-.67-10.35-1.54-13.75ZM1458.88,316.17v5.15h-1.54v-5.15h1.54ZM1460.47,324.77l-.77,3.42-2.37-3.42h3.14ZM1458.92,335.1h1.54v3.42h-1.54v-3.42ZM1462.03,354.01h-1.54s-.82-12-.82-12c3.47,2.82,2.34,7.84,2.36,12ZM1463.61,378.12v10.31h-1.54v-10.31h1.54ZM1462.03,357.47v5.15h-1.54v-5.15h1.54ZM1462.84,438.35v-1.72c1.02.57,1.02,1.15,0,1.72ZM1463.61,434.9h-1.54v-5.15h1.54v5.15ZM1463.61,415.97h-1.54v-6.87h1.54v6.87ZM1463.61,407.37h-1.54v-5.15h1.54v5.15ZM1463.62,397.04h-3.13v-5.15h3.13v5.15ZM1465.18,498.58h-1.54v-5.15h1.54v5.15ZM1463.64,491.7v-3.42h1.54v3.42h-1.54ZM1468.34,543.33h-1.54v-3.42h1.54v3.42ZM1473.08,395.32c-.37-3.16-.09-5.03,2.37-6.84l.77,6.83h-3.14ZM1313.98,246.44l239.42-2.55c-3.11,4.15-15.95,5.02-21.2,5.21-8.07.3-15.11-1.81-22.05-1.86-65.34-.49-131.13,1.15-196.17-.81ZM1561.29,768.79v-3.42s2.33,0,2.33,0l2.39,3.41h-4.72ZM1608.54,741.26c-16.73-1.34-33.74-3.46-50.4.01v-15.49s-22.06.78-22.06.78l.02,6.08,3.86-3.63,11.86,3.66c-2.47,3.64-4.67.41-1.56,6.85-11.59,2.9-38.68-6.96-42.19,9.85-4.29,20.54,21.75,18.99,34.31,19.44l-5.04,13.39c-19.1,2.85-37.72-9.95-34.23-33.1.68-4.5,4.53-8.59,4.52-12.16,0-4.5-11.55-18.55-.7-23.24l3.29,10.15,21.82-3.29,3.21,3.62c5.79-3.82,5.26-1.52,11.07-1.69,18.07-.51,36.59-.1,54.89-.08,2.55-.67,1.62-11.76,7.33-10.41v29.26ZM1588.08,696.51v-3.42h1.54v3.42h-1.54ZM1598.29,705.08c-.22-4.11-7.02-8.78-7.03-9.4-.01-.52,4.79-5.72,3.16-9.44l9.39,1.68c1.16-3.92,2.07-8.44-1.64-11.13-3.71-2.69-22.37-3.47-3.07-7.82,1.7-7.16-6.29-4.71-4.71-11.99,20.38-6.67,4.31-21.26-5.58-29.26-8.17-6.61-11.12-9.42-21.95-10.44-9.6-.9-45.46-1.16-52.75,2.73-10.26,5.48-9.47,29.96,4.94,34.02,16.68,4.7,46.68.27,64.29-.54l3.13-12.04c.47,3.88,3.24,12.53-3.13,12.04v3.44s6.29-.86,6.29-.86c-1.43,2.77-5.81,2.21-7.12,4.2-.67,1.02,1.53,4.36-.71,6.22-1.01.83-12.99-.23-15.37-.49-3.05-.33-1.91-.49-2,2.99h22.84l2.35,4.28c-2.2,3.87-6.85,1.64-9.51,3.47-.95.66-2.5,8.52-4.63,3l-.88-3.98-65.06.37-1.8,8.35,4.75-1.06c2.49,3.66,2.15,8.62,4.63,12.3,3.27,4.86,12.57,4.37,8.58,11.23-9.55,5.74-13.55-5.28-11.68-13.87-16.15,4.49-14.55-29.14,1.55-24.94-18.51-12.76-17.67-59.08,4.71-65.47,6.78-1.93,42.06-1.98,49.56-.7,9.83,1.68,15.16,16,26.04,5.85,3.24-3.02,2.1-11.8,11.07-9.41,1.4,10.99-3.39,19.65-14.16,18.95,1.26,4.12,7.45,2.18,10.25,5.13,6.24,6.55,5.49,29.7,5.57,38.81.09,10.03.08,9.36,1.43,18.97,1.48,10.6-3.54,19.73-11.75,24.81Z"/>
    <path d="M1620.65,787.67c-2.29-5.51-4.33-11.41-4.63-17.43,0-1.7-.04-3.4-.1-5.09,0-.2-.02-.39-.03-.59-.5,1.71-1.15,3.44-1.06,5.1.44,8.45,2.89,17.59,1.6,26.68h6.29c.34-.35.28-1.79.15-3.7-.77-1.64-1.51-3.3-2.21-4.98Z"/>
    <path d="M1273.82,106.18v1.72c1.02-.57,1.02-1.15,0-1.72Z"/>
    <rect x="1484.12" y="121.68" width="1.54" height="3.42"/>
    <polygon points="1562.86 665.55 1559.72 665.55 1559.72 668.98 1562.86 665.55"/>
    <path d="M1321.86,386.7c-1.09-2.96-4.59-1.67-3.14-6.87h-4.73l-.76,8.63,8.63-1.77Z"/>
    <path d="M1273.82,90.69v1.72c1.02-.57,1.02-1.15,0-1.72Z"/>
    <path d="M1577.82,171.59c1.02-.57,1.02-1.15,0-1.72v1.72Z"/>
    <polygon points="1520.32 667.27 1517.19 668.11 1520.31 670.7 1520.32 667.27"/>
    <path d="M1596.72,622.51v1.72c1.02-.57,1.02-1.15,0-1.72Z"/>
    <polygon points="1602.25 659.54 1602.24 662.09 1605.38 662.09 1604.61 656.94 1602.25 659.54"/>
    <path d="M1646.33,292.07c-6.14-.26-12.13.58-18.26.23-2.96-.17-3.83,1.37-2.21,3.18,5.7,1.04,13.11,2.99,18.52.47,2.25-1.05,2.37-.47,1.94-3.88Z"/>
    <path d="M1560.5,188.8c1.02-.57,1.02-1.15,0-1.72v1.72Z"/>
    <rect x="1636.9" y="298.96" width="9.43" height="1.69"/>
    <path d="M1577.82,243.87c1.02-.57,1.02-1.15,0-1.72v1.72Z"/>
    <rect x="1575.47" y="235.28" width="3.13" height="1.69"/>
    <path d="M1571.52,190.52c1.02-.57,1.02-1.15,0-1.72v1.72Z"/>
    <path d="M1621.15,300.68c-.65,2.67,1.88,1.08,2.6,2.29.83,1.4.23,3.68,1.52,4.74,3.05,2.5,16.56-.41,21.06,1.55v-5.15c-10.64,1.47-13.56-8.58-25.19-3.43ZM1633.74,304.09h-7.87s0-1.68,0-1.68c3.34-.1,6.7-3.06,7.87,1.68Z"/>
    <path d="M1595.26,758.43c-2.58-3.93-11.14-1.05-13.51,2.66,7.16,8.11,3.55,14.74,4.83,23.96,1.74,12.56,14.45,11.63,23.53,11.29v-30.12c0-1.05-3.25-3.31-4.72-2.57-1.25,6.39,3.87,25.21-5.46,24.15-12.47-1.42-3.59-27.71-4.68-29.37Z"/>
    <path d="M1276.18,119.95l.02-4.29c-.14-1.47-3.9-1.11-4.73-.87-.03,1.14-.03,2.3,0,3.44,1.46.58,2.74,2.19,4.72,1.71Z"/>
    <polygon points="1129.69 412.53 1130.5 407.41 1128.14 409.98 1128.14 412.53 1129.69 412.53"/>
    <path d="M1136.79,395.33v1.72c1.02-.57,1.02-1.15,0-1.72Z"/>
    <polygon points="1184.85 261.09 1183.26 266.23 1186.4 266.24 1186.39 261.09 1184.85 261.09"/>
    <path d="M1134.46,405.61c4.11.9,3.24-1,3.11-5.12h-6.29s0,1.68,0,1.68l3.17,3.43Z"/>
    <path d="M1181.66,412.54l1.59-8.6c-3.11.96-11.18-2.21-12.58,1.69,6.28-.78,6.03,6.94,11,6.91Z"/>
    <rect x="1181.7" y="204.29" width="1.54" height="5.15"/>
    <path d="M1132.06,255.92v1.72c1.02-.57,1.02-1.15,0-1.72Z"/>
    <path d="M1186.42,255.05l-.02-9.45-4.11,3.57-5.3-1.02c2.31,3.36,4.48,10.27,9.43,6.89Z"/>
    <polygon points="1195.08 421.11 1194.27 414.25 1191.14 414.27 1191.15 416.81 1195.08 421.11"/>
    <path d="M1595.15,329.93v1.72c1.02-.57,1.02-1.15,0-1.72Z"/>
    <rect x="1124.98" y="421.15" width="3.13" height="3.42"/>
    <path d="M1555.77,570.88v1.72c1.02-.57,1.02-1.15,0-1.72Z"/>
    <path d="M1595.15,574.32v1.72c1.02-.57,1.02-1.15,0-1.72Z"/>
    <path d="M1423.46,123.4v1.72c1.02-.57,1.02-1.15,0-1.72Z"/>
  </g>
</svg>