<?xml version="1.0" encoding="UTF-8"?>
<svg id="Layer_2" xmlns="http://www.w3.org/2000/svg" version="1.1" viewBox="0 0 1220.3 595.28">
  <!-- Generator: Adobe Illustrator 29.5.1, SVG Export Plug-In . SVG Version: 2.1.0 Build 141)  -->
  <defs>
    <style>
      .st0 {
        fill: #fff;
      }
    </style>
  </defs>
  <rect x="1112.49" y="16.45" width=".9" height="1.87"/>
  <text/>
  <rect class="st0" x="1551.48" y="270.29" width=".98" height="1.99" transform="translate(-14.24 442.17) rotate(-16.14)"/>
  <path class="st0" d="M1459.72,80.1c-.5-.53-.82-.44-.96.28l.96-.28Z"/>
  <g>
    <rect x="343.3" y="201.13" width="1.89" height=".91"/>
    <polygon points="342.36 191.39 343.79 192.78 345.19 192.78 345.19 190.93 342.36 191.39"/>
    <rect x="344.26" y="194.64" width=".93" height="3.7"/>
    <polygon points="347.09 229.86 343.31 227.07 346.63 231.69 347.09 229.86"/>
    <path d="M346.15,205.75l-1.42-2.77c-2.26,1.42-.98,2.84,1.42,2.77Z"/>
    <polygon points="341.89 151.14 341.38 147.4 338.55 152.02 341.89 151.14"/>
    <path d="M338.53,160.36l-.46-6.48c-2.67,1.87-2.38,4.96.46,6.48Z"/>
    <path d="M338.07,105.71c.62-.31.62-.62,0-.93v.93Z"/>
    <rect x="344.25" y="199.28" width="1.89" height=".91"/>
    <rect x="339.5" y="120.53" width=".93" height="1.84"/>
    <rect x="333.79" y="150.18" width=".93" height="1.84"/>
    <path d="M334.26,148.32v.93c.62-.31.62-.62,0-.93Z"/>
    <rect x="333.79" y="155.74" width=".93" height="1.84"/>
    <path d="M334.26,165c.62-.31.62-.62,0-.93v.93Z"/>
    <rect x="333.79" y="159.44" width=".93" height="1.84"/>
    <path d="M333.79,171.48c1.89-.5,2.13-1.97,1.89-3.7h-1.89s0,3.7,0,3.7Z"/>
    <path d="M338.07,97.37v.93c.62-.31.62-.62,0-.93Z"/>
    <polygon points="342.35 131.65 343.76 129.81 348.04 132.57 348.95 123.35 344.26 122.38 345.2 127 341.4 126.09 342.35 131.65"/>
    <path d="M341.88,145.53c3.1,1.27,3.83-3.49,2.15-5.32-.35-.38-1.15-.44-1.64-.73l-1.85,1.05,1.35,5Z"/>
    <polygon points="350.43 114.97 348.07 116.84 348.06 118.67 351.85 117.27 350.43 114.97"/>
    <path d="M344.72,120.53v.93c.62-.31.62-.62,0-.93Z"/>
    <path d="M340.92,124.23v.93c.62-.31.62-.62,0-.93Z"/>
    <path d="M346.12,184.87l-3.77.52c.31,1.69,4.32,1.16,5.7,1.84l-1.93-2.36Z"/>
    <path d="M334.26,139.98v.93c.62-.31.62-.62,0-.93Z"/>
    <polygon points="343.78 112.2 342.37 113.57 343.31 115.89 344.24 115.89 343.78 112.2"/>
    <path d="M343.76,132.59c-.94.64.51,1.27.97,1.82.95-.61-.44-1.23-.97-1.82Z"/>
    <path d="M343.77,118.68c.62-.31.62-.62,0-.93v.93Z"/>
    <polygon points="347.09 209.47 346.16 209.47 345.2 212.23 347.1 212.24 347.09 209.47"/>
    <rect x="349.96" y="231.7" width="1.89" height=".91"/>
    <path d="M349.1,263.85c.3-.02.59-.09.84-.21l-.84.21Z"/>
    <path d="M353.29,78.84v.93c.62-.31.62-.62,0-.93Z"/>
    <path d="M352.82,143.69c-.26,1.65.06,3.25,1.88,3.7.39-1.21-1.42-4.66-1.88-3.7Z"/>
    <path d="M354.24,189.08c.62-.31.62-.62,0-.93v.93Z"/>
    <path d="M351.35,105.67c-1.77,2.88.51,7.52,3.06,4.17.04-.05-.69-.91-.4-1.2l1.55-.25c-.43-1.73-2.5-5.28-4.2-2.72Z"/>
    <path d="M355.19,191.86c.62-.31.62-.62,0-.93v.93Z"/>
    <path d="M350.43,238.18c.62-.31.62-.62,0-.93v.93Z"/>
    <path d="M363.75,255.78c.62-.31.62-.62,0-.93v.93Z"/>
    <path d="M362.78,243.76c-2.14-2.45-5.74-9.11-8.69-10.08-3.06-1-1.36,2.71-4.12.79-.59,2.45.62,1.45,1.38,1.93,5.38,3.4,4.94,4.36,8.4,7.99l9.21,5.37c-1.37-2.93-4.26-3.8-6.19-6.01Z"/>
    <path d="M354.24,74.21v.93c.62-.31.62-.62,0-.93Z"/>
    <polygon points="349.47 210.37 350.9 208.98 350.9 207.61 349.01 207.62 349.47 210.37"/>
    <path d="M334.26,312.29c.62-.31.62-.62,0-.93v.93Z"/>
    <path d="M341.87,265.05c.62-.31.62-.62,0-.93v.93Z"/>
    <path d="M334.26,118.68v.93c.62-.31.62-.62,0-.93Z"/>
    <rect x="333.79" y="128.87" width=".93" height="1.84"/>
    <rect x="333.79" y="299.33" width=".93" height="2.77"/>
    <rect x="333.79" y="307.66" width=".93" height="1.84"/>
    <rect x="349.01" y="265.98" width=".93" height="1.84"/>
    <path d="M351.86,197.41c.46-.35-1.66-2.45-2.85-1.83-.46.35,1.66,2.45,2.85,1.83Z"/>
    <path d="M349.48,204.83v.93c.62-.31.62-.62,0-.93Z"/>
    <path d="M349.48,269.68c.62-.31.62-.62,0-.93v.93Z"/>
    <rect x="333.79" y="131.65" width=".93" height="1.84"/>
    <path d="M341.46,258.93c.18-3.84,2.63-7.7,1.43-11.51-.45-1.43-4.27-7.27-6.24-5.53l1.9,8.34,1.88-.48c-3.38,3.42-.08,10.02.48,13.42l3.34-2.74-2.79-1.51Z"/>
    <path d="M344.26,265.04l4.84-1.19c-2.25.18-5.55-1.83-4.84,1.19Z"/>
    <path d="M338.16,305.7c.75-.51,2.27-.48,3.2-.88l.04-2.72-3.68-.12-3.93-17.48c-2.08,8.37,4.67,16.09,1.89,24.07,3.1.76,1.12-1.97,2.47-2.87Z"/>
    <path d="M366.6,41.79c.62-.31.62-.62,0-.93v.93Z"/>
    <rect x="366.13" y="36.24" width="1.89" height=".91"/>
    <path d="M365.65,54.75v.93c.62-.31.62-.62,0-.93Z"/>
    <path d="M403.7,130.74l-.48.91c.05.11.9-.11.95,0-.04-.03.12-.89-.48-.91Z"/>
    <path d="M372.31,141.84v.93c.62-.31.62-.62,0-.93Z"/>
    <path d="M342.82,280.79c.62-.31.62-.62,0-.93v.93Z"/>
    <rect x="369.94" y="114.97" width=".93" height="1.84"/>
    <path d="M343.77,322.48v.93c.62-.31.62-.62,0-.93Z"/>
    <path d="M348.53,337.3v.93c.62-.31.62-.62,0-.93Z"/>
    <path d="M334.26,341.94v.93c.62-.31.62-.62,0-.93Z"/>
    <path d="M334.75,329.89c-.44,1.35,1.33,5.46,2.37,5.54,2.76.22-.71-5.73-2.37-5.54Z"/>
    <path d="M364.7,105.71v.93c.62-.31.62-.62,0-.93Z"/>
    <rect x="362.33" y="109.42" width="1.89" height="1.84"/>
    <path d="M363.75,129.79v.93c.62-.31.62-.62,0-.93Z"/>
    <path d="M363.75,148.32v.93c.62-.31.62-.62,0-.93Z"/>
    <path d="M365.65,94.59c.62-.31.62-.62,0-.93v.93Z"/>
    <path d="M367.55,104.78v.93c.62-.31.62-.62,0-.93Z"/>
    <path d="M342.82,278.02v.93c.62-.31.62-.62,0-.93Z"/>
    <rect x="365.19" y="96.45" width=".93" height="1.84"/>
    <path d="M365.65,89.03v.93c.62-.31.62-.62,0-.93Z"/>
    <path d="M368.51,136.28v.93c.62-.31.62-.62,0-.93Z"/>
    <rect x="343.31" y="286.36" width=".93" height="1.84"/>
    <path d="M342.82,273.38v.93c.62-.31.62-.62,0-.93Z"/>
    <path d="M348.53,284.5c.62-.31.62-.62,0-.93v.93Z"/>
    <path d="M348.53,312.29v.93c.62-.31.62-.62,0-.93Z"/>
    <path d="M372.31,255.78v.93c.62-.31.62-.62,0-.93Z"/>
    <polygon points="356.61 269.69 353.77 269.68 353.77 271.53 356.61 270.59 356.61 269.69"/>
    <path d="M352.33,266.9v.93c.62-.31.62-.62,0-.93Z"/>
    <rect x="356.62" y="187.23" width=".93" height="1.84"/>
    <rect x="352.82" y="274.31" width=".93" height="1.84"/>
    <path d="M387.06,220.59l1.9,1.84c-.19-.36.15-1.3,0-1.85-.48-.14-1.3.06-1.9,0Z"/>
    <rect x="407.99" y="56.62" width="1.89" height=".91"/>
    <path d="M392.76,207.61c-.18-.4.07-1.05-.95-.93-.15,1.05.77.8.95.93Z"/>
    <path d="M407.03,215.95l-.95-.93c.14.21-.2,1,.95.93Z"/>
    <path d="M414.17,192.79v.93c.62-.31.62-.62,0-.93Z"/>
    <path d="M414.17,190.01v.93c.62-.31.62-.62,0-.93Z"/>
    <polygon points="417.49 209.46 416.54 209.46 417.02 210.37 417.49 209.46"/>
    <polygon points="371.84 110.34 373.73 108.93 373.73 107.56 370.88 107.57 371.84 110.34"/>
    <path d="M383.73,55.68v.93c.62-.31.62-.62,0-.93Z"/>
    <path d="M378.98,54.77l-1.42,1.38.45.44c.53-.59,1.92-1.21.97-1.82Z"/>
    <path d="M373.26,13.99v.93c.62-.31.62-.62,0-.93Z"/>
    <path d="M365.65,68.65v.93c.62-.31.62-.62,0-.93Z"/>
    <rect x="376.6" y="152.96" width="1.89" height="1.84"/>
    <polygon points="379.45 118.68 381.35 116.83 379.45 116.83 379.45 118.68"/>
    <path d="M372.32,139.96c.95-.61-.44-1.23-.97-1.82-.94.64.51,1.27.97,1.82Z"/>
    <rect x="378.5" y="137.21" width="1.89" height=".91"/>
    <path d="M379.92,141.84c.62-.31.62-.62,0-.93v.93Z"/>
    <path d="M373.74,148.34l-.02-2.79c-3.52,2.62,1.69,3.39,2.8,4.23,1.03.79.53,2.48,1.95,2.24l.94-3.26c-1.48-1.16-5.51-.19-5.68-.43Z"/>
    <path d="M372.31,115.9v.93c.62-.31.62-.62,0-.93Z"/>
    <path d="M372.31,126.09c.62-.31.62-.62,0-.93v.93Z"/>
    <path d="M371.36,127.94v.93c.62-.31.62-.62,0-.93Z"/>
    <rect x="371.84" y="119.61" width=".93" height="1.84"/>
    <path d="M383.23,123.77l-.93.46c.53.54.76,1.9,1.89,1.85.96-2.97.75-3.06-1.89-4.63v1.85s.93-.11.93.46Z"/>
    <polygon points="374.22 105.7 374.69 103.85 372.78 103.86 374.22 105.7"/>
    <path d="M375.16,99.22v.93c.62-.31.62-.62,0-.93Z"/>
    <path d="M374.69,103.85l1.89.93c.84-3.5-2.18-4.32-1.89-.93Z"/>
    <path d="M388.96,120.55l-3.79-2.79c-2.26,3.95,1.33,6.85,3.79,2.79Z"/>
    <path d="M372.31,105.71v.93c.62-.31.62-.62,0-.93Z"/>
    <path d="M381.35,123.31c.16.3.66.63.95.93v-.93c-.12-.14-.88.14-.95,0Z"/>
    <path d="M380.4,120.53c-.67,1.87.69,2.31.95,2.77l.95-1.85c-.29-.17-.1-1.43-1.9-.92Z"/>
    <path d="M381.82,118.68v.93c.62-.31.62-.62,0-.93Z"/>
    <rect x="371.84" y="129.8" width="1.89" height=".91"/>
    <path d="M374.21,132.57c.62-.31.62-.62,0-.93v.93Z"/>
    <polygon points="373.75 128.39 375.17 129.77 374.68 127.02 373.75 127.02 373.75 128.39"/>
    <path d="M375.16,122.38v.93c.62-.31.62-.62,0-.93Z"/>
    <path d="M374.69,107.54c4.58.02,1.61,5.93,4.75,7.42-.47-3.07-.81-12.58-4.75-7.42Z"/>
    <path d="M385.63,147.39v.93c.62-.31.62-.62,0-.93Z"/>
    <polygon points="387.52 151.09 388.96 149.26 385.16 149.71 387.52 151.09"/>
    <polygon points="382.77 148.3 384.2 146.48 381.35 146.93 382.77 148.3"/>
    <path d="M384.68,144.61v.93c.62-.31.62-.62,0-.93Z"/>
    <path d="M381.82,135.35v.93c.62-.31.62-.62,0-.93Z"/>
    <path d="M376.12,143.69c.62-.31.62-.62,0-.93v.93Z"/>
    <path d="M375.63,111.27h-.93c-.1.9.11,1.88,0,2.77l.95.93c-.01-.24,1.28-2.3-.01-3.7Z"/>
    <rect x="374.7" y="139.06" width=".93" height="1.84"/>
    <path d="M374.69,114.97c0-.06-.01-.16-.02-.32-.02.14-.03.27.02.32Z"/>
    <path d="M374.69,114.04c-.04.27-.03.46-.02.6.02-.19.07-.43.02-.6Z"/>
    <path d="M374.2,117.73l2.39-.92c.19-.14-.94-1.48-.96-1.84-.31-.07-.83.12-.95,0-.09,1-1,2.04-.49,2.76Z"/>
    <rect x="376.6" y="126.09" width=".93" height="1.84"/>
    <path d="M376.45,120.67l2.04,2.64-1.42-5.55-.66,1.69-2.64-.31c1.65,1.53-.06,2.95,2.69,1.54Z"/>
    <path d="M368.98,62.16c-.56-.43,5.34-8.79.01-8.33l-3.82,12.49c1.04,1.99,3.15.31,4.76-.45-.2-1.64,1.63-2.66,1.9-3.71-.92.11-1.92-.06-2.85,0Z"/>
    <path d="M373.75,84.4c-.05.61.04,1.24,0,1.86h1.9v-.93c-.34.02-1.2-.99-1.89-.93Z"/>
    <path d="M377.54,82.55c.1.59-.12,1.31,0,1.85l.95-1.39c-.09-.36-.86-.32-.95-.46Z"/>
    <path d="M391.81,112.19c.1,1.11.07,1.15.95,1.85-.26-.54.36-1.5-.95-1.85Z"/>
    <path d="M388.01,200.2c.24.58-.51,1.92.95,1.85.51-1.65-.92-1.73-.95-1.85Z"/>
    <path d="M383.24,194.18l1.91.46v-.93c-.48.29-1.93-.52-1.91.46Z"/>
    <path d="M350.91,261.34c-.64.63,4.19,7.98,6.65,6.48l-2.85-.92c-.09-2.21-.79-5.74-3.81-5.56Z"/>
    <path d="M384.67,167.79c1.39,2.29.53,2.81.49,4.61,3.78.83,1.38-3.71-.49-4.61Z"/>
    <path d="M352.81,202.98c.09-1.03-.63-2.53-.47-3.69l-2.38,1.82c2.23-.15,1.71.45,1.9,1.87.33.02.73-.08.95,0Z"/>
    <path d="M371.84,92.29v1.38c5.75.32,4.56-5.55,0-1.38Z"/>
    <rect x="378.5" y="181.68" width="1.89" height="1.84"/>
    <path d="M383.25,176.11c.15,0,.85,1.05,1.39.93l.51-.93c-.59-.11-1.44.16-1.9,0Z"/>
    <path d="M395.61,202.98c.21-3.37-3.47-2.9-5.69-2.77.52,1.91,4.21,1.58,5.69,2.77Z"/>
    <path d="M382.77,188.17l-.48.91c.31.05.64-.04.95,0-.07-.32.09-.91-.48-.91Z"/>
    <path d="M342.34,275.24l1.43,1.84.47-1.85c-.2.17-1.36-.14-1.9,0Z"/>
    <path d="M387.05,196.49c-.59,1.77.49,2.57.95,3.71-.13-.5.06-1.26,0-1.85l2.83.47c-.81-.58-.67-1.53-.93-2.33-.61-.02-1.73.91-2.85,0Z"/>
    <path d="M388.46,191.87c-2.33-.67-2.73,1.51-3.31,1.85l.93.46c-.03.6-.92.41-.93.46-.82,5.29-2.58.8-2.85,4.63,2.74.59,3.12-1.23,4.75-2.77.43-.41.72-1.59,1.43-1.84h1.42c-.22-.21-.19-2.42-1.45-2.78ZM387.53,193.71v-.93c.62.31.62.62,0,.93Z"/>
    <path d="M395.14,191.85l-1.42.02.48-2.76c-2.53,1.06-2.27,1.94-3.32,4.17l3.77,1.37.48-2.79Z"/>
    <path d="M400.37,198.35c.28.1.67-.1.95,0-.25-.35-.67-.6-.95-.93.04.32-.07.66,0,.93Z"/>
    <path d="M368.03,83.48l2.86.92v1.85s-2.86,1.84-2.86,1.84l5.7,1.86c.09-1.22-.1-2.48,0-3.7l-1.01-2.69-4.69-.08Z"/>
    <polygon points="346.63 279.85 347.1 278.94 346.15 278.94 346.63 279.85"/>
    <path d="M351.86,202.98c-.63-.03-1.27,0-1.9,0l1.9,1.84c-.11-.57.08-1.26,0-1.85Z"/>
    <path d="M368.03,265.97v-1.85c-.21.14-.88-.15-.95,0v1.85h.95Z"/>
    <path d="M349.96,307.66c.47-.81-1.56-.85-.95,0,.03.04.93.04.95,0Z"/>
    <polygon points="352.8 171.48 350.91 171.49 352.34 173.33 352.8 171.48"/>
    <path d="M351.38,95.52v.93c.62-.31.62-.62,0-.93Z"/>
    <polygon points="347.11 202.98 347.11 204.83 349 202.99 347.11 202.98"/>
    <path d="M349.97,153.88c.76,4.99-1.85,1.02-3.38,2.77l-.05,2.34,6.26,4.15c.6-.79-.78-8.62-2.83-9.26Z"/>
    <polygon points="346.17 213.62 348.53 215.94 349 214.1 346.17 213.62"/>
    <rect x="340.45" y="165" width="1.89" height="1.84"/>
    <rect x="338.55" y="196.5" width=".93" height="2.77"/>
    <path d="M337.11,240.96c.62-.31.62-.62,0-.93v.93Z"/>
    <polygon points="336.64 226.15 338.07 227.99 338.54 226.14 336.64 226.15"/>
    <path d="M338.06,193.73c-.94.64.51,1.27.97,1.82.95-.61-.44-1.23-.97-1.82Z"/>
    <path d="M336.16,189.08v.93c.62-.31.62-.62,0-.93Z"/>
    <path d="M339.97,227.99v.93c.62-.31.62-.62,0-.93Z"/>
    <path d="M339.97,240.03v.93c.62-.31.62-.62,0-.93Z"/>
    <path d="M338.54,176.12c-2.5-.57-1.49.6-1.98,1.34-2.97,4.46-.99,2.62-.28,3.56,2.05,2.7,1.32,3.76-.6,6.19l2.78.06,1.02,5.5-.91-6.96,2.8-.9c-2.71-2.06-4.22-5.55-2.84-8.8Z"/>
    <polygon points="338.54 228.93 335.71 228.44 337.13 229.83 338.54 229.83 338.54 228.93"/>
    <polygon points="335.7 146.47 335.69 150.17 337.59 150.17 336.63 146.47 335.7 146.47"/>
    <polygon points="333.79 175.19 333.79 177.04 335.69 175.19 333.79 175.19"/>
    <rect x="348.06" y="248.38" width=".93" height="1.84"/>
    <path d="M336.64,166.84c3.49-.02,3.49-2.76,0-2.77v2.77Z"/>
    <path d="M348.04,233.55l-.95,1.85-2.84-1.85c-1.6,1.55,5.36,5.35,3.79,0Z"/>
    <path d="M336.16,171.48v.93c.62-.31.62-.62,0-.93Z"/>
    <path d="M340.92,171.48v.93c.62-.31.62-.62,0-.93Z"/>
    <rect x="336.65" y="173.34" width=".93" height="1.84"/>
    <path d="M334.26,280.79c.62-.31.62-.62,0-.93v.93Z"/>
    <polygon points="251.03 538.32 252.92 538.33 252.46 536.48 251.03 538.32"/>
  </g>
</svg>