<?xml version="1.0" encoding="UTF-8"?>
<svg id="Layer_1" xmlns="http://www.w3.org/2000/svg" version="1.1" viewBox="0 0 1920 1080">
  <!-- Generator: Adobe Illustrator 29.5.1, SVG Export Plug-In . SVG Version: 2.1.0 Build 141)  -->
  <rect x="1831.59" y="7.61" width="1.48" height="3.47"/>
  <text/>
  <g>
    <polygon points="558.73 183.64 556.4 186.2 557.95 190.51 559.49 190.51 558.73 183.64"/>
    <path d="M576.05,326.48c1.02-.57,1.02-1.15,0-1.72v1.72Z"/>
    <path d="M571.27,171.53c-2.94,5.35.85,13.97,5.07,7.75.06-.09-1.15-1.7-.67-2.22l2.56-.47c-.71-3.21-4.13-9.81-6.96-5.06Z"/>
    <path d="M574.47,121.67v1.72c1.02-.57,1.02-1.15,0-1.72Z"/>
    <path d="M573.7,242.16c-.43,3.07.09,6.03,3.12,6.88.64-2.24-2.36-8.65-3.12-6.88Z"/>
    <path d="M577.62,331.65c1.02-.57,1.02-1.15,0-1.72v1.72Z"/>
    <path d="M579.2-12.57v1.72c1.02-.57,1.02-1.15,0-1.72Z"/>
    <path d="M576.05-21.18v1.72c1.02-.57,1.02-1.15,0-1.72Z"/>
    <path d="M579.2-3.96v1.72c1.02-.57,1.02-1.15,0-1.72Z"/>
    <path d="M579.2,82.09v1.72c1.02-.57,1.02-1.15,0-1.72Z"/>
    <path d="M577.62,11.53v1.72c1.02-.57,1.02-1.15,0-1.72Z"/>
    <path d="M576.05,113.07v1.72c1.02-.57,1.02-1.15,0-1.72Z"/>
    <path d="M568.17,355.74v1.72c1.02-.57,1.02-1.15,0-1.72Z"/>
    <path d="M572.11,341.96c.77-.65-2.75-4.56-4.72-3.41-.77.65,2.75,4.56,4.72,3.41Z"/>
    <rect x="567.4" y="469.34" width="1.54" height="3.42"/>
    <path d="M569.75,417.7c1.02-.57,1.02-1.15,0-1.72v1.72Z"/>
    <path d="M591.8,450.4c1.02-.57,1.02-1.15,0-1.72v1.72Z"/>
    <path d="M590.19,428.07c-3.55-4.56-9.5-16.93-14.39-18.73-5.07-1.86-2.25,5.04-6.82,1.47-.98,4.55,1.03,2.7,2.29,3.59,8.9,6.31,8.18,8.1,13.91,14.85l15.25,9.98c-2.27-5.43-7.05-7.06-10.24-11.16Z"/>
    <rect x="568.97" y="405.67" width="3.13" height="1.69"/>
    <polygon points="568.16 366.03 570.52 363.46 570.53 360.91 567.39 360.92 568.16 366.03"/>
    <path d="M596.52,18.41v1.72c1.02-.57,1.02-1.15,0-1.72Z"/>
    <polygon points="603.62 16.68 606.76 16.67 603.63 13.25 603.62 16.68"/>
    <path d="M602.83-21.18v1.72c1.02-.57,1.02-1.15,0-1.72Z"/>
    <path d="M603.61-10.87l-.77-6.83c-2.46,1.81-2.74,3.68-2.37,6.84h3.14Z"/>
    <path d="M601.25-7.41c1.02-.57,1.02-1.15,0-1.72v1.72Z"/>
    <rect x="624.1" y="-21.16" width="4.71" height="1.69"/>
    <rect x="603.62" y="-3.95" width="3.13" height="1.69"/>
    <path d="M621.73,18.41v1.72c1.02-.57,1.02-1.15,0-1.72Z"/>
    <path d="M599.68,16.69v1.72c1.02-.57,1.02-1.15,0-1.72Z"/>
    <path d="M621.73,27.01v1.72c1.02-.57,1.02-1.15,0-1.72Z"/>
    <path d="M594.95,76.93v1.72c1.02-.57,1.02-1.15,0-1.72Z"/>
    <path d="M593.37-5.69v1.72c1.02-.57,1.02-1.15,0-1.72Z"/>
    <rect x="589.45" y="18.42" width="1.54" height="3.42"/>
    <path d="M583.15,42.51c1.07,8.91-1.82,23.86,6.27,29.25-.56-4.56-2.52-8.2-3.23-12.96-.74-4.93.88-13.31-3.03-16.29Z"/>
    <rect x="581.57" y="-5.67" width="3.13" height="1.69"/>
    <rect x="595.75" y="42.52" width="3.13" height="1.69"/>
    <path d="M598.1,1.2v1.72c1.02-.57,1.02-1.15,0-1.72Z"/>
    <path d="M568.17,476.22c1.02-.57,1.02-1.15,0-1.72v1.72Z"/>
    <path d="M596.52,52.83c1.02-.57,1.02-1.15,0-1.72v1.72Z"/>
    <rect x="542.2" y="219.78" width="1.54" height="3.42"/>
    <polygon points="556.37 219.79 558.71 216.37 565.79 221.49 567.3 204.37 559.53 202.57 561.08 211.15 554.8 209.45 556.37 219.79"/>
    <path d="M555.59,245.58c5.13,2.37,6.34-6.48,3.56-9.88-.58-.71-1.9-.81-2.72-1.35l-3.07,1.95,2.23,9.28Z"/>
    <polygon points="569.74 188.8 565.84 192.27 565.82 195.67 572.1 193.07 569.74 188.8"/>
    <path d="M560.3,199.12v1.72c1.02-.57,1.02-1.15,0-1.72Z"/>
    <path d="M554,206.01v1.72c1.02-.57,1.02-1.15,0-1.72Z"/>
    <path d="M550.04,273.12l-.76-12.03c-4.41,3.48-3.94,9.22.76,12.03Z"/>
    <path d="M549.27,156.1v1.72c1.02-.57,1.02-1.15,0-1.72Z"/>
    <rect x="551.65" y="199.13" width="1.54" height="3.42"/>
    <polygon points="555.61 255.99 554.77 249.04 550.07 257.64 555.61 255.99"/>
    <polygon points="556.39 330.77 558.75 333.35 561.08 333.36 561.07 329.93 556.39 330.77"/>
    <polygon points="564.22 364.36 562.68 364.36 561.09 369.49 564.23 369.5 564.22 364.36"/>
    <path d="M562.61,318.66l-6.24.96c.51,3.14,7.15,2.16,9.43,3.42l-3.19-4.38Z"/>
    <path d="M559.53,467.61l7.99-2.21c-3.73.32-9.16-3.39-7.99,2.21Z"/>
    <path d="M558.71,221.53c-1.56,1.2.85,2.36,1.61,3.37,1.57-1.13-.73-2.28-1.61-3.37Z"/>
    <rect x="559.52" y="345.43" width="3.13" height="1.69"/>
    <rect x="559.53" y="336.82" width="1.54" height="6.87"/>
    <path d="M562.66,357.45l-2.35-5.14c-3.74,2.64-1.62,5.28,2.35,5.14Z"/>
    <rect x="557.94" y="348.87" width="3.13" height="1.69"/>
    <path d="M549.27,171.59c1.02-.57,1.02-1.15,0-1.72v1.72Z"/>
    <polygon points="564.22 402.25 557.95 397.06 563.46 405.64 564.22 402.25"/>
    <rect x="542.2" y="546.79" width="1.54" height="3.42"/>
    <path d="M542.97,555.39c1.02-.57,1.02-1.15,0-1.72v1.72Z"/>
    <path d="M555.57,467.61c1.02-.57,1.02-1.15,0-1.72v1.72Z"/>
    <path d="M554.89,456.25c.29-7.13,4.36-14.3,2.37-21.39-.75-2.65-7.07-13.5-10.34-10.27l3.15,15.5,3.11-.9c-5.59,6.36-.13,18.61.8,24.94l5.53-5.09-4.63-2.8Z"/>
    <path d="M542.2,293.78c3.13-.92,3.53-3.67,3.13-6.88h-3.13s0,6.88,0,6.88Z"/>
    <rect x="542.2" y="531.3" width="1.54" height="5.15"/>
    <path d="M549.42,543.15c1.25-.94,3.76-.9,5.3-1.63l.07-5.05-6.09-.22-6.51-32.48c-3.45,15.55,7.73,29.89,3.14,44.72,5.14,1.42,1.85-3.65,4.09-5.34Z"/>
    <path d="M568.93,465.01l-1.41.39c.51-.04.99-.16,1.41-.39Z"/>
    <rect x="542.2" y="271.42" width="1.54" height="3.42"/>
    <rect x="542.2" y="214.62" width="1.54" height="3.42"/>
    <path d="M542.97,281.74c1.02-.57,1.02-1.15,0-1.72v1.72Z"/>
    <rect x="542.2" y="254.21" width="1.54" height="3.42"/>
    <rect x="542.2" y="264.53" width="1.54" height="3.42"/>
    <path d="M542.97,250.76v1.72c1.02-.57,1.02-1.15,0-1.72Z"/>
    <rect x="627.25" y="35.64" width="3.13" height="1.69"/>
    <path d="M542.97,195.68v1.72c1.02-.57,1.02-1.15,0-1.72Z"/>
    <path d="M542.97,235.27v1.72c1.02-.57,1.02-1.15,0-1.72Z"/>
    <path d="M588.65-14.29v1.72c1.02-.57,1.02-1.15,0-1.72Z"/>
    <path d="M628.03,8.08v1.72c1.02-.57,1.02-1.15,0-1.72Z"/>
    <path d="M628.03,20.13v1.72c1.02-.57,1.02-1.15,0-1.72Z"/>
    <path d="M628.03,27.01v1.72c1.02-.57,1.02-1.15,0-1.72Z"/>
    <rect x="630.41" y="-5.68" width="1.54" height="3.42"/>
    <polygon points="628.81 -3.95 624.1 -3.96 624.11 -.52 628.8 -2.26 628.81 -3.95"/>
    <path d="M558.72,195.68c1.02-.57,1.02-1.15,0-1.72v1.72Z"/>
    <path d="M557.15,496.87c1.02-.57,1.02-1.15,0-1.72v1.72Z"/>
    <rect x="602.05" y="188.81" width="1.54" height="3.42"/>
    <path d="M543.77,588.09c-.73,2.51,2.2,10.14,3.92,10.29,4.58.42-1.17-10.65-3.92-10.29Z"/>
    <path d="M566.6,601.86v1.72c1.02-.57,1.02-1.15,0-1.72Z"/>
    <path d="M558.72,574.32v1.72c1.02-.57,1.02-1.15,0-1.72Z"/>
    <path d="M542.97,610.46v1.72c1.02-.57,1.02-1.15,0-1.72Z"/>
    <path d="M531.95,694.79c1.02-.57,1.02-1.15,0-1.72v1.72Z"/>
    <rect x="589.45" y="178.48" width="3.13" height="3.42"/>
    <path d="M594.95,150.93c1.02-.57,1.02-1.15,0-1.72v1.72Z"/>
    <path d="M593.37,171.59v1.72c1.02-.57,1.02-1.15,0-1.72Z"/>
    <path d="M591.8,250.76v1.72c1.02-.57,1.02-1.15,0-1.72Z"/>
    <path d="M557.15,491.71v1.72c1.02-.57,1.02-1.15,0-1.72Z"/>
    <path d="M599.68,228.38v1.72c1.02-.57,1.02-1.15,0-1.72Z"/>
    <path d="M598.1,169.86v1.72c1.02-.57,1.02-1.15,0-1.72Z"/>
    <rect x="594.18" y="154.38" width="1.54" height="3.42"/>
    <path d="M591.8,216.33v1.72c1.02-.57,1.02-1.15,0-1.72Z"/>
    <path d="M594.95,140.61v1.72c1.02-.57,1.02-1.15,0-1.72Z"/>
    <path d="M557.15,483.1v1.72c1.02-.57,1.02-1.15,0-1.72Z"/>
    <rect x="557.95" y="507.21" width="1.54" height="3.42"/>
    <rect x="580" y="323.05" width="1.54" height="3.42"/>
    <path d="M566.6,503.75c1.02-.57,1.02-1.15,0-1.72v1.72Z"/>
    <path d="M566.6,555.39v1.72c1.02-.57,1.02-1.15,0-1.72Z"/>
    <polygon points="579.98 476.23 575.27 476.23 575.28 479.66 579.98 477.92 579.98 476.23"/>
    <path d="M605.98,450.4v1.72c1.02-.57,1.02-1.15,0-1.72Z"/>
    <rect x="573.7" y="484.83" width="1.54" height="3.42"/>
    <path d="M572.9,471.05v1.72c1.02-.57,1.02-1.15,0-1.72Z"/>
    <path d="M675.28,328.2v1.72c1.02-.57,1.02-1.15,0-1.72Z"/>
    <path d="M675.28,333.37v1.72c1.02-.57,1.02-1.15,0-1.72Z"/>
    <path d="M657.95,218.09l-.79,1.69c.08.21,1.49-.21,1.58,0-.07-.05.2-1.66-.79-1.69Z"/>
    <rect x="665.05" y="80.39" width="3.13" height="1.69"/>
    <path d="M663.47,376.39l-1.58-1.72c.24.4-.33,1.85,1.58,1.72Z"/>
    <path d="M639.84,360.9c-.29-.75.11-1.95-1.58-1.72-.25,1.94,1.27,1.49,1.58,1.72Z"/>
    <path d="M630.39,385.02l3.15,3.43c-.31-.66.25-2.42,0-3.44-.8-.26-2.15.1-3.15.02Z"/>
    <polygon points="680.79 364.35 679.22 364.35 680.01 366.03 680.79 364.35"/>
    <polygon points="605.2 180.19 608.32 177.58 608.33 175.04 603.61 175.05 605.2 180.19"/>
    <path d="M620.15,35.62v1.72c1.02-.57,1.02-1.15,0-1.72Z"/>
    <path d="M607.55,1.2v1.72c1.02-.57,1.02-1.15,0-1.72Z"/>
    <path d="M624.88,78.65v1.72c1.02-.57,1.02-1.15,0-1.72Z"/>
    <path d="M617,37.34c1.02-.57,1.02-1.15,0-1.72v1.72Z"/>
    <path d="M692.61,741.26v1.72c1.02-.57,1.02-1.15,0-1.72Z"/>
    <path d="M617.02,76.96l-2.35,2.56.74.81c.87-1.1,3.17-2.24,1.61-3.37Z"/>
    <path d="M608.35,250.79l-.03-5.19c-5.82,4.87,2.8,6.29,4.64,7.87,1.71,1.47.88,4.61,3.23,4.16l1.55-6.05c-2.45-2.16-9.12-.36-9.4-.79Z"/>
    <rect x="613.07" y="259.37" width="3.13" height="3.42"/>
    <path d="M605.99,235.23c1.57-1.13-.73-2.28-1.61-3.37-1.56,1.2.85,2.36,1.61,3.37Z"/>
    <path d="M618.58,238.71c1.02-.57,1.02-1.15,0-1.72v1.72Z"/>
    <rect x="616.22" y="230.12" width="3.13" height="1.69"/>
    <path d="M605.98,209.45c1.02-.57,1.02-1.15,0-1.72v1.72Z"/>
    <polygon points="617.8 195.68 620.94 192.26 617.8 192.25 617.8 195.68"/>
    <path d="M605.98,190.52v1.72c1.02-.57,1.02-1.15,0-1.72Z"/>
    <path d="M594.95,102.74v1.72c1.02-.57,1.02-1.15,0-1.72Z"/>
    <path d="M604.4,212.89v1.72c1.02-.57,1.02-1.15,0-1.72Z"/>
    <path d="M624.06,205.15l-1.54.86c.88,1.01,1.25,3.53,3.13,3.44,1.59-5.52,1.24-5.69-3.13-8.6v3.44c.06.07,1.54-.21,1.54.86Z"/>
    <path d="M609.91,168.14l3.14,1.73c1.4-6.5-3.6-8.02-3.14-1.73Z"/>
    <polygon points="609.13 171.58 609.91 168.14 606.76 168.16 609.13 171.58"/>
    <path d="M605.98,171.59v1.72c1.02-.57,1.02-1.15,0-1.72Z"/>
    <path d="M610.7,159.54v1.72c1.02-.57,1.02-1.15,0-1.72Z"/>
    <rect x="605.2" y="216.35" width="3.13" height="1.69"/>
    <path d="M621.73,195.68v1.72c1.02-.57,1.02-1.15,0-1.72Z"/>
    <path d="M619.37,199.13c-1.11,3.48,1.15,4.3,1.57,5.15l1.58-3.44c-.47-.32-.17-2.66-3.14-1.71Z"/>
    <path d="M633.54,199.16l-6.28-5.19c-3.74,7.34,2.21,12.72,6.28,5.19Z"/>
    <path d="M620.94,204.29c.27.55,1.09,1.16,1.58,1.72v-1.72c-.2-.26-1.46.26-1.58,0Z"/>
    <rect x="605.2" y="197.41" width="1.54" height="3.42"/>
    <path d="M609.13,221.5c1.02-.57,1.02-1.15,0-1.72v1.72Z"/>
    <polygon points="623.3 250.72 625.66 247.33 620.95 248.17 623.3 250.72"/>
    <path d="M609.92,175c7.59.04,2.66,11.01,7.86,13.79-.78-5.7-1.35-23.38-7.86-13.79Z"/>
    <polygon points="608.35 213.73 610.72 216.3 609.9 211.18 608.35 211.18 608.35 213.73"/>
    <path d="M626.45,243.87v1.72c1.02-.57,1.02-1.15,0-1.72Z"/>
    <polygon points="631.15 255.91 633.54 252.49 627.25 253.33 631.15 255.91"/>
    <path d="M628.03,249.03v1.72c1.02-.57,1.02-1.15,0-1.72Z"/>
    <path d="M621.73,226.66v1.72c1.02-.57,1.02-1.15,0-1.72Z"/>
    <path d="M610.7,202.57v1.72c1.02-.57,1.02-1.15,0-1.72Z"/>
    <path d="M609.91,187.08c-.06.49-.06.85-.04,1.11.04-.36.11-.79.04-1.11Z"/>
    <path d="M609.11,193.93l3.96-1.7c.32-.26-1.55-2.74-1.58-3.43-.52-.14-1.37.22-1.58,0-.15,1.85-1.65,3.8-.8,5.13Z"/>
    <path d="M605.98,238.71v1.72c1.02-.57,1.02-1.15,0-1.72Z"/>
    <rect x="609.93" y="233.55" width="1.54" height="3.42"/>
    <path d="M609.91,188.8c0-.12-.03-.31-.04-.61-.03.28-.05.51.04.61Z"/>
    <path d="M611.47,181.92h-1.54c-.16,1.68.18,3.49-.02,5.15l1.58,1.72c-.02-.45,2.11-4.27-.02-6.87Z"/>
    <path d="M612.28,242.15c1.02-.57,1.02-1.15,0-1.72v1.72Z"/>
    <rect x="613.08" y="209.46" width="1.54" height="3.42"/>
    <path d="M612.82,199.38l3.38,4.9-2.36-10.32-1.1,3.13-4.38-.57c2.74,2.85-.09,5.47,4.45,2.86Z"/>
    <path d="M605.19,90.69c-1.53.21-3.18-.12-4.72-.02-.92-.79,8.84-16.33.02-15.47l-6.33,23.2c1.72,3.7,5.21.57,7.88-.83-.33-3.04,2.7-4.95,3.15-6.88Z"/>
    <path d="M608.35,132c-.09,1.14.07,2.31-.01,3.45h3.15v-1.72c-.56.03-1.98-1.85-3.14-1.73Z"/>
    <path d="M598.9,130.3l4.73,1.71v3.43s-4.74,3.43-4.74,3.43l9.44,3.45c.14-2.27-.16-4.61,0-6.88l-1.67-4.99-7.77-.16Z"/>
    <path d="M614.64,128.56c.16,1.09-.2,2.43,0,3.44l1.57-2.58c-.15-.67-1.42-.59-1.57-.86Z"/>
    <path d="M624.07,335.95l3.17.86v-1.72c-.8.53-3.19-.97-3.17.86Z"/>
    <path d="M556.36,486.56l2.37,3.42.78-3.44c-.34.32-2.25-.27-3.15.01Z"/>
    <path d="M570.54,460.74c-1.05,1.18,6.95,14.82,11.02,12.04l-4.71-1.71c-.15-4.1-1.31-10.67-6.3-10.33Z"/>
    <path d="M605.2,146.66l-.02,2.56c9.54.6,7.57-10.3.02-2.56Z"/>
    <path d="M626.44,286.93c2.31,4.26.88,5.22.8,8.57,6.25,1.54,2.28-6.89-.8-8.57Z"/>
    <path d="M624.09,302.39c.25,0,1.41,1.95,2.3,1.72l.85-1.72c-.98-.21-2.39.29-3.15,0Z"/>
    <rect x="616.22" y="312.72" width="3.13" height="3.42"/>
    <path d="M643.77,331.62l-2.35.03.79-5.13c-4.18,1.97-3.76,3.61-5.49,7.74l6.25,2.55.79-5.19Z"/>
    <path d="M623.3,324.8l-.79,1.69c.51.09,1.06-.08,1.58,0-.12-.59.15-1.69-.79-1.69Z"/>
    <path d="M631.97,347.14c.39,1.08-.84,3.57,1.58,3.44.85-3.06-1.52-3.21-1.58-3.44Z"/>
    <path d="M652.44,343.69c.46.19,1.11-.18,1.58,0-.42-.66-1.11-1.11-1.58-1.72.06.59-.11,1.23,0,1.72Z"/>
    <path d="M630.39,340.25c-.97,3.28.81,4.77,1.58,6.88-.21-.94.09-2.34.01-3.44l4.68.87c-1.35-1.08-1.1-2.85-1.54-4.32-1-.04-2.86,1.69-4.73,0Z"/>
    <path d="M644.55,352.3c.34-6.27-5.75-5.39-9.43-5.14.86,3.55,6.98,2.93,9.43,5.14Z"/>
    <path d="M632.72,331.66c-3.86-1.25-4.52,2.8-5.48,3.43l1.54.86c-.06,1.11-1.53.77-1.54.86-1.36,9.83-4.28,1.48-4.72,8.6,4.53,1.1,5.17-2.28,7.87-5.15.72-.77,1.19-2.96,2.37-3.43h2.35c-.37-.39-.32-4.49-2.4-5.17ZM631.18,335.09v-1.72c1.02.57,1.02,1.15,0,1.72Z"/>
    <path d="M638.27,183.63c.17,2.06.12,2.14,1.58,3.44-.43-1.01.6-2.78-1.58-3.44Z"/>
    <path d="M598.89,469.33v-3.44c-.35.26-1.46-.27-1.58,0v3.44h1.58Z"/>
    <path d="M568.96,546.78c.78-1.5-2.59-1.59-1.58,0,.04.07,1.54.07,1.58,0Z"/>
    <path d="M572.11,352.3c-1.04-.06-2.11,0-3.15.02l3.15,3.42c-.18-1.05.13-2.34,0-3.44Z"/>
    <path d="M573.69,352.3c.15-1.91-1.04-4.71-.77-6.85l-3.94,3.38c3.7-.28,2.83.84,3.14,3.47.55.03,1.2-.14,1.58,0Z"/>
    <polygon points="563.45 495.11 564.24 493.43 562.66 493.43 563.45 495.11"/>
    <path d="M571.32,152.65v1.72c1.02-.57,1.02-1.15,0-1.72Z"/>
    <polygon points="569.76 25.33 565.82 29.6 568.95 30.45 569.76 25.33"/>
    <rect x="567.39" y="92.42" width="4.71" height="3.42"/>
    <path d="M571.32,6.36v1.72c1.02-.57,1.02-1.15,0-1.72Z"/>
    <path d="M571.32,78.65v1.72c1.02-.57,1.02-1.15,0-1.72Z"/>
    <path d="M572.9,20.13v1.72c1.02-.57,1.02-1.15,0-1.72Z"/>
    <polygon points="564.24 352.31 564.25 355.74 567.38 352.32 564.24 352.31"/>
    <polygon points="562.69 372.08 566.61 376.39 567.38 372.96 562.69 372.08"/>
    <polygon points="573.68 293.79 570.54 293.8 572.91 297.22 573.68 293.79"/>
    <path d="M568.98,261.09c1.26,9.28-3.06,1.9-5.59,5.14l-.08,4.35,10.37,7.71c.99-1.47-1.29-16.02-4.69-17.2Z"/>
    <path d="M546.12,326.48v1.72c1.02-.57,1.02-1.15,0-1.72Z"/>
    <path d="M547.7,422.86c1.02-.57,1.02-1.15,0-1.72v1.72Z"/>
    <path d="M550.86,338.5c1.57-1.13-.73-2.28-1.61-3.37-1.56,1.2.85,2.36,1.61,3.37Z"/>
    <polygon points="550.05 400.51 545.37 399.61 547.72 402.19 550.05 402.19 550.05 400.51"/>
    <polygon points="546.91 395.34 549.28 398.76 550.05 395.34 546.91 395.34"/>
    <polygon points="554.78 68.32 559.51 66.6 559.51 42.5 554.78 42.5 554.78 68.32"/>
    <path d="M552.42,398.77v1.72c1.02-.57,1.02-1.15,0-1.72Z"/>
    <path d="M550.06,302.4c-4.14-1.06-2.46,1.11-3.28,2.49-4.92,8.29-1.64,4.87-.46,6.62,3.4,5.01,2.19,6.98-.99,11.51l4.6.11,1.69,10.23-1.51-12.93,4.64-1.68c-4.48-3.82-6.99-10.31-4.7-16.35Z"/>
    <path d="M552.42,421.14v1.72c1.02-.57,1.02-1.15,0-1.72Z"/>
    <path d="M542.97,496.87c1.02-.57,1.02-1.15,0-1.72v1.72Z"/>
    <polygon points="542.2 304.11 545.33 300.68 542.19 300.68 542.2 304.11"/>
    <polygon points="545.35 247.32 545.34 254.19 548.48 254.19 546.89 247.33 545.35 247.32"/>
    <path d="M546.92,285.17c5.78-.03,5.78-5.12,0-5.15v5.15Z"/>
    <path d="M565.79,409.1l-1.57,3.44-4.7-3.44c-2.65,2.89,8.88,9.94,6.27,0Z"/>
    <rect x="553.22" y="281.74" width="3.13" height="3.42"/>
    <rect x="546.92" y="297.23" width="1.54" height="3.42"/>
    <rect x="550.08" y="340.26" width="1.54" height="5.15"/>
    <path d="M546.12,293.78v1.72c1.02-.57,1.02-1.15,0-1.72Z"/>
    <path d="M554,293.78v1.72c1.02-.57,1.02-1.15,0-1.72Z"/>
    <rect x="565.83" y="436.64" width="1.54" height="3.42"/>
  </g>
</svg>