<?xml version="1.0" encoding="UTF-8"?>
<svg id="Layer_1" xmlns="http://www.w3.org/2000/svg" version="1.1" viewBox="0 0 1920 1080">
  <!-- Generator: Adobe Illustrator 29.5.1, SVG Export Plug-In . SVG Version: 2.1.0 Build 141)  -->
  <text/>
  <g>
    <path d="M1575.46,199.1c3.95,1.25,11.68.93,14.17-3.4-4.46.53-11.83-2.3-14.17,3.4Z"/>
    <path d="M1594.39,210.33l.74.81c.87-1.1,3.17-2.24,1.61-3.37l-2.35,2.56Z"/>
    <polygon points="1657.36 197.39 1656.61 193.99 1646.35 195.7 1657.36 197.39"/>
    <path d="M1591.21,197.4h53.55l-.02-3.44c-.62-.82-1.99,1.72-2.35,1.72h-51.19v1.72Z"/>
    <path d="M1588.04,207.73c-2.83,1.78-9.84-.65-11,3.42,1.62-.18,14.46,1.73,11-3.42Z"/>
    <path d="M1600.66,207.73c-1.18,6.43,4.84,1.26,8.65,1.57,14.05,1.12,31.67,3.84,45.72,1.88,2.31-.32,4.89-1.34,2.33-3.45h-56.7Z"/>
    <path d="M1579.4,190.52v1.72c1.02-.57,1.02-1.15,0-1.72Z"/>
    <path d="M1044.92,1052.52c-1.07,0-1.07,1.88,0,1.88s1.07-1.88,0-1.88Z"/>
    <path d="M1571.52,190.52c1.02-.57,1.02-1.15,0-1.72v1.72Z"/>
    <path d="M1555.77,570.88v1.72c1.02-.57,1.02-1.15,0-1.72Z"/>
    <path d="M1595.15,574.32v1.72c1.02-.57,1.02-1.15,0-1.72Z"/>
  </g>
</svg>