<?xml version="1.0" encoding="UTF-8"?>
<svg id="Layer_1" xmlns="http://www.w3.org/2000/svg" version="1.1" viewBox="0 0 1920 1080">
  <!-- Generator: Adobe Illustrator 29.5.1, SVG Export Plug-In . SVG Version: 2.1.0 Build 141)  -->
  <text/>
  <g>
    <path d="M1616.4,157.81c1.27-1.4,11.23,3.17,9.45-3.43l-36.21,3.45c-.42,2.87,3.8,1.84,5.56,1.78,6.58-.22,12.92-2.86,19.64-1.81v12.06h-29.93v1.72h33.08l-1.58-13.77Z"/>
    <rect x="1584.92" y="157.83" width="3.13" height="1.69"/>
    <path d="M1619.55,150.92c-.45-7.54-5.53-5.42-4.7,1.73l4.7-1.73Z"/>
    <rect x="1633.74" y="156.1" width="23.63" height="1.72"/>
    <path d="M1621.15,168.16v1.7s36.22,0,36.22,0v-1.72h-24.41c-3.21,0-7.73-1.2-11.81.02Z"/>
    <path d="M1044.92,1052.52c-1.07,0-1.07,1.88,0,1.88s1.07-1.88,0-1.88Z"/>
    <path d="M1577.82,171.59c1.02-.57,1.02-1.15,0-1.72v1.72Z"/>
    <path d="M1555.77,570.88v1.72c1.02-.57,1.02-1.15,0-1.72Z"/>
    <path d="M1595.15,574.32v1.72c1.02-.57,1.02-1.15,0-1.72Z"/>
  </g>
</svg>