<?xml version="1.0" encoding="UTF-8"?>
<svg id="Layer_1" xmlns="http://www.w3.org/2000/svg" version="1.1" viewBox="0 0 1920 1080">
  <!-- Generator: Adobe Illustrator 29.5.1, SVG Export Plug-In . SVG Version: 2.1.0 Build 141)  -->
  <text/>
  <g>
    <path d="M1677.05,274.85v1.72c1.02-.57,1.02-1.15,0-1.72Z"/>
    <rect x="1676.27" y="278.3" width="3.13" height="3.42"/>
    <polygon points="1665.23 286.91 1662.1 287.75 1665.22 290.34 1665.23 286.91"/>
    <path d="M1652.5,261.66c6.54,1.29,14.72,1.46,21.43,1.14,1.92-.09,5.85,1.31,5.49-1.7l-31.49-1.72c-.4,2.73,2.84,1.94,4.58,2.28Z"/>
    <path d="M1630.59,249.03h41.74c.79,0,3.35,2.69,5.5,1.71v-3.43s-47.25,0-47.25,0v1.72Z"/>
    <path d="M1655.78,267.99l-11.01-1.72c.13,3.17,10.67,5.45,11.01,1.72Z"/>
    <path d="M1634.53,266.25c1.02-.57,1.02-1.15,0-1.72v1.72Z"/>
    <rect x="1633.75" y="255.93" width="1.54" height="3.42"/>
    <path d="M1642.4,266.25c1.02-.57,1.02-1.15,0-1.72v1.72Z"/>
    <path d="M1593.56,273.13c-1.94.09-5.85-1.31-5.5,1.72h70.88l-1.57,5.15,17.32,1.72c-1.6-7.42-15.01.92-14.17-6.86l11.51-1.57c-4.45.31-8.75-3.32-12.48-3.66-2.92-.27-1.22,3.19-4.44,3.64-17.84,2.5-42.53-1-61.56-.14Z"/>
    <polygon points="1644.76 259.38 1636.9 259.37 1636.9 262.8 1644.76 261.06 1644.76 259.38"/>
    <path d="M1673.9,221.5v1.72c1.02-.57,1.02-1.15,0-1.72Z"/>
    <path d="M1672.33,218.05v1.72c1.02-.57,1.02-1.15,0-1.72Z"/>
    <path d="M1584.12,242.15v1.72c1.02-.57,1.02-1.15,0-1.72Z"/>
    <path d="M1599.67,245.37c1.83-.21,8.65-.75,8.86-3.2-.99-.23-21.24-1.11-15.74,3.42,2.3.18,4.57.06,6.87-.21Z"/>
    <path d="M1633.73,243.86l-1.57-6.88h26.78c.17-2.76-5.74-2.19-7.69-2.37-22.54-2.12-45.48-.52-68.1-.12l-2.17,2.5h44.89s0,5.15,0,5.15l-14.18.02c.06,3.04,6.74,1.82,8.73,1.79,4.65-.07,8.63-2.1,13.31-.1Z"/>
    <path d="M1591.21,223.22h24.41c6.26,0,7.95-.39,9.45,6.9l.79-6.9h33.08v-1.72h-67.73v1.72Z"/>
    <rect x="1662.1" y="242.17" width="4.71" height="1.69"/>
    <polygon points="1580.19 249.02 1592 249.03 1619.56 249.03 1619.56 247.31 1580.18 247.31 1580.19 249.02"/>
    <rect x="1581.77" y="221.51" width="7.86" height="1.69"/>
    <path d="M1044.92,1052.52c-1.07,0-1.07,1.88,0,1.88s1.07-1.88,0-1.88Z"/>
    <path d="M1577.82,243.87c1.02-.57,1.02-1.15,0-1.72v1.72Z"/>
    <rect x="1575.47" y="235.28" width="3.13" height="1.69"/>
    <path d="M1555.77,570.88v1.72c1.02-.57,1.02-1.15,0-1.72Z"/>
    <path d="M1595.15,574.32v1.72c1.02-.57,1.02-1.15,0-1.72Z"/>
  </g>
</svg>