<?xml version="1.0" encoding="UTF-8"?>
<svg id="Layer_1" xmlns="http://www.w3.org/2000/svg" version="1.1" viewBox="0 0 1920 1080">
  <!-- Generator: Adobe Illustrator 29.5.1, SVG Export Plug-In . SVG Version: 2.1.0 Build 141)  -->
  <text/>
  <g>
    <path d="M1617.2,417.7c1.02-.57,1.02-1.15,0-1.72v1.72Z"/>
    <path d="M1664.46,362.62l.8,3.44-3.95.05c0-4.03-6.68-5.12-7.12-2.24l.02,3.93c-2.34.96-5-1.63-6.29-1.72.93,7.64-16.22,14.02-22.05,13.75l3.14-6.02-4.68.03,2.58-4.53c3.02-2.28,6.49.52,9.14.08,3.8-.63,6.35-3.7,11.87-3.31-.39-3.24-5.05-4.04-7.37-4.49-2.18-.43-21.76.83-23.13,1.28-1.12.37-1.77,1.5-2.54,2.35l9.42,6c-4.16,1.41-10.93,4.89-11.02,10.35h30.71c1.75,0,9.05-11.88,9.77-12.08,3.63-.98,15.86,2.05,17.79.02,3.32-3.5-4.01-2.79-3.14-5.13l12.6,1.69c5.11-4.94-15.39-3.32-16.54-3.44Z"/>
    <path d="M1674.73,377.38c-7.54,2.36-18.58-4.35-22.09,4.18h27.56c3.63-3.98,5.42-8.13,4.74-13.73-2.25,3.71-6.2,8.3-10.21,9.56Z"/>
    <path d="M1628.23,405.65c1.02-.57,1.02-1.15,0-1.72v1.72Z"/>
    <path d="M1625.08,419.42c1.02-.57,1.02-1.15,0-1.72v1.72Z"/>
    <path d="M1650.28,338.53v1.72c1.02-.57,1.02-1.15,0-1.72Z"/>
    <rect x="1655.8" y="348.87" width="3.13" height="1.69"/>
    <rect x="1669.98" y="302.4" width="1.54" height="3.42"/>
    <rect x="1671.56" y="293.79" width="1.54" height="3.42"/>
    <path d="M1636.07,331.65c2.1.15,9.81,1.37,10.26-1.7l-14.16-1.73c-.65,4.81.75,3.21,3.9,3.44Z"/>
    <path d="M1701.48,381.54c4.2.32,9.83.87,9.43-5.14-2.38,2.78-8.44,1.89-9.43,5.14Z"/>
    <rect x="1709.36" y="300.68" width="1.54" height="3.42"/>
    <rect x="1701.48" y="309.29" width="3.13" height="1.69"/>
    <path d="M1702.26,366.07c1.02-.57,1.02-1.15,0-1.72v1.72Z"/>
    <path d="M1710.13,297.22c1.02-.57,1.02-1.15,0-1.72v1.72Z"/>
    <path d="M1690.73,379.39c-.78-.55.38-3.28-1.07-3.02l-.8,5.18h11.03c-.52-3.91-6.54-.32-9.16-2.16Z"/>
    <path d="M1691.23,364.35c1.02-.57,1.02-1.15,0-1.72v1.72Z"/>
    <rect x="1699.9" y="367.81" width="3.13" height="1.69"/>
    <path d="M1695.96,367.79v1.72c1.02-.57,1.02-1.15,0-1.72Z"/>
    <path d="M1735.33,347.14c1.02-.57,1.02-1.15,0-1.72v1.72Z"/>
    <path d="M1044.92,1052.52c-1.07,0-1.07,1.88,0,1.88s1.07-1.88,0-1.88Z"/>
    <path d="M1646.33,292.07c-6.14-.26-12.13.58-18.26.23-2.96-.17-3.83,1.37-2.21,3.18,5.7,1.04,13.11,2.99,18.52.47,2.25-1.05,2.37-.47,1.94-3.88Z"/>
    <rect x="1636.9" y="298.96" width="9.43" height="1.69"/>
    <path d="M1621.15,300.68c-.65,2.67,1.88,1.08,2.6,2.29.83,1.4.23,3.68,1.52,4.74,3.05,2.5,16.56-.41,21.06,1.55v-5.15c-10.64,1.47-13.56-8.58-25.19-3.43ZM1633.74,304.09h-7.87s0-1.68,0-1.68c3.34-.1,6.7-3.06,7.87,1.68Z"/>
    <path d="M1595.15,329.93v1.72c1.02-.57,1.02-1.15,0-1.72Z"/>
    <path d="M1555.77,570.88v1.72c1.02-.57,1.02-1.15,0-1.72Z"/>
    <path d="M1595.15,574.32v1.72c1.02-.57,1.02-1.15,0-1.72Z"/>
  </g>
</svg>