<?xml version="1.0" encoding="UTF-8"?>
<svg id="Layer_1" xmlns="http://www.w3.org/2000/svg" version="1.1" viewBox="0 0 1920 1080">
  <!-- Generator: Adobe Illustrator 29.5.1, SVG Export Plug-In . SVG Version: 2.1.0 Build 141)  -->
  <text/>
  <g>
    <path d="M1662.88,173.31v1.72c1.02-.57,1.02-1.15,0-1.72Z"/>
    <path d="M1611.67,182.77c-.03,3.07,28.03-.86,32.04,1.93l13.65-2.78c-15.26-.36-30.47-1.04-45.69.84Z"/>
    <path d="M1610.1,181.92c-7.37,1.13-17.43-2.79-23.59,2.59,7.06-.7,14.1,1.87,21.27.84,2.16-.31,4.94-1.26,2.32-3.43Z"/>
    <path d="M1579.4,190.52v1.72c1.02-.57,1.02-1.15,0-1.72Z"/>
    <path d="M1044.92,1052.52c-1.07,0-1.07,1.88,0,1.88s1.07-1.88,0-1.88Z"/>
    <path d="M1571.52,190.52c1.02-.57,1.02-1.15,0-1.72v1.72Z"/>
    <path d="M1555.77,570.88v1.72c1.02-.57,1.02-1.15,0-1.72Z"/>
    <path d="M1595.15,574.32v1.72c1.02-.57,1.02-1.15,0-1.72Z"/>
  </g>
</svg>