<?xml version="1.0" encoding="UTF-8"?>
<svg id="Layer_1" xmlns="http://www.w3.org/2000/svg" version="1.1" viewBox="0 0 1920 1080">
  <!-- Generator: Adobe Illustrator 29.5.1, SVG Export Plug-In . SVG Version: 2.1.0 Build 141)  -->
  <rect x="-13.81" y="555.4" width="1.54" height="3.42"/>
  <rect x="-12.24" y="646.62" width="3.13" height="1.69"/>
  <polygon points="-13.83 607.01 -11.5 607.01 -9.11 603.59 -13.83 603.59 -13.83 607.01"/>
  <rect x="-13.82" y="142.34" width="3.13" height="3.42"/>
  <path d="M-15.41,460.73v3.44l7.88-1.72c-2.31-.03-5.26-1.99-7.88-1.72Z"/>
  <polygon points="-10.67 546.78 -7.54 543.36 -10.67 543.36 -10.67 546.78"/>
  <rect x="-12.24" y="534.75" width="3.13" height="1.69"/>
  <rect x="-10.67" y="548.52" width="3.13" height="1.69"/>
  <rect x="-10.67" y="515.81" width="3.13" height="3.42"/>
  <rect x="-10.66" y="557.12" width="1.54" height="3.42"/>
  <polygon points="1228.75 1003.04 1222.64 1002.88 1224.22 1009.75 1230.48 1007.18 1228.76 1003.04 1228.75 1003.04"/>
  <path d="M1213.4,752.68l15.53-7.96-15.73,3.42-1.58-187.59h-15.76v33.56c0,4.27-7.6,22.71-10.92,25.97-2.45,2.4-12.29,9.28-15.44,10.63-4.36,1.87-19.21,5.9-23.28,5.61-3.77-.27-3.62-2.69-3.99-5.99-1.56-13.79,2.12-28.49,1.64-42.26,9.33,1.24,26.86-3.64,26.61-16.38-.31-15.41-33.54-8.27-43.15-8.56-1.28-.04-3.37-2.57-6.2-2.67-8.84-.3-17.81.16-26.65.33-7.35,11.17-1.43,26.19,11.59,27.3h.02s0,46.47,0,46.47c-10.54-.77-23.55-4.79-31.5-12.91v-59.38h-1.58v241.57c2.1.02,4.2.04,6.3.08v-2.42h48.04l2.36,2.58v.57h4.67c-.34-8.13-.88-16.92-1.38-24.67-1.21-18.76-5.18-34.85-11.37-52.26-6.18-.37-19.28-.46-22.25-7.53-1.7-4.04-2.03-33.06-1.13-38.27,2.17-12.57,29.51-17.71,35.41.81,2.16,6.79,4.43,38.32.82,42.23-1.63,1.78-6.43,1.91-6.4,3.51,9.21,24.17,10.98,46.91,9.51,73.02h28.35c-.33.73-.67,1.42-1,2.1h7.38c1.68-.75,3.72-1.38,6.21-2.09h.02c-.23-14.81-5.15-32.58,1.66-47.25l-.08-80.13h4.71c-2.63,25.56,4.59,55.24,1.71,80.16-.38,3.29-3.02,1.64-3.4,4.93-1.4,12.04,1.5,27.05-.12,39.46-.86,2.98-2.59,2.28-4.49,2.83.01.66.02,1.37.04,2.09h.06c2.06,0,4.13-.03,6.2.01v-2.12h27.56c6.49-14.44-1.94-32.86,1-48.81ZM1106.07,579.47h-3.13v-1.69h3.13v1.69ZM1098.99,768.8c1.02.57,1.02,1.15,0,1.72v-1.72ZM1088.74,751.6c1.6,1.73-3.11,6.88-4.71,5.15s3.08-6.91,4.71-5.15ZM1091.89,758.49v1.69h-4.71v-1.69h4.71ZM1085.59,746.44c-.49,1.99-8.45,7.8-9.44,6.85,1.56-3.74,5.63-6.72,9.44-6.85ZM1079.29,758.49l-3.13,3.42v-3.42h3.13ZM1079.29,763.64v3.43l-3.13-.84,3.13-2.59ZM1077.74,784.29l1.24-12.5c.28,4.69,2.93,10.63-1.24,12.5ZM1093.45,764.5l-10.99,2.57c-1.71-6.06,10.94-5.61,10.99-2.57ZM1085.58,770.54v3.42h-1.54v-3.42h1.54ZM1082.48,788.61l8.65-6c.67,3.08-6.11,5.8-8.65,6ZM1095.04,770.51h-3.13v-1.69h3.13v1.69ZM1088.77,741.26c4.33,2.75,4.82,10.68,6.27,15.48l-6.27-15.48ZM1095.84,760.2v-1.72c1.02.57,1.02,1.15,0,1.72ZM1133.64,567.43c1.02.57,1.02,1.15,0,1.72v-1.72ZM1133.64,581.2c1.02.57,1.02,1.15,0,1.72v-1.72ZM1128.91,598.41v-1.72c1.02.57,1.02,1.15,0,1.72ZM1135.99,675.85l-3.13-.84,3.13-2.59v3.43Z"/>
  <path d="M1391.97,970.2l-2.35,2.56.74.81c.88-1.09,3.18-2.24,1.61-3.37Z"/>
  <path d="M1928.27,1013.2h-1.54l-.82,6.84c2.45-1.81,2.75-3.68,2.36-6.84Z"/>
  <rect x="1199.02" y="1073.44" width="3.13" height="5.15"/>
  <rect x="1383.31" y="989.11" width="1.54" height="3.42"/>
  <path d="M1109.63,678.9c-7.26,3.36-6.03,24.05-5.16,32.28,1.63,15.46,14.57,7.84,25.15,9.34,3.03-14.78,3.16-52.34-19.99-41.62Z"/>
  <path d="M1339.99,1057.98h0s-2.35,2.56-2.35,2.56l.74.81c.88-1.09,3.18-2.24,1.61-3.37Z"/>
  <path d="M-15.41,484.82v-1.72,1.72Z"/>
</svg>