<?xml version="1.0" encoding="UTF-8"?>
<svg id="Layer_1" xmlns="http://www.w3.org/2000/svg" version="1.1" viewBox="0 0 1920 1080">
  <!-- Generator: Adobe Illustrator 29.5.1, SVG Export Plug-In . SVG Version: 2.1.0 Build 141)  -->
  <rect x="1831.59" y="7.61" width="1.48" height="3.47"/>
  <text/>
  <g>
    <path d="M1913.32,123.4v1.72c1.02-.57,1.02-1.15,0-1.72Z"/>
    <path d="M1044.92,1052.52c-1.07,0-1.07,1.88,0,1.88s1.07-1.88,0-1.88Z"/>
    <path d="M1898.35,570.89c-3.15-2.93-71.44,1.42-82.75.05-2.36-.28-4.86-.36-5.46-3.49l5.49-3.49c-5.85-2.38-10.33,6.91-11,6.91h-42.53l-2.04,2.78c-1.15,21.02.7,42.49-.26,63.55-.3,6.67-1.08,20.99-2.32,26.72-3.49,16.13-25.94,19.46-35.56,7.64-14.14-17.35-9.95-77.83-11.01-100.7h-92.14c-3.05-2.76-3.46-8.29-1.5-11.86-1.24-.04-2.47-.08-3.71-.11-.03.75-.07,1.49-.09,2.24-.37,11.86.3,23.71,1.02,35.54.73,12.03,1.49,24.07,1.28,36.13-.21,12.16-1.28,24.28-1.83,36.42-.27,6.06-.41,12.14-.25,18.21.17,6.14.86,12.23,1.31,18.36.88,11.94,1.05,23.95-.06,35.88,0,.07-.03.13-.06.19.04.07.06.15.06.24-.19,4.53-.21,9.07-.12,13.6,0,.45.03.89.04,1.34.9,1.12,1.46,2.45,1.57,4.03.14,1.84-.68,3.78-1.2,5.71.26,5.07.6,10.15.95,15.22.35,2.93.61,5.89.6,8.87.12,1.82.23,3.65.34,5.47h5.58c1.15-1.19-2.23-14.74,2.37-17.18l11.33,16.85c6.03,2.1,14.94-1.23,20.19-.54,5.42.71,24.31,13.36,29.96,12.52,5.85-5.09,1.11-15.42,11.77-13.38l-3.1-9.55c3.07-3.33-3.32-17.55.71-17.94,2.3-.22,5.9,5.55,6.48,8.03,1.12,4.84-2.89,8.66,2.28,10.1l-3.21,8.52,4.68-.87-1.57,6.86,7.88,1.73-.59-17.41,2.16-18.71v9.33s6.32,1,6.32,1c-1.02,3.98-3.7,3.15-6.29,1.69l1.61,25.81c4.87-.27,9.34-2.76,13.36,1.71-1.53-10.86,2.88-21.02-.8-30.93l9.45-.81,1.45-4.29-3.02-.94c1.9-3.33,10.91-4.83,12.22-6.55.74-.96.03-3.58.63-4.26.55-.63,13.1-3.22,15.5-3.81-.4,2.54-4.07,3.89-4.5,6.26-.72,3.96,9.78,13.47-6.53,9.19,12.8-8.74-8.19-14.69-3.16-.02-8.1-1.27-3.7,8.81-11.01,6.94l4.49,1.91,1.78,11.84-5.48-10.31c-8.55,4.35-10.79,12.35-4.77,20.52,1.91-1.43,4.69-1.66,6.43-3.23,2.18-1.97,1.48-5.78,3.81-5.26.72,8.44,10.12,4.33,15.78,5.18l-9.43,5.13c8.41-1.6,22.34,8.33,29.02,8.36,12.83.07,35.33-7.06,46.57-14.38l-27.47.92-6.39-5.18-3.92,5.12,1.58-12.03,2.42,5.27c12.71-1.4,26.1,6.11,38.98,2.95,5.3-1.3,27.77-21.24,24.73-25.45l-5.51,3.43-.79-3.42-2.48,3.56c-1.86-.25-3.5-1.73-5.38-1.85.79,3.6.13,3.08-2.33,3.44-6.6.97-11.58-1.31-17.38-1.7-5.63-.38-19.79,2.74-19.7-3.44l-5.49,3.47-1.56-3.48c-2.7,3.11-3.88,6.04-7.86,3.43l-.82-3.43,4.74-.02-1.6-5.13c7.62-5.1,9.62,1.43,10.54,1.67,4.8,1.25,13.14-.55,18.71-.06,4.23.38,7.59,4.47,13.31,1.82l-1.6,3.41c3.65.19,7.4-.22,11.04.01-.62-2.83-4.42-1.58-6.3-1.74,3.5-5.54,13.94-.21,21.23-1.75,2.39-.5,7.92-5.74,8.68-7.73,2.2-5.75-13.67.3-14.15-4.26l15.83.9c3.47-4.52,17.52-38.27,15.65-40.49-8.14,3.21-14.33,3.05-22.81,1.66-2.89-.47-4.67,1.78-3.94-3.38,5.58.02,16.23,1.25,20.98-.02,1.09-.29,1.02-5.65,8.93-1.7-2.43-6.81,7.11-13.01-.03-14.62v-3.47c.82-.8,2.39-.44,2.79-1.74,9.18-30.02,5.7-79.72,6.61-111.78.08-2.69,1.64-5.11,1.66-7.8ZM1688.06,629.43c.87,1.1,3.17,2.24,1.61,3.37-.76-1.01-3.16-2.18-1.61-3.37ZM1685.7,631.12c1.05,2.16-2.52,6-3.12,5.16-1.05-2.16,2.52-6,3.12-5.16ZM1668.4,601.87h3.13v1.69h-3.13v-1.69ZM1660.53,682.76h1.54v3.42h-1.54v-3.42ZM1650.09,692.97l6.5-6.77,2.57,22.12c1.08,1.86,7.77.07,6.07,5.41l-15.73-1.73c-1.3-4.47,4.59-4.32,4.83-6.13.7-5.36-6.78-7.13-4.24-12.9ZM1660.51,720.6l-1.55,8.6-4.73-8.58,6.29-.03ZM1647.92,718.9h3.13v3.42h-3.13v-3.42ZM1644.26,696.08c-.27.63-3.23-.42-2.8,4.68.37,4.44,3.8,6.75,3.32,11.25l-8.7,1.65-1.72-3.47c1.94-8.1,2.69-13.84-.61-21.37.85-3.72,15.41-4.08,10.52,7.27ZM1618.77,613.9c1.02.57,1.02,1.15,0,1.72v-1.72ZM1618,768.81l4.7-1.73v6.88c-2.86.56-5.2-1.89-4.7-5.14ZM1624.27,743.82l-3.12,2.61v-5.15s3.13,0,3.13,0v2.55ZM1622.73,739.54c1-5.71-4.04-9.02-4.72-12.94-1.33-7.57-1.71-21.97,7.85-21.47-1.55,3.67.19,14.43-.23,16.24-.62,2.67-4.77,1.24-4.52,5.13.53,8.19,7.64,6.23,7.88,8.74.21,2.15-3.63,6.38-6.26,4.3ZM1629.58,686.33c-1,1.04-10.75,9.51-11.58,8.45.17-3.4-1.2-19.06,2.36-18.89,2.98,4.71,4.17,7.97,10.25,6.86.4,2.38.31,2.2-1.02,3.58ZM1639.66,780.48c-1.15-2.92-2.5-6.8-2.76-9.96,4.64,2.26,6.2,8.62,6.28,13.76-4.55.93-2.55-1.33-3.52-3.8ZM1653.44,770.49c-.76-1.01-3.16-2.18-1.61-3.37.87,1.1,3.17,2.24,1.61,3.37ZM1657.36,780.83h-3.13v-1.69h3.13v1.69ZM1656.58,777.41v-1.72c1.02.57,1.02,1.15,0,1.72ZM1656.56,736.67c-1.13,0-3.92,3.56-6.62,4.27-10.6,2.77-16.56-8.23-16.19-18.59l9.45,1.72c-5.29,7.21,4.03,21.53,8.7,13.8,3.41-5.65-2.24-4.86-2.41-6.08-.36-2.48.02-3.15,2.38-2.6,4.84,1.13,12.01,4.8,13.38,10.34-3.29,1.74-7.49-2.86-8.68-2.86ZM1666.03,787.73v-1.72c1.02.57,1.02,1.15,0,1.72ZM1666.8,722.32h-1.54v-3.42h1.54v3.42ZM1671.52,798.05h-1.54v-3.42h1.54v3.42ZM1670.75,787.73v-1.72c1.02.57,1.02,1.15,0,1.72ZM1671.52,782.56h-1.54v-3.42h1.54v3.42ZM1669.97,772.23v-2.55s2.36-2.6,2.36-2.6l.77,5.15h-3.13ZM1673.11,739.53c-2.99,3.9-6.36-10.81-6.28-12.03,2.23.53,7.08,10.99,6.28,12.03ZM1672.73,704.72c-.65.87-3.24-.26-2.76,1.25l3.15,4.29-4.72.03-1.59-22.37,7.87-1.73c-.94,2.33-1.41,17.81-1.95,18.53ZM1679.42,789.44c-.44-2.3,3.09-12.84,6.28-10.31l1.59,10.31h-7.87ZM1684.93,767.08v-1.72c1.02.57,1.02,1.15,0,1.72ZM1686.5,748.15v-1.72c1.02.57,1.02,1.15,0,1.72ZM1684.16,718.89l6.06,1.94.22,16.98c-9.7,1.43-5.55-11.64-6.28-18.92ZM1684.16,710.28l3.19-7.73c-5.15-1.36-5.4-14.93.73-16.32,4.24.14-.32,22.31,2.35,25.77-5.38,1.11-1.11-5.34-6.28-1.71ZM1719.58,703.4c1.02.57,1.02,1.15,0,1.72v-1.72ZM1718.81,712.01h1.54v3.42h-1.54v-3.42ZM1701.48,689.64h3.13v3.42h-3.13v-3.42ZM1705.42,754.98c-11.19-5.21,2.4-10.31-.81-20.6l-4.69-.83,6.27-6.05c1.51,1.59,3.33,21.73-3.12,20.68l4.71,3.45-2.35,3.36ZM1714.06,699.95h-6.29c.84-3.43,3.35-3.87,6.29-3.42v3.42ZM1716.43,713.73v-1.72c1.02.57,1.02,1.15,0,1.72ZM1718.01,782.57c1.02.57,1.02,1.15,0,1.72v-1.72ZM1716.43,796.34v-1.72c1.02.57,1.02,1.15,0,1.72ZM1720.4,792.88l-3.17-5.13,3.94,1.7.76,3.44h-1.53ZM1721.94,755.02c-5.78-.03-5.78-5.12,0-5.15v5.15ZM1721.96,799.78v-3.43s3.13,0,3.13,0l-3.13,3.42ZM1726.66,785.99h-3.13v-1.69h3.13v1.69ZM1721.98,697.39l1.55-4.31h3.13s0,3.42,0,3.42l-4.69.89ZM1735.33,684.47c1.02.57,1.02,1.15,0,1.72v-1.72ZM1734.55,743.83c.16,3.72-.09,7.49-.02,11.2-2.76.4-1.47-3.9-1.56-6-.16-3.72.09-7.49.02-11.2,2.76-.4,1.47,3.9,1.56,6ZM1736.92,718.86c-.76-1.01-3.16-2.18-1.61-3.37.87,1.1,3.17,2.24,1.61,3.37ZM1798.34,782.57c1.02.57,1.02,1.15,0,1.72v-1.72ZM1793.61,773.96c1.02.57,1.02,1.15,0,1.72v-1.72ZM1792.03,777.42l2.34,2.57-3.1,2.58.76-5.15ZM1835.37,596.7h1.54v3.42h-1.54v-3.42ZM1830.64,665.53v-3.42h3.13v3.42h-3.13ZM1831.42,703.4v-1.72c1.02.57,1.02,1.15,0,1.72ZM1830.62,577.77c2.5,2.73-2.21,7.88-4.71,5.15s2.21-7.88,4.71-5.15ZM1821.98,698.22l-2.37-6.86,7.86,1.73c.53,3.68-2.22,5.79-5.49,5.13ZM1821.96,701.68v-1.72c1.02.57,1.02,1.15,0,1.72ZM1820.37,682.78c.87,1.1,3.17,2.24,1.61,3.37-.76-1.01-3.16-2.18-1.61-3.37ZM1820.39,689.63v-1.72c1.02.57,1.02,1.15,0,1.72ZM1827.49,600.13v-3.42h3.13v3.42h-3.13ZM1827.49,593.24v-5.15h1.54v5.15h-1.54ZM1821.19,677.58v-8.59s1.55,0,1.55,0l1.59,8.58h-3.14ZM1824.32,662.1v2.55s-3.13,2.61-3.13,2.61v-5.15s3.13,0,3.13,0ZM1822.74,600.13h-4.71v-3.42h4.71v3.42ZM1820.39,589.81v-1.72c1.02.57,1.02,1.15,0,1.72ZM1814.05,577.72l5.52-1.66,1.61,6.85h-7.87s.75-5.19.75-5.19ZM1818.03,591.51h-3.14s0-3.42,0-3.42l3.13,3.42ZM1814.09,598.41v-1.72c1.02.57,1.02,1.15,0,1.72ZM1810.16,662.1h6.28v3.42h-6.28v-3.42ZM1814.88,699.98l-2.39,3.41h-2.33s0-3.42,0-3.42h4.72ZM1812.51,696.52v-1.72c1.02.57,1.02,1.15,0,1.72ZM1808.57,662.1v2.55c-2.64,7.39-15.18-2.92,0-2.55ZM1806.21,679.31v-1.72c1.02.57,1.02,1.15,0,1.72ZM1799.14,576.05h1.54v3.42h-1.54v-3.42ZM1799.13,686.21l12.58,1.73c.59,2.63-5.89,1.1-6.77.91-1.84-.4-6.1.15-5.81-2.64ZM1806.99,699.98v1.69h-4.71v-1.69h4.71ZM1793.6,689.67c2.94,3.57,7.96,6.2,7.1,12-2.6,3.26-7.62-10.16-7.1-12ZM1795.19,705.12v-1.72c1.02.57,1.02,1.15,0,1.72ZM1791.26,662.1h6.28v3.42h-6.28v-3.42ZM1791.24,576.05v5.15c-5.78-.03-5.78-5.12,0-5.15ZM1780.23,665.53v-3.42h7.86v3.42h-7.86ZM1787.31,698.24v-1.72c1.02.57,1.02,1.15,0,1.72ZM1778.66,696.51v-3.43s3.14,3.42,3.14,3.42h-3.14ZM1780.22,705.11h-3.14s1.59-5.14,1.59-5.14h1.54s0,5.14,0,5.14ZM1780.23,576.05h3.13v5.15h-3.13v-5.15ZM1778.66,603.6h3.13v1.69h-3.13v-1.69ZM1778.64,631.1h-3.13v-1.69h3.13v1.69ZM1777.07,576.05v2.55s-3.13,2.61-3.13,2.61v-5.15s3.13,0,3.13,0ZM1769.21,694.8h3.13v3.42h-3.13v-3.42ZM1766.83,576.05l2.34,2.57-3.1,2.58.76-5.15ZM1766.03,696.52v3.43s-3.13-.84-3.13-.84l3.13-2.59ZM1759.75,689.65c.79.79-6.9,11.71-9.43,12.03l-1.55-7.78c5.1,1.06,6.41-3.98,10.98-4.25ZM1754.23,722.33v-1.72c1.02.57,1.02,1.15,0,1.72ZM1753.44,713.74c-.03,6.31-4.68,6.31-4.71,0h4.71ZM1750.28,722.34v3.42h-1.54v-3.42h1.54ZM1742.41,686.17h-3.13v-1.69h3.13v1.69ZM1748.71,698.25v3.43s-3.13-2.59-3.13-2.59l3.13-.84ZM1747.16,730.95h1.54v3.42h-1.54v-3.42ZM1747.18,745.58c3.13-6.09,14.41-10.49,15.7-.88-6.65-5.48-9.35-2.65-15.7.88ZM1762.89,687.89h-3.13v-1.69h3.13v1.69ZM1762.9,717.15c2.28-4.67,12.08-7.86,14.17-1.72-5.38,2.22-8.34,3.83-14.17,1.72ZM1762.91,798.04v-1.68c3.5-1.44,5.93-1.44,9.43,0v1.68s-9.43,0-9.43,0ZM1762.39,781.08c-3.96.36-7.02,8.18-12.09,6.64l4.74-15.46c3.98-1.34,3.7,3.95,5.04,4.9.87.62,3.33-1.19,5.53-.23,2.33,1.02,9.04,6.88,11.47,9.07-5.87,3.49-12.5-5.12-14.68-4.92ZM1781.01,798.06v-1.72c1.02.57,1.02,1.15,0,1.72ZM1781.01,789.45v-1.72c1.02.57,1.02,1.15,0,1.72ZM1781.01,786.01v-1.72c1.02.57,1.02,1.15,0,1.72ZM1783.36,780c-.27,2.35-1.11,5.47-3.13,2.56l.1-10.99-5.7-2.64-.69-8.73h9.38c1.85,1.44.42,16.52.05,19.8ZM1785.74,798.06v-1.72c1.02.57,1.02,1.15,0,1.72ZM1781.12,746.3c-3.02-4.53-7.96-4.17-10.35-8.46,7.65,1.27,13.62,9.44,15.75,17.18-4.75.78-2.55-4.44-5.4-8.72ZM1780.23,724.04l9.41-4.29-9.41-4.28c6.55-.91,20.37,5.71,15.76-5.18,1.19,1.05,5.68,3.25,5.97,3.72.33.53-1.02,11.4-2.77,12.59l-18.96-2.56ZM1797.54,732.68v1.69h-3.13v-1.69h3.13ZM1802.27,755.03h-12.58s5.51-15.47,5.51-15.47c3.06,2.99,2.92,7.99,4.45,11.56.37.87,4.11-.39,2.62,3.92ZM1803.86,755.02v-3.42s7.86,1.73,7.86,1.73v1.68s-7.86,0-7.86,0ZM1808.56,730.94c1.05,2.16-2.52,6-3.12,5.16-1.05-2.16,2.52-6,3.12-5.16ZM1809.36,724.05v-1.72c1.02.57,1.02,1.15,0,1.72ZM1813.31,755.02v-3.43s6.28,1.74,6.28,1.74v1.68s-6.28,0-6.28,0ZM1814.09,722.33v-1.72c1.02.57,1.02,1.15,0,1.72ZM1807,715.45c-1.54-7.07,10.38-1.55,12.51-3.62-1.5-11.33,11.24.79,14.27,3.62h-26.78ZM1831.42,729.22v-1.72c1.02.57,1.02,1.15,0,1.72ZM1822.76,755.02c1.39-3.9,9.47-.74,12.58-1.69-1.39,3.9-9.47.74-12.58,1.69ZM1836.14,727.5v-1.72c1.02.57,1.02,1.15,0,1.72ZM1838.5,715.43h-3.13v-1.69h3.13v1.69ZM1840.07,703.38h-4.71v-1.69h4.71v1.69ZM1841.65,665.52h-3.13v-1.69h3.13v1.69ZM1845.59,596.69c1.02.57,1.02,1.15,0,1.72v-1.72ZM1844.81,634.57h3.13v3.42h-3.13v-3.42ZM1852.67,715.43h-7.86v-1.69h7.86v1.69ZM1852.67,703.38h-6.28v-1.69h6.28v1.69ZM1865.29,718.91h3.13v1.69h-3.13v-1.69ZM1860.55,658.63h-4.71v-1.69h4.71v1.69ZM1863.71,656.95h3.13v1.69h-3.13v-1.69ZM1866.07,703.4v-1.72c1.02.57,1.02,1.15,0,1.72ZM1866.07,694.79v-1.72c1.02.57,1.02,1.15,0,1.72ZM1871.59,703.39v-3.43s3.14,3.42,3.14,3.42h-3.14ZM1874.73,698.22l-7.87,1.73c-.5-5.88,4.67-1.13,2.34-8.56,4.11,1.36,6.34.37,5.53,6.83ZM1875.52,658.65v-1.72c1.02.57,1.02,1.15,0,1.72ZM1879.47,655.22h1.54v3.42h-1.54v-3.42ZM1880.24,675.86v-1.72c1.02.57,1.02,1.15,0,1.72ZM1880.24,686.19v-1.72c1.02.57,1.02,1.15,0,1.72ZM1881.01,687.92c.91,3.84,3.42,8.36-1.54,10.31-.37-2.48-2.06-9.56,1.54-10.31ZM1882.6,705.11h-3.13v-3.42h3.13v3.42ZM1888.12,658.65v-1.72c1.02.57,1.02,1.15,0,1.72ZM1888.12,615.63v-1.72c1.02.57,1.02,1.15,0,1.72ZM1889.69,576.04v-1.72c1.02.57,1.02,1.15,0,1.72Z"/>
    <polygon points="1780.21 768.8 1780.22 765.37 1777.08 766.21 1780.21 768.8"/>
    <rect x="1685.73" y="694.8" width="1.54" height="3.42"/>
    <path d="M1595.26,758.43c-2.58-3.93-11.14-1.05-13.51,2.66,7.16,8.11,3.55,14.74,4.83,23.96,1.74,12.56,14.45,11.63,23.53,11.29v-30.12c0-1.05-3.25-3.31-4.72-2.57-1.25,6.39,3.87,25.21-5.46,24.15-12.47-1.42-3.59-27.71-4.68-29.37Z"/>
    <path d="M1697.53,798.06v1.72c1.02-.57,1.02-1.15,0-1.72Z"/>
    <path d="M1706.23,807.53l6.26,2.56v-1.67c-.91.18-1.79-.08-2.47-.74-.72-.7-.8-1.73-.71-2.71l-3.08,2.56Z"/>
    <rect x="1695.18" y="806.68" width="3.13" height="1.69"/>
    <path d="M1730.61,799.78v1.72c1.02-.57,1.02-1.15,0-1.72Z"/>
  </g>
</svg>