<?xml version="1.0" encoding="UTF-8"?>
<svg id="Layer_1" xmlns="http://www.w3.org/2000/svg" version="1.1" viewBox="0 0 1920 1080">
  <!-- Generator: Adobe Illustrator 29.5.1, SVG Export Plug-In . SVG Version: 2.1.0 Build 141)  -->
  <rect x="1831.59" y="7.61" width="1.48" height="3.47"/>
  <text/>
  <g>
    <path d="M1898.44,433.96c-.27-2.51-.2-4.43-2.44-5.94h-136.25v129.08l133.89,1.71,2.33,10.32c2.09-3.55,2.32-12.02,2.46-16.26.22-7.17-.3-14.43-.06-21.59l-9.47-.85,9.56-3.64c-2.78-29.45,3.07-64.08-.01-92.83ZM1879.44,471.05h-1.54v-3.42h1.54v3.42ZM1881.02,476.22v3.43s-3.13-.84-3.13-.84l3.13-2.59ZM1877.09,459.01c2.5.64,2.54,3.91.03,5.11l-26.02-5.11h25.99ZM1871.57,469.34v3.42h-4.71v-3.42h4.71ZM1863.7,469.35l-2.39,3.41h-2.33s0-3.42,0-3.42h4.72ZM1847.96,469.35h4.71v1.69h-4.71v-1.69ZM1835.36,467.62l11,1.74c-.28,2.83-13.19,3.67-11-1.74ZM1843.22,496.88v3.42h-4.71v-3.42h4.71ZM1833.77,467.62c1.21,6.51-8.08,2.38-11.01,3.43-1.38-6.37,7.91-1.13,11.01-3.43ZM1832.19,500.3h-4.72s2.39-3.42,2.39-3.42h2.33s0,3.42,0,3.42ZM1784.94,471.05h-6.28v-3.42h6.28v3.42ZM1792.82,471.05h-4.71v-3.42h4.71v3.42ZM1802.27,471.05h-4.71v-3.42h4.71v3.42ZM1827.48,457.29l-1.99,3.07-21.64-3.07h23.63ZM1814.88,471.05v-3.42h4.71v3.42h-4.71ZM1816.44,496.89v1.69h-3.13v-1.69h3.13ZM1805.43,467.62h6.28v3.42h-6.28v-3.42ZM1807.79,498.59v-1.72c1.02.57,1.02,1.15,0,1.72ZM1826.71,529.57c-4.97.22-10.01-.14-14.97-.02-.37-3,3.57-1.62,5.49-1.7,4.97-.22,10.01.14,14.97.02.37,3-3.57,1.62-5.49,1.7ZM1830.64,522.68l1.58-5.14-6.3-1.76c1.64-4.56,9.11-1.53,12.58-3.41-.12,4.22,1.28,9.1-2.35,12.01l-1.56-5.09-3.94,3.4ZM1865.28,529.57h-29.93v-1.7s7.09-.02,7.09-.02h22.84v1.72ZM1873.15,529.55h-6.28v-1.69h6.28v1.69ZM1881.82,529.57v-1.72c1.02.57,1.02,1.15,0,1.72ZM1867.73,500.39c-4.85-.64-13.73,1.91-16.62-3.52h31.5l-14.88,3.52ZM1892.05,498.57h-3.13v-1.69h3.13v1.69ZM1894.42,498.59v-1.72c1.02.57,1.02,1.15,0,1.72ZM1887.84,462.48c-3.19-1-7.93,2.41-6.81-3.45l11.58-1.57,2.59,8.43c-5.47,2.38-6.35-3.09-7.36-3.4Z"/>
    <path d="M1913.32,123.4v1.72c1.02-.57,1.02-1.15,0-1.72Z"/>
    <path d="M1044.92,1052.52c-1.07,0-1.07,1.88,0,1.88s1.07-1.88,0-1.88Z"/>
  </g>
</svg>