<?xml version="1.0" encoding="UTF-8"?>
<svg id="Layer_1" xmlns="http://www.w3.org/2000/svg" version="1.1" viewBox="0 0 1920 1080">
  <!-- Generator: Adobe Illustrator 29.5.1, SVG Export Plug-In . SVG Version: 2.1.0 Build 141)  -->
  <rect x="1831.59" y="7.61" width="1.48" height="3.47"/>
  <path d="M1791.25-22.9c2.55,27.41,7.99,54.42,11.01,81.77,1.29,11.67.56,25.94,1.96,37.88.09.79,2.54.59,2.78,2,.36,2.11.14,15.67-3.13,16.03l-.03-8.6h-9.43l-.02,5.19-2.31-1.27c-1.64,4.35-2.72,1.34-5.56,2.04-7.34,1.81-14.76,1.55-18.11,9.53l-.78-5.16h-3.15l2.37-3.44.78,3.44,11.01-5.18-3.01-1.8,1.44-5.06-4.71-1.71c5.55-3.91,13.3.76,15.07-5.24l8.55,1.77c.48-.37,1.42-12.12,1.27-12.74-.64-2.71-5.12-2.23-6.01-7.03-2.01-10.86,4.86-11.26,4.86-12.15l-3.27-12.83c-5.48-1.57-1.05,4.36-3.31,6.65l-4.53,1.1,2.35,4.27-7.2-4.48.11-17.86,8.01,2.56-.15,4.31h7.88c1.74-5.8-2.9-4.87-3.09-5.23-.44-.83,4.2-4.79,3.17-7.56l-9.54-61.2h4.73,0ZM1786.52,52.84l-3.13.84,3.13,2.59v-3.43ZM1803.06,99.3v1.72c1.02-.57,1.02-1.15,0-1.72ZM1781.79,107.9v-3.43l-3.13,2.59s3.13.84,3.13.84ZM1807-22.9l-.79,3.46-.79-3.46h1.58ZM1836.91,107.9v-5.15h-1.54v5.15h1.54ZM1843.21,128.55v-3.42h-1.54v3.42h1.54ZM1862.11,238.7l.82-5.12-2.36,2.57v2.55h1.54ZM1882.76,100.85l10.06.16.8,3.42-13.44,5.13-3.87,13.82c.88.9,13.6-4.68,11,.85-2.62,3.98-9.31,2.85-11.77,6.08-2.29,3-4.4,18.69-8.27,25.35-1.43,2.47-3.74,3.58-5.14,2.15-.87-.88,7.63-19.99,8.67-24.07,2.98-11.67,2.49-20.17,7.06-30.48,1.38-3.11,1.33-6.82,3.96-9.11l.93,6.7h0ZM1783.39,128.55l4.7-3.44c-1.64,4.35,6.7,12.94.78,15.48-5.32,2.28-11.83-11.89-7.05-17.18l1.57,5.14h0ZM1844.8,59.71c4.69,15.65-11.27,22.66-7.63,2l7.63-2ZM1756.59,107.92l-5.5,10.28c-5.1-7.45-9.3,2.48-16.53-1.71l13.76-8.17,8.27-.4ZM1778.64,116.52l-2.33,15.47c-8.04-2.74-.47-19.03,2.33-15.47ZM1855.06,106.2c6.73-2.1,5.53,6.8,1.56,10.28l-3.99-5.98,2.43-4.29h0ZM1863.7,206.01l-4.7,12.03c2.11-7.43-3.45-5.27-3.17-10.3l7.87-1.73ZM1866.85,130.29c-1.27,9.2-5.51,5.48-11.01,3.41l11.01-3.41ZM1758.17,35.65v3.41h-7.88l.02-5.15,7.86,1.74ZM1806.62,118.69c.34.21,4.3,5.19,5.1,6.41l-12.58-6.02c1.21-1.65,6.08-1.28,7.49-.4h-.01ZM1784.96,71.78l3.13,4.28c-1.01,2.22-5.26,3.67-6.28,2.58-.25-.27-1.62-8.87,3.15-6.86ZM1772.34,107.91v3.43h-7.86v-3.43h7.86ZM1904.65,95.87l-1.59,6.87h-3.12c-.6-4.13.74-7.3,4.71-6.87ZM1917.24,99.3l1.59,5.14c-2.55,2.14-8.51-6.5-1.59-5.14ZM1756.59,130.29v5.15h-3.13v-5.15h3.13ZM1868.41,83.8h-1.54v-10.31h1.54v10.31ZM1761.31,109.64c.5,3.25-1.84,5.72-4.72,5.14l1.59-5.14h3.13ZM1825.9,78.66l-2.39,3.41h-2.33v-3.42h4.72ZM1825.89,101.02l-3.1-2.58,2.34-2.57.76,5.15ZM1821.17,95.88v1.68h-4.71v-3.43l4.71,1.74h0ZM1769.19,44.23v3.43l-4.71-1.74v-1.68h4.71ZM1901.51,140.59h-3.14v-3.42l3.13,3.42h.01ZM1781.79,171.57l-7.09-17.16,4.23,7.41,2.86,9.75ZM1921.97,175.02h-1.54v-5.15h1.54v5.15ZM1755.02,45.96l-3.13,3.42v-3.43h3.13ZM1895.19,200.84h-1.54v-5.15h1.54v5.15ZM1898.35,121.68v3.43l-3.13-2.59s3.13-.84,3.13-.84ZM1819.6,104.48l-3.13,3.42v-3.43h3.13ZM1811.71,99.29h-1.54v-3.42h1.54v3.42ZM1870,254.22v1.69h-2.33l-2.35-2.58,4.69.9h-.01ZM1764.48,104.45v-1.69h2.33l2.35,2.58-4.69-.9h.01ZM1870.01,223.2v-1.69l4.69-.9-2.35,2.58h-2.34ZM1786.52-5.67v1.69h-3.13v-1.69h3.13ZM1895.19,206h-1.54v-3.42h1.54v3.42ZM1868.42,200.86v1.69l-4.69.9,2.35-2.58h2.34ZM1791.23,192.23h-1.54v-3.42h1.54v3.42ZM1794.39,185.37v1.69h-3.13v-1.69h3.13ZM1786.51,181.9c-.63,1.45-4.31-4.98-3.94-6.84l3.94,4.29v2.55ZM1818.02,78.66v1.69h-3.13v-1.69h3.13ZM1821.16,128.55h-1.54v-3.42h1.54v3.42ZM1792.81,131.99h-1.54v-3.42h1.54v3.42ZM1832.99,63.16c1.02.57,1.02,1.15,0,1.72,0,0,0-1.72,0-1.72ZM1832.99,70.04c1.02.57,1.02,1.15,0,1.72v-1.72ZM1836.14,56.27c1.02.57,1.02,1.15,0,1.72v-1.72ZM1725.88,52.83c1.02.57,1.02,1.15,0,1.72v-1.72ZM1765.26,49.39c1.02.57,1.02,1.15,0,1.72v-1.72ZM1787.31,80.37c1.02.57,1.02,1.15,0,1.72v-1.72ZM1762.11,37.34c1.02.57,1.02,1.15,0,1.72v-1.72ZM1777.86,85.53c1.02.57,1.02,1.15,0,1.72v-1.72ZM1768.41,35.62c1.02.57,1.02,1.15,0,1.72v-1.72ZM1817.24,88.97c1.02.57,1.02,1.15,0,1.72v-1.72ZM1760.53,33.9c1.02.57,1.02,1.15,0,1.72v-1.72ZM1836.14,32.18c1.02.57,1.02,1.15,0,1.72v-1.72ZM1806.21,90.69c1.02.57,1.02,1.15,0,1.72v-1.72ZM1810.94,101.02c1.02.57,1.02,1.15,0,1.72v-1.72ZM1810.94,104.46c1.02.57,1.02,1.15,0,1.72v-1.72ZM1850.32,16.69c1.02.57,1.02,1.15,0,1.72v-1.72ZM1820.39,107.91c1.02.57,1.02,1.15,0,1.72v-1.72ZM1847.17,11.53c1.02.57,1.02,1.15,0,1.72v-1.72ZM1862.92,113.07c1.02.57,1.02,1.15,0,1.72v-1.72ZM1892.84,267.97c1.02.57,1.02,1.15,0,1.72v-1.72ZM1795.19,114.79c1.02.57,1.02,1.15,0,1.72v-1.72ZM1760.53,116.51c1.02.57,1.02,1.15,0,1.72v-1.72ZM1773.14,1.2c1.02.57,1.02,1.15,0,1.72v-1.72ZM1895.99,243.87c1.02.57,1.02,1.15,0,1.72v-1.72ZM1825.11-2.24c1.02.57,1.02,1.15,0,1.72v-1.72ZM1773.14-3.96c1.02.57,1.02,1.15,0,1.72v-1.72ZM1763.69,119.95c1.02.57,1.02,1.15,0,1.72v-1.72ZM1782.59,119.95c1.02.57,1.02,1.15,0,1.72v-1.72ZM1902.3,119.95c1.02.57,1.02,1.15,0,1.72v-1.72ZM1853.47,209.45c1.02.57,1.02,1.15,0,1.72v-1.72ZM1873.94,206.01c1.02.57,1.02,1.15,0,1.72v-1.72ZM1881.82,200.84c1.02.57,1.02,1.15,0,1.72v-1.72ZM1894.42,190.52c1.02.57,1.02,1.15,0,1.72v-1.72ZM1913.32,123.4c1.02.57,1.02,1.15,0,1.72v-1.72ZM1886.54,181.91c1.02.57,1.02,1.15,0,1.72v-1.72ZM1743.21,173.31c1.02.57,1.02,1.15,0,1.72v-1.72ZM1727.46-19.45c1.02.57,1.02,1.15,0,1.72v-1.72ZM1900.72,125.12c1.02.57,1.02,1.15,0,1.72v-1.72ZM1897.57,126.84c1.02.57,1.02,1.15,0,1.72v-1.72ZM891.07-21.18c1.02.57,1.02,1.15,0,1.72v-1.72ZM1795.19,128.56c1.02.57,1.02,1.15,0,1.72v-1.72ZM1777.86,140.61c1.02.57,1.02,1.15,0,1.72v-1.72ZM1747.93,130.28c1.02.57,1.02,1.15,0,1.72v-1.72ZM1766.84,135.44c1.02.57,1.02,1.15,0,1.72v-1.72ZM1897.57,133.72c1.02.57,1.02,1.15,0,1.72v-1.72ZM1771.56,133.72c1.02.57,1.02,1.15,0,1.72v-1.72ZM1796.76,132c1.02.57,1.02,1.15,0,1.72v-1.72Z"/>
</svg>