<?xml version="1.0" encoding="UTF-8"?>
<svg id="Layer_1" xmlns="http://www.w3.org/2000/svg" version="1.1" viewBox="0 0 1920 1080">
  <!-- Generator: Adobe Illustrator 29.5.1, SVG Export Plug-In . SVG Version: 2.1.0 Build 141)  -->
  <path d="M1847.95,343.69l-1.6,3.43,4.78.03-1.32,3.14c2.75.7,5.18,3.9,7.52,4.67,6.75,2.2,25.47-4.7,25.4,6.7-.01,1.87-3.96-.26-3.28,2.68l3.14,1.72-7.85,1.76,3.14,1.71c-1.82,6.28-6.96,1.61-10,2.19-1.5.29-3.19,3.29-4.87,2.95-2.69-.55-5.92-11.88-5.9-15.14l-11.43-3.89-1.66,3.57-3.15-5.15.66,12.94,15.87-.92.02,6.87h-72.45c.98-3.55,6.82-.81,6.32-6.87l4.69,3.43-3.14-8.58,9.44,1.7.08-4.26c-3.25-1.85-5.32-3.24-4.81-7.8l-4.62,1.83,1.51,3.33h-11.02l3.12-5.15c-3.31,1.25-4.27-.71-5.49,3.44l-3.17-3.43-2.34,3.43c-.79-6.88,7.77-2.68,6.28-8.57-1.65.67-12.28-3.84-9.44-6.9,3.18-3.42,3.39,5.84,7.06,5.15,1.89-.36,1.81-3.59.81-5.14,16.5.22,33.17-1.97,49.61-1.81,9.61.09,18.89,2.95,28.21.14l2.48,2.53c-3.26.21-4.4-.03-4.73,4.29l-4.68-3.45-.02,3.43-3.14.02v-3.43c-3.29-.49-3.59-.16-3.14,3.43h3.14l-.03-.02ZM1825.9,343.67c-1.76-5.82-8.34-1.91-10.99.9l10.99-.9ZM1795.19,341.97v1.72c1.02-.57,1.02-1.15,0-1.72ZM1843.22,341.98l-4.71.84,2.38,2.57h2.33v-3.42h0ZM1810.94,343.69v1.72c1.02-.57,1.02-1.15,0-1.72ZM1836.14,343.69v1.72c1.02-.57,1.02-1.15,0-1.72ZM1795.97,347.15h-3.13v1.69h3.13v-1.69ZM1824.32,355.76h-4.71v1.69h4.71v-1.69ZM1818.03,357.48c-3.03-.67-4.37,2.27-6.29,4.31v2.55h3.11l3.18-6.85h0ZM1828.13,366.8c1.57-1.48,3.42-2.51,4.92-4.1,3.59-6.84-10.7-7.42-7.91,3.33l-5.53-1.67c.6,10.63,3.82,6.88,8.52,2.44h0ZM1864.49,362.63v1.72c1.02-.57,1.02-1.15,0-1.72ZM1814.87,366.09h-3.13v1.69h3.13v-1.69ZM1759.75,407.37v-10.34h50.4l-.78-8.61c2.11,1.2,1.56,7.38,2.65,8.32,2.13,1.85,10.6-.45,9.17,10.63h-61.44ZM1843.24,397.06l-2.4,8.58c-3.04,1.2-1.91-3.06-3.37-3.43-2.7-.68-6.23.39-9.14-.12l-2.42,5.27-4.73-12.03,6.28,1.71.02-17.19,4.69,16.46,11.05.76h.02ZM1890.48,393.61c9.86,1.83,8.04,8.38,6.29,17.23l-4.7-1.73-1.59,17.21v-32.7h0ZM1857.39,395.33c2.54,4.19-5.45,2.4-1.59,6.79l-9.41,3.52c-.58-6.98-.39-14.01-.57-21.07-.06-2.48-1.98-4.17,1.35-6.45l1.47,17.31c1.88,3.24,8.49-.52,8.75-.11h0ZM1873.15,350.57c-6.1.98,1.14-4.28-4.7-3.46,3.35-4.28,3.67-8.16,3.15-13.74l1.55,17.19h0ZM1750.3,407.36c-3.04-1.19-13.72,3.29-12.59-3.42,4.17,2.65,10.48-2.53,12.59,3.42ZM1844.8,414.24h-7.88l.02-5.15c2.63,1.7,6.89,1.47,7.86,5.15ZM1780.21,360.93l-4.69,5.13-1.59-6.86,6.28,1.73h0ZM1786.52,360.92c-1.2,2.68.08,6.3-3.13,6.87v-6.88h3.13ZM1819.59,393.6l-8.66-12.03-2.34,5.14,1.58-10.31,9.42,17.19h0ZM1882.59,400.48h-1.54v-6.87h1.54v6.87ZM1873.16,422.85h-3.14v-5.14h1.54l1.59,5.14h.01ZM1895.21,371.25l-1.59,5.13h-1.54v-5.14h3.14-.01ZM1791.24,360.91v3.43l-3.13-2.59,3.13-.84ZM1789.67,419.44l-3.13,3.42v-3.43h3.13ZM1767.61,388.46v1.69h-3.13v-1.69h3.13ZM1773.92,388.46v1.69h-3.13v-1.69h3.13ZM1885.74,410.81h-1.54v-3.42h1.54v3.42ZM1835.34,412.53h-1.54v-3.42h1.54v3.42ZM1800.69,419.44v1.69h-3.13v-1.69h3.13ZM1860.56,347.12v-1.69l4.69-.9-2.35,2.58h-2.34ZM1779.44,421.14c1.02.57,1.02,1.15,0,1.72v-1.72ZM1864.49,419.42c1.02.57,1.02,1.15,0,1.72v-1.72ZM1864.49,397.05c1.02.57,1.02,1.15,0,1.72v-1.72ZM1423.46,835.92c1.02.57,1.02,1.15,0,1.72v-1.72ZM1771.56,369.51c1.02.57,1.02,1.15,0,1.72v-1.72ZM1766.84,369.51c1.02.57,1.02,1.15,0,1.72v-1.72ZM1768.43,360.94c1.57,1.13-.73,2.28-1.61,3.37l-.74-.81,2.35-2.56ZM1762.11,360.9c1.02.57,1.02,1.15,0,1.72v-1.72ZM1884.97,355.74c1.02.57,1.02,1.15,0,1.72v-1.72ZM1762.11,354.02c1.02.57,1.02,1.15,0,1.72v-1.72ZM1859.77,350.58c1.02.57,1.02,1.15,0,1.72v-1.72ZM1856.62,350.58c1.02.57,1.02,1.15,0,1.72v-1.72ZM1762.11,348.86c1.02.57,1.02,1.15,0,1.72v-1.72ZM1735.33,345.42c1.02.57,1.02,1.15,0,1.72v-1.72ZM1777.86,338.53c1.02.57,1.02,1.15,0,1.72v-1.72ZM1768.41,338.53c1.02.57,1.02,1.15,0,1.72v-1.72ZM891.07-21.18c1.02.57,1.02,1.15,0,1.72v-1.72Z"/>
</svg>