<?xml version="1.0" encoding="UTF-8"?>
<svg id="Layer_1" xmlns="http://www.w3.org/2000/svg" version="1.1" viewBox="0 0 1920 1080">
  <!-- Generator: Adobe Illustrator 29.5.1, SVG Export Plug-In . SVG Version: 2.1.0 Build 141)  -->
  <path d="M1769.2,269.69l1.58,8.6-4.72,3.44,9.43-2.59-3.13-2.55c5.37.85-.11-6.24,5.91-7.24l2.75-4.79-2.37,10.28,3.9-3.4,6.31,5.12c4.86-2.16,5.91-17.76-2.34-15.49l1.57-6.86-4.71,1.71-.03-6.87-3.12,3.43c.33-6.97,5.37-7.55.08-14.47l-4.81.71,7.85-1.72-6.28-8.59,9.43-.02-3.13-6.03,2.93-1.12-1.36-4.88c6.77-.39,2.79,9.09,4.74,13.74l1.56-5.17,6.28,3.45-.79-5.12,5.34,1.9.98,6.68,3.14-15.5,6.85,5.52-1.32,9.96,3.15-6.87,2.35,3.45,3.92-.85-3.21,5,4.02,7.84c-.83-5-.96-8.07,3.91-10.29l-3.13,6.87h6.29c.04-2.38-.89-4.64-.69-7.05.61-7.29,8.35-1.23.83.91l1.46,7.01-4.74.89,3.14,1.72c-3.61,4.47.4,8.23-6.3,6.89l4.7,6.87-3.94-.82.8-2.61c-9.61,4.86-20.89-.14-29.9,6.03l3.12,6-.07-6.08,12.68-.79-3.17,6.85-1.58-2.13-4.68-1.27c-.67,2.8,2.23,1.11,2.72,2.04.99,1.89.27,4.42.41,6.54l-6.28-3.42,3.19,7.71-4.52,5.22c3.91,2.27,7.89,11.37,10.79,8.55l-.04-5.99c1.3,6.45,4.98,5.89,9.49,7.73,0,1.24-13.41.94-16.14,1.36-2.51.39-7.09.32-5.92,4.66,16.22-5.71,33.78-3.56,50.39-1.69,3.37,4.51-15.11,1.08-15.74,1.71,1.63,14.66,13.25,5.7,21.07,6.77,1.53.21.13,5.64,4.12,3.55l2.36-32.69c4.63,3.78-1.12,21.26.8,24.1l6.26.87-6.26.85,1.4,6.69-3.83,1.8.87,5.27h-59.86l1.57-6.87-17.31,1.73c-.11,4.05,5.99-.33,6.28-.03.57.59,2.03,6.02-.81,6.89-7.24-4.06-16.49,1.64-22.04-5.13l-2.34,3.4-.82-23.34c2.1-5.47.77-8.58,2.38-14.51l3.13,3.44c-.11-1.67.24-3.55.02-5.16,1.01-.62,2.09-1.2,3.15-1.72l.03-.03ZM1786.52,230.11l-3.13.84,3.13,2.59v-3.43ZM1795.96,235.26v-3.42h-1.54v3.42h1.54ZM1816.44,235.26v-3.42h-1.54v3.42h1.54ZM1788.89,233.54v1.72c1.02-.57,1.02-1.15,0-1.72ZM1803.06,235.27v1.72c1.02-.57,1.02-1.15,0-1.72ZM1792.04,236.99v1.72c1.02-.57,1.02-1.15,0-1.72ZM1785.74,242.15v1.72c1.02-.57,1.02-1.15,0-1.72ZM1823.54,242.15v1.72c1.02-.57,1.02-1.15,0-1.72ZM1795.98,249.02c-1.66-5.23-7.45-1.93-11.02-3.41l1.6,5.15,9.42-1.73h0ZM1792.82,254.22h-3.14v3.42l3.13-3.42h.01ZM1778.66,281.72l3.95,1.7-.77-2.55,1.51-1.74-4.69.9v1.69h0ZM1770.77,283.47h-3.14v3.42l3.13-3.42h.01ZM1791.24,283.47h-3.13v1.69h3.13v-1.69ZM1801.49,285.18v1.72c1.02-.57,1.02-1.15,0-1.72ZM1782.59,286.9v1.72c1.02-.57,1.02-1.15,0-1.72ZM1764.46,293.77l.82-5.12-2.36,2.57v2.55h1.54ZM1789.67,295.5l.81-5.12-3.95,4.28,3.13.84h0ZM1777.07,293.8h-3.13v1.69h3.13v-1.69ZM1766.04,300.66l.81-5.12-3.95,4.28,3.13.84h0ZM1799.12,295.51c-2.87-3.22-10.09,12.34-1.72,6.7.33-.22,2.13-6.25,1.72-6.7ZM1799.13,304.09l4.69.9-1.56-4.32-3.13,3.42h0ZM1763.69,302.39v1.72c1.02-.57,1.02-1.15,0-1.72ZM1768.41,302.39v1.72c1.02-.57,1.02-1.15,0-1.72ZM1772.34,305.85h-2.33l-2.35,2.58,4.69-.9v-1.69h-.01ZM1778.64,305.84l-3.13.84,3.13,2.59v-3.43ZM1811.72,305.85c-2.89-.42-4.6-.1-6.26,2.58l6.26-.9v-1.69h0ZM1766.05,271.41c-1.02.62-1.93,1.58-3.15,1.72.41-1.5-.84-4.32,1.58-5.16.4,1.1,1.45,2.54,1.58,3.44h0ZM1769.2,267.97c.49.46,3.24-.96,3.17.86.13,1.77-2.22.39-3.17.86v-1.72h0ZM1764.47,267.97c-1.95-5.31-7.05-6.7-1.61-12.93l-3.11.89v-6.9c3.82,4.2,6.14,1.63,10.83,1.88l1.75,4.99-6.31,2.59h4.7l-7.81,1.71c1.41,5.54,5.16,4.52,5.47,4.79,1.42,1.24.59,2.78.8,2.97h-4.73.02ZM1862.11,238.7l.82-5.12-2.36,2.57v2.55h1.54ZM1885.76,285.19c-2.81,4.69-3.57,15.96-5.32,19.93-1.2,2.71-6.66,2.69-4.15,11.03l-1.57-5.18h-9.44c1.86-8.45,11.88-5.98,14.15-14.64,1.77-6.77-9.95,6.08-11-2.52,5.02-2.26,6.97-4.57,12.58-1.73.88-2.99.31-8.14,4.74-6.88h0ZM1873.94,305.83v1.72c1.02-.57,1.02-1.15,0-1.72ZM1885.74,283.45c-4.22-1.82,1.91-9.88,1.41-13.1l8.04-62.61-3.33,45.39-6.12,30.32h0ZM1808.55,204.27c.62.48,1.08,10.72,7.89,8.64l-3.14,2.55c3.74,2.1,7.62,4.24,11.22,6.7,2.09,1.43,3.78.24,2.94,4.5-12.02-5.65-22.98-12.07-31.48-23.24,2.4-2.61,4.24,2.33,7.15,2.63,2,.21,5.19-1.96,5.42-1.78ZM1808.57,209.46l-3.13.84,3.13,2.59v-3.43ZM1818.04,259.39l2.36,5.12,3.93-3.42-2.45,5.15,2.44,3.43-6.3-1.69,1.37,3.16-10.82,3.7,1.59-8.58c2.48-.71,1.16,1.79,1.61,2.15,7.73,6.1,5.05-7.55,3.1-12.48l7.84.84-4.68,2.63h.01ZM1762.89,237l1.56,3.41c-1.05-6.84,7.3-.7,4.73,3.46l-8.69-1.65,2.39-5.22h0ZM1863.7,206.01l-4.7,12.03c2.11-7.43-3.45-5.27-3.17-10.3l7.87-1.73ZM1819.37,280.31l3.37,5.7-4.68,2.6-3.15-6.02,4.47-2.28h0ZM1840.08,233.53h-6.3v-5.14h2.33l3.96,5.14h.01ZM1797.55,195.71l-2.36,5.13-3.94-6.86,6.3,1.73h0ZM1898.35,293.79v3.43c-2.84-.83-6.14.11-7.86-2.58l7.86-.84h0ZM1874.71,326.47h-1.54v-8.59h1.54v8.59ZM1780.22,262.79h-4.72v-3.42h2.33l2.39,3.42ZM1840.07,250.77v1.68l-3.95,1.69-2.34-2.54,6.28-.83h0ZM1816.44,211.16h-3.14l1.59-5.14h1.54v5.14h.01ZM1792.82,206.02l-2.36,3.39-2.35-2.56,4.72-.83h-.01ZM1791.25,204.27l-4.72-.83,2.35-2.56,2.36,3.39h.01ZM1838.5,297.24v1.69h-4.71v-1.69h4.71ZM1849.53,293.78c-.52.14-1.37-.22-1.58,0,.09-.1-.2-1.69.79-1.69s.68,1.56.79,1.69h0ZM1849.53,293.78c3.02,3.55,1.67,5.02-1.58,1.72l1.58-1.72ZM1847.95,295.5c-.11-.12-1.54.23-1.54-.86s1.45-.76,1.54-.86c-.2.22.13,1.15,0,1.72h0ZM1921.97,175.02h-1.54v-5.15h1.54v5.15ZM1895.19,200.84h-1.54v-5.15h1.54v5.15ZM1761.32,200.83h-3.14v-3.42l3.13,3.42h.01ZM1813.3,204.27h-3.14v-3.42l3.13,3.42h.01ZM1847.95,230.09l-3.13-.84,3.13-2.59v3.43ZM1832.19,250.76v3.43l-3.13-2.59,3.13-.84ZM1773.91,245.58h-1.54v-3.42h1.54v3.42ZM1775.48,254.19h-1.54v-3.42h1.54v3.42ZM1870,254.22v1.69h-2.33l-2.35-2.58,4.69.9h-.01ZM1843.22,228.4v1.69h-3.13v-1.69h3.13ZM1870.01,223.2v-1.69l4.69-.9-2.35,2.58h-2.34ZM1847.95,261.1v1.69h-3.13v-1.69h3.13ZM1846.36,216.33h-1.54v-3.42h1.54v3.42ZM1789.67,211.19v1.69h-3.13v-1.69h3.13ZM1895.19,206h-1.54v-3.42h1.54v3.42ZM1868.42,200.86v1.69l-4.69.9,2.35-2.58h2.34ZM1784.94,200.86v1.69h-3.13v-1.69h3.13ZM1806.98,200.84h-1.54v-3.42h1.54v3.42ZM1791.23,192.23h-1.54v-3.42h1.54v3.42ZM1888.9,292.08v1.69h-3.13v-1.69h3.13ZM2000.72,584.64h-1.54v-3.42h1.54v3.42ZM1824.31,323.03h-1.54v-3.42h1.54v3.42ZM1787.31,324.76c1.02.57,1.02,1.15,0,1.72v-1.72ZM1799.91,316.16c1.02.57,1.02,1.15,0,1.72v-1.72ZM1790.45,307.59c.87,1.1,3.17,2.24,1.61,3.37-.76-1.01-3.16-2.18-1.61-3.37ZM1884.97,298.95c1.02.57,1.02,1.15,0,1.72v-1.72ZM1744.78,285.18c1.02.57,1.02,1.15,0,1.72v-1.72ZM1815.66,276.57c1.02.57,1.02,1.15,0,1.72v-1.72ZM1787.3,269.72c.87,1.1,3.17,2.24,1.61,3.37-.76-1.01-3.16-2.18-1.61-3.37ZM1892.84,267.97c1.02.57,1.02,1.15,0,1.72v-1.72ZM1845.59,266.25c1.02.57,1.02,1.15,0,1.72v-1.72ZM1774.71,266.25c1.02.57,1.02,1.15,0,1.72v-1.72ZM1760.53,266.25c1.02.57,1.02,1.15,0,1.72v-1.72ZM1810.94,262.8c1.02.57,1.02,1.15,0,1.72v-1.72ZM1782.59,261.08c1.02.57,1.02,1.15,0,1.72v-1.72ZM1842.44,259.36c1.02.57,1.02,1.15,0,1.72v-1.72ZM1736.91,252.48c1.02.57,1.02,1.15,0,1.72v-1.72ZM1895.99,243.87c1.02.57,1.02,1.15,0,1.72v-1.72ZM1779.44,242.15c1.02.57,1.02,1.15,0,1.72v-1.72ZM1844.02,240.43c1.02.57,1.02,1.15,0,1.72v-1.72ZM1832.99,240.43c1.02.57,1.02,1.15,0,1.72v-1.72ZM1765.28,231.86c1.57,1.13-.73,2.28-1.61,3.37l-.74-.81,2.35-2.56ZM1769.99,231.82c1.02.57,1.02,1.15,0,1.72v-1.72ZM1765.26,226.66c1.02.57,1.02,1.15,0,1.72v-1.72ZM1840.87,219.78c1.02.57,1.02,1.15,0,1.72v-1.72ZM1820.39,216.33c1.02.57,1.02,1.15,0,1.72v-1.72ZM1839.29,212.89c1.02.57,1.02,1.15,0,1.72v-1.72ZM1842.44,211.17c1.02.57,1.02,1.15,0,1.72v-1.72ZM1796.76,211.17c1.02.57,1.02,1.15,0,1.72v-1.72ZM1792.04,211.17c1.02.57,1.02,1.15,0,1.72v-1.72ZM1853.47,209.45c1.02.57,1.02,1.15,0,1.72v-1.72ZM1845.59,209.45c1.02.57,1.02,1.15,0,1.72v-1.72ZM1873.94,206.01c1.02.57,1.02,1.15,0,1.72v-1.72ZM1812.51,206.01c1.02.57,1.02,1.15,0,1.72v-1.72ZM1820.39,204.29c1.02.57,1.02,1.15,0,1.72v-1.72ZM1881.82,200.84c1.02.57,1.02,1.15,0,1.72v-1.72ZM1774.71,199.12c1.02.57,1.02,1.15,0,1.72v-1.72ZM1803.06,197.4c1.02.57,1.02,1.15,0,1.72v-1.72ZM1784.16,197.4c1.02.57,1.02,1.15,0,1.72v-1.72ZM1755.81,193.96c1.02.57,1.02,1.15,0,1.72v-1.72ZM1894.42,190.52c1.02.57,1.02,1.15,0,1.72v-1.72ZM891.07-21.18c1.02.57,1.02,1.15,0,1.72v-1.72Z"/>
</svg>