<?xml version="1.0" encoding="UTF-8"?>
<svg id="Layer_1" xmlns="http://www.w3.org/2000/svg" version="1.1" viewBox="0 0 1920 1080">
  <!-- Generator: Adobe Illustrator 29.5.1, SVG Export Plug-In . SVG Version: 2.1.0 Build 141)  -->
  <rect x="1831.59" y="7.61" width="1.48" height="3.47"/>
  <text/>
  <g>
    <path d="M1443.94,35.62v1.72c1.02-.57,1.02-1.15,0-1.72Z"/>
    <path d="M1044.92,1052.52c-1.07,0-1.07,1.88,0,1.88s1.07-1.88,0-1.88Z"/>
    <path d="M1326.16,803.56c-3.41.8-6.73,3.55-7.41,7.44-1.29,7.36-.92,38.24-.06,46.46.34,3.23.81,6.28,3.16,8.59,24.68,7.28,21.8-21.3,20.48-39.58-.87-12.09-1.46-26.39-16.16-22.92ZM1337.57,855.67c-1.23,7.16-7.17,6.34-12.56,6.08-.01-9.51-4.8-48.69.64-53.52,14.9-13.22,13.19,40.03,11.92,47.44Z"/>
  </g>
</svg>