<?xml version="1.0" encoding="UTF-8"?>
<svg id="Layer_1" xmlns="http://www.w3.org/2000/svg" version="1.1" viewBox="0 0 1920 1080">
  <!-- Generator: Adobe Illustrator 29.5.1, SVG Export Plug-In . SVG Version: 2.1.0 Build 141)  -->
  <rect x="1831.59" y="7.61" width="1.48" height="3.47"/>
  <text/>
  <g>
    <path d="M1443.94,35.62v1.72c1.02-.57,1.02-1.15,0-1.72Z"/>
    <path d="M1091.9,831.62v25.82c-3.05,4.02-9.78,3.86-12.6,0v-54.29c-2.08-.22-4.2,0-6.3.07v47.34c0,.57,2.07,10.51,2.36,11.19,4.12,9.67,22.84,4.13,22.84-4.3v-29.26l-2.36-2.55c-.51,0-3.94,5.32-3.94,5.99Z"/>
    <path d="M1044.92,1052.52c-1.07,0-1.07,1.88,0,1.88s1.07-1.88,0-1.88Z"/>
  </g>
</svg>