<?xml version="1.0" encoding="UTF-8"?>
<svg id="Layer_1" xmlns="http://www.w3.org/2000/svg" version="1.1" viewBox="0 0 1920 1080">
  <!-- Generator: Adobe Illustrator 29.5.1, SVG Export Plug-In . SVG Version: 2.1.0 Build 141)  -->
  <rect x="1831.59" y="7.61" width="1.48" height="3.47"/>
  <text/>
  <g>
    <path d="M1443.94,35.62v1.72c1.02-.57,1.02-1.15,0-1.72Z"/>
    <path d="M1044.92,1052.52c-1.07,0-1.07,1.88,0,1.88s1.07-1.88,0-1.88Z"/>
    <path d="M1303.08,802.12c-2.38-2.18-5.43-3.65-8.71-3.53-1.44.05-2.87.42-4.16,1.04-.68.33-1.35.72-1.96,1.16-.5.37-.92.91-1.49,1.18-1.13.54-1.77-.59-2.41-1.32-.49-.56-1.26-.94-1.91-1.28-.7-.36-1.44-.64-2.21-.82-1.71-.39-3.48-.2-5.18.14-1.29.26-2.56.57-3.81.99-2.17.73-4.82,1.82-5.98,3.94l-.1,63.28h4.72v-59.39c0-5.47,10.54-9.29,12.38-3.2l1.81,62.58h4.71s-1.46-57.56-1.46-57.56c.21-6.65,6.07-10.62,10.53-5.7,7.96,8.78.08,58.55,5.02,62.49l4.81.76c-1.67-21.46.43-43.93-4.57-64.76,0,0-.02,0-.02-.01Z"/>
  </g>
</svg>