<?xml version="1.0" encoding="UTF-8"?>
<svg id="Layer_1" xmlns="http://www.w3.org/2000/svg" version="1.1" viewBox="0 0 1920 1080">
  <!-- Generator: Adobe Illustrator 29.5.1, SVG Export Plug-In . SVG Version: 2.1.0 Build 141)  -->
  <rect x="1831.59" y="7.61" width="1.48" height="3.47"/>
  <text/>
  <g>
    <path d="M1443.94,35.62v1.72c1.02-.57,1.02-1.15,0-1.72Z"/>
    <path d="M1044.92,1052.52c-1.07,0-1.07,1.88,0,1.88s1.07-1.88,0-1.88Z"/>
    <path d="M1223.84,798.37c-4.23.56-9.77,4.25-10.61,9.2-1.44,8.43-.91,38.74-.12,48.22.75,8.98,3.08,12.94,11.88,12.97,18.59.08,12.01-11.47,11.76-23.31-.31-14.55,6.42-49.66-12.91-47.09ZM1232.09,857.44c-1.19,7.07-13.94,10.27-15.65-1.84-.9-6.38-.87-47.29,1.84-50.24,1.73-1.89,7.21-2.74,9.59-1.92,2.73,1.41,3.68,4.64,4.11,7.64,1.02,7.23,1.26,39.55.11,46.36Z"/>
  </g>
</svg>