<?xml version="1.0" encoding="UTF-8"?>
<svg id="Layer_1" xmlns="http://www.w3.org/2000/svg" version="1.1" viewBox="0 0 1920 1080">
  <!-- Generator: Adobe Illustrator 29.5.1, SVG Export Plug-In . SVG Version: 2.1.0 Build 141)  -->
  <rect x="1831.59" y="7.61" width="1.48" height="3.47"/>
  <text/>
  <g>
    <path d="M1443.94,35.62v1.72c1.02-.57,1.02-1.15,0-1.72Z"/>
    <path d="M1178.56,802.94c.32,15.02,2.05,43.98-.07,56.17-1.11,6.36-6.83,8.27-11.06,3.57-4.5-4.99-3.79-36.45-2.89-44.63,1.05-9.54,3.05-12.55,8.46-14.74-1.18.09-2.36.18-3.55.24-1.55.09-3.12.09-4.66.33-1.63,3.32-3.16,6.31-3.63,10.49-.82,7.41-.94,41.42.75,47.45.54,1.92,1.89,3.72,3.11,5.21,4.63,3.58,14.36,1.4,19.8-.13v-63.93c-2.09-.14-4.18-.13-6.27-.03Z"/>
    <path d="M1044.92,1052.52c-1.07,0-1.07,1.88,0,1.88s1.07-1.88,0-1.88Z"/>
  </g>
</svg>