<?xml version="1.0" encoding="UTF-8"?>
<svg id="Layer_1" xmlns="http://www.w3.org/2000/svg" version="1.1" viewBox="0 0 1920 1080">
  <!-- Generator: Adobe Illustrator 29.5.1, SVG Export Plug-In . SVG Version: 2.1.0 Build 141)  -->
  <rect x="1831.59" y="7.61" width="1.48" height="3.47"/>
  <path d="M1495.79,969.06c1.07,0,1.07-1.88,0-1.88s-1.07,1.88,0,1.88ZM1609.32,937.47c4.61,1.48-.16,13.82-1.58,13.79l-.8-6.9-3.81,1.83-.91-3.52h-3.13l-.79,3.44-1.71-3.46c-6.05,1.92-11.98,2.04-14.83-5.17h27.56ZM1635.31,1030.42c-3.61,10.34.17,19.58.03,30.1-.03,2.04,1.11,6.44-1.58,6.02l-3.17-32.68-3.92,5.15-2.38-6.87,11.03-1.72h-.01ZM1818.03,934.04c-5.11,10.73-13.56,4.13-22.05,5.13l4.26-4.98c7.61,4.45,10.07,1.11,17.79-.14h0ZM1566.63,933.48c.17.46,5.95,4.67-2.17,5.7l-4.73-17.2c5.5,2.24,5.2,6.87,6.9,11.5ZM1745.56,937.48c.23,4.19.51,3.03-2.36,3.34-6.08.65-13.24-2.61-19.69.08,4.3-6.8,15.47-2.11,22.04-3.42h0ZM1614.82,968.45c-5.1-3.89.58-13.97-4.71-18.91,10.01-1.59,4.53,12.54,4.71,18.91ZM1663.66,982.22c1.02,1.12-.04,9.54-3.91,8.59-6.04-1.49.31-12.52,3.91-8.59ZM1762.89,937.49l-15.73,3.42c-5.45-4.58,14.72-3.61,15.73-3.42ZM1679.63,917.71l1.72,4.14-6.26,2.57-1.58-6.87,6.11.16h.01ZM1599.38,999.02c3.04,2.12,7.49-2.82,5.99,5.57l-7.05-3.54-1.58,3.53-1.58-3.38,2.38-5.21c2.57-.75.93,2.38,1.85,3.02h-.01ZM1789.67,934.03v3.41l-7.87,1.73c1.31-3.61,4.26-5.83,7.87-5.14h0ZM1858.98,937.47c-.13-1.3-2.33-2.43-.81-3.4l11.83,2.54c-2.99,1.49-7.67,1.01-11.02.85.11,1.12-.04,2.31,0,3.43l-6.26-4.31c1.91-.39,3.98.77,6.27.88h0ZM1773.92,937.48v3.42h-7.86v-3.42h7.86ZM1657.38,1030.41v-6.89c3.56,2.02,6.16-.56,8.66-3.4l-8.66,10.29ZM1748.71,965.01c1.65,2.12-5.79,9.23-6.28,8.6-.64-1.64,4.15-11.33,6.28-8.6ZM1699.89,961.57c2.5,2.73-2.21,7.88-4.71,5.15s2.21-7.88,4.71-5.15ZM1491.97,911.64h-3.13v-8.59h1.54l1.59,8.59ZM1830.63,935.76c-.84,3.42-3.35,3.86-6.29,3.42v-3.42h6.29ZM1638.46,997.7c-5.93-2.42-5.63,9.68-11.01,2.58l10.24-6,.77,3.42ZM1652.66,961.56c-.55-3.86,3.31-5.78,5.51-8.57.23,3.13-2.9,7.51-5.51,8.57ZM1575.45,944.34h-3.12l-1.59-5.14c2.87-.58,5.22,1.89,4.72,5.14h-.01ZM1653.02,988.11v5.15h-3.13v-5.15h3.13ZM1713.47,950.63l8.44-7.16c-2.27,2.68-4.72,5.16-7.07,7.75-4.77,5.27-10.19,7.6-1.37-.59ZM1647.91,990.84l-4.71,5.15c-.53-3.14,1.73-5.71,4.71-5.15ZM1577.02,963.28c-3.03-.84-3.55-3.8-3.12-6.88.76-1.78,3.76,4.64,3.12,6.88ZM1651.06,965.02l-1.59,5.14h-3.13l1.59-5.16h3.13v.02ZM1622.7,1032.14v3.42h-3.13v-3.42h3.13ZM1499.84,956.39h-1.54v-6.87h1.54v6.87ZM1495.11,923.69h-1.54v-5.15h1.54v5.15ZM1550.24,1056.21h-1.54v-5.15h1.54v5.15ZM1714.06,897.87l-3.13-.84,3.13-2.59v3.43h0ZM1627.43,1040.74v3.43l-3.13-2.59,3.13-.84h0ZM1614.83,1030.42v1.69h-4.71v-1.69h4.71ZM1844.8,937.49v1.69h-4.71v-1.69h4.71ZM1633.73,1013.19l-3.13-.84,3.13-2.59v3.43h0ZM1384.85,992.53h-1.54v-3.42h1.54v3.42ZM1498.26,940.9h-1.54v-3.42h1.54v3.42ZM1403.76,934.02h-1.54v-3.42h1.54v3.42ZM1411.63,903.04h-1.54v-3.42h1.54v3.42ZM1658.92,1052.77h-1.54v-3.42h1.54v3.42ZM1556.54,913.36c-.81,1.95-3.49-4.76-3.12-6.86.81-1.95,3.49,4.76,3.12,6.86ZM1554.19,880.67c1.02.57,1.02,1.15,0,1.72v-1.72ZM1718.01,887.56c1.02.57,1.02,1.15,0,1.72v-1.72ZM1599.87,894.44c1.02.57,1.02,1.15,0,1.72v-1.72ZM1412.43,896.16c1.02.57,1.02,1.15,0,1.72v-1.72ZM1555.77,896.16c1.02.57,1.02,1.15,0,1.72v-1.72ZM1702.26,904.77c1.02.57,1.02,1.15,0,1.72v-1.72ZM1632.95,915.09c1.02.57,1.02,1.15,0,1.72v-1.72ZM1733.76,916.81c1.02.57,1.02,1.15,0,1.72v-1.72ZM1632.95,918.54c1.02.57,1.02,1.15,0,1.72v-1.72ZM1897.57,930.58c1.02.57,1.02,1.15,0,1.72v-1.72ZM1733.77,932.34c1.57,1.13-.73,2.28-1.61,3.37l-.74-.81,2.35-2.56ZM1637.68,937.47c1.02.57,1.02,1.15,0,1.72v-1.72ZM1667.6,937.47c1.02.57,1.02,1.15,0,1.72v-1.72ZM1569.95,942.63c1.02.57,1.02,1.15,0,1.72v-1.72ZM1497.49,944.35c1.02.57,1.02,1.15,0,1.72v-1.72ZM1579.4,944.35c1.02.57,1.02,1.15,0,1.72v-1.72ZM1592,947.79c1.02.57,1.02,1.15,0,1.72v-1.72ZM1599.87,949.52c1.02.57,1.02,1.15,0,1.72v-1.72ZM1395.11,959.84c1.02.57,1.02,1.15,0,1.72v-1.72ZM1577.82,966.73c1.02.57,1.02,1.15,0,1.72v-1.72ZM1391.97,970.2c1.57,1.13-.73,2.28-1.61,3.37l-.74-.81,2.35-2.56ZM1585.7,971.89c1.02.57,1.02,1.15,0,1.72v-1.72ZM1582.55,977.05c1.02.57,1.02,1.15,0,1.72v-1.72ZM1584.12,980.49c1.02.57,1.02,1.15,0,1.72v-1.72ZM1585.68,983.97c.87,1.1,3.17,2.24,1.61,3.37-.76-1.01-3.16-2.18-1.61-3.37ZM1621.92,987.38c1.02.57,1.02,1.15,0,1.72v-1.72ZM1588.83,990.86c.87,1.1,3.17,2.24,1.61,3.37-.76-1.01-3.16-2.18-1.61-3.37ZM1621.92,990.82c1.02.57,1.02,1.15,0,1.72v-1.72ZM1626.65,990.86l2.33,2.56-5.5,2.53-.74-.81,3.91-4.29h0ZM1631.38,990.82c1.02.57,1.02,1.15,0,1.72v-1.72ZM1609.32,1016.64c1.02.57,1.02,1.15,0,1.72v-1.72ZM1922.77,1025.24c1.02.57,1.02,1.15,0,1.72v-1.72ZM1625.08,1049.34c1.02.57,1.02,1.15,0,1.72v-1.72ZM1658.54,965.73c1.02.57,1.02,1.15,0,1.72v-1.72ZM1528.99,1052.78c1.02.57,1.02,1.15,0,1.72v-1.72ZM1656.58,1054.5c1.02.57,1.02,1.15,0,1.72v-1.72ZM1746.36,1056.22c1.02.57,1.02,1.15,0,1.72v-1.72ZM1790.85,972.65c1.57,1.13-.73,2.28-1.61,3.37l-.74-.81,2.35-2.56h0ZM664.25,1066.55c1.02.57,1.02,1.15,0,1.72v-1.72ZM667.41,1068.27c1.02.57,1.02,1.15,0,1.72v-1.72ZM1483.31,1068.27c1.02.57,1.02,1.15,0,1.72v-1.72ZM662.68,1069.99c1.02.57,1.02,1.15,0,1.72v-1.72ZM670.56,1069.99c1.02.57,1.02,1.15,0,1.72v-1.72ZM1653.43,1073.43c1.02.57,1.02,1.15,0,1.72v-1.72ZM618.58,1075.15c1.02.57,1.02,1.15,0,1.72v-1.72ZM662.68,1075.15c1.02.57,1.02,1.15,0,1.72v-1.72ZM670.56,1075.15c1.02.57,1.02,1.15,0,1.72v-1.72Z"/>
</svg>