<?xml version="1.0" encoding="UTF-8"?>
<svg id="Layer_1" xmlns="http://www.w3.org/2000/svg" version="1.1" viewBox="0 0 1920 1080">
  <!-- Generator: Adobe Illustrator 29.5.1, SVG Export Plug-In . SVG Version: 2.1.0 Build 141)  -->
  <rect x="1831.59" y="7.61" width="1.48" height="3.47"/>
  <path d="M1044.92,1054.39c1.07,0,1.07-1.88,0-1.88s-1.07,1.88,0,1.88ZM871.66,876.8c3,2.07,12.19-2.16,13.77,3.25,1.67,5.67-5.58,16.06-10.86,13.62-4.84-2.24-4.36-12.41-10.24-12.91-8.94-.76-8.55,14.91-4.02,20.45l-4.72,5.27-13.36-22.36-3.96,17.19-5.57-1.71c-.16-4.65.57-8.35-.42-13.09-.84-3.99-5.08-7.28-1.86-10.19,3.2-2.23,16.88,1.75,20.59,1.77,2.41.02,5.49-2.1,8.55-2.27,4.35-.24,9.5,5.01,11.04-2.06,1.45-.25.3,2.51,1.06,3.03h0ZM825.72,877.25v8.59c-9.17-1.21-14.13,9.32-14.25,18.16-.07,5.59,4.28,11.92-.73,16.22-11.18-4.73-1.78-21.95-8.65-27.49l-3.15,10.31c-2.82-9.34,2.88-9.87,4.12-12.74.67-1.53,1.34-13.97,2.17-14.81l20.48,1.76h.01ZM782.76,902.58c-1.93,2.58-7.71,3.68-10.62,2.18.83-2.05,1.9-9.34,1.5-10.91-.49-1.91-3.49-.98-4.33-4.97-.38-1.81.69-17.83,1.28-18.54,5.57,6.43,8.4,5.12,15.78,4.15.38.3,4.24,8.53,4.32,9.11.13,1.03-7.32,18.17-7.92,18.97h-.01ZM860.35,1078.59c-1.98,2.84-2.87-.17-3.14-2.54-.68-5.81.35-12.81-.01-18.94-1.28-21.62-2.62-43.77-3.2-65.35-.57-21.01.22-41.92-1.49-62.88l3.12,16.36,4.73,133.36h0ZM723.34,872.07l2.34-3.44,6.33,10.31,5.48-5.15c2.55,9.5-10.61,10.95-5.92,18.65l4.35.29-2.97,1.89,1.4,6.69c-4.8.97-2.41-1.6-3.29-4.06-3.39-9.48-9.16-18.26-9.29-28.62l1.57,3.43h0ZM781.6,944.34c-1.18,1.26-5.88-3.46-6.01-3.81-.59-1.64,1.37-3.2.9-4.53-.13-.37-2.29-.04-2.51-1.07-.35-1.6,2.34-11.8,1.29-12.92l-4.72-.89c3.83-2.44,6.82-4.04,4.75-9.45l3.97,1.66,1.54-5.11c.72,7.24-.46,14.62-.33,21.89.05,2.53,2.1,4.7,2.04,6.48-.06,1.68-3.57,4.02-.93,7.74h.01ZM767.41,894.44l-6.28-3.43-1.56,8.58c-1.65-2.99-2.06-21.32-1.36-22.12.35-.4,3.37-1.54,4.08-1.6,7.9-.67,2.91,12.15,5.11,18.58h.01ZM764.27,885.85h-3.13v1.69h3.13v-1.69ZM714.66,896.16v1.72c1.02-.57,1.02-1.15,0-1.72ZM912.25,877.33l1,12.03-10.36,1.63c2.02-6.47.4-8.06-1.57-13.75l10.93.09h0ZM943.83,873.8c2.88,3.67-5.38,2.72-3.13,6.87l4.7-1.71-3.13,2.56c3.82,7.19,6.3,20.71-4.73,21.5,2.62-4.14,5.25-5.39,4.91-11.24-.21-3.66-5.26-1.04-1.63-8.36l-3.32-2.05,1.63-4.14c-12.88-.37,1.83-7.1,4.7-3.44h0ZM962.73,873.79c1.27,1.66-3.55,12.8-6.28,13.76.89-5.05,1.78-8.75,0-13.75h6.28ZM740.65,889.26l-4.71,1.74v-5.15h2.32l2.39,3.41h0ZM832,906.5l-6.28,10.32c1.08-2.64,2.24-11.4,6.28-10.32ZM814.68,997.69l-4.72-.83,2.35-2.56,2.36,3.39h.01ZM805.21,872.06h-1.54v-6.87h1.54v6.87ZM761.12,915.1l-.77,3.42-2.37-3.42h3.14ZM761.12,920.27l-.77,3.42-2.37-3.42h3.14ZM937.53,894.43l-3.13-.84,3.13-2.59v3.43h0ZM819.39,935.74l-4.7-7.75,3.94-2.53.76,10.28ZM832,932.31l-.77,3.42-2.37-3.42h3.14ZM800.49,1006.33v1.69h-3.13v-1.69h3.13ZM803.64,1026.98v1.69h-3.13v-1.69h3.13ZM830.42,925.44c.22.22-.08,1.13,0,1.68-2.39-.45-6.72-.91-6.28-3.41.53-.26,6.04,1.49,6.28,1.73ZM833.56,927.13h-1.54v-3.42h1.54v3.42ZM794.19,1042.47v1.69h-3.13v-1.69h3.13ZM770.56,903.04h-1.54v-3.42h1.54v3.42ZM945.4,903.06v1.69h-3.13v-1.69h3.13ZM860.34,913.36h-1.54v-3.42h1.54v3.42ZM854.04,921.97h-1.54v-3.42h1.54v3.42ZM754.81,921.97h-1.54v-3.42h1.54v3.42ZM773.72,915.11v1.69h-3.13v-1.69h3.13ZM720.96,861.74c1.02.57,1.02,1.15,0,1.72v-1.72ZM987.15,863.46c1.02.57,1.02,1.15,0,1.72v-1.72ZM980.85,866.9c1.02.57,1.02,1.15,0,1.72v-1.72ZM850.12,870.35c1.02.57,1.02,1.15,0,1.72v-1.72ZM752.46,875.51c1.02.57,1.02,1.15,0,1.72v-1.72ZM713.08,878.95c1.02.57,1.02,1.15,0,1.72v-1.72ZM798.14,878.95c1.02.57,1.02,1.15,0,1.72v-1.72ZM733.56,887.56c1.02.57,1.02,1.15,0,1.72v-1.72ZM754.04,892.72c1.02.57,1.02,1.15,0,1.72v-1.72ZM755.61,896.16c1.02.57,1.02,1.15,0,1.72v-1.72ZM750.89,901.32c1.02.57,1.02,1.15,0,1.72v-1.72ZM733.56,906.49c1.02.57,1.02,1.15,0,1.72v-1.72ZM760.34,906.49c1.02.57,1.02,1.15,0,1.72v-1.72ZM760.34,911.65c1.02.57,1.02,1.15,0,1.72v-1.72ZM856.42,923.7c1.02.57,1.02,1.15,0,1.72v-1.72ZM761.91,925.42c1.02.57,1.02,1.15,0,1.72v-1.72ZM724.11,961.56c1.02.57,1.02,1.15,0,1.72v-1.72ZM817.04,973.61c1.02.57,1.02,1.15,0,1.72v-1.72ZM714.66,990.82c1.02.57,1.02,1.15,0,1.72v-1.72ZM807.59,995.98c1.02.57,1.02,1.15,0,1.72v-1.72ZM802.87,1001.15c1.02.57,1.02,1.15,0,1.72v-1.72ZM925.72,1021.8c1.02.57,1.02,1.15,0,1.72v-1.72ZM714.66,1025.24c1.02.57,1.02,1.15,0,1.72v-1.72Z"/>
</svg>