<?xml version="1.0" encoding="UTF-8"?>
<svg id="Layer_1" xmlns="http://www.w3.org/2000/svg" version="1.1" viewBox="0 0 1920 1080">
  <!-- Generator: Adobe Illustrator 29.5.1, SVG Export Plug-In . SVG Version: 2.1.0 Build 141)  -->
  <path d="M354.09,254.81c-4.63-2.61-1.54,2.91-1.73,4.03-.77,4.75-5.82,1.45-8.05,1.73-1.4.18-3.04,3.43-3.62,2.65-.67-.91,1.45-4.62-3.02-3.34-.35,8.79,10.81,3.25,13.31,5.18,1.91,1.48-.41,8.51.3,9.71.6,1.01,4.33,1.03,4.3,3.65l-5.96-1.67c-.98,6,1.29,11.03,3.72,3.35l2.22,3.38c-.96-2.68,3.17-3.52,3.09-4.31-.36-3.81-5.48-10.36-5.63-13.69-.16-3.47,3.03-6.16,2.56-8.99-.1-.02-1.45-1.58-1.49-1.69Z"/>
  <path d="M185.38,695.25v15.18s2.97-5.06,2.97-5.06c2.94-4.16,1.01-8.2-2.97-10.12Z"/>
  <path d="M122.65,685.12c-.02-.08-.05-.15-.09-.23.03.11.06.2.09.23Z"/>
  <path d="M418.31,190.69c-2.23,3,3.95,6.46,2.97,0-.82.14-2.74-.31-2.97,0Z"/>
  <path d="M627.35,983.8l-.03-15.18c-6.79,5.45-8.24-2.88-3.7-5.05,3.46-1.65,1.04,4.08,3.7,3.35,3.42-12.34-3.82-6.05-4.46-6.74-.98-1.06,1.06-7.44.84-9.37-.19-1.67-3.69-4.01-2.32-5.82.72-.96,4.07,5.75,5.97,2.53-5.52-.05-1.06-5.63-1.49-5.9-.82-.51-6.97,1.2-4.47-3.36.11-.2,3.69.25,2.98-3.37l4.47,2.48c-.52-11.24-5.69-6.1-7.5-7.58-.42-.35,1.39-11.2,1.76-11.61.8-.87,4,.75,4.32-1.13l-.11-7.51-5.96,6.73,1.51-13.48,3.75,3.38.7-8.44-5.95,5.06c-1.55-7.65-2.68-10.72,5.97-10.13,1.22-6.11-4.69-2.23-5.99-3.37-1.46-1.29.69-6.04,2.99-5.89l-2.98-4.21,5.98-2.55-5.96-3.37,1.47-4.24c1.09-.92,4.06,3.13,4.48.84.78-4.31-3.72-1.57-5.32-4.07-2.25-3.51.4-10.22.3-14.19-.47-17.34-2.2-35.39-1.73-52.67.23-8.27,3.04-16.08,2.26-26.92-.98-13.72-1.38-8.74-8.57-12.25-8.22-4.02-10.95-33.18-4.89-36.74,6.05-3.55,2.83,6.91,2.88,10.14.26,17.96,14.23,22.49,10.68,1.88-.34-1.99-6.25-.26-6.14-5.26.09-3.73,4.86-5.43,5.74-8.74.79-2.98,1.11-13.05-2.66-11.51-3.88,1.58-13.01,14.2-10.49,1.69,1.43-7.13,10.61-4.12,12.83-7.46,2.1-3.16-1.35-7.55-.65-10.73.33-1.52,3.41-4.02,2.76-4.54-1.35-1.09-11.18-7.7-11.94-6.77-.44.54-.41,10.66-1.31,14.63-.67,2.95,1.09,4.69-3.17,3.93v-37.12c2.36.16,12.72,7.7,13.43,6.75.99-1.32.5-29.96-.06-34.52,2.93-29.99,1.75-61.1.78-91.39-.09-.63-.16-1.26-.22-1.9-.4-4.69-1.18-9.33-1.6-14.02-.39-4.29.21-8.54.33-12.82-.22.33-.45.69-.7,1.09-3.1-13.03-.05-6.38,2.95-8.47.83-.57-1.86-11.34-1.62-14.34.78-10.11.22-11.39.09-21.84-2.04-157.16,1.68-314.64.07-471.73h-168.72c1.71,7.79-2.35,15.19-2.48,22.04-.25,12.6,3.61,32.07,4.04,46.23.29,9.71,1.44,39.53-.37,46.98-1.92,7.9-3.97-2.73-5.57-4.47-1.65-1.78-4.37-.33-4.65-2.08-1.03-6.36-1.22-18.2-1.33-25.11-.1-5.98,4.03-14.49-3.06-17.78l-1.52,15.2-2.94.78c3.12,5.44,3.26,11.46,2.96,17.76l2.94-.89c-2.25,2.92,1.63,13.95.02,16.08-.52.69-10.92-10.43-7.52,5.62.36,1.68,5.68,3.4,6.03,2.82.84-1.4-2.05-6.39,2.98-5.06,4.61,8.69-10.16,14.27-11.93,11.8-.86-1.21-.04-8.87-1.01-11.36-1-2.6-3.89-1.95-3.48-2.97.61-1.53,3-2.9,3.67-5.73.57-2.38,1.18-17.17.88-19.69-.48-4.14-3.02-6.25-3.22-10.07-.12-2.33,5.84-4.47,3.13-7.55-.96-1.09-3.74,1.15-4.6,2.49-.82,1.28-1.78,27.96-1.49,30.54.39,3.49,3.42,2.09,3.12,3.21-.18.69-3.74,7.04-4.5,8.11-1.11,1.58-2.87,1.11-2.95,1.27-.31.6,4.66,9.36,1.29,13.24-.56.64-12.71,2.49-14.08.25-1.32-2.16,2.78-24.99-2.92-25.33-5.18-.31.73,10.21.73,10.94,0,2.21-3.48,9.74-4.47,11.83-.31.66,6.06,1.29,2.98,4.19-.45.43-13.9-1.04-5.22,4.25.36.22,3.34-.59,3.73,1.69.76,4.49-4.93,3.56-5.96,4.3-.69.5,3.88,15.57,2.27,18.48-1.59,2.49,2.09-.08,2.19-.02.93.58.09,5.66-2.85,5.78l1.37,7.73,3.73-5.09c1.66,7.04,5.38,4.31,6.98-.71,2.55-7.97,0-24.76-1.75-33.02h13.43c-.66,2.49-8.86,8.89-9.01,9.57-.36,1.69.83,19.48,1.55,20.79.1.18,2.12-.13,2.99.01l-2.25,3.35-.74-3.37c-5.76,6.71,5.01,4.06,4.51,10.13,5.92-1.9-.82-5.87-.03-6.74,1.87-2.07,5.7,5.92,7.46,5.97-1.36,3.77-3.58,6.27-3.1,10.76l-2.83-.77,1.45,4.28,2.97,5.06c.58-3.15-.75-16.07,2.25-16.42.96-.11,3.18,1.87,3.73,1.26.28-.31-.64-7.79,2.26-8.45,4-.91,3.23,5.96,3.75,6.73.74,1.1,5.87-3.29,7.42.88,1.7,4.58-8.71,3.19-9.02,5.13-.41,2.57,2.25,26.98,3.12,29.94.46,1.54,3.04,1.24,2.9,1.96-.27,1.42-1.95,3.55-2.32,5.86-1,6.17-3.62,14.51,2.36,16.15-.56,2.23-4-1.25-4.48-.86-1.46,1.19-2.23,22.78-1.5,23.63.8.92,9.17-4.11,5.93,1.66-.07.12-1.53-.14-2.36.77-1.82,2,.49,3.36-5.08.97l-2.98,3.37c-1.26,4.59,2.13,2.81,2.69,3.62.46.68-1.3,2.8-1.19,3.1.15.42,7.13,1.57,7.95,1.25,2.35-.94,3.35-4.62,5.46-3.78-.33,4.2-5.52,7.42-5.79,7.86-.81,1.34,1.88,4.13,1.34,4.8-3.29,4.02-2.88-4.67-3.1-4.87-.42-.38-3.98-.45-5.04-.27-1.42.24-2.09,15.81-6.03,5.16-3.94,9.57-5.63,2.68-5.24-5.06-2.85-.19-1.2,5.21-1.46,7.45-.23,1.99-2.99.71-4.5.96l2.98-5.04-4.49-3.38c-2.6-.88-.74,4.12-2.22,3.36-1.09-.55-2.14-3.32-3.79-4.15-15.76-7.92-10.88,5.78-13.37,18.59-.57,2.94,1.48,4.92-3,4.12,1.3-2.26-1.03-16.2-1.51-16.87-1.52-2.14-12.16,8.27-13.42,6.75-.46-.56,1.41-19.29-2.99-13.48-.48.63,1.01,19.71-2.27,11.83-2.82-6.76-.39-14.64-.65-21.05-.12-2.88-1.51-5.67-1.62-8.59-.3-8.12,3.12-19.07-2.17-26.09-2.84-3.77-2.7,1.99-4.08,2.92-.79.53-1.86-2.11-2.62-.39.93,1.96,4.03,1.77,4.48,3.74,1.26,5.6,2.08,16.58,1.45,22.42-3.06-.72-.39-5.6-3.64-8.65-2.62-2.45-12.24,2.28-3.8-11.56-4.63-.19-4.85-3.88-4.49-8.47-4.32.63-.98,6.11-1.47,6.74-11.63.8-3.13.28-.72,3.33,1.85,2.35,1.35,8.03,2.21,10.17.09.05,1.47,1.57,1.49,1.69,1.55.31,4.01-2.13,5.96-1.68l1.5,10.11-4.45-.85,1.52,5.09c1.68,1.37,4-4.5,5.92-2.53.35.36-1.82,3.67-1.61,5.75.11,1.14,3.01.78,3.2,2.04.49,3.29-2.38,7.13-.09,10.75-11.24-3.91-1.87-.02-3,8.45l-4.45-3.37v11.82c4.85-4.13,4.64,3.6-.79,5.02-4.49,1.17-1.18-6.82-1.42-9.29-.82-8.53-6.12-4.18-6.56-4.44-.45-.26-5.85-8.02-4.7-9.87-5.89-1.82-1.61,10.13-2.98,11.81-2.61,3.21-6.19-8.35-9.69-8.44-2.23-.06,1.2,8.57-2.24,8.44.03-6.08-.05-13.62-3.77-18.54l-2.24,10.11-2.95-6.74-3.76,11.81-3.74-11.81c-3.07-.71.26,6.93-3.7,5.04-2.81-1.35-.54-4.91-.77-5.04-1.13-.64-5.59,2.48-5.96,1.68-.33-.71-.25-2.41-1.5-5.07.36,3.16.01,5.84-2.97,6.75v-6.74s2.97,0,2.97,0c-2.39-5.11-5.74-9.53-.74-15.18,6.45,9.22,1.28,5.64.78,7.8-1.8,7.83,8.32,10.81,7.43.61,7.51,5.36,2.84-4.82,2.35-11.67-.1-1.43.75-3.35.62-3.43-1.01-.6-3.99.41-4.5-.08-.36-.34,4.29-4.59-4.46-5.04,7.1,10.92-.31,4.24-1.28,5.26-.67.7.43,3.68-.95,3.15-3.88-1.47-.14-8.46-2.24-11.8l3.78,1.64c-2.18-4.9,3.5-3.7,3.67-3.32.33.75-.52,3.27.3,4.6.55.9,5.07,2.73,5.68,2.13,3.97-3.99-7.16-2.09-4.48-6.73l8.24-3.4c.31,4.14,2.88,4.09,3.7.85.99-3.89-20.29-3.19-20.9-4.22v-76.81c.17-4.09,2.29-3.38,4.48-4.18.21-.08.33-1.27.73-1.24.41.04.53,1.16.76,1.24.98.31,2.42,2.2,2.96,1.69.99-.94.26-8.32,6.47-3.34,1.09.88,1.04,2.96,1.22,3.09.73.52,3.59-2.12,4.28-1.42.3.31-.25,6.52.02,9.18.23,2.26-1.33,7.23,2.21,6l2.27-18.56c2.82,1.91.75,2.08,4.47,3.37-.25-.2.24-1.4,0-1.69-1.9-2.28-1.86-.45-2.52-4.79-1.27-8.4.98-19.99-.48-28.96-3.23.33-2.29,5.44-3.24,6.41-.26.27-1.81-.84-1.94-.68-.5.62.38,1.66.03,2.24-.39.64-1.92.52-2.05,1.31-.88,5.35,5.32,17.99-3.99,18.81-10.56.93-4.47-5.36-5.22-6.15-7.43-.77-2.85,1.12-3.26,4.01-.38,2.71-6.54,5.82-7.2,1.85-.53-3.18,4.36-6.76,4.51-10.07l-4.5,2.5v-6.73c11.85-1.53,7.09,1.22,9.11,4.87.32.57,2.45-2.33,3.58.15l-.75-5.02,3.78,1.64-.69-3.21c9.68-.71.75-2.31-4.31-3.01-1.64-.23-4.07,1.07-4.86.41-1.26-1.07-1.06-3.67-1.42-4.27-1.23-2.05-1.21,6.06-4.45,3.36,1.11-8.61-1.64-64.58.35-67.22.68-.9,2.6.53,2.65-1.12.04-1.6-2.62.02-3.05-1.91-.58-2.65-.57-32.77.42-34.05.67-.85,7.08-.81-.46-4.79l.08-20.85h-58.23c.18,5.92.92,4.66-3.66,5.07-9.21.82-27.04,1.2-35.98.09-3.38-.42-5.19-.56-5.15-5.15h-7.47v25.32c-12.32,1.23-1.31-4.05-3.09-10.79-.77-2.92-3.6-3.01-5.86-2.72.61,10.8-.78,4.79-3.58,5.32-2.12.4-3.72,12.07-5.12,16.08-2.06,5.89-6.36,9.94-7.72,13.21-.88,2.14,7.22-1.46,5.95,3.35-4,6.41-8.63.17-11.2-.14-1.94-.23-5.54,2.73-8.93,2.74-2.1,0-10.98-1.49-13.1-2.11-10.04-2.95-16.49-13.93-12.86-25.57,1.12-3.59,4.99-2.09,5.8-2.77.41-.34-1.11-3.91-.99-5.56.54-7.51,4.34-10.15,6.95-16.34h-13.44v99.55s4-19.8,4-19.8c1.98-9.45,9.22-15.69,17.8-15.55,6.27.1,2.71,16.71,3.6,21.87h-10.45c-.62,12.83,9.81,2.54,14.43,2.02,2.42-.27,4.22,2.57,5.69,2.47,1.15-.08,2.59-2.88,5.82-2.81,4.27.09,8.28,5.12,10.6,5.15.87.01.63-2.38,1.28-2.89,2.38-1.88,5.07,1.73,3.99-5.62h-17.93s0-20.26,0-20.26h27.62c1.65,0,2.14,4.12,2.32,5.82,2.27,21.93-3.87,47.54-1.63,70.05-2.41-.28-5.44,1.38-7.58.88-5.84-1.36-5.34-9.68-2.08-7.55,2.08,1.36,1.28,5.32,3.73,5.04l3.01-6.73h-19.4c-.27,3.13,4.92,2.19,5.76,3.59.56.93.73,6.58-.56,6.54-3.87-.13-15.72-3.67-11.18-10.13-5.04-1.36-2.15,3.7-2.99,5.05-1.81,2.93-4.39-4.81-5.5-5.11-1.8-.49-30.33-.83-30.34.89-.01,3.9,61.18,12.99,67.27,17.13l-.06,36.04c-6.62-2.84-7.72,3.37-8.22,3.39-1.06.02-.42-6.18-3.72-3.37-.13.11.52,2.98-.96,3.4-2.56.72-6.76-.39-10.09.14-7.98,1.28-26.8,5.74-33.83,9.05-3.58,1.68-2.89,3.82-4.49,5-1.58,1.16-4.38.42-4.41,1.82-.06,2.9,3.03,3.75,2.79,6.44-.16,1.76-2.34,4.16-2.71,7.12-.56,4.56.21,9.63-.05,14.28l4.54-.92c3.45-5.57-1.27-24,3.86-25.87l58.79-.23c1.33,8.91-1.3,17.88-1.64,26.16-.36,9.01,1.61,20.95,1.71,28.59.18,13.22,1.71,39.1-.08,50.72-1.14,7.38-13.44-.04-13.45,5.06,0,1.51,9.63,1.41,11.63,10.49,1.87,8.46,3.56,45.19-.38,51.14-1.49,2.25-18.03,2.4-18.71,1.65-.74-.81.67-15.03,1.54-17.27,1.21-3.1,5.18-1.11,6-8.81.62-5.89.52-16.41-6.47-11.09-4.42,3.36-7.7,23.49-13.75,30.42-5.85,6.7-16.53,9.07-24.64,8.44-.46,3.31,3.53.92,4.49,1.68,3.41,2.72-2.49,3.35-2.68,3.59-.51.65.79,2.1.71,2.7-1.18,8.72-5.08-4.21-6.24,3.84-1.25-2.95-8.45-3.03-9.62-1.56-.81,1.03.03,14.79-.39,17.64-.16,1.11-2.68.63-2.58,1.5.65,5.75,2.55,12.94,2.88,18.7.13,2.33-.09,2.7-1.12,2.68-.25.83-.44,1.68-.58,2.53-.03.43-.06.97.15,1.58,2.56,7.71,1.64,9.11,2.51,15.7,2.09,16,6.62-3.21,12.45-6.46l-5.9,14.41c-2.06,2.89-8.32,3.71-6.13,8.39l-4.38-.85c2.05,3.04-.37,6.7.18,9,.97,4.04,8.03,3.56,10.27,7.03-.83,2.31-7.37-2.66-7.43,1.68-.06,4.01,5.59.77,5.82.98.45.42,3.88,9.97,4.78,12.02,2.04,4.61,4.44,9.81,7.16,14.59.19.34.59,7.9,3.11,3.61.41-.69-.81-3,.76-3.39,3.28-.81,1.73,1.74,2.68,2.85,2.11,2.47,13.68.62,17.48.54l-5.97-12.65c4.03-3.73,3.91,6.18,6.74,9.26,1.54,1.67,6.63,2.53,6.66,4.25.03,1.67-19.48,9.75-20.81,7.52-.72-1.22.88-4.91-.81-5-1.3-.07-.8,4.28-3.16,4.97-1.72.5-6.73-2.42-8.04.11-.31.59.3,2.98,0,3.37-1.12,1.39-2.83-1.61-2.98-1.68-1.28-.63-3.49.83-3.01-3.36-5.99,7.79-7.8-4.27-4.82-5.01,4.18-1.04,3.28-2.74,4.13-3.1,1.11-.47,3.88,1.54,5.16.52-2.19-3.91-7.11-26.13-11.17-26.14-4.21-.01-1.34,13.57-1.28,16.29.95,39.19,2.2,97.71-.85,136.37-.27,3.49-2.61,7.05-2.55,8.43.02.48,3.53,8.29,3.87,8.62,1.97,1.88,7.82-6.63,9.02,1.55.68,4.63-3.18,1.6-4.49,2.54-.57.41,5.15,13.89-2.97,10.12,3.41,7.89-2.16,2.47-2.99,5.91-.85,3.55.89,4.53,1.4,5.67-.38-1.56-.62-9.85,3.07.23,1.36-.06,4.28.17,4.44,0,.88-.99.21-6.1.44-6.42.51-.72,6.48-2.93,4.08-5.38-1.34-1.36-4.27,1.98-5.23,3.36-1.73-3.23,3.63-16.9,8.21-13.49,1.19.89.11,8.53.29,10.49.25,2.71,2.55,5.33,2,8.22-.3,1.56-2.86,5.66-3.75,4.9-.54-.46-.29-7.12-2.99-6.74-1.42,10.7,1.15,6.68,4.37,9.39,1.26,1.06,1.32,3.29,1.84,3.74.42.37,4.26-2.45,5.72,1.21l-7.45-.85,2.99,10.12c2.94.53.82-4.09,1.49-5.08.38-.55,2.28,1.61,2.97,1.71.06-.05.38-.07.8-.09.33-.03.77-.04,1.32,0,.46.01.83.04.87.09,1.56.21,5.93-1.1,4.47,2.51-.63,1.56-3.49,2.78-4.18,5.41-.81,3.08.18,11.74-.3,12.32-1.5,1.83-5.39-4.1-5.95-3.37-1.27,1.65,2.2,6.54,2.55,8.91,1.59,10.46-4.66,21.24-2.64,30.5.44,2.02,3.66,1.61,5.06,2.69,1.37,1.05.88,3.33,1.01,3.43,3.5,2.51,3.9-5.27,4.88-6.33,2.84,1.35,5.14-6.03,7.03-3.76,2.28,2.73-5.51,10.3,2.87,8.51l.14,10.04c4.57-1.25,1.11-5.93,2.18-8.37.66-1.49,2.77-2.34,3.48-4.67.82-2.71-1.56-11.8-1.2-12.26,2.93-3.67,2.51,4.3,4.46,3.35l1.52-8.43c4.62,5.42,4,8.53,8.2,0,1.54,7.22,7.26,1.85,7.99-2.85.44-2.83-5.65-5.3-.51-8.95l2.23,6.74c10.1-2.92,4.48-2.61,3.72-7.61-.31-2.02.23-11.23.83-13.07.54-1.65,4.49-1.27,2.9-6.32-2.63-.86-.7,4.05-2.22,3.36-2.4-1.09.15-9.28-8.22-6.74-1.22,5.69,5.55,3.14,5.96,5.97,1.11,7.64-7.03,5.44-7.44,5.86-.39.4-.07,10.57-1.52,11.8-3.95,3.36-3.79-16.84-4.48-18.55-2.63.03-2.87,8.36-5.21,8.4-.59.01-3.02-4.29-3.72-3.35-1.02,4.29,6.84,13.36,5.94,16-2.32,6.79-5.11-.41-7.43-2.5.32,3.39-.34,6.69-.65,10.02-.11,1.13,1.52,5.2-1.58,3.46-3.55-1.99.05-15.89-3.77-20.23-3.81.5-1.26,4.93-1.48,5.05-7.81,4.16-3.96-10.11-4.35-14.39-.34-3.73-2.39-5.39-3.06-8.44-.44-2.04.26-7.22-.06-7.53-.59-.58-2.74,1.25-3.73,1.08-2.02-.33-2.91-3.82-2.24-4.44.66-.6,8.12-1.05,8.96-1.71.12-.1.52-3.6-.73-3.34-1.19.25-3.98,3.66-3.75,0,2.15-2.29,8.61.3,8.95-.03.17-.17-1.65-4.48-1.91-4.71-.98-.84-6.95.22-4.04-3.7.8-1.08,4.14,2.78,1.46-6.76-2.93-.55-.85,4.2-1.49,5.05-1.45,1.95-4.7-9.66-4.46-11.8l5.24,1.64c-.91-9.04-2.1-5.75,3.28-5.65,1.41.03,3.17-1.34,3.42-1.06,1.1,1.27-5.19,6.46,3.01,5.07-2.07,4.97,3.06,15.3-3.01,16.06l-2.95-1.75c2.06,2.03,6.93,9.81,7.19,12.17.22,2.01-2.02,3.41-2.21,5.05-.35,3,.56,7.2-.51,10.66,3.51-.7,2.6-7.31,5.22-8.43.37-.16,1.42,6.85,5.35.55.91-1.45,1.09-5.26,1.46-5.57.2-.18,1.81,1.57,2.57,1.18.19-.1,3.05-2.91,3.15-3.12.58-1.14-4.1-6.19-4.33-9.16-.52-6.54,4.3-10.98,5.84-4.7.77,3.14-1.97,9.77.16,14.05l2.96-3.36c-.63,6.56,2.73,5.96,6.75,8.4.9-3.03-1.03-8.17-.73-10.77.15-1.24,2.77-.79,3.02-2.12.53-2.82-1.73-8.59-.08-12.38-1.84-.53-2.62,3.43-2.66,4.61-.1,2.54,2.45,7.38-.29,7.18-1.01-6.25-7.1-.54-8.94-11.02-.99-5.66,2.6-6.33,3.69-.79l3.74-5.04c-1.31.18-6.77-1.8-7.2-1.39-1.97,1.87-3.5,9.89-4.77-1.33-.34-2.99,1.81-2,2.96-3.61,2.11-2.96,2.72-6.37,6.79-7.17,7.14-1.4,1.83,4.97,3.82,8.31.87,1.46,6.67-.2,8.12,1.77,1.43-2.99-3.86-2.55-3.84-4.38.02-1.9,1.44-7.13,4.56-5.72l3.76,11.83c3.3.53.85-4.2,1.76-8.08.71-3.05-.34-4.48,3.45-3.72l-1.51,13.48c5.31-2.49,6.3,3.42,6.73,3.42,2.44.04,5.68-3.64,5.22-6.78-2.76-.74-.51,3.38-2.24,3.38-4,.02-4.2-9.83-3.72-10.13,5.19-3.17,7.98,9.19,9.72,10.1,1.71.9-.74-5.79,2.22-5.05l2.27,8.42c4.95,1.03-.75-5.26,1.49-5.06,4.06.36,3.22,5.57,4.46,5.07,4.01-1.6,1.14-5.6.78-7.62-.25-1.4,2.86-.96,2.95-.82.89,1.42-.14,11.83.75,11.84.47,0,5.04-6.53,3.75-8.45l1.49,3.37c3.88-.35,1.39-15.03,5.21-15.16,5.15-.18-3.11,22.17,4.48,21.95,1.16-.03.39-3.48,1.61-3.46,1.16.02,2.77,1.68,4.18,1.4,1.73-.35,2.6-3.2,3.87-3.85,1.49-.76,3.94,1.36,4.52.81.28-.27.21-7.83-.1-8.32-.98-1.58-5.58-.03-5.71-.31-.78-1.61.8-4.6-2.95-5.61l1.3-9.38c3.28,1.94,15.79-2.31,16.41-1.69,5.12,5.14-14.73,4-13.44,9.26.56,2.27,7.18,5.09,8.95.86-.43,11.2,5.75,3.48,6.73,3.41,2.75-.21,1.73,8.16,2.55,9.78.45.88,4.13,1.57,4.14,2.85.02,2-5.7,2.47-6.83,4.17-.56.85.42,9.22,0,12.05-.3,2-2.37,6.39-2.1,6.56.8.51,4.22-1.3,2.97,2.52-.22.68-.83,1.1-1.48.86l.74,3.37,3.73-3.37c-.14,4.16,1.76,8.75,5.98,8.43l-1.49-11.79c2.82-2.94,3.82,7.43,5.96,3.36.31-.59,4.46-12.01,4.39-12.69-.06-.61-2.48-3.04-2.87-2.5l-.76,6.77c-2.91-9.57-4.22,2.98-7.45,1.66-8.46-3.48.17-15.07,2.97-20.23,2.98,4.38.2,10.28,6.71,8.44l1.49-84.39c6.29-1.61,13.22,1.62,18.73,1.77,4.78.14,22.54-4.38,25.92.08,1.07,1.4-.98,8.29.89,8.29,2.08,0-1.91-8.78,4.47-10.15l105.27,1.69c2.39,6.16-3.98,7.49-4.47,10.98-.26,1.9,4.18-.34,4.52,1.68,1.07,6.28-3.07,8.92-3.19,13.54-.09,3.24,2.85,2.16,3.16,3.52,1.45,6.26-2.33,5.6-2.57,6.08-2.31,4.7,3.58,8.67,2.62,13.82-.21,1.15-3.02.85-3.15,2.03-.07.65,1.34,11.76,1.62,13.02.15.65,5.47,3.05,2.94,6.21-.64.79-6.95-6.77-4.42,7.54.53,3.02,3.32,4.97,3,8.38-.22,2.33-2.55,4.23-3.01,6.93-.44,2.6-.54,10.73-.14,13.26.19,1.2,6.35,2.99,7.6,1.98,2.68-2.18.41-7.21,2.19-9.39,3,3.72,4.8,13.08-.01,15.17-2.85,1.24-1.98-3.47-3.05-3.47-5.67.02-7.91,2.88-6.62,9.12.28,1.35,2.84,1.24,3,1.95,1.15,4.97-2.73,3.81-3.03,5.29-1.49,7.32,1.9,10.45,8.21,9.12,1.69-.36.28-4.14.76-5.13.93-1.93,10.93,5.08,13.4,4.24-5.08-10.67-7.51-69.94,13.44-59.07,14.02,7.27,13.84,65.21.46,69.7-8.86,2.97-12.24-6.21-17.58-6.28-7.7-.09-3.27,3.29-4.53,8.31l-6.69-1.73c-.52-2.61,4.46-2.41,4.45-4.2,0-.3-3.23-3.97-3.73-4.21-1.86-.88-3.59,6.15-8.19,3.37-.19,22.22.22,44.5.05,66.73-.1,13.22,2.08,31.49-3.04,42.11-.23,1.51,1.95.35,2.58,1.16,2.92,3.76-2.33,58.24.41,68.85l-5.99.02c-1.3,6.77,4.89-.64,5.97,4.23.81,3.64-3.58,4.84-5.96,2.5v5.91s5.96-.83,5.96-.83c1.29,1.46-.89,26.32-.95,30.92-.03,1.92,1.91,8.82.97,9.57-.79.63-5.22-.63-5.99,0-.51.41,1.15,12.45,1.58,13.97.45,1.59,2.79,1.39,2.94,2.05,1.15,5.04-2.43,3.89-2.75,4.45-1.64,2.9,3.06,4.53,3.79,7.61.45,1.9-.9,7.8.42,10.72-4.3,1.63-3.42-5.13-3.71-5.03-2.43.87-.64,4.86-2.14,5.86-5,3.35-14.98-1.74-13.6,6.78.21,1.3,3.53.2,3.04,1.66-.31.92-4.69,4.18-2.98,5.91.82.83,6.33-1.1,8.22-1.33,1.37-.16,3.25,1.39,4.35,1.14,2.43-.55,1.73-5,2.69-6.15.99-1.17,7.32-2.01,9.3-2.16l163.56.08c1.04-1.22-.4-14.85-.08-17.48.15-1.21,5.62-1.22,3.01-4.43-.2-.24-5.46.38-2.88-3.36.66-.95,5.24,1.67,1.44-8.47l4.46,6.73,3.03-7.55-1.53,2.5h-1.47ZM615.37,514.68c-2.74.76-.54-3.56-2.22-3.38-.37.04-3.84,8.85-5.21.88,4.32-2.89,10.69-7.03,7.44,2.5ZM439.94,81v-1.69c.97.56.97,1.12,0,1.69ZM425.75,172.12c-2.31,2.55-4.94-2.39-.73-5.05,1.32.07.89,4.87.73,5.05ZM427.24,124.87h-1.47v-3.36h1.47v3.36ZM433.21,138.37h-1.47v-5.05h1.47v5.05ZM438.45,254.81v-1.69c.97.56.97,1.12,0,1.69ZM306.32,270.01h1.47v3.36h-1.47v-3.36ZM173.42,52.3c-.63-.69,3.5-17.94,4.35-19.24,1.08-1.64,4.41-1.23,4.6-1,.46.55-.36,14.24-.71,15.08-.98,2.37-6.5,7.05-8.24,5.16ZM182.38,52.3c-.43-3.37,2.44-4.32,2.95-7.61.97-6.24-2.88-12.69,4.5-10.95v18.58s-7.45-.02-7.45-.02ZM151.01,197.41l-4.45,3.39c-.49-5.47-.38-5.6,4.46-5.04v1.65ZM159.97,200.81c-7.66-4.27,1.09-11.41,1.47-5.93.03.44-2.3,3.7-1.47,5.93ZM176.4,202.49c-2.42-2.15-10.11.49-10.44.02-.24-.34-1.11-8.19-.88-8.53,1.06-1.54,10.84-3.85,11.32-3.29v11.8ZM182.37,199.12h-2.98v-8.42h2.98s0,8.42,0,8.42ZM188.34,195.74h-1.47v-3.36h1.47v3.36ZM122.66,420.18v-10.11s1.47,0,1.47,0l1.5,10.11h-2.98ZM124.15,396.55c-1.63-1.84,1.34-5.2,2.97-3.36,1.63,1.84-1.34,5.2-2.97,3.36ZM130.11,399.93h-1.47v-3.36h1.47v3.36ZM125.63,566.99h-1.47v-3.36h1.47v3.36ZM165.21,756c.97.56.97,1.12,0,1.69v-1.69ZM162.95,730.69c2.2,2.88-1.94,9.68-4.44.83l4.44-.83ZM162.95,737.44v5.07s-2.96-1.71-2.96-1.71l-1.49,10.13c-1.81-5.22-.14-11.07,4.45-13.49ZM150.28,730.69c.97.56.97,1.12,0,1.69v-1.69ZM155.49,749.24c-3,3.43-2.64-6.18-5.95-3.36-1.05.9.92,15.3-2.99,10.11-.37-.48.76-11.96,1.4-12.64,5.54-5.79,9.05,4.17,7.55,5.89ZM156.25,715.5c.97.56.97,1.12,0,1.69v-1.69ZM156.99,739.11c-1.69,1.52-6.84-.65-4.47-3.35,1.24-1.41,5.32,2.59,4.47,3.35ZM154.76,729v-1.69c.97.56.97,1.12,0,1.69ZM155.5,718.88c-.14,1.34.31,3.15,0,4.2-2.06,6.81-7.65-4.47,0-4.2ZM253.3,587.25c.97.56.97,1.12,0,1.69v-1.69ZM251.81,280.12c.97.56.97,1.12,0,1.69v-1.69ZM251.81,332.44c.97.56.97,1.12,0,1.69v-1.69ZM197.31,41.34c0-.65,1.81-11.46,2.15-12.75.56-2.12,2.22-4.53,3.89-5.72,7.5-5.36,29.49-6.23,38.75-11.05v24.47c0,3.73-9.7,1.3-11.3,4.1-.39.69-2.09,14.01-2.17,16.14-.22,5.97,10.2-.33,12.82,4.12,1.34,2.28,1.32,18.03-.74,19.63-1.15.89-23.42-1.1-27.79-1.05-1.6.02-15.62,2.48-15.62.09v-37.97ZM221.78,160.26c-29.87,2.62-33.15-66.35-5.46-72.11,34.88-7.27,34.99,69.52,5.46,72.11ZM195.07,251.44c.97.56.97,1.12,0,1.69v-1.69ZM197.3,254.82l-.73,3.36-2.25-3.35h2.98ZM228.66,281.82l13.45-.02c-.51,4.13,1.58,25.32-2.25,25.32h-40.31l-2.24-2.53c1-13.43-1.36-29.08,0-42.19,1.51-14.58,13.26-36.41,26.94-22.01,10.49,11.04,3.11,27.56,4.41,41.42ZM195.81,480.95c1.63,1.84-1.34,5.2-2.97,3.36-1.63-1.84,1.34-5.2,2.97-3.36ZM191.35,501.2h1.47v3.36h-1.47v-3.36ZM188.34,512.99l-2.97-.83,2.97-2.54v3.37ZM186.12,384.76l.73,3.36h-2.98s2.25-3.36,2.25-3.36ZM186.85,497.8c-2.64,3.16-2.89-2.36-3.27-2.82-.46-.56-3.98,1.49-4.19-2.22,2.63-1.61,9.84,2.19,7.46,5.04ZM173.43,502.87c-.74-.84,3.32-8.61,3.72-8.42,5.66,2.72-2.02,10.34-3.72,8.42ZM177.9,489.39l-2.97,3.36v-3.37s2.97,0,2.97,0ZM171.94,484.32h1.47v3.36h-1.47v-3.36ZM171.18,383.06c.97.56.97,1.12,0,1.69v-1.69ZM133.09,403.3h-1.47v-3.36h1.47v3.36ZM134.45,447.79c.79-2.58-1.37-4.86,3.13-3.97-1.85,5.8-.84,14.99-5.95,18.55-.12-5.01,1.41-9.96,2.83-14.58ZM128.61,474.18h-1.47v-3.36h1.47v3.36ZM130.13,486v-6.74s1.46,0,1.46,0c.67,3.6,2.58,5.23-1.46,6.74ZM133.12,489.38h1.47v3.36h-1.47v-3.36ZM134.6,499.49c-1.63-1.84,1.34-5.2,2.97-3.36s-1.34,5.2-2.97,3.36ZM137.59,506.23v-1.66c2.19-.55,3.11.71,4.45,2.53l-4.45-.87ZM141.32,511.31v-1.69c.97.56.97,1.12,0,1.69ZM145.04,499.5l-2.97-2.54,2.97-.83v3.37ZM142.08,489.37v-5.05h1.47v5.05h-1.47ZM151.01,494.43h-1.47v-3.36h1.47v3.36ZM158.5,482.63c3.44,1.6,3.77,8.17,4.45,11.81-3.94-1.86-4.71-7.46-4.45-11.81ZM163.71,497.81v-1.69c.97.56.97,1.12,0,1.69ZM165.95,467.42c-.35.45-10.07,2.14-10.43,1.71-2.19-2.61,1.26-9.96,5.62-8.07-.73,3.67,7.74,2.55,4.81,6.36ZM155.51,457.3c-2.83-3.11,3.05-5.62,3.05-5.99-.03-2.52-2.57-4.28-.83-7.52,2.93-5.48,6.83,2.55,3.75,6.75l5.97.02c1.72,5.16-10.83,7.94-11.93,6.73ZM154.76,426.94v-1.69c.97.56.97,1.12,0,1.69ZM159.97,396.55l1.49,11.81h-4.47c1.98-3.33-2.53-13.26,2.97-11.81ZM164.47,415.12v-5.05h1.47v5.05h-1.47ZM166.68,393.17c-2.97,1.65-2.34-3.32-2.23-5.04-2.59-.7-.95,2.59-1.61,3.21-.45.43-6.74-2.93-8.19-3.13-.7-.1-.49,2.46-.88,2.81-.67.6-2.66-1.6-4.25-.45-4.85,3.49,6.13,23.91-5.95,16.12v5.07s2.91-1.68,2.91-1.68c-1.18,5.09,6.04,8.67,6.05,9.27.05,5.09-2.51.26-2.98.82-1.54,1.82.32,10.57-2.99,12.68,10.59-1.17,3.83,6.91,3.09,13.61-.83,7.46.62,11.78-2.01,19.72-.6,1.82-.68,5.92-3.31,4.61-3.04-1.52-1.67-3.93-1.29-6.4.66-4.23,2.62-12.03,2.06-16.06-.19-1.37-3.22-1.04-3.94-4.42-.52-2.45-.54-15.16.9-16.2,1.58-1.15,4.83,2.97,4.48-.75l-3-3.38c-2.27-.51-1.54,2.89-2.94,4.23-4.53,4.34-1.47-12.02-1.55-13.33-.2-3.26-6.63-17.19-5.93-17.91l3.83,1.53c.89.12.08-5.09,2.88-1.61l-.71-4.17,5.2,2.53c.98-4.78-6.13-4.49-6.74-5.05-.23-.21,1.94-6.16,2.21-6.3,3.67-1.96,12.86,2.55,15.74.5l8.19-16.11c1.56,4.11-2.67,8.02-2.3,12.64.24,2.99,3.41,5.65,4.53,4.22.98-1.26-2.41-8.21,2.99-6.74-.35,4.01,1.5,13.08-2.25,15.16ZM154,408.39l-1.5,8.42h-1.47s0-8.42,0-8.42h2.97ZM157,546.77c.49-.25,4.31-.19,4.47,0,4.73,5.39-7.15,1.36-4.47,0ZM161.47,561.95l-2.97,3.36v-3.37s2.97,0,2.97,0ZM156.25,555.19c.97.56.97,1.12,0,1.69v-1.69ZM154.76,561.94l.74,11.79c-3.71,4.3-4.42-10.2-.74-11.79ZM151.76,582.13c.1-1.37,1.27-8.25,3.74-5,.38.5.67,11.08.42,13.15-.39,3.26.14,4.38-3.4,3.72.32-4.1-1.05-7.78-.76-11.87ZM155.5,607.51v3.37s-2.97-2.54-2.97-2.54l2.97-.83ZM153.26,604.12v-1.69c.97.56.97,1.12,0,1.69ZM150.28,632.81c.97.56.97,1.12,0,1.69v-1.69ZM149.54,639.57h1.47v3.36h-1.47v-3.36ZM145.04,560.26c1.63,1.84-1.34,5.2-2.97,3.36-1.63-1.84,1.34-5.2,2.97-3.36ZM144.3,572.06v-1.69c.97.56.97,1.12,0,1.69ZM142.81,567v-1.69c.97.56.97,1.12,0,1.69ZM145.04,578.82c1.63,1.84-1.34,5.2-2.97,3.36-1.63-1.84,1.34-5.2,2.97-3.36ZM144.3,592.31v-1.69c.97.56.97,1.12,0,1.69ZM145.04,673.3c-2.31,2.55-4.94-2.39-.73-5.05,1.32.07.89,4.87.73,5.05ZM154,681.76c.16.18.16,4.87,0,5.05-3.97,4.44-3.97-9.49,0-5.05ZM149.54,679.23l2.97-2.54v3.37s-2.97-.83-2.97-.83ZM155.49,664.87l-4.46-1.69c-.34.45,1.09,15.49-2.99,10.12-2.86-3.77,6.78-14.06-4.48-8.42l-.02-5.09c-11.66,5.54-7.58-10.08.04-2.54,1.53,1.51,1.47,8.07,2.93,5.92.12-.18-.33-2.04.49-2.73,1.28-1.07,3.12-.93,4.66-2.38,1.02-.96,2.11-4.93,3.08-4.98,3.6-.16.2,10.14.74,11.78ZM156.98,634.49h-1.47v-3.36h1.47v3.36ZM161.47,582.2l-2.24,3.33-2.23-2.51,4.47-.82ZM159.23,592.31v-1.69c.97.56.97,1.12,0,1.69ZM159.97,599.05h-2.97v-1.66h2.97v1.66ZM160.73,627.75v-1.69c.97.56.97,1.12,0,1.69ZM167.43,659.8h-1.47v-3.36h1.47v3.36ZM170.54,675.62c-.39-1.84.88-8.2.63-10.59-.17-1.63-4.26-9.37.74-5.21,1.66,1.38,3.93,18.47,2.99,21.93-3.25-.55-1.48-3.2-2.08-4.64-.17-.4-2.01-.24-2.28-1.49ZM173.42,654.76l-2.97,3.36v-3.37s2.97,0,2.97,0ZM171.94,642.93v-3.36h1.47v3.36h-1.47ZM173.43,698.62l-1.28-11.05,4.24-4.12c-2.32,4.6,1.86,12.75-2.97,15.18ZM177.15,666.56v-1.69c.97.56.97,1.12,0,1.69ZM177.89,659.8h-2.97v-1.66h2.97v1.66ZM170.44,629.43c-1.4,2.41-.79,8.13,1.47,6.75.49-.3-1.43-6.72,2.97-.84-3.42,5.47-10.21-3.63-5.97,5.09l-2.96.81c.71-1.64.11-7.9.39-8.16.35-.32,4.16-.45,2.58-1.93-.27-.25-2.53-.19-3.68-1.65-.76-.97.26-3.92-.67-5.68-.51-.97-5.7-1.59-3.1-4.5.47-.52,5.08,5.29,5.98,3.36.24-.52-2.35-2.33-.78-3.33,4.74,1.86,1.94,8.05,2.26,8.4,2.74,3.07,3.09-3.3,3.73-3.43,2.41-.5,4.6.57,5.22,3.43-8.3-4.78-1.39,6.34-7.45,1.69ZM173.43,619.3v-1.66h2.97v1.66h-2.97ZM182.35,674.17l-4.45-.87.73-3.36,3.71,4.23ZM182.37,661.49h-1.47v-3.36h1.47v3.36ZM181.63,612.56v-1.69c.97.56.97,1.12,0,1.69ZM183.12,639.56v-1.69c.97.56.97,1.12,0,1.69ZM189.84,521.43c-3.09,3.58-2.2-4.8-5.2-3.35-2.51,1.21-.59,5.39-3.01,6.73-1.76-1.78.65-4.06-2.97-3.39-1.52.28.5,4.99-3.74,3.38l1.5-5.04-4.51-.87c-.29-2.42,2.11-3.26,2.68-5.41.58-2.19.11-6.96.33-7.22.56-.69,4.97,1.2,5.61,2.1,2.11,2.97.05,7.81.36,8.01.29.19,4.28-.82,6.76-.19,3.17.81,3.08,4.21,2.18,5.25ZM189.1,499.5v-1.69c.97.56.97,1.12,0,1.69ZM190.6,494.41l-2.23-2.52.71-.8,2.23,2.52-.71.8ZM191.35,514.69l4.45,3.36c-.47-5.22,1.73-1.68,4.51-2.4,2.56-.66,5.38-3.18,8.06-2.55,2.01.47,2.64,8.01,2.37,8.34-.4.47-7.84-3.84-11.05-3.08-3.36.8-.87,6.67-3.87,6.45,1.67-8.71-6.27-1.46-4.48-10.12ZM197.32,493.59c-.19-1.41,2.71-1.03,2.96-.83,1.49,1.2,3.59,17.08-2.96.83ZM203.28,482.63c.16.18.59,4.97-.73,5.05-4.21-2.66-1.57-7.6.73-5.05ZM210.75,511.3v-1.66h2.97v1.66h-2.97ZM203.27,632.82v3.36h-1.47v-3.36h1.47ZM195.07,551.81v-1.69c.97.56.97,1.12,0,1.69ZM191.5,573.11l2.81-11.16-1.49,16.86-1.31-5.7ZM195.07,637.87v-1.69c.97.56.97,1.12,0,1.69ZM195.8,629.44l-2.97-2.54,2.97-.83v3.37ZM192.84,560.25v-3.37s2.97,0,2.97,0l-2.97,3.36ZM198.8,610.86h-2.97v-1.66h2.97v1.66ZM199.55,602.44v-1.69c.97.56.97,1.12,0,1.69ZM200.32,650.53l2.22-2.52.73,5.05-2.95-2.53ZM206.28,529.87c-1.63-1.84,1.34-5.2,2.97-3.36s-1.34,5.2-2.97,3.36ZM212.23,653.05c-3.97,4.44-3.97-9.49,0-5.05.16.18.16,4.87,0,5.05ZM207.77,639.56c-.15-.2-.9-4.73,1.12-5.07,1.05-.18,2.88.37,3.38.01.28-.2-3.18-5.84,1.46-6.74,1.72,2.96-3.45,15.02-5.95,11.8ZM214.48,658.12v-1.69c.97.56.97,1.12,0,1.69ZM212.25,524.8v-10.11s1.47,0,1.47,0l1.5,10.11h-2.97ZM221.19,656.43h-2.97s0-6.74,0-6.74c2.97.9,3.35,3.59,2.97,6.74ZM218.22,639.55v-1.66h2.97v1.66h-2.97ZM221.21,517.21l5.96-.83v3.36c-2.76.4-4.35.07-5.96-2.53ZM227.16,659.81l-2.97-2.54,2.97-.83v3.37ZM227.17,572.05c-3.97,4.44-3.97-9.49,0-5.05.16.18.16,4.87,0,5.05ZM227.18,546.74c-1.63-1.84,1.34-5.2,2.97-3.36,1.63,1.84-1.34,5.2-2.97,3.36ZM229.41,590.62v-1.69c.97.56.97,1.12,0,1.69ZM231.64,659.8h-1.47v-3.36h1.47v3.36ZM228.67,583.87c-1.63-1.84,1.34-5.2,2.97-3.36,1.63,1.84-1.34,5.2-2.97,3.36ZM232.41,380.58c-8.64,3.26-26.05-1.67-34.15.76-1.13.34-1.09,2.27-.97,3.39l-2.95-2.54-.05-1.67c0-1.13,2.71-.47,3.04-1.92,1.64-7.31-.64-24.51-.08-33.58.83-13.41,6.31-39.97,22.86-30.75,13.84,7.71,9.63,29.68,8.56,43.49h13.44s0,23.62,0,23.62c-6.11,1.38-.06-4.99-2.25-5.07-4.46-.18-4.69,3.24-7.45,4.28ZM241.36,491.06v-1.69c.97.56.97,1.12,0,1.69ZM238.37,511.31v-1.69c.97.56.97,1.12,0,1.69ZM239.11,516.38c.44.5.96,6.41-2.21,5.04-5.41-2.33-.39-7.98,2.21-5.04ZM239.1,531.57v3.36h-1.47v-3.36h1.47ZM238.37,528.19v-1.69c.97.56.97,1.12,0,1.69ZM239.12,658.12c-1.63-1.84,1.34-5.2,2.97-3.36,1.63,1.84-1.34,5.2-2.97,3.36ZM238.37,575.44c-.74-1.58.87-3.27.75-3.37-.43-.38-2.73.4-2.98,0-.72-1.13-.83-7.61,2.26-3.38.91,1.24.57,3.22.72,3.39.27.28,2.19-.52,2.8.14,3.27,3.54-.46,9.85-3.55,3.23ZM242.1,567c-3.86,5.43-2.86-11.03-3.09-12.53-.68-4.39-3.09-8.18-2.86-12.78,1.5,1.48,6.99,10.21,7.24,11.3.16.68-.89,13.46-1.28,14.01ZM224.85,232.77c-10.49,1.87-18.85-.49-23.89-11.61-6.61-14.57-5.76-44.31,6.74-55.02,1.2-1.03,6.05-4.15,6.81-4.09,2.96.23,2.93,19.68,2.04,22.53-1.03,3.3-8.44,1.57-8.72,12.19-.49,18.45,29.45,17.15,23.54-4.91-.9-3.35-5.51-4.71-5.58-8.64-.04-2.29.99-10.54,1.33-13.69,1.52-13.96,12.06.53,14.24,7.66,4.96,16.23,2.13,52.26-16.51,55.58ZM243.6,457.33h2.97v1.66h-2.97v-1.66ZM246.57,460.7v3.36h-1.47v-3.36h1.47ZM243.62,518.91c-.04-4.94,8.72-.62,5.94,2.52-.92,1.03-5.92-.76-5.94-2.52ZM251.06,546.76l-2.97,3.36v-3.37s2.97,0,2.97,0ZM251.05,561.93c-.93,4.16,5.39,17.6-1.48,16.89,1.56-4.32-5.44-17.63,1.48-16.89ZM252.54,580.51v5.05h-1.47v-5.05h1.47ZM248.09,614.25c4.89,2.97,3.77,11.65,4.45,16.87l-4.45-16.87ZM254.04,649.68h-1.47s-1.5-8.42-1.5-8.42h2.97s0,8.42,0,8.42ZM266.74,664.87c.97.56.97,1.12,0,1.69v-1.69ZM279.42,658.12h-1.47v-3.36h1.47v3.36ZM285.39,696.93h-1.47v-3.36h1.47v3.36ZM284.66,573.75c.97.56.97,1.12,0,1.69v-1.69ZM264.5,561.06c.14-2.82,1.47-4.8,2.98-2.5.71,1.08-1.59,9.08,2.98,10.13-.11-2.67-.23-7.13,2.27-8.42,4.38-2.26-.41,8.93,5.2,6.73l2.99-8.42v16.88c-14.56-.07-17.29,3.66-16.41-14.39ZM270.48,582.18c-1.63-1.84,1.34-5.2,2.97-3.36,1.63,1.84-1.34,5.2-2.97,3.36ZM279.44,533.26v5.05c-3.15-.44-15.65,1.7-16.43-2.55-1.28-6.95,13.24-.78,16.43-2.5ZM264.53,527.34c.07-3.33,14.33-3.1,14.9-2.52,5.1,5.17-14.98,6.64-14.9,2.52ZM279.37,523.05l-16.36.06c-1.2-10.45,10.14-5.89,16.43-6.73v-18.58s-14.95.02-14.95.02c.17-5.32-.23-10.74,0-16.07.12-2.77,1.32-4.69,2.98-2.5v10.11c6.31.47,2.04-5.59,5.25-8.42,4.5-.93,1.2,7.08,2.23,8.41,3.93,5.08,2.14-10.19,5.22-10.09,3.77.13,2.07,22.84,1.59,27.48-.57,5.47-2.26,10.75-2.4,16.29ZM280.2,450.49c.87,1.33,1.14,6.26.71,6.83-.6.8-16.06-8.45-16.32-9.48-2.02-7.79,16.11-12.66,17.82-10.76,3.47,3.84-5.67,10.3-5.96,10.97-.5,1.13,2.79.98,3.75,2.45ZM274.96,419.35c-2.43,6.35,2.77,2.65,5.96,2.53v8.43s-17.71-3.6-17.71-3.6c-.98-4.51-.53-18.79,4.99-18.41,1.93.13,3.29,2.66,4.75,2.99,1.94.45,8.2-2.61,9.46-1.22,3.9,4.27-6.82,7.64-7.45,9.28ZM263.01,396.57c3.06-.91,16.39,1.45,17.7,3.6.7,1.14,1.51,7.21-1.86,6.35-3.21-.82-16.01-5.36-15.84-9.95ZM282.42,393.2c-.49.63-5.86-.06-7.45-.87-1.9-.97-3.7-5.41-5.42-5.8-1.94-.43-3.91,3.25-4.31,3.26-2.6.06-2.9-12.58-2.23-13.47,1.91-2.52,10.94,12.24,14.92,10.11v-8.42c5.88-2.2,5.04,14.47,4.49,15.19ZM263,116.43l.02-6.74c5.56,3.1,11.94,1.25,17.91,1.69v5.05s-7.48,0-7.48,0c.2,2.95-.95,9.44,1.43,11.08,3.69,2.54,7.48-2.91,6.03,7.49l-17.91-3.38c-.9-6.6,6.86-1.43,7.56-7.53,1.04-9.02-.25-8.07-7.56-7.66ZM263.2,254.59l-.12-11.51c24.54-8.27,24.12,21.22.12,11.51ZM263,229.51h17.93v5.05c-2.89-.67-5.89,1.03-8.47,1.08-4.73.09-11.53-.15-9.46-6.13ZM280.92,182.24c-1.35,1.4-15.9-4.29-16.42-5.07-1.15-1.75,3.97-7.8,5.24-8.41,3.71-1.75,2.07,7.11,5.2,6.73-1.81-4.27,3.17-11.59,5.98-8.42,1.98,2.24-2.49,8.36-2.5,9.31-.01,1.14,3.98,4.33,2.5,5.86ZM277.95,150.19c.61-.86,4.18,3.33,2.96,5.06-.61.86-4.18-3.33-2.96-5.06ZM263.01,138.38c2.07-2.39,6.38,6.33,5.97,6.73-1.83,1.75-7.48-4.98-5.97-6.73ZM280.2,195.78c-1.5,2.1-4.53,1.18-5.25,1.68-4.63,3.17,8.39,3.81,5.97,8.41-4.14-.73-15.93,2.13-17.9-2.55-1.55-3.68,8.1-3,8.94-6.73l-8.95-.84c-5.78-5.86,23-8.11,17.19.04ZM265.44,211.15c3.07-1.21,14.21.29,15.37,4.2,3.06,10.28-13.11,11.59-17.48,7-2.21-2.32-.87-10.02,2.11-11.2ZM263.01,270.01c1.08-1.23,6.65.63,5.96,4.19-1.21,6.23-8.84-.93-5.96-4.19ZM268.97,286.88v3.36h-5.96v-3.36h5.96ZM264.85,297.4c2.83-3.19,13.23-2.81,15.35,1.26,2.41,4.63,1.01,15.29-3.78,17.73-11.15,5.69-17.91-11.85-11.57-19ZM263,339.19h7.48s0-11.83,0-11.83h-7.48s0-5.05,0-5.05h17.93v5.05s-7.48,0-7.48,0v11.83s7.48,0,7.48,0l-.02,6.74c-2.31-.12-4.36-1.5-6.69-1.7-5.85-.5-13.01,3.02-11.23-5.04ZM268.97,359.43c-1.22,1.38-5.94-3.4-5.94-4.21,0-5.51,8.02,1.85,5.94,4.21ZM276.45,362.83c2.36-2.26,6.32,6.39,5.97,6.72-2.36,2.26-6.32-6.39-5.97-6.72ZM280.57,286.49c-1.1,1.2-9.38,5.08-10.09,1.21-.78-4.28,5.75-5.53,5.96-5.9.42-.72-8.59-7.25-5.96-10.1,3.5-3.79,17.03,7.24,10.09,14.79ZM264.9,102.49c-10.42-11.77,7.27-27.4,14.64-15.7,7.19,11.41-5.14,26.44-14.64,15.7ZM263.18,12c.66-1.17,16.8-9.75,17.74-8.62,1.81,2.17-1.27,11.24-4.47,12.66,3.94.18,6.65,8.3,2.21,9.28-1.59.35-18.5-8.01-15.48-13.32ZM280.93,38.81l-12.64-.1c-2.01.4,1.48,7.39-5.28,5.18v-13.5s17.92,1.69,17.92,1.69v6.74ZM267.48,57.38c.39,3.63-2.18,6.98-1.29,10.6,1.94,7.91,12.11,3.41,11.67-1.35-.06-.63-10.74-7.07-3.64-9.24,8.54-2.61,10.4,22.85-2.9,21.92-9.46-.67-14.7-18.75-3.84-21.92ZM254.8,592.31v-1.69c.97.56.97,1.12,0,1.69ZM260.02,516.38c1.55,1.76-2.83,7.64-4.46,2.5-1.15-3.63,4.03-2.99,4.46-2.5ZM257.02,671.62h-1.47v-3.36h1.47v3.36ZM263,666.55c-4.82,2.2-9.78-7.12-2.98-6.72l2.98,6.72ZM262.99,644.62l-2.97-2.54,2.97-.83v3.37ZM262.94,606.72c-1.23-12.25,5.52-1.81,6.03-2.59,1.38-2.14-2.4-10.79,6.29-1.19,6.72,7.43,3.73-3.71,4.35-11.28.15-1.82.74-9.32,2.81-9.48-1.21,7.25,1.65,21.72,0,27.84-.99,3.68-6.97,2.73-9.43.93-1.63-1.19-1.65-4.85-3.99-5.15,0,8.18-5.17,9.75-6.05.91ZM278.69,641.22c-1.1-4.23-19.53-10.34-13.3-15.27,1.9-1.5,15.52-6.43,17.02-4.95,1.87,1.85-4.08,6.24-4.35,7.81-.39,2.31,6.59,8.27.62,12.4ZM286.17,658.11l-3.75-11.79,7.45-1.69-3.7,13.48ZM293.62,666.56v-1.69c.97.56.97,1.12,0,1.69ZM291.38,631.13c.92.11,2.67-.27,2.97,0,3.1,2.77-1.62,13.01-2.97,0ZM297.34,619.31c-3.07-1.13-2.62-8.84-2.96-11.8,3.52,1.12,2.9,8.54,2.96,11.8ZM298.84,521.42h-2.97v-1.66h2.97v1.66ZM457.13,224.45h1.47v3.36h-1.47v-3.36ZM457.87,231.19c1.32.07.89,4.87.73,5.05-2.31,2.55-4.94-2.39-.73-5.05ZM440.34,202.05c-3.65-8.35,4.49-8.51,4.83-7.99.75,1.14.21,9.45,4.48,10.13-.63-16.48.88-33.41.08-49.85-.48-9.79-7.03-21.03,2.91-26.08v116.44c-.4.56-2.97-2.15-2.97-2.53,0-5.31,1.06-34.92,0-36.28-.39-.5-5.3,5.37-9.31-3.83ZM449.64,258.2l-.73,6.73c-3.18-2.78-3.87-7.93.73-6.73ZM443.68,253.12c-1-1.1,3.42-9.97.02-12.68-.18-1.42,2.87-.96,2.95-.82.34.56,1.92,13.02,1.49,13.5-.16.18-4.31.18-4.47,0ZM428.74,300.38c1.63,1.84-1.34,5.2-2.97,3.36-1.63-1.84,1.34-5.2,2.97-3.36ZM422.79,300.38h1.47v3.36h-1.47v-3.36ZM416.79,300.38c1.63,1.84-1.34,5.2-2.97,3.36-1.63-1.84,1.34-5.2,2.97-3.36ZM416.05,312.19v-1.69c.97.56.97,1.12,0,1.69ZM416.05,315.56v-1.69c.97.56.97,1.12,0,1.69ZM403.36,300.38c.16.18.59,4.97-.73,5.05-4.21-2.66-1.57-7.6.73-5.05ZM386.19,310.5c.97.56.97,1.12,0,1.69v-1.69ZM378.73,297.01c1.32.07.89,4.87.73,5.05-2.31,2.55-4.94-2.39-.73-5.05ZM370.53,300.38h1.47v5.05h-1.47v-5.05ZM372,310.51c.16.18.16,4.87,0,5.05-3.97,4.44-3.97-9.49,0-5.05ZM371.26,337.5v-1.69c.97.56.97,1.12,0,1.69ZM370.5,340.88v3.36h-1.47v-3.36h1.47ZM372,345.95c1.63,1.84-1.34,5.2-2.97,3.36s1.34-5.2,2.97-3.36ZM369.75,357.72l-.72-6.71h1.47c.43,3.56,2.51,4.36-.74,6.71ZM358.58,313.88h1.47v3.36h-1.47v-3.36ZM351.85,313.88c.97.56.97,1.12,0,1.69v-1.69ZM344.38,302.06c.97.56.97,1.12,0,1.69v-1.69ZM346.62,305.45l-.73,5.02-3.75-1.67c-.72-.67,2.62-4.46,4.48-3.35ZM346.61,312.2v3.36h-1.47v-3.36h1.47ZM341.4,313.88v-1.69c.97.56.97,1.12,0,1.69ZM342.14,300.38c1.04,4.77-1.68,2.64-2.69,3.61-.43.42,3.31,4.41-1.78,3.12-.11-5.76-1.4-7.75,4.47-6.73ZM339.14,310.51v3.36h-1.47v-3.36h1.47ZM336.16,383.07c2.26,2.61-2.12,5.59-4.47.83.07-1.49,4.31-1.01,4.47-.83ZM332.44,302.06c.97.56.97,1.12,0,1.69v-1.69ZM332.44,312.19c.97.56.97,1.12,0,1.69v-1.69ZM333.18,327.38c1.63,1.84-1.34,5.2-2.97,3.36-1.63-1.84,1.34-5.2,2.97-3.36ZM330.95,340.86c1.8.05,2.12,36.69.73,40.51-2.2.51-2.06-4.96-2.08-6.55-.05-4.24.81-8.41.69-12.91-.08-2.79-3.57-21.16.66-21.04ZM331.69,480.95c1.63,1.84-1.34,5.2-2.97,3.36-1.63-1.84,1.34-5.2,2.97-3.36ZM330.8,492.07c1.58,2.08,4.67,3.07,3.86,7.43l-7.44-9.31c-.2-5.78,2.9.99,3.58,1.88ZM325.72,487.67h-2.98s0-3.36,0-3.36l2.97,3.36ZM319.76,366.19c5.55,4.1,2.9,14.03,4.46,20.24-6.71,0-2.8-14.94-4.46-20.24ZM322.73,347.63c1.72,2.27-3.57,12.64-.02,16.05l-2.95.81c.14-4.76-.22-9.6,0-14.37.12-2.77,1.32-4.69,2.98-2.5ZM320.51,335.78l-2.23-2.52.71-.8,2.23,2.52-.71.8ZM319.74,298.7l-.73,3.36-2.25-3.35h2.98ZM319.74,305.45l-.73,3.36-2.25-3.35h2.98ZM318.24,312.2v3.36h-1.47v-3.36h1.47ZM315.25,303.75l.02,5.06h-7.47s-.02-3.36-.02-3.36l7.46-1.69ZM313.77,313.89v1.66h-4.47v-1.66h4.47ZM307.79,315.54c-3.15.49-3.86,2.84-5.94-.84l5.94-.82v1.66ZM313.77,288.57c.16.18.59,4.97-.73,5.05-4.21-2.66-1.57-7.6.73-5.05ZM309.3,298.7c.16-.18,4.31-.18,4.47,0,3.6,4.1-8.06,4.1-4.47,0ZM302.58,286.88c.97.56.97,1.12,0,1.69v-1.69ZM307.79,298.71v1.65s-5.96,0-5.96,0c1.33-4.57,2.78-2.41,5.96-1.65ZM304.84,324.01l4.44,3.35c-1.44-3.93,4.4-3.35,5.23-1.79,2.01,3.78,1.35,9.46.75,13.61-1.81-1.04-3.77-3.95-5.36-5.82-.57-.67-.77-1.68-.61-2.6l-1.48,3.35c-4.05,1.57-2.56-2.65-3.15-3.1-.76-.59-3.62,2.14-4.3,1.42-2.33-2.48,5.69-5.22,4.49-8.42ZM310.04,340.88v-1.69c.97.56.97,1.12,0,1.69ZM307.8,335.83l-2.97,3.36v-3.37s2.97,0,2.97,0ZM304.81,370.41c-4.54-3.24-5.23,1.49-4.46-7.6l3.7,1.71c3.58-5.98-4.92-.4-3.7-6.78l4.46-3.38-4.46,1.68v-15.19c3.92,1.03,8.6.31,12.36,2.04,2.56,1.18,3.67,5,2.55,6.4-.4.49-8.43-9.11-5.9,2.46,1.08,4.93,4.57-.34,5.9-.77l-2.96,3.36c-.51,4.42-.18,4.32,2.98,5.91-6.7,3.66,4.46,17.49,4.45,18.58-.02,3.31-15.69,3.52-17.99,1.79-2.88-2.16-2.69-11.46,3.07-10.23ZM313.02,499.5c7.86-8.86,5.27,1.7,1.85,7.15-5.05,8.08-6.28-4.05-5.59-9.68.19-1.55,2.9-.98,2.99-.83.4.67-.79,3.51.74,3.36ZM304.8,384.76v3.36h-1.47v-3.36h1.47ZM303.33,519.74c-.69-.9-1.4-13.51,3.73-13.46,5.19.05-.18,18.1-3.73,13.46ZM315.28,524.8l-3.77-1.63.77,5.01c-3.84-.32-7.8-1.62-5.57-6.38.15-.32,2.05-.42,2.6-1.47,1.09-2.1,1.21-6.76,1.62-7.16.41-.4,7.07-.45,7.33-.16.26.3.16,8-.14,8.35-1.22,1.43-6.37-2.56-2.84,3.46ZM320.5,521.44c1.32.07.89,4.87.73,5.05-2.31,2.55-4.94-2.39-.73-5.05ZM327.22,586.4c-.42,3.51-6.25-3.2-6.05-4.91.19-1.58,3.41-12.31,6.04-9.41-1.99,4.78.6,9.39,0,14.32ZM327.96,561.94v-1.69c.97.56.97,1.12,0,1.69ZM340.64,526.48h-4.47v-1.66h4.47v1.66ZM342.16,520.62c-2.21,1.38-3.63-.33-5.25,0-1.38.28-2.29,1.97-4.12,2.04-.65.03-6.77-1.02-7.07-1.23-.32-.23-.52-4.57,1.59-5.87,1.5-.92,3.9-.57,4.37-.92,1-.75-2.41-8.99-1.46-10.07,1.38-1.57,9.1,4.13,10,5.55.66,1.03,1.72,5.18,2.15,6.86.34,1.33,2.4,2.01-.2,3.64ZM337.68,367.87v-3.36h1.47v3.36h-1.47ZM343.62,512.99h-1.47v-3.36h1.47v3.36ZM343.64,499.49c-1.63-1.84,1.34-5.2,2.97-3.36s-1.34,5.2-2.97,3.36ZM345.88,487.69v-1.69c.97.56.97,1.12,0,1.69ZM352.58,521.43h-1.47v-3.36h1.47v3.36ZM355.59,538.31c-2.78-3.14,3.91-7.48,4.46-6.74,1.86,2.5-2.58,8.86-4.46,6.74ZM355.47,525.37c-5.59-9.49,2.66-6.96,2.98-7.46.2-.32-.05-9.14,3.09-4.9,1.88,2.54-.41,21.98-6.08,12.36ZM352.6,494.43v-3.37s2.98,3.36,2.98,3.36h-2.98ZM355.6,448.87v-3.36h1.47v3.36h-1.47ZM356.33,455.62v-1.69c.97.56.97,1.12,0,1.69ZM360.81,509.6c-2.62.04-1.92-5.18-1.8-7.12.1-1.57.33-18.09,4.03-13.09-1.55,3.66,1.94,20.15-2.23,20.21ZM370.51,432.01c-2,2.61.44,11.27,0,11.8-.3.36-3.4-1.1-4.95-1.08-1.27.02-4.89,1.75-5.48,1.08-.91-1.05,1.16-13.15,4.46-13.49l.02,10.12c4.45,5.88.82-11.5,5.96-8.42ZM368.28,423.57l.73,6.74h-1.46c-.46-3.57-2.51-4.32.74-6.74ZM367.52,453.93c-1.09,1.23-6.67-.65-5.96-4.19,1.13-5.6,7.65,2.28,5.96,4.19ZM360.07,421.87c-1.63-1.84,1.34-5.2,2.97-3.36,1.63,1.84-1.34,5.2-2.97,3.36ZM360.07,475.87c-1.22-1.73,2.35-5.92,2.96-5.06,1.22,1.73-2.35,5.92-2.96,5.06ZM363.06,469.12v-3.36h1.47v3.36h-1.47ZM363.86,513.03c.28-1.86-.09-5.52,2.16-5.09.21,2.57-.75,5.74.46,8.04.37.69,2.86-.32,2.58,2.75-.98,11-7.06,6.78-5.2-5.7ZM367.54,504.56c.67-.95,4.21,3.66,2.97,5.05-2.39,2.68-4.31-3.14-2.97-5.05ZM376.48,588.93c-1.18,1.29-9.26-3.27-11.93,0,.76-1.52-.45-24.95,2.96-20.25.69.96-3.09,10.23.76,10.09,6.69-.25,2.59-9.19,2.24-13.47-1.15-.6-1.15-1.09,0-1.69-.02-2.59,1.41-3.66.51-8.01-1.59-7.71-4.56-6.64-6.19-9.17-1.56-2.42.93-10.56,4.17-11.5l-1.33,11.63c3.75,1.24,8.19,2.9,8.83,7.89-.08,9.63-.59,19.24-.98,28.88-.07,1.77,1.3,5.21.96,5.59ZM367.52,560.26c1.25,1.4-2.3,6.01-2.97,5.05-1.35-1.91.57-7.73,2.97-5.05ZM375.01,523.12v-5.05h1.47v5.05h-1.47ZM374.27,511.3c-3.58-1.74-1.09-3.58-.49-5.56,2.29-7.68,5.48-9.65-3.25-6.23-3.25-5.49.75-9.38.82-12.6.06-2.87-.43-10.81-.84-13.55-.57-3.75-4.06-5.41-4.15-6.73-.11-1.6,3.23-5.36,2.67-5.93-.78-.79-6.31,4.13-7.46-1.69,6.27,4.58,4.44-5.65,8.23-1.72,2.47,6.12-4.58,10.99,3.7,6.78l-1.45,4.26,4.44,1.66-.76,7.55c10.91-9.37,1.87-19.43.8-29.58-.31-2.95,1.52-3.81,2.93-2.45.88.85,4.29,18.63,4.26,21.14-.06,5.22-4.26,9.84-4.3,15.09-.04,5.15,4.48,17.56,2.35,21.15-.73,1.23-2.9,1.55-3.76,2.6-1.81,2.2-.78,7.26-3.74,5.82ZM382.45,379.7c2.37,2.71-2.78,4.87-4.47,3.35-.84-.76,3.24-4.76,4.47-3.35ZM380.22,533.25v-1.69c.97.56.97,1.12,0,1.69ZM388.42,519.74h-7.45v-3.36h7.45v3.36ZM395.13,504.55c-5.84,1.39-2.35-9.05-2.6-10.72-.32-2.18-3.5-4.36-3.78-7.22-.26-2.59,1.72-4.94,1.88-7.13.17-2.23-1.32-7.96-.71-8.67.16-.18,4.31-.19,4.47,0,.93,1.09-1.19,9.27-1.1,12.18.08,2.5.97,7.46,1.48,10.18.43,2.33,5.29,10.2.36,11.37ZM400.37,519.74h-2.97v-6.73h2.97v6.73ZM404.12,519.74c-4.21-2.66-1.57-7.6.73-5.05.16.18.59,4.97-.73,5.05ZM409.33,519.74c-2.39,2.68-4.31-3.14-2.97-5.05.67-.95,4.21,3.66,2.97,5.05ZM451.16,589.8c-3.97,2.33-31.6,1.65-35.1-2.56-3.19-3.83-6.25-24.98-1.3-26.76,6.26-2.26,10.05-.47,7.8,7.17-.72,2.42-4.02,2.19-4.35,3.78-.45,2.13.63,7.39,2.32,7.39h32.1c.75-.82-.31-4.58-1.37-6.05-3.26-4.5-10.85-1.31-12-2.53-.53-.56.97-8.49-3.17-3.79-.47.53-.2,2.95-2.28,3.72-1.35.5-9.2.58-9.56.22-.58-.58-.64-8.75,2.45-9.9,2.45-.91,27.56-.58,29.01.51,3.76,2.83,1.84,25.06-4.56,28.81ZM410.84,518.05v-3.37s2.98,3.36,2.98,3.36h-2.98ZM419.78,514.7c1.63,1.84-1.34,5.2-2.97,3.36-1.63-1.84,1.34-5.2,2.97-3.36ZM422.79,518.05v-3.36h1.47v3.36h-1.47ZM427.26,518.05v-1.66h2.97v1.66h-2.97ZM434.73,518.05v-1.66h2.97v1.66h-2.97ZM441.44,518.06v-1.69c.97.56.97,1.12,0,1.69ZM444.42,518.06v-1.69c.97.56.97,1.12,0,1.69ZM448.16,518.05v-1.66h2.97v1.66h-2.97ZM457.12,509.64l-2.97,3.36v-3.37s2.97,0,2.97,0ZM454.88,497.81v-1.69c.97.56.97,1.12,0,1.69ZM455.63,518.05v-1.66h2.97v1.66h-2.97ZM455.63,700.3v-3.37s2.98,3.36,2.98,3.36h-2.98ZM453.4,438.77c-5.9,5.31-20.12.06-28.18,1.44-8.92-14.24,4.7-9,13.26-9.88,7.63-.78,8.05-3.78,6.79-12.5-.21-1.43-21.31-6.56-24.77-7.74-1.67-.57-4.47-.34-2.19-3.37.91-1.22,21.99-9.4,26.17-11.79,1.41-.81,3.54-.95,3.69-3.4-5.87-2.79-24.4-1.25-28.45-4.14-3.64-2.6,1.7-8.15-2.17-11.06-1.59,1.35-.32,4.99-.96,7.33-1.57,5.73-4.69.47-6.46.16-1.41-.24-4.63,1.53-5.25.93-3.14-3.06,4.26-3.73,5.21-5.02,3.48-4.73.69-9.27.91-12.77.16-2.49,2.42-3.81,2.47-6.3.07-3.36-2.27-8.75-1.12-13.04l-8.96.02c1.59,4.32.2,8.82.47,12.4.1,1.35,2.11,2.74,2.15,3.65.05,1.28-4.74,4.5-4.14,7.57-2-.45-2.75-2.02-2.97-4.21-.27-2.54,3.43,3.39,3.03-1.72-.29-3.61-1.14-7.82-1.59-11.76-.36-3.17,1.53-5.01-2.92-4.25,3.01,5.02-1.55,6.69-2.36,10.04-.4,1.65,1.68,2.94,1.6,5.19-.18,4.71-2.51,12.41-2.32,15.81.02.35,5.81,2.95,3.08,6.07-3.25,3.71-6.18-8.45-6.71-8.45-1.42.01-.34,4.56-1.46,6.8-.96,1.93-4.71,2.23-5.25,1.64-1.97-2.14,2.95-7.17,2.96-7.59.02-3.26-12.87-3.06-13.41-2.52-3.28,3.26,3.82,2.84,2.97,5.03-5.03-1.11-.72,6.36-5.95,5.08l-.75-11.82-.74,11.84c-5.23-1.01-13.88,1.38-18.47.03-1.73-.51.28-4.3-3.18-3.43-1.51.38.39,5.1-3.73,3.4-.24-8.84-4.07-22.31-.04-29.55-1.92-1.47-4.94,5.39-5.93,4.24-2.72-3.15,4.39-8.01,5.95-9.29l-2.97.85-1.52-4.24c3.38-1.23,2.32-2.06,3-4.18l-1.47-.84c0-1.06,1.42-.77,1.47-.84.9-1.51,1.69-3.04,2.96-4.23l-4.45.85c1.56-2.26,2.08-4.2,2.98-6.74-.81.23-2.01-.11-2.99,0-.1,1.15.62,3.43-.74,3.37-3.53-4-2.94-2.94.74-3.37.36-4.12-.91-4.2,2.99-1.69v-5.06c3.58,1.42,17.07-1.72,17.99,2.74,2.24,10.85-3.1.84-8.23,2.36-3.08.91.11,6.78-3.05,8.39l-1.48-5.05c-.85.86-1.64,1.53-1.94,2.87-2.45,10.88.26,32.74,1.2,44.37,5.67-3.26.62-12.87,1.86-18.98,1.9-9.37,8.04-6.07,7.09-2.12-.42,1.76-4.04,2.17-4.35,2.71-.14.25,1.32,3.67,1.35,5.74.05,4.25-2.28,7.28,2.27,10.95l8.22-15.14c6.15-1.89-.4,7.89,5.95,6.7-1.45-2.82-2.71-8.63.75-10.11,1.47-.63-.6,4.64,2.97,3.38,1.08-.38.82-5.34,2.23-3.38.38.53.33,4.48,2.16,4.72,3.26.41,10.28-3.02,8.3-8.09-11.95,5.26.66-11.14,0-11.8l-4.47,1.69c-.69-1.17,1.83-7.33-3.73-5.06-3.6,1.47-.58,8.24-3.73,8.42v-16.86c2.54-.69.95,2.34,1.66,3.02.29.28,6.65-.26,7.28-2.2,2.56-7.98-8.53-2.01-8.93-2.52-4.32-5.54,8.97-6.82,8.92-9.28-.02-1.08-8.85-4.71-5.93-10.96,3.13-.38.71,5.71,1.49,6.74.71.93,14.15-5.38,15.57-5.19,1.21.16,1.14,3.53,2.28,4.34,2.1,1.49,5.57.47,6.03.85,1.37,1.13-3.13,6.86-3.1,9.17.02.99,5.36,2.32,4.62,6.01,6.06-3.67-3.82-10.3,7.43-8.45l-1.49-5.06c-1.97,2.38-7.33,1.52-4.46-1.67.15-.17,2.37.91,4.15.59,1.79-.32,4.04-1.83,5.61-1.63,1.32.17,3.11,3.5,3.63,2.72,2.27-3.38.23-7.99,6.98-1.02,1.91,1.97-1.24,4.7,4.97-.65-.59,4.95,5.76,3.6,8.98,5.07-.62,3.32-2.62,2.8-4.83,3.05-1.84.21-6.43-3.1-5.61,1.13l8.92,5.08-2.95,4.19c4.15-.8,7.75,10.71,8.98,11.83,5.94,5.42.53-7.28.35-8.05-.39-1.66.6-3.56.39-4.6-.34-1.6-3.42-4.53-2.24-5.9.93-1.08,5.28,4.5,4.46-.83-1.64-4.12-5.74-.61-5.95-.85-.16-.18-.16-4.89,0-5.07,2.12-2.39,8.02,1.9,9.32,5.48.45,1.24,2.62,11.56,2.62,12.23v27.84h-10.45s1.48,6.75,1.48,6.75c-8.28-.39-5.49-7.41-7.47-10.12-.53-.72-4.56,6.17-5.9.73-.5-2.03,3.2-7.99-1.53-9.16-2.23,3.5.39,7.59.1,10.8-.12,1.34-3.34.79-3.11,1.82.28,1.25,3.04,4.4,2.97,5.11-.14,1.55-6.24,2.87-4.44,4.18,1.18.86,4.03-1.06,3,5.1l8.93-1.72-7.46-5.03c2.45,1.19,7.93-.32,9.5.08,1.1.28.74,2.87,1.99,3.24,4.42,1.3,12.08,1.2,16.89,1.72l-.68,15.27-14.25,5c1.79,4.34,6.64,3.54,9.76,6.67,6.87,6.91,7.48,21.99-.04,28.77ZM338.41,340.88v-1.69c.97.56.97,1.12,0,1.69ZM358.56,339.2v3.36h-1.47v-3.36h1.47ZM355.57,334.13v3.36h-1.47v-3.36h1.47ZM349.62,350.99v-10.11h2.97v10.11h-2.97ZM350.36,356.06v-1.69c.97.56.97,1.12,0,1.69ZM375,354.38c1.86-1.1,5.2,2.69,4.47,3.35l-4.47,1.7v-5.05ZM380.22,345.94v-1.69c.97.56.97,1.12,0,1.69ZM430.25,372.09l5.96-.83c1.89,2.16-2.91,7.81-5.96.83ZM463.07,720.56h-1.47v-5.05h1.47v5.05ZM451.13,978.74h-1.46s0-6.74,0-6.74c4.04,1.5,2.13,3.14,1.46,6.74ZM439.94,1020.94v-1.69c.97.56.97,1.12,0,1.69ZM469.81,745.87c.97.56.97,1.12,0,1.69v-1.69ZM469.07,762.75c2.88-.04,3.82,7.47,2.97,8.43-3.27,3.67-3.48-5.27-2.97-8.43ZM475.03,894.38c2.04,2.3-1.21,10.42-4.47,6.74-1.86-2.1,2.48-8.98,4.47-6.74ZM470.56,919.69h8.95c.73,4.9-.99,2.74-3.48,3.57-4.98,1.66-6.14,3.41-5.47-3.57ZM475.04,1005.74c-1.63-1.84,1.34-5.2,2.97-3.36,1.63,1.84-1.34,5.2-2.97,3.36ZM476.53,968.62c.03-6.19,4.44-6.19,4.47,0h-4.47ZM491.44,1014.18h-1.47v-3.36h1.47v3.36ZM616.87,988.88c1.25,1.4-2.3,6.01-2.97,5.05-1.35-1.91.57-7.73,2.97-5.05ZM616.87,995.64v1.66h-2.97v-1.66h2.97ZM613.15,823.5c.97.56.97,1.12,0,1.69v-1.69ZM610.16,804.94c.97.56.97,1.12,0,1.69v-1.69ZM609.42,808.33h2.97v1.66h-2.97v-1.66ZM608.67,799.87c.97.56.97,1.12,0,1.69v-1.69ZM606.46,886.72c.03,3.16-1.67,4.36-3.01,2.59-.51-.68-.13-14.92,0-17.74.12-2.77,1.33-4.69,2.98-2.5.51.67,0,14.41.04,17.65ZM603.46,906.19l-1.05-9.36c.25-1.98,3.35-3.26,4.02-2.45.38.46.01,12.01-2.97,11.8ZM606.42,867.37h-2.97s0-6.74,0-6.74c2.97.9,3.35,3.59,2.97,6.74ZM605.68,810v-1.69c.97.56.97,1.12,0,1.69ZM604.18,509.63l2.22,2.52-2.95,2.53.73-5.05ZM604.94,826.89l-2.97,3.36v-3.37s2.97,0,2.97,0ZM602.7,825.19v-1.69c.97.56.97,1.12,0,1.69ZM604.19,801.56v-1.69c.97.56.97,1.12,0,1.69ZM601.96,767.83h2.97v1.66h-2.97v-1.66ZM604.93,831.95c.16.18.16,4.87,0,5.05-3.97,4.44-3.97-9.49,0-5.05ZM603.46,847.12v-8.42h1.47v8.42h-1.47ZM604.92,848.82v3.36h-1.47v-3.36h1.47ZM598.22,804.94c.97.56.97,1.12,0,1.69v-1.69ZM597.46,771.18h-5.96c.04-6.72,5.96-6.63,5.96,0ZM596.72,842.06v-1.69c.97.56.97,1.12,0,1.69ZM596.72,850.5v-1.69c.97.56.97,1.12,0,1.69ZM595.99,836.99v-5.05h1.47v5.05h-1.47ZM595.23,828.56v-1.69c.97.56.97,1.12,0,1.69ZM591.5,825.18c-1.63-1.84,1.34-5.2,2.97-3.36s-1.34,5.2-2.97,3.36ZM593.74,833.62v-1.69c.97.56.97,1.12,0,1.69ZM594.48,804.95v1.66h-2.97v-1.66h2.97ZM592.24,799.87v-1.69c.97.56.97,1.12,0,1.69ZM591.51,811.68v-3.36h1.47v3.36h-1.47ZM592.24,820.12v-1.69c.97.56.97,1.12,0,1.69ZM594.48,507.94c.82.93-.08,8.48-2.96,8.43-2.74-3.74.4-11.33,2.96-8.43ZM575.82,35.44c.97.56.97,1.12,0,1.69v-1.69ZM574.33,192.38c.97.56.97,1.12,0,1.69v-1.69ZM566.12,442.13l-.02,5.05-2.18-3.04-4.58-.29.4,2.49-4.07-1.71c-.38-5.15,8.1-1.51,10.45-2.5ZM561.63,487.7v1.66h-4.47v-1.66h4.47ZM557.16,485.99v-3.36h5.96v3.36h-5.96ZM557.16,492.77h5.96v1.66h-5.96v-1.66ZM557.88,469.68c1.31-.5,6.68-.31,6.72,1.98.07,4.58-13.99.8-6.72-1.98ZM557.17,457.31c.17-.38,5.76,1.47,7.45.02-.86,7.96-10.38,6.53-7.45-.02ZM557.16,435.37v-3.36h5.96v3.36h-5.96ZM563.12,410.07c3.25,3.69-4.66,3.93-7.46,3.35-.03-3.26,6.61-4.32,7.46-3.35ZM563.12,423.58v1.66s-7.46,0-7.46,0c1.13-4.71,4.24-1.7,7.46-1.66ZM533.27,6.75h16.43s0,6.74,0,6.74h-10.47s-.02,12.56-.02,12.56c.37,2.81,9.33-2.37,10.51,5.14,1.37,8.69-10.06,1.63-10.51,5.21l.02,20.98,10.47-.02v8.45s-16.43,0-16.43,0V6.75ZM535.81,69.53c1.57-.51,8.96-.76,9.4-.33,4.09,3.91-7.46,3.37-8.97,4.2-7.85,4.33-1.55,22.91,8.98,19.43.12,3.3.69,3.38-2.28,3.43-16.08.24-16.17-23.78-7.14-26.72ZM519.83,636.19c-.6-.44-3.26.31-4.48-.01-.52-4.31,11.43-2.13,11.95-1.67,2.76,2.48-2.78,4.5-4.48,3.37v27h-2.99c-.79-4.28,1.07-27.91,0-28.69ZM526.53,621.02c-2.92-.61-3.47-2.08-4.97-4.51l-12.18-32.64v35.44h-5.97c-1.33-9.93,1.23-20.11,1.55-29.45.23-6.77-2.39-21.25-1.41-25.21.3-1.22,1.37-2.84,2.84-1.88,4.91,3.18,8.98,27.98,14.93,32.92v-32.06h5.97v53.16c0,.6,3.93,5.22-.76,4.24ZM493.57,367.8c-19.69.97-23.59-31.39-3.98-35,24.05-4.43,25.34,33.94,3.98,35ZM501.9,516.39v1.66h-2.97v-1.66h2.97ZM487.06,439.68c-5.28,2.08-6.18,1.94-6.12-3.49.12-11.49,7.5-7.64,8.84-11.99,2.05-6.66-4.21-22.2,6.16-20.88v26.16c0,2.43-6.38,9.23-8.88,10.21ZM495.19,518.06v-1.69c.97.56.97,1.12,0,1.69ZM482.51,470.81c3.74.4,6.62,16.08,5.95,16.87-1.19,1.4-4.52-.19-5.72-2.9-2.02-4.55.1-9.12-.23-13.97ZM479.84,461.19c-.13-1.71.67-13.88,4.13-10.62.43.41,3.17,10.39,3.46,12.18.25,1.53,1.39,4.49-1.19,4.64-2.5.14-6.15-2.82-6.41-6.2ZM489.97,504.53l-5.97,1.72v-13.5s4.47,0,4.47,0l1.5,11.79ZM485.29,523.86c.04-2.51-3.27-14.16.94-14.2,3.89-.04.96,9.07,1.14,10.72.23,2.17,2.37,4.06,2.45,6.89.1,3.5-2.59,7.73-2.39,11.65.18,3.55,4.02,9.81,4,10.38-.13,2.65-8.35,3.26-8.93,2.53-1.41-1.77,2.71-22.72,2.79-27.96ZM491.46,394.87c-.34-.44.22-10.13-1.7-11.59-3.45-2.61-10.92,4.75-8.77-6.96l14.95-.02c1.22,1.39,0,24.3-4.48,18.56ZM489.96,96.19v-27c4.81,4.15,4.73,23.1,0,27ZM514.61,337.51v-3.39l17.16.02c1.16,5.73-4.41,2.79-7.46,3.37v27h-2.99v-27h-6.71ZM514.59,96.17c-6.17,1.92-6.79-8.91-2.96-10.1,6.17-1.92,6.79,8.91,2.96,10.1ZM528.04,378c.22,0,2.78-3.05,3.7.88.39,1.66-.15,4.01.04,5.86l-19.42,1.71c1.05,8.62-.67,17.42,0,26.14.88,11.52,2.19,9.6,11.94,9.3,2.53,13.49-14.43,27.68-16.29,10.87-1.98-17.93,1.89-36.87-1.62-54.75,7.2-.04,14.44.06,21.65,0ZM531.03,453.94v-1.69c.97.56.97,1.12,0,1.69ZM525.79,516.37l-2.97-.83,2.97-2.54v3.37ZM522.07,450.56v-1.69c.97.56.97,1.12,0,1.69ZM521.31,514.7v1.66h-5.96v-1.66h5.96ZM513.85,514.7l-.73,3.36-2.25-3.35h2.98ZM509.36,514.7v3.36h-1.47v-3.36h1.47ZM506.38,516.39v1.66h-2.97v-1.66h2.97ZM527.3,516.37v-3.36h7.45v3.36h-7.45ZM535.4,425.38c.37-4.35-2.58-3.66,5.32-3.51v15.2c-10.39.95-5.97-4.1-5.32-11.69ZM539.22,453.95v3.36h-1.47v-3.36h1.47ZM543.7,511.31c-.14,1.36.3,4.72,0,5.05-.84.95-7.5-.1-7.46-3.35l7.45-1.7ZM541.83,408.84c-.41,2.87-.74,5.58-4.08,4.59,2.05-8.12-.1-24.39,1.73-30.93.58-2.09,3.37-3.88,4.23-2.8,1.08,1.35-1.32,25.2-1.88,29.14ZM513.08,4.18c18.14-.58,17.86,40.68,12.57,53.87-5,12.46-16.72,12.11-22.93.95-6.72-12.07-7.05-54.26,10.37-54.81ZM497.82,213.02c5.16,17.17,8.44,35.15,13.46,52.38l-1.9,4.59-16.43-67.5c3.35,1.56,3.81,7.04,4.86,10.52ZM465.33,518.06v-1.69c.97.56.97,1.12,0,1.69ZM465.33,511.31v-1.69c.97.56.97,1.12,0,1.69ZM466.07,597.36h-2.98s0-3.36,0-3.36l2.97,3.36ZM464.59,445.51h1.47v3.36h-1.47v-3.36ZM464.59,489.38h1.47v3.36h-1.47v-3.36ZM464.59,499.51h1.47v3.36h-1.47v-3.36ZM461.61,210.94h1.47v5.05h-1.47v-5.05ZM464.57,482.63v3.37s-2.97-.83-2.97-.83l2.97-2.54ZM463.84,688.49l-2.25-3.35h2.98s-.73,3.35-.73,3.35ZM463.1,668.25l.73-5.05,2.22,2.52-2.95,2.53ZM463.09,659.8c-1.63-1.84,1.34-5.2,2.97-3.36,1.63,1.84-1.34,5.2-2.97,3.36ZM467.55,443.8h-1.47v-3.36h1.47v3.36ZM468.31,678.37v-1.69c.97.56.97,1.12,0,1.69ZM469.06,7.59c1.9-6.94,20.62-1.77,23.25,10.85,2.1,10.08,3.04,38.2-4.24,45.22-2.84,2.74-19.01,6.16-19.01,1.31V7.59ZM475.02,499.51v3.36h-1.47v-3.36h1.47ZM472.79,484.31v-1.69c.97.56.97,1.12,0,1.69ZM470.54,685.12h-1.47v-3.36h1.47v3.36ZM472.03,680.06h-1.47v-5.05h1.47v5.05ZM473.55,666.57c.16-.18,4.31-.18,4.47,0,3.93,4.49-8.4,4.49-4.47,0ZM487.77,659.83c-1.46-2.55-3.24-5.47-3.8-8.44-4.14,1.14,1.85,11.87-4.46,10.11-.57-7.83.79-16.82,0-24.47-.39-3.75-4.57-5.59,5.12-4.05,8.76,1.39,7.87,14.01.81,17.58l6.02,12.62c-4.06,1.01-2.54-1.34-3.69-3.34ZM487.61,620.99c-18.79,1.31-21.69-59.13-2.64-60.25,16.27-.96,15.79,37.7,12.38,49.2-1.46,4.91-4.73,10.7-9.74,11.05ZM496.68,1005.75v-1.69c.97.56.97,1.12,0,1.69ZM500.4,985.49h-1.47v-3.36h1.47v3.36ZM500.4,963.55h-1.47v-3.36h1.47v3.36ZM498.93,663.18c-.91-6.68,3.3.07,6.03-4.05,6.37-9.62-10.08-10.47-7.32-21.75,1.4-5.74,10.5-7.01,10.23.49l-7.45-1.68c-2.43,8.12,9.3,12.46,8.65,19.13-.49,5.02-5.59,9.23-10.15,7.85ZM504.9,955.11l2.25-3.35.73,3.36h-2.98ZM507.88,894.36h-2.97v-1.66h2.97v1.66ZM530.27,723.09c-2.49,29.38-25.79,28.18-28.35-1.69-1-11.62-1.9-44.68,11.53-47.79,18.53-4.29,17.9,36.67,16.82,49.48ZM539.23,707.07h8.97c3.4,13.24-8.97,9.2-8.97,10.12v25.31h-5.97c1.62-19.26-2.19-42.89,0-61.59,1.18-10.09,9.41-4.73,16.43-5.91v8.45c-15.69-3.3-9.31,11.96-10.47,23.62ZM536.25,664.87v-30.38h2.99v30.38h-2.99ZM533.27,618.47v-54.84h16.43s0,8.45,0,8.45l-10.47-.02.66,11.93c5.98,4.22,11.53-2.92,9.81,8.32-14.62-2.75-9.86,8.58-10.47,20.26l11.12-.03c6.32,12.17-17.08,9.46-17.08,5.93ZM551.17,516.37c-.44.56-1.59-1.13-2.5-1.1-1.44.05-6.56,2.27-3.45-2.26,2.04-2.98,8.22.48,5.95,3.36ZM539.24,366.19v-32.06h2.99v28.69c3.17.96,11.69-2.9,10.45,3.37h-13.43ZM554.16,447.18h-1.47v-6.74h1.47v6.74ZM558.24,508.2c.52-.16,10.46-.67,10.86-.25,4.92,5.12-5.67,3-5.96,3.35-.3.36.76,7.45-2.26,8.45-5.26,1.74-9.63-9.34-2.64-11.54ZM563.13,794.8v-1.66h2.97v1.66h-2.97ZM563.87,803.25v-1.69c.97.56.97,1.12,0,1.69ZM561.63,551.83v1.66h-4.47v-1.66h4.47ZM557.16,546.74v-3.36h5.96v3.36h-5.96ZM563.13,567.01c.01,1.24-1.49,2.91-2.35,3.24-5.91,2.32-3.75-3.69,2.35-3.24ZM558.66,561.09c.07-1.49,4.31-1.01,4.47-.83,2.26,2.61-2.12,5.59-4.47.83ZM555.67,534.92v-1.66h8.95v1.66h-8.95ZM555.67,575.45h2.97v1.66h-2.97v-1.66ZM558.66,579.67c.86-2.72,5.21-1.9,5.95-.85,2.66,3.77-8.53,9.05-5.95.85ZM560.16,614.25l2.97,3.36h-2.98s0-3.36,0-3.36ZM561.64,624.38c1.24-1.41,5.32,2.59,4.47,3.35-1.69,1.52-6.84-.65-4.47-3.35ZM563.12,648.02c2.31,3.19-5.73,7.3-7.45,2.49-2.47-6.89,6.79-3.4,7.45-2.49ZM565.37,816.75v-1.69c.97.56.97,1.12,0,1.69ZM565.37,823.5v-1.69c.97.56.97,1.12,0,1.69ZM564.63,838.7h2.97v1.66h-2.97v-1.66ZM564.63,826.86v-1.66h2.97v1.66h-2.97ZM555.67,624.38c.16-.18,4.31-.18,4.47,0,3.93,4.49-8.4,4.49-4.47,0ZM563.1,667.41c-.01,3.21-6.77,1.85-7.44.82-3.14-4.85,7.45-4.16,7.44-.82ZM563.12,838.7v1.66h-2.97v-1.66h2.97ZM556.41,837v-1.69c.97.56.97,1.12,0,1.69ZM557.14,894.37h-1.47v-3.36h1.47v3.36ZM560.13,880.87h-1.47v-3.36h1.47v3.36ZM561.63,872.42h-2.97v-1.66h2.97v1.66ZM561.63,867.37c-4.77,5.35-1.21-8.08,0-5.05.22.56.17,4.87,0,5.05ZM560.15,853.88h5.96v3.37c-3.77-2.69-6.84,2.67-5.96-3.37ZM564.63,867.37v-5.05h1.47v5.05h-1.47ZM566.1,870.76v3.36h-1.47v-3.36h1.47ZM564.63,875.83h2.97v1.66h-2.97v-1.66ZM566.86,894.37v-1.69c.97.56.97,1.12,0,1.69ZM566.87,884.24c-4.21-2.66-1.57-7.6.73-5.05.16.18.59,4.97-.73,5.05ZM571.34,835.31v-1.69c.97.56.97,1.12,0,1.69ZM571.34,803.25v-1.69c.97.56.97,1.12,0,1.69ZM573.57,782.98h-2.97v-1.66h2.97v1.66ZM577.31,865.69v-1.69c.97.56.97,1.12,0,1.69ZM577.31,835.31v-1.69c.97.56.97,1.12,0,1.69ZM577.31,825.19v-1.69c.97.56.97,1.12,0,1.69ZM577.31,791.44v-1.69c.97.56.97,1.12,0,1.69ZM576.55,516.37c-2.79.63-.48-3.06-2.23-3.38-.3-.06-2.18,6.63-5.23,3.38-1.19-1.27,4.23-11,8.95-8.42l-1.5,8.42ZM583.29,825.19v-1.69c.97.56.97,1.12,0,1.69ZM584.02,820.12h-1.47v-5.05h1.47v5.05ZM584.02,811.68h-1.47v-3.36h1.47v3.36ZM583.29,794.81v-1.69c.97.56.97,1.12,0,1.69ZM584.78,875.81v-1.69c.97.56.97,1.12,0,1.69ZM585.51,867.37h-1.47v-3.36h1.47v3.36ZM584.78,857.25v-1.69c.97.56.97,1.12,0,1.69ZM584.78,842.06v-1.69c.97.56.97,1.12,0,1.69ZM584.76,516.36c-3.92,1.76-3.2-11.72.75-8.42.97.81,2.17,7.11-.75,8.42ZM589.99,867.37h-1.47v-3.36h1.47v3.36ZM596.72,982.12v-1.69c.97.56.97,1.12,0,1.69ZM596.72,939.94v-1.69c.97.56.97,1.12,0,1.69ZM598.22,902.81v-1.69c.97.56.97,1.12,0,1.69ZM598.95,897.74h-1.47v-3.36h1.47v3.36ZM598.22,877.5v-1.69c.97.56.97,1.12,0,1.69ZM598.95,867.37h-1.47v-3.36h1.47v3.36ZM588.52,855.58c3.3.29,8.86-3.54,10.44,1.66l-10.44-1.66ZM597.48,811.69v-3.37s2.97,0,2.97,0l-2.97,3.36ZM600.47,509.63h1.47v5.05h-1.47v-5.05ZM601.96,853.88c1.24-1.41,5.32,2.59,4.47,3.35-1.69,1.52-6.84-.65-4.47-3.35ZM604.93,907.88c1.63,1.84-1.34,5.2-2.97,3.36-1.63-1.84,1.34-5.2,2.97-3.36ZM604.19,993.94v-1.69c.97.56.97,1.12,0,1.69ZM604.19,980.44v-1.69c.97.56.97,1.12,0,1.69ZM606.42,939.92h-4.47v-1.66h4.47v1.66ZM604.19,931.5v-1.69c.97.56.97,1.12,0,1.69ZM604.19,926.44v-1.69c.97.56.97,1.12,0,1.69ZM603.45,919.68c-1.63-1.84,1.34-5.2,2.97-3.36,1.63,1.84-1.34,5.2-2.97,3.36ZM612.39,855.58v1.65c-6.81,1.18-6.82-5.36,0-1.65ZM611.66,867.37v-1.69c.97.56.97,1.12,0,1.69ZM611.66,889.31v-1.69c.97.56.97,1.12,0,1.69ZM609.43,988.88h1.47v3.36h-1.47v-3.36ZM610.16,1002.37v-1.69c.97.56.97,1.12,0,1.69ZM610.9,998.98h-2.97v-1.66h2.97v1.66ZM615.39,894.39c.84.76-3.24,4.76-4.47,3.35-2.37-2.71,2.78-4.87,4.47-3.35ZM615.38,902.83c.62,2.75-1.89.94-2.59,2.04-1.11,1.75.86,5.2-1.87,4.68v-8.43s4.46,1.7,4.46,1.7ZM613.91,921.37v-5.05h1.47v5.05h-1.47ZM614.64,926.44v-1.69c.97.56.97,1.12,0,1.69ZM614.64,912.94v-1.69c.97.56.97,1.12,0,1.69ZM614.64,909.56v-1.69c.97.56.97,1.12,0,1.69ZM611.66,926.44v-1.69c.97.56.97,1.12,0,1.69ZM612.39,921.37h-1.47v-6.74h1.47v6.74ZM612.41,938.27h2.97v1.66h-2.97v-1.66ZM613.9,1004.05c-1.63-1.84,1.34-5.2,2.97-3.36s-1.34,5.2-2.97,3.36ZM625.83,980.43h-2.97s0-6.74,0-6.74c2.97.9,3.35,3.59,2.97,6.74Z"/>
  <path d="M370.51,565.31v-1.41c0,.5-.01,1.25,0,1.41Z"/>
  <path d="M370.51,563.62v.28c0-.11,0-.21,0-.28Z"/>
  <path d="M343.64,330.75c-.17.09.16,1.64,0,1.69.06-.17,2.7-3.22,0-1.69Z"/>
  <polygon points="133.12 523.13 133.1 526.5 136.09 524.81 133.12 523.13"/>
  <path d="M330.2,156.94c.35.12.61,1.82,1.49,0-.05.07-1.37.1-1.49,0Z"/>
  <path d="M342.14,342.56v1.69c.06-.17,3.09-.75,0-1.69Z"/>
  <path d="M304.06,161.97c1.34-1.19,3.09-3.08,2.25-5.03h-1.49l-.76,5.03Z"/>
  <path d="M331.69,156.94c2.97-.73,5.52-4.25,8.95-5.92-.86-7.05-1.44,4.28-4.46.85-1.41-1.6,2.94-9.49-2.99-8.43-.13,2.33.49,5.23.01,7.3-.42,1.83-3.64-.12-3,4.51.03.19,2.17.68,1.49,1.69Z"/>
  <path d="M336.87,141.8c1.8.89,3.14,9.01,3.76,2.51l-8.95-13.57c6.81-1.21,1.38-14.12-1.49-10.92-.51.57,1.58,2.5,1.18,3.08-.37.53-2.72-.13-2.73,1.14,0,2.14,1.97,3.34,2.27,5.07.72,4.08-1.17,15.4-.71,16.01.47.61,2.02-1.51,2.98-1.68.15-2.71,2.37-2.28,3.68-1.63Z"/>
  <path d="M122.65,685.12c1.61,5.59-1.71,6.13-.84,8.47,1.26,3.36,6.02,1.67,6.81,4.2.15.47-5.08,1.47-2.97,5.91l5.94-.84c-5.43-4.41.49-6.81,1.53-11.81l-8.97,2.51,2.97-3.36c.53-2.68-.85-3.35-1.48-5.08-.83.04-2.87.13-2.99,0Z"/>
  <path d="M273.68,694.81c-.57-.62.35-3.47-.96-2.93-.51.21-1.15,1.95-2.21,2.25-2.39.67-5.9-1.49-6,3.63l2.97,2.56c-.83-4.89,3.67-5.43,3.01,0,7.4-8.02,4.18,2.93,10.44-1.69-.16-.06-.57-2.57-1.49-3.38-2.53-2.18-5.32.03-5.75-.44Z"/>
  <path d="M145.85,700.23c-.46.04-.72.1-.8.09-.3.25-1.12,6.99-.76,8.41,1.58-1.19,4.73-7.31,3.75-8.41-.32-.04-.6-.07-.87-.09-.42-.01-.91-.01-1.32,0Z"/>
  <path d="M145.56,23.83c4.17,3.15,7.82,8.57,13.65,3.14,4.08-3.8,12.15-20.75,14.2-26.97h-5.97c-1.29,6.66-9.94.97-10.44,1.68l-3.01,16.87c-2.63.39-1.37-3.81-1.48-5.88-.17-3.08.13-6.23-.01-9.3-3.24.28-2.35,5.74-3.16,6.52-1.3,1.25-8.12-.53-8.78.22-.36.41-.22,10.87.23,11.58.41.65,3.41,1.1,4.77,2.13Z"/>
  <path d="M230.16,769.5c-.5.54-1.51,1.64,0,1.69.14-.56-.17-1.26,0-1.69Z"/>
  <path d="M231.65,769.5l-.75-1.66c-.93,0-.67,1.58-.75,1.66.08-.21,1.41.21,1.49,0Z"/>
  <path d="M237.62,747.56c.02-2.6-1.93-1.48-1.53-.13.03.05.04.09.04.13.03.08,1.02.03,1.49,0Z"/>
  <path d="M480.48,724.35c1.07,3.09-1.37,10.7,5.74,9.82,8.89-1.1,7.46-33.62,6.38-41.05-.98-6.7-6.19-16.9-12.39-9.72-4.89,5.66-4.53,31.88-2.08,39.29.39,1.17,2.25,1.39,2.35,1.66Z"/>
  <path d="M177.13,749.22l-.73,8.46-5.96-1.68c-.44.52,1.36,6.42,1.59,6.64.23.21,5.72-.43,5.97-.64,1.88-1.58.61-5.99,2.14-6.02,1.49-.03,1.53,5.93,2.41,6.69.29.25,7.02.36,7.29.08,2.3-2.37-3.33-18.1-7.3-14.94-.2.16.27,5.4-3.15,3.12-.42-.28,1.19-6.03-2.27-1.7Z"/>
  <path d="M265.59,743.03c-9.32-4.05-6.15,1-6.11,5.66.04,4.86-2.02,12.78,6.52,8.16,6.27-3.39-.49-8.91,0-9.27.83-.62,3.58,1.32,2.98-1.68-2.15.82-2.95-2.68-3.38-2.87Z"/>
  <path d="M140.64,780.44c0,.39,1.33,7.2,1.52,7.53.16.27,5.63.3,5.8.03,1.08-1.74.77-19.99,1.56-23.56-3.81,2.82-8.77,6.62-5.91,12.26,1.05,2.06,3.45.28,2.92,2.92-1.5-.85-5.82-2.18-5.89.82Z"/>
  <path d="M261.51,720.56c.02.27.2.89.46,1.7-.02-.47-.16-1.04-.46-1.7Z"/>
  <path d="M258.53,722.25c-.54,5.62-1.01,11.23-1.49,16.87h7.46s-4.46-5.08-4.46-5.08c-.45-3.3,3.45-.92,4.49-1.68.76-.56-1.53-6.89-2.54-10.1.07,1.73-1.52,2.06-3.44-.02ZM260.77,729v-1.69c.97.56.97,1.12,0,1.69Z"/>
  <path d="M258.85,705.84c1.84,8.14,4.1,3.94-.32,13.04.12-.17,2.91,1.52,2.99,1.69-.25-3.13,1.61-6.18,1.47-9.19-.13-2.67-3.27-7.45-2.96-7.67.85-.61,3.57,1.32,2.98-1.68-5.77.93.99-8.14-5.22-11.8l-3.73,5c6.23.36,3.78,6.1,4.81,10.62Z"/>
  <path d="M258.53,718.87c-.57,1.18-2.43.75,0,3.38.1-1.09-.21-3.1,0-3.38Z"/>
  <path d="M164.45,777.94c2.64-3.07-2.42-3.42-2.6-3.71-1.02-1.66-.24-4.41-.38-6.43-4.66-.93-2.44,2.02-2.98,5.08.99.53,4.88,6.32,5.96,5.06Z"/>
  <path d="M157.75,789.74c1.33.53.16-3.58,1.58-3.48,2.84.18,4.16,5.33,3.63-3.26l-4.47,1.68c2.59-4.71-1.02-1.78-1.2-2.07-4.14-6.36.36-4.96,1.21-9.74-8.35-4.5-7.11,14.34-.74,16.87Z"/>
  <path d="M206.03,757.6c.58,1.1,1.52-1.34.71,2.56-.17.81,3.07,2.56,3.27,2.56,2.88.02,2.36-7.23.35-9.65-3.69-4.44-8.1-2.65-4.32,4.53Z"/>
  <path d="M200.28,762.75c-.08-4.26,1.23-10.24-2.96-11.81l-.03,5.06-4.45-3.37c-1.28,12.96,1.37,4.74,7.44,10.12Z"/>
  <path d="M133.86,791.41l.73-13.46c-8.67,1.61-5.86,8.82-.73,13.46Z"/>
  <path d="M134.59,722.23l4.48,1.7c-2.31-9.03-.13-5.31,1.18-7.01l-2.64-13.24-3.01,18.54Z"/>
  <path d="M280.92,666.57c-.21-.24-5.75-.24-5.96,0-.21.24-.21,6.49,0,6.74,1.4,1.63,8.95-3.39,5.96-6.74Z"/>
  <path d="M133.09,750.94l.03,10.12,1.47-13.49-7.32,7.76c.23,6.82,3.61-5.63,5.82-4.4Z"/>
  <path d="M174.92,710.43c.4.39,5.74-1.48,5.92-1.76.51-.8-.48-8.71-2.93-8.35-.15,2.01.66,4.79-.37,6.44-.12.19-5.55.82-2.62,3.68Z"/>
  <path d="M251.06,691.88c-2.28-.27-2.62-1.59-2.5,1.65.14,3.94.88,7.87,1.03,11.84l1.47-13.49Z"/>
  <path d="M167.58,711.82c-.43.41.76,2.79-2.36,2-1.76-.45.54-3.99-2.24-3.38l1.5,6.74c3.35,2.77,12.89-14.63,3.11-5.36Z"/>
  <path d="M192.84,774.56c7.14-4.63,2.5,2.56,7.44,5.06-.05-1.51-1.35-7.85-1.69-8.19-.91-.91-7.41-1.67-5.75,3.13Z"/>
  <path d="M180.77,782.09c.01.32.04.62.1.9l-.1-.9Z"/>
  <path d="M179.41,769.51l1.37,12.58c-.18-4.04,2.73-10.94-1.37-12.58Z"/>
  <path d="M137.57,782.99l-.73-10.11c-3.3,2.4-.25,6.16-.74,10.11h1.47Z"/>
  <path d="M207.03,735.72c.78.35-1.65-4.79,2.21-3.37-5.56-7.6-8.92.32-2.21,3.37Z"/>
  <path d="M195.83,735.76v8.42h1.46c.97-3.14.97-5.28,0-8.42h-1.46Z"/>
  <path d="M233.16,705.39c-.91,3.93-3.23,8.23,1.47,10.11-.57-2.3-.6-4.47-.78-6.79-.1-1.35,2.3-3.75-.68-3.32Z"/>
  <path d="M627.35,999c.67.95,4.21-3.66,2.97-5.05-2.39-2.68-4.31,3.14-2.97,5.05Z"/>
  <polygon points="133.11 739.12 136.09 739.11 134.58 732.38 133.12 732.38 133.11 739.12"/>
  <path d="M198.8,729.01c2.35,10.22,4.44,1.63,2.98,0-.21-.24-2.04.09-2.98,0Z"/>
  <path d="M112.21,470.8c.21.24,2.04-.09,2.98,0-2.35-10.22-4.44-1.63-2.98,0Z"/>
  <polygon points="212.23 771.2 210.76 771.19 212.26 781.3 213.72 781.3 212.23 771.2"/>
  <polygon points="291.4 775.41 294.35 777.94 293.62 772.88 291.4 775.41"/>
  <polygon points="118.16 648 117.43 642.94 115.21 645.47 118.16 648"/>
  <path d="M242.25,701.79c-.08-.03-.75-7.38-1.52-.79l3.62,6.04c1.63-10.94-.54-4.64-2.1-5.25Z"/>
  <path d="M139.07,791.44l-.72-6.72c-4.72,2.54-.01,7.75.72,6.72Z"/>
  <rect x="230.17" y="678.38" width="1.47" height="6.74"/>
  <rect x="273.47" y="678.39" width="4.47" height="1.66"/>
  <polygon points="216.71 678.38 213.74 680.91 216.71 681.74 216.71 678.38"/>
  <rect x="231.67" y="686.82" width="1.47" height="5.05"/>
  <rect x="133.12" y="696.94" width="1.47" height="5.05"/>
  <polygon points="624.35 924.74 627.33 924.74 626.59 921.38 624.35 924.74"/>
  <polygon points="627.34 1000.7 627.35 1004.06 630.32 1000.7 627.34 1000.7"/>
  <rect x="210.76" y="702.01" width="1.47" height="5.05"/>
  <rect x="237.64" y="702.01" width="1.47" height="5.05"/>
  <polygon points="125.67 773.73 126.37 774.53 130.12 769.51 127.14 769.51 125.67 773.73"/>
  <polygon points="251.07 771.18 254.05 771.17 251.08 767.81 251.07 771.18"/>
  <path d="M165.97,718.88v3.37c2.19.54,3.11-.72,4.44-2.54l-4.44-.83Z"/>
  <polygon points="215.23 757.68 218.21 757.67 215.24 754.31 215.23 757.68"/>
  <polygon points="140.56 729 137.59 731.54 140.56 732.37 140.56 729"/>
  <polygon points="237.63 743.35 240.6 744.18 240.6 740.81 237.63 743.35"/>
  <path d="M206.28,745.87h1.47c1.01-3.11-1.67-8.41-4.46-6.73-1.25.76,5.06,2.46,2.99,6.73Z"/>
  <rect x="628.84" y="970.32" width="1.47" height="3.36"/>
  <path d="M124.91,661.53c-1.61,1.51-2.73,2.55-2.24,5.03h1.47l.77-5.03Z"/>
  <rect x="627.35" y="941.63" width="1.47" height="3.36"/>
  <rect x="245.1" y="676.7" width="1.47" height="3.36"/>
  <rect x="257.05" y="678.38" width="1.47" height="3.36"/>
  <rect x="207.78" y="681.76" width="1.47" height="3.36"/>
  <rect x="157.01" y="693.57" width="1.47" height="3.36"/>
  <rect x="625.85" y="880.88" width="1.47" height="3.36"/>
  <rect x="266" y="715.52" width="2.97" height="1.66"/>
  <path d="M213,732.35l-.77-5.03h-1.47c-.49,2.48.63,3.52,2.24,5.03Z"/>
  <rect x="201.8" y="786.38" width="1.47" height="3.36"/>
  <rect x="216.73" y="779.63" width="1.47" height="3.36"/>
  <rect x="189.86" y="777.95" width="1.47" height="3.36"/>
  <rect x="225.69" y="769.51" width="1.47" height="3.36"/>
  <rect x="215.24" y="769.51" width="1.47" height="3.36"/>
  <path d="M188.36,767.82c-.49,2.48.63,3.52,2.24,5.03l-.77-5.03h-1.47Z"/>
  <rect x="167.46" y="767.82" width="1.47" height="3.36"/>
  <rect x="215.24" y="761.07" width="1.47" height="3.36"/>
  <rect x="216.73" y="740.82" width="1.47" height="3.36"/>
  <rect x="197.32" y="745.88" width="1.47" height="3.36"/>
  <rect x="254.06" y="744.2" width="1.47" height="3.36"/>
  <path d="M304.07,744.19c.97-.56.97-1.12,0-1.69v1.69Z"/>
  <path d="M217.47,747.56c.97-.56.97-1.12,0-1.69v1.69Z"/>
  <path d="M211.49,742.5v1.69c.97-.56.97-1.12,0-1.69Z"/>
  <path d="M212.99,747.56v1.69c.97-.56.97-1.12,0-1.69Z"/>
  <path d="M139.82,737.44c.97-.56.97-1.12,0-1.69v1.69Z"/>
  <polygon points="139.05 768.64 138.34 767.84 136.12 770.36 136.82 771.16 139.05 768.64"/>
  <path d="M268.23,734.06c.97-.56.97-1.12,0-1.69v1.69Z"/>
  <path d="M169.69,781.31v1.69c.97-.56.97-1.12,0-1.69Z"/>
  <path d="M212.99,784.69c.97-.56.97-1.12,0-1.69v1.69Z"/>
  <path d="M223.44,783v1.69c.97-.56.97-1.12,0-1.69Z"/>
  <path d="M217.47,786.37c.97-.56.97-1.12,0-1.69v1.69Z"/>
  <path d="M133.85,730.69c.97-.56.97-1.12,0-1.69v1.69Z"/>
  <path d="M304.07,725.62v1.69c.97-.56.97-1.12,0-1.69Z"/>
  <path d="M201.04,725.62v1.69c.97-.56.97-1.12,0-1.69Z"/>
  <path d="M135.34,727.31c.97-.56.97-1.12,0-1.69v1.69Z"/>
  <path d="M169.69,723.94v1.69c.97-.56.97-1.12,0-1.69Z"/>
  <path d="M205.52,722.25v1.69c.97-.56.97-1.12,0-1.69Z"/>
  <path d="M272.71,720.56c.97-.56.97-1.12,0-1.69v1.69Z"/>
  <path d="M112.95,460.69v1.69c.97-.56.97-1.12,0-1.69Z"/>
  <path d="M217.47,717.19v1.69c.97-.56.97-1.12,0-1.69Z"/>
  <path d="M272.71,713.81v1.69c.97-.56.97-1.12,0-1.69Z"/>
  <path d="M220.45,713.81v1.69c.97-.56.97-1.12,0-1.69Z"/>
  <polygon points="184.61 715.47 186.83 712.95 186.12 712.15 183.9 714.67 184.61 715.47"/>
  <path d="M218.96,710.44v1.69c.97-.56.97-1.12,0-1.69Z"/>
  <polygon points="129.36 705.4 128.65 706.2 130.88 708.72 131.59 707.92 129.36 705.4"/>
  <polygon points="296.59 705.35 298.82 702.83 298.11 702.03 295.88 704.55 296.59 705.35"/>
  <path d="M298.1,695.25v1.69c.97-.56.97-1.12,0-1.69Z"/>
  <path d="M215.97,693.56c.97-.56.97-1.12,0-1.69v1.69Z"/>
  <path d="M208.51,690.19c.97-.56.97-1.12,0-1.69v1.69Z"/>
  <polygon points="271.99 685.95 274.22 688.47 274.93 687.67 272.7 685.15 271.99 685.95"/>
  <path d="M245.84,688.5c.97-.56.97-1.12,0-1.69v1.69Z"/>
  <path d="M259.27,685.12v1.69c.97-.56.97-1.12,0-1.69Z"/>
  <path d="M208.51,675v1.69c.97-.56.97-1.12,0-1.69Z"/>
  <path d="M202.54,673.31v1.69c.97-.56.97-1.12,0-1.69Z"/>
  <path d="M117.43,671.62v1.69c.97-.56.97-1.12,0-1.69Z"/>
  <path d="M123.4,671.62c.97-.56.97-1.12,0-1.69v1.69Z"/>
  <path d="M625.09,955.12c.97-.56.97-1.12,0-1.69v1.69Z"/>
  <path d="M629.57,987.19v1.69c.97-.56.97-1.12,0-1.69Z"/>
  <path d="M196.56,1010.81v1.69c.97-.56.97-1.12,0-1.69Z"/>
  <path d="M629.57,1015.87c.97-.56.97-1.12,0-1.69v1.69Z"/>
  <path d="M117.43,585.56v1.69c.97-.56.97-1.12,0-1.69Z"/>
  <path d="M140.58,320.62c.35.46,2.02-1.27,2.97-1.69-1.15-8.35-1.15-6.1-2.97,1.69Z"/>
  <path d="M122.67,339.19c12.17.52,14.86-14.52,16.82-25.73.38-2.16-.56-4.47-.41-4.63,1.57-1.66,5.06,4.82,7.52,4.37,2.44,5.41.29,4.28-3.04,5.74,1.02,7.41,2.17,14.29,1.5,21.95l-8.9.07c-3.61,15.62-.87,21.43,13.05,14.73,5.66-13.96,8.09-27.05,20.22-35.38,1.27-.87,3.74-1.17,3.99-1.39,1.47-1.33-2.16-1.46-2.92-2.89-.52-.97-1.77-6.93-1.55-7.21,2.6-3.27,3.93,5.52,5.95,5.05l.02-8.45c-14.69-1.11-5.67,1.51-8.1,6.76-1.35,2.91-5.52,3.13-7.64,5.07-1.24-5.67-2.15-1.6-5.94-1.58-8.13.05-4.09-8.93-5.28-10.16-.28-.29-6.98-1.17-7.47-.93-3.37,1.67-2.38,8.53-4.32,10.28l-9-.97c-1.92,8.49-1.57,17.09-4.51,25.29ZM153.26,318.94c.97.56.97,1.12,0,1.69v-1.69ZM145.8,308.81c.97.56.97,1.12,0,1.69v-1.69Z"/>
  <path d="M161.95,220.05c-8.07-.82-17.63,1.54-25.87,1v13.51h38.08c.22,0,2.95,3.01,3.72-.89.31-1.53-1.13-10.01-1.75-10.63-.54-.54-12.23-2.79-14.19-2.99Z"/>
  <path d="M136.3,279.89c1.49,2.49,20.06.57,24.39.67,4.06.09,17.06,4.75,17.18-2.84.16-10.34-8.15-11.01-15.6-9.35-2.39.53-4.2,3.33-6.04,3.38-2.55.06-3.5-3.18-5.18-4.09-2.39-1.29-13.63.72-14.76,2.56-.56.91-.55,8.73,0,9.67Z"/>
  <path d="M138.86,102.71c-.45.31-6.35-4.32-2,6.95,4.28,11.09,29.66,4.5,38.59,4.85,3.21-.2,2.9-11.08,2.45-11.57-2.9-3.21-12.11,3.1-14.29,3.42-2.74.4-5.04-1.47-7.37-1.44-4.49.05-8.79,2.38-14.19-.29l1.49-6.73c-3.87-1.32-3.72,4.16-4.69,4.83Z"/>
  <path d="M127.15,173.81c8.96-3.53,19.41-3.22,28.45-5.8,4.82-1.38,7.19-7.29,11.11-.98,6.82-6.87-9.58-4.08-13.38-4.92-1.64-.36-.2-4.02-.98-4.89-.36-.4-7.74-1.47-9.49-3.68-2.61.67-1.37,9.75-5.24,6.73-.11-.09.27-2.24-.47-2.76-.75-.53-5.33-2.53-5.52-2.27-1.54,2.11.52,14.73-.02,15.18-1.14.97-5.68-2.31-4.46,3.38Z"/>
  <path d="M174.17,251.44c-7.57-1.12-16.85.81-24.64,0v3.38h29.86c.88-1.44-3.85-3.17-5.23-3.38Z"/>
  <path d="M122.67,241.31v8.44s4.47-1.7,4.47-1.7c.38-.36-3.59-7.95-4.47-6.73Z"/>
  <path d="M124.13,116.43c-.07-3.07.16-6.21.01-9.29-.1-2.07,1.14-6.27-1.48-5.88.07,3.07-.16,6.21-.01,9.29.1,2.07-1.14,6.27,1.48,5.88Z"/>
  <path d="M130.87,383.06c1.26.22.91-3.06.73-3.34-.24-.37-6.17-3.29-7.45-3.4l6.72,6.74Z"/>
  <path d="M122.64,320.61c.67-3.6,2.58-5.23-1.46-6.74v6.74s1.46,0,1.46,0Z"/>
  <rect x="139.08" y="253.14" width="5.96" height="1.66"/>
  <path d="M137.59,300.37c1.63,1.84,4.6-1.52,2.97-3.36s-4.6,1.52-2.97,3.36Z"/>
  <path d="M124.14,322.32c-1.63-1.84-4.6,1.52-2.97,3.36,1.63,1.84,4.6-1.52,2.97-3.36Z"/>
  <polygon points="140.57 335.8 143.55 335.8 142.82 332.44 140.57 335.8"/>
  <rect x="122.67" y="123.19" width="1.47" height="5.05"/>
  <rect x="170.45" y="295.32" width="1.47" height="3.36"/>
  <rect x="124.16" y="308.82" width="1.47" height="3.36"/>
  <rect x="122.67" y="340.88" width="1.47" height="3.36"/>
  <rect x="122.67" y="345.95" width="1.47" height="3.36"/>
  <rect x="113.71" y="406.7" width="1.47" height="3.36"/>
  <path d="M129.37,345.94v1.69c.97-.56.97-1.12,0-1.69Z"/>
  <path d="M130.87,340.88v1.69c.97-.56.97-1.12,0-1.69Z"/>
  <path d="M132.36,281.81v1.69c.97-.56.97-1.12,0-1.69Z"/>
  <path d="M156.25,263.25c.97-.56.97-1.12,0-1.69v1.69Z"/>
  <path d="M396.6,239.28l.79-1.33c-.34.47-.59.91-.79,1.33Z"/>
  <path d="M394.4,243c-4.99,1.77-1.91-5.21-3.73-5.08-1.7.12-.05,3.78-.82,4.98-.31.47-10,.5-10.37.09-1.58-1.7,3.07-4.6,2.28-6.74-.86-2.33-4.58-4.53-5.22-.84-.07.39,1.23,2.52.9,4.2-.38,1.93-1.77,3.22-1.94,5.6-.54,7.29,1.34,15.59-.5,23.1,3.73,1.33,5.73-10.03,6.04-12.55.28-2.24-.53-8.85-.07-9.38.29-.34,7.87.24,8.24.45.54.3-.83,3.6,1.46,4.61,1.28.57.15-3.21,1.65-3.49,2-.37,4.13,1.14,6.1,1.23,1.51.06,4.6-1.51,4.93-1.12,1.06,1.26.48,8.96.8,10.94.25,1.52,3.57,6.56,2.19,7.62-.91.7-5.58-.58-5.97,3.38,7.26,1.11,12.09,4.25,14.93-5.03-6.96.41-3.35-.18-3.55-3.86-.43-7.65-2.4-17.1-5.38-24.04,7.14,1.96-.86-5.83,1.47-10.91-6.45-.96.95,9.07-7.46,6.75-.35,2.75,2.42.98,3.48,3.7.63,1.61,1.57,7.44.99,8.09-1.42,1.6-10.76.09-8.25-5.4l-2.2,3.72Z"/>
  <path d="M381.73,150.2c-4.99,1.21-.47,11.32.78,13.93.65,1.35,4.32,1.64,2.95,6.31,5.6-2.5,1.6-9.69-.01-14.34-.63-1.82-.13-6.77-3.71-5.9Z"/>
  <path d="M391.02,136.21c3.33.4,2.75-2.11,1.89-2.9-.38-.35-8.06-.56-9.79-.64-1.56-.07-8.21-1.25-8.1,1.47.13,3.33,13.14,1.72,16,2.06Z"/>
  <path d="M363.89,223.54c.17,1.65-.06,4.7,2.14,4.27v-23.62c-11.52,6.79-2.88,3.58-1.75,7.74.28,1.03-.67,8.92-.39,11.62Z"/>
  <path d="M446.68,77.62c1.04,3.24-1.68,8.69-1.29,10.8.37,1.98,3.52,3.61,4.26,2.69.42-.53.1-13.62-2.97-13.49Z"/>
  <path d="M391.43,177.18l1.47-13.48c-6.11-1.2-1.95,10.06-1.47,13.48Z"/>
  <path d="M321.98,219.38l-.74,13.48c6.58.65,3.21-10.23.74-13.48Z"/>
  <polygon points="420.54 229.51 419.56 235.51 421.27 248.05 420.54 229.51"/>
  <path d="M337.66,244.67c-2.13-6.43-11.75-3.05-5.98.93,1.19.82,4.1-1.54,5.98-.93Z"/>
  <rect x="446.67" y="94.51" width="2.97" height="8.42"/>
  <path d="M386.92,144.3c-1.67-5.16-7.75.41,0,4.2-.13-1.33.33-3.19,0-4.2Z"/>
  <path d="M419.8,204.18h1.46c1.29-12.81-3.68-9.77-1.46,0Z"/>
  <path d="M420.54,210.93c1.32-.07.89-4.87.73-5.05-2.31-2.55-4.94,2.39-.73,5.05Z"/>
  <path d="M326.45,261.59c-.86,1.61.75,10.47,2.24,8.41.86-1.19-.1-7.44-2.24-8.41Z"/>
  <path d="M407.84,187.3c.16-.18.59-4.97-.73-5.05-4.21,2.66-1.57,7.6.73,5.05Z"/>
  <path d="M327.19,243.86c-1.26-3.14-2.75-6.76-4.44-1.68-.18.53-.12,2.35,0,2.51l4.44-.83Z"/>
  <path d="M312.28,273.39c2.35,10.22,4.44,1.63,2.98,0-.21-.24-2.04.09-2.98,0Z"/>
  <polygon points="418.29 126.58 415.31 126.57 415.32 129.94 418.29 126.58"/>
  <rect x="419.8" y="249.76" width="1.47" height="5.05"/>
  <rect x="394.42" y="227.82" width="1.47" height="5.05"/>
  <polygon points="306.34 223.58 310.05 227.81 310.78 224.45 306.34 223.58"/>
  <rect x="394.42" y="216.01" width="1.47" height="5.05"/>
  <polygon points="377.99 145.98 380.96 146.8 380.95 143.44 377.99 145.98"/>
  <polygon points="428.01 69.18 428.74 65.82 425.76 65.83 428.01 69.18"/>
  <rect x="304.82" y="167.08" width="4.47" height="1.66"/>
  <polygon points="306.32 162.85 309.29 163.68 309.28 160.31 306.32 162.85"/>
  <rect x="421.29" y="65.82" width="1.47" height="3.36"/>
  <rect x="419.8" y="97.88" width="1.47" height="3.36"/>
  <rect x="403.37" y="101.27" width="2.97" height="1.66"/>
  <rect x="389.94" y="114.76" width="1.47" height="3.36"/>
  <rect x="389.93" y="121.52" width="2.97" height="1.66"/>
  <rect x="415.32" y="121.51" width="1.47" height="3.36"/>
  <rect x="433.23" y="124.89" width="2.97" height="1.66"/>
  <rect x="389.94" y="126.57" width="1.47" height="3.36"/>
  <rect x="389.93" y="141.77" width="2.97" height="1.66"/>
  <rect x="327.23" y="160.32" width="1.47" height="3.36"/>
  <rect x="313.78" y="178.89" width="2.97" height="1.66"/>
  <rect x="315.28" y="185.63" width="1.47" height="3.36"/>
  <rect x="321.25" y="185.63" width="1.47" height="3.36"/>
  <rect x="331.71" y="199.13" width="1.47" height="3.36"/>
  <rect x="307.82" y="202.51" width="1.47" height="3.36"/>
  <rect x="322.75" y="202.51" width="1.47" height="3.36"/>
  <rect x="392.92" y="205.88" width="1.47" height="3.36"/>
  <rect x="307.82" y="210.95" width="1.47" height="3.36"/>
  <rect x="403.38" y="214.32" width="1.47" height="3.36"/>
  <rect x="434.73" y="221.07" width="1.47" height="3.36"/>
  <rect x="394.42" y="222.76" width="1.47" height="3.36"/>
  <rect x="304.82" y="229.52" width="2.97" height="1.66"/>
  <rect x="351.12" y="229.51" width="1.47" height="3.36"/>
  <rect x="312.29" y="231.2" width="1.47" height="3.36"/>
  <path d="M330.19,232.88h-1.47l-.77,5.03c1.61-1.51,2.73-2.55,2.24-5.03Z"/>
  <rect x="339.16" y="241.33" width="2.97" height="1.66"/>
  <rect x="327.23" y="248.07" width="1.47" height="3.36"/>
  <rect x="337.67" y="254.83" width="2.97" height="1.66"/>
  <rect x="388.44" y="258.2" width="2.97" height="1.66"/>
  <rect x="333.2" y="271.7" width="1.47" height="3.36"/>
  <rect x="334.69" y="281.82" width="1.47" height="3.36"/>
  <path d="M321.99,275.06v1.69c.97-.56.97-1.12,0-1.69Z"/>
  <path d="M420.53,273.38v1.69c.97-.56.97-1.12,0-1.69Z"/>
  <path d="M327.96,273.38v1.69c.97-.56.97-1.12,0-1.69Z"/>
  <path d="M332.44,268.31v1.69c.97-.56.97-1.12,0-1.69Z"/>
  <polygon points="322.71 269.17 320.48 266.65 319.77 267.45 322 269.97 322.71 269.17"/>
  <path d="M420.53,266.62v1.69c.97-.56.97-1.12,0-1.69Z"/>
  <path d="M332.44,264.94v1.69c.97-.56.97-1.12,0-1.69Z"/>
  <path d="M399.63,259.88c.97-.56.97-1.12,0-1.69v1.69Z"/>
  <path d="M372.75,254.81v1.69c.97-.56.97-1.12,0-1.69Z"/>
  <path d="M327.96,256.5c.97-.56.97-1.12,0-1.69v1.69Z"/>
  <path d="M345.88,249.75c.97-.56.97-1.12,0-1.69v1.69Z"/>
  <path d="M372.75,246.38v1.69c.97-.56.97-1.12,0-1.69Z"/>
  <path d="M372.75,241.31v1.69c.97-.56.97-1.12,0-1.69Z"/>
  <path d="M360.81,241.31v1.69c.97-.56.97-1.12,0-1.69Z"/>
  <path d="M399.63,237.94v1.69c.97-.56.97-1.12,0-1.69Z"/>
  <path d="M384.7,237.94v1.69c.97-.56.97-1.12,0-1.69Z"/>
  <path d="M308.55,234.56c.97-.56.97-1.12,0-1.69v1.69Z"/>
  <path d="M381.71,231.19c.97-.56.97-1.12,0-1.69v1.69Z"/>
  <path d="M335.42,229.5v1.69c.97-.56.97-1.12,0-1.69Z"/>
  <path d="M332.44,229.5v1.69c.97-.56.97-1.12,0-1.69Z"/>
  <path d="M310.04,231.19c.97-.56.97-1.12,0-1.69v1.69Z"/>
  <path d="M378.73,227.81v1.69c.97-.56.97-1.12,0-1.69Z"/>
  <path d="M419.04,224.44v1.69c.97-.56.97-1.12,0-1.69Z"/>
  <path d="M404.11,224.44c.97-.56.97-1.12,0-1.69v1.69Z"/>
  <path d="M360.81,224.44c.97-.56.97-1.12,0-1.69v1.69Z"/>
  <path d="M332.44,222.75v1.69c.97-.56.97-1.12,0-1.69Z"/>
  <path d="M304.07,217.69v1.69c.97-.56.97-1.12,0-1.69Z"/>
  <path d="M411.57,217.69c.97-.56.97-1.12,0-1.69v1.69Z"/>
  <path d="M351.85,214.31v1.69c.97-.56.97-1.12,0-1.69Z"/>
  <path d="M332.44,209.25v1.69c.97-.56.97-1.12,0-1.69Z"/>
  <path d="M411.57,205.88v1.69c.97-.56.97-1.12,0-1.69Z"/>
  <path d="M320.49,200.81v1.69c.97-.56.97-1.12,0-1.69Z"/>
  <path d="M308.55,197.44v1.69c.97-.56.97-1.12,0-1.69Z"/>
  <path d="M426.51,192.38v1.69c.97-.56.97-1.12,0-1.69Z"/>
  <path d="M363.79,192.38v1.69c.97-.56.97-1.12,0-1.69Z"/>
  <path d="M384.7,182.25v1.69c.97-.56.97-1.12,0-1.69Z"/>
  <path d="M304.07,180.56v1.69c.97-.56.97-1.12,0-1.69Z"/>
  <path d="M305.56,175.5c.97-.56.97-1.12,0-1.69v1.69Z"/>
  <path d="M344.38,168.75c.97-.56.97-1.12,0-1.69v1.69Z"/>
  <path d="M314.52,162v1.69c.97-.56.97-1.12,0-1.69Z"/>
  <path d="M339.9,160.31v1.69c.97-.56.97-1.12,0-1.69Z"/>
  <path d="M311.53,156.94v1.69c.97-.56.97-1.12,0-1.69Z"/>
  <path d="M398.14,128.25v1.69c.97-.56.97-1.12,0-1.69Z"/>
  <path d="M338.41,123.19v1.69c.97-.56.97-1.12,0-1.69Z"/>
  <path d="M411.57,119.81c.97-.56.97-1.12,0-1.69v1.69Z"/>
  <path d="M433.97,106.31v1.69c.97-.56.97-1.12,0-1.69Z"/>
  <path d="M380.22,101.25c.97-.56.97-1.12,0-1.69v1.69Z"/>
  <path d="M420.53,75.94v1.69c.97-.56.97-1.12,0-1.69Z"/>
  <path d="M447.41,74.25v1.69c.97-.56.97-1.12,0-1.69Z"/>
  <path d="M435.46,64.12c.97-.56.97-1.12,0-1.69v1.69Z"/>
  <path d="M439.94,60.75v1.69c.97-.56.97-1.12,0-1.69Z"/>
  <path d="M428,60.75v1.69c.97-.56.97-1.12,0-1.69Z"/>
  <path d="M305.56,57.38v1.69c.97-.56.97-1.12,0-1.69Z"/>
  <path d="M140.58,42.18h2.97c.38-3.15,0-5.84-2.97-6.74v6.74Z"/>
  <path d="M154.02,43.89v1.66s5.94.87,5.94.87c-1.58-2.62-3.19-2.94-5.94-2.53Z"/>
  <path d="M449.64,364.5l.02-5.06c-1.32.27-15.61-3.16-13.44,2.5,2.13,5.56,9.89-1.01,13.41,2.56Z"/>
  <path d="M419.79,366.19v-23.62l-2.67,21.48c-1.51,2.95,2.34,2.56,2.67,2.14Z"/>
  <path d="M428.77,351.84l1.48,4.22c6.84-3.09,3.46-10.17-1.48-4.22Z"/>
  <path d="M398.88,325.7c-1.26-1.42-5.63,2.81-5.97,5.04,3,1.66,7.73-3.05,5.97-5.04Z"/>
  <path d="M418.31,324.01l1.46,11.79c.57-2.66,1.72-10.65-1.46-11.79Z"/>
  <path d="M443.67,349.32c-2.37-2.61-6.81,2.24-4.47,5.05,1.45,1.75,6.02-3.33,4.47-5.05Z"/>
  <path d="M419.77,372.08c.23-.75.14-4.05,0-4.2-4.78-5.36-3.01,14.1,0,4.2Z"/>
  <path d="M404.87,335.82l-1.5,6.74c2.88-.83,3.36-3.71,2.96-6.74h-1.46Z"/>
  <polygon points="394.41 340.87 397.39 340.86 394.42 337.5 394.41 340.87"/>
  <rect x="431.74" y="342.58" width="2.97" height="1.66"/>
  <path d="M392.16,371.25v1.69c.97-.56.97-1.12,0-1.69Z"/>
  <path d="M378.73,369.56v1.69c.97-.56.97-1.12,0-1.69Z"/>
  <path d="M374.25,369.56v1.69c.97-.56.97-1.12,0-1.69Z"/>
  <path d="M436.96,351v1.69c.97-.56.97-1.12,0-1.69Z"/>
  <path d="M386.19,351v1.69c.97-.56.97-1.12,0-1.69Z"/>
  <polygon points="398.91 340.02 401.14 342.53 401.84 341.73 399.62 339.22 398.91 340.02"/>
  <path d="M432.48,335.81v1.69c.97-.56.97-1.12,0-1.69Z"/>
  <path d="M428,327.38v1.69c.97-.56.97-1.12,0-1.69Z"/>
  <path d="M219.07,57.45l-.86-13.59c-4.91-.72-7.52.74-8.62,6.29-2.08,10.41.98,11.2,9.49,7.3Z"/>
  <path d="M219.16,111.85c-11.56,1.37-14.51,19.83-2.87,22.79,21.58,5.49,19.33-24.74,2.87-22.79Z"/>
  <path d="M219.68,269.24c-.06-.99-2.67-9.02-3.04-9.29-7.22-5.42-8.59,17.19-7.39,21.87l8.96-.02c-.85-4.22,1.68-8.9,1.47-12.56ZM213.72,266.62h-1.47v-3.36h1.47v3.36Z"/>
  <path d="M213.13,335.96c-5.2,1.79-3.78,16.84-3.88,21.8h8.97c-1.34-4.73,2.71-24.49-5.1-21.8Z"/>
  <path d="M484.76,55.72c1.48-2.83,1.15-32.77.06-37.3-1.1-4.59-8.77-6.22-9.79-4.91v45.56c2.79.33,8.29-.59,9.73-3.35Z"/>
  <path d="M513.4,681.97c-9.13,3.02-8.58,40.43-3.21,48.65,5.13,7.86,12.39,2.54,13.77-6.23,1.34-8.54,2.79-46.83-10.56-42.42Z"/>
  <path d="M145.81,423.53c1.09-1.59-1.05-8.37-2.24-6.72-.96,1.34.36,5.76,2.24,6.72Z"/>
  <rect x="145.06" y="435.38" width="1.47" height="3.36"/>
  <path d="M138.33,401.62v1.69c.97-.56.97-1.12,0-1.69Z"/>
  <path d="M139.82,405v1.69c.97-.56.97-1.12,0-1.69Z"/>
  <path d="M141.32,410.06v1.69c.97-.56.97-1.12,0-1.69Z"/>
  <path d="M513.07,59.03c12.52.37,10.53-31.49,7.55-40.52-1.8-5.46-8.18-9.09-12.36-4.57-5.37,5.81-6.38,44.76,4.81,45.09Z"/>
  <path d="M483.53,568.91c-8.35,2.73-6.8,36.79-.4,42.08,6.99,5.79,9.56-3.75,10.63-10.16,1.35-8.03.98-35.58-10.24-31.92ZM484.74,594v-1.69c.97.56.97,1.12,0,1.69ZM489.95,602.43h-1.47v-5.05h1.47v5.05Z"/>
  <rect x="301.84" y="376.33" width="2.97" height="1.66"/>
  <path d="M304.07,347.62v1.69c.97-.56.97-1.12,0-1.69Z"/>
  <path d="M503.2,343.63c-7.97-16.59-31.21.01-20.26,15.33,7.54,10.56,28.08.94,20.26-15.33ZM494.43,351.83c-1.53,6.12-7.94-2.71-4.46-5.88,1.76-1.6,5.36,2.29,4.46,5.88Z"/>
  <path d="M266,421.87c.92,1.03,5.92-.76,5.94-2.52.04-4.94-8.72-.62-5.94,2.52Z"/>
  <path d="M276.54,90.17c-4.82-3.63-15.43,2.63-9.09,6.9,1.56,1.05,9.97,1.31,10.49.8.43-.42.27-6.44-1.4-7.7Z"/>
  <polygon points="315.25 145.12 315.26 141.76 312.29 142.59 315.25 145.12"/>
  <path d="M275.5,310.27c2.83-1.06,3.14-7.51,2.45-8.2-.36-.35-8.05-.24-9.48.26-5.91,2.05-1.66,11.19,7.04,7.95Z"/>
  <path d="M271.22,13.5v1.69c.97-.56.97-1.12,0-1.69Z"/>
  <rect x="270.49" y="443.82" width="1.47" height="5.05"/>
  <path d="M276.44,248.07c-.74-.71-14.74-.81-10.44,3.36.74.71,14.74.81,10.44-3.36Z"/>
  <polygon points="271.99 630.27 274.22 632.78 274.93 631.98 272.7 629.47 271.99 630.27"/>
  <rect x="331.7" y="518.08" width="2.97" height="1.66"/>
  <rect x="481.01" y="636.18" width="5.96" height="10.14"/>
  <path d="M276.44,216.01c-.74-.71-14.74-.81-10.44,3.36.74.71,14.74.81,10.44-3.36Z"/>
  <path d="M178.65,511.31v1.69c.97-.56.97-1.12,0-1.69Z"/>
  <path d="M311.53,330.75v1.69c.97-.56.97-1.12,0-1.69Z"/>
</svg>