<?xml version="1.0" encoding="UTF-8"?>
<svg id="Layer_1" xmlns="http://www.w3.org/2000/svg" version="1.1" viewBox="0 0 1920 1080">
  <!-- Generator: Adobe Illustrator 29.5.1, SVG Export Plug-In . SVG Version: 2.1.0 Build 141)  -->
  <path d="M185.38,695.25v15.18s2.97-5.06,2.97-5.06c2.94-4.16,1.01-8.2-2.97-10.12Z"/>
  <path d="M122.65,685.12c-.02-.08-.05-.15-.09-.23.03.11.06.2.09.23Z"/>
  <path d="M370.51,565.31v-1.41c0,.5-.01,1.25,0,1.41Z"/>
  <path d="M370.51,563.62v.28c0-.11,0-.21,0-.28Z"/>
  <path d="M122.65,685.12c1.61,5.59-1.71,6.13-.84,8.47,1.26,3.36,6.02,1.67,6.81,4.2.15.47-5.08,1.47-2.97,5.91l5.94-.84c-5.43-4.41.49-6.81,1.53-11.81l-8.97,2.51,2.97-3.36c.53-2.68-.85-3.35-1.48-5.08-.83.04-2.87.13-2.99,0Z"/>
  <path d="M273.68,694.81c-.57-.62.35-3.47-.96-2.93-.51.21-1.15,1.95-2.21,2.25-2.39.67-5.9-1.49-6,3.63l2.97,2.56c-.83-4.89,3.67-5.43,3.01,0,7.4-8.02,4.18,2.93,10.44-1.69-.16-.06-.57-2.57-1.49-3.38-2.53-2.18-5.32.03-5.75-.44Z"/>
  <path d="M145.85,700.23c-.46.04-.72.1-.8.09-.3.25-1.12,6.99-.76,8.41,1.58-1.19,4.73-7.31,3.75-8.41-.32-.04-.6-.07-.87-.09-.42-.01-.91-.01-1.32,0Z"/>
  <path d="M230.16,769.5c-.5.54-1.51,1.64,0,1.69.14-.56-.17-1.26,0-1.69Z"/>
  <path d="M154.01,965.25l.23-1.28c-.6-.33-.65.37-.23,1.28Z"/>
  <path d="M279.61,1015.69c.8.6,16.48,1.08,19.25,1.16,1.75.05,3.41.99,4.46-1.84,1.27-3.43-2.73-1.82-2.99-3.36-.74-4.35,3.07-1.41,3.02-3.36-.02-.69-7.86-1.95,1.48-9.27l-4.57-.92.17-151.9c-.4-7.92-8.43-6.72-.04-12.04-.96-18.66,1.16-38.56-.05-57.05-.13-1.97-.61-9.03-2.97-9.28-1.38,5.26,1.6,25.54-4.05,27.02-1.28.33-6.11.58-6.42-.89-.9-4.22,5.72-1.99,5.95-5.04.15-1.97-11.34-19.54.02-24.48l1.49,5.05c-.05-2.44-.75-13.38,2.25-13.46,2.01-.05,2.24,4.42.72,5.84.48,2.26,2.69-1.13,2.84-1.93.12-.64-1.04-11.8-1.3-12.96-.46-2.04-2.95-.33-3.02-1.95-.09-1.89,3,.22,3.01-1.7.04-5.05-2.43-.2-2.99-.81-.99-1.08-.59-9.9,2.99-9.3l-3-1.68c8.42-4.13,2.55-6.38,2.16-11.75-.15-2.08,1.76-8.18.81-9.36-.36-.45-7.97,1.65-10.61.78-2.19-.73-3.8-3.58-5.32-3.92-.72-.16-5.98,3.09-6.16,3.41-.29.51,1.74,4.31-.26,5.65,1.43,1.74,3.64-3.65,4.44-2.55.47.65,2.48,9.46-1.61,9.47-3.99,0-6.63-2.9-4.39,7.93.27,1.29,7.42,5,7.48,7.07.07,2.63-8.83.82-7.5,10.08.25,1.73,7.61,1.45,7.56,3.47-.11,4.95-3.36,8.53-7.5,5.84v8.44c7.72-2.96,6.04-1.99,5.96,6.74-3.93-.97-14.11,2.11-17.05,1.53-2.31-.46-3.06-5.9-2.36-6.56,1.74-1.63,13.57,2.75,10.44-8.44-2.76,3.97-9.07,1.45-11.58,3.78-.4.38-4.8,9.94-4.81,10.55-.06,2.75,2.75,5.36,2.94,8.53.08,1.3-1.33,8.72-1.64,9.01-.5.46-5.6.42-5.8.19-.97-1.11,2.68-15.99,2.97-18.55l-7.47,1.69.77,5.04-2.26-10.12-2.99,5.05c-3.8-.88-.13-8.93.03-11.8l7.44,5.06-5.95-13.49c4.12-1.34,2.59,2.76,4.53,4.15,3.13,2.24,5.7-1.24,4.43,7.66,5.3-1.71,4.34-9.4,2.69-14.08-.91-2.58-3.75-2.19-4.15-3.89-1.47-6.38-.08-19.07.6-25.77.15-1.45-.81-3.37-.67-3.45,1.12-.64,4.13,1.01,4.5-.89-.71-1.64-3.7-1.93-4.18-2.85-1.21-2.31,1.21-6.74-1.77-6.43-1.36,2.74-.04,7.62-.31,9.31-.17,1.1-2.74.49-2.71,1.81.1,4,2.31,2.27-2.23,7.46-3.33.73-3.12-4.31-3.75-5.08-1.45-1.79-1.16,3.17-2.4,3.46-2.79.67-9.09-2.29-9.52-1.78-1.63,1.95,4.09,12.58-2.26,15.18-1.72-6.66,1.15-13.95-2.25-20.24-3.05-5.64-1.81,5.28-2.91,5.97-4.39,2.79-7.28-3.12-5.32,7.6,1.31,2.41,4.18.06,5.29.69,2.33,1.33.27,3.8.44,6.05.26,3.37,1.08,6.66,1.03,10.08,5.94,1.05.77-3.7,1.74-6.44.63-1.8,10.8-5.79,7.22-13.82l3.73,3.37,2.22-3.36-2.97,8.41c.67.67,5.03-1.16,5.68-2.13,1.21-1.82-1.47-5.83,3.27-4.6l-2.97,6.71c3.24-.58,3.25,1.87,2.99,5.09l4.45-3.38,1.49,10.12c-2.44.16-2.78-4.9-3-5.07-.39-.3-6.19,3.23-8.93,3.38,0,1.11-1.02,2.62-.77,4.16.85,5.27,2.52,11.04,2.43,17-.05,3.34-1.82,1.63-3.16,3.29,3.19,2.65,2.94,9.03,2.99,13.42.02,1.58,1.14,7.5-2.23,6.01-2.82-1.25-1.32-20.06-1.43-23.7-.35-11.3-1.42-7.94.67-20.19-.02-.04-.02-.08-.04-.13-.17-.29-.86-.78-.83-1.31.07-1.52,1.07-3.4.87-3.62-.49-.53-2.57,1.09-3.76.94-1.45-.18-3.12-3.41-3.69-2.64-1.1,1.51,2.16,18.67-7.48,13.51.05,8,2.69,3.62,4.25,5.31.89.96-.12,4.25.25,4.81.12.19,1.92-1.58,2.6-1.18.46.27,1.14,4.47,4.85,2.86.9,3.18-1.25,3.01-1.5,3.37-.18.25.36,1.75-1.49,1.69-.8,3.3-.87,6.77-1.48,10.14l2.95-.87c-3.52,1.46-1.23,7.11-1.52,7.45-.29.34-7.49,3.38-7.91,3.29-1.77-.4-2.46-3.64-4.72-3.15l-.76,5.09c-5,1.42-2.23-4.11-3-5.07-1.26-1.56-3.4,8.24-5.96,5.05-.42-.53,1.48-5.59,1.56-7.65.17-4.26-.29-8.58-.12-13.41.12-3.28-1.65-4.26-2.93-2.55-1.19,1.59,2.37,19.24-.02,23.64-6.48-1.69-7.68,2.98-8.39-6.25-.3-3.97,1.79-5.68-3.53-8.94-3.08,6.47,1.41,4.54,1.59,6.05.07.56-1.36,8.78-1.63,9.12-.44.54-4.42-.98-6.17-.8-1.61.16-3.43,1.99-5,1.87-1.83-.15-4.48-4.59-7.4-4.54-1.29.02-1.1,4.48-3.14,4.94-1.09.25-2.92-1.13-4.39-1.02-4.72.35-9.44,1.09-14.18,1.27l1.49,6.73c-6.86,1.89-3.47-3.77-4.55-4.89-.37-.39-6.72-.55-7.91-.24-1.89.49-2.19,6.42-2.47,8.5-2.85.23-.91-5.78-3.73-6.73-1.58-.54-3.57-.06-4.5,1.67-1.94,3.6,10.12,37.2,12.74,43.07-6.17,1.69-.32,6.33.73,11.82.95,5.02-2.25,10.63-2.19,11.79.16,3.81,5.66.53,5.93.82.73.75-.64,12.35-.78,15.12-.2,3.98-1.01,7.58-.17,12.45,1.34,7.74,6.27,16.02,2.74,24.48l5.67,3.67-2.97,5.02c3.44,3.22,2.66-7.03,5.26-1.67.97,2.01-1.85,7.14,2.2,9.29l-4.46-2.53-1.49,6.74-.78-6.77-6.69,1.71-2.97-6.75c.02,4.15-3.74,7.86-4.24,11.36-.35,2.45,1.44,5.34,1.23,5.51h1.49c.19-2.78-.15-5.66.01-8.45,3.1,1.82,6.4-.61,9.49-.12,1.74.28,1.29,4.19,2.33,5.7,1.03,1.5,3.12,1.73,3.76,2.8.38.64,1.25,14.66.82,15.25l-4.44-3.38-1.28,7.16c.29.16.7.55,1.26,1.28,2.64,3.46,3.51,4.1,7.47,5.92.38,5.01-6.69-1.31-8.96.84-2.95,2.79,2.9,3.39,3.04,4.47.87,6.27-2.56,11.65-3.14,16.53-.91,7.76,2.14,15.16,1.59,22.87,2.49-2.29,12.28.43,13.13-.25,1.04-.82.94-4.82,3.28-4.81l.72,4.9,21.61.07c.67-5.19,1.84-8.61,2.35-13.94.23-2.45-.75-4.47,2.94-4.55.97-.02.61,8.86.45,9.35-.3.95-2.1.63-2.32,1.02-.29.52,1.84,5.82-.36,8.19l16.43.03v-6.77c5.62-2.17.81,8.99,5.2,6.74,2.63-1.35,1.78-9.01,2.27-11.81,6.71-1.69.09,10.61,1.49,11.8l6.66,1.76,3.05-6.8,1.55,5.16c6.52-2.22,29.99,2.21,33.59-.9,1.4-1.21.93-4.32,2.18-4.28.99.03-.09,8.76,5.15,5.03.62-.44,1.76-8.23,1.58-10.08,3.98.87,1.15,8.44,3.15,9.94ZM292.86,919.68h-2.97v-6.73h2.97v6.73ZM290.63,865.72c2.23,0,2.23,5,0,5s-2.23-5,0-5ZM289.9,880.89l1.47,10.12-4.47-.02,3-10.11ZM295.87,749.26h1.47v3.36h-1.47v-3.36ZM254.05,752.64l-1.51,5.04h-1.46s-1.48-5.91-1.48-5.91l4.45.88ZM246.59,728.98v-1.66h2.97v1.66h-2.97ZM139.09,811.69h1.47s.77,6.71.77,6.71c-2.32-1.78-2.6-3.61-2.24-6.71ZM139.82,809.97l-2.23-2.51,4.47-.82-2.24,3.33ZM145.06,829.41l2.97-2.54v3.37s-2.97-.83-2.97-.83ZM157.74,963.56v-1.69c.97.56.97,1.12,0,1.69ZM193.58,835.31c.97.56.97,1.12,0,1.69v-1.69ZM173.43,837.01h1.47c.04,3.63,2.7,7.15-1.47,8.43v-8.43ZM174.55,852.81c.36.23.19,2.61,1.01,2.56l13.51-1.52c2.01.02.64,6.81-2.21,6.78l-1.44-2.2c0,.87,0,2.15-.98,2.19-1.91.09-12.96-.93-13.33-1.57-2.21-3.75-1.26-9.18,3.43-6.24ZM179.38,943.32v3.36h-1.47v-3.36h1.47ZM173.43,931.49c-1.63-1.84,1.34-5.2,2.97-3.36s-1.34,5.2-2.97,3.36ZM174.92,945.01c.56.91-1.8,4.42-1.41,4.96.52.72,3.48-1.23,2.88,1.76-5.44-1.82-.12,6.13-2.22,5.07-3.49-1.75-1.69-9.3-2.26-10.12-.55-.79-5.57,5-4.46-1.67,1.47-.86,6.81-1.07,7.47,0ZM170.64,986.21c-.15-3.34-.34-2.43,2.77-2.4l2.26,11.79c-1.38-3.62-5-1.45-5.23-1.66-.27-.24.3-5.53.2-7.73ZM168.95,958.49l-1.51-8.42h2.98s0,8.42,0,8.42h-1.47ZM171.93,966.09l2.97-.83v3.37s-2.97-2.54-2.97-2.54ZM166.7,1002.37v-1.69c.97.56.97,1.12,0,1.69ZM152.52,806.62c-1.63-1.84,1.34-5.2,2.97-3.36,1.63,1.84-1.34,5.2-2.97,3.36ZM155.49,808.32v5.05h-1.47v-5.05h1.47ZM156.98,912.93h-1.47v-3.36h1.47v3.36ZM161.47,866.55c-.36-7.75,1.32-6.32-5.96-4.24-1.44-3.39,2.88-6.81,2.95-7.6.12-1.28-3.54,1.17-4.44-1.68-2.29-7.23,4.2-2.19,4.46-2.53.41-.53-.22-9.87.06-12.61.23-2.21,2.38-3.95,2.43-5.15.07-1.76-4.67-3.33-.26-5.36,8.6-3.96,4.96,5.39,5.09,8.75.21,5.63,2.13,16.83,1.45,22-.45,3.45-3.89,6.48-2.8,10.95-3.16.13-2.83.75-2.98-2.53ZM162.21,980.44l3.71,4.23-4.45-.87.73-3.36ZM165.95,1010.8c-.76-.69,2.95-4.72,4.48-3.35.76.69-2.95,4.72-4.48,3.35ZM177.89,1004.06c-.31.37-8.56-1.44-8.96-1.69-.19-.13-.14-4.87.02-5.05.32-.36,8.7,1.28,8.94,1.71.16.28.15,4.85,0,5.03ZM178.65,988.87v-1.69c.97.56.97,1.12,0,1.69ZM176.41,982.12c-1.63-1.84,1.34-5.2,2.97-3.36,1.63,1.84-1.34,5.2-2.97,3.36ZM180.87,970.31l-2.97-2.54,2.97-.83v3.37ZM180.9,948.38h1.47s1.5,6.73,1.5,6.73h-1.47s-1.5-6.73-1.5-6.73ZM183.12,1000.69v-1.69c.97.56.97,1.12,0,1.69ZM186.86,968.61c-.93-.09-2.77.25-2.98,0-1.47-1.64.63-10.23,2.98,0ZM186.11,1014.16c-3.71.35-.59-4.75-.48-5.54.64-4.48,2.27-8.48,2.73-12.99,5.18,1.5-.68,18.38-2.25,18.53ZM190.59,953.44v-1.69c.97.56.97,1.12,0,1.69ZM192.08,963.56v-1.69c.97.56.97,1.12,0,1.69ZM192.09,939.93c-4.21-2.66-1.57-7.6.73-5.05.16.18.59,4.97-.73,5.05ZM191.35,933.18v-3.36h1.47v3.36h-1.47ZM194.32,858.92h-2.97v-1.66h2.97v1.66ZM196.56,963.56v-1.69c.97.56.97,1.12,0,1.69ZM198.82,813.38h1.47v6.74h-1.47v-6.74ZM199.55,992.25v-1.69c.97.56.97,1.12,0,1.69ZM201.78,858.92h-2.97v-1.66h2.97v1.66ZM202.54,906.19v-1.69c.97.56.97,1.12,0,1.69ZM204.76,965.24h-1.47v-3.36h1.47v3.36ZM209.26,858.95h2.97v1.66h-2.97v-1.66ZM208.51,992.25v-1.69c.97.56.97,1.12,0,1.69ZM209.27,884.25c2.88-.04,3.82,7.47,2.97,8.43-3.27,3.67-3.48-5.27-2.97-8.43ZM210.75,931.51h2.98s-2.97,3.37-2.97,3.37v-3.37ZM215.22,970.3h-2.97v-6.73h2.97v6.73ZM212.25,956.81c.67-.95,4.21,3.66,2.97,5.05-2.39,2.68-4.31-3.14-2.97-5.05ZM217.47,997.32l.74,10.11c-3.63,4.73-3.5-9.35-.74-10.11ZM219.69,993.93h-1.46s0-6.74,0-6.74c4.04,1.5,2.13,3.14,1.46,6.74ZM219.71,982.12v-3.37s2.98,3.36,2.98,3.36h-2.98ZM227.17,1000.67h-2.97v-1.66h2.97v1.66ZM225.69,988.87l.73-5.05,2.22,2.52-2.95,2.53ZM233.13,992.24h-1.47v-3.36h1.47v3.36ZM233.13,982.12h-1.47v-3.36h1.47v3.36ZM231.66,917.99c-1.63-1.84,1.34-5.2,2.97-3.36,1.63,1.84-1.34,5.2-2.97,3.36ZM235.38,826.87v-1.69c.97.56.97,1.12,0,1.69ZM282.41,978.73h-2.97v-1.66h2.97v1.66ZM277.95,926.45h2.97v10.11h-2.97v-10.11ZM277.94,910.38c.12-2.77,1.32-4.69,2.98-2.49.41.55.12,11.93,0,14.36-.12,2.77-1.32,4.69-2.98,2.49-.41-.55-.12-11.93,0-14.36ZM291.37,717.18c.43,6.15,1.85,11.35,1.51,17.75-.41,7.58-4.05.17-4.51-5.06-.27-3.1-1.69-14.52,3-12.69ZM289.88,754.3c.34-.44-1.1-15.5,2.99-10.11.57.75,1.19,18.17-2.95,18.56-.96-5.5-6.51-4.6-4.5-11.81,1.96-.98,1.57,7.07,4.46,3.36ZM284.66,729c.97.56.97,1.12,0,1.69v-1.69ZM283.92,735.76h1.47v3.36h-1.47v-3.36ZM283.92,811.69h1.47v5.05h-1.47v-5.05ZM282.41,889.31c-3.11-1.17-3.73-3.62-2.25-6.76,4.37-9.29,3.53,1.57,2.25,6.76ZM258.54,818.45h1.47v3.36h-1.47v-3.36ZM258.52,830.26c.78.87-.03,10.09-2.23,10.09-3.16,0-.99-13.69,2.23-10.09ZM255.53,906.18l1.49,20.25c-2.16.39-2.08-2.97-2.52-4.71-.78-3.08-4.66-17.31,1.03-15.54ZM248.09,788.07h1.47v3.36h-1.47v-3.36ZM241.36,946.69l.73,8.43c-1,1.41-5.67-5.81-.73-8.43ZM242.1,936.55c-3.97,4.44-3.97-9.49,0-5.05.16.18.16,4.87,0,5.05ZM241.36,788.06v-1.69c.97.56.97,1.12,0,1.69ZM240.64,782.16l2.22-2.52.73,5.05-2.95-2.53ZM246.57,1012.49h-1.47v-3.36h1.47v3.36ZM249.64,937.48c-.78,5.66,1,11.51-1.18,17.23-.68,1.79-1.62,4.23-3.36,2.09-1.79-2.21,3.19-35.57,2.93-41.35l3.03-2.53c-.52,4.91,2.07,11.24,1.47,15.86-.42,3.19-2.45,5.53-2.89,8.69ZM258.52,1014.18c-.92,1.04-5.94-.78-5.94-2.52,0-.3,3.44-4.19,3.71-4.19,1.54,0,3.15,5.67,2.23,6.71ZM258.52,1005.74c-.22.24-2.04-.1-2.97,0,1.62-21.68,4.85-2.09,2.97,0ZM257.04,906.18l.04-44.78c-8.24-19.13,3.78-19.77,4.35-3.18.2,5.95-1.77,14.21-1.48,21.89.19,4.9,3.72,22.05,2.38,24.43-1.26,2.25-3.38,1.71-5.3,1.65ZM261.5,951.76v5.05h-1.47v-5.05h1.47ZM263,992.23h-2.97v-1.66h2.97v1.66ZM264.59,982.98c-.48,3.16,1.23,4.97-3.07,4.2v-18.56s4.47.02,4.47.02c.45.51-1.09,12.3-1.4,14.35ZM268.99,1009.12v-3.37s2.97,0,2.97,0l-2.97,3.36ZM268.99,857.24c-1.63-1.84,1.34-5.2,2.97-3.36,1.63,1.84-1.34,5.2-2.97,3.36ZM274.74,806.02c-1.85-6.38-10.6,1.05-11.72-3.63-1.78-7.42,4.5-4,6.37-4.51,4.12-1.11,5.48-6.67,1.07-8.97-3.08-1.61-11.18.81-6.8-6.01,2.07-3.22,10.51-.94,13.54-3.24,1.47,1.2-1.48,3.37-.57,4.69,1.1,1.61,5.03,2.98,5.42,8.21.36,4.79-5.49,9.46-5.55,10.06-.83,8.17,1.95,27.88,2.39,37.19.14,3.02-1.24,6.21-1.05,9.79.36,6.63,4.88,13.51,3.07,21.13-4.31.8-2.47-1.05-3.15-3.94-.87-3.69-2.35-8.72-2.67-12.25-1.06-11.95,2.12-39.97-.36-48.53ZM275.96,955.45c.33-4.33,1.16-8.82,1.95-13.08.55-2.98-1.44-4.9,3-4.11-.61,3.68-.95,23.51-3.73,23.59-2.97.08-1.34-4.97-1.23-6.4ZM280.92,992.26c2.27,2.56-2.63,12.48-4.41,5.83-1.48-5.51,2.3-8.2,4.41-5.83Z"/>
  <path d="M231.65,769.5l-.75-1.66c-.93,0-.67,1.58-.75,1.66.08-.21,1.41.21,1.49,0Z"/>
  <path d="M142.06,945c-.47.38-2.78-.84-2.99.82,5.54,5.89.2,12.43,2.99,19.43l-5.97-1.7.74-8.41c-1.78.93.22,4.49-1.17,6.38-.44.59-2.81.22-2.56,1.17.15.56,3.08,7.07,3.38,7.32,1.03.85,5.66-.73,4.08,2.82-.78,1.75-3.38,7.05-5.95,5.94l-2.99-6.74c-1.33,5.41,4.49,8.7,4.49,9.27,0,1.5-2.03.11-2.96,2.04-3.58,7.43-.48,17.47-.3,24.97.13,5.16-4.5,7.88,2.54,7.66,12.02-.38,6.63-3.03,6.52-11.03-.09-6.77.08-13.36,1.08-18.91.39-2.17-.29-4.85.58-7.25l4.46,6.73c-.68-6.08-7.49-13.05,1.51-11.82l-2.99-23.61,7.45,8.42c1.53-4.98-3.68-8.53-4.47-10.97-.43-1.35,4.02-1.12,4.16-3.26.2-3-1.64-7.82-4.91-6.02-2.09.69,1.36,4.34.74,5.06-3.09,3.54-2.4-4.28-4.47-3.35l2.25,6.7-3.75-1.65c-.36,5.14-1.68,4.99-1.49,0ZM135.34,990.56v-1.69c.97.56.97,1.12,0,1.69Z"/>
  <path d="M237.62,747.56c.02-2.6-1.93-1.48-1.53-.13.03.05.04.09.04.13.03.08,1.02.03,1.49,0Z"/>
  <path d="M154.01,965.25c-.79,5.28,2.65,4.05,1.49,0-.06-.2-1.4.2-1.49,0Z"/>
  <path d="M177.13,749.22l-.73,8.46-5.96-1.68c-.44.52,1.36,6.42,1.59,6.64.23.21,5.72-.43,5.97-.64,1.88-1.58.61-5.99,2.14-6.02,1.49-.03,1.53,5.93,2.41,6.69.29.25,7.02.36,7.29.08,2.3-2.37-3.33-18.1-7.3-14.94-.2.16.27,5.4-3.15,3.12-.42-.28,1.19-6.03-2.27-1.7Z"/>
  <path d="M127.66,830.8c0,8.81,1.22,14.82,2.4,22.25.4,2.49.12,5.2,3.03,5.88-1.96-5.6,2.17-11.7,2.26-15.28.06-2.32-3-21.14-3.76-21.84-3.42-3.17-3.93,7.44-3.93,8.98Z"/>
  <path d="M265.59,743.03c-9.32-4.05-6.15,1-6.11,5.66.04,4.86-2.02,12.78,6.52,8.16,6.27-3.39-.49-8.91,0-9.27.83-.62,3.58,1.32,2.98-1.68-2.15.82-2.95-2.68-3.38-2.87Z"/>
  <path d="M140.64,780.44c0,.39,1.33,7.2,1.52,7.53.16.27,5.63.3,5.8.03,1.08-1.74.77-19.99,1.56-23.56-3.81,2.82-8.77,6.62-5.91,12.26,1.05,2.06,3.45.28,2.92,2.92-1.5-.85-5.82-2.18-5.89.82Z"/>
  <path d="M261.51,720.56c.02.27.2.89.46,1.7-.02-.47-.16-1.04-.46-1.7Z"/>
  <path d="M258.53,722.25c-.54,5.62-1.01,11.23-1.49,16.87h7.46s-4.46-5.08-4.46-5.08c-.45-3.3,3.45-.92,4.49-1.68.76-.56-1.53-6.89-2.54-10.1.07,1.73-1.52,2.06-3.44-.02ZM260.77,729v-1.69c.97.56.97,1.12,0,1.69Z"/>
  <path d="M258.85,705.84c1.84,8.14,4.1,3.94-.32,13.04.12-.17,2.91,1.52,2.99,1.69-.25-3.13,1.61-6.18,1.47-9.19-.13-2.67-3.27-7.45-2.96-7.67.85-.61,3.57,1.32,2.98-1.68-5.77.93.99-8.14-5.22-11.8l-3.73,5c6.23.36,3.78,6.1,4.81,10.62Z"/>
  <path d="M258.53,718.87c-.57,1.18-2.43.75,0,3.38.1-1.09-.21-3.1,0-3.38Z"/>
  <path d="M127.12,799.88c-.85.39-4.47,4.05-4.48,4.38-.1,3.34,3.35,12.93,3.02,17.55,8.72-4.34.65-13.78,1.46-21.93Z"/>
  <path d="M164.45,777.94c2.64-3.07-2.42-3.42-2.6-3.71-1.02-1.66-.24-4.41-.38-6.43-4.66-.93-2.44,2.02-2.98,5.08.99.53,4.88,6.32,5.96,5.06Z"/>
  <path d="M157.75,789.74c1.33.53.16-3.58,1.58-3.48,2.84.18,4.16,5.33,3.63-3.26l-4.47,1.68c2.59-4.71-1.02-1.78-1.2-2.07-4.14-6.36.36-4.96,1.21-9.74-8.35-4.5-7.11,14.34-.74,16.87Z"/>
  <path d="M124.16,978.76c-1.86,6.7-1.97,14.06-1.5,21.08.13,1.98.61,9.04,2.97,9.28-1.08-8.77-.28-15.96.09-24.41.08-1.82.91-6.42-1.55-5.95Z"/>
  <path d="M206.03,757.6c.58,1.1,1.52-1.34.71,2.56-.17.81,3.07,2.56,3.27,2.56,2.88.02,2.36-7.23.35-9.65-3.69-4.44-8.1-2.65-4.32,4.53Z"/>
  <path d="M200.28,762.75c-.08-4.26,1.23-10.24-2.96-11.81l-.03,5.06-4.45-3.37c-1.28,12.96,1.37,4.74,7.44,10.12Z"/>
  <path d="M145.06,988.88v13.51s4.38-.03,4.38-.03c1.19-6.75,1.74-10.13-4.38-13.49Z"/>
  <path d="M133.86,791.41l.73-13.46c-8.67,1.61-5.86,8.82-.73,13.46Z"/>
  <path d="M134.59,722.23l4.48,1.7c-2.31-9.03-.13-5.31,1.18-7.01l-2.64-13.24-3.01,18.54Z"/>
  <path d="M125.63,794.81c-.24-4.33,1.28-12.89-2.96-15.18.48,4.79-2.02,12.68,2.96,15.18Z"/>
  <path d="M280.92,666.57c-.21-.24-5.75-.24-5.96,0-.21.24-.21,6.49,0,6.74,1.4,1.63,8.95-3.39,5.96-6.74Z"/>
  <path d="M133.09,750.94l.03,10.12,1.47-13.49-7.32,7.76c.23,6.82,3.61-5.63,5.82-4.4Z"/>
  <path d="M174.92,710.43c.4.39,5.74-1.48,5.92-1.76.51-.8-.48-8.71-2.93-8.35-.15,2.01.66,4.79-.37,6.44-.12.19-5.55.82-2.62,3.68Z"/>
  <path d="M136.21,870.25l2.86-12.99c-5.56-1.15-2.26,9.22-2.86,12.99Z"/>
  <path d="M136.21,870.25l-.11.49c.05-.15.08-.31.11-.49Z"/>
  <path d="M251.06,691.88c-2.28-.27-2.62-1.59-2.5,1.65.14,3.94.88,7.87,1.03,11.84l1.47-13.49Z"/>
  <path d="M167.58,711.82c-.43.41.76,2.79-2.36,2-1.76-.45.54-3.99-2.24-3.38l1.5,6.74c3.35,2.77,12.89-14.63,3.11-5.36Z"/>
  <path d="M131.62,945c3.96-1.91,4.76-7.48,4.45-11.8-2.85,1.43-3.8,8.65-4.45,11.8Z"/>
  <path d="M192.84,774.56c7.14-4.63,2.5,2.56,7.44,5.06-.05-1.51-1.35-7.85-1.69-8.19-.91-.91-7.41-1.67-5.75,3.13Z"/>
  <path d="M139.16,909.45c-.64-.59,1.09-3.93-1.56-3.25l-1.51,5.04,7.46,1.7c1.48-9.01-3.56-2.71-4.39-3.49Z"/>
  <path d="M180.77,782.09c.01.32.04.62.1.9l-.1-.9Z"/>
  <path d="M179.41,769.51l1.37,12.58c-.18-4.04,2.73-10.94-1.37-12.58Z"/>
  <path d="M145.81,884.22l-.76-10.08c-6.2-1.22-1.61,8,.76,10.08Z"/>
  <path d="M137.57,782.99l-.73-10.11c-3.3,2.4-.25,6.16-.74,10.11h1.47Z"/>
  <path d="M207.03,735.72c.78.35-1.65-4.79,2.21-3.37-5.56-7.6-8.92.32-2.21,3.37Z"/>
  <polygon points="121.17 975.37 122.64 975.36 124.14 968.63 121.17 968.63 121.17 975.37"/>
  <polygon points="143.55 914.64 137.59 912.94 137.59 916.3 143.55 916.3 143.55 914.64"/>
  <path d="M195.83,735.76v8.42h1.46c.97-3.14.97-5.28,0-8.42h-1.46Z"/>
  <path d="M233.16,705.39c-.91,3.93-3.23,8.23,1.47,10.11-.57-2.3-.6-4.47-.78-6.79-.1-1.35,2.3-3.75-.68-3.32Z"/>
  <path d="M137.6,894.38c-1.35,1.91.57,7.73,2.97,5.05,1.25-1.4-2.3-6.01-2.97-5.05Z"/>
  <polygon points="133.11 739.12 136.09 739.11 134.58 732.38 133.12 732.38 133.11 739.12"/>
  <path d="M198.8,729.01c2.35,10.22,4.44,1.63,2.98,0-.21-.24-2.04.09-2.98,0Z"/>
  <polygon points="130.1 955.13 128.64 955.13 127.16 961.05 131.61 960.17 130.1 955.13"/>
  <polygon points="212.23 771.2 210.76 771.19 212.26 781.3 213.72 781.3 212.23 771.2"/>
  <polygon points="291.4 775.41 294.35 777.94 293.62 772.88 291.4 775.41"/>
  <polygon points="118.16 648 117.43 642.94 115.21 645.47 118.16 648"/>
  <path d="M242.25,701.79c-.08-.03-.75-7.38-1.52-.79l3.62,6.04c1.63-10.94-.54-4.64-2.1-5.25Z"/>
  <path d="M139.07,791.44l-.72-6.72c-4.72,2.54-.01,7.75.72,6.72Z"/>
  <polygon points="138.34 884.26 136.12 886.78 139.06 889.31 138.34 884.26"/>
  <rect x="230.17" y="678.38" width="1.47" height="6.74"/>
  <rect x="273.47" y="678.39" width="4.47" height="1.66"/>
  <polygon points="216.71 678.38 213.74 680.91 216.71 681.74 216.71 678.38"/>
  <rect x="231.67" y="686.82" width="1.47" height="5.05"/>
  <rect x="133.12" y="696.94" width="1.47" height="5.05"/>
  <rect x="210.76" y="702.01" width="1.47" height="5.05"/>
  <rect x="237.64" y="702.01" width="1.47" height="5.05"/>
  <polygon points="125.67 773.73 126.37 774.53 130.12 769.51 127.14 769.51 125.67 773.73"/>
  <polygon points="251.07 771.18 254.05 771.17 251.08 767.81 251.07 771.18"/>
  <rect x="136.1" y="946.69" width="1.47" height="5.05"/>
  <path d="M165.97,718.88v3.37c2.19.54,3.11-.72,4.44-2.54l-4.44-.83Z"/>
  <polygon points="215.23 757.68 218.21 757.67 215.24 754.31 215.23 757.68"/>
  <polygon points="140.56 729 137.59 731.54 140.56 732.37 140.56 729"/>
  <polygon points="237.63 743.35 240.6 744.18 240.6 740.81 237.63 743.35"/>
  <path d="M206.28,745.87h1.47c1.01-3.11-1.67-8.41-4.46-6.73-1.25.76,5.06,2.46,2.99,6.73Z"/>
  <rect x="149.54" y="982.13" width="1.47" height="3.36"/>
  <path d="M124.91,661.53c-1.61,1.51-2.73,2.55-2.24,5.03h1.47l.77-5.03Z"/>
  <rect x="245.1" y="676.7" width="1.47" height="3.36"/>
  <rect x="257.05" y="678.38" width="1.47" height="3.36"/>
  <rect x="207.78" y="681.76" width="1.47" height="3.36"/>
  <polygon points="151.01 921.39 149.54 921.38 151.04 928.11 152.5 928.12 151.01 921.39"/>
  <rect x="157.01" y="693.57" width="1.47" height="3.36"/>
  <rect x="266" y="715.52" width="2.97" height="1.66"/>
  <path d="M213,732.35l-.77-5.03h-1.47c-.49,2.48.63,3.52,2.24,5.03Z"/>
  <rect x="201.8" y="786.38" width="1.47" height="3.36"/>
  <rect x="216.73" y="779.63" width="1.47" height="3.36"/>
  <rect x="189.86" y="777.95" width="1.47" height="3.36"/>
  <rect x="225.69" y="769.51" width="1.47" height="3.36"/>
  <rect x="215.24" y="769.51" width="1.47" height="3.36"/>
  <path d="M188.36,767.82c-.49,2.48.63,3.52,2.24,5.03l-.77-5.03h-1.47Z"/>
  <rect x="167.46" y="767.82" width="1.47" height="3.36"/>
  <rect x="215.24" y="761.07" width="1.47" height="3.36"/>
  <rect x="216.73" y="740.82" width="1.47" height="3.36"/>
  <rect x="197.32" y="745.88" width="1.47" height="3.36"/>
  <rect x="254.06" y="744.2" width="1.47" height="3.36"/>
  <path d="M304.07,744.19c.97-.56.97-1.12,0-1.69v1.69Z"/>
  <path d="M217.47,747.56c.97-.56.97-1.12,0-1.69v1.69Z"/>
  <path d="M211.49,742.5v1.69c.97-.56.97-1.12,0-1.69Z"/>
  <path d="M212.99,747.56v1.69c.97-.56.97-1.12,0-1.69Z"/>
  <path d="M139.82,737.44c.97-.56.97-1.12,0-1.69v1.69Z"/>
  <polygon points="139.05 768.64 138.34 767.84 136.12 770.36 136.82 771.16 139.05 768.64"/>
  <path d="M268.23,734.06c.97-.56.97-1.12,0-1.69v1.69Z"/>
  <path d="M169.69,781.31v1.69c.97-.56.97-1.12,0-1.69Z"/>
  <path d="M212.99,784.69c.97-.56.97-1.12,0-1.69v1.69Z"/>
  <path d="M223.44,783v1.69c.97-.56.97-1.12,0-1.69Z"/>
  <path d="M217.47,786.37c.97-.56.97-1.12,0-1.69v1.69Z"/>
  <path d="M133.85,730.69c.97-.56.97-1.12,0-1.69v1.69Z"/>
  <path d="M304.07,725.62v1.69c.97-.56.97-1.12,0-1.69Z"/>
  <path d="M201.04,725.62v1.69c.97-.56.97-1.12,0-1.69Z"/>
  <path d="M135.34,727.31c.97-.56.97-1.12,0-1.69v1.69Z"/>
  <path d="M169.69,723.94v1.69c.97-.56.97-1.12,0-1.69Z"/>
  <path d="M205.52,722.25v1.69c.97-.56.97-1.12,0-1.69Z"/>
  <path d="M272.71,720.56c.97-.56.97-1.12,0-1.69v1.69Z"/>
  <path d="M217.47,717.19v1.69c.97-.56.97-1.12,0-1.69Z"/>
  <path d="M123.4,843.75c.97-.56.97-1.12,0-1.69v1.69Z"/>
  <path d="M272.71,713.81v1.69c.97-.56.97-1.12,0-1.69Z"/>
  <path d="M220.45,713.81v1.69c.97-.56.97-1.12,0-1.69Z"/>
  <polygon points="184.61 715.47 186.83 712.95 186.12 712.15 183.9 714.67 184.61 715.47"/>
  <path d="M218.96,710.44v1.69c.97-.56.97-1.12,0-1.69Z"/>
  <polygon points="129.36 705.4 128.65 706.2 130.88 708.72 131.59 707.92 129.36 705.4"/>
  <polygon points="296.59 705.35 298.82 702.83 298.11 702.03 295.88 704.55 296.59 705.35"/>
  <path d="M298.1,695.25v1.69c.97-.56.97-1.12,0-1.69Z"/>
  <path d="M215.97,693.56c.97-.56.97-1.12,0-1.69v1.69Z"/>
  <path d="M208.51,690.19c.97-.56.97-1.12,0-1.69v1.69Z"/>
  <polygon points="271.99 685.95 274.22 688.47 274.93 687.67 272.7 685.15 271.99 685.95"/>
  <path d="M245.84,688.5c.97-.56.97-1.12,0-1.69v1.69Z"/>
  <path d="M259.27,685.12v1.69c.97-.56.97-1.12,0-1.69Z"/>
  <path d="M130.87,924.75v1.69c.97-.56.97-1.12,0-1.69Z"/>
  <path d="M139.82,926.44c.97-.56.97-1.12,0-1.69v1.69Z"/>
  <path d="M156.25,929.81v1.69c.97-.56.97-1.12,0-1.69Z"/>
  <path d="M208.51,675v1.69c.97-.56.97-1.12,0-1.69Z"/>
  <path d="M120.41,945v1.69c.97-.56.97-1.12,0-1.69Z"/>
  <path d="M202.54,673.31v1.69c.97-.56.97-1.12,0-1.69Z"/>
  <path d="M117.43,671.62v1.69c.97-.56.97-1.12,0-1.69Z"/>
  <path d="M123.4,671.62c.97-.56.97-1.12,0-1.69v1.69Z"/>
  <path d="M151.77,972v1.69c.97-.56.97-1.12,0-1.69Z"/>
  <path d="M196.56,1010.81v1.69c.97-.56.97-1.12,0-1.69Z"/>
  <polygon points="271.99 630.27 274.22 632.78 274.93 631.98 272.7 629.47 271.99 630.27"/>
</svg>