<?xml version="1.0" encoding="UTF-8"?>
<svg id="Layer_1" xmlns="http://www.w3.org/2000/svg" version="1.1" viewBox="0 0 1920 1080">
  <!-- Generator: Adobe Illustrator 29.5.1, SVG Export Plug-In . SVG Version: 2.1.0 Build 141)  -->
  <defs>
    <style>
      .st0 {
        fill: #fff;
      }
    </style>
  </defs>
  <g id="doaL8L.tif">
    <g>
      <path class="st0" d="M422.95,156.21c5.26.67,13.88-2.06,17.6,2.42,4.29,5.17,11.19,35.08,12.65,36.24,2.95.65,3.12-.84,4.37-2.92,3.02-5,10.24-34.5,11.74-35.51,5.99.2,14.41-2.4,18.87,2.29v52.96h-12.73v-36.99c-4.53-.83-2.61,1.14-3.59,3.7-4.1,10.75-6.49,22.32-9.91,33.32l-13.73.66c-4.76-11.95-5.99-28.06-14.14-37.67v38.67l-11.14-1.68v-55.48h.01Z"/>
      <path class="st0" d="M286.14,158.73c1.15-3.96,10.91-2.26,14.32-2.53l1.48,22.81,20.09-.84.69-21.97c4.8.47,10.94-1.85,14.32,2.53v54.64l-14.23-1.76-.08-21.77h-22.27v23.54h-14.32v-54.64h0Z"/>
      <path class="st0" d="M396.99,209.48c-11.36,13.99-39.51,8.69-42.31-12.23-2.9-21.71,1.96-45.81,27.55-42.59,22.9,2.88,26.8,40,14.76,54.82h0Z"/>
      <path d="M370.92,204.49c16.52,21.64,27.55-34.38,11.12-39.54-17.3-5.43-17.67,30.96-11.12,39.54h0Z"/>
      <polygon class="st0" points="551.81 156.21 549.42 166.29 521.58 166.29 521.58 179.74 551.81 179.74 549.42 189.83 521.58 189.83 523.07 204.23 551.82 203.27 551.81 213.37 509.65 213.37 507.27 210.85 507.27 156.21 551.81 156.21"/>
      <path class="st0" d="M268.63,198.24v5.03h-4.76c-.51-3.18,1.86-5.58,4.76-5.03Z"/>
      <rect class="st0" x="302.04" y="144.39" width="5.87" height="3.84"/>
      <path class="st0" d="M331.94,145.34c2-1.25,3.99-1.25,5.99,0h-5.99Z"/>
      <path class="st0" d="M272.03,145.34c2-1.25,3.99-1.25,5.99,0h-5.99Z"/>
    </g>
  </g>
</svg>