<?xml version="1.0" encoding="UTF-8"?>
<svg id="Layer_1" xmlns="http://www.w3.org/2000/svg" version="1.1" viewBox="0 0 1920 1080">
  <!-- Generator: Adobe Illustrator 29.5.1, SVG Export Plug-In . SVG Version: 2.1.0 Build 141)  -->
  <path d="M44.71,199.28c3.61-2.45-.02-5.48,0-5.92l-3.12,3.37c1.11,1.89,1.34,3.76,3.12,2.55Z"/>
  <path d="M40.32,195.53c.14.68,1.01.77,1.26,1.2-.1-1.09.2-2.43,0-3.37-.54.22-1.37,1.46-1.26,2.17Z"/>
  <path d="M44.71,193.36c.6-11.97,2.81-25.52-.8-37.12l-3.01,10.98-.62,17.55,2.89,1c-4.31.85-2.61,2.84-1.58,7.59.67-.28,2.14.15,3.12,0Z"/>
  <path d="M-6.03,186.65c-4.78-.23.08,16.79.24,17.89.5,3.38-3.71,8.51,2.09,7.36-.56-3.94,1.74-25.06-2.33-25.26Z"/>
  <path d="M41.58,81.17c-.65,5.5.45,12.07.02,17.73,2.15.41,2.34-2.99,2.68-4.64.51-2.45,1.82-14.23.41-15.59-2.34-2.26-2.83.12-3.11,2.49Z"/>
  <path d="M32.21,105.66c-.26-3.47.76-6.89.62-10.34-.07-1.72.2-6.98-2.16-6.52-2.16,3.23.17,7.24-.05,9.09-.07.6-8.06,5.15,1.58,7.76Z"/>
  <path d="M-4.48,177.1c.21.43.46.79.79,1.06l-.79-1.06Z"/>
  <path d="M-6.8,173.98l2.32,3.12c-2.25-4.62,1.74-17.36-1.55-17.44-3.58-.09.56,12.3-.77,14.32Z"/>
  <path d="M46.29,41.56l3.09,18.54c-.81-5.65,2.58-15.25-3.09-18.54Z"/>
  <polygon points="44.7 66.87 40.06 74.28 43.94 76.95 44.7 66.87"/>
  <path d="M113.39,141.07c-.86-3.33,2.01-11.99-1.53-13.48.86,3.33-2.01,11.99,1.53,13.48Z"/>
  <path d="M-6.02,122.53c-2.64,1.9-.71,5.29-2.35,8.41h3.11s-.76-8.41-.76-8.41Z"/>
  <path d="M46.27,129.29c-.16-.21-3.49-.58-4.67-1.71v5.05s4.66,0,4.66,0c-.1-1.04.25-3.03,0-3.34Z"/>
  <path d="M46.26,142.76v-5.05s-4.66,0-4.66,0c-1.01,4.11,1.66,3.3,4.66,5.05Z"/>
  <path d="M48.61,29.76c.67,10.74-6.75,3.07-5.44,11.8,4.41-1.01,9.57-6.5,5.44-11.8Z"/>
  <polygon points="-6.8 151.19 -3.69 151.18 -5.27 144.46 -6.8 144.46 -6.8 151.19"/>
  <path d="M69.69,58.44c-5-1.49-4.01,5.52-.76,8.38l.76-8.38Z"/>
  <polygon points="31.44 164.72 29.13 167.22 31.44 169.71 33.75 167.22 31.44 164.72"/>
  <path d="M61.85,186.58c-.15.24-.83-.72-3.09,3.4h3.11s0,5.06,0,5.06c-2.27-.57-3.56-2.73-3.11-5.06-2.44,4.44-4.98,7.11-2.37,13.52,4.78,3.25-.15-2.42.81-3.39.35-.35,5.37,2.9,7.71-2.75-1.87-12.72-.1-25.68-1.58-38.5-.43-3.77-3.58-6.43-1.47-11.04-5,1.29-.86,6.33-2.22,8.49-.94,1.49-4.01,1.4-4.01,1.63v30.36c2.11-2.78,9.99-7.56,6.22-1.72ZM61.88,179.85h-3.11v-1.65h3.11v1.65ZM60.34,164.7h1.53v3.36h-1.53v-3.36ZM61.87,169.75v3.36s-3.1-.83-3.1-.83l3.1-2.54Z"/>
  <polygon points="43.93 144.48 41.6 146.99 46.27 147.8 43.93 144.48"/>
  <path d="M32.21,173.13c-1.7-1.84-4.81,1.52-3.11,3.36s4.81-1.52,3.11-3.36Z"/>
  <path d="M69.68,95.54c-1.7-1.84-4.81,1.52-3.11,3.36,1.7,1.84,4.81-1.52,3.11-3.36Z"/>
  <polygon points="15.82 53.37 15.06 58.43 18.14 55.9 15.82 53.37"/>
  <rect x="68.14" y="114.1" width="1.53" height="5.04"/>
  <polygon points="32.21 179.88 29.11 180.7 32.2 183.24 32.21 179.88"/>
  <rect x="29.11" y="205.18" width="1.53" height="5.04"/>
  <polygon points="44.69 208.54 41.59 211.08 44.7 211.91 44.69 208.54"/>
  <rect x="-6.8" y="136.02" width="1.53" height="5.04"/>
  <rect x="15.06" y="43.25" width="1.53" height="5.04"/>
  <polygon points="66.58 82.04 66.58 85.4 69.69 85.4 66.58 82.04"/>
  <rect x="66.57" y="78.68" width="4.67" height="1.65"/>
  <polygon points="44.69 152.88 44.7 149.52 41.59 150.34 44.69 152.88"/>
  <rect x="41.6" y="117.48" width="4.67" height="1.65"/>
  <rect x="61.9" y="127.59" width="1.53" height="3.36"/>
  <rect x="60.33" y="124.22" width="3.11" height="1.65"/>
  <rect x="41.6" y="112.42" width="3.11" height="1.65"/>
  <rect x="-5.24" y="112.42" width="3.11" height="1.65"/>
  <rect x="-5.23" y="105.66" width="1.53" height="3.36"/>
  <rect x="68.14" y="103.98" width="1.53" height="3.36"/>
  <rect x="41.6" y="102.3" width="3.11" height="1.65"/>
  <rect x="49.4" y="97.24" width="3.11" height="1.65"/>
  <path d="M46.26,205.15c-.08-.54.22-1.43,0-1.65-.24-.24-5.7-1.95-6.22-1.69-.43,2.45,3.85,2.91,6.22,3.34Z"/>
  <rect x="21.3" y="208.56" width="3.11" height="1.65"/>
  <rect x="13.49" y="87.12" width="3.11" height="1.65"/>
  <rect x="66.58" y="73.62" width="1.53" height="3.36"/>
  <rect x="65.01" y="70.25" width="3.11" height="1.65"/>
  <rect x="13.49" y="68.56" width="3.11" height="1.65"/>
  <rect x="47.85" y="66.87" width="1.53" height="3.36"/>
  <rect x="47.85" y="61.81" width="1.53" height="3.36"/>
  <rect x="15.06" y="61.81" width="1.53" height="3.36"/>
  <rect x="66.58" y="50" width="1.53" height="3.36"/>
  <rect x="54.09" y="48.31" width="1.53" height="3.36"/>
  <rect x="43.16" y="44.94" width="1.53" height="3.36"/>
  <rect x="54.09" y="36.51" width="1.53" height="3.36"/>
  <rect x="15.06" y="36.51" width="1.53" height="3.36"/>
  <path d="M57.98,210.23c1.01-.56,1.01-1.12,0-1.69v1.69Z"/>
  <path d="M3.34,206.85v1.69c1.01-.56,1.01-1.12,0-1.69Z"/>
  <path d="M14.27,201.79c1.01-.56,1.01-1.12,0-1.69v1.69Z"/>
  <path d="M93.89,174.81v1.69c1.01-.56,1.01-1.12,0-1.69Z"/>
  <path d="M93.89,168.06v1.69c1.01-.56,1.01-1.12,0-1.69Z"/>
  <path d="M112.62,149.51v1.69c1.01-.56,1.01-1.12,0-1.69Z"/>
  <path d="M29.88,142.76v1.69c1.01-.56,1.01-1.12,0-1.69Z"/>
  <path d="M48.61,112.4v1.69c1.01-.56,1.01-1.12,0-1.69Z"/>
  <path d="M56.42,97.22v1.69c1.01-.56,1.01-1.12,0-1.69Z"/>
  <path d="M56.42,92.16v1.69c1.01-.56,1.01-1.12,0-1.69Z"/>
  <path d="M68.91,92.16c1.01-.56,1.01-1.12,0-1.69v1.69Z"/>
  <path d="M48.61,83.73v1.69c1.01-.56,1.01-1.12,0-1.69Z"/>
  <path d="M9.58,83.73v1.69c1.01-.56,1.01-1.12,0-1.69Z"/>
  <path d="M48.61,78.67v1.69c1.01-.56,1.01-1.12,0-1.69Z"/>
  <path d="M15.83,78.67v1.69c1.01-.56,1.01-1.12,0-1.69Z"/>
  <path d="M15.83,75.29v1.69c1.01-.56,1.01-1.12,0-1.69Z"/>
  <path d="M11.14,75.29v1.69c1.01-.56,1.01-1.12,0-1.69Z"/>
  <path d="M104.82,66.86v1.69c1.01-.56,1.01-1.12,0-1.69Z"/>
  <path d="M37.68,56.74v1.69c1.01-.56,1.01-1.12,0-1.69Z"/>
  <path d="M43.93,51.68c1.01-.56,1.01-1.12,0-1.69v1.69Z"/>
  <path d="M81.4,46.62v1.69c1.01-.56,1.01-1.12,0-1.69Z"/>
  <path d="M67.35,44.93v1.69c1.01-.56,1.01-1.12,0-1.69Z"/>
</svg>