<?xml version="1.0" encoding="UTF-8"?>
<svg id="Layer_1" xmlns="http://www.w3.org/2000/svg" version="1.1" viewBox="0 0 1920 1080">
  <!-- Generator: Adobe Illustrator 29.5.1, SVG Export Plug-In . SVG Version: 2.1.0 Build 141)  -->
  <path d="M-9.93,1013.09v3.37c6.06,4.29,6.1-7.65,0-3.37Z"/>
  <path d="M21.28,800.57l.11-17.64c-6.66-.92-7.67-6.01-.11-2.6l-4.68-5.92,4.68-.83c-.55-5.07,2.38-11.14-3.1-12.64l3.16-5.07c-5.74-.97.22-4.27-.08-10.13l-4.64.86c-2.59,4.74.98,1.06,3.09,4.22-7.26,3.85-2.94,3.35-3.09,6.58-.06,1.33-2.57.75-2.82,1.82-.32,1.36.32,25.35.7,28.05.64,4.64-.04,5.54,5.23,4.9l-3.11,2.5,4.66,5.91ZM17.39,763.46c1.01.56,1.01,1.12,0,1.69v-1.69ZM17.39,787.08v-1.69c1.01.56,1.01,1.12,0,1.69Z"/>
  <polygon points="13.49 745.76 16.61 746.59 16.6 743.22 13.49 745.76"/>
  <path d="M35.33,761.8c-9.29-.73-8.28-9.37,0-1.71l-2.33-10.11.79,5.04-7.8-3.35v15.14c9.38-1.94.51,8.86,7.8,10.98-5.38,2.73-5.3,4.61-4.7,10.96l-3.09-5.04v11.8c3.4-.61,1.42-3.87,3.12-5.8,3.28-3.73,12.1-6.15,7.86-13.23-1.82-3.03-4.75-5.4-6.28-10.52-1.44-4.82,4.53-.3,4.64-4.16Z"/>
  <path d="M58.78,943.91c-.78-2.81,2.73-.61,3.17-2.76.07-.36.21-7.11-.07-7.32-3.13-2.29-2.82,4.54-6.21,2.5,2.1,1.46,3.42,11.28,3.18,13.32-.13,1.14-3.26,1.15-3.24,1.84.17,4.17,4.66,5.13,7.82,4.24-.86-3.87.05-12.42-4.66-11.82Z"/>
  <path d="M-2.18,807.24c.5-.74-2.09-2.66-2.5-4.42-.87-3.71.21-8.58.24-12.34-4.03,2.67-3.39,27.7-2.34,28.64,5.11-1.23,1.11-8.47,1.53-10.82.25-1.42,2.92-.82,3.08-1.06Z"/>
  <path d="M30.65,841.04c1.75-5.7-4.58-11.74-4.67-14.28-.11-2.95,3.11-6.22,3.09-6.8-.04-1-3.23-3.38-4.65-2.5-.72.44.29,16.92.63,17.82.15.39,4.42,5.22,5.6,5.76Z"/>
  <path d="M85.29,657.19v-3.36s-4.67.84-4.67.84c1.42,1.79,2.37,3.08,4.67,2.53Z"/>
  <path d="M-6.79,741.53c6.6-4.12,2.92-12.37,3.1-18.56-3.1,0-3.13-.98-2.9,2.37.42,6.17-1.61,10.2-.2,16.19Z"/>
  <path d="M75.93,949h-7.79c-3.98,8.8,10.67,11.75,7.79,0Z"/>
  <path d="M-4.47,717.89c3.16-.06,1.68-12.47.76-13.46-4.45-4.75-4.18,13.53-.76,13.46Z"/>
  <path d="M-3.69,825.87c-.54-2.08-.38-4.61-3.1-5.06-1.08,1.9-2.34,15.84,1.55,12.67,1.92-1.55,1.27-3.86,1.56-5.93-1.45.71-1.45-2.4,0-1.69Z"/>
  <path d="M-3.66,825.96c.04.27.04,1.06,0,1.41.15-.71.41.18,0-1.41Z"/>
  <path d="M-3.66,827.37c-.01.05-.02.11-.03.18.01,0,.02-.08.03-.18Z"/>
  <path d="M-3.69,825.87s.02.06.02.09c0-.05-.01-.09-.02-.09Z"/>
  <path d="M-6.59,770.86c2.22,1.26-3.35,9.58.56,9.43,3.62-.13,1.05-12.51,2.33-15.15l-2.89,5.71Z"/>
  <path d="M46.29,873.1c3.02,7.61-1.7,5.23-1.56,11.81,1.14-1.18,5.89-3.26,6.09-3.57.97-1.47-2.25-7.97-4.53-8.24Z"/>
  <path d="M41.6,932.14c.88,4.81.64,8.06.19,12.78-.33,3.38-.05,2.43,2.91,2.39-.25-4.31,1.32-12.89-3.1-15.16Z"/>
  <path d="M68.16,961.65c-.04,4.04,12.08,6.85,7.62-.66-.9-1.51-7.59-2.38-7.62.66Z"/>
  <path d="M-3.7,755.04c-5.36-1.29-3.46,6.94-3.91,10.08l3.91-10.08Z"/>
  <path d="M38.48,748.29c1.17,3.63-.99,11.76,3.09,13.48-.13-3.75.98-11.76-3.09-13.48Z"/>
  <polygon points="80.63 963.31 86.85 965.86 86.86 960.81 80.63 960.81 80.63 963.31"/>
  <path d="M-5.27,856.22c.54-4.4,2.83-8.56-3.1-8.42l1.57,8.41h1.52Z"/>
  <path d="M4.88,893.35c-4.55-1.75-2.03,7.04,3.92,5.03-.35-1.44-3.01-4.68-3.92-5.03Z"/>
  <path d="M30.65,869.73c-1.11-1.05-6.21.82-6.21,2.52,0,4.18,9.35.46,6.21-2.52Z"/>
  <path d="M-3.7,874.78c.9-10.92-6.3-9.13-3.91-3.33.39.95,2.68,3.09,3.91,3.33Z"/>
  <path d="M68.16,943.09c0,3.52,9.64,3.44,6.2-.83-.88-1.09-6.2-1.77-6.2.83Z"/>
  <path d="M53.3,743.22c1.4.46.38-2.19,1.12-2.75.44-.33,3.73,2.26,2.01-.62l-5.47-3.37c-.42,2.26.18,6.02,2.34,6.73Z"/>
  <path d="M29.08,802.26h-4.65c-1.95,9.65,6.53,3.28,4.65,0Z"/>
  <path d="M54.87,1073.8l.76-6.73h-3.11c-.38,3.11-.06,4.91,2.34,6.73Z"/>
  <rect x="82.19" y="942.26" width="4.67" height="3.36"/>
  <path d="M26.77,677.41l-.81-11.76h-1.53c.02,4.08-1.1,9,2.34,11.76Z"/>
  <path d="M7.24,881.55c.99,3.88,4.95,3.58,7.8,3.34v-1.65s-7.8-1.69-7.8-1.69Z"/>
  <path d="M33.75,690.11l-7.77-5.9c-.63.66,2.75,3.5,3.12,5.04,1.54.35,3.51,1.61,4.65.86Z"/>
  <path d="M29.1,689.25c-1.44-.33-4.52-1.9-4.67-1.69-2.14,3.05,6.38,8.83,4.67,1.69Z"/>
  <polygon points="4.14 783.73 1.03 786.22 5.66 792.13 4.14 783.73"/>
  <path d="M43.94,955.74l.76-5.04h-3.11c-.51,2.49.69,3.51,2.34,5.04Z"/>
  <path d="M24.42,942.26v5.05c2.27-.57,3.59-2.72,3.11-5.05h-3.11Z"/>
  <polygon points="79.07 857.1 79.06 859.59 85.29 859.59 85.29 857.93 80.68 857.79 81.41 854.58 79.07 857.1"/>
  <path d="M26.76,663.94l.76-5.04h-3.11c-.51,2.49.69,3.51,2.34,5.04Z"/>
  <path d="M47.06,748.27l.76-5.04h-3.11c-.51,2.49.69,3.51,2.34,5.04Z"/>
  <rect x="15.06" y="797.2" width="1.53" height="6.73"/>
  <rect x="40.04" y="701.06" width="1.53" height="6.73"/>
  <polygon points="47.85 1072.12 49.37 1072.11 50.95 1067.08 47.84 1067.07 47.85 1072.12"/>
  <polygon points="25.96 932.14 24.43 932.14 22.85 937.17 25.97 937.18 25.96 932.14"/>
  <rect x="25.99" y="809.01" width="1.53" height="6.73"/>
  <polygon points="18.95 743.19 21.29 739.86 16.62 740.68 18.95 743.19"/>
  <polygon points="25.19 950.69 24.43 955.74 27.5 953.21 25.19 950.69"/>
  <path d="M30.67,954.05c1.7,1.84,4.81-1.52,3.11-3.36-1.7-1.84-4.81,1.52-3.11,3.36Z"/>
  <rect x="77.51" y="832.62" width="1.53" height="6.73"/>
  <rect x="82.2" y="729.74" width="1.53" height="5.04"/>
  <polygon points="4.13 775.27 4.13 778.63 7.24 778.62 4.13 775.27"/>
  <rect x="-5.24" y="889.98" width="4.67" height="1.65"/>
  <polygon points="-8.36 836.82 -5.27 839.36 -5.26 836 -8.36 836.82"/>
  <polygon points="-5.23 753.33 -3.7 753.33 -3.69 746.61 -6.8 746.6 -5.23 753.33"/>
  <polygon points="4.88 768.56 4.15 769.35 5.69 773.57 8.8 773.56 4.88 768.56"/>
  <polygon points="24.43 886.59 24.42 889.95 27.54 889.95 24.43 886.59"/>
  <polygon points="27.52 697.68 27.53 694.32 24.42 695.14 27.52 697.68"/>
  <polygon points="22.84 1008.03 22.84 1004.67 19.74 1005.49 22.84 1008.03"/>
  <path d="M33,873.13c-1.29-.08-5.67,2.76-3.89,5.02.32.41,10.11-4.66,3.89-5.02Z"/>
  <polygon points="27.53 797.2 24.42 798.03 27.52 800.57 27.53 797.2"/>
  <rect x="58.78" y="1068.76" width="1.53" height="3.36"/>
  <path d="M30.65,852.88c-.23-.26-5.15-2.65-6.2-2.57.6,3.54,8.59,5.21,6.2,2.57Z"/>
  <rect x="47.85" y="648.78" width="1.53" height="3.36"/>
  <rect x="-.55" y="874.79" width="1.53" height="3.36"/>
  <rect x="4.13" y="878.16" width="1.53" height="3.36"/>
  <rect x="36.92" y="879.85" width="1.53" height="3.36"/>
  <path d="M47.86,885.76l4.64-.88v-1.65c-2.29-.56-3.26.71-4.64,2.53Z"/>
  <rect x="-8.36" y="886.6" width="1.53" height="3.36"/>
  <rect x="29.11" y="886.6" width="1.53" height="3.36"/>
  <rect x="19.74" y="1001.3" width="3.11" height="1.65"/>
  <rect x="29.11" y="896.72" width="1.53" height="3.36"/>
  <rect x="55.65" y="667.33" width="1.53" height="3.36"/>
  <rect x="7.25" y="830.95" width="3.11" height="1.65"/>
  <rect x="35.35" y="675.77" width="3.11" height="1.65"/>
  <rect x="7.25" y="820.83" width="3.11" height="1.65"/>
  <polygon points="36.11 1083.9 38.46 1079.74 36.11 1077.22 36.11 1083.9"/>
  <rect x="63.46" y="677.45" width="1.53" height="3.36"/>
  <path d="M52.53,1078.88c-.51,2.47.66,3.52,2.34,5.02l-.81-5.02h-1.53Z"/>
  <rect x="82.2" y="817.44" width="1.53" height="3.36"/>
  <rect x="24.43" y="916.96" width="1.53" height="3.36"/>
  <rect x="1.01" y="684.2" width="1.53" height="3.36"/>
  <rect x="4.13" y="923.71" width="3.11" height="1.65"/>
  <rect x="35.36" y="697.69" width="1.53" height="3.36"/>
  <rect x="85.32" y="800.58" width="1.53" height="3.36"/>
  <rect x="16.62" y="704.44" width="1.53" height="3.36"/>
  <rect x="4.13" y="793.83" width="1.53" height="3.36"/>
  <rect x="30.67" y="1004.67" width="3.11" height="1.65"/>
  <rect x="38.47" y="1092.38" width="3.11" height="1.65"/>
  <rect x="35.36" y="950.69" width="1.53" height="3.36"/>
  <rect x="-5.23" y="782.02" width="1.53" height="3.36"/>
  <path d="M57.22,776.97c-.24.25-2.45,5.56-2.38,6.7,3.27-.65,4.82-9.28,2.38-6.7Z"/>
  <rect x="13.5" y="738.17" width="1.53" height="3.36"/>
  <rect x="-8.36" y="986.11" width="1.53" height="3.36"/>
  <rect x="40.04" y="1099.12" width="1.53" height="3.36"/>
  <rect x="29.11" y="741.54" width="1.53" height="3.36"/>
  <path d="M57.18,761.76c.24-.25,2.45-5.56,2.38-6.7-3.27.65-4.82,9.28-2.38,6.7Z"/>
  <path d="M47.05,760.09v1.69c1.01-.56,1.01-1.12,0-1.69Z"/>
  <path d="M6.46,758.4v1.69c1.01-.56,1.01-1.12,0-1.69Z"/>
  <path d="M40.81,765.15c1.01-.56,1.01-1.12,0-1.69v1.69Z"/>
  <path d="M43.93,765.15c1.01-.56,1.01-1.12,0-1.69v1.69Z"/>
  <path d="M9.6,753.31c1.55-1.11-.73-2.23-1.59-3.31-1.54,1.17.84,2.32,1.59,3.31Z"/>
  <path d="M.21,746.59v1.69c1.01-.56,1.01-1.12,0-1.69Z"/>
  <path d="M59.54,770.21v1.69c1.01-.56,1.01-1.12,0-1.69Z"/>
  <path d="M4.9,746.59c1.01-.56,1.01-1.12,0-1.69v1.69Z"/>
  <path d="M11.14,739.85v1.69c1.01-.56,1.01-1.12,0-1.69Z"/>
  <path d="M39.25,738.16v1.69c1.01-.56,1.01-1.12,0-1.69Z"/>
  <path d="M43.93,734.79c1.01-.56,1.01-1.12,0-1.69v1.69Z"/>
  <path d="M43.93,729.73c1.01-.56,1.01-1.12,0-1.69v1.69Z"/>
  <path d="M4.9,782.02c1.01-.56,1.01-1.12,0-1.69v1.69Z"/>
  <path d="M53.3,728.04c1.01-.56,1.01-1.12,0-1.69v1.69Z"/>
  <path d="M53.3,724.67c1.01-.56,1.01-1.12,0-1.69v1.69Z"/>
  <path d="M37.68,790.45v1.69c1.01-.56,1.01-1.12,0-1.69Z"/>
  <path d="M1.78,719.61c1.01-.56,1.01-1.12,0-1.69v1.69Z"/>
  <path d="M51.74,709.49v1.69c1.01-.56,1.01-1.12,0-1.69Z"/>
  <path d="M43.93,706.11v1.69c1.01-.56,1.01-1.12,0-1.69Z"/>
  <path d="M9.58,701.05v1.69c1.01-.56,1.01-1.12,0-1.69Z"/>
  <path d="M6.46,697.68v1.69c1.01-.56,1.01-1.12,0-1.69Z"/>
  <path d="M14.27,697.68c1.01-.56,1.01-1.12,0-1.69v1.69Z"/>
  <path d="M82.96,812.38c1.01-.56,1.01-1.12,0-1.69v1.69Z"/>
  <path d="M6.46,814.06v1.69c1.01-.56,1.01-1.12,0-1.69Z"/>
  <path d="M9.58,815.75v1.69c1.01-.56,1.01-1.12,0-1.69Z"/>
  <path d="M72.03,679.13v1.69c1.01-.56,1.01-1.12,0-1.69Z"/>
  <path d="M76.72,820.81v1.69c1.01-.56,1.01-1.12,0-1.69Z"/>
  <path d="M67.35,662.26v1.69c1.01-.56,1.01-1.12,0-1.69Z"/>
  <path d="M50.17,655.51v1.69c1.01-.56,1.01-1.12,0-1.69Z"/>
  <path d="M26.76,653.83v1.69c1.01-.56,1.01-1.12,0-1.69Z"/>
  <path d="M82.96,846.11c1.01-.56,1.01-1.12,0-1.69v1.69Z"/>
  <path d="M17.39,851.17v1.69c1.01-.56,1.01-1.12,0-1.69Z"/>
  <path d="M6.46,852.86v1.69c1.01-.56,1.01-1.12,0-1.69Z"/>
  <path d="M14.27,852.86v1.69c1.01-.56,1.01-1.12,0-1.69Z"/>
  <path d="M32.99,852.89c-1.54,1.17.84,2.32,1.59,3.31,1.55-1.11-.73-2.23-1.59-3.31Z"/>
  <path d="M.21,857.92v1.69c1.01-.56,1.01-1.12,0-1.69Z"/>
  <path d="M-6.03,862.98c1.01-.56,1.01-1.12,0-1.69v1.69Z"/>
  <path d="M84.52,868.04v1.69c1.01-.56,1.01-1.12,0-1.69Z"/>
  <path d="M37.68,873.1v1.69c1.01-.56,1.01-1.12,0-1.69Z"/>
  <path d="M57.98,873.1v1.69c1.01-.56,1.01-1.12,0-1.69Z"/>
  <path d="M72.03,883.22c1.01-.56,1.01-1.12,0-1.69v1.69Z"/>
  <path d="M51.74,886.59v1.69c1.01-.56,1.01-1.12,0-1.69Z"/>
  <path d="M56.42,891.65v1.69c1.01-.56,1.01-1.12,0-1.69Z"/>
  <path d="M25.19,898.4v1.69c1.01-.56,1.01-1.12,0-1.69Z"/>
  <path d="M56.42,898.4v1.69c1.01-.56,1.01-1.12,0-1.69Z"/>
  <path d="M56.42,903.46v1.69c1.01-.56,1.01-1.12,0-1.69Z"/>
  <path d="M82.96,916.95v1.69c1.01-.56,1.01-1.12,0-1.69Z"/>
  <path d="M53.3,932.13c1.01-.56,1.01-1.12,0-1.69v1.69Z"/>
  <path d="M56.42,932.13v1.69c1.01-.56,1.01-1.12,0-1.69Z"/>
  <path d="M36.12,935.5v1.69c1.01-.56,1.01-1.12,0-1.69Z"/>
  <path d="M36.12,943.94v1.69c1.01-.56,1.01-1.12,0-1.69Z"/>
  <path d="M79.84,945.62c1.01-.56,1.01-1.12,0-1.69v1.69Z"/>
  <path d="M31.44,945.62v1.69c1.01-.56,1.01-1.12,0-1.69Z"/>
  <path d="M43.93,962.49v1.69c1.01-.56,1.01-1.12,0-1.69Z"/>
  <path d="M72.03,986.1v1.69c1.01-.56,1.01-1.12,0-1.69Z"/>
  <path d="M86.08,987.79v1.69c1.01-.56,1.01-1.12,0-1.69Z"/>
  <path d="M22.07,994.54c1.01-.56,1.01-1.12,0-1.69v1.69Z"/>
  <path d="M31.44,1001.28v1.69c1.01-.56,1.01-1.12,0-1.69Z"/>
  <path d="M70.47,1001.28v1.69c1.01-.56,1.01-1.12,0-1.69Z"/>
  <path d="M81.4,1001.28v1.69c1.01-.56,1.01-1.12,0-1.69Z"/>
  <path d="M14.27,1002.97v1.69c1.01-.56,1.01-1.12,0-1.69Z"/>
  <path d="M70.47,1004.66v1.69c1.01-.56,1.01-1.12,0-1.69Z"/>
  <path d="M31.44,1013.09v1.69c1.01-.56,1.01-1.12,0-1.69Z"/>
  <path d="M84.52,1013.09v1.69c1.01-.56,1.01-1.12,0-1.69Z"/>
  <path d="M36.12,1016.46c1.01-.56,1.01-1.12,0-1.69v1.69Z"/>
  <path d="M81.4,1024.9v1.69c1.01-.56,1.01-1.12,0-1.69Z"/>
  <path d="M15.83,1031.64v1.69c1.01-.56,1.01-1.12,0-1.69Z"/>
  <path d="M22.07,1031.64v1.69c1.01-.56,1.01-1.12,0-1.69Z"/>
  <path d="M42.37,1062.01v1.69c1.01-.56,1.01-1.12,0-1.69Z"/>
  <path d="M31.44,1063.69v1.69c1.01-.56,1.01-1.12,0-1.69Z"/>
  <path d="M78.28,1068.75v1.69c1.01-.56,1.01-1.12,0-1.69Z"/>
  <path d="M26.76,1070.44v1.69c1.01-.56,1.01-1.12,0-1.69Z"/>
  <path d="M65.79,1070.44v1.69c1.01-.56,1.01-1.12,0-1.69Z"/>
  <path d="M31.44,1072.13v1.69c1.01-.56,1.01-1.12,0-1.69Z"/>
  <path d="M29.88,1078.87v1.69c1.01-.56,1.01-1.12,0-1.69Z"/>
  <path d="M50.17,1078.87v1.69c1.01-.56,1.01-1.12,0-1.69Z"/>
  <path d="M59.54,1078.87v1.69c1.01-.56,1.01-1.12,0-1.69Z"/>
  <path d="M67.35,1080.56v1.69c1.01-.56,1.01-1.12,0-1.69Z"/>
  <path d="M39.25,1085.62c1.01-.56,1.01-1.12,0-1.69v1.69Z"/>
  <path d="M53.3,1085.62v1.69c1.01-.56,1.01-1.12,0-1.69Z"/>
  <path d="M31.44,1088.99v1.69c1.01-.56,1.01-1.12,0-1.69Z"/>
  <path d="M48.61,1094.05v1.69c1.01-.56,1.01-1.12,0-1.69Z"/>
  <path d="M53.3,1094.05v1.69c1.01-.56,1.01-1.12,0-1.69Z"/>
</svg>