<?xml version="1.0" encoding="UTF-8"?>
<svg id="Layer_1" xmlns="http://www.w3.org/2000/svg" version="1.1" viewBox="0 0 1920 1080">
  <!-- Generator: Adobe Illustrator 29.5.1, SVG Export Plug-In . SVG Version: 2.1.0 Build 141)  -->
  <defs>
    <style>
      .st0 {
        fill: #fff;
      }
    </style>
  </defs>
  <g id="doaL8L.tif">
    <g>
      <path class="st0" d="M1208.03,3.21v1.68c1.03-.56,1.03-1.12,0-1.68Z"/>
      <path class="st0" d="M1261.32,157.89v23.54c-15.63-1.44-34.51-3.17-50.17-2.58-1.98.07-4.04,2.38-6.47,2.53-3.67.22-22.11-.82-22.9.05l-.02,7.44,79.56,2.66v20.18c-6.28.83-10.41-2.79-16.61-3.46-23.66-2.55-52.06.83-75.66,3.46l.02-8.41c.31-.47,11.49,7.52,9.54.86-.58-1.99-8.62-2.27-9.65-13.36-.94-10.06-1.64-21.99,7.28-27.83l-1.62,8.38c1.84-.81,7.73-8.23,8.29-8.36,16.8-3.81,46.4,2.51,64.97.04,5.46-.73,7.78-5.78,13.45-5.12v-.02Z"/>
      <polygon class="st0" points="1254.96 169.64 1251.79 166.29 1251.78 169.65 1254.96 169.64"/>
      <rect class="st0" x="1186.56" y="173.03" width="3.16" height="3.34"/>
      <rect class="st0" x="1204.06" y="174.72" width="3.17" height="1.65"/>
      <path class="st0" d="M1223.94,176.38v1.68c1.03-.56,1.03-1.12,0-1.68Z"/>
      <rect class="st0" x="1251.78" y="199.93" width="3.16" height="3.34"/>
      <path class="st0" d="M1250.19,134.35c1.59-15.44-19.23-8.24-29.51-8.33-7.99-.08-16.57-1.28-24.56-1.77.06-4.35,7.5-1.28,7.95-1.67l-1.62-3.33,9.58-3.4-1.5-3.23,5.48-1.76c.81,6-7.93,6.38-7.95,11.75,9.35,2.52,13.9-10,17.95-11.72,2.83-1.2,30.47-.31,32.17.75,9.41,23.53,6.61,41.83-21.45,39.44-7.25-.62-5.29.09-11.1.19-9.68.16-40.49,1.76-47.49-.45-11.77-3.7-10.32-25.07-7.41-34.92l14.24,1.63-3.15-5.87c.02-1.75,6.58-4.74,6.33-.86l-4.75,1.68c1.28.03,3.13.63,3.87,1.66,3.86,5.36-11.9,12.67-5.47,20.21h68.41-.02Z"/>
      <rect class="st0" x="1247.01" y="114.19" width="3.17" height="1.65"/>
      <path class="st0" d="M1234.27,117.56c-4.38-1.85-8.86,0-12.71,2.49,1.05,3.07,16.24,1.55,12.71-2.49Z"/>
      <path class="st0" d="M1249.39,117.54v1.68c1.03-.56,1.03-1.12,0-1.68Z"/>
      <rect class="st0" x="1250.19" y="120.92" width="3.17" height="1.65"/>
      <path class="st0" d="M1170.65,129.3h2.35l3.97-4.19c-3.6-5.19-7.13-1.18-6.32,4.19Z"/>
      <rect class="st0" x="1254.97" y="134.37" width="3.17" height="1.65"/>
      <rect class="st0" x="1202.47" y="142.77" width="4.76" height="3.34"/>
      <path class="st0" d="M1216.77,142.77c-1.15-1.13-6.33.48-6.35,3.34,3.44,2.81,8.64-1.09,6.35-3.34Z"/>
      <path class="st0" d="M1232.69,90.64c-1.2-.47-6.44,1.32-4.76-2.5.18-.41,4.72-7.01,5.09-7.23,2.22-1.35,6.32,1.3,6.02-2.02-2.09-.33-3.75-1.53-5.96-.61-2.56,1.07-.99,4.36-3.56,3.93,2.94-7.2.5-12.91-.02-20.15,6.6-.64,7.43-2.71,12.69,1.71l.02,3.32-6.32-.87c2.29,2.27.76,6.78,1.93,8.89.2.36,5.62,5.29,5.99,5.43-.2-.24-2.6-.25-3.01.19-.63.96.1,2.67-.17,3.17-.49-.04-1.38-1.3-2.38-1.09-.41.09-6.74,4.33-6.98,4.69-.5.75,1.42,2.56,1.4,3.12l.02.02Z"/>
      <rect class="st0" x="1232.69" y="68.8" width="3.17" height="1.65"/>
      <rect class="st0" x="1232.69" y="73.84" width="3.17" height="1.65"/>
      <path class="st0" d="M1234.28,94c-.65-.31-2.21.24-3.19-.01.01-1.19,1.59-2.69,1.6-3.35,1.24.49,1.44,3.27,1.59,3.36Z"/>
      <path class="st0" d="M1243.82,80.55c7.71,2.95,11.26-4.04,17.5-3.36v25.22l-12.05-4.94c-1.44-1.86,4.13-5.99-2.24-4.29l4.76-3.4-2.5-4.15-8.58,3.44,1.51,8.28c-3.28.6-5.46-2.16-7.95-3.35.43.27,2.19-.14,3.17,0-.8-4.57,1.39-6.77,3.19-10.1,2.59.22,5.27-.86,3.18-3.36h0Z"/>
      <path class="st0" d="M1255.75,83.91v1.68c1.03-.56,1.03-1.12,0-1.68Z"/>
      <path class="st0" d="M1261.31,43.57v21.85c-10.15,3.2-8.41-10.58-17.47-1.68l1.54-5.97c5.62,1.8,7.84-.26,12.75-2.46l-.78-2.84-2.35.41.71-7.67,5.6-1.63h0Z"/>
      <path class="st0" d="M1257.34,58.69v1.68c1.03-.56,1.03-1.12,0-1.68Z"/>
      <path class="st0" d="M1192.92,60.38c3.06,1.43,5.07,1.25,7.17-1.65l2.4,9.19c-4.38,1.46-4.03-3.68-9.57-5.86.51.84.85,1.81,1.55,2.54l-6.28,3.52,3.14,5.7-4.12-3.49-6.19,1.81-1.67-1.64c.73-4.01.04-5.96-3.15-8.42l-.97,3.06-4.6-1.37-1.57,3.34-.02-5.02,11.96-3.35c1.36,3.49,1.87,15.19,5.96,7.97l-.4-7.98c2.58-.71.8,2.78,2.63,3.4,1.27.43,2.99-.34,3.72-.05-.25-.4.26-1.41,0-1.68-.3-.31-2.24.2-3.17-.02l3.98-3.31-.81,3.33v-.02Z"/>
      <path class="st0" d="M1178.6,8.27l-3.2,10.06c-3.22-.75-1.56-6.52-6.33-3.35v-5.04l4.73,3.36,4.81-5.03h-.01Z"/>
      <polygon class="st0" points="1229.5 4.9 1229.5 8.24 1224.75 9.94 1224.74 4.9 1229.5 4.9"/>
      <path class="st0" d="M1223.16,65.42c-1.53-4.46,2.8-2.71,3.08-4.43.26-1.63-2.63-4.62,1.66-5.66.54,4.39-.56,8.39-4.74,10.09Z"/>
      <polygon class="st0" points="1184.95 83.9 1181.79 83.9 1181.79 81.42 1184.17 78.88 1184.95 83.9"/>
      <path class="st0" d="M1207.25,65.42c-1.06-2.11,2.55-5.86,3.15-5.04,1.06,2.11-2.55,5.86-3.15,5.04Z"/>
      <rect class="st0" x="1177.02" y="77.2" width="3.16" height="3.34"/>
      <polygon class="st0" points="1188.13 23.38 1184.96 23.37 1185.74 18.38 1188.13 20.89 1188.13 23.38"/>
      <polygon class="st0" points="1229.5 25.08 1228.72 28.42 1226.32 25.09 1229.5 25.08"/>
      <polygon class="st0" points="1205.64 57.03 1200.88 55.35 1203.24 62.02 1205.64 57.03"/>
      <polygon class="st0" points="1215.18 58.69 1212.01 58.68 1214.4 55.34 1215.18 58.69"/>
      <rect class="st0" x="1216.79" y="26.76" width="1.56" height="3.35"/>
      <rect class="st0" x="1219.98" y="16.67" width="1.56" height="3.35"/>
      <rect class="st0" x="1153.16" y="16.67" width="1.56" height="3.35"/>
      <rect class="st0" x="1191.34" y="78.88" width="1.56" height="3.35"/>
      <polygon class="st0" points="1227.91 82.25 1227.9 83.89 1221.58 88.13 1224.66 82.99 1227.91 82.25"/>
      <rect class="st0" x="1212.01" y="18.36" width="3.17" height="1.65"/>
      <rect class="st0" x="1212.01" y="77.21" width="3.17" height="1.65"/>
      <rect class="st0" x="1207.25" y="77.2" width="1.56" height="3.35"/>
      <polygon class="st0" points="1240.62 53.64 1239.07 53.64 1239.06 51.15 1241.45 48.64 1240.62 53.64"/>
      <rect class="st0" x="1234.28" y="50.31" width="3.17" height="1.65"/>
      <rect class="st0" x="1172.24" y="77.21" width="3.17" height="1.65"/>
      <polygon class="st0" points="1210.4 26.74 1208.84 26.74 1208.84 24.26 1211.23 21.74 1210.4 26.74"/>
      <rect class="st0" x="1191.33" y="20.04" width="3.17" height="1.65"/>
      <rect class="st0" x="1188.16" y="75.52" width="1.56" height="3.35"/>
      <rect class="st0" x="1226.33" y="92.34" width="3.17" height="1.65"/>
      <rect class="st0" x="1181.8" y="73.83" width="1.56" height="3.35"/>
      <rect class="st0" x="1197.7" y="109.15" width="3.17" height="1.65"/>
      <path class="st0" d="M1239.84,38.52c1.03.56,1.03,1.12,0,1.68v-1.68Z"/>
      <path class="st0" d="M1173.03,33.48c1.03.56,1.03,1.12,0,1.68v-1.68Z"/>
      <path class="st0" d="M1223.94,51.97c1.03.56,1.03,1.12,0,1.68v-1.68Z"/>
      <path class="st0" d="M1233.48,53.65c1.03.56,1.03,1.12,0,1.68v-1.68Z"/>
      <path class="st0" d="M1209.62,55.33c1.03.56,1.03,1.12,0,1.68v-1.68Z"/>
      <path class="st0" d="M1158.71,28.43c1.03.56,1.03,1.12,0,1.68v-1.68Z"/>
      <path class="st0" d="M1196.89,57.01c1.03.56,1.03,1.12,0,1.68v-1.68Z"/>
      <path class="st0" d="M1182.57,26.75c1.03.56,1.03,1.12,0,1.68v-1.68Z"/>
      <path class="st0" d="M1161.89,26.75c1.03.56,1.03,1.12,0,1.68v-1.68Z"/>
      <path class="st0" d="M1252.57,23.39c1.03.56,1.03,1.12,0,1.68v-1.68Z"/>
      <path class="st0" d="M1174.62,72.14c1.03.56,1.03,1.12,0,1.68v-1.68Z"/>
      <path class="st0" d="M1193.71,73.83c1.03.56,1.03,1.12,0,1.68v-1.68Z"/>
      <path class="st0" d="M1239.84,20.03c1.03.56,1.03,1.12,0,1.68v-1.68Z"/>
      <path class="st0" d="M1169.85,75.51c1.03.56,1.03,1.12,0,1.68v-1.68Z"/>
      <path class="st0" d="M1173.03,20.03c1.03.56,1.03,1.12,0,1.68v-1.68Z"/>
      <path class="st0" d="M1200.07,18.35c1.03.56,1.03,1.12,0,1.68v-1.68Z"/>
      <path class="st0" d="M1195.3,78.87c1.03.56,1.03,1.12,0,1.68v-1.68Z"/>
      <path class="st0" d="M1169.85,80.55c1.03.56,1.03,1.12,0,1.68v-1.68Z"/>
      <path class="st0" d="M1174.62,80.55c1.03.56,1.03,1.12,0,1.68v-1.68Z"/>
      <path class="st0" d="M1169.85,16.66c1.03.56,1.03,1.12,0,1.68v-1.68Z"/>
      <path class="st0" d="M1182.57,14.98c1.03.56,1.03,1.12,0,1.68v-1.68Z"/>
      <path class="st0" d="M1200.07,83.91c1.03.56,1.03,1.12,0,1.68v-1.68Z"/>
      <path class="st0" d="M1211.21,83.91c1.03.56,1.03,1.12,0,1.68v-1.68Z"/>
      <path class="st0" d="M1239.84,11.62c1.03.56,1.03,1.12,0,1.68v-1.68Z"/>
      <path class="st0" d="M1184.17,85.59c1.03.56,1.03,1.12,0,1.68v-1.68Z"/>
      <path class="st0" d="M1219.16,85.59c1.03.56,1.03,1.12,0,1.68v-1.68Z"/>
      <path class="st0" d="M1204.85,88.96c1.03.56,1.03,1.12,0,1.68v-1.68Z"/>
      <path class="st0" d="M1243.03,90.64c1.03.56,1.03,1.12,0,1.68v-1.68Z"/>
      <path class="st0" d="M1241.44,6.58c1.03.56,1.03,1.12,0,1.68v-1.68Z"/>
      <path class="st0" d="M1161.89,6.58c1.03.56,1.03,1.12,0,1.68v-1.68Z"/>
      <path class="st0" d="M1246.21,4.9c1.03.56,1.03,1.12,0,1.68v-1.68Z"/>
      <path class="st0" d="M1173.03,4.9c1.03.56,1.03,1.12,0,1.68v-1.68Z"/>
      <path class="st0" d="M1153.94,4.9c1.03.56,1.03,1.12,0,1.68v-1.68Z"/>
      <path class="st0" d="M1201.66,114.18c1.03.56,1.03,1.12,0,1.68v-1.68Z"/>
    </g>
  </g>
</svg>