<?xml version="1.0" encoding="UTF-8"?>
<svg id="Layer_1" xmlns="http://www.w3.org/2000/svg" version="1.1" viewBox="0 0 1920 1080">
  <!-- Generator: Adobe Illustrator 29.5.1, SVG Export Plug-In . SVG Version: 2.1.0 Build 141)  -->
  <path d="M715.35,566.84c.11-.14.28-.22.5-.16,2.79.79,6.07.25,7.44-2.59.89-1.85.57-3.82.14-5.72-.47-2.07-1.04-4.11-1.68-6.13-.69-2.2-1.44-4.4-2.41-6.49-.37-.8-.76-1.59-1.26-2.31-.27-.4-.66-.87-1.02-.96-.03,0-.05-.03-.08-.04v.06c-3.97.26.01-6.74-3.92-5.07-1.83.78-.2,4.39-.81,5.07-3.93,4.41-1.94-5.34-4.73-5.05l-.83,6.76c-4.9-3.52-9.76-1.63-15.33-3.91-4.29-1.76-9.31-7.71-12.37-8.83-2.07-.76-3.39,2.55-3.93,2.56-3.49.07-.3-16.45-2.39-20.2-2.34.34-2.61,7.23-2.95,9.48-.46,3.01-.17,6.07-.21,9.08-9.59,1.91-19.57,2.15-28.87,5.48-1.34.48-2.54,1.85-3.56,2.91-2.85-1.2-.59-4.86-.78-5.01-2.55-1.95-3.25,1.31-4.19,3.29,0,1.82,0,3.64.06,5.45.13,4.44.52,8.91,1.83,13.18.89,2.87,2.21,5.55,3.88,8v-.43c0-1.34,3.53-5.56,5.12-6.35,2.62-1.3,20.3-1.36,21.87-.48,1.29.72.07,6,2.28,5.95.64-.02,2.38-2.36,3.86-2.58,2.27-.34,20.78,1.73,24.23,2.07,6.72.66,13.3,2.1,20.07,2.35.01.2.03.4.04.61Z"/>
  <rect x="1925.28" y="1058.64" width="1.5" height="5.04"/>
  <rect x="656.02" y="574.56" width="1.5" height="3.36"/>
  <rect x="656.02" y="567.81" width="1.5" height="3.36"/>
  <rect x="645.32" y="567.82" width="3.04" height="1.65"/>
  <rect x="1925.28" y="1082.25" width="1.5" height="3.36"/>
  <rect x="1925.28" y="1090.69" width="1.5" height="3.36"/>
  <path d="M630.81,561.06c.99.56.99,1.12,0,1.69v-1.69Z"/>
  <path d="M1926.03,1031.64c.99.56.99,1.12,0,1.69v-1.69Z"/>
  <path d="M1926.03,1048.51c.99.56.99,1.12,0,1.69v-1.69Z"/>
  <path d="M1926.03,1068.75c.99.56.99,1.12,0,1.69v-1.69Z"/>
  <path d="M1926.03,1099.11c.99.56.99,1.12,0,1.69v-1.69Z"/>
  <path d="M659.05,529h-1.5c0-3.48-2.43-6.23.75-8.42l.74,8.42Z"/>
  <rect x="686.57" y="525.65" width="1.5" height="5.04"/>
  <rect x="645.33" y="523.96" width="1.5" height="5.04"/>
  <rect x="665.18" y="532.4" width="3.04" height="1.65"/>
  <rect x="645.33" y="515.53" width="1.5" height="3.36"/>
  <path d="M639.97,527.33c.99.56.99,1.12,0,1.69v-1.69Z"/>
  <path d="M646.08,520.58c.99.56.99,1.12,0,1.69v-1.69Z"/>
  <path d="M646.08,512.15c.99.56.99,1.12,0,1.69v-1.69Z"/>
  <path d="M678.15,507.09c.99.56.99,1.12,0,1.69v-1.69Z"/>
</svg>