<?xml version="1.0" encoding="UTF-8"?>
<svg id="Layer_1" xmlns="http://www.w3.org/2000/svg" version="1.1" viewBox="0 0 1920 1080">
  <!-- Generator: Adobe Illustrator 29.5.1, SVG Export Plug-In . SVG Version: 2.1.0 Build 141)  -->
  <polygon points="-5.23 548.44 -9.93 550.94 -9.93 552.63 -6.05 554.33 -5.23 548.44"/>
  <path d="M60.31,277.7l.02-16.86c1.74-.32,2.92,0,3.9,1.67,2.85,4.83-1.31,33.27,4.3,36.73,1.36.84,3.62-.06,4.62.47,2.76,1.48-.27,6.06,8.21-.11l2.41,5.08,6.97-3.46,2.34,3.45c-.24-2.35.84-7.63,3.9-6.73,3.1.92.49,8.35,5.49,6.72v-8.41s-1.58,3.35-1.58,3.35l-1.56-5.07-6.22,3.38c4.56-8.58-5.87-5.1-11.39-6.8-1.59-.49-.67-5.6-5.04-1.68l.79-10.06-4.66,1.69c-.51-12.07-.39-22.22-1.66-34.69-.4-3.91,3.83-8.42-2.23-9.16-4.05.9-1.2,16.35-4.15,18.31-1.98,1.32-9.99-.59-10.71.23-.61.68-1.1,17.05-.04,19.04.97,1.82,4.45,1.59,6.28,2.89ZM74.36,284.44l-.04,9.3c-.09.52-5.77-.85-5.98-1.09-3.43-4.03,2.12-7.94,6.02-8.21ZM58.75,274.31h-3.11v-6.73h3.11v6.73ZM55.65,260.84h3.11s-.76,5.04-.76,5.04c-1.65-1.54-2.85-2.56-2.34-5.04Z"/>
  <path d="M11.97,509.59c-1.64-.41-18.06-.65-18.84-.08-2.06,1.48-2.22,15.8-1.33,18.47,1.08,3.23,5.08,2.04,5.81,3.02.74.99-.17,3.96.75,5.92,3.43,7.32,13.01-1.06,19.79,2.22-1.9-9.65,5.28-26.69-6.19-29.54ZM2.54,529h-1.53v-3.36h1.53v3.36ZM8.81,525.63c-1.7-1.84,1.4-5.2,3.11-3.36,1.7,1.84-1.4,5.2-3.11,3.36ZM8.81,518.88c-1.7-1.84,1.4-5.2,3.11-3.36s-1.4,5.2-3.11,3.36Z"/>
  <path d="M44.64,252.47l-7.72-1.76c-.69,9.06,3.14,18.15-.02,26.98l3.94,1.66c-.6-6.91,3.57-3.09,3.78-3.41.76-1.21.81-22.66.03-23.47Z"/>
  <path d="M44.71,199.28c3.61-2.45-.02-5.48,0-5.92l-3.12,3.37c1.11,1.89,1.34,3.76,3.12,2.55Z"/>
  <path d="M40.32,195.53c.14.68,1.01.77,1.26,1.2-.1-1.09.2-2.43,0-3.37-.54.22-1.37,1.46-1.26,2.17Z"/>
  <path d="M5.68,554.31c-1.41-.54-3.85,1.62-1.56,5.06l.78-1.65c.96-.05.71,1.6.78,1.65.24.2,1.82-.22,1.56,1.69.59-.5,3.93.7,3.12-3.37-2.36,1.98-4.39-3.26-4.68-3.37Z"/>
  <path d="M21.33,550.7l-1.61-4.83c-6.24-1.74-.35,8.03-5.42,6.73-5.83-1.51-2.63-3.28-2.82-4.61-1.1-7.95-4.54,1.36-7.37-.43,1.35-3.28.8-5.41-3.12-5.03v10.1c7.28-3.95,3.69.5,4.68,1.69.2.24,6.6,1.76,4.68,3.37l3.11,1.71c-1.42-8.58,4-3.53,9.35-4.22l-1.43-4.29s-.06.03-.1.04c0-.08.03-.15.04-.23Z"/>
  <path d="M5.68,561.06l-.79,3.34c1.22-.59,1.67-2.77,2.36-3.34-.5-.11-1.09.15-1.56,0Z"/>
  <path d="M4.12,559.37c.34.51,1.18,1.56,1.56,1.69v-1.69h-1.56Z"/>
  <path d="M21.33,550.7l.06.18c9.57-4.32,3.68,2.94,10.81,6.8-1.18-9.31.11-23.22-6.21-30.36-.85,5.8,3.04,13.8,1.65,19.21-.52,2.01-5.85.72-6.31,4.16Z"/>
  <path d="M50.95,345.16c.65,1.57,2.05,2.77,1.58,5.06l3.12-4.2c0-1.07-3.38-1.89-4.7-2.55.21.43-.2,1.21,0,1.69Z"/>
  <path d="M41.59,338.42c3.77.87,2.57,3.72,1.56,6.75,2.07.1,4.17-.07,6.24,0-.26-.28.26-1.47,0-1.69-.49-.41-4.83,1.21-3.16-4.23.16-.51,5.61-1.05,3.16-4.19-.33-.43-2.67.37-3.12,0-.1,1.75-3.4,1.78-4.68,3.37Z"/>
  <path d="M50.95,343.48c-.08-.04.21-1.61-.78-1.65l-.78,1.65c.09.22,1.45-.22,1.56,0Z"/>
  <path d="M49.39,345.16l.78,1.65.78-1.65c-.11-.26-1.33.26-1.56,0Z"/>
  <path d="M99.35,512.15c.12.43,4.98,6.5,6.21,5.92l-3.1-19.41-3.11,11.8,3.14.84c0,1.63-1.96.56-3.14.84Z"/>
  <path d="M45.78,334.51c-.31-.39-.63-.83-1.07-1.16-.04.25.6.75,1.07,1.16Z"/>
  <path d="M45.78,334.51c.16.2.32.39.49.53,0-.09-.21-.3-.49-.53Z"/>
  <path d="M22.81,295.44l-1.52-4.25c-1.21,1.01-2.91,1.24-3.12,3.37,2.48-.12,3.24,1.74,4.64.88Z"/>
  <path d="M100.56,445.92c-2.47-9.08-3.74-13.91.41-23.64.77-1.79,3.58-.76,3.06-2.05-.5-1.23-3.69-3.87-5.07-6.44-.77-1.43.41-4.06.16-4.29-5.67-5.23-12.67,2.23-16.73-4.8-1.25-2.16-.78-13.9-.22-16.18.4-1.59,7.28-3.89,4.69-6.25-2.53-2.31-8,7.64-9.35.81-.76-3.84,5.16-3.72,4.67-5.03-1.22-3.21-6.02-4.84-3.1-10.97h-4.7c-1.21-5.92,2.99-1.38,3.11-1.68,1.55-3.7-1.88-3.15-2.48-4.08-2.37-3.65-6.48-8.86-.64-11.11l3.1,5.92c-.5-2.88-.19-14.55.36-16.49.73-2.56,4.31-4.81,4.33-5.45.07-2.53-7.68-4.37-8.61-5.84-2.64-4.15-.44-14.11,5.47-13.54l8.01,13.32c.91.42,2.01-1.23,2.96-1.54-1.32-8.21,2.8-2.57,3.96-4.91.97-1.96.68-4.7.73-6.9,6.36-1.05,2.78,7.14,6.22,8.43,0-2.8.08-5.62.02-8.43-.02-.7-.91.91,0-3.37,2.24-10.57-2.58-4.97-3.14,1.69-2.47,1.36-5.34-4.16-6.21-3.37-1.29,1.16,1.07,9.68-3.13,10.12,2.35-6.38-5.96-10.65-10.47-11.34-3.45-.52-8.22,4.53-12.97,1.22v26.99c-3.77.24-2.73.52-3.1-2.51-1.05-8.54.98-18.01.07-25.41-.46-3.75-2.63-5.49-3.12-8.43-.71-4.3,3.41-13.65,3.01-14.24-.76-1.11-3.68,5.54-5.48,1.69-.85-1.82,2.32-9.25-2.3-10.12.41,3.27-.77,7.77-.03,10.71.4,1.62,3.02.98,3.12,1.12.68.96-3.12,2.85-3.16,5.87-.01,1.15,2.89-.11,3.31,3.25,1.04,8.35-2.48,19.7-.35,28.71l-4.44,1.77c6,5.98,9.75,4.07,1.53,10.97,5.83-4.67,5.49,3.13,4.18,7.34-.74,2.38-3.35,3.49-3.78,5.54-.43,2.04,1.96,5.94-.4,9.04,4.42,4.66,6.12-15.29,9.35-15.16l1.57,28.66c-4.71.83-2.5-1.26-3.15-4.09-.53-2.28-1.53-12.76-2.31-12.78-3.24,3.48-1.69,7.72-.79,11.82l-4.62-.85-.04,5.91c5.18-4.12,7.79,2.43,1.54.88-.44,7.56-4.32,16.28-4.69,2.49l-4.66,1.69-.03-6.74-4.66,1.68c2.65-3.92-1.97-8.98-1.58-10.9.46-2.27,5.12-1.48,4.69-4.26-9.24,1.85-3.07-10.66-1.55-15.2-4.45-.22-4.55-3.02-1.56-6.75-1.92-.44-6.47,1.56-6.23-1.66,5.3.59,4.18-6.17,4.69-6.77,2.26-2.69,3.78,2.73,4.67,3.38.26-1.75,3.76-4.21,3.12-5.04-3.45-1.68-8.53,2.06-7.82-3.36l-3.12,8.4c-7.83-5.68-.89-7.8,1.05-10.66,3.55-5.24.42-5.77,9.89-6.22-5.57-7.43-1.65-3.47.07-6.19,2.54-4.02-.03-11.64-1.65-15.71-7.91,3.2,1.41,13.7-9.33,5.06l-3.13,3.37v-11.81c2.42,2.53,4.83,1.19,3.09-1.64-.22-.36-3.69,1.14-4.53-6.03-1.35-11.63-.66-24.5-1.71-36.16l-1.74,15.82c-9.76,6.06,1.46,3.88.19,8.6-1.55,5.74-7.36-2.72-9.32-1.68,2.11,7.67,11.8,2.37,9.37,11.61-.49,1.85-3.28.32-3.18,1.9.03.42,6.73,2.43.83,5.57-.78.41-1.69-1.15-5.5,2.02l5.36,1.72.13,3.38-7.03,5.01c-.02-2.23-1.79-4.6-1.58-6.73-.59.03-2.9,2.06-3.11,1.7.73-18.53-.35-8.4-6.72-10.31-4.3-1.29-2.49-7.7-7.34-6.55-1.62,7.26,2.5,6.85,6.23,10.96l-6.2-1.71,3.11,7.6c1.82-2.71,9.21-5.08,9.31-.85.04,1.49-6.24,6.48-3.09,10.96l-4.66-7.64-4.71.92,4.7,7.56-3.91-2.51c-4.47,3.42-.28,8.45-.77,13.49l6.22-1.68v6.74c-7.99-7.29-5.55-.65-6.25-.02-3.7,3.29-2.64-3.73-3.4-4.61-.79-.9-4.37-.83-5.95-2.12v184.69c0,.46,1.82,1.69,2.35,2.52,1.92-7.29,3.66-1.06,6.59-.31,3.21.83,13.5-1.4,15.03-5.15.97-2.38-2.78-25.66-3.68-26.59-.17-.17-4.46-.13-4.67.03-.65.5,4.23,13.41.79,16.84-5.34-2.76-4.14-12.27-6.24-15.23-1.79-2.53-8.68-.01-4.56-6.71l11.58.02-3.12-18.55c6.7-2,5.37,5.99,6.25,11.8l3.09-3.35c-5.76,21.51,23.58,3.5,32.77,12.64l-9.32,5.94,3.1,6.7c-7.44,1.09-2.98-1.81-3.87-3.37-1.22-2.12-11.18-1.03-13.28,1.69-.07-2.38-.62-4.39,1.52-5.94,2.2-1.59,6.48.77,6.27-2.48h-15.6c3.08,1.96,2.8,30.77,6.23,26.97l2.36-6.71,3.9,4.19c-6.24,2.48-1.7,1.53-.39,3.36.16.22-1.07,2.51.26,3.38,2.35,1.53,6.12.18,7.91,3.37-4.01,5-10.28,4.13-15.57,2.54v21.91c3.05.57.73-3.95,1.63-4.94.72-.79,17.25.53,19.9-3.77.71-1.15-.28-13.77-2.81-15.7.27-1.52,19.62-4.46,21.06-4.25,1.16.17,1.75,1.68,1.58,3.35-.53,5.08-4.66,2.78-5.25,3.51-.43.53-.59,7.8-.3,8.96.76,2.99,15.39,3.33,11.03-5.72l4.64.87c-2.44-1.78.02-3.05,0-3.42-.03-.48-10.1-1.03-2.36-5.24.98-.53,5.42-.08,7.08-.64l1.58,16.87c2.46.43,1.77-3.04,2.07-4.9.64-4,.44-8.01-.52-11.95l4.67-.02c.48,2.51-.76,10.76.17,11.72.6.62,3.44-.36,4.37.23.31.2-1.85,4.61,2.51,6.61,1.15-2.46,3.14-4.47,4.44-6.78,1.53-2.72-3.05-1.97,2.58-3.33-.15-.51.11-1.15,0-1.69l-1.61-2.41c.02-19.44-1.21-38.59,7.83-55.8-7.48,1.99-3.41-.45-5.01-6.33ZM58.75,355.27h-1.53v-3.36h1.53v3.36ZM63.43,343.47h-1.53v-3.36h1.53v3.36ZM43.14,309.75l.02,5.05c-11.04-2.54-2.23,6.65-9.37,6.74-1.14-10.46-.07-11.08,9.35-11.79ZM11.91,291.18h-1.53v-3.36h1.53v3.36ZM25.97,375.54v1.65h-3.11v-1.65h3.11ZM25.19,313.12v-1.69c1.01.56,1.01,1.12,0,1.69ZM23.63,355.28v-1.69c1.01.56,1.01,1.12,0,1.69ZM19.74,324.91v-3.36s4.68,0,4.68,0c-.52,2.44-2.52,3.87-4.68,3.35ZM18.19,303l3.1,10.11c-4.67,1.09-3.47-8.12-3.1-10.11ZM15.05,328.28v-1.65h3.11v1.65h-3.11ZM17.39,343.48v-1.69c1.01.56,1.01,1.12,0,1.69ZM16.59,377.22v3.36h-1.53v-3.36h1.53ZM14.27,299.62c1.01.56,1.01,1.12,0,1.69v-1.69ZM5.69,394.07c-1.7-1.84,1.4-5.2,3.11-3.36,1.7,1.84-1.4,5.2-3.11,3.36ZM8.02,397.45v-1.69c1.01.56,1.01,1.12,0,1.69ZM4.13,357.8l3.11-.83v3.36s-3.11-2.54-3.11-2.54ZM7.26,370.45v-3.36h1.53v3.36h-1.53ZM6.46,324.92c1.01.56,1.01,1.12,0,1.69v-1.69ZM5.69,328.3h3.11v5.04h-3.11v-5.04ZM4.13,340.12h3.11v1.65h-3.11v-1.65ZM4.11,346.86c1.7,1.84-1.4,5.2-3.11,3.36-1.7-1.84,1.4-5.2,3.11-3.36ZM.21,442.99v-1.69c1.01.56,1.01,1.12,0,1.69ZM1.78,407.57v-1.69c1.01.56,1.01,1.12,0,1.69ZM3.34,449.74v-1.69c1.01.56,1.01,1.12,0,1.69ZM4.9,410.94v-1.69c1.01.56,1.01,1.12,0,1.69ZM5.68,446.35v-6.72s3.11,0,3.11,0v6.72s-3.11,0-3.11,0ZM8.02,436.24v-1.69c1.01.56,1.01,1.12,0,1.69ZM10.35,410.93h-3.11v-1.65h3.11v1.65ZM10.35,407.57c-5.13-.45-4.29-5.56-6.15-7.49-.76-.79-3.81.88-4.74-1.78,2.48-3.85,3.07-1.61,5.68-.08.43.25.47,1.62.93,1.95,1.99,1.45,4.76-1.38,4.27,7.41ZM11.14,442.99v-1.69c1.01.56,1.01,1.12,0,1.69ZM12.7,336.73v-1.69c1.01.56,1.01,1.12,0,1.69ZM11.93,314.79c-1.7-1.84,1.4-5.2,3.11-3.36,1.7,1.84-1.4,5.2-3.11,3.36ZM15.05,439.61v-5.04s1.53,0,1.53,0l1.58,5.03h-3.11ZM20.51,419.38v-1.69c1.01.56,1.01,1.12,0,1.69ZM21.28,400.81h-6.23s2.43-5.24,2.43-5.24c.09-.37.31-.85.68-1.48l-.68,1.48c-.64,2.56,4.61,0,3.8,5.24ZM22.84,350.21h-1.53v-3.36h1.53v3.36ZM29.09,400.82h-6.24v-5.04h6.24v5.04ZM25.99,319.86v-3.36s3.11,0,3.11,0l-3.11,3.36ZM24.44,303.84c0-1.12,3.75-3.49,4.64-2.52,2.36,2.55-4.64,7.19-4.64,2.52ZM40.03,488.52c-1.7-1.84,1.4-5.2,3.11-3.36,1.7,1.84-1.4,5.2-3.11,3.36ZM90,431.18v-5.05s3.1,0,3.1,0c.48,2.33-.84,4.48-3.1,5.05ZM86.87,454.79v-5.04c5.72.03,5.72,5.02,0,5.04ZM88.41,436.26c1.4,1.09,2.32,9.54-2.31,8.41-4.88-1.19-1.16-11.1,2.31-8.41ZM84.52,421.1c4.12.15,4.5,9.57,0,11.74-2.41.14-3.13-11.85,0-11.74ZM85.3,459.88c.42.57-1.69,3.09-2.35,3.34-5.85,2.17-6.7-8.74,2.35-3.34ZM79.04,434.55l-1.53-15.16c3.98,2.67,1.37,11.21,1.53,15.16ZM79.03,449.75c.25.22,1.46,5.44,1.57,6.73-1.79-1.07-6.13-5.14-4.66-6.73.96.1,2.8-.26,3.09,0ZM77.49,390.71v14.35s-1.54,5.88-1.54,5.88c1-5.93-2.15-12.04-1.63-17.67.23-2.55,1.39-5.09,3.17-2.55ZM73.58,370.47l2.32,2.52-3.08,2.53.76-5.05ZM60.34,389.03c1.33-1.01,4,2.32,5.43,2.58,1.47.28,4.93-1.52,5.48-.9,1.49,1.67-.52,9.42-4.67,8.46l3.11,6.71c-5.51,1.19-3.38-7.27-3.13-10.11l-6.22,8.44c-.06-3.17-2.39-13.35,0-15.18ZM66.55,422.76v3.36h-1.53v-3.36h1.53ZM69.68,409.27v6.73c-2.51,3.08-7.76-7.42,0-6.73ZM68.92,448.06l.76,8.42c-4.18-1.62-4.2-5.8-.76-8.42ZM68.92,458.18l.76,5.04h-3.11c-.51-2.49.69-3.51,2.34-5.04ZM68.14,434.56l.76-5.05,2.32,2.52-3.08,2.53ZM65,448.06v3.36h-4.67v-3.36h4.67ZM60.33,419.37v-5.04h3.11v5.04h-3.11ZM63.43,412.63l-3.1-2.54,3.11-.83v3.36ZM65,453.12v6.73c-3.68,1.25-4.29-3.06-4.67-6.73h4.67ZM58.75,449.75c.54.54-1.45,6.39-1.72,6.57-6.05,4.02-6.9-8.31,1.72-6.57ZM52.52,426.12v-5.04h3.11v5.04h-3.11ZM35.36,340.1c2.26.57,3.58,2.72,3.1,5.05h-3.11s0-5.05,0-5.05ZM35.35,351.92h3.11v6.73h-3.11v-6.73ZM33,444.68v-1.69c1.01.56,1.01,1.12,0,1.69ZM35.33,414.31h-1.53v-3.36h1.53v3.36ZM34.57,390.71l.76,10.1c-5.2,1.81-2.57-9.01-.76-10.1ZM38.46,362.04c1.7,1.84-1.4,5.2-3.11,3.36-1.7-1.84,1.4-5.2,3.11-3.36ZM36.89,383.95h-1.53v-3.36h1.53v3.36ZM36.91,459.85v-3.36s3.11,3.36,3.11,3.36h-3.11ZM38.48,427.8v-3.36h1.53v3.36h-1.53ZM46.26,459.86l-3.1-2.54,3.11-.83v3.36ZM44.73,437.92v-3.36h1.53v3.36h-1.53ZM46.27,410.15c-2.4-2.12-7.25-2.28-7.63-2.76-.46-.56-.63-14.45-.18-15.01.2-.25,3.48.07,4.69.01-.29-1.34-2.11-2.94-1.56-5.05,5.07-.55,5.17-.43,4.67,5.04-1.03.1-2.08-.05-3.12,0,.39,1.79.6,11.98,3.89,10.11,4.98-2.83,4.56-12.81,10.15-13.48,1.41,4.59-2.72,7.84-3.13,11.09-.49,3.94,2.08,7.6,1.59,11.54-.46,3.73-4.31,11.44-7.17,5.24-.64-1.38.75-4.12-2.21-6.74ZM74.85,493.12c-3.68-2.9-2.84-11.8-2.74-16.33.05-2.26,2.62-5.8-1.62-5.11-3.21.84-3.52,32.38-9.44,21.95-2.13-3.75,1.8-7.63-3.83-5.93l3.07-3.39c-7.25-9.41-4.56,9.27-6.23,10.97-.33.33-3.4-.21-4.67,0l1.56-28.69h6.23c-.39,1.84-1.32,11.79.79,11.83,6.12-3.7.71-10.58,3.9-12.71,1.33-.89,4.51,1.31,6.93.96,2.39-.34,4.9-3.9,5.53-3.43.11.08-.29,2.18.52,2.73,5.43,3.75,13.14-3.79,16.83,1.71,7.31,10.9-4.63,35.05-16.84,25.43ZM94.66,437.92h-3.11s0-5.05,0-5.05c2.26.57,3.58,2.72,3.1,5.05ZM93.12,414.31c-1.7-1.84,1.4-5.2,3.11-3.36,1.7,1.84-1.4,5.2-3.11,3.36Z"/>
  <path d="M96.22,340.08l-3.24,1.03,3.03,10.08c-.75-3.34,2.79-4.55,2.95-5.21,1.85-7.83-6.87-12.3-4.29-21.05-2.3-.8-3.27,1.23-4.68,1.68.22,1.35,3.16,10.52,3.63,11.37.6,1.09,3.31-.56,2.6,2.11Z"/>
  <path d="M96,351.19c.05.23.12.46.21.71l-.21-.71Z"/>
  <path d="M96.23,545.87c-2.12-2.74-1.36-21.94-3.9-21.88-.23,0-3.91,1.9-3.86,2.66.12,1.89,3.58,24.39,7.76,19.22Z"/>
  <path d="M13.5,279.38c1.85,1.9,3.15.11,3.13-2.59-.06-5.87-.85-11.69-.03-17.64-8.2-2.9-3.89,19.41-3.1,20.23Z"/>
  <path d="M25.96,264.21c-.95-2.86-.23-11.38-1.82-13.16-.16-.18-3.74-1.93-4.37-1.21l-.04,16.04c5.2,1.15,1.28-5.31,6.23-1.66Z"/>
  <path d="M89.2,247.34l-.76,13.48c6.69.36,4.14-10.92.76-13.48Z"/>
  <path d="M-3.69,230.47v3.37c2.78-1.45.02-3.02,0-3.37Z"/>
  <path d="M-5.28,225.45c.33.97-6.74,6.45.03,8.39.37-1.17-.81-3.49,1.56-3.37-.12-1.89.37-3.95-.01-5.83-1.92-9.6-9.49-.62-1.58.81Z"/>
  <path d="M-2.92,242.28l-.77-8.44h-1.56c-.8,2.55-4.51,10.49,2.33,8.44Z"/>
  <path d="M41.59,293.71v-9.26s3.1,5.04,3.1,5.04l-1.53-10.1c.35,3.86-.28,3.58-3.13,1.66.85,2.55-3.09,13.35,1.56,12.66Z"/>
  <path d="M94.69,382.27l4.66-1.7-3.11-1.68,3.12-5.03c-6.94-.62-6.6,2.82-4.67,8.41Z"/>
  <path d="M-8.36,276.02l3.91,11.76c.74-.42.19-16.79-3.91-11.76Z"/>
  <path d="M-.58,257.44l-4.66-1.69,3.1-3.34c-8.72-1.63-4.95,9.25,1.56,5.03Z"/>
  <polygon points="88.29 348.68 83.75 348.55 86.89 351.1 84.5 356.93 89.97 356.97 88.29 348.68"/>
  <rect x="94.68" y="360.35" width="3.11" height="8.42"/>
  <path d="M-8.37,262.53c1.63,4.22,1.39,6.01,6.24,5.03.39-4.25-2.49-5.69-6.24-5.03Z"/>
  <polygon points="102.44 265.07 102.48 257.47 97.79 257.47 99.36 265.9 102.44 265.07"/>
  <path d="M52.51,362.02c2.65-2.53-4.45-5.79-6.21-4.22.91,2.59,3.58,6.73,6.21,4.22Z"/>
  <rect x="86.87" y="368.79" width="3.11" height="5.04"/>
  <polygon points="100.9 225.42 99.37 225.42 97.8 232.14 100.91 232.15 100.9 225.42"/>
  <path d="M47.83,289.52c-.33.29,4.08,8.12,4.67,6.72,1.44-3.42-2.56-8.58-4.67-6.72Z"/>
  <path d="M50.97,303v8.42s1.53,0,1.53,0c.09-3.58,2.78-7.17-1.53-8.42Z"/>
  <polygon points="15.03 242.28 10.36 248.99 16.58 251.57 15.03 242.28"/>
  <rect x="75.95" y="242.28" width="1.53" height="8.42"/>
  <path d="M77.49,270.96h-3.11s0,5.05,0,5.05c2.26-.57,3.58-2.72,3.1-5.05Z"/>
  <path d="M24.4,277.7l-4.67,5.04c2.85.57,5.18-1.85,4.67-5.04Z"/>
  <polygon points="108.73 509.61 111.06 512.11 113.4 508.79 108.73 509.61"/>
  <path d="M41.6,220.34c1.7,1.84,4.81-1.52,3.11-3.36-1.7-1.84-4.81,1.52-3.11,3.36Z"/>
  <polygon points="80.61 529.02 77.5 529.03 79.08 534.06 80.6 534.06 80.61 529.02"/>
  <path d="M93.1,241.42c.45-1.27-1.56-.45-2.47-1.56-1.05-1.28.05-3.21-2.19-2.63,1.05,5.24-1.26,10.32,4.67,4.2Z"/>
  <polygon points="-8.36 562.74 -6.83 562.73 -5.25 557.7 -8.36 557.69 -8.36 562.74"/>
  <polygon points="113.4 340.12 110.29 340.11 110.3 343.48 113.4 340.12"/>
  <polygon points="36.89 545.88 36.9 542.51 33.79 543.34 36.89 545.88"/>
  <rect x="29.11" y="205.18" width="1.53" height="5.04"/>
  <polygon points="38.46 242.28 35.35 243.11 38.45 245.65 38.46 242.28"/>
  <polygon points="44.69 208.54 41.59 211.08 44.7 211.91 44.69 208.54"/>
  <polygon points="4.1 267.58 1 270.11 4.11 270.94 4.1 267.58"/>
  <rect x="99.37" y="240.6" width="1.53" height="5.04"/>
  <path d="M50.95,373.82l-.76-5.01c-1.69,1.49-2.85,2.55-2.35,5.02h3.11Z"/>
  <polygon points="97.81 269.26 97.8 272.63 100.91 272.62 97.81 269.26"/>
  <polygon points="44.72 366.24 47.82 368.78 47.82 365.41 44.72 366.24"/>
  <polygon points="29.11 233.85 29.11 237.21 32.22 233.86 29.11 233.85"/>
  <rect x="35.35" y="471.68" width="4.67" height="1.65"/>
  <rect x="36.91" y="561.08" width="3.11" height="1.65"/>
  <rect x="35.36" y="549.26" width="1.53" height="3.36"/>
  <path d="M46.26,205.15c-.08-.54.22-1.43,0-1.65-.24-.24-5.7-1.95-6.22-1.69-.43,2.45,3.85,2.91,6.22,3.34Z"/>
  <path d="M-5.26,542.49l.81-10.07c-3.61,2.16-5.44,7.98-.81,10.07Z"/>
  <rect x="21.3" y="208.56" width="3.11" height="1.65"/>
  <rect x="47.85" y="532.39" width="1.53" height="3.36"/>
  <rect x="19.75" y="211.92" width="1.53" height="3.36"/>
  <rect x="29.11" y="218.67" width="1.53" height="3.36"/>
  <rect x="15.06" y="222.04" width="1.53" height="3.36"/>
  <rect x="100.93" y="491.91" width="1.53" height="3.36"/>
  <rect x="40.03" y="228.8" width="3.11" height="1.65"/>
  <rect x="29.11" y="242.29" width="3.11" height="1.65"/>
  <path d="M77.48,260.82v-8.41h-1.53c-1,3.11-1,5.29,0,8.41h1.53Z"/>
  <rect x="99.37" y="252.4" width="1.53" height="3.36"/>
  <rect x="113.42" y="400.83" width="1.53" height="3.36"/>
  <rect x="99.37" y="397.46" width="1.53" height="3.36"/>
  <rect x="82.19" y="257.47" width="3.11" height="1.65"/>
  <rect x="99.37" y="385.65" width="1.53" height="3.36"/>
  <path d="M77.48,267.57c.51-2.47-.66-3.52-2.34-5.02l.81,5.02h1.53Z"/>
  <rect x="111.86" y="265.9" width="1.53" height="3.36"/>
  <rect x="105.61" y="279.39" width="1.53" height="3.36"/>
  <rect x="5.69" y="269.27" width="1.53" height="3.36"/>
  <rect x="111.86" y="370.47" width="1.53" height="3.36"/>
  <rect x="97.81" y="279.39" width="1.53" height="3.36"/>
  <rect x="82.19" y="365.42" width="3.11" height="1.65"/>
  <path d="M59.53,284.41c1.68-1.49,2.86-2.55,2.34-5.02h-1.53l-.81,5.02Z"/>
  <rect x="111.85" y="270.97" width="3.11" height="1.65"/>
  <rect x="110.29" y="346.87" width="3.11" height="1.65"/>
  <path d="M81.4,554.31v1.69c1.01-.56,1.01-1.12,0-1.69Z"/>
  <path d="M79.84,537.45c1.01-.56,1.01-1.12,0-1.69v1.69Z"/>
  <path d="M53.3,534.07v1.69c1.01-.56,1.01-1.12,0-1.69Z"/>
  <path d="M75.15,532.39v1.69c1.01-.56,1.01-1.12,0-1.69Z"/>
  <path d="M86.08,517.21v1.69c1.01-.56,1.01-1.12,0-1.69Z"/>
  <path d="M100.13,404.2c1.01-.56,1.01-1.12,0-1.69v1.69Z"/>
  <path d="M100.13,392.39v1.69c1.01-.56,1.01-1.12,0-1.69Z"/>
  <path d="M92.33,385.64v1.69c1.01-.56,1.01-1.12,0-1.69Z"/>
  <path d="M82.94,372.18c-1.54,1.17.84,2.32,1.59,3.31,1.55-1.11-.73-2.23-1.59-3.31Z"/>
  <path d="M112.62,367.09v1.69c1.01-.56,1.01-1.12,0-1.69Z"/>
  <path d="M82.96,360.34v1.69c1.01-.56,1.01-1.12,0-1.69Z"/>
  <path d="M43.93,356.97c1.01-.56,1.01-1.12,0-1.69v1.69Z"/>
  <path d="M81.4,351.91v1.69c1.01-.56,1.01-1.12,0-1.69Z"/>
  <path d="M48.61,351.91v1.69c1.01-.56,1.01-1.12,0-1.69Z"/>
  <path d="M87.64,345.16v1.69c1.01-.56,1.01-1.12,0-1.69Z"/>
  <path d="M84.52,343.48v1.69c1.01-.56,1.01-1.12,0-1.69Z"/>
  <path d="M114.18,335.04v1.69c1.01-.56,1.01-1.12,0-1.69Z"/>
  <path d="M50.17,333.36c1.01-.56,1.01-1.12,0-1.69v1.69Z"/>
  <path d="M45.49,321.55c1.01-.56,1.01-1.12,0-1.69v1.69Z"/>
  <path d="M53.3,318.18c1.01-.56,1.01-1.12,0-1.69v1.69Z"/>
  <path d="M51.74,314.8c1.01-.56,1.01-1.12,0-1.69v1.69Z"/>
  <path d="M-7.59,306.37c1.01-.56,1.01-1.12,0-1.69v1.69Z"/>
  <path d="M104.83,287.82c.52-.86,1.26-.89,0-1.65-3.52,2.56-1.93,4.85,0,1.65Z"/>
  <path d="M89.21,286.13v1.69c1.01-.56,1.01-1.12,0-1.69Z"/>
  <path d="M89.21,281.07v1.69c1.01-.56,1.01-1.12,0-1.69Z"/>
  <path d="M90.77,276.01v1.69c1.01-.56,1.01-1.12,0-1.69Z"/>
  <path d="M82.96,276.01v1.69c1.01-.56,1.01-1.12,0-1.69Z"/>
  <path d="M90.78,274.29c1.55-1.11-.73-2.23-1.59-3.31-1.54,1.17.84,2.32,1.59,3.31Z"/>
  <path d="M82.96,269.26v1.69c1.01-.56,1.01-1.12,0-1.69Z"/>
  <path d="M90.77,264.2v1.69c1.01-.56,1.01-1.12,0-1.69Z"/>
  <path d="M4.9,264.2v1.69c1.01-.56,1.01-1.12,0-1.69Z"/>
  <path d="M3.34,257.46v1.69c1.01-.56,1.01-1.12,0-1.69Z"/>
  <path d="M97.01,254.08v1.69c1.01-.56,1.01-1.12,0-1.69Z"/>
  <path d="M22.07,240.59v1.69c1.01-.56,1.01-1.12,0-1.69Z"/>
  <path d="M100.13,237.22v1.69c1.01-.56,1.01-1.12,0-1.69Z"/>
  <path d="M22.07,233.84v1.69c1.01-.56,1.01-1.12,0-1.69Z"/>
  <path d="M73.59,232.16v1.69c1.01-.56,1.01-1.12,0-1.69Z"/>
  <path d="M22.07,227.1v1.69c1.01-.56,1.01-1.12,0-1.69Z"/>
  <path d="M22.07,220.35v1.69c1.01-.56,1.01-1.12,0-1.69Z"/>
  <path d="M15.83,215.29v1.69c1.01-.56,1.01-1.12,0-1.69Z"/>
  <path d="M56.42,215.29c1.01-.56,1.01-1.12,0-1.69v1.69Z"/>
  <path d="M57.98,210.23c1.01-.56,1.01-1.12,0-1.69v1.69Z"/>
  <path d="M3.34,206.85v1.69c1.01-.56,1.01-1.12,0-1.69Z"/>
  <path d="M14.27,201.79c1.01-.56,1.01-1.12,0-1.69v1.69Z"/>
  <path d="M80.63,473.36l-1.55,18.55c5.96-.75,10.23-11.9,7.55-16.61-.33-.58-5.52-2.53-5.99-1.94Z"/>
  <path d="M26.76,397.45v1.69c1.01-.56,1.01-1.12,0-1.69Z"/>
</svg>