<?xml version="1.0" encoding="UTF-8"?>
<svg id="Layer_1" xmlns="http://www.w3.org/2000/svg" version="1.1" viewBox="0 0 1920 1080">
  <!-- Generator: Adobe Illustrator 29.5.1, SVG Export Plug-In . SVG Version: 2.1.0 Build 141)  -->
  <defs>
    <style>
      .st0 {
        fill: #fff;
      }
    </style>
  </defs>
  <path class="st0" d="M17.81,388.27v2.26c1.39-.75,1.39-1.51,0-2.26Z"/>
  <rect class="st0" x="23.17" y="390.54" width="4.28" height="36.23"/>
  <rect class="st0" x="57.46" y="463" width="4.26" height="4.5"/>
  <rect class="st0" x="72.47" y="463" width="2.1" height="4.51"/>
  <path class="st0" d="M27.44,508.27c-.93-11.89,2.77-25.43-3.18-36.21l-1.16,28.38,4.35,7.84h-.01Z"/>
  <rect class="st0" x="63.9" y="472.06" width="2.1" height="4.51"/>
  <path class="st0" d="M74.59,474.34c-8.36-1.64-2.79,13.72-4.26,18.09l4.26-18.09Z"/>
  <rect class="st0" x="51.05" y="494.7" width="2.1" height="4.51"/>
  <path class="st0" d="M74.56,510.54c.05-4.98,1.23-11.84-4.24-13.59-.05,4.98-1.23,11.84,4.24,13.59Z"/>
  <path class="st0" d="M60.66,499.21v2.26c1.39-.75,1.39-1.51,0-2.26Z"/>
  <path class="st0" d="M17.81,512.8v2.26c1.39-.75,1.39-1.51,0-2.26Z"/>
  <rect class="st0" x="61.74" y="515.07" width="4.26" height="4.5"/>
  <path class="st0" d="M102.41,825.25l-4.13,5.49,10.61,59-6.45,2.3c14.5,2.73,3,6.8,1.71,11.1-1.47,4.88.2,9.94-1.48,14.72l6.17,2.5,2.14-6.81,2.14,22.62-6.38-13.58c.4,2.06-1.35,4.23-1.24,5.72.35,4.97,8.39,33.13,10.44,40.04.7,2.37.55,6.84,3.62,6.3l-6.38-36.2c5.68,1.44,2.81,23.97,10.72,19.2l-21.48-132.42h0Z"/>
  <path class="st0" d="M113.17,836.59c7.49-4.75,1.4,1.75.9,4.36-.57,2.92-1.31,9.13,2.3,9.14,4.85.01.03-13.17,5.31-14.67l-8.5,1.14h-.01Z"/>
  <path class="st0" d="M13.53,834.32v2.26c1.39-.75,1.39-1.51,0-2.26Z"/>
  <path class="st0" d="M28.53,834.32v2.26c1.39-.75,1.39-1.51,0-2.26Z"/>
  <path class="st0" d="M48.87,841.09c2.2-2.34-4.26-9.08-6.41-6.77s4.26,9.08,6.41,6.77Z"/>
  <polygon class="st0" points="63.87 843.35 63.86 838.84 59.6 842.25 63.87 843.35"/>
  <polygon class="st0" points="31.74 859.23 27.47 859.23 27.48 866 31.72 862.58 31.74 859.23"/>
  <path class="st0" d="M59.59,863.71c1.04-.86-3.74-5.99-6.42-4.48-1.04.86,3.74,5.99,6.42,4.48Z"/>
  <polygon class="st0" points="14.61 865.99 10.34 861.48 10.32 865.99 14.61 865.99"/>
  <rect class="st0" x="119.6" y="863.75" width="4.26" height="4.5"/>
  <rect class="st0" x="46.75" y="870.56" width="4.27" height="2.22"/>
  <rect class="st0" x="18.9" y="872.82" width="4.26" height="4.5"/>
  <rect class="st0" x="100.32" y="877.34" width="2.1" height="4.51"/>
  <path class="st0" d="M28.53,897.71v2.26c1.39-.75,1.39-1.51,0-2.26Z"/>
  <path class="st0" d="M99.23,915.82v2.26c1.39-.75,1.39-1.51,0-2.26Z"/>
  <polygon class="st0" points="25.3 931.67 24.25 924.88 21.07 928.28 25.3 931.67"/>
  <rect class="st0" x="100.32" y="933.95" width="2.1" height="6.77"/>
  <polygon class="st0" points="44.58 940.71 44.57 936.2 40.33 939.6 44.58 940.71"/>
  <polygon class="st0" points="14.59 945.24 13.54 938.47 10.34 941.89 10.32 945.24 14.59 945.24"/>
  <path class="st0" d="M6.03,940.72c-5.21-.31-3.77-.73-4.16,3.39-.75,8.11,3.31,17.78-.11,26.02,1.91-1.12,16.97.57,13.94-4.52l-7.45-3.54c4.05-11.16-4.44-9.99-2.22-21.35h0Z"/>
  <rect class="st0" x="53.18" y="940.75" width="4.27" height="2.22"/>
  <path class="st0" d="M101.38,945.26v2.26c1.39-.75,1.39-1.51,0-2.26Z"/>
  <rect class="st0" x="12.48" y="954.32" width="2.1" height="4.51"/>
  <rect class="st0" x="23.18" y="954.34" width="4.27" height="2.22"/>
  <path class="st0" d="M102.43,961.11c-7.85.04-7.85,6.73,0,6.77v-6.77Z"/>
  <path class="st0" d="M75.67,970.16v2.26c1.39-.75,1.39-1.51,0-2.26Z"/>
  <path class="st0" d="M56.08,269.49v45.67l-4.78-21.52-15.31-4.38c.08-3.41,13.57-21.18,20.08-19.76h.01Z"/>
  <path class="st0" d="M46.07,202.51l-2.25-3.15-11.04,1.67c3.03-14.65,6.63-13.52,19.93-19.82v24.35c-1.33.97-4.24-2.71-6.64-3.04l6.61,13.74-8.28-4.55-5.01,6.05c17.74,3.11,18.17,16.69,16.7,30.45-3.29,2.69-19.37-8.38-20.04-9.21-.75-.94,12.77-13.45,3.34-21.24-.62-.51-4.59.62-6.46-.18l6.52-15.03c2.15.07,4.51-.32,6.63-.03Z"/>
  <path class="st0" d="M23.52,285.66c-1.71,2.05.39,13.27-7.47,8.13-.65-.43-2.96-9.47-10.02-10.6,5.54-.74,9.72-9.93,10.45-10.13,3.72-1.08,8.34,7.72,11.19-3.56,13.39,11-.51,11.81-4.15,16.16h0Z"/>
  <path class="st0" d="M86.14,272.53c4.11,19.31-6.05,14.19-12.46,19.02-4.08,3.07-1.37,11.69-7.54,11.42l6.72-30.41h13.28v-.03Z"/>
  <path class="st0" d="M193.07,978.82l-3.42-25.74c-1.23-8.16-13.35-10.48,1.8-19.9-1.68,9.08,7.22,21.14,7.73,26.38.4,4.05-9.12,12.19-6.1,19.26h-.01Z"/>
  <path class="st0" d="M122.55,756.88c3.45,35.47-25.74,19.24-9.2-3.06l9.2,3.06Z"/>
  <path class="st0" d="M152.94,631.79l6.75,12.12c-18.54-3.43-21.51,13.68-40.11,6.09-2.21-9.53,2.91-3.61,5.62-4.22,5-1.12,15.3-1.98,19.14-4.61,4.75-3.25-2.2-11.78,8.61-9.39h0Z"/>
  <polygon class="st0" points="119.61 668.32 101.46 668.35 99.57 656.14 104.53 662.31 111.21 662.31 119.56 653.09 119.61 668.32"/>
  <path class="st0" d="M126.28,619.62c-4.43,6.17-8.05,7.68-3.34,15.16l-16.65-10.63,19.99-4.54Z"/>
  <path class="st0" d="M68.89,412.24l-8.89.73-3.87,8.71c-7.62-11.95,2.56-15.81,13.29-21.29l-.53,11.85h-.01Z"/>
  <path class="st0" d="M59.41,345.58c-15.3.83-17.33-7.1-5-15.15,6.28,3.74,5.4,8.78,5,15.15Z"/>
  <polygon class="st0" points="199.78 759.65 196.53 770.36 186.45 771.8 189.69 761.08 199.78 759.65"/>
  <path class="st0" d="M179.78,1009.28c-4.35-4.43,9.35-16.11,13.31-18.25,2.15,10.83-2.79,14.96-13.31,18.25Z"/>
  <path class="st0" d="M123.85,372.43c1.75,9.09-14.13-.93-19.27,2.24,2.87-7.38,13.4.08,19.27-2.24Z"/>
  <path class="st0" d="M239.89,811.41c1.31,5.74-4.28,8.2-8.34,12.11-10.65-9.93-6.22-14.19,8.34-12.11Z"/>
  <polygon class="st0" points="117.46 689.41 116.36 682.59 113.19 687.12 108.88 680.37 119.65 681.41 117.46 689.41"/>
  <path class="st0" d="M59.41,561.78c-.05,7.84-16.04,2.44-16.67,3.03l3.27,7.65-6.61,1.45-.03-12.15h20.05-.01Z"/>
  <path class="st0" d="M100.28,725.63c1.66,8.57-10.99,3.12-14.98,4.51-1.79-8.55,10.19.18,14.98-4.51Z"/>
  <path class="st0" d="M146.29,226.88l3.37,12.15h-9.97l-3.31-7.6c2.96-3.25,5.04-5.51,9.91-4.55h0Z"/>
  <path class="st0" d="M156.35,123.39c-2.03,6.87-10.32,6.48-16.69,6.03v-6.05h16.69Z"/>
  <path class="st0" d="M56.1,601.31l-6.68,3.04,6.64,6.11c-10.53-2.99-11.46-4.89-9.98-15.2l10.01,6.05h.01Z"/>
  <path class="st0" d="M183.07,418.68l-4.98,15.19c-7.08-3.99-1.35-8.89-1.66-15.22l6.64.03h0Z"/>
  <path class="st0" d="M199.78,686.58v9.1h-9.99c-1.09-5.55,3.68-10.07,9.99-9.1Z"/>
  <path class="st0" d="M169.68,802.25c-8.47-2.34-6.83-11.58-6.61-18.25h3.27l3.34,18.25Z"/>
  <path class="st0" d="M196.43,917.96l-1.64,12.15c-5.14-3.29-5.82-6.53-5.01-12.15h6.65Z"/>
  <path class="st0" d="M76.14,561.78l-8.34,12.13-4.96-4.55c4.28-3.72,6.98-8.81,13.31-7.58h-.01Z"/>
  <rect class="st0" x="176.41" y="357.79" width="6.65" height="9.1"/>
  <polygon class="st0" points="113.15 723.36 108.88 723.36 108.89 716.57 113.13 720.01 113.15 723.36"/>
  <polygon class="st0" points="99.52 418.68 99.5 424.75 89.54 424.75 89.52 418.68 99.52 418.68"/>
  <polygon class="st0" points="56.07 169.01 49.42 169.01 49.45 159.89 56.06 164.5 56.07 169.01"/>
  <polygon class="st0" points="102.87 604.4 101.23 610.44 92.85 607.38 92.89 601.33 102.87 604.4"/>
  <polygon class="st0" points="46.05 129.47 44.41 138.56 39.41 133.96 39.4 129.47 46.05 129.47"/>
  <polygon class="st0" points="119.57 639.61 119.56 642.96 115.31 646.38 115.3 639.61 119.57 639.61"/>
  <polygon class="st0" points="132.43 680.37 129.24 684.82 123.88 682.58 123.88 680.37 132.43 680.37"/>
  <polygon class="st0" points="76.12 598.3 76.12 604.36 71.18 604.34 66.13 599.78 76.12 598.3"/>
  <polygon class="st0" points="196.45 713.95 186.45 713.96 186.45 707.9 191.39 707.91 196.45 713.95"/>
  <polygon class="st0" points="129.59 720.07 129.58 729.18 126.32 729.18 122.92 720.09 129.59 720.07"/>
  <rect class="st0" x="303.42" y="713.99" width="3.27" height="12.15"/>
  <rect class="st0" x="32.72" y="339.53" width="6.65" height="6.06"/>
  <rect class="st0" x="153.02" y="723.12" width="6.65" height="6.06"/>
  <rect class="st0" x="256.63" y="726.16" width="6.65" height="6.06"/>
  <polygon class="st0" points="102.86 513.03 92.86 513.01 92.88 510.02 102.84 506.95 102.86 513.03"/>
  <polygon class="st0" points="139.64 628.75 134.63 634.76 129.63 630.23 139.64 628.75"/>
  <polygon class="st0" points="293.35 799.19 286.68 799.18 290.06 790.1 293.34 790.09 293.35 799.19"/>
  <polygon class="st0" points="89.5 564.81 89.47 573.91 86.21 573.91 82.83 564.82 89.5 564.81"/>
  <polygon class="st0" points="263.28 741.35 253.29 741.34 253.29 738.36 263.25 735.28 263.28 741.35"/>
  <rect class="st0" x="39.4" y="525.23" width="6.65" height="6.06"/>
  <polygon class="st0" points="69.46 467.4 66.08 476.49 62.81 476.49 62.79 467.39 69.46 467.4"/>
  <polygon class="st0" points="86.13 263.4 79.54 258.83 84.51 254.28 86.13 263.4"/>
  <rect class="st0" x="29.37" y="610.48" width="6.65" height="6.06"/>
  <polygon class="st0" points="226.51 884.47 226.5 890.54 219.86 885.96 226.51 884.47"/>
  <rect class="st0" x="203.15" y="884.48" width="9.99" height="2.98"/>
  <polygon class="st0" points="316.54 549.39 306.8 551.13 313.46 537.42 316.54 549.39"/>
  <rect class="st0" x="115.3" y="662.26" width="6.41" height="2.22"/>
  <polygon class="st0" points="310.06 610.48 310.04 616.55 303.41 611.97 310.06 610.48"/>
  <polygon class="st0" points="92.85 522.14 86.18 522.16 86.2 516.08 92.85 522.14"/>
  <polygon class="st0" points="29.58 725.65 29.58 730.16 25.33 726.75 29.58 725.65"/>
  <polygon class="st0" points="226.51 930.13 226.5 936.21 219.86 931.63 226.51 930.13"/>
  <rect class="st0" x="179.78" y="406.5" width="3.27" height="9.1"/>
  <path class="st0" d="M189.73,379.07h-3.27c-.82-5.59-.19-8.9,5.01-12.09l-1.74,12.09h0Z"/>
  <rect class="st0" x="306.76" y="817.49" width="3.27" height="9.1"/>
  <rect class="st0" x="72.81" y="717.04" width="9.99" height="2.98"/>
  <rect class="st0" x="66.15" y="248.19" width="3.27" height="9.1"/>
  <rect class="st0" x="259.98" y="753.57" width="3.27" height="9.1"/>
  <polygon class="st0" points="296.69 802.28 296.68 808.35 290.04 803.76 296.69 802.28"/>
  <rect class="st0" x="66.15" y="220.79" width="3.27" height="9.1"/>
  <polygon class="st0" points="52.73 150.77 52.72 156.85 46.08 152.27 52.73 150.77"/>
  <rect class="st0" x="189.8" y="138.6" width="3.27" height="6.06"/>
  <rect class="st0" x="126.29" y="150.79" width="6.65" height="2.98"/>
  <rect class="st0" x="290.04" y="162.96" width="6.65" height="2.98"/>
  <rect class="st0" x="32.73" y="123.37" width="3.27" height="6.06"/>
  <polygon class="st0" points="290.06 774.87 293.34 774.87 295.07 783.93 290.05 779.38 290.06 774.87"/>
  <rect class="st0" x="306.76" y="771.83" width="3.27" height="6.06"/>
  <rect class="st0" x="259.98" y="793.13" width="3.27" height="6.06"/>
  <rect class="st0" x="193.14" y="805.32" width="3.27" height="6.06"/>
  <rect class="st0" x="139.68" y="738.33" width="3.27" height="6.06"/>
  <rect class="st0" x="139.65" y="732.26" width="6.65" height="2.98"/>
  <rect class="st0" x="290.04" y="723.13" width="6.65" height="2.98"/>
  <rect class="st0" x="29.39" y="290.82" width="3.27" height="6.06"/>
  <rect class="st0" x="109.58" y="303.01" width="6.65" height="2.98"/>
  <polygon class="st0" points="136.34 717.03 139.61 717.03 141.35 726.08 136.32 721.54 136.34 717.03"/>
  <rect class="st0" x="189.8" y="981.89" width="3.27" height="6.06"/>
  <rect class="st0" x="193.14" y="814.45" width="3.27" height="6.06"/>
  <rect class="st0" x="276.69" y="814.45" width="3.27" height="6.06"/>
  <rect class="st0" x="139.68" y="357.79" width="3.27" height="6.06"/>
  <rect class="st0" x="96.23" y="686.58" width="3.27" height="6.06"/>
  <rect class="st0" x="183.12" y="394.33" width="3.27" height="6.06"/>
  <rect class="st0" x="249.93" y="677.46" width="6.65" height="2.98"/>
  <rect class="st0" x="115.31" y="598.85" width="2.1" height="4.51"/>
  <rect class="st0" x="123.88" y="601.13" width="4.27" height="2.22"/>
  <rect class="st0" x="293.4" y="461.3" width="3.27" height="6.06"/>
  <rect class="st0" x="273.34" y="847.96" width="6.65" height="2.98"/>
  <rect class="st0" x="290.06" y="847.94" width="3.27" height="6.06"/>
  <rect class="st0" x="239.91" y="927.1" width="6.65" height="2.98"/>
  <rect class="st0" x="29.37" y="622.66" width="6.65" height="2.98"/>
  <rect class="st0" x="290.04" y="494.81" width="6.65" height="2.98"/>
  <rect class="st0" x="61.75" y="725.65" width="2.1" height="4.51"/>
  <polygon class="st0" points="57.45 725.65 57.45 727.87 51.06 729.04 54.27 725.65 57.45 725.65"/>
  <polygon class="st0" points="52.7 625.67 52.45 617.9 46.08 613.53 52.7 625.67"/>
  <rect class="st0" x="74.6" y="721.12" width="4.27" height="2.22"/>
  <rect class="st0" x="122.95" y="607.45" width="6.65" height="2.98"/>
  <rect class="st0" x="102.47" y="662.24" width="2.1" height="4.51"/>
  <rect class="st0" x="29.37" y="595.27" width="6.65" height="2.98"/>
  <rect class="st0" x="87.46" y="700.73" width="2.1" height="4.51"/>
  <polygon class="st0" points="106.71 687.13 104.61 687.13 103.49 680.4 106.71 683.78 106.71 687.13"/>
  <path class="st0" d="M124.94,691.67c1.39.75,1.39,1.51,0,2.26v-2.26Z"/>
  <path class="st0" d="M54.42,570.88c2.17,1.01,2.17,2.03,0,3.04v-3.04Z"/>
  <path class="st0" d="M131.37,687.15c1.39.75,1.39,1.51,0,2.26v-2.26Z"/>
  <path class="st0" d="M94.52,564.8c2.17,1.01,2.17,2.03,0,3.04v-3.04Z"/>
  <path class="st0" d="M44.4,580.01c2.17,1.01,2.17,2.03,0,3.04v-3.04Z"/>
  <path class="st0" d="M75.67,680.34c1.39.75,1.39,1.51,0,2.26v-2.26Z"/>
  <path class="st0" d="M71.4,698.51c2.13,1.48-1,2.99-2.18,4.44l-1.01-1.06,3.19-3.37h0Z"/>
  <path class="st0" d="M178.07,586.1c2.17,1.01,2.17,2.03,0,3.04v-3.04Z"/>
  <path class="st0" d="M77.81,700.72c1.39.75,1.39,1.51,0,2.26v-2.26Z"/>
  <path class="st0" d="M47.74,552.62c2.17,1.01,2.17,2.03,0,3.04v-3.04Z"/>
  <path class="st0" d="M114.22,702.98c1.39.75,1.39,1.51,0,2.26v-2.26Z"/>
  <path class="st0" d="M124.94,705.26c1.39.75,1.39,1.51,0,2.26v-2.26Z"/>
  <path class="st0" d="M141.31,543.48c2.17,1.01,2.17,2.03,0,3.04v-3.04Z"/>
  <path class="st0" d="M109.94,664.49c1.39.75,1.39,1.51,0,2.26v-2.26Z"/>
  <path class="st0" d="M90.66,659.97c1.39.75,1.39,1.51,0,2.26v-2.26Z"/>
  <path class="st0" d="M71.37,659.97c1.39.75,1.39,1.51,0,2.26v-2.26Z"/>
  <path class="st0" d="M109.94,712.05c1.39.75,1.39,1.51,0,2.26v-2.26Z"/>
  <path class="st0" d="M127.08,655.44c1.39.75,1.39,1.51,0,2.26v-2.26Z"/>
  <path class="st0" d="M52.1,655.44c1.39.75,1.39,1.51,0,2.26v-2.26Z"/>
  <path class="st0" d="M90.66,650.92c1.39.75,1.39,1.51,0,2.26v-2.26Z"/>
  <path class="st0" d="M120.65,648.64c1.39.75,1.39,1.51,0,2.26v-2.26Z"/>
  <path class="st0" d="M97.86,516.08c2.17,1.01,2.17,2.03,0,3.04v-3.04Z"/>
  <path class="st0" d="M88.51,644.12c1.39.75,1.39,1.51,0,2.26v-2.26Z"/>
  <path class="st0" d="M109.94,641.86c1.39.75,1.39,1.51,0,2.26v-2.26Z"/>
  <path class="st0" d="M94.94,721.1c1.39.75,1.39,1.51,0,2.26v-2.26Z"/>
  <path class="st0" d="M37.1,725.63c1.39.75,1.39,1.51,0,2.26v-2.26Z"/>
  <path class="st0" d="M103.52,630.54c1.39.75,1.39,1.51,0,2.26v-2.26Z"/>
  <path class="st0" d="M278.33,479.55c2.17,1.01,2.17,2.03,0,3.04v-3.04Z"/>
  <path class="st0" d="M231.54,479.55c2.17,1.01,2.17,2.03,0,3.04v-3.04Z"/>
  <path class="st0" d="M104.55,476.5c2.17,1.01,2.17,2.03,0,3.04v-3.04Z"/>
  <path class="st0" d="M73.53,614.69c1.39.75,1.39,1.51,0,2.26v-2.26Z"/>
  <path class="st0" d="M34.36,455.2c2.17,1.01,2.17,2.03,0,3.04v-3.04Z"/>
  <path class="st0" d="M248.25,449.11c2.17,1.01,2.17,2.03,0,3.04v-3.04Z"/>
  <path class="st0" d="M291.69,436.92c2.17,1.01,2.17,2.03,0,3.04v-3.04Z"/>
  <path class="st0" d="M154.68,656.13c2.17,1.01,2.17,2.03,0,3.04v-3.04Z"/>
  <path class="st0" d="M308.41,662.22c2.17,1.01,2.17,2.03,0,3.04v-3.04Z"/>
  <path class="st0" d="M54.42,397.36c2.17,1.01,2.17,2.03,0,3.04v-3.04Z"/>
  <path class="st0" d="M81.16,385.17c2.17,1.01,2.17,2.03,0,3.04v-3.04Z"/>
  <path class="st0" d="M24.25,782.24c1.39.75,1.39,1.51,0,2.26v-2.26Z"/>
  <path class="st0" d="M111.23,698.74c2.17,1.01,2.17,2.03,0,3.04v-3.04Z"/>
  <path class="st0" d="M141.31,698.74c2.17,1.01,2.17,2.03,0,3.04v-3.04Z"/>
  <path class="st0" d="M214.84,701.8c2.17,1.01,2.17,2.03,0,3.04v-3.04Z"/>
  <path class="st0" d="M77.81,707.88c2.17,1.01,2.17,2.03,0,3.04v-3.04Z"/>
  <path class="st0" d="M111.23,717.02c2.17,1.01,2.17,2.03,0,3.04v-3.04Z"/>
  <path class="st0" d="M144.65,302.98c2.17,1.01,2.17,2.03,0,3.04v-3.04Z"/>
  <path class="st0" d="M131.29,302.98c2.17,1.01,2.17,2.03,0,3.04v-3.04Z"/>
  <path class="st0" d="M97.86,302.98c2.17,1.01,2.17,2.03,0,3.04v-3.04Z"/>
  <path class="st0" d="M81.16,302.98c2.17,1.01,2.17,2.03,0,3.04v-3.04Z"/>
  <path class="st0" d="M117.91,720.06c2.17,1.01,2.17,2.03,0,3.04v-3.04Z"/>
  <path class="st0" d="M124.94,487.9c1.39.75,1.39,1.51,0,2.26v-2.26Z"/>
  <path class="st0" d="M101.2,290.8c2.17,1.01,2.17,2.03,0,3.04v-3.04Z"/>
  <path class="st0" d="M114.22,478.83c1.39.75,1.39,1.51,0,2.26v-2.26Z"/>
  <path class="st0" d="M81.16,732.23c2.17,1.01,2.17,2.03,0,3.04v-3.04Z"/>
  <path class="st0" d="M158.02,260.35c2.17,1.01,2.17,2.03,0,3.04v-3.04Z"/>
  <path class="st0" d="M124.59,260.35c2.17,1.01,2.17,2.03,0,3.04v-3.04Z"/>
  <path class="st0" d="M131.29,741.36c2.17,1.01,2.17,2.03,0,3.04v-3.04Z"/>
  <path class="st0" d="M274.98,741.36c2.17,1.01,2.17,2.03,0,3.04v-3.04Z"/>
  <path class="st0" d="M114.22,449.41c1.39.75,1.39,1.51,0,2.26v-2.26Z"/>
  <path class="st0" d="M104.55,245.14c2.17,1.01,2.17,2.03,0,3.04v-3.04Z"/>
  <path class="st0" d="M191.44,235.99c2.17,1.01,2.17,2.03,0,3.04v-3.04Z"/>
  <path class="st0" d="M67.79,232.95c2.17,1.01,2.17,2.03,0,3.04v-3.04Z"/>
  <path class="st0" d="M127.95,190.34c2.17,1.01,2.17,2.03,0,3.04v-3.04Z"/>
  <path class="st0" d="M161.36,156.85c2.17,1.01,2.17,2.03,0,3.04v-3.04Z"/>
  <path class="st0" d="M274.95,781.01c1.85,1.94,6.73,3.97,3.41,5.97-1.62-1.79-6.71-3.85-3.41-5.97Z"/>
  <path class="st0" d="M81.16,150.76c2.17,1.01,2.17,2.03,0,3.04v-3.04Z"/>
  <path class="st0" d="M141.31,787.03c2.17,1.01,2.17,2.03,0,3.04v-3.04Z"/>
  <path class="st0" d="M111.23,147.71c2.17,1.01,2.17,2.03,0,3.04v-3.04Z"/>
  <path class="st0" d="M194.78,796.16c2.17,1.01,2.17,2.03,0,3.04v-3.04Z"/>
  <path class="st0" d="M37.72,382.13c2.17,1.01,2.17,2.03,0,3.04v-3.04Z"/>
  <path class="st0" d="M278.33,808.35c2.17,1.01,2.17,2.03,0,3.04v-3.04Z"/>
  <path class="st0" d="M71.13,832.7c2.17,1.01,2.17,2.03,0,3.04v-3.04Z"/>
  <path class="st0" d="M278.33,832.7c2.17,1.01,2.17,2.03,0,3.04v-3.04Z"/>
  <path class="st0" d="M224.86,847.92c2.17,1.01,2.17,2.03,0,3.04v-3.04Z"/>
  <path class="st0" d="M241.57,884.45c2.17,1.01,2.17,2.03,0,3.04v-3.04Z"/>
  <path class="st0" d="M274.98,890.54c2.17,1.01,2.17,2.03,0,3.04v-3.04Z"/>
  <path class="st0" d="M258.28,896.63c2.17,1.01,2.17,2.03,0,3.04v-3.04Z"/>
  <path class="st0" d="M224.86,966.66c2.17,1.01,2.17,2.03,0,3.04v-3.04Z"/>
  <path class="st0" d="M221.52,991.01c2.17,1.01,2.17,2.03,0,3.04v-3.04Z"/>
</svg>