<?xml version="1.0" encoding="UTF-8"?>
<svg id="Layer_1" xmlns="http://www.w3.org/2000/svg" version="1.1" viewBox="0 0 1920 1080">
  <!-- Generator: Adobe Illustrator 29.5.1, SVG Export Plug-In . SVG Version: 2.1.0 Build 141)  -->
  <defs>
    <style>
      .st0 {
        fill: #fff;
      }
    </style>
  </defs>
  <text/>
  <g id="doaL8L.tif">
    <g>
      <path class="st0" d="M994.05,1027.77c-5.26-1.17-1.51,2.4-2.42,3.41-1.5,1.68-4.34.74-3.93,3.29l5.61-1.62.74-5.08Z"/>
      <polygon class="st0" points="1006.78 1032.81 1002.02 1033.64 1004.43 1036.15 1006.78 1036.16 1006.78 1032.81"/>
      <polygon class="st0" points="990.87 1039.54 986.11 1039.55 986.12 1041.19 990.86 1042.89 990.87 1039.54"/>
      <path class="st0" d="M976.57,1047.92l-1.58-3.34c-5.3,16.53,5.99,10.17,15.89,10.06l-6.38-4.19,6.38-5.87c-4.68-1.31-1.77,3.21-5.5,3.44-3.14.19-4.48.24-4.07-3.44l-1.57,3.33h-3.17Z"/>
      <path class="st0" d="M980.54,1071.47v1.68c1.03-.56,1.03-1.12,0-1.68Z"/>
      <path class="st0" d="M968.61,1078.2h-1.59c.48-.61,1-1.19,1.59-1.68v1.68Z"/>
      <path class="st0" d="M745.89,1059.71c-.66.31-1.44,3.26-2.71,3.41-3.43-2.83-13.35.74-14.77-2.59-1.47-3.43,3.08-2.57,4.76-2.51l-4.82-4.2v-3.35s3.22-2.49,3.22-2.49c-5.69.78-1.23-8.04-6.32-10.99l-.03-2.48h4.78s-1.49-5.93-1.49-5.93l2.3-2.45,2.39,8.38,6.28-3.35c-.31,3.03,2.37,3.77,3.24,5.02l1.59,3.36-.02,5.04-6.34-1.67,3.16,5.03-6.35,1.67,11.13.03c1.18,5.08-5.89,4.55-7.96,7.56l5.58-2.52c2.27,1.35,1.75,3.33,2.39,5.04Z"/>
      <polygon class="st0" points="734.75 1042.9 731.57 1042.91 733.97 1046.25 734.75 1042.9"/>
      <rect class="st0" x="733.17" y="1051.32" width="3.17" height="1.65"/>
      <path class="st0" d="M742.71,1036.17l.82-1.69,5.53,1.68-.82-6.69c5.11.59,2.45,4.95,3.92,5.85,3.92,2.4,6.24-2.09,3.29,5.88l3.89-6.59,7.89-.1,4.93,4.97c3.97-3.39,3.97-6.97,2.38-11.71,5.47-4.97,8.61,13.6,8.95,17.72.49,5.92-3.46,17.42,2.16,20.94-.85-2.98.99-4.74,1.61-6.73l.8,1.65c.97.11.71-1.62.8-1.65,4.6-1.79,3.14,1.53,1.6-5.03,12.86.47,7.81-1.32,11.27,8.8,1.12,3.29,1.17-1.75,1.52,5.25.03.56,5.3,4.84,4.7,9.47h-41.36c.99-3.83,3.81-16.55-1.58-15.15v-1.63c4.97.76,3.01-4.5,3.18-8.42,5.11-1.47,4.62,9.49,4.66,12.55.04,2.34-1.56,5.3-1.32,6.66.46,2.57,5.41,3.48,6.18,2.64,2.99-3.26-3.22-5.53-3.25-5.9-.36-4.17,3.2-5.4,3.31-8.38.05-1.31-4.97.22-3.22-4.2l4.73.85-3.16-9.27c-5.71,2.53-13.75,4.42-19.08,6.74-.69-1.09-1.52.05-1.59,0-1.97-1.35-3.92-3.09-6.35-3.38l4.79-1.67-.75-8.38c-2.51-3.04-5.5-2.95-8.83-1.69.35-1.89-.9-2.39-1.59-3.36Z"/>
      <polygon class="st0" points="766.56 1042.89 765.78 1037.86 763.42 1040.37 766.56 1042.89"/>
      <path class="st0" d="M776.91,1037.85v1.68c1.03-.56,1.03-1.12,0-1.68Z"/>
      <path class="st0" d="M780.09,1039.53v1.68c1.03-.56,1.03-1.12,0-1.68Z"/>
      <polygon class="st0" points="761.79 1042.9 758.62 1042.91 761.01 1046.25 761.79 1042.9"/>
      <rect class="st0" x="777.72" y="1042.9" width="1.56" height="3.35"/>
      <polygon class="st0" points="771.34 1044.59 768.17 1044.58 768.18 1047.94 771.34 1044.59"/>
      <polygon class="st0" points="799.98 1059.72 796.81 1059.71 796.81 1063.07 799.98 1059.72"/>
      <path class="st0" d="M795.2,1061.4c-3.01-.54-5.29,1.97-4.75,5.03l4.75-1.7v-3.33Z"/>
      <path class="st0" d="M788.84,1069.8h-6.35s0,2.49,0,2.49c1.67,2.64,3.41,2.93,6.34,2.54v-5.03Z"/>
      <path class="st0" d="M798.23,1071.73c-5.3-1.82-8.4-2.71-7.78,4.78l7.24-.5.54-4.28Z"/>
      <polygon class="st0" points="803.15 1074.83 803.15 1071.47 799.99 1074 803.15 1074.83"/>
      <path class="st0" d="M788.84,1059.71h-1.59c.36-1.17-.8-3.4.8-3.38l.8,3.38Z"/>
      <path class="st0" d="M757.03,1054.66c1.88,7.73-3.56,2.8-3.15,4.19l2.39,2.55,7.11-3.36c-3.05,7.41,2.44,12.32,0,20.16h-7.95c2.3-10.03-9.19-1.15-9.53-1.68l-.03-5.05-3.99,3.34-3.11-3.36c-3.54,4.23-5.39,2.15-8.79,1.7-.32.89.82,3.48-.79,3.36l-2.4-3.34c1.05,0,2.15-.15,3.18-.01.22-.61-.42-2.3.29-2.96l22.02.56,1.56-7.68-7.96-.04c-.31-1.03.27-2.61,0-3.33,3.31-1.56,7.46-4.13,9.54-5.04.45-.2,1.14.2,1.59,0Z"/>
      <path class="st0" d="M814.3,1078.2c3.74-7.08.71-10.31.05-17.67l11.06,4.22c-.14-6.7,4.03-11.55-3.14-14.27,2.17-3.82,3.02-6.91,7.93-5.89-3.63,8.4.69,17.94,0,26.88.32-.34,4.57,1.45,3.2-5.03l3.15,3.34,4.78-11.75.03,8.4,6.34-3.35-3.2,2.72.04,5.67c3.92-1.52,6.25-1.13,7.95,3.34l-21.61-1.52-3.85,3.21c-.23-.23,2.6-4.4,3.18-5.03l-7.95-5.03,1.59,11.76h-9.54Z"/>
      <path class="st0" d="M838.95,1069.79v1.68c1.03-.56,1.03-1.12,0-1.68Z"/>
      <path class="st0" d="M860.43,1078.2c-.88-1-2.87-4.77-.79-5.05l3.97.02-1.59,5.03h-1.59Z"/>
      <path class="st0" d="M951.11,1078.2h-1.59,1.59Z"/>
      <path class="st0" d="M597.94,963.89l-1.58,5.02,4.75-1.67,3.16,12.61c-3.92,4.38-9.48,4.26-7.92-2.54l-6.35,1.71,6.35,5.87c-13.64.16-14.48-6.03-7.93-17.65l3.13,7.28,4.81,1.1-3.18-11.74h4.77Z"/>
      <rect class="st0" x="588.41" y="973.97" width="1.56" height="3.35"/>
      <path class="st0" d="M978.15,1014.33l-.9,6.79,7.26,2.44-4.8,5.86h-3.15s1.58-5,1.58-5c-9-1.69-7.81,5.17-10.33,11.75-3.16-3.36-3.63-16.74.62-17.57l-1.41-4.27h11.13Z"/>
      <path class="st0" d="M655.21,965.57c-2.3,9.69-7.31,3.72-13.61,6.49l-3.13,8.58-5.52,1.71c-.31-12.25,13.32-14.76,22.26-16.79Z"/>
      <polygon class="st0" points="927.23 1063.09 922.48 1064.77 925.67 1067.27 922.46 1068.95 927.26 1069.8 927.25 1074.83 919.3 1074.82 920.03 1063.07 927.23 1063.09"/>
      <path class="st0" d="M629.75,1064.76h7.95s-11.12,1.66-11.12,1.66v-20.16c5.32,1.65,2.23,17.51,3.17,18.49Z"/>
      <path class="st0" d="M903.38,982.36c-.87,1.13-2.13,1.45-2.7-1.59-.78-4.12.95-9.7-.54-14.07l4.82-2.82-1.58,18.48Z"/>
      <path class="st0" d="M911.34,1014.3l-4.88,1.21.09,3.83-4.76.02v-8.39c3.4-.04,8.26-.99,9.55,3.34Z"/>
      <path class="st0" d="M648.84,989.09c-5.79-4.12-9.68,5.34-14.27-.84l11.97-3.65,2.3,4.49Z"/>
      <path class="st0" d="M957.47,965.56c-1.74-.24-1.3,1.06-1.59,1.68-.67.5-2.97,1.96-3.17,1.68-.61-3.32,2.27-5.21,4.76-6.72.23.98-.23,2.39,0,3.36Z"/>
      <path class="st0" d="M1268.48,237.59v1.68c1.03-.56,1.03-1.12,0-1.68Z"/>
      <rect class="st0" x="1229.13" y="1639.79" width="3.17" height="8.39"/>
      <rect class="st0" x="1338.9" y="1644.83" width="1.56" height="3.35"/>
      <path class="st0" d="M1331.73,1646.51v1.68c1.03-.56,1.03-1.12,0-1.68Z"/>
      <polygon class="st0" points="1367.51 1651.54 1366.73 1646.51 1364.35 1649.05 1364.35 1651.54 1367.51 1651.54"/>
      <path class="st0" d="M1359.56,1649.88c-3.59,2.4-13.89-3.55-12.73,3.34,5.54.13,10.03,3.82,12.73-3.34Z"/>
      <path class="st0" d="M1331.73,1661.64v1.68c1.03-.56,1.03-1.12,0-1.68Z"/>
      <path class="st0" d="M1361.95,1668.36v1.68c1.03-.56,1.03-1.12,0-1.68Z"/>
      <path class="st0" d="M1353.19,1678.44c.91-.96-1.32-5-2.38-5-4.4,0-.03,7.54,2.38,5Z"/>
      <polygon class="st0" points="1364.33 1678.44 1363.55 1673.41 1359.57 1678.43 1364.33 1678.44"/>
      <polygon class="st0" points="1362.75 1680.15 1357.98 1680.14 1357.99 1685.17 1362.75 1680.15"/>
      <polygon class="st0" points="1283.2 1691.91 1280.03 1692.73 1283.19 1695.26 1283.2 1691.91"/>
      <path class="st0" d="M1240.24,1695.27c-5.9-1.4-2.27,8.2-3.16,11.76l3.16-11.76Z"/>
      <polygon class="st0" points="1297.51 1695.27 1294.35 1696.09 1297.51 1698.62 1297.51 1695.27"/>
      <rect class="st0" x="1431.16" y="1695.28" width="3.17" height="1.65"/>
      <rect class="st0" x="1318.21" y="1696.95" width="3.16" height="3.34"/>
      <path class="st0" d="M1482.06,1703.65c-8.13-.84-14.2-9.35-23.18-3.47l1.9,12c1.97.32,37.07-8.32,38.8-9.35.73-.43,2.02-2.06,1.57-2.52l-19.23-.92.15,4.25Z"/>
      <path class="st0" d="M1520.23,1708.72c-3.58,1.06-14.94.7-14.3,6.71l14.32-1.68-.02-5.03Z"/>
      <path class="st0" d="M1434.33,1713.76c-6.2-1.36-6.55,2.67-2.37,6.71l2.37-6.71Z"/>
      <polygon class="st0" points="1486.83 1715.45 1482.07 1715.44 1482.07 1718.79 1484.42 1718.78 1486.83 1715.45"/>
      <path class="st0" d="M1501.14,1715.44c-2.97-.43-5.5,0-6.35,3.34h6.35s0-3.34,0-3.34Z"/>
      <path class="st0" d="M1520.23,1717.13c-3.96.09-7.97-.19-11.94-.02-1.93.08-5.91-1.27-5.54,1.66,2.2.33,4.32.64,6.55.69,1.96.05,10.37.1,10.93-2.34Z"/>
      <path class="st0" d="M1439.9,1718.8v1.68c1.03-.56,1.03-1.12,0-1.68Z"/>
      <path class="st0" d="M1466.14,1718.81l-4.64,4.29c-1.87,1.35-5.96-3.98-4.89,2.42h9.54s-.02-6.71-.02-6.71Z"/>
      <path class="st0" d="M1480.47,1725.51c-.97-3.8-4.91-3.58-7.95-3.34v3.34s7.95,0,7.95,0Z"/>
      <path class="st0" d="M1497.96,1723.86c-3.37-.09-6.76-2.99-7.94,1.65h7.95s0-1.65,0-1.65Z"/>
      <path class="st0" d="M1518.64,1723.86c-2.94-1.08-4.99-1.08-7.93,0v1.64s7.93,0,7.93,0v-1.64Z"/>
      <rect class="st0" x="1346.85" y="1723.85" width="1.56" height="3.35"/>
      <rect class="st0" x="1437.52" y="1723.86" width="3.17" height="1.65"/>
      <polygon class="st0" points="1447.06 1723.86 1443.89 1723.85 1443.9 1727.2 1447.06 1723.86"/>
      <path class="st0" d="M1342.86,1732.25v1.68c1.03-.56,1.03-1.12,0-1.68Z"/>
      <path class="st0" d="M1250.59,1745.7v1.68c1.03-.56,1.03-1.12,0-1.68Z"/>
      <path class="st0" d="M1431.95,1759.15v1.68c1.03-.56,1.03-1.12,0-1.68Z"/>
      <rect class="st0" x="1292.76" y="1767.57" width="3.17" height="1.65"/>
      <rect class="st0" x="1299.13" y="1775.97" width="1.56" height="3.35"/>
      <rect class="st0" x="1291.17" y="1779.34" width="3.17" height="1.65"/>
      <path class="st0" d="M1433.54,1792.77v1.68c1.03-.56,1.03-1.12,0-1.68Z"/>
      <rect class="st0" x="1260.94" y="1797.82" width="3.16" height="3.34"/>
      <polygon class="st0" points="1435.92 1799.51 1432.75 1799.51 1432.76 1802.86 1435.92 1799.51"/>
      <polygon class="st0" points="1439.09 1806.22 1439.92 1801.21 1435.93 1802.88 1439.09 1806.22"/>
      <path class="st0" d="M1441.49,1806.22v1.68c1.03-.56,1.03-1.12,0-1.68Z"/>
      <path class="st0" d="M1314.23,1807.9v1.68c1.03-.56,1.03-1.12,0-1.68Z"/>
      <path class="st0" d="M1336.5,1821.35v1.68c1.03-.56,1.03-1.12,0-1.68Z"/>
      <rect class="st0" x="1429.57" y="1828.1" width="3.17" height="1.65"/>
      <rect class="st0" x="1264.12" y="1829.78" width="3.17" height="1.65"/>
      <path class="st0" d="M1446.27,1829.76v1.68c1.03-.56,1.03-1.12,0-1.68Z"/>
      <polygon class="st0" points="1326.14 1836.49 1319.81 1836.49 1319.8 1839.84 1326.15 1839.84 1326.14 1836.49"/>
      <path class="st0" d="M1337.28,1851.62c-1.09-5.41,5.35-14.7-3.16-15.12,2.24,4.76-2.19,12.72,3.16,15.12Z"/>
      <path class="st0" d="M1324.56,1843.23c-2.94-1.08-4.99-1.08-7.93,0v1.64s7.93,0,7.93,0v-1.64Z"/>
      <rect class="st0" x="1321.39" y="1849.94" width="3.16" height="3.34"/>
      <path class="st0" d="M1274.46,1853.3v1.68c1.03-.56,1.03-1.12,0-1.68Z"/>
      <path class="st0" d="M1329.33,1856.68c-3.37-.09-6.76-2.99-7.94,1.65h7.95s0-1.65,0-1.65Z"/>
      <rect class="st0" x="1175.42" y="938.67" width="3.17" height="1.65"/>
      <path class="st0" d="M1114.96,948.73c-.85-3.34-3.39-3.77-6.35-3.34v3.34s6.35,0,6.35,0Z"/>
      <rect class="st0" x="1118.15" y="945.4" width="3.17" height="1.65"/>
      <polygon class="st0" points="1000.42 958.86 994.06 957.17 998.06 962.18 1000.42 962.19 1000.42 958.86"/>
      <path class="st0" d="M1130.08,957.15v1.68c1.03-.56,1.03-1.12,0-1.68Z"/>
      <path class="st0" d="M1362.34,965.56v1.68c1.03-.56,1.03-1.12,0-1.68Z"/>
      <rect class="st0" x="979.76" y="970.61" width="1.56" height="3.35"/>
      <path class="st0" d="M983.72,970.6v1.68c1.03-.56,1.03-1.12,0-1.68Z"/>
      <path class="st0" d="M982.13,975.64v1.68c1.03-.56,1.03-1.12,0-1.68Z"/>
      <path class="st0" d="M990.08,982.37v1.68c1.03-.56,1.03-1.12,0-1.68Z"/>
      <path class="st0" d="M920.88,1012.63c-.16.17-1.77,3.21-1.59,3.36-.23-.53-2.33-1.11-1.59-3.36.97.13,2.49-.32,3.18,0Z"/>
      <path class="st0" d="M920.88,1012.63c1.53-1.57,4.04-1.73,5.59-3.33l.77,10.04-7.74-.26c-.78-.65.03-2.53-.21-3.09h3.17c.37-2.5.21-2.56-1.58-3.36Z"/>
      <polygon class="st0" points="672.69 992.45 669.63 990.08 671.93 973.97 672.69 992.45"/>
      <path class="st0" d="M825.43,1004.23l-4.76-.02c-1.44-4.53,2.4-2.88,2.86-3.55.48-.71-3.12-6.03,1.12-8.2l.78,11.77Z"/>
      <path class="st0" d="M919.3,1058l7.93-5.02c.62,7.26-2.6,7.28-7.93,5.02Z"/>
      <path class="st0" d="M733.18,1014.31c0-6.13-4.53-4.43-1.59-11.77,3.45,1.53,6.27,10.76,1.59,11.77Z"/>
      <polygon class="st0" points="963.83 1027.78 960.76 1030.16 962.23 1036.17 954.3 1033.64 963.83 1027.78"/>
      <polygon class="st0" points="834.97 1012.62 832.62 1012.61 830.27 1010.02 830.28 1006.84 832.6 1004.23 834.97 1012.62"/>
      <path class="st0" d="M903.93,1032.21c.7,1.08,4.82,2.75,3.45,5.58l-5.58.06v-10.08c2.77-.52,1.01,2.72,2.13,4.44Z"/>
      <path class="st0" d="M792.02,1041.19c-6.21,1.22-2.06-10.19-3.16-13.42l3.16,13.42Z"/>
      <polygon class="st0" points="833.37 1024.4 830.21 1024.39 830.21 1016 834.25 1017.66 833.37 1024.4"/>
      <path class="st0" d="M653.63,1032.8v-6.71c6.33.04,6.25,6.71,0,6.71Z"/>
      <path class="st0" d="M628.16,990.79c-1.58,3.6-13.32,1.99-14.3-1.68l14.3,1.68Z"/>
      <path class="st0" d="M862.02,1061.4l1.58,8.37h-6.35c1.05-2.76.06-9.69,4.77-8.37Z"/>
      <polygon class="st0" points="833.38 1026.09 833.38 1034.47 830.21 1034.48 830.21 1026.09 833.38 1026.09"/>
      <polygon class="st0" points="752.25 1012.65 750.65 1017.67 744.31 1013.46 752.25 1012.65"/>
      <path class="st0" d="M922.47,995.83v2.49s-4.75,4.23-4.75,4.23c-.62-4.03.74-7.13,4.75-6.72Z"/>
      <polygon class="st0" points="680.66 1019.34 677.49 1019.35 677.5 1009.28 679.06 1009.28 680.66 1019.34"/>
      <path class="st0" d="M963.83,1047.95v5.03c-1.98,2.26-9.83-6.81,0-5.03Z"/>
      <path class="st0" d="M957.46,1051.32v1.64s-7.94,0-7.94,0c1.45-4.75,4.5-2.65,7.94-1.64Z"/>
      <path class="st0" d="M685.44,987.43c-.85,3.34-3.39,3.77-6.35,3.34v-3.34s6.35,0,6.35,0Z"/>
      <polygon class="st0" points="831.78 1042.88 828.62 1042.88 830.22 1036.17 833.35 1038.68 831.78 1042.88"/>
      <path class="st0" d="M748.72,1006.21c.57,1.01,1.09,4.49-.43,4.73l-5.55-7.57c1-.54,5.81,2.55,5.97,2.84Z"/>
      <path class="st0" d="M904.97,1044.57h-6.35s0-1.66,0-1.66c3.05.27,5.38.31,4.79-3.36h1.55s.01,5.02.01,5.02Z"/>
      <polygon class="st0" points="793.62 1049.6 788.85 1049.61 788.86 1047.12 791.24 1044.58 793.62 1049.6"/>
      <polygon class="st0" points="939.96 1024.39 935.21 1023.57 939.96 1019.36 939.96 1024.39"/>
      <polygon class="st0" points="733.16 1017.67 733.98 1024.37 730 1020.17 729.99 1017.68 733.16 1017.67"/>
      <polygon class="st0" points="963.83 1056.35 963.83 1059.7 959.06 1059.69 961.47 1056.36 963.83 1056.35"/>
      <path class="st0" d="M704.51,967.24l-4.76-5.03c3.01-.56,5.29,1.96,4.76,5.03Z"/>
      <rect class="st0" x="696.59" y="1058.03" width="1.56" height="8.39"/>
      <path class="st0" d="M963.83,1016.01l-2.39,3.31c-1.7-1.5-2.89-2.55-2.37-5.01l4.76,1.7Z"/>
      <polygon class="st0" points="729.97 1010.96 729.97 1013.45 726.82 1015.99 726.81 1010.96 729.97 1010.96"/>
      <rect class="st0" x="957.48" y="1010.97" width="6.35" height="1.65"/>
      <path class="st0" d="M935.2,1034.5c.77.64-2.78,4.45-4.77,3.33-.77-.64,2.78-4.45,4.77-3.33Z"/>
      <polygon class="st0" points="652.02 1042.89 648.88 1040.37 651.24 1037.86 652.02 1042.89"/>
      <rect class="st0" x="901.81" y="984.06" width="1.56" height="6.71"/>
      <path class="st0" d="M927.25,1044.56c-1.99,1.12-5.54-2.69-4.77-3.33,1.99-1.12,5.54,2.69,4.77,3.33Z"/>
      <path class="st0" d="M916.09,1019.36c-.61.82-4.21-2.94-3.15-5.04.61-.82,4.21,2.94,3.15,5.04Z"/>
      <polygon class="st0" points="718.86 1029.44 719.63 1024.41 722 1026.92 718.86 1029.44"/>
      <path class="st0" d="M933.61,1021.05c.77.64-2.78,4.45-4.77,3.33-.77-.64,2.78-4.45,4.77-3.33Z"/>
      <rect class="st0" x="696.59" y="1069.8" width="1.56" height="5.03"/>
      <polygon class="st0" points="667.93 1069.8 667.15 1073.15 664.76 1069.81 667.93 1069.8"/>
      <rect class="st0" x="957.48" y="1066.45" width="4.76" height="1.65"/>
      <polygon class="st0" points="862.01 1054.65 858.85 1053.83 862.01 1051.3 862.01 1054.65"/>
      <rect class="st0" x="916.13" y="1046.26" width="1.56" height="5.03"/>
      <rect class="st0" x="680.68" y="1037.86" width="1.56" height="5.03"/>
      <rect class="st0" x="664.77" y="1029.45" width="1.56" height="5.03"/>
      <polygon class="st0" points="924.06 1027.77 923.28 1031.12 920.88 1027.78 924.06 1027.77"/>
      <polygon class="st0" points="914.51 1031.12 911.35 1030.29 914.5 1027.76 914.51 1031.12"/>
      <rect class="st0" x="702.95" y="1014.32" width="1.56" height="3.35"/>
      <rect class="st0" x="893.85" y="1016" width="1.56" height="3.35"/>
      <rect class="st0" x="745.91" y="1019.36" width="1.56" height="3.35"/>
      <rect class="st0" x="901.8" y="1022.74" width="3.17" height="1.65"/>
      <rect class="st0" x="922.49" y="1022.73" width="1.56" height="3.35"/>
      <rect class="st0" x="866.8" y="1024.42" width="3.17" height="1.65"/>
      <rect class="st0" x="734.76" y="1026.1" width="3.17" height="1.65"/>
      <polygon class="st0" points="922.49 1032.81 924.05 1032.81 924.88 1037.82 922.49 1035.3 922.49 1032.81"/>
      <rect class="st0" x="671.14" y="1000.87" width="1.56" height="3.35"/>
      <rect class="st0" x="901.81" y="992.46" width="1.56" height="3.35"/>
      <rect class="st0" x="823.86" y="987.42" width="1.56" height="3.35"/>
      <rect class="st0" x="936.8" y="1039.55" width="3.17" height="1.65"/>
      <rect class="st0" x="652.04" y="985.75" width="3.17" height="1.65"/>
      <rect class="st0" x="655.22" y="1041.23" width="3.17" height="1.65"/>
      <rect class="st0" x="680.68" y="1046.26" width="1.56" height="3.35"/>
      <rect class="st0" x="640.9" y="1047.95" width="3.17" height="1.65"/>
      <polygon class="st0" points="904.96 1051.29 902.68 1048.08 898.62 1047.96 904.96 1051.29"/>
      <rect class="st0" x="804.77" y="1054.67" width="1.56" height="3.35"/>
      <rect class="st0" x="702.95" y="968.93" width="1.56" height="3.35"/>
      <rect class="st0" x="583.64" y="967.25" width="1.56" height="3.35"/>
      <rect class="st0" x="640.9" y="1064.77" width="3.17" height="1.65"/>
      <rect class="st0" x="952.72" y="958.84" width="1.56" height="3.35"/>
      <rect class="st0" x="680.68" y="1069.8" width="1.56" height="3.35"/>
      <rect class="st0" x="951.12" y="1069.81" width="3.17" height="1.65"/>
      <rect class="st0" x="959.07" y="1069.81" width="3.17" height="1.65"/>
      <path class="st0" d="M889.86,957.15c1.03.56,1.03,1.12,0,1.68v-1.68Z"/>
      <path class="st0" d="M918.5,957.15c1.03.56,1.03,1.12,0,1.68v-1.68Z"/>
      <path class="st0" d="M581.24,977.33c1.03.56,1.03,1.12,0,1.68v-1.68Z"/>
      <path class="st0" d="M939.18,982.37c1.03.56,1.03,1.12,0,1.68v-1.68Z"/>
      <polygon class="st0" points="936 985.77 937.6 989.06 936 987.45 933.64 988.27 936 985.77"/>
      <path class="st0" d="M659.19,989.09c1.03.56,1.03,1.12,0,1.68v-1.68Z"/>
      <path class="st0" d="M870.77,989.09c1.03.56,1.03,1.12,0,1.68v-1.68Z"/>
      <path class="st0" d="M928.03,999.21c.88,1.07,3.2,2.19,1.62,3.3-.77-.99-3.19-2.13-1.62-3.3Z"/>
      <path class="st0" d="M628.96,1002.54c1.03.56,1.03,1.12,0,1.68v-1.68Z"/>
      <path class="st0" d="M921.68,1002.54c1.03.56,1.03,1.12,0,1.68v-1.68Z"/>
      <path class="st0" d="M611.47,1009.27c1.03.56,1.03,1.12,0,1.68v-1.68Z"/>
      <path class="st0" d="M936,1009.27c1.03.56,1.03,1.12,0,1.68v-1.68Z"/>
      <path class="st0" d="M864.41,1010.95c1.03.56,1.03,1.12,0,1.68v-1.68Z"/>
      <path class="st0" d="M894.63,1010.95c1.03.56,1.03,1.12,0,1.68v-1.68Z"/>
      <path class="st0" d="M951.9,1010.95c1.03.56,1.03,1.12,0,1.68v-1.68Z"/>
      <path class="st0" d="M665.55,1014.31c1.03.56,1.03,1.12,0,1.68v-1.68Z"/>
      <path class="st0" d="M695.78,1014.31c1.03.56,1.03,1.12,0,1.68v-1.68Z"/>
      <path class="st0" d="M815.09,1017.67c1.03.56,1.03,1.12,0,1.68v-1.68Z"/>
      <path class="st0" d="M864.41,1017.67c1.03.56,1.03,1.12,0,1.68v-1.68Z"/>
      <path class="st0" d="M886.68,1017.67c1.03.56,1.03,1.12,0,1.68v-1.68Z"/>
      <path class="st0" d="M932.81,1017.67c1.03.56,1.03,1.12,0,1.68v-1.68Z"/>
      <path class="st0" d="M726.01,1019.36c1.03.56,1.03,1.12,0,1.68v-1.68Z"/>
      <path class="st0" d="M737.14,1019.36c1.03.56,1.03,1.12,0,1.68v-1.68Z"/>
      <path class="st0" d="M741.91,1019.36c1.03.56,1.03,1.12,0,1.68v-1.68Z"/>
      <path class="st0" d="M719.64,1021.04c1.03.56,1.03,1.12,0,1.68v-1.68Z"/>
      <path class="st0" d="M963.04,1021.04c1.03.56,1.03,1.12,0,1.68v-1.68Z"/>
      <path class="st0" d="M703.73,1022.72c1.03.56,1.03,1.12,0,1.68v-1.68Z"/>
      <path class="st0" d="M889.86,1022.72c1.03.56,1.03,1.12,0,1.68v-1.68Z"/>
      <path class="st0" d="M894.63,1022.72c1.03.56,1.03,1.12,0,1.68v-1.68Z"/>
      <path class="st0" d="M907.36,1022.72c1.03.56,1.03,1.12,0,1.68v-1.68Z"/>
      <path class="st0" d="M916.91,1022.72c1.03.56,1.03,1.12,0,1.68v-1.68Z"/>
      <path class="st0" d="M726.01,1024.4c1.03.56,1.03,1.12,0,1.68v-1.68Z"/>
      <path class="st0" d="M748.28,1026.08c1.03.56,1.03,1.12,0,1.68v-1.68Z"/>
      <path class="st0" d="M641.69,1027.76c1.03.56,1.03,1.12,0,1.68v-1.68Z"/>
      <path class="st0" d="M838.95,1027.76c1.03.56,1.03,1.12,0,1.68v-1.68Z"/>
      <path class="st0" d="M918.5,1027.76c1.03.56,1.03,1.12,0,1.68v-1.68Z"/>
      <path class="st0" d="M633.74,1029.44c1.03.56,1.03,1.12,0,1.68v-1.68Z"/>
      <path class="st0" d="M880.32,1029.44c1.03.56,1.03,1.12,0,1.68v-1.68Z"/>
      <path class="st0" d="M908.95,1029.44c1.03.56,1.03,1.12,0,1.68v-1.68Z"/>
      <path class="st0" d="M765.78,1031.12c1.03.56,1.03,1.12,0,1.68v-1.68Z"/>
      <path class="st0" d="M681.46,1032.81c1.03.56,1.03,1.12,0,1.68v-1.68Z"/>
      <path class="st0" d="M721.23,1034.49c1.03.56,1.03,1.12,0,1.68v-1.68Z"/>
      <path class="st0" d="M796,1034.49c1.03.56,1.03,1.12,0,1.68v-1.68Z"/>
      <path class="st0" d="M627.37,1039.53c1.03.56,1.03,1.12,0,1.68v-1.68Z"/>
      <path class="st0" d="M711.69,1039.53c1.03.56,1.03,1.12,0,1.68v-1.68Z"/>
      <path class="st0" d="M932.81,1039.53c1.03.56,1.03,1.12,0,1.68v-1.68Z"/>
      <path class="st0" d="M838.95,1041.21c1.03.56,1.03,1.12,0,1.68v-1.68Z"/>
      <path class="st0" d="M947.13,1041.21c1.03.56,1.03,1.12,0,1.68v-1.68Z"/>
      <path class="st0" d="M838.95,1044.57c1.03.56,1.03,1.12,0,1.68v-1.68Z"/>
      <path class="st0" d="M854.86,1044.57c1.03.56,1.03,1.12,0,1.68v-1.68Z"/>
      <path class="st0" d="M719.64,1046.26c1.03.56,1.03,1.12,0,1.68v-1.68Z"/>
      <path class="st0" d="M657.6,1047.94c1.03.56,1.03,1.12,0,1.68v-1.68Z"/>
      <path class="st0" d="M858.04,1047.94c1.03.56,1.03,1.12,0,1.68v-1.68Z"/>
      <path class="st0" d="M924.86,1047.94c1.03.56,1.03,1.12,0,1.68v-1.68Z"/>
      <path class="st0" d="M665.55,1049.62c1.03.56,1.03,1.12,0,1.68v-1.68Z"/>
      <path class="st0" d="M947.13,1051.3c1.03.56,1.03,1.12,0,1.68v-1.68Z"/>
      <path class="st0" d="M657.6,1054.66c1.03.56,1.03,1.12,0,1.68v-1.68Z"/>
      <path class="st0" d="M837.36,1054.66c1.03.56,1.03,1.12,0,1.68v-1.68Z"/>
      <path class="st0" d="M858.04,1056.34c1.03.56,1.03,1.12,0,1.68v-1.68Z"/>
      <path class="st0" d="M861.23,1058.02c1.03.56,1.03,1.12,0,1.68v-1.68Z"/>
      <path class="st0" d="M948.72,1058.02c1.03.56,1.03,1.12,0,1.68v-1.68Z"/>
      <path class="st0" d="M665.55,1061.39c1.03.56,1.03,1.12,0,1.68v-1.68Z"/>
      <path class="st0" d="M899.41,1061.39c1.03.56,1.03,1.12,0,1.68v-1.68Z"/>
      <path class="st0" d="M889.86,1064.75c1.03.56,1.03,1.12,0,1.68v-1.68Z"/>
      <path class="st0" d="M901,1064.75c1.03.56,1.03,1.12,0,1.68v-1.68Z"/>
      <path class="st0" d="M910.54,1069.79c1.03.56,1.03,1.12,0,1.68v-1.68Z"/>
      <path class="st0" d="M705.32,1071.47c1.03.56,1.03,1.12,0,1.68v-1.68Z"/>
      <path class="st0" d="M948.72,1073.16c1.03.56,1.03,1.12,0,1.68v-1.68Z"/>
      <rect class="st0" x="1003.61" y="1056.36" width="3.17" height="1.65"/>
      <rect class="st0" x="1003.61" y="1063.08" width="3.17" height="1.65"/>
      <path class="st0" d="M1001.22,1054.66c1.03.56,1.03,1.12,0,1.68v-1.68Z"/>
      <rect class="st0" x="960.66" y="972.3" width="3.17" height="1.65"/>
    </g>
  </g>
</svg>