<?xml version="1.0" encoding="UTF-8"?>
<svg id="Layer_1" xmlns="http://www.w3.org/2000/svg" version="1.1" viewBox="0 0 1920 1080">
  <!-- Generator: Adobe Illustrator 29.5.1, SVG Export Plug-In . SVG Version: 2.1.0 Build 141)  -->
  <path d="M1329.8,894.24c-.39-2.81,1.2-2.57,3.78-3.01l-3.78,3.01Z"/>
  <path d="M1447.12,779.98c-7.99-1.97-12.45-5.82-21.88-4.02-13.69,2.62-20.43,15.4-34.84,10.04,3.08,16.23,6.06,7.84-9.51,11.96l1.91-11.96-7.58,9.02c-14.34-2.38-7.54-13.85-8.22-14.61-.89-.99-6.67-1.05-8.65-3.41-3.22-3.84-1.14-11.23-5.52-13.79l-15.41-1.25,11.33,8.97-20.64.2-2.07-9.18-3.78,6.01-7.48-4.52c7.88-11.47,16.2-3.47,23.82-4.89,4.89-.92,7.79-7.21,12.76-8.24,7.56-1.58,22.69,5.37,31.39,5.73,2.58,2.99-10.49,23.71,5.73,23.99,7.94-7.46,12.22-9.85,9.47-21.11,1.46-1.32,26.65,5.93,34.03-2.99l22.69,9c-.92-3.98-7-5.9-11.05-7.76-5.78-2.67-3.67-5.69-11.65-1.23.73-.88-2.1-5.64,2.26-6.21l22.08,2.9,2.13-2.71c4.48,7.54,8.58,15.06,7.53,24.05l-13.14-6.02c-5.74,3.16-6.21,6.91-5.74,12.04h.03ZM1375.24,761.95h-7.53v5.99h7.53v-5.99ZM1428.19,770.95l-1.86-9c-4.01,2.76-6.9,4.55-5.67,8.99h7.53ZM1399.84,776.97v3.01c2.46-1,2.46-2,0-3.01Z"/>
  <path d="M1257.99,897.22v3.01l-7.6-1.52.07-4.5c.46-.44,6.18,2.14,7.54,3.01h-.01Z"/>
  <path d="M1288.25,858.14v3.01c-2.99-.95-11.43,1.8-11.38-1.5.62-2.64,8.64-1.82,11.38-1.5h0Z"/>
  <path d="M1261.78,900.23c.62,1.22,1.19,6.27-1.89,6.04l-1.89-6.04c.58.47,2.64-.4,3.78,0Z"/>
  <path d="M1341.21,831.09c-.4,1.85-.25,3.94.2,5.79l14.93,3.23c-.93,1.6.99,6.28-1.65,9.1-4.91,5.26-20.03-.75-17.31,8.92l-3.71.02-7.57-6.02-.04,30.06-22.66-2.99,11.34,6.02c-1.9,6.37-13.08,7.56-20.28,5.61-7.8-2.11-10.71-21.29-21.34-5.68l11.35,6.04-18.9-5.98c-3.75,16.81,22.67,10.23,35.95,10.33,6.64.05,7.44-3.22,5.63,4.67l-16.75-3.15c-3.79,10.33-17.77,6.95-28.62,3.16-1.16-2.27-2.23-2.02-3.78-3.01l3.94-21.05c9.1,2.23,22.05,2.42,24.42-6.03,1.92-.12,1.01,14.55,17.01-1.49-5.38-.92-11.25-6.27-15.12-7.5l3.73-1.52c-.81-1.37-2.15-1.31-3.73-1.49l3.7-7.55-9.33,1.58-1.94-6.02,26.48-6.02.29,11.79,14.83.2c3.86-11.66-14.18-1.44-15.1-8.98,12.09,2.74,13.26-7.54,18.02-8.99,1.31-.4,15.18-3.04,16-3.06h.01Z"/>
  <path d="M1341.21,831.09c1.33-6.18,10.44-10.43-3.49-13.3l3.16-16.6c-10.38,1.17-11.53-2.08-14.8-9.16l16.7,3.28,2.31-6.26,30.15,12-18.88,2.99c-.34,14.22,18.06,3.47,30.23,6.02,1.58,5-5.01,1.8-6.69,3.45-2.72,2.67-.2,10.33-.86,14.56,1.83-.4,3.78-2.18,5.7-2.93l1.8,1.41-9.42,7.49-1.77-1.43c.97-1.44,3.48-3.19,3.69-4.53-12.36,2.67-4.28,2.12-8.8,4.88-3.02,1.84-13.53,6.52-13.9,7.14-2.26-5.02-8.36-9.21-15.13-9.02h0ZM1352.57,828.07c13.59,1.39,19.12-5.59,17.04-14.97l-17.04,14.97Z"/>
  <path d="M1034.82,1020.48c3.74-2.27,4.32-4.46,11.34-3.02l1.74,15.17c5.3,6.75,18.72-1.59,20.96-.15l3.72,7.54-7.45,4.48-2.42-6-13.01,1.52-5.46,16.46,17.05.04-7.56-8.98,7.6,5.99,10-5.76,14.48,5.77,13.29-18.06,6.92,16.57c-10.44,12.72-27.7,1.27-32.17,19.65l-19.39.23-8.26,8.64-.05-12.02-11.3,3v-16.52l-7.53-1.5-7.65,15.01,11.35,2.99-9.46,2.98-9.68-16.32c.05-1.54,12.06-.25,7.78-12.16-3.4-9.45-11.96,1.75-15,2.73-3.62,1.16-10.38-1.21-15.19,1.77l-.06-9.02c9.99.61,13.91,1.7,17.27-6.17l12.74,2.94,4.03-5.78c3.51,7.45,5.82,17.8,18.95,14.99-7.01-8.26-11.56-19.14-26.46-18.04-.57-4.69,10.54-5.06,15.11-5.99-.34,2.68,5.99,14.62,11.32,15.01-3.01-6.38,2.73-15.8-7.54-18.02v.03ZM1076.43,1053.57h-7.55v5.99s7.54-5.99,7.54-5.99h.01ZM1053.74,1065.55c1.84-1.17-6.61-7.94-11.33-5.98v5.99h11.33ZM1059.41,1059.56v3.01c2.46-1,2.46-2,0-3.01Z"/>
  <path d="M1238.48,918.68l2.49,8.56,5.8-10.58,14.96,27.19c-11.26,4.23-16.95-8.96-15.1,7.5-14.37,2.61-2.49-13.07-3.8-18.04l-11.3,6-7.52-22.58,14.47,1.94h0Z"/>
  <path d="M1269.34,828.06l-11.34,1.52,7.5,6.02-37.77,13.5v-12l18.93.02.32-11.76c8.69-.72,18.6-6.67,22.36,2.7h0Z"/>
  <path d="M1163.4,873.21l.75,5.49c12.49-2.97,19.21,1.61,18.18,12.5l-24.6-5.81-1.86-12.2,7.52.02h0Z"/>
  <path d="M1155.85,755.94l-1.78,18.11c-5.93,7.89-25.95,2.61-6.73-14.25,2.14-1.88-.46-5.88,8.51-3.86Z"/>
  <path d="M1224.48,797.57c2.67,1.89,11-3.75,15.53-2.02l17.96,8.45-17.03,5.99,1.91-8.96c-12.34,2.93-18.12,4.94-26.41-4.52l7.46-4.5.57,5.55h.01Z"/>
  <path d="M1322.28,779.99c-1.87,9.98-11.74,8.39.02,18.01-9.96,1.13-11.68-6.33-11.38-12.02l-15.08,3.02v-9c10.04,2.88,16.4,2.64,26.44,0h0Z"/>
  <path d="M1152.08,1017.45l15.17-15c16.19-.14,6.69,9.55,7.51,18.07l-37.81-.06,7.59-18.02c13.81,1.64,17.79,7.16,7.54,15.01Z"/>
  <path d="M1363.92,743.89c-1.48-8.6,8.08-19.4,15.09-10.49,1.52,8.46-4.84,11.73-15.09,10.49Z"/>
  <path d="M1230.45,995.37c1.99-1.25-1.12-6.17,4.83-4.93,1.53,5.14-6.33,9.78-6.4,13.51-.08,3.87,7.31,7.24,4.57,10.48l-20.77-10.48c4.32-5.04,12.28-5.13,17.78-8.58h0Z"/>
  <path d="M1186.08,755.94c.79,5.92,11.26,20.12-3.71,18.04,1.37-6.22-11.66-20.17,3.71-18.04Z"/>
  <path d="M1319.47,983.79c1.75,1.88,8.17-1.34,6.6,3.6l-22.67-1.49,11.37-10.49c6.98-.93,1.8,5.26,4.7,8.38h0Z"/>
  <path d="M1163.43,915.23l-15.11,3.02v-9c7.06-.76,13.09-.02,15.11,5.97h0Z"/>
  <polygon points="1363.88 870.12 1348.78 876.16 1352.59 861.15 1363.88 870.12"/>
  <polygon points="1205.02 834.12 1189.91 846.09 1189.93 831.09 1205.02 834.12"/>
  <path d="M1231.5,966.4v2.95c-8.06,1.38-13,5.43-18.88-1.49,4.98-4.4,12.7-2.95,18.88-1.46Z"/>
  <polygon points="1205.02 984.43 1205.02 987.39 1182.36 990.41 1182.36 984.42 1205.02 984.43"/>
  <polygon points="1129.37 1026.52 1129.37 1029.47 1106.71 1032.48 1106.71 1029.53 1129.37 1026.52"/>
  <path d="M1239.08,876.2l-5.66,11.99-5.67-7.47c3.44-3.22,5.74-5.51,11.33-4.52h0Z"/>
  <polygon points="1223.93 813.07 1223.94 816.03 1205.05 816.04 1205.06 810.05 1223.93 813.07"/>
  <polygon points="1345 785.99 1335.51 788.95 1337.46 773.98 1341.17 773.98 1345 785.99"/>
  <polygon points="1205.07 1026.49 1201.29 1014.47 1212.54 1021.98 1205.07 1026.49"/>
  <rect x="1307.18" y="716.86" width="7.53" height="8.99"/>
  <path d="M1333.58,891.23c-2,7.77,20.41,9.55,5.7,14.99-7.85,2.9-5.99-12.1-13.18-13.52l7.49-1.47h0Z"/>
  <polygon points="1165.32 780.03 1170.94 784.49 1165.32 788.95 1159.71 784.49 1165.32 780.03"/>
  <path d="M1140.72,734.9v5.99c-5.6.97-7.85-1.32-11.32-4.51l11.32-1.48Z"/>
  <polygon points="1208.81 795.02 1208.79 801.02 1193.71 797.99 1193.71 795.03 1208.81 795.02"/>
  <polygon points="1280.67 804.04 1280.67 810.03 1261.8 807.01 1261.8 804.05 1280.67 804.04"/>
  <polygon points="1188.02 972.43 1193.63 976.89 1188.02 981.35 1182.4 976.89 1188.02 972.43"/>
  <path d="M1318.5,1002.45v5.99c-5.6.97-7.85-1.32-11.32-4.51l11.32-1.48Z"/>
  <polygon points="1352.56 704.8 1345.01 704.81 1345.02 695.82 1348.74 695.82 1352.56 704.8"/>
  <rect x="1261.79" y="1029.51" width="7.53" height="5.99"/>
  <rect x="1174.79" y="963.37" width="7.53" height="5.99"/>
  <path d="M1163.37,725.85c-7.85.82-8.53.29-7.49-5.95l13.25-6.01,1.8,1.43-7.56,10.53Z"/>
  <rect x="1163.45" y="942.33" width="7.53" height="5.99"/>
  <path d="M1152.05,879.19c-1.47,1.47-10.01-5.26-7.51-9.02,1.47-1.47,10.01,5.26,7.51,9.02Z"/>
  <rect x="1242.88" y="876.19" width="7.53" height="5.99"/>
  <rect x="1326.1" y="692.82" width="11.32" height="2.96"/>
  <polygon points="1232.25 1030.39 1229.64 1035.5 1223.95 1029.52 1233.41 1026.54 1239.02 1031.03 1232.25 1030.39"/>
  <polygon points="1227.72 1023.47 1220.18 1022 1227.7 1017.47 1227.72 1023.47"/>
  <polygon points="1216.39 960.33 1208.84 960.34 1208.85 954.34 1216.39 960.33"/>
  <polygon points="1163.42 954.35 1163.4 960.35 1155.88 955.83 1163.42 954.35"/>
  <polygon points="1333.64 722.88 1326.11 728.87 1326.1 722.87 1333.64 722.88"/>
  <polygon points="1159.65 731.9 1152.11 737.89 1152.1 731.89 1159.65 731.9"/>
  <polygon points="1144.5 861.16 1144.49 867.16 1136.97 862.64 1144.5 861.16"/>
  <path d="M1205.07,861.15l-.02-6c4.49.54,6.73-.13,9.47-2.97l1.8,1.43-11.26,7.54h.01Z"/>
  <rect x="1322.31" y="804.05" width="11.32" height="2.96"/>
  <polygon points="1129.39 780 1121.85 785.99 1121.84 779.99 1129.39 780"/>
  <rect x="1280.7" y="786.02" width="7.54" height="2.96"/>
  <rect x="1284.49" y="804.05" width="7.54" height="2.96"/>
  <rect x="1284.49" y="770.98" width="7.54" height="2.96"/>
  <rect x="1208.85" y="843.12" width="3.72" height="5.99"/>
  <rect x="1148.32" y="858.17" width="7.54" height="2.96"/>
  <rect x="1155.9" y="864.17" width="3.72" height="5.99"/>
  <polygon points="1352.59 921.29 1356.31 921.29 1360.06 928.81 1358.26 930.25 1352.59 921.29"/>
  <rect x="1337.44" y="725.89" width="7.54" height="2.96"/>
  <rect x="1186.16" y="960.37" width="3.72" height="5.99"/>
  <rect x="1276.92" y="966.39" width="7.54" height="2.96"/>
  <rect x="1197.5" y="707.84" width="3.72" height="5.99"/>
  <polygon points="1155.85 969.39 1155.84 972.35 1140.75 975.37 1140.76 972.41 1155.85 969.39"/>
  <rect x="1239.1" y="990.44" width="7.54" height="2.96"/>
  <rect x="1110.5" y="1005.46" width="3.72" height="5.99"/>
  <path d="M1112.37,1050.54c2.46,1,2.46,2,0,3.01v-3.01Z"/>
  <path d="M1229.63,1044.53c2.46,1,2.46,2,0,3.01v-3.01Z"/>
  <path d="M1275.02,1038.52c2.46,1,2.46,2,0,3.01v-3.01Z"/>
  <path d="M1354.45,1014.47c2.46,1,2.46,2,0,3.01v-3.01Z"/>
  <path d="M1358.23,698.81c2.46,1,2.46,2,0,3.01v-3.01Z"/>
  <path d="M1184.23,1005.45c2.46,1,2.46,2,0,3.01v-3.01Z"/>
  <path d="M1267.45,993.42c2.46,1,2.46,2,0,3.01v-3.01Z"/>
  <path d="M1335.54,701.82c2.46,1,2.46,2,0,3.01v-3.01Z"/>
  <path d="M1161.54,704.82c2.46,1,2.46,2,0,3.01v-3.01Z"/>
  <path d="M1176.67,975.39c2.46,1,2.46,2,0,3.01v-3.01Z"/>
  <path d="M1172.89,957.35c2.46,1,2.46,2,0,3.01v-3.01Z"/>
  <path d="M1225.84,945.32c2.46,1,2.46,2,0,3.01v-3.01Z"/>
  <path d="M1169.1,933.3c2.46,1,2.46,2,0,3.01v-3.01Z"/>
  <path d="M1282.58,924.28c2.46,1,2.46,2,0,3.01v-3.01Z"/>
  <path d="M1206.93,924.28c2.46,1,2.46,2,0,3.01v-3.01Z"/>
  <path d="M1214.49,921.27c2.46,1,2.46,2,0,3.01v-3.01Z"/>
  <path d="M1324.19,906.24c2.46,1,2.46,2,0,3.01v-3.01Z"/>
  <path d="M1206.93,906.24c2.46,1,2.46,2,0,3.01v-3.01Z"/>
  <path d="M1343.1,870.17c2.46,1,2.46,2,0,3.01v-3.01Z"/>
  <path d="M1271.23,870.17c2.46,1,2.46,2,0,3.01v-3.01Z"/>
  <path d="M1271.23,858.14c2.46,1,2.46,2,0,3.01v-3.01Z"/>
  <path d="M1169.1,855.14c2.46,1,2.46,2,0,3.01v-3.01Z"/>
  <path d="M1157.76,849.12c2.46,1,2.46,2,0,3.01v-3.01Z"/>
  <path d="M1369.58,837.1c2.46,1,2.46,2,0,3.01v-3.01Z"/>
  <path d="M1305.28,801.02c2.46,1,2.46,2,0,3.01v-3.01Z"/>
  <path d="M1135.06,785.99c2.46,1,2.46,2,0,3.01v-3.01Z"/>
  <polygon points="1354.48 780.03 1356.28 781.46 1350.64 785.94 1348.84 784.51 1354.48 780.03"/>
  <path d="M1184.23,779.98c2.46,1,2.46,2,0,3.01v-3.01Z"/>
  <path d="M1176.67,779.98c2.46,1,2.46,2,0,3.01v-3.01Z"/>
  <path d="M1280.49,651.67c-.39-2.81,1.2-2.57,3.78-3.01l-3.78,3.01Z"/>
  <path d="M1397.82,537.41c-7.99-1.97-12.45-5.82-21.88-4.02-13.69,2.62-20.43,15.4-34.84,10.04,3.08,16.23,6.06,7.84-9.51,11.96l1.91-11.96-7.58,9.02c-14.34-2.38-7.54-13.85-8.22-14.61-.89-.99-6.67-1.05-8.65-3.41-3.22-3.84-1.14-11.23-5.52-13.79l-15.41-1.25,11.33,8.97-20.64.2-2.07-9.18-3.78,6.01-7.48-4.52c7.88-11.47,16.2-3.47,23.82-4.89,4.89-.92,7.79-7.21,12.76-8.24,7.56-1.58,22.69,5.37,31.39,5.73,2.58,2.99-10.49,23.71,5.73,23.99,7.94-7.46,12.22-9.85,9.47-21.11,1.46-1.32,26.65,5.93,34.03-2.99l22.69,9c-.92-3.98-7-5.9-11.05-7.76-5.78-2.67-3.67-5.69-11.65-1.23.73-.88-2.1-5.64,2.26-6.21l22.08,2.9,2.13-2.71c4.48,7.54,8.58,15.06,7.53,24.05l-13.14-6.02c-5.74,3.16-6.21,6.91-5.74,12.04h.03ZM1325.93,519.39h-7.53v5.99h7.53v-5.99ZM1378.89,528.38l-1.86-9c-4.01,2.76-6.9,4.55-5.67,8.99h7.53ZM1350.54,534.41v3.01c2.46-1,2.46-2,0-3.01Z"/>
  <path d="M1208.69,654.66v3.01l-7.6-1.52.07-4.5c.46-.44,6.18,2.14,7.54,3.01h-.01Z"/>
  <path d="M1238.95,615.57v3.01c-2.99-.95-11.43,1.8-11.38-1.5.62-2.64,8.64-1.82,11.38-1.5h0Z"/>
  <path d="M1212.47,657.66c.62,1.22,1.19,6.27-1.89,6.04l-1.89-6.04c.58.47,2.64-.4,3.78,0Z"/>
  <path d="M1291.91,588.52c-.4,1.85-.25,3.94.2,5.79l14.93,3.23c-.93,1.6.99,6.28-1.65,9.1-4.91,5.26-20.03-.75-17.31,8.92l-3.71.02-7.57-6.02-.04,30.06-22.66-2.99,11.34,6.02c-1.9,6.37-13.08,7.56-20.28,5.61-7.8-2.11-10.71-21.29-21.34-5.68l11.35,6.04-18.9-5.98c-3.75,16.81,22.67,10.23,35.95,10.33,6.64.05,7.44-3.22,5.63,4.67l-16.75-3.15c-3.79,10.33-17.77,6.95-28.62,3.16-1.16-2.27-2.23-2.02-3.78-3.01l3.94-21.05c9.1,2.23,22.05,2.42,24.42-6.03,1.92-.12,1.01,14.55,17.01-1.49-5.38-.92-11.25-6.27-15.12-7.5l3.73-1.52c-.81-1.37-2.15-1.31-3.73-1.49l3.7-7.55-9.33,1.58-1.94-6.02,26.48-6.02.29,11.79,14.83.2c3.86-11.66-14.18-1.44-15.1-8.98,12.09,2.74,13.26-7.54,18.02-8.99,1.31-.4,15.18-3.04,16-3.06h.01Z"/>
  <path d="M1291.91,588.52c1.33-6.18,10.44-10.43-3.49-13.3l3.16-16.6c-10.38,1.17-11.53-2.08-14.8-9.16l16.7,3.28,2.31-6.26,30.15,12-18.88,2.99c-.34,14.22,18.06,3.47,30.23,6.02,1.58,5-5.01,1.8-6.69,3.45-2.72,2.67-.2,10.33-.86,14.56,1.83-.4,3.78-2.18,5.7-2.93l1.8,1.41-9.42,7.49-1.77-1.43c.97-1.44,3.48-3.19,3.69-4.53-12.36,2.67-4.28,2.12-8.8,4.88-3.02,1.84-13.53,6.52-13.9,7.14-2.26-5.02-8.36-9.21-15.13-9.02h0ZM1303.27,585.5c13.59,1.39,19.12-5.59,17.04-14.97l-17.04,14.97Z"/>
  <path d="M1189.18,676.11l2.49,8.56,5.8-10.58,14.96,27.19c-11.26,4.23-16.95-8.96-15.1,7.5-14.37,2.61-2.49-13.07-3.8-18.04l-11.3,6-7.52-22.58,14.47,1.94h0Z"/>
  <path d="M1220.04,585.49l-11.34,1.52,7.5,6.02-37.77,13.5v-12l18.93.02.32-11.76c8.69-.72,18.6-6.67,22.36,2.7h0Z"/>
  <path d="M1114.09,630.64l.75,5.49c12.49-2.97,19.21,1.61,18.18,12.5l-24.6-5.81-1.86-12.2,7.52.02h0Z"/>
  <path d="M1106.55,513.37l-1.78,18.11c-5.93,7.89-25.95,2.61-6.73-14.25,2.14-1.88-.46-5.88,8.51-3.86Z"/>
  <path d="M1175.18,555c2.67,1.89,11-3.75,15.53-2.02l17.96,8.45-17.03,5.99,1.91-8.96c-12.34,2.93-18.12,4.94-26.41-4.52l7.46-4.5.57,5.55h.01Z"/>
  <path d="M1272.97,537.42c-1.87,9.98-11.74,8.39.02,18.01-9.96,1.13-11.68-6.33-11.38-12.02l-15.08,3.02v-9c10.04,2.88,16.4,2.64,26.44,0h0Z"/>
  <path d="M1102.78,774.88l15.17-15c16.19-.14,6.69,9.55,7.51,18.07l-37.81-.06,7.59-18.02c13.81,1.64,17.79,7.16,7.54,15.01Z"/>
  <path d="M1314.62,501.32c-1.48-8.6,8.08-19.4,15.09-10.49,1.52,8.46-4.84,11.73-15.09,10.49Z"/>
  <path d="M1181.14,752.8c1.99-1.25-1.12-6.17,4.83-4.93,1.53,5.14-6.33,9.78-6.4,13.51-.08,3.87,7.31,7.24,4.57,10.48l-20.77-10.48c4.32-5.04,12.28-5.13,17.78-8.58h0Z"/>
  <path d="M1136.77,513.37c.79,5.92,11.26,20.12-3.71,18.04,1.37-6.22-11.66-20.17,3.71-18.04Z"/>
  <path d="M1270.16,741.22c1.75,1.88,8.17-1.34,6.6,3.6l-22.67-1.49,11.37-10.49c6.98-.93,1.8,5.26,4.7,8.38h0Z"/>
  <path d="M1114.12,672.67l-15.11,3.02v-9c7.06-.76,13.09-.02,15.11,5.97h0Z"/>
  <polygon points="1314.57 627.55 1299.47 633.59 1303.28 618.58 1314.57 627.55"/>
  <polygon points="1155.72 591.55 1140.61 603.53 1140.63 588.52 1155.72 591.55"/>
  <path d="M1182.19,723.83v2.95c-8.06,1.38-13,5.43-18.88-1.49,4.98-4.4,12.7-2.95,18.88-1.46Z"/>
  <polygon points="1155.72 741.86 1155.72 744.82 1133.06 747.84 1133.05 741.85 1155.72 741.86"/>
  <polygon points="1080.07 783.95 1080.07 786.91 1057.4 789.91 1057.41 786.96 1080.07 783.95"/>
  <path d="M1189.78,633.64l-5.66,11.99-5.67-7.47c3.44-3.22,5.74-5.51,11.33-4.52h0Z"/>
  <polygon points="1174.63 570.51 1174.63 573.46 1155.75 573.47 1155.75 567.48 1174.63 570.51"/>
  <polygon points="1295.7 543.42 1286.2 546.38 1288.15 531.41 1291.87 531.42 1295.7 543.42"/>
  <polygon points="1155.77 783.92 1151.98 771.9 1163.24 779.42 1155.77 783.92"/>
  <rect x="1257.88" y="474.29" width="7.53" height="8.99"/>
  <path d="M1284.27,648.66c-2,7.77,20.41,9.55,5.7,14.99-7.85,2.9-5.99-12.1-13.18-13.52l7.49-1.47h0Z"/>
  <polygon points="1116.02 537.46 1121.63 541.92 1116.02 546.38 1110.4 541.92 1116.02 537.46"/>
  <path d="M1091.42,492.33v5.99c-5.6.97-7.85-1.32-11.32-4.51l11.32-1.48h0Z"/>
  <polygon points="1159.5 552.46 1159.49 558.45 1144.4 555.42 1144.4 552.47 1159.5 552.46"/>
  <polygon points="1231.36 561.47 1231.37 567.46 1212.49 564.44 1212.49 561.48 1231.36 561.47"/>
  <polygon points="1138.71 729.86 1144.33 734.32 1138.71 738.78 1133.1 734.32 1138.71 729.86"/>
  <path d="M1269.2,759.89v5.99c-5.6.97-7.85-1.32-11.32-4.51l11.32-1.48Z"/>
  <polygon points="1303.25 462.23 1295.7 462.24 1295.72 453.25 1299.44 453.25 1303.25 462.23"/>
  <rect x="1212.49" y="786.94" width="7.53" height="5.99"/>
  <rect x="1125.49" y="720.81" width="7.53" height="5.99"/>
  <path d="M1114.07,483.28c-7.85.82-8.53.29-7.49-5.95l13.25-6.01,1.8,1.43-7.56,10.53h0Z"/>
  <rect x="1114.14" y="699.76" width="7.53" height="5.99"/>
  <path d="M1102.75,636.62c-1.47,1.47-10.01-5.26-7.51-9.02,1.47-1.47,10.01,5.26,7.51,9.02Z"/>
  <rect x="1193.57" y="633.62" width="7.53" height="5.99"/>
  <rect x="1276.79" y="450.25" width="11.32" height="2.96"/>
  <polygon points="1182.94 787.82 1180.34 792.94 1174.65 786.96 1184.1 783.97 1189.72 788.46 1182.94 787.82"/>
  <polygon points="1178.41 780.91 1170.88 779.43 1178.4 774.91 1178.41 780.91"/>
  <polygon points="1167.08 717.76 1159.53 717.78 1159.55 711.78 1167.08 717.76"/>
  <polygon points="1114.11 711.79 1114.1 717.79 1106.58 713.27 1114.11 711.79"/>
  <polygon points="1284.34 480.32 1276.81 486.3 1276.79 480.3 1284.34 480.32"/>
  <polygon points="1110.34 489.33 1102.81 495.32 1102.79 489.32 1110.34 489.33"/>
  <polygon points="1095.2 618.59 1095.18 624.59 1087.66 620.07 1095.2 618.59"/>
  <path d="M1155.76,618.58l-.02-6c4.49.54,6.73-.13,9.47-2.97l1.8,1.43-11.26,7.54h.01Z"/>
  <rect x="1273.01" y="561.49" width="11.32" height="2.96"/>
  <polygon points="1080.08 537.44 1072.55 543.42 1072.53 537.42 1080.08 537.44"/>
  <rect x="1231.4" y="543.45" width="7.54" height="2.96"/>
  <rect x="1235.18" y="561.49" width="7.54" height="2.96"/>
  <rect x="1235.18" y="528.42" width="7.54" height="2.96"/>
  <rect x="1159.55" y="600.55" width="3.72" height="5.99"/>
  <rect x="1099.01" y="615.6" width="7.54" height="2.96"/>
  <rect x="1106.59" y="621.6" width="3.72" height="5.99"/>
  <polygon points="1303.28 678.72 1307.01 678.72 1310.76 686.25 1308.96 687.68 1303.28 678.72"/>
  <rect x="1288.14" y="483.32" width="7.54" height="2.96"/>
  <rect x="1136.85" y="717.8" width="3.72" height="5.99"/>
  <rect x="1227.62" y="723.82" width="7.54" height="2.96"/>
  <rect x="1148.2" y="465.27" width="3.72" height="5.99"/>
  <polygon points="1106.54 726.83 1106.54 729.78 1091.45 732.8 1091.45 729.84 1106.54 726.83"/>
  <rect x="1189.79" y="747.87" width="7.54" height="2.96"/>
  <rect x="1061.2" y="762.89" width="3.72" height="5.99"/>
  <path d="M1305.14,771.9c2.46,1,2.46,2,0,3.01v-3.01Z"/>
  <path d="M1308.93,456.24c2.46,1,2.46,2,0,3.01v-3.01Z"/>
  <path d="M1134.93,762.88c2.46,1,2.46,2,0,3.01v-3.01Z"/>
  <path d="M1218.15,750.86c2.46,1,2.46,2,0,3.01v-3.01Z"/>
  <path d="M1286.23,459.25c2.46,1,2.46,2,0,3.01v-3.01Z"/>
  <path d="M1112.23,462.25c2.46,1,2.46,2,0,3.01v-3.01Z"/>
  <path d="M1127.36,732.82c2.46,1,2.46,2,0,3.01v-3.01Z"/>
  <path d="M1123.58,714.78c2.46,1,2.46,2,0,3.01v-3.01Z"/>
  <path d="M1176.54,702.76c2.46,1,2.46,2,0,3.01v-3.01Z"/>
  <path d="M1119.8,690.73c2.46,1,2.46,2,0,3.01v-3.01Z"/>
  <path d="M1233.28,681.71c2.46,1,2.46,2,0,3.01v-3.01Z"/>
  <path d="M1157.63,681.71c2.46,1,2.46,2,0,3.01v-3.01Z"/>
  <path d="M1165.19,678.71c2.46,1,2.46,2,0,3.01v-3.01Z"/>
  <path d="M1274.88,663.67c2.46,1,2.46,2,0,3.01v-3.01Z"/>
  <path d="M1157.63,663.67c2.46,1,2.46,2,0,3.01v-3.01Z"/>
  <path d="M1293.8,627.6c2.46,1,2.46,2,0,3.01v-3.01Z"/>
  <path d="M1221.93,627.6c2.46,1,2.46,2,0,3.01v-3.01Z"/>
  <path d="M1221.93,615.57c2.46,1,2.46,2,0,3.01v-3.01Z"/>
  <path d="M1119.8,612.57c2.46,1,2.46,2,0,3.01v-3.01Z"/>
  <path d="M1108.45,606.56c2.46,1,2.46,2,0,3.01v-3.01Z"/>
  <path d="M1320.28,594.53c2.46,1,2.46,2,0,3.01v-3.01Z"/>
  <path d="M1255.97,558.46c2.46,1,2.46,2,0,3.01v-3.01Z"/>
  <path d="M1085.76,543.42c2.46,1,2.46,2,0,3.01v-3.01Z"/>
  <polygon points="1305.17 537.46 1306.98 538.89 1301.33 543.38 1299.53 541.94 1305.17 537.46"/>
  <path d="M1134.93,537.41c2.46,1,2.46,2,0,3.01v-3.01Z"/>
  <path d="M1127.36,537.41c2.46,1,2.46,2,0,3.01v-3.01Z"/>
  <path d="M1269.23,458.46c-.39-2.81,1.2-2.57,3.78-3.01l-3.78,3.01Z"/>
  <path d="M1386.55,344.2c-7.99-1.97-12.45-5.82-21.88-4.02-13.69,2.62-20.43,15.4-34.84,10.04,3.08,16.23,6.06,7.84-9.51,11.96l1.91-11.96-7.58,9.02c-14.34-2.38-7.54-13.85-8.22-14.61-.89-.99-6.67-1.05-8.65-3.41-3.22-3.84-1.14-11.23-5.52-13.79l-15.41-1.25,11.33,8.97-20.64.2-2.07-9.18-3.78,6.01-7.48-4.52c7.88-11.47,16.2-3.47,23.82-4.89,4.89-.92,7.79-7.21,12.76-8.24,7.56-1.58,22.69,5.37,31.39,5.73,2.58,2.99-10.49,23.71,5.73,23.99,7.94-7.46,12.22-9.85,9.47-21.11,1.46-1.32,26.65,5.93,34.03-2.99l22.69,9c-.92-3.98-7-5.9-11.05-7.76-5.78-2.67-3.67-5.69-11.65-1.23.73-.88-2.1-5.64,2.26-6.21l22.08,2.9,2.13-2.71c4.48,7.54,8.58,15.06,7.53,24.05l-13.14-6.02c-5.74,3.16-6.21,6.91-5.74,12.04h.03ZM1314.67,326.18h-7.53v5.99h7.53v-5.99ZM1367.63,335.17l-1.86-9c-4.01,2.76-6.9,4.55-5.67,8.99h7.53ZM1339.27,341.2v3.01c2.46-1,2.46-2,0-3.01Z"/>
  <path d="M1280.64,395.31c-.4,1.85-.25,3.94.2,5.79l14.93,3.23c-.93,1.6.99,6.28-1.65,9.1-4.91,5.26-20.03-.75-17.31,8.92l-3.71.02-7.57-6.02-.04,30.06-22.66-2.99,11.34,6.02c-1.9,6.37-13.08,7.56-20.28,5.61-7.8-2.11-10.71-21.29-21.34-5.68l11.35,6.04-18.9-5.98c-3.75,16.81,22.67,10.23,35.95,10.33,6.64.05,7.44-3.22,5.63,4.67l-16.75-3.15c-3.79,10.33-17.77,6.95-28.62,3.16-1.16-2.27-2.23-2.02-3.78-3.01l3.94-21.05c9.1,2.23,22.05,2.42,24.42-6.03,1.92-.12,1.01,14.55,17.01-1.49-5.38-.92-11.25-6.27-15.12-7.5l3.73-1.52c-.81-1.37-2.15-1.31-3.73-1.49l3.7-7.55-9.33,1.58-1.94-6.02,26.48-6.02.29,11.79,14.83.2c3.86-11.66-14.18-1.44-15.1-8.98,12.09,2.74,13.26-7.54,18.02-8.99,1.31-.4,15.18-3.04,16-3.06h.01Z"/>
  <path d="M1280.64,395.31c1.33-6.18,10.44-10.43-3.49-13.3l3.16-16.6c-10.38,1.17-11.53-2.08-14.8-9.16l16.7,3.28,2.31-6.26,30.15,12-18.88,2.99c-.34,14.22,18.06,3.47,30.23,6.02,1.58,5-5.01,1.8-6.69,3.45-2.72,2.67-.2,10.33-.86,14.56,1.83-.4,3.78-2.18,5.7-2.93l1.8,1.41-9.42,7.49-1.77-1.43c.97-1.44,3.48-3.19,3.69-4.53-12.36,2.67-4.28,2.12-8.8,4.88-3.02,1.84-13.53,6.52-13.9,7.14-2.26-5.02-8.36-9.21-15.13-9.02h0ZM1292,392.29c13.59,1.39,19.12-5.59,17.04-14.97l-17.04,14.97Z"/>
  <path d="M1261.71,344.21c-1.87,9.98-11.74,8.39.02,18.01-9.96,1.13-11.68-6.33-11.38-12.02l-15.08,3.02v-9c10.04,2.88,16.4,2.64,26.44,0h0Z"/>
  <path d="M1303.35,308.11c-1.48-8.6,8.08-19.4,15.09-10.49,1.52,8.46-4.84,11.73-15.09,10.49Z"/>
  <polygon points="1303.31 434.34 1288.21 440.38 1292.02 425.37 1303.31 434.34"/>
  <polygon points="1284.44 350.21 1274.94 353.17 1276.89 338.2 1280.6 338.21 1284.44 350.21"/>
  <rect x="1246.61" y="281.08" width="7.53" height="8.99"/>
  <path d="M1273.01,455.45c-2,7.77,20.41,9.55,5.7,14.99-7.85,2.9-5.99-12.1-13.18-13.52l7.49-1.47h0Z"/>
  <polygon points="1291.99 269.02 1284.44 269.03 1284.45 260.04 1288.17 260.04 1291.99 269.02"/>
  <rect x="1265.53" y="257.04" width="11.32" height="2.96"/>
  <polygon points="1273.08 287.11 1265.54 293.09 1265.53 287.09 1273.08 287.11"/>
  <rect x="1261.74" y="368.28" width="11.32" height="2.96"/>
  <rect x="1276.87" y="290.11" width="7.54" height="2.96"/>
  <path d="M1297.66,263.03c2.46,1,2.46,2,0,3.01v-3.01Z"/>
  <path d="M1274.97,266.04c2.46,1,2.46,2,0,3.01v-3.01Z"/>
  <path d="M1263.62,470.46c2.46,1,2.46,2,0,3.01v-3.01Z"/>
  <path d="M1282.53,434.39c2.46,1,2.46,2,0,3.01v-3.01Z"/>
  <path d="M1309.01,401.32c2.46,1,2.46,2,0,3.01v-3.01Z"/>
  <polygon points="1293.91 344.25 1295.71 345.68 1290.07 350.17 1288.27 348.73 1293.91 344.25"/>
</svg>