<?xml version="1.0" encoding="UTF-8"?>
<svg id="Layer_1" xmlns="http://www.w3.org/2000/svg" version="1.1" viewBox="0 0 1920 1080">
  <!-- Generator: Adobe Illustrator 29.5.1, SVG Export Plug-In . SVG Version: 2.1.0 Build 141)  -->
  <defs>
    <style>
      .st0 {
        fill: #fff;
      }
    </style>
  </defs>
  <text/>
  <g id="doaL8L.tif">
    <g>
      <path class="st0" d="M445.22,1019.36c-.45-.52-1.79-3.08-1.59-3.34l6.36-1.7c1.4,2.6,0,5,0,6.72-.93-.2-2.73.33-3.18,0l-1.59-1.68Z"/>
      <path class="st0" d="M422.95,1073.16v-1.68c1.86.98.07,1.35,0,1.68Z"/>
      <polygon class="st0" points="446.81 1076.52 447.63 1074.85 449.99 1074.85 450 1078.2 448.41 1078.2 446.81 1076.52"/>
      <path class="st0" d="M415,1078.2l3.18-8.39-5.58,3.34-3.93-3.39,1.08-3.32,5.19-2.64-1.51-12.49-4.65-.09-.14-6.66-2.74.83.38,2.51c-6.86-10.36-10.32,8.62-11.93-1.61,4.52-.41,5.62-4.22,6.51-8.37l4.58.79-4.63-2.74,1.5-6.53c4.56,1.62,4.08,1.52,4.59,5.94,3.61,1.68,7.11,1.63,9.57-1.88,1.3-1.86.67-5.97,3.3-5.73-.9,5.31-.9,12.67,4.77,13.43l.02-10.09,6.34,1.68-1.07-5.07-5.29.02.79-3.06,2.39,1.4,1.6-8.41-3.27,4.97c-4.41-.8-4.71.29-6.28-4.96,4.63,1.77,6.15-4.8,7.38-5.01,1.65-.28,10.68-.19,8.59,3.23l2.33.09c1.7-6.46,5.99-4.13,2.4,1.66-4.87-1.76-4.83,3.31-5.72,3.36l-3.82-1.69c-2.9,6.91,5.01,7.15,1.59,15.13,6.5,2,8.46-3.73,14.28-4.18l-6.18-2.69,1.44-8.25h3.18c.55.64.87,1.15,1.59,1.68l-.78,5.06,3.96-5.06c0,.28,1.67,1.36,1.51,2.56-.63,4.49-4.81,7.67-1.48,15.08l-4.8.87c2.56,3.77,4.54,2.27,4.74,7.59l-3.14-.88,2.8,11.52-2.8.27,3.31,4.06-.16,11.04-3.15-5.03-.02,8.4v1.68h-3.18l-2.39-8.42-.8,8.42h-1.59l-1.27-1.23-1.91,1.23h-1.59l4.77-4.2-4.78-3.37c6.28-2.08,3.58-5.99-1.56-2.52l-.05-10.69,3.2-2.73c-4.96.57-3.58-7.87-4.77-11.79-4.35,1.67-1.23,14.73-3.18,16.81l-6.33-1.68c-3.17,6.33.29,8.28,1.57,13.45l-3.19.86.02,2.5,3.17-1.68c-.36,1.76-.71,3.47-1.59,5.04h-6.36Z"/>
      <path class="st0" d="M409.43,1039.53v1.68c1.03-.56,1.03-1.12,0-1.68Z"/>
      <rect class="st0" x="429.32" y="1039.55" width="3.17" height="1.65"/>
      <polygon class="st0" points="437.27 1039.55 434.1 1039.54 434.1 1042.03 436.49 1044.54 437.27 1039.55"/>
      <rect class="st0" x="440.46" y="1039.54" width="3.16" height="3.34"/>
      <path class="st0" d="M410.23,1047.92l9.53-2.48c-3.27-4.95-7.74-1.95-9.53,2.48Z"/>
      <path class="st0" d="M437.25,1051.3c1.06-2.11-2.55-5.86-3.15-5.04-1.06,2.11,2.55,5.86,3.15,5.04Z"/>
      <rect class="st0" x="419.79" y="1049.63" width="1.56" height="3.35"/>
      <path class="st0" d="M417.38,1052.98v1.68c1.03-.56,1.03-1.12,0-1.68Z"/>
      <polygon class="st0" points="426.13 1052.99 422.95 1053 425.35 1056.33 426.13 1052.99"/>
      <rect class="st0" x="440.46" y="1053" width="4.76" height="1.65"/>
      <rect class="st0" x="434.1" y="1058.04" width="3.17" height="1.65"/>
      <rect class="st0" x="440.46" y="1063.08" width="3.17" height="1.65"/>
      <path class="st0" d="M442.04,1019.36l-1.59-1.68,1.59,1.68Z"/>
      <path class="st0" d="M302.05,1017.67c-5.31,7.1-7.91,15.54-7.29,24.59.81,11.83,9.46,23.22,3.31,34.25l-.78-2.25-3.18,3.93h-1.59c-.14-5.58-2.48-4.68-6.36-3.35l-1.55-9.29,4.73-3.32-4.78-.87,6.37-4.2-4.03-2.48-2.34-10.1,7.94-2.52-7.92-.87c1.68-4.39-4.57-20.57.72-21.45l5.62,1.3-4.76,4.19,2.91,1.59-.1,7.43-2.8,3.58,6.11-1.91.27-5.46-3.21-2.71c4.33.77,5.09-.9,6.26-4.95l-3.08-1.77c4.17.35,5.77-1.9,7.95-5.06l1.59,1.68Z"/>
      <path class="st0" d="M293.3,1049.62v1.68c1.03-.56,1.03-1.12,0-1.68Z"/>
      <polygon class="st0" points="295.68 1056.35 292.5 1056.36 292.5 1061.37 295.68 1061.38 295.68 1056.35"/>
      <path class="st0" d="M294.08,1068.11c1.06-2.11-2.55-5.86-3.15-5.04-1.06,2.11,2.55,5.86,3.15,5.04Z"/>
      <polygon class="st0" points="290.91 1071.46 287.75 1068.11 287.74 1071.47 290.91 1071.46"/>
      <path class="st0" d="M296.5,1068.15l-2.37,2.5.75.79c.88-1.07,3.2-2.19,1.62-3.3Z"/>
      <path class="st0" d="M300.46,1015.99c.95-1.38-.83-4.15,3.95-5.06l78.59-.17.17-13.27h7.96s-7.97-3.36-7.97-3.36l.02-8.39,4.01,1.62,2.33-5,.8,6.72,3.98-4.2-3.19-1.64c6.18-3.86,2.09-34.76,3.21-36.18,8.28,3.97,16.55,1.32,6.36,13.45l-.02-6.73c-7.9.17-.76,13.57,4.77,8.42v10.07s-4.75-1.67-4.75-1.67c-.91,3.07,2.41,4.01,2.89,6.25.56,2.61-1.6,5.15-1.1,7.73.97,4.98,7.03,2.76,7.72,6.18-3.1.48-10.63-.51-9.53,5.05,2.63.03,5.5.5,7.98-.8,2.78-1.46,1.95-5.86,4.73-5.91l1.6,18.48c-5.53.44-3.94-8.79-11.12-6.71-1.13,5.91,7.54,1.99,6.35,8.38-4.37.87-11.24,2.39-11.11,8.42.52.57,11.28-5.48,14.06-5.82,1.66-.21,10.8.02,11.37,2.44-8.62-2.67-5.74,5.04-9.16,6.75-3.88,1.94-9.42,1.33-10.87-3.46l-5.24,1.93.63,4.9,3.96-5.06c.72,5.87-4.83,9.9-8.75,5.05-2.92-3.61-.04-12.92-5.54-11.78.08,7.17-2.57,12.19,3.14,17.67l-3.14,4.19,3.14-.89c-4.02,2.49-1.36,11.57-1.79,12.32-.9,1.57-7.41,3.85-6.24,11.06l6.23,2.95c-.65,4.05,1.27,8.13-2.89,10.67l-4.79-.83-.02,8.42h-22.27l-.8-3.38-.8,3.38h-4.77l-.8-3.38-.8,3.38h-11.14l-1.4-8.21,2.98-1.85-7.92-1.71-1.63,8.42-6.34-4.21c5.09-1.31,3.62-13.47,3.15-18.46-.4-4.3-3.58-18.85-6.57-20.91-.94-.65-3.61,1.85-6.1.79-2.11-.9-5.55-6.83-7.98-8.49,5.14-4.51,9.71,7.88,10.32,7.57,2.65-2.49,4.34-5.43,2.54-8.98l-10.5-6.15-3.96,3.35,1.57-6.71c-4.7,2.22-5.66,5.41-3.17,10.07-4.07,1.03-3.03-2.25-4.77-5.03-.23-.37.2-1.94-1.59-1.68Z"/>
      <polygon class="st0" points="400.67 968.91 400.66 966.42 397.51 963.88 397.51 968.91 400.67 968.91"/>
      <rect class="st0" x="397.51" y="975.66" width="3.17" height="1.65"/>
      <polygon class="st0" points="400.67 984.06 397.5 984.07 399.89 987.4 400.67 984.06"/>
      <polygon class="st0" points="395.9 994.15 392.73 994.15 395.12 997.49 395.9 994.15"/>
      <path class="st0" d="M398.29,994.14v1.68c1.03-.56,1.03-1.12,0-1.68Z"/>
      <rect class="st0" x="408.64" y="997.52" width="3.17" height="1.65"/>
      <polygon class="st0" points="389.53 1004.22 386.37 1004.23 386.38 1010.95 391.1 1010.13 389.53 1004.22"/>
      <path class="st0" d="M405.44,1005.93l-11.12-1.68c.1,2.55,11.03,5.12,11.12,1.68Z"/>
      <path class="st0" d="M315.57,1012.63v1.68c1.03-.56,1.03-1.12,0-1.68Z"/>
      <rect class="st0" x="319.56" y="1012.64" width="1.56" height="3.35"/>
      <polygon class="st0" points="329.09 1012.65 324.33 1012.64 324.33 1015.98 326.68 1015.98 329.09 1012.65"/>
      <rect class="st0" x="352.96" y="1012.65" width="3.17" height="1.65"/>
      <rect class="st0" x="395.92" y="1012.64" width="1.56" height="3.35"/>
      <polygon class="st0" points="413.41 1016.01 408.64 1016 408.64 1019.35 411 1019.34 413.41 1016.01"/>
      <path class="st0" d="M375.24,1022.71c.91.96,4.73-1.4,4.73-2.51,0-4.65-7.14-.03-4.73,2.51Z"/>
      <path class="st0" d="M337.84,1026.08v1.68c1.03-.56,1.03-1.12,0-1.68Z"/>
      <path class="st0" d="M333.07,1029.44v1.68c1.03-.56,1.03-1.12,0-1.68Z"/>
      <path class="st0" d="M343.26,1036.32c-2.32-3.64-14.5-2.64-10.27,6.53,3.98,8.63,13.59-1.31,10.27-6.53Z"/>
      <path class="st0" d="M347.39,1034.49v1.68c1.03-.56,1.03-1.12,0-1.68Z"/>
      <path class="st0" d="M360.92,1036.17l-11.14-1.67c-.7,2.87,2.39,1.02,3.02,1.85.47.61-4.54,13.03,7.38,6.62l.73-6.8Z"/>
      <polygon class="st0" points="378.4 1041.22 372.75 1042.88 373.72 1049.57 378.4 1049.63 378.4 1041.22"/>
      <rect class="st0" x="362.51" y="1046.26" width="4.76" height="3.34"/>
      <path class="st0" d="M337.84,1049.62v1.68c1.03-.56,1.03-1.12,0-1.68Z"/>
      <path class="st0" d="M342.61,1049.62v1.68c1.03-.56,1.03-1.12,0-1.68Z"/>
      <rect class="st0" x="349.78" y="1051.31" width="3.16" height="3.34"/>
      <rect class="st0" x="343.42" y="1059.71" width="3.16" height="3.34"/>
      <path class="st0" d="M310,1078.2c-7.32-11.4-3.61-19.66,2.38-30.29l3.93,1.25c1.2,10.26,11.36,17.91,6.41,29.04h-12.73Z"/>
      <path class="st0" d="M309.21,1059.71v1.68c1.03-.56,1.03-1.12,0-1.68Z"/>
      <path class="st0" d="M315.57,1061.39v1.68c1.03-.56,1.03-1.12,0-1.68Z"/>
      <path class="st0" d="M321.13,1076.51c.2-3.51.61-6.3-2.38-8.36-2.98,2.07-2.57,4.85-2.38,8.36h4.76Z"/>
      <polygon class="st0" points="410.23 1078.2 408.63 1078.2 409.43 1074.82 410.23 1078.2"/>
      <polygon class="st0" points="282.97 1066.44 270.23 1066.41 276.56 1063.93 272.61 1059.71 270.89 1063.08 262.29 1063.09 267.88 1063.1 268.63 1066.42 260.68 1066.44 262.36 1044.66 281.51 1045.38 282.97 1066.44"/>
      <path class="st0" d="M268.62,1046.26c-6.36-1.15,1.09,6.6-4.71,9.25l6.3,4.19-1.6-13.44Z"/>
      <path class="st0" d="M274.21,1056.34v1.68c1.03-.56,1.03-1.12,0-1.68Z"/>
      <path class="st0" d="M278.98,1063.07v1.68c1.03-.56,1.03-1.12,0-1.68Z"/>
      <path class="st0" d="M597.94,963.89l-1.58,5.02,4.75-1.67,3.16,12.61c-3.92,4.38-9.48,4.26-7.92-2.54l-6.35,1.71,6.35,5.87c-13.64.16-14.48-6.03-7.93-17.65l3.13,7.28,4.81,1.1-3.18-11.74h4.77Z"/>
      <rect class="st0" x="588.41" y="973.97" width="1.56" height="3.35"/>
      <path class="st0" d="M465.9,1036.18l-3.16,11.75c2.88.29-.02-2.94,3.85-3.49,1.73-.25,3.82.33,5.67.16l-3.19,2.5,3.98.92,2.38-3.44-4.76,5.05c1.86,3.69,10.3,1.43,1.57,5.87l3.19,2.5c-5.94,2.48-6.23-3.08-7.16-3.37-2.87-.89-2.67.71-1.18,2.56l-5.97.81,3.16-2.49-4.56-11.44,6.15-7.9Z"/>
      <path class="st0" d="M470.68,1061.4l-3.17,6.71c4.62-1.78,3.43-8.49,9.52-6.73v11.77s-6.35-3.34-6.35-3.34l.79,4.99-5.56-5.01-3.18,5.04-1.6-13.42h9.54Z"/>
      <path class="st0" d="M474.65,1064.75v1.68c1.03-.56,1.03-1.12,0-1.68Z"/>
      <path class="st0" d="M335.48,820.96c4.96-5.28,4.78-.82,7.44-.29,4.62.92,5.83-8.83,6.84-12.28l-3.15-1.73c-7.03,8.37-19.32,1.96-20.71,16.8l3.19,1.74,3.2-7.59c3.25-.53,3.46.06,3.19,3.34Z"/>
      <rect class="st0" x="354.55" y="807.53" width="3.16" height="3.34"/>
      <path class="st0" d="M310.8,809.2v1.68c1.03-.56,1.03-1.12,0-1.68Z"/>
      <polygon class="st0" points="321.13 810.89 314.78 810.89 314.78 814.22 321.13 815.92 321.13 810.89"/>
      <path class="st0" d="M337.04,822.66c-4.89-.99-2.36,1.76-3.32,3.97-.83,1.92-4.07,8.25-3.03,9.46,6.25-.15,6.71-8.51,6.35-13.43Z"/>
      <rect class="st0" x="319.56" y="839.48" width="3.17" height="1.65"/>
      <path class="st0" d="M321.84,867.13c1.86-1.33,4.36-.87,5.37-3.58,1.45-3.87,5.07-15.18,5.91-19.02.47-2.13.36-4.93-1.64-5.02-4.81-.23-12.43,18.49-11.94,23.51l-5.59-1.66.81,4.99-5.56-3.32-3.86,9.12c10.09,4.69-3,9.35,1.48,19.45,5.81,1.38,7.87-5.4,8.85-10.12,1.88-9.02-3.15-7.72,6.16-14.34Z"/>
      <path class="st0" d="M313.98,856.28v1.68c1.03-.56,1.03-1.12,0-1.68Z"/>
      <path class="st0" d="M332.27,878.14c-.91-.96-4.73,1.4-4.73,2.51,0,4.65,7.14.03,4.73-2.51Z"/>
      <polygon class="st0" points="303.63 933.62 298.87 933.62 300.48 940.33 303.63 940.33 303.63 933.62"/>
      <path class="st0" d="M294.89,952.11v1.68c1.03-.56,1.03-1.12,0-1.68Z"/>
      <rect class="st0" x="297.29" y="952.12" width="1.56" height="3.35"/>
      <path class="st0" d="M298.07,957.15v1.68c1.03-.56,1.03-1.12,0-1.68Z"/>
      <path class="st0" d="M312.39,963.88v1.68c1.03-.56,1.03-1.12,0-1.68Z"/>
      <path class="st0" d="M326.71,965.56v1.68c1.03-.56,1.03-1.12,0-1.68Z"/>
      <polygon class="st0" points="297.28 968.94 294.1 968.93 294.11 972.28 297.28 968.94"/>
      <rect class="st0" x="311.6" y="970.62" width="3.17" height="1.65"/>
      <path class="st0" d="M296.48,973.96v1.68c1.03-.56,1.03-1.12,0-1.68Z"/>
      <path class="st0" d="M313.98,977.33v1.68c1.03-.56,1.03-1.12,0-1.68Z"/>
      <path class="st0" d="M294.89,979.01v1.68c1.03-.56,1.03-1.12,0-1.68Z"/>
      <path class="st0" d="M278.17,989.1h-6.34c-.02-7.03,5.43-11.58-1.56-15.99l7.13-4.18.77,20.17Z"/>
      <path class="st0" d="M278.17,963.88c-2.05-.88-3.7-1.59-5.95-.61-2.56,1.11-1.01,4.35-3.57,3.96v-8.39s2.36,3.35,2.36,3.35l5.21-5.88c-7.66-7.64,2.63-7.4,3.17-3.44l-1.22,11.01Z"/>
      <path class="st0" d="M265.47,989.09l2.37-15.11c2.46,3,3.77,16.29-2.37,15.11Z"/>
      <path class="st0" d="M1268.48,237.59v1.68c1.03-.56,1.03-1.12,0-1.68Z"/>
      <rect class="st0" x="1435.93" y="1528.84" width="3.17" height="1.65"/>
      <path class="st0" d="M1229.74,1534.94c-1.28-1.58-1.8-4.13-3.79-4.44-1.35,5.49,2.94,6.01,6.33,8.41,1.22-4.28-1.64-2.86-2.55-3.97Z"/>
      <polygon class="st0" points="1359.56 1533.88 1353.21 1534.7 1357.16 1537.22 1359.56 1533.88"/>
      <rect class="st0" x="1435.94" y="1533.87" width="1.56" height="3.35"/>
      <path class="st0" d="M1227.52,1538.92c-2.29-3.16-2.49-1-2.72,2.11-.29,3.87.09,9.21,1.16,13l1.56-15.11Z"/>
      <rect class="st0" x="1218" y="1545.64" width="1.56" height="3.35"/>
      <rect class="st0" x="1334.12" y="1554.05" width="3.16" height="3.34"/>
      <path class="st0" d="M1230.68,1574.2c3.81-6.7,8.96-15.31-1.56-18.46l1.57,11.74-1.57-7.55-3.21.02,1.6,13.42,3.16.83Z"/>
      <rect class="st0" x="1461.38" y="1565.81" width="58.86" height="5.04"/>
      <path class="st0" d="M1227.52,1614.55c-.61-6.45.58-13.03.63-19.38.02-1.89.98-10.97-1.42-10.84-4.67.25-1.26,18.82-1.01,22.77.24,3.83-3.92,8.57,1.8,7.45Z"/>
      <path class="st0" d="M1483.64,1599.43c-7.78-4.71-13.29-8.43-22.87-6.82-2.46,4.55-4.91,12.6,1.45,13.62,2.28.37,35.86-6.32,40.61-7.54,2.3-.59,5.64-1.45,6.27-4.28l-24.43-1.46-2.11,2.25,1.08,4.23Z"/>
      <path class="st0" d="M1501.14,1604.48l-11.12,1.65c3.14.45,12.29,5.12,11.12-1.65Z"/>
      <path class="st0" d="M1520.24,1609.5c-3.44-6.83-10.91.31-15.9-3.34l-.02,5.03,15.91-1.69Z"/>
      <rect class="st0" x="1232.31" y="1607.85" width="1.56" height="3.35"/>
      <rect class="st0" x="1472.52" y="1607.85" width="3.17" height="1.65"/>
      <rect class="st0" x="1230.72" y="1614.57" width="3.17" height="6.71"/>
      <path class="st0" d="M1520.23,1619.62c-3.68.98-12.22-2.22-14.3,1.65,3.67-.99,12.09,2.23,14.3-1.65Z"/>
      <rect class="st0" x="1225.95" y="1622.98" width="1.56" height="5.03"/>
      <polygon class="st0" points="1232.28 1631.37 1232.28 1624.66 1230.73 1624.66 1229.16 1628.87 1232.28 1631.37"/>
      <path class="st0" d="M1517.85,1631.37h-57.27c-4.58,2.23-2.15,24.47.02,25.23,4.31,1.51,1.8-9.84,6.57-11.55,11.91-2.71,39.69,3.37,49.52-1.47,5.08-2.5,4.68-11.06,1.17-12.21Z"/>
      <rect class="st0" x="1229.13" y="1639.79" width="3.17" height="8.39"/>
      <rect class="st0" x="1338.9" y="1644.83" width="1.56" height="3.35"/>
      <path class="st0" d="M1331.73,1646.51v1.68c1.03-.56,1.03-1.12,0-1.68Z"/>
      <polygon class="st0" points="1367.51 1651.54 1366.73 1646.51 1364.35 1649.05 1364.35 1651.54 1367.51 1651.54"/>
      <path class="st0" d="M1359.56,1649.88c-3.59,2.4-13.89-3.55-12.73,3.34,5.54.13,10.03,3.82,12.73-3.34Z"/>
      <path class="st0" d="M1331.73,1661.64v1.68c1.03-.56,1.03-1.12,0-1.68Z"/>
      <path class="st0" d="M1520.25,1666.69l-59.44-1.46-1.91,1.34.91,20.27c4.34.54,4.21-4.43,7.45-6.39,13.81-8.38,52.38,9.34,52.99-13.76Z"/>
      <path class="st0" d="M1361.95,1668.36v1.68c1.03-.56,1.03-1.12,0-1.68Z"/>
      <path class="st0" d="M1353.19,1678.44c.91-.96-1.32-5-2.38-5-4.4,0-.03,7.54,2.38,5Z"/>
      <polygon class="st0" points="1364.33 1678.44 1363.55 1673.41 1359.57 1678.43 1364.33 1678.44"/>
      <polygon class="st0" points="1362.75 1680.15 1357.98 1680.14 1357.99 1685.17 1362.75 1680.15"/>
      <polygon class="st0" points="1283.2 1691.91 1280.03 1692.73 1283.19 1695.26 1283.2 1691.91"/>
      <path class="st0" d="M1240.24,1695.27c-5.9-1.4-2.27,8.2-3.16,11.76l3.16-11.76Z"/>
      <polygon class="st0" points="1297.51 1695.27 1294.35 1696.09 1297.51 1698.62 1297.51 1695.27"/>
      <rect class="st0" x="1431.16" y="1695.28" width="3.17" height="1.65"/>
      <rect class="st0" x="1318.21" y="1696.95" width="3.16" height="3.34"/>
      <path class="st0" d="M1482.06,1703.65c-8.13-.84-14.2-9.35-23.18-3.47l1.9,12c1.97.32,37.07-8.32,38.8-9.35.73-.43,2.02-2.06,1.57-2.52l-19.23-.92.15,4.25Z"/>
      <path class="st0" d="M1520.23,1708.72c-3.58,1.06-14.94.7-14.3,6.71l14.32-1.68-.02-5.03Z"/>
      <path class="st0" d="M1434.33,1713.76c-6.2-1.36-6.55,2.67-2.37,6.71l2.37-6.71Z"/>
      <polygon class="st0" points="1486.83 1715.45 1482.07 1715.44 1482.07 1718.79 1484.42 1718.78 1486.83 1715.45"/>
      <path class="st0" d="M1501.14,1715.44c-2.97-.43-5.5,0-6.35,3.34h6.35s0-3.34,0-3.34Z"/>
      <path class="st0" d="M1520.23,1717.13c-3.96.09-7.97-.19-11.94-.02-1.93.08-5.91-1.27-5.54,1.66,2.2.33,4.32.64,6.55.69,1.96.05,10.37.1,10.93-2.34Z"/>
      <path class="st0" d="M1439.9,1718.8v1.68c1.03-.56,1.03-1.12,0-1.68Z"/>
      <path class="st0" d="M1466.14,1718.81l-4.64,4.29c-1.87,1.35-5.96-3.98-4.89,2.42h9.54s-.02-6.71-.02-6.71Z"/>
      <path class="st0" d="M1480.47,1725.51c-.97-3.8-4.91-3.58-7.95-3.34v3.34s7.95,0,7.95,0Z"/>
      <path class="st0" d="M1497.96,1723.86c-3.37-.09-6.76-2.99-7.94,1.65h7.95s0-1.65,0-1.65Z"/>
      <path class="st0" d="M1518.64,1723.86c-2.94-1.08-4.99-1.08-7.93,0v1.64s7.93,0,7.93,0v-1.64Z"/>
      <rect class="st0" x="1346.85" y="1723.85" width="1.56" height="3.35"/>
      <rect class="st0" x="1437.52" y="1723.86" width="3.17" height="1.65"/>
      <polygon class="st0" points="1447.06 1723.86 1443.89 1723.85 1443.9 1727.2 1447.06 1723.86"/>
      <path class="st0" d="M1342.86,1732.25v1.68c1.03-.56,1.03-1.12,0-1.68Z"/>
      <path class="st0" d="M1250.59,1745.7v1.68c1.03-.56,1.03-1.12,0-1.68Z"/>
      <path class="st0" d="M1431.95,1759.15v1.68c1.03-.56,1.03-1.12,0-1.68Z"/>
      <rect class="st0" x="1292.76" y="1767.57" width="3.17" height="1.65"/>
      <rect class="st0" x="1299.13" y="1775.97" width="1.56" height="3.35"/>
      <rect class="st0" x="1291.17" y="1779.34" width="3.17" height="1.65"/>
      <path class="st0" d="M1433.54,1792.77v1.68c1.03-.56,1.03-1.12,0-1.68Z"/>
      <rect class="st0" x="1260.94" y="1797.82" width="3.16" height="3.34"/>
      <polygon class="st0" points="1435.92 1799.51 1432.75 1799.51 1432.76 1802.86 1435.92 1799.51"/>
      <polygon class="st0" points="1439.09 1806.22 1439.92 1801.21 1435.93 1802.88 1439.09 1806.22"/>
      <path class="st0" d="M1441.49,1806.22v1.68c1.03-.56,1.03-1.12,0-1.68Z"/>
      <path class="st0" d="M1314.23,1807.9v1.68c1.03-.56,1.03-1.12,0-1.68Z"/>
      <path class="st0" d="M1336.5,1821.35v1.68c1.03-.56,1.03-1.12,0-1.68Z"/>
      <rect class="st0" x="1429.57" y="1828.1" width="3.17" height="1.65"/>
      <rect class="st0" x="1264.12" y="1829.78" width="3.17" height="1.65"/>
      <path class="st0" d="M1446.27,1829.76v1.68c1.03-.56,1.03-1.12,0-1.68Z"/>
      <polygon class="st0" points="1326.14 1836.49 1319.81 1836.49 1319.8 1839.84 1326.15 1839.84 1326.14 1836.49"/>
      <path class="st0" d="M1337.28,1851.62c-1.09-5.41,5.35-14.7-3.16-15.12,2.24,4.76-2.19,12.72,3.16,15.12Z"/>
      <path class="st0" d="M1324.56,1843.23c-2.94-1.08-4.99-1.08-7.93,0v1.64s7.93,0,7.93,0v-1.64Z"/>
      <rect class="st0" x="1321.39" y="1849.94" width="3.16" height="3.34"/>
      <path class="st0" d="M1274.46,1853.3v1.68c1.03-.56,1.03-1.12,0-1.68Z"/>
      <path class="st0" d="M1329.33,1856.68c-3.37-.09-6.76-2.99-7.94,1.65h7.95s0-1.65,0-1.65Z"/>
      <path class="st0" d="M462.71,1016c.94,2.92-2.15,11.84-6.35,8.39-3.11-2.56,2.53-3.57,2.71-3.87,1.41-2.27-1.24-5.62,3.64-4.51Z"/>
      <path class="st0" d="M287.71,978.99h-1.55s0-8.39,0-8.39h1.55c1.02,3.11,1.02,5.28,0,8.39Z"/>
      <polygon class="st0" points="395.89 1071.47 392.77 1068.97 394.34 1064.76 395.89 1064.76 395.89 1071.47"/>
      <polygon class="st0" points="392.72 893.26 389.55 893.26 389.56 888.22 392.71 890.77 392.72 893.26"/>
      <polygon class="st0" points="473.86 1037.87 472.25 1042.89 469.09 1042.88 470.7 1037.85 473.86 1037.87"/>
      <polygon class="st0" points="389.56 905.03 390.33 900 392.69 902.51 389.56 905.03"/>
      <rect class="st0" x="381.6" y="894.95" width="3.16" height="3.34"/>
      <rect class="st0" x="459.55" y="1026.09" width="3.16" height="3.34"/>
      <polygon class="st0" points="389.54 955.46 386.36 955.45 388.76 952.12 389.54 955.46"/>
      <rect class="st0" x="389.55" y="910.09" width="4.76" height="1.65"/>
      <rect class="st0" x="392.74" y="1039.54" width="1.56" height="5.03"/>
      <rect class="st0" x="475.46" y="1004.24" width="3.17" height="1.65"/>
      <rect class="st0" x="378.42" y="852.93" width="3.17" height="1.65"/>
      <rect class="st0" x="399.11" y="916.81" width="1.56" height="3.35"/>
      <rect class="st0" x="583.64" y="967.25" width="1.56" height="3.35"/>
      <rect class="st0" x="265.48" y="967.25" width="1.56" height="3.35"/>
      <rect class="st0" x="395.92" y="1073.16" width="1.56" height="3.35"/>
      <path class="st0" d="M282.16,831.06c1.03.56,1.03,1.12,0,1.68v-1.68Z"/>
      <path class="st0" d="M390.34,884.86c1.03.56,1.03,1.12,0,1.68v-1.68Z"/>
      <path class="st0" d="M383.98,910.08c1.03.56,1.03,1.12,0,1.68v-1.68Z"/>
      <path class="st0" d="M399.88,910.08c1.03.56,1.03,1.12,0,1.68v-1.68Z"/>
      <path class="st0" d="M401.48,928.57c1.03.56,1.03,1.12,0,1.68v-1.68Z"/>
      <path class="st0" d="M388.75,958.83c1.03.56,1.03,1.12,0,1.68v-1.68Z"/>
      <path class="st0" d="M409.43,962.19c1.03.56,1.03,1.12,0,1.68v-1.68Z"/>
      <path class="st0" d="M581.24,977.33c1.03.56,1.03,1.12,0,1.68v-1.68Z"/>
      <path class="st0" d="M383.98,980.69c1.03.56,1.03,1.12,0,1.68v-1.68Z"/>
      <path class="st0" d="M460.34,985.73c1.03.56,1.03,1.12,0,1.68v-1.68Z"/>
      <path class="st0" d="M431.7,990.78c1.03.56,1.03,1.12,0,1.68v-1.68Z"/>
      <path class="st0" d="M291.71,1010.95c1.03.56,1.03,1.12,0,1.68v-1.68Z"/>
      <path class="st0" d="M285.34,1014.31c1.03.56,1.03,1.12,0,1.68v-1.68Z"/>
      <path class="st0" d="M290.12,1014.31c1.03.56,1.03,1.12,0,1.68v-1.68Z"/>
      <path class="st0" d="M294.89,1014.31c1.03.56,1.03,1.12,0,1.68v-1.68Z"/>
      <path class="st0" d="M466.72,1021.07c1.58,1.1-.74,2.22-1.62,3.3l-.75-.79,2.37-2.5Z"/>
      <path class="st0" d="M479.43,1031.12c1.03.56,1.03,1.12,0,1.68v-1.68Z"/>
      <path class="st0" d="M460.34,1036.17c1.03.56,1.03,1.12,0,1.68v-1.68Z"/>
      <path class="st0" d="M457.15,1039.53c1.03.56,1.03,1.12,0,1.68v-1.68Z"/>
      <path class="st0" d="M466.7,1041.21c1.03.56,1.03,1.12,0,1.68v-1.68Z"/>
      <path class="st0" d="M474.65,1041.21c1.03.56,1.03,1.12,0,1.68v-1.68Z"/>
      <path class="st0" d="M479.43,1044.57c1.03.56,1.03,1.12,0,1.68v-1.68Z"/>
      <path class="st0" d="M391.93,1056.34c1.03.56,1.03,1.12,0,1.68v-1.68Z"/>
      <path class="st0" d="M453.97,1061.39c1.03.56,1.03,1.12,0,1.68v-1.68Z"/>
      <path class="st0" d="M481.02,1061.39c1.03.56,1.03,1.12,0,1.68v-1.68Z"/>
      <path class="st0" d="M387.16,1073.16c1.03.56,1.03,1.12,0,1.68v-1.68Z"/>
      <polygon class="st0" points="429.31 1071.46 426.14 1071.47 426.15 1068.11 429.31 1071.46"/>
      <path class="st0" d="M426.93,1074.84c1.03.56,1.03,1.12,0,1.68v-1.68Z"/>
      <path class="st0" d="M434.88,1024.4c1.03.56,1.03,1.12,0,1.68v-1.68Z"/>
    </g>
  </g>
</svg>