<?xml version="1.0" encoding="UTF-8"?>
<svg id="Layer_1" xmlns="http://www.w3.org/2000/svg" version="1.1" viewBox="0 0 1920 1080">
  <!-- Generator: Adobe Illustrator 29.5.1, SVG Export Plug-In . SVG Version: 2.1.0 Build 141)  -->
  <polygon points="-5.23 548.44 -9.93 550.94 -9.93 552.63 -6.05 554.33 -5.23 548.44"/>
  <path d="M38.48,659.44c-1.47-5.51-2.16-16.61-1.59-22.49-4.46,3.49-2.84-1.32-4.58-2.55-1.24-.87-3.55,1.38-4.43.54-.61-.58-.16-2.65-.45-2.89-.55-.46-2.06-.09-3.02-.13l1.57,15.17,3.1-1.71c.91,2.05-.52,14.74.1,15.08,3.27,1.77,5.19-1.82,6.18,7.68-4.89,4-2.72-5.89-6.25-5.87-.37,5.67-.57,13.51,4.65,16.85-2.16-6.76,2.9-6.7,3.77-8.51.52-1.08,4.27-9.5,3.97-9.93-.14-.21-2.6.37-3.03-1.24Z"/>
  <path d="M-2.5,634c-3.39-3.98-5.47-1.11-5.95,3.72-1.54,15.39,3.11,32.67,3.19,48.15l-3.07-.9c2.78,5.21-2.71,10.27,3.87,14.39,2.14-3.6-.66-8.23-.41-12.22.25-4.04,3.88-11.06,3.64-13.88-.2-2.27-3.66-4.89-2.53-9.85.41-1.81,4.3-1.2,4.87-5.36.16-1.21-2.84-23.15-3.6-24.05Z"/>
  <path d="M2.53,574.56c-2.64-2.63-3.93,2.96-4.23,4.61-.74,4.04-1.49,17.76,1.11,19.98,1.18,1,5.13-1.72,6.25,1.58,1.57,4.62-5.23.61-4.66,4.17h6.23c2.63-6.16-4.65-8.47-4.73-9.4-.27-3.18,4.13-16.85.03-20.94Z"/>
  <path d="M5.68,554.31c-1.41-.54-3.85,1.62-1.56,5.06l.78-1.65c.96-.05.71,1.6.78,1.65.24.2,1.82-.22,1.56,1.69.59-.5,3.93.7,3.12-3.37-2.36,1.98-4.39-3.26-4.68-3.37Z"/>
  <path d="M21.33,550.7l-1.61-4.83c-6.24-1.74-.35,8.03-5.42,6.73-5.83-1.51-2.63-3.28-2.82-4.61-1.1-7.95-4.54,1.36-7.37-.43,1.35-3.28.8-5.41-3.12-5.03v10.1c7.28-3.95,3.69.5,4.68,1.69.2.24,6.6,1.76,4.68,3.37l3.11,1.71c-1.42-8.58,4-3.53,9.35-4.22l-1.43-4.29s-.06.03-.1.04c0-.08.03-.15.04-.23Z"/>
  <path d="M5.68,561.06l-.79,3.34c1.22-.59,1.67-2.77,2.36-3.34-.5-.11-1.09.15-1.56,0Z"/>
  <path d="M4.12,559.37c.34.51,1.18,1.56,1.56,1.69v-1.69h-1.56Z"/>
  <path d="M-8.43,607.5c1.85,2.59-.44,19.12,2.39,19.31.23.01,3.8-1.87,3.91-2.51.67-3.89-3.16-1.94-3.24-3.45-.37-6.86,5.72-8.41,6.27-9.28,1.49-2.35-8.08-9.91-6.18-15.07-4.13,1.4-3.14,6.98-3.16,11.02Z"/>
  <path d="M78.17,675.62c1.54,9.36,5.79.24,6.24.29,1.88.2,4.49,2.46,7.14,1.51,1.78-12.41-15.21-12.92-13.38-1.8Z"/>
  <path d="M61.88,643.69c.62.4,6.03-1.44,6.24-1.7,3.08-3.73-9.65-4.73-10.15-8.4l-.79,3.36h-1.53s-1.56-3.36-1.56-3.36c-.62,4.41.51,7.58,3.91,10.1,4.92.95-.23-4.12.76-5.03,4.42-4.05,2.82,4.84,3.12,5.03Z"/>
  <path d="M85.3,653.83l4.68,1.67c3.01-2.69-19.23-17.9-23.39-9.24l7.77-.84-2.37,5,5.47,1.72.79-3.35,7.03,5.05Z"/>
  <path d="M85.29,657.19v-3.36s-4.67.84-4.67.84c1.42,1.79,2.37,3.08,4.67,2.53Z"/>
  <path d="M-3.69,594.78l-2.33-21.9c-3.61,1.23-2.43,27.33,2.33,21.9Z"/>
  <path d="M98.58,680.81l2.19-7.72-2.99-3.22,4.68.81-3.29-4.83c-6.11-2.86-4.33,12.57-.59,14.96Z"/>
  <path d="M25.9,619.36c1.88,3.55,3.49,3.18,6.32,2.42.26-.07-.68-3.25,3.89-1.77,1.43.46-.22,4.21,2.34,3.44v-8.42s-10.92,5.04-10.92,5.04c4.87-10.28-7.68-12.16-1.64-.71Z"/>
  <path d="M35.33,625.14c2.04-2.2-1.89-4.75-3.11-3.36-1.32,1.48,1.15,5.49,3.11,3.36Z"/>
  <path d="M6.47,648.73c-.61-2.42,1.22-9.23.69-9.93-.16-.2-3.59-.96-4.59-1.84.96,4.44-.27,9,3.91,11.77Z"/>
  <polygon points="24.17 596.67 19.76 597.31 25.96 606.6 24.17 596.67"/>
  <path d="M26.77,677.41l-.81-11.76h-1.53c.02,4.08-1.1,9,2.34,11.76Z"/>
  <path d="M33.75,690.11l-7.77-5.9c-.63.66,2.75,3.5,3.12,5.04,1.54.35,3.51,1.61,4.65.86Z"/>
  <path d="M29.1,689.25c-1.44-.33-4.52-1.9-4.67-1.69-2.14,3.05,6.38,8.83,4.67,1.69Z"/>
  <path d="M83.75,577.92c2.15.52,4.15-.91,4.68-3.35h-4.68s0,3.35,0,3.35Z"/>
  <rect x="46.29" y="616.73" width="1.53" height="8.42"/>
  <path d="M26.76,663.94l.76-5.04h-3.11c-.51,2.49.69,3.51,2.34,5.04Z"/>
  <polygon points="79.03 641.18 76.71 638.66 75.95 643.71 79.03 641.18"/>
  <rect x="40.04" y="701.06" width="1.53" height="6.73"/>
  <path d="M5.68,618.39c-.39-3.15-3.82-2.77-6.21-2.53,1.64,2.63,3.35,2.94,6.21,2.53Z"/>
  <polygon points="36.9 588.05 33.78 588.06 35.36 593.09 36.89 593.1 36.9 588.05"/>
  <polygon points="27.55 582.97 29.08 582.98 29.09 577.93 25.98 577.94 27.55 582.97"/>
  <polygon points="21.3 578.79 23.65 582.95 24.4 576.24 21.3 578.79"/>
  <polygon points="-8.36 562.74 -6.83 562.73 -5.25 557.7 -8.36 557.69 -8.36 562.74"/>
  <polygon points="36.89 545.88 36.9 542.51 33.79 543.34 36.89 545.88"/>
  <polygon points="32.24 586.36 35.34 583 32.23 582.99 32.24 586.36"/>
  <polygon points="27.55 603.23 30.66 599.87 27.54 599.86 27.55 603.23"/>
  <rect x="35.36" y="608.29" width="1.53" height="5.04"/>
  <polygon points="27.52 697.68 27.53 694.32 24.42 695.14 27.52 697.68"/>
  <rect x="75.95" y="633.6" width="1.53" height="3.36"/>
  <rect x="47.85" y="648.78" width="1.53" height="3.36"/>
  <rect x="46.29" y="611.67" width="1.53" height="3.36"/>
  <rect x="15.06" y="601.55" width="1.53" height="3.36"/>
  <rect x="55.65" y="667.33" width="1.53" height="3.36"/>
  <rect x="105.61" y="667.33" width="1.53" height="3.36"/>
  <rect x="32.24" y="577.93" width="1.53" height="3.36"/>
  <rect x="13.5" y="574.56" width="1.53" height="3.36"/>
  <rect x="36.91" y="561.08" width="3.11" height="1.65"/>
  <rect x="35.35" y="675.77" width="3.11" height="1.65"/>
  <rect x="63.46" y="677.45" width="1.53" height="3.36"/>
  <rect x="35.36" y="549.26" width="1.53" height="3.36"/>
  <rect x="1.01" y="684.2" width="1.53" height="3.36"/>
  <rect x="105.61" y="690.95" width="3.11" height="1.65"/>
  <rect x="35.36" y="697.69" width="1.53" height="3.36"/>
  <rect x="16.62" y="704.44" width="1.53" height="3.36"/>
  <path d="M115.75,711.17v1.69c1.01-.56,1.01-1.12,0-1.69Z"/>
  <path d="M51.74,709.49v1.69c1.01-.56,1.01-1.12,0-1.69Z"/>
  <path d="M111.06,707.8v1.69c1.01-.56,1.01-1.12,0-1.69Z"/>
  <path d="M43.93,706.11v1.69c1.01-.56,1.01-1.12,0-1.69Z"/>
  <path d="M9.58,701.05v1.69c1.01-.56,1.01-1.12,0-1.69Z"/>
  <path d="M101.7,697.68v1.69c1.01-.56,1.01-1.12,0-1.69Z"/>
  <path d="M6.46,697.68v1.69c1.01-.56,1.01-1.12,0-1.69Z"/>
  <path d="M14.27,697.68c1.01-.56,1.01-1.12,0-1.69v1.69Z"/>
  <path d="M101.7,679.13v1.69c1.01-.56,1.01-1.12,0-1.69Z"/>
  <path d="M72.03,679.13v1.69c1.01-.56,1.01-1.12,0-1.69Z"/>
  <path d="M67.35,662.26v1.69c1.01-.56,1.01-1.12,0-1.69Z"/>
  <path d="M50.17,655.51v1.69c1.01-.56,1.01-1.12,0-1.69Z"/>
  <path d="M26.76,653.83v1.69c1.01-.56,1.01-1.12,0-1.69Z"/>
  <path d="M97.01,652.14c1.01-.56,1.01-1.12,0-1.69v1.69Z"/>
  <path d="M72.03,635.27v1.69c1.01-.56,1.01-1.12,0-1.69Z"/>
  <path d="M6.46,636.96c1.01-.56,1.01-1.12,0-1.69v1.69Z"/>
  <path d="M47.05,635.27c1.01-.56,1.01-1.12,0-1.69v1.69Z"/>
  <path d="M11.14,633.59v1.69c1.01-.56,1.01-1.12,0-1.69Z"/>
  <path d="M53.3,631.9c1.01-.56,1.01-1.12,0-1.69v1.69Z"/>
  <path d="M3.34,623.47c1.01-.56,1.01-1.12,0-1.69v1.69Z"/>
  <path d="M98.57,618.41v1.69c1.01-.56,1.01-1.12,0-1.69Z"/>
  <path d="M33,613.35v1.69c1.01-.56,1.01-1.12,0-1.69Z"/>
  <path d="M97.01,613.35c1.01-.56,1.01-1.12,0-1.69v1.69Z"/>
  <path d="M36.12,604.91v1.69c1.01-.56,1.01-1.12,0-1.69Z"/>
  <path d="M11.14,604.91v1.69c1.01-.56,1.01-1.12,0-1.69Z"/>
  <path d="M33,603.23v1.69c1.01-.56,1.01-1.12,0-1.69Z"/>
  <path d="M11.14,596.48v1.69c1.01-.56,1.01-1.12,0-1.69Z"/>
  <path d="M11.14,591.42v1.69c1.01-.56,1.01-1.12,0-1.69Z"/>
  <path d="M97.01,591.42c1.01-.56,1.01-1.12,0-1.69v1.69Z"/>
  <path d="M11.14,588.05v1.69c1.01-.56,1.01-1.12,0-1.69Z"/>
  <path d="M93.89,586.36v1.69c1.01-.56,1.01-1.12,0-1.69Z"/>
  <path d="M97.01,582.99v1.69c1.01-.56,1.01-1.12,0-1.69Z"/>
  <path d="M37.68,584.67c1.01-.56,1.01-1.12,0-1.69v1.69Z"/>
  <path d="M8.02,584.67c1.01-.56,1.01-1.12,0-1.69v1.69Z"/>
  <path d="M11.14,581.3v1.69c1.01-.56,1.01-1.12,0-1.69Z"/>
  <path d="M14.27,579.61v1.69c1.01-.56,1.01-1.12,0-1.69Z"/>
  <path d="M11.14,577.93v1.69c1.01-.56,1.01-1.12,0-1.69Z"/>
  <path d="M8.02,574.55v1.69c1.01-.56,1.01-1.12,0-1.69Z"/>
  <path d="M81.4,554.31v1.69c1.01-.56,1.01-1.12,0-1.69Z"/>
</svg>