<?xml version="1.0" encoding="UTF-8"?>
<svg id="Layer_1" xmlns="http://www.w3.org/2000/svg" version="1.1" viewBox="0 0 1920 1080">
  <!-- Generator: Adobe Illustrator 29.5.1, SVG Export Plug-In . SVG Version: 2.1.0 Build 141)  -->
  <path d="M403.79,1016.48c-4.41-1.64-2.7,3.02-3.15,3.34-.63.45-4.85-4.98-7.77-3.35,1.92,5.41-.45,7.93-1.29,12.63-.99,5.54-1.66,4.62-1.81,5.35-.46,2.18-1.64,12.64-1.66,14.98-.09,7.61,7.81,7.65,9.25,3.09,2.62-8.25-5.67-5.15-6.02-8.22-.34-3.08,5.95-5.5,6.97-7.64,1.36-2.83-.59-7.55,3.9-6.74v-1.63s-4.65-2.58-4.65-2.58c-.3-5.21,2.45.75,6.23-3.36.19-.21-6.06-.44,0-5.88Z"/>
  <path d="M342.9,1041.75c-4.09-.48-8.03,1.95-11.62,2.55-1.43.24-4.89-1.45-5.54-.84-4.53,4.31,9.45,2.97,6.26,6.72h1.52c-1.37-3.92,4.64-4.51,6.08-3.07.38.38-.19,2.97.65,4.26.77,1.18,3.28-.49,2.64,2.18l-12.47,3.38c2.94.33,9.41.73,11.45,3.21,1.91,2.34-.22,5.56,2.58,5.23l.86-26.98-5.51.02,3.1,3.33Z"/>
  <path d="M366.32,997.9l.02,15.2c3.31-1.69,6.99,1.57,9.35-2.57l-3.13-8.36,4.69-4.25-10.93-.02Z"/>
  <path d="M399.1,1095.74l-3.1-5.91,3.16-1.68c-5.48-8.85-1-4.59-.3-6.72,1.55-4.78-5.34-6.67-6.64-9.24-.59-1.16.3-7.19-.92-8.5-6.12-6.52-.47,8.94-.34,9.66.93,5.17,1.64,10.24,2.63,15.44.9,4.73-3.88,4.48,5.52,6.94Z"/>
  <path d="M367.24,1028.21c5.96,1.51,11.14-3.87,7.68-8.5-.98-1.31-2.62-.07-3.54-.58-.47-.26-.49-1.86-.77-2-1-.49-3.78-1.24-4.28-.68-.4.44-1.84,11.06.91,11.75Z"/>
  <path d="M436.6,1078.87l-1.57,6.74,17.15,1.7v-6.74c-5.89,1.77-10.05.5-15.58-1.69Z"/>
  <path d="M364.77,1104.16h14.04c5.52-5.63-15.62-11.47-14.04,0Z"/>
  <path d="M313.23,938.89c-8.03.23-4.59,10.82-6.22,16.86,3.77-.65,7.5-15.31,6.22-16.86Z"/>
  <path d="M310.1,903.47c-2.35-.29-2.11,6.42-2.16,8.2-.11,3.98,1.03,7.99.64,12.02,7.16-2.96,2.31-13.76,1.53-20.23Z"/>
  <path d="M369.47,946.47c-5.23,1.32-2.78,6.03-3.13,10.96,5.09.31,7.27-1.25,9.33-5.91-10.61,2.46-2.7-6.97-3.09-7.55-1.97-2.92-12.11-1.23-3.1,2.51Z"/>
  <path d="M456.88,1085.59c1.64,1.79,9.76.71,12.48,1.71v-5.07c-.66,1.96-17.45-2.08-12.48,3.35Z"/>
  <path d="M458.45,1046.83v6.74s7.79,0,7.79,0c1.08-6.97-3.08-6.05-7.79-6.74Z"/>
  <rect x="392.87" y="1002.96" width="4.67" height="8.45"/>
  <path d="M392.87,1097.43v6.73c4.06.91,8.85,0,6.08-4.87-.17-.29-5.59-2.44-6.08-1.86Z"/>
  <polygon points="374.1 992.01 368.69 987.8 366.33 994.52 374.1 992.01"/>
  <path d="M311.7,1060.31l3.09-10.12c-6.84,2.06-4.66,3.66-3.09,10.12Z"/>
  <path d="M439.72,916.13v2.5s6.22,0,6.22,0v-5.04c-2.88-.39-4.58-.1-6.22,2.55Z"/>
  <path d="M381.93,1036.71l-3.09.8,1.53,5.93h-6.23c-1.68-4.44,3.18-2.92,3.22-4.31.21-7.53-5.31-10.61-11.76-9.29-2.17.45.79,5.74-2.38,5.16l-.03-8.42c-3.27-.38-.73,5.69-1.55,6.74-3,3.81-2.48-4.04-4.66-3.36l3.09,10.11h-10.91v25.3c3.04-1.32.62-4.87,6.24-3.36-2.98,4.98,3.12.64,3.17,5.88.01,1.65-4.37-.49-3.17,3.36l4.69.88c.68,2.9-2.45,1.02-3.02,1.81-.76,1.04,1.72,4.16,1.34,4.76-.34.55-3.03.63-3.84,1.72-.62.84,2.73,10.19-3.81,12.79l2.84-.57,1.83,6.45c-4.95-.35-5.24-.56-4.7,5.07l10.95.02v-35.43c6.52,2.74,1.24,20.89,3.13,23.61,9.19-4.92,5.08,1.93,6.32,3.19.9.92,5.79-.19,7.71.17l-7.79-5.9c13.86-3.25,5.62-6.03,5.25-11.86-.51-8.3-.3-4.48-1.84-12.14-.89-4.42,3.94-13.24-.3-18.99l12.46-2.56h-4.66s0-7.57,0-7.57ZM354.59,1053.56l-3.87-2.53,6.24-.82-2.36,3.35ZM360.06,1082.25v3.36s-3.1-.83-3.1-.83l3.1-2.54ZM357.74,1090.68v-1.69c1.01.56,1.01,1.12,0,1.69ZM356.97,1099.1c-1.7-1.84,1.4-5.2,3.11-3.36s-1.4,5.2-3.11,3.36ZM363.22,1036.71h1.53v5.04h-1.53v-5.04ZM361.66,1050.21h1.53v3.36h-1.53v-3.36ZM361.65,1067.06c-.38-3.11-.06-4.91,2.34-6.73l.76,6.73h-3.11Z"/>
  <polygon points="400.69 1011.4 402.21 1011.39 405.33 1005.5 402.99 1002.99 400.68 1002.98 400.69 1011.4"/>
  <path d="M294.51,1046.81h7.8s0-3.35,0-3.35c-2.98-.25-6.85-.46-7.8,3.35Z"/>
  <path d="M439.7,881.55l4.68,7.58-3.11,2.5c6.95,4.03,3.55-9.65,3.1-10.11-.31-.32-3.41.19-4.67.02Z"/>
  <polygon points="352.29 947.31 355.39 944.76 353.05 940.57 352.29 947.31"/>
  <rect x="441.27" y="933.83" width="4.67" height="3.36"/>
  <rect x="456.89" y="1100.82" width="9.35" height="1.65"/>
  <polygon points="402.25 1063.68 403.78 1063.68 403.79 1056.95 400.68 1056.96 402.25 1063.68"/>
  <path d="M441.25,1097.43h-4.66s.75,6.71.75,6.71c1.92-2.15,4.53-3.52,3.9-6.71Z"/>
  <polygon points="451.41 949.01 450.65 955.74 453.75 953.19 451.41 949.01"/>
  <rect x="366.33" y="981.05" width="4.67" height="3.36"/>
  <path d="M314.8,1046.82v-3.36s-4.67.83-4.67.83c1.42,1.79,2.37,3.08,4.67,2.53Z"/>
  <polygon points="427.22 1083.92 430.33 1083.92 430.33 1078.89 427.22 1078.88 427.22 1083.92"/>
  <path d="M447.49,1014.78l-4.67,1.7c1.6,5.07,4.84,3,4.67-1.7Z"/>
  <polygon points="441.27 1008.05 441.27 1009.7 447.5 1009.71 447.49 1006.35 441.27 1008.05"/>
  <path d="M441.27,926.22c1.42,1.79,2.37,3.08,4.67,2.53v-3.36s-4.67.83-4.67.83Z"/>
  <path d="M359.31,1002.96l.76-5.04h-3.11c-.51,2.49.69,3.51,2.34,5.04Z"/>
  <polygon points="441.27 942.26 441.28 945.62 445.93 945.62 445.94 942.26 441.27 942.26"/>
  <path d="M441.3,1103.35c2.6.32,8.96-1.42,6.21-4.22-1.49-1.52-5.03,2.69-6.21,4.22Z"/>
  <path d="M349.16,1026.58h3.11c.48-2.33-.84-4.48-3.1-5.05v5.05Z"/>
  <path d="M452.99,1001.25l.76-6.7c-4.81-1.22-4.12,3.97-.76,6.7Z"/>
  <polygon points="349.16 1069.59 351.49 1072.09 353.84 1068.77 349.16 1069.59"/>
  <path d="M394.44,999.59c1.7,1.84,4.81-1.52,3.11-3.36s-4.81,1.52-3.11,3.36Z"/>
  <rect x="307.01" y="930.45" width="1.53" height="6.73"/>
  <polygon points="381.97 1072.97 385.04 1075.5 384.29 1070.45 381.97 1072.97"/>
  <path d="M450.64,945.61c1.7,1.84,4.81-1.52,3.11-3.36-1.7-1.84-4.81,1.52-3.11,3.36Z"/>
  <polygon points="470.93 1087.29 477.14 1086.48 473.29 1083.94 470.93 1087.29"/>
  <rect x="303.89" y="891.66" width="1.53" height="6.73"/>
  <polygon points="335.12 920.31 336.65 920.32 336.65 915.27 333.54 915.28 335.12 920.31"/>
  <rect x="402.25" y="1048.52" width="1.53" height="5.04"/>
  <rect x="383.51" y="1048.52" width="1.53" height="5.04"/>
  <polygon points="441.27 908.53 443.61 911.88 444.38 908.53 441.27 908.53"/>
  <rect x="419.42" y="1040.1" width="4.67" height="1.65"/>
  <path d="M383.52,1056.95l-.81,6.7c2.43-1.77,2.72-3.61,2.34-6.7h-1.53Z"/>
  <polygon points="360.43 1010.34 361.65 1008.83 355.43 1008.86 360.43 1010.34"/>
  <polygon points="349.17 1033.33 352.27 1029.98 349.16 1029.97 349.17 1033.33"/>
  <polygon points="444.4 1028.27 444.4 1031.64 447.51 1031.63 444.4 1028.27"/>
  <polygon points="427.21 1102.47 430.33 1102.48 429.56 1099.12 427.21 1102.47"/>
  <rect x="350.73" y="1006.35" width="1.53" height="5.04"/>
  <rect x="447.52" y="1067.08" width="4.67" height="1.65"/>
  <rect x="342.92" y="1068.76" width="1.53" height="3.36"/>
  <rect x="402.25" y="1068.76" width="1.53" height="3.36"/>
  <rect x="294.52" y="1070.45" width="1.53" height="3.36"/>
  <path d="M335.11,1070.46v1.65l4.64.88c-1.38-1.82-2.36-3.09-4.64-2.53Z"/>
  <rect x="394.44" y="876.49" width="3.11" height="1.65"/>
  <rect x="381.95" y="1065.4" width="3.11" height="1.65"/>
  <rect x="394.44" y="991.18" width="3.11" height="1.65"/>
  <rect x="394.44" y="889.97" width="1.53" height="3.36"/>
  <rect x="441.28" y="1053.58" width="1.53" height="3.36"/>
  <rect x="447.53" y="1072.13" width="1.53" height="3.36"/>
  <rect x="447.52" y="1051.9" width="3.11" height="1.65"/>
  <rect x="308.57" y="999.61" width="3.11" height="1.65"/>
  <rect x="335.12" y="906.84" width="1.53" height="3.36"/>
  <rect x="350.73" y="997.92" width="1.53" height="3.36"/>
  <rect x="336.67" y="1078.89" width="3.11" height="1.65"/>
  <rect x="383.51" y="1080.57" width="1.53" height="3.36"/>
  <rect x="400.68" y="1080.58" width="3.11" height="1.65"/>
  <rect x="438.15" y="1028.29" width="3.11" height="1.65"/>
  <rect x="403.81" y="1028.28" width="1.53" height="3.36"/>
  <rect x="481.87" y="1083.94" width="1.53" height="3.36"/>
  <rect x="485" y="1083.94" width="1.53" height="3.36"/>
  <rect x="294.52" y="1085.63" width="1.53" height="3.36"/>
  <rect x="402.25" y="1085.63" width="1.53" height="3.36"/>
  <rect x="450.64" y="935.52" width="3.11" height="1.65"/>
  <rect x="420.98" y="1089.01" width="3.11" height="1.65"/>
  <rect x="428.79" y="1089" width="1.53" height="3.36"/>
  <path d="M357.72,1026.55c1.68-1.49,2.86-2.55,2.34-5.02h-1.53l-.81,5.02Z"/>
  <rect x="336.67" y="1090.7" width="3.11" height="1.65"/>
  <rect x="355.41" y="1019.85" width="1.53" height="3.36"/>
  <rect x="394.44" y="986.12" width="3.11" height="1.65"/>
  <rect x="441.27" y="1004.67" width="3.11" height="1.65"/>
  <rect x="294.52" y="1092.37" width="1.53" height="3.36"/>
  <rect x="442.83" y="950.7" width="3.11" height="1.65"/>
  <rect x="400.69" y="996.23" width="1.53" height="3.36"/>
  <rect x="308.58" y="960.81" width="1.53" height="3.36"/>
  <rect x="422.54" y="1008.05" width="3.11" height="1.65"/>
  <rect x="338.24" y="1008.04" width="1.53" height="3.36"/>
  <rect x="367.89" y="969.25" width="3.11" height="1.65"/>
  <path d="M294.52,1102.48h1.53l.81-5.02c-1.68,1.49-2.86,2.55-2.34,5.02Z"/>
  <rect x="372.59" y="981.05" width="1.53" height="3.36"/>
  <rect x="394.44" y="979.37" width="1.53" height="3.36"/>
  <path d="M395.21,871.41c1.01-.56,1.01-1.12,0-1.69v1.69Z"/>
  <path d="M423.31,873.1v1.69c1.01-.56,1.01-1.12,0-1.69Z"/>
  <path d="M449.85,873.1v1.69c1.01-.56,1.01-1.12,0-1.69Z"/>
  <path d="M442.05,878.16v1.69c1.01-.56,1.01-1.12,0-1.69Z"/>
  <path d="M395.21,883.22v1.69c1.01-.56,1.01-1.12,0-1.69Z"/>
  <path d="M451.41,888.28v1.69c1.01-.56,1.01-1.12,0-1.69Z"/>
  <path d="M335.88,891.65v1.69c1.01-.56,1.01-1.12,0-1.69Z"/>
  <path d="M340.56,891.65v1.69c1.01-.56,1.01-1.12,0-1.69Z"/>
  <path d="M340.56,908.52c1.01-.56,1.01-1.12,0-1.69v1.69Z"/>
  <path d="M356.18,908.52v1.69c1.01-.56,1.01-1.12,0-1.69Z"/>
  <path d="M395.21,908.52v1.69c1.01-.56,1.01-1.12,0-1.69Z"/>
  <path d="M340.56,916.95c1.01-.56,1.01-1.12,0-1.69v1.69Z"/>
  <path d="M395.21,916.95c1.01-.56,1.01-1.12,0-1.69v1.69Z"/>
  <path d="M340.56,920.32c1.01-.56,1.01-1.12,0-1.69v1.69Z"/>
  <path d="M451.41,927.07c1.01-.56,1.01-1.12,0-1.69v1.69Z"/>
  <path d="M340.56,932.13c1.01-.56,1.01-1.12,0-1.69v1.69Z"/>
  <path d="M370.23,933.82c1.01-.56,1.01-1.12,0-1.69v1.69Z"/>
  <path d="M374.91,943.94v1.69c1.01-.56,1.01-1.12,0-1.69Z"/>
  <path d="M421.75,947.31v1.69c1.01-.56,1.01-1.12,0-1.69Z"/>
  <path d="M445.17,955.74c1.01-.56,1.01-1.12,0-1.69v1.69Z"/>
  <path d="M362.42,960.8v1.69c1.01-.56,1.01-1.12,0-1.69Z"/>
  <path d="M367.11,962.49v1.69c1.01-.56,1.01-1.12,0-1.69Z"/>
  <path d="M309.34,965.86v1.69c1.01-.56,1.01-1.12,0-1.69Z"/>
  <path d="M417.07,967.55v1.69c1.01-.56,1.01-1.12,0-1.69Z"/>
  <path d="M368.67,975.98c1.01-.56,1.01-1.12,0-1.69v1.69Z"/>
  <path d="M401.45,981.04v1.69c1.01-.56,1.01-1.12,0-1.69Z"/>
  <path d="M357.74,982.73v1.69c1.01-.56,1.01-1.12,0-1.69Z"/>
  <path d="M362.42,984.42c1.01-.56,1.01-1.12,0-1.69v1.69Z"/>
  <path d="M309.34,986.1v1.69c1.01-.56,1.01-1.12,0-1.69Z"/>
  <path d="M334.32,989.48c1.01-.56,1.01-1.12,0-1.69v1.69Z"/>
  <path d="M357.74,992.85c1.01-.56,1.01-1.12,0-1.69v1.69Z"/>
  <path d="M381.16,997.91v1.69c1.01-.56,1.01-1.12,0-1.69Z"/>
  <path d="M429.56,997.91v1.69c1.01-.56,1.01-1.12,0-1.69Z"/>
  <path d="M437.36,997.91v1.69c1.01-.56,1.01-1.12,0-1.69Z"/>
  <path d="M362.42,1001.28c1.01-.56,1.01-1.12,0-1.69v1.69Z"/>
  <path d="M310.9,1002.97v1.69c1.01-.56,1.01-1.12,0-1.69Z"/>
  <path d="M424.87,1004.66v1.69c1.01-.56,1.01-1.12,0-1.69Z"/>
  <path d="M429.56,1006.34c1.01-.56,1.01-1.12,0-1.69v1.69Z"/>
  <path d="M437.36,1006.34c1.01-.56,1.01-1.12,0-1.69v1.69Z"/>
  <path d="M429.56,1009.72c1.01-.56,1.01-1.12,0-1.69v1.69Z"/>
  <path d="M437.36,1009.72c1.01-.56,1.01-1.12,0-1.69v1.69Z"/>
  <path d="M301.53,1009.72v1.69c1.01-.56,1.01-1.12,0-1.69Z"/>
  <path d="M320.27,1009.72v1.69c1.01-.56,1.01-1.12,0-1.69Z"/>
  <path d="M351.51,1018.15c.52-.86,1.26-.89,0-1.65-3.52,2.56-1.93,4.85,0,1.65Z"/>
  <path d="M423.31,1016.46v1.69c1.01-.56,1.01-1.12,0-1.69Z"/>
  <path d="M429.56,1018.15c1.01-.56,1.01-1.12,0-1.69v1.69Z"/>
  <path d="M437.36,1018.15c1.01-.56,1.01-1.12,0-1.69v1.69Z"/>
  <path d="M310.9,1018.15v1.69c1.01-.56,1.01-1.12,0-1.69Z"/>
  <path d="M320.27,1018.15v1.69c1.01-.56,1.01-1.12,0-1.69Z"/>
  <path d="M359.3,1018.15v1.69c1.01-.56,1.01-1.12,0-1.69Z"/>
  <path d="M362.42,1023.21c1.01-.56,1.01-1.12,0-1.69v1.69Z"/>
  <path d="M310.9,1023.21v1.69c1.01-.56,1.01-1.12,0-1.69Z"/>
  <path d="M381.16,1026.58c1.01-.56,1.01-1.12,0-1.69v1.69Z"/>
  <path d="M340.56,1029.96c1.01-.56,1.01-1.12,0-1.69v1.69Z"/>
  <path d="M452.97,1029.96c1.01-.56,1.01-1.12,0-1.69v1.69Z"/>
  <path d="M381.16,1033.33c1.01-.56,1.01-1.12,0-1.69v1.69Z"/>
  <path d="M385.84,1031.64v1.69c1.01-.56,1.01-1.12,0-1.69Z"/>
  <path d="M299.97,1038.39v1.69c1.01-.56,1.01-1.12,0-1.69Z"/>
  <path d="M332.76,1038.39v1.69c1.01-.56,1.01-1.12,0-1.69Z"/>
  <path d="M403.01,1040.08v1.69c1.01-.56,1.01-1.12,0-1.69Z"/>
  <path d="M427.99,1040.08v1.69c1.01-.56,1.01-1.12,0-1.69Z"/>
  <path d="M321.83,1043.45v1.69c1.01-.56,1.01-1.12,0-1.69Z"/>
  <path d="M427.99,1046.82c1.01-.56,1.01-1.12,0-1.69v1.69Z"/>
  <path d="M410.82,1050.2v1.69c1.01-.56,1.01-1.12,0-1.69Z"/>
  <path d="M381.16,1051.89v1.69c1.01-.56,1.01-1.12,0-1.69Z"/>
  <path d="M435.8,1051.89v1.69c1.01-.56,1.01-1.12,0-1.69Z"/>
  <path d="M449.85,1056.95c1.01-.56,1.01-1.12,0-1.69v1.69Z"/>
  <path d="M320.27,1058.63v1.69c1.01-.56,1.01-1.12,0-1.69Z"/>
  <path d="M410.82,1060.32v1.69c1.01-.56,1.01-1.12,0-1.69Z"/>
  <path d="M340.56,1062.01v1.69c1.01-.56,1.01-1.12,0-1.69Z"/>
  <path d="M296.85,1063.69v1.69c1.01-.56,1.01-1.12,0-1.69Z"/>
  <path d="M312.45,1067.1c-1.54,1.17.84,2.32,1.59,3.31,1.55-1.11-.73-2.23-1.59-3.31Z"/>
  <path d="M298.41,1068.75v1.69c1.01-.56,1.01-1.12,0-1.69Z"/>
  <path d="M320.27,1068.75v1.69c1.01-.56,1.01-1.12,0-1.69Z"/>
  <path d="M459.22,1070.44c1.01-.56,1.01-1.12,0-1.69v1.69Z"/>
  <path d="M463.9,1070.44c1.01-.56,1.01-1.12,0-1.69v1.69Z"/>
  <path d="M460.78,1073.81c1.01-.56,1.01-1.12,0-1.69v1.69Z"/>
  <path d="M451.41,1073.81v1.69c1.01-.56,1.01-1.12,0-1.69Z"/>
  <path d="M296.85,1075.5v1.69c1.01-.56,1.01-1.12,0-1.69Z"/>
  <path d="M314.02,1077.19v1.69c1.01-.56,1.01-1.12,0-1.69Z"/>
  <path d="M295.29,1080.56c1.01-.56,1.01-1.12,0-1.69v1.69Z"/>
  <path d="M387.4,1080.56v1.69c1.01-.56,1.01-1.12,0-1.69Z"/>
  <path d="M384.28,1085.62v1.69c1.01-.56,1.01-1.12,0-1.69Z"/>
  <path d="M298.41,1087.31v1.69c1.01-.56,1.01-1.12,0-1.69Z"/>
  <path d="M337.44,1087.31v1.69c1.01-.56,1.01-1.12,0-1.69Z"/>
  <path d="M351.49,1088.99c1.01-.56,1.01-1.12,0-1.69v1.69Z"/>
  <path d="M437.36,1088.99v1.69c1.01-.56,1.01-1.12,0-1.69Z"/>
  <path d="M384.28,1092.37v1.69c1.01-.56,1.01-1.12,0-1.69Z"/>
  <path d="M403.01,1092.37v1.69c1.01-.56,1.01-1.12,0-1.69Z"/>
  <path d="M298.41,1094.05v1.69c1.01-.56,1.01-1.12,0-1.69Z"/>
  <path d="M388.96,1099.11v1.69c1.01-.56,1.01-1.12,0-1.69Z"/>
  <path d="M403.01,1100.8v1.69c1.01-.56,1.01-1.12,0-1.69Z"/>
  <path d="M423.31,1100.8v1.69c1.01-.56,1.01-1.12,0-1.69Z"/>
  <path d="M625.43,937.2c-.04,1.1-.04,2.17.04,3.16v-3.16h-.04Z"/>
</svg>