<?xml version="1.0" encoding="UTF-8"?>
<svg id="Layer_1" xmlns="http://www.w3.org/2000/svg" version="1.1" viewBox="0 0 1920 1080">
  <!-- Generator: Adobe Illustrator 29.5.1, SVG Export Plug-In . SVG Version: 2.1.0 Build 141)  -->
  <defs>
    <style>
      .st0 {
        fill: #fff;
      }
    </style>
  </defs>
  <g id="doaL8L.tif">
    <g>
      <polygon class="st0" points="908.15 8.25 908.97 3.25 904.98 4.9 904.98 8.25 908.15 8.25"/>
      <path class="st0" d="M918.98,3.72c-1.28-.86-4.43-1.17-4.48.34l7.83,5.19,3.29-1.82-1.57-4.2-3.97,3.36c-1.38.58-.46-2.42-1.1-2.85v-.02Z"/>
      <polygon class="st0" points="968.6 13.29 968.59 3.22 967.03 3.22 965.43 13.29 968.6 13.29"/>
      <path class="st0" d="M1041.79,11.62c.5.44.42,6.52,4.76,5.04,1.4-4.59-4.35-4.51-4.76-5.04-1.46-1.86-2.46-9.3-7.95-8.4-.85,5.8,6.19,6.85,7.95,8.4Z"/>
      <path class="st0" d="M940.77,4.9v1.68c1.03-.56,1.03-1.12,0-1.68Z"/>
      <path class="st0" d="M945.54,4.9v1.68c1.03-.56,1.03-1.12,0-1.68Z"/>
      <path class="st0" d="M1017.94,18.35c4.07-2.2,5.62-9.03,6.33-13.45-4.02,2.4-6.3,8.8-6.33,13.45Z"/>
      <polygon class="st0" points="914.51 9.93 913.73 6.59 911.34 9.92 914.51 9.93"/>
      <polygon class="st0" points="1046.55 6.59 1043.38 6.59 1045.77 9.93 1046.55 6.59"/>
      <path class="st0" d="M949.51,8.27c-2.9-.55-5.26,1.85-4.76,5.03h4.76v-5.03Z"/>
      <rect class="st0" x="904.99" y="9.95" width="1.56" height="3.35"/>
      <rect class="st0" x="935.22" y="11.63" width="1.56" height="5.03"/>
      <path class="st0" d="M940.77,11.62v1.68c1.03-.56,1.03-1.12,0-1.68Z"/>
      <path class="st0" d="M1008.71,19.66c.16.17,3.8,2.03,4.4,1.23l-3.17-9.26c-3.28.21-2.81,6.38-1.24,8.03h0Z"/>
      <rect class="st0" x="941.57" y="16.68" width="3.17" height="1.65"/>
      <rect class="st0" x="1049.76" y="16.67" width="1.56" height="5.03"/>
      <rect class="st0" x="1014.76" y="20.04" width="1.56" height="3.35"/>
      <rect class="st0" x="938.4" y="21.72" width="1.56" height="3.35"/>
      <path class="st0" d="M942.36,23.39v1.68c1.03-.56,1.03-1.12,0-1.68Z"/>
      <path class="st0" d="M932.81,25.07v1.68c1.03-.56,1.03-1.12,0-1.68Z"/>
      <path class="st0" d="M968.6,25.08h-3.16c-.26,3.2-.3,6.38,2.39,8.39l.78-8.39h-.01Z"/>
      <rect class="st0" x="957.48" y="28.44" width="3.16" height="3.34"/>
      <path class="st0" d="M1038.6,31.78l-3.25-2.64-4.69,5.98,7.93,5.07c2.47-3.35-7.3-9.54.01-8.42h0Z"/>
      <polygon class="st0" points="1044.96 28.44 1042.61 28.45 1040.23 30.95 1041.8 35.15 1044.96 35.15 1044.96 28.44"/>
      <path class="st0" d="M942.36,30.11v1.68c1.03-.56,1.03-1.12,0-1.68Z"/>
      <rect class="st0" x="976.58" y="30.12" width="1.56" height="5.03"/>
      <path class="st0" d="M954.29,35.16c-.13.15-2.01-.58-3.08,1.31-.87,1.53-4.42,7.74-.89,8.77,2.46-3.65,5.26-4.78,3.97-10.08l3.18-.83-3.16-2.53c-.26.96.28,3.03-.01,3.37h0Z"/>
      <path class="st0" d="M939.18,36.84v1.68c1.03-.56,1.03-1.12,0-1.68Z"/>
      <path class="st0" d="M942.36,38.52v1.68c1.03-.56,1.03-1.12,0-1.68Z"/>
      <path class="st0" d="M1044.8,38.7l-4.61-.16,2.4,10.06c1.48-2.67.22-4.92,3.97-5.85l-1.76-4.06h0Z"/>
      <path class="st0" d="M967.81,40.2v1.68c1.03-.56,1.03-1.12,0-1.68Z"/>
      <path class="st0" d="M956.68,41.88v1.68c1.03-.56,1.03-1.12,0-1.68Z"/>
      <polygon class="st0" points="1021.1 45.23 1017.94 41.88 1017.93 45.24 1021.1 45.23"/>
      <path class="st0" d="M942.36,43.56v1.68c1.03-.56,1.03-1.12,0-1.68Z"/>
      <path class="st0" d="M949.53,51.97l-4.77-8.4,3.17,11.77c4.32-.4,7.61-1.29,6.34-6.73l-4.74,3.36Z"/>
      <polygon class="st0" points="968.6 46.92 967.82 43.57 965.43 46.91 968.6 46.92"/>
      <polygon class="st0" points="968.6 51.98 965.43 51.99 967.82 55.32 968.6 51.98"/>
      <rect class="st0" x="1044.98" y="53.67" width="3.17" height="1.65"/>
      <polygon class="st0" points="1037.01 57.02 1032.27 56.16 1033.84 60.37 1037.01 60.37 1037.01 57.02"/>
      <rect class="st0" x="1038.61" y="57.02" width="3.16" height="3.34"/>
      <polygon class="st0" points="954.28 62.05 954.27 58.7 949.53 60.4 949.53 62.04 954.28 62.05"/>
      <path class="st0" d="M953.49,63.74v1.68c1.03-.56,1.03-1.12,0-1.68Z"/>
      <path class="st0" d="M962.23,68.78c.53-3.18-1.85-5.6-4.76-5.03l4.76,5.03Z"/>
      <path class="st0" d="M956.68,68.78v1.68c1.03-.56,1.03-1.12,0-1.68Z"/>
      <path class="st0" d="M958.27,72.14v1.68c1.03-.56,1.03-1.12,0-1.68Z"/>
      <path class="st0" d="M951.9,77.19v1.68c1.03-.56,1.03-1.12,0-1.68Z"/>
      <path class="st0" d="M969.4,109.13v1.68c1.03-.56,1.03-1.12,0-1.68Z"/>
      <path class="st0" d="M922.47,129.31c-.38-1.52-1.32-2.36-2.39-3.33-3.94,6.8-9.33,3.29-7.15,15.1,5.65,1.48,3.32-2.03,6.34-3.35l2.4,6.7.8-13.44c1.23-.49,2.9-.32,3.99-1.63l3.96,4.98c-1.78-1.85,2.11-16.1-2.36-13.42-2.44,3.28-2.26,5.38-5.59,8.39Z"/>
      <rect class="st0" x="901.8" y="122.6" width="3.17" height="1.65"/>
      <polygon class="st0" points="917.69 125.94 916.91 122.59 914.52 125.93 917.69 125.94"/>
      <path class="st0" d="M921.68,122.58v1.68c1.03-.56,1.03-1.12,0-1.68Z"/>
      <path class="st0" d="M1029.05,122.57c-6.01-.9-3.57,7.69.03,7.57l-3.19,5.88c6.49.79,2.78-10.15,3.16-13.45h0Z"/>
      <path class="st0" d="M936,127.63v1.68c1.03-.56,1.03-1.12,0-1.68Z"/>
      <polygon class="st0" points="962.24 129.32 959.06 129.32 961.46 132.66 962.24 129.32"/>
      <polygon class="st0" points="1000.42 129.32 997.25 129.32 997.26 131.8 999.64 134.34 1000.42 129.32"/>
      <rect class="st0" x="1006.8" y="129.32" width="1.56" height="3.35"/>
      <rect class="st0" x="1032.25" y="131" width="3.16" height="3.34"/>
      <rect class="st0" x="979.75" y="132.69" width="3.17" height="1.65"/>
      <polygon class="st0" points="962.24 134.37 959.07 134.36 959.08 137.71 962.24 134.37"/>
      <path class="st0" d="M1014.73,134.36l-7.93-.02v5.04c1.65,1.76,7.34-2.67,7.93-5.02h0Z"/>
      <path class="st0" d="M930.42,136.04c-5.61-2.02-2.53,11.19-.78,13.43l.78-13.43h0Z"/>
      <path class="st0" d="M965.43,146.12c1.13-.4,3.35.31,4.79,0l-.73-8.39-4.05-1.67,1.57,6.71-2.93-1.34c-.67.55,0,2.83-.24,3.02-.5.38-3.26-.56-4.47.22l-.29,6.5,3.15-.02c-.26-1.92,1.8-4.51,3.21-5.01h-.01Z"/>
      <path class="st0" d="M983.72,136.03v1.68c1.03-.56,1.03-1.12,0-1.68Z"/>
      <path class="st0" d="M992.47,141.06l-4.76-5.03c-.53,3.18,1.85,5.6,4.76,5.03Z"/>
      <path class="st0" d="M993.27,136.03v1.68c1.03-.56,1.03-1.12,0-1.68Z"/>
      <polygon class="st0" points="1002.01 137.72 998.83 137.73 1001.23 141.07 1002.01 137.72"/>
      <path class="st0" d="M1015.54,137.71v1.68c1.03-.56,1.03-1.12,0-1.68Z"/>
      <path class="st0" d="M1027.48,142.76c.61.82,4.21-2.94,3.15-5.04-.61-.82-4.21,2.94-3.15,5.04Z"/>
      <path class="st0" d="M956.68,139.39v1.68c1.03-.56,1.03-1.12,0-1.68Z"/>
      <rect class="st0" x="1032.25" y="139.41" width="3.17" height="1.65"/>
      <path class="st0" d="M1037.81,139.39v1.68c1.03-.56,1.03-1.12,0-1.68Z"/>
      <path class="st0" d="M1009.98,146.15l-1.58-5.06c-4.02,5.88,4.99,10.86,4.74,3.34l-3.16,1.72Z"/>
      <rect class="st0" x="951.12" y="142.77" width="3.17" height="1.65"/>
      <polygon class="st0" points="1035.42 144.45 1032.25 144.45 1032.26 147.8 1035.42 144.45"/>
      <rect class="st0" x="912.94" y="146.13" width="4.76" height="3.34"/>
      <polygon class="st0" points="1002.01 152.84 1002 146.13 1000.45 146.14 997.25 150.31 1002.01 152.84"/>
      <path class="st0" d="M951.9,149.48v1.68c1.03-.56,1.03-1.12,0-1.68Z"/>
      <polygon class="st0" points="970.18 157.88 971.59 152.22 969.38 149.5 967.03 149.49 967.03 157.88 970.18 157.88"/>
      <path class="st0" d="M1009.17,149.48v1.68c1.03-.56,1.03-1.12,0-1.68Z"/>
      <rect class="st0" x="928.85" y="154.53" width="3.16" height="3.34"/>
      <polygon class="st0" points="1013.15 154.54 1008.39 155.36 1010.76 157.85 1013.15 154.54"/>
      <path class="st0" d="M961.45,156.21v1.68c1.03-.56,1.03-1.12,0-1.68Z"/>
      <path class="st0" d="M972.58,156.21v1.68c1.03-.56,1.03-1.12,0-1.68Z"/>
      <path class="st0" d="M1029.85,157.89v1.68c1.03-.56,1.03-1.12,0-1.68Z"/>
      <path class="st0" d="M957.47,105.77c-.55-.13-1.56.16-1.56-.84l1.56-.84c-.1.53.05,1.13,0,1.68Z"/>
      <path class="st0" d="M900.2,149.48c.2.49-.21,1.24,0,1.68-1.2.38-3.01-.55-4.74.82s-.74,4.69-3.2,4.21l-.03-5.87c.27-1.94,6.08-.32,7.96-.85h.01Z"/>
      <path class="st0" d="M922.47,129.31c.13.52-.1,1.14,0,1.68-1.62.65-3.22,3.77-4.74,2.54,1.14-4.81,4.4-3.91,4.74-4.22Z"/>
      <path class="st0" d="M965.43,146.12l-1.59-1.68,1.59,1.68Z"/>
      <path class="st0" d="M779.29,324.33c.08-3.81.86-7.67-2.38-10.05-3.24,2.38-2.46,6.24-2.38,10.05h4.76Z"/>
      <polygon class="st0" points="779.3 331.04 776.13 327.69 776.13 331.04 779.3 331.04"/>
      <path class="st0" d="M788.05,369.72v1.68c1.03-.56,1.03-1.12,0-1.68Z"/>
      <rect class="st0" x="780.91" y="509.27" width="1.56" height="3.35"/>
      <rect class="st0" x="777.72" y="517.68" width="1.56" height="3.35"/>
      <path class="st0" d="M783.28,517.67v1.68c1.03-.56,1.03-1.12,0-1.68Z"/>
      <path class="st0" d="M783.28,524.39v1.68c1.03-.56,1.03-1.12,0-1.68Z"/>
      <path class="st0" d="M789.64,526.08v1.68c1.03-.56,1.03-1.12,0-1.68Z"/>
      <path class="st0" d="M1073.62,26.75c3.16-.9,3.58-3.59,3.15-6.72-3.16.9-3.58,3.59-3.15,6.72Z"/>
      <path class="st0" d="M863.61,110.8c-.28,4.34-.98,6.27,3.18,7.57-5.62,3.77-1.06,5.79-.89,8.46.22,3.7,1.67,37.91-1.49,37.8-2.82-5.09-1-11.07-1.24-16.35-.08-1.81-2.04-3.45-2.07-4.73-.09-4.03,5.72-15.89-2.27-15.96,4.27-4.37,1.99-9.61,2.28-14.92.16-2.99-1.85-2.58,2.49-1.87h.01Z"/>
      <path class="st0" d="M887.47,38.51l-3.18-6.72-3.97,3.38-3.96-3.42,3.94-4.6,5.57,2.96-5.57-10.05,8.75,5.98c-.88,4.91-3.61,7.08-1.58,12.47Z"/>
      <path class="st0" d="M893.84,131.01l-4.85,4.32.09,4.06,3.15-3.34,1.6,10.07-7.17-.04c2.86-5.34-1.41-10.33-.77-16.76l7.95,1.69h0Z"/>
      <path class="st0" d="M935.04,79.04c4.96,8.34-11.1,12.46-7.7.78,1.06-3.64,6.97-2.01,7.7-.78Z"/>
      <path class="st0" d="M860.43,43.56c-.45-.02-.99.68-1.57.84l1.57.84-.79,16.8c-3.91-7.1-1.7-17.44-2.38-25.2l3.17,6.72Z"/>
      <path class="st0" d="M860.43,45.25c-.04-.54.08-1.68,0-1.68v1.68Z"/>
      <path class="st0" d="M869.97,216.74c-.27,4.72,2.16,13.48-4.76,13.43.43-3.28-.82-14.34,4.76-13.43h0Z"/>
      <path class="st0" d="M863.6,109.12c-5.36,1.03-3.91-10.4-4.76-13.43,6.92-.05,4.49,8.72,4.76,13.43Z"/>
      <path class="st0" d="M868.38,201.59l-2.55-3.11-2.2-20.41c5.71,4.65,2.59,16.55,4.75,23.53h0Z"/>
      <polygon class="st0" points="881.12 41.89 882.69 50.29 878.1 45.75 881.11 39.33 885.85 42.74 881.12 41.89"/>
      <polygon class="st0" points="1017.65 97.55 1017.21 100.79 1021.09 105.76 1013.13 104.08 1013.2 96.49 1017.65 97.55"/>
      <path class="st0" d="M1055.65,87.77c.36.47,3.72,7.75-.32,6.21l-5.59-8.38c.86-.74,5.04,1.04,5.91,2.16h0Z"/>
      <polygon class="st0" points="879.51 50.3 877.11 57.01 873.16 54.48 876.37 50.33 879.51 50.3"/>
      <path class="st0" d="M1002,78.86c-3.67-2.34-.62-11.24-1.56-15.11,3.66,2.2.63,11.22,1.56,15.11Z"/>
      <path class="st0" d="M885.88,94.02l-3.21,6.7c-3.96.81-3.54-.88-2.99-4.85l6.2-1.85Z"/>
      <path class="st0" d="M1003.6,88.97c-1.52,3.15.84,8.79-3.16,10.07.78-3.07-2.63-11.4,3.16-10.07Z"/>
      <path class="st0" d="M862.02,174.68l3.97-6.7,2.39,4.17c-1.7,2.61-3.42,2.95-6.35,2.53h-.01Z"/>
      <polygon class="st0" points="903.38 88.94 908.14 82.23 908.1 89.81 903.38 88.94"/>
      <polygon class="st0" points="885.87 107.45 887.44 111.65 885.09 114.14 882.71 110 885.87 107.45"/>
      <polygon class="st0" points="836.56 77.2 836.56 83.9 833.39 83.9 833.39 77.2 836.56 77.2"/>
      <path class="st0" d="M862.01,82.24c2.4,2.54-4.73,7.17-4.73,2.51,0-1.11,3.82-3.48,4.73-2.51Z"/>
      <polygon class="st0" points="890.65 149.5 890.65 151.14 884.3 152.84 884.3 149.49 890.65 149.5"/>
      <polygon class="st0" points="965.42 82.24 964.64 87.27 962.26 84.73 962.25 82.24 965.42 82.24"/>
      <polygon class="st0" points="901.78 154.53 901.78 157.88 897.02 157.87 899.43 154.54 901.78 154.53"/>
      <polygon class="st0" points="898.6 38.53 898.6 41.02 895.45 43.56 895.44 38.53 898.6 38.53"/>
      <rect class="st0" x="871.58" y="124.27" width="3.16" height="3.34"/>
      <rect class="st0" x="898.62" y="85.6" width="3.16" height="3.34"/>
      <rect class="st0" x="858.85" y="75.52" width="3.16" height="3.34"/>
      <polygon class="st0" points="1056.09 154.52 1052.95 152 1055.32 149.49 1056.09 154.52"/>
      <polygon class="st0" points="874.76 72.14 875.54 67.11 877.9 69.62 874.76 72.14"/>
      <rect class="st0" x="1033.84" y="119.23" width="3.16" height="3.34"/>
      <rect class="st0" x="903.39" y="55.34" width="3.16" height="3.34"/>
      <polygon class="st0" points="1002 114.18 998.87 111.65 1001.23 109.14 1002 114.18"/>
      <polygon class="st0" points="1037.01 99.04 1033.83 99.03 1036.23 95.69 1037.01 99.04"/>
      <polygon class="st0" points="1027.46 102.42 1026.68 105.76 1024.29 102.42 1027.46 102.42"/>
      <polygon class="st0" points="1009.96 104.1 1009.18 107.44 1006.79 104.1 1009.96 104.1"/>
      <polygon class="st0" points="873.15 110.8 869.98 110.8 872.37 107.46 873.15 110.8"/>
      <polygon class="st0" points="882.69 72.14 879.52 72.13 881.92 68.79 882.69 72.14"/>
      <polygon class="st0" points="954.29 120.88 951.12 120.89 951.12 117.54 954.29 120.88"/>
      <polygon class="st0" points="1013.15 92.34 1009.99 95.68 1009.98 92.33 1013.15 92.34"/>
      <polygon class="st0" points="1051.33 157.9 1048.17 161.25 1048.16 157.9 1051.33 157.9"/>
      <rect class="st0" x="925.66" y="62.07" width="4.76" height="1.65"/>
      <polygon class="st0" points="874.74 14.99 873.96 18.34 871.57 15 874.74 14.99"/>
      <polygon class="st0" points="874.74 83.92 873.96 87.27 871.57 83.93 874.74 83.92"/>
      <rect class="st0" x="903.4" y="30.12" width="1.56" height="3.35"/>
      <rect class="st0" x="1070.44" y="60.38" width="1.56" height="3.35"/>
      <rect class="st0" x="897.04" y="31.8" width="1.56" height="3.35"/>
      <rect class="st0" x="1000.44" y="51.98" width="1.56" height="3.35"/>
      <rect class="st0" x="895.45" y="87.28" width="1.56" height="3.35"/>
      <rect class="st0" x="1068.84" y="48.62" width="3.17" height="1.65"/>
      <rect class="st0" x="903.4" y="35.17" width="1.56" height="3.35"/>
      <rect class="st0" x="893.85" y="173.04" width="3.17" height="1.65"/>
      <rect class="st0" x="882.72" y="63.75" width="1.56" height="3.35"/>
      <rect class="st0" x="873.17" y="149.5" width="3.17" height="1.65"/>
      <rect class="st0" x="1046.57" y="147.81" width="1.56" height="3.35"/>
      <polygon class="st0" points="852.46 95.67 850.9 95.67 850.07 90.67 852.46 93.19 852.46 95.67"/>
      <rect class="st0" x="946.35" y="137.72" width="1.56" height="3.35"/>
      <rect class="st0" x="1054.53" y="136.04" width="1.56" height="3.35"/>
      <polygon class="st0" points="879.54 134.36 881.1 134.36 881.92 139.36 879.54 136.85 879.54 134.36"/>
      <polygon class="st0" points="875.56 6.61 875.56 13.27 873.17 10.75 875.56 6.61"/>
      <rect class="st0" x="941.58" y="132.68" width="1.56" height="3.35"/>
      <rect class="st0" x="1002.03" y="38.53" width="1.56" height="3.35"/>
      <rect class="st0" x="987.71" y="43.57" width="1.56" height="3.35"/>
      <rect class="st0" x="876.35" y="117.55" width="3.17" height="1.65"/>
      <polygon class="st0" points="868.37 43.56 866.81 43.56 866.81 41.07 869.2 38.55 868.37 43.56"/>
      <rect class="st0" x="1040.21" y="110.82" width="1.56" height="3.35"/>
      <rect class="st0" x="819.08" y="109.15" width="3.17" height="1.65"/>
      <rect class="st0" x="898.63" y="107.46" width="1.56" height="3.35"/>
      <rect class="st0" x="898.62" y="95.7" width="3.17" height="1.65"/>
      <rect class="st0" x="1033.84" y="104.11" width="3.17" height="1.65"/>
      <rect class="st0" x="906.57" y="95.7" width="3.17" height="1.65"/>
      <polygon class="st0" points="1000.44 100.73 1002 100.73 1002.83 105.74 1000.44 103.22 1000.44 100.73"/>
      <path class="st0" d="M1001.22,45.25c1.03.56,1.03,1.12,0,1.68v-1.68Z"/>
      <path class="st0" d="M912.13,33.48c1.03.56,1.03,1.12,0,1.68v-1.68Z"/>
      <path class="st0" d="M869.18,53.65c1.03.56,1.03,1.12,0,1.68v-1.68Z"/>
      <path class="st0" d="M994.86,95.68c1.03.56,1.03,1.12,0,1.68v-1.68Z"/>
      <path class="st0" d="M805.55,60.38c1.03.56,1.03,1.12,0,1.68v-1.68Z"/>
      <path class="st0" d="M905.77,62.06c1.03.56,1.03,1.12,0,1.68v-1.68Z"/>
      <path class="st0" d="M858.04,25.07c1.03.56,1.03,1.12,0,1.68v-1.68Z"/>
      <path class="st0" d="M878.73,63.74c1.03.56,1.03,1.12,0,1.68v-1.68Z"/>
      <path class="st0" d="M867.59,65.42c1.03.56,1.03,1.12,0,1.68v-1.68Z"/>
      <path class="st0" d="M859.64,67.1c1.03.56,1.03,1.12,0,1.68v-1.68Z"/>
      <path class="st0" d="M1018.72,73.83c1.03.56,1.03,1.12,0,1.68v-1.68Z"/>
      <path class="st0" d="M821.46,75.51c1.03.56,1.03,1.12,0,1.68v-1.68Z"/>
      <path class="st0" d="M907.36,75.51c1.03.56,1.03,1.12,0,1.68v-1.68Z"/>
      <path class="st0" d="M1063.26,75.51c1.03.56,1.03,1.12,0,1.68v-1.68Z"/>
      <path class="st0" d="M1069.63,78.87c1.03.56,1.03,1.12,0,1.68v-1.68Z"/>
      <path class="st0" d="M918.5,16.66c1.03.56,1.03,1.12,0,1.68v-1.68Z"/>
      <path class="st0" d="M986.9,82.23c1.03.56,1.03,1.12,0,1.68v-1.68Z"/>
      <path class="st0" d="M1001.22,83.91c1.03.56,1.03,1.12,0,1.68v-1.68Z"/>
      <path class="st0" d="M956.68,85.59c1.03.56,1.03,1.12,0,1.68v-1.68Z"/>
      <path class="st0" d="M889.86,87.28c1.03.56,1.03,1.12,0,1.68v-1.68Z"/>
      <path class="st0" d="M926.47,233.58c1.58,1.1-.74,2.22-1.62,3.3l-.75-.79,2.37-2.5h0Z"/>
      <path class="st0" d="M912.13,87.28c1.03.56,1.03,1.12,0,1.68v-1.68Z"/>
      <path class="st0" d="M921.68,231.86c1.03.56,1.03,1.12,0,1.68v-1.68Z"/>
      <path class="st0" d="M902.59,196.56c1.03.56,1.03,1.12,0,1.68v-1.68Z"/>
      <path class="st0" d="M896.22,191.51c1.03.56,1.03,1.12,0,1.68v-1.68Z"/>
      <path class="st0" d="M875.54,88.96c1.03.56,1.03,1.12,0,1.68v-1.68Z"/>
      <path class="st0" d="M901,173.02c1.03.56,1.03,1.12,0,1.68v-1.68Z"/>
      <path class="st0" d="M891.45,173.02c1.03.56,1.03,1.12,0,1.68v-1.68Z"/>
      <path class="st0" d="M843.73,162.93c1.03.56,1.03,1.12,0,1.68v-1.68Z"/>
      <path class="st0" d="M886.68,161.25c1.03.56,1.03,1.12,0,1.68v-1.68Z"/>
      <path class="st0" d="M905.77,159.57c1.03.56,1.03,1.12,0,1.68v-1.68Z"/>
      <path class="st0" d="M888.27,156.21c1.03.56,1.03,1.12,0,1.68v-1.68Z"/>
      <path class="st0" d="M843.73,156.21c1.03.56,1.03,1.12,0,1.68v-1.68Z"/>
      <path class="st0" d="M915.33,90.67c1.58,1.1-.74,2.22-1.62,3.3l-.75-.79,2.37-2.5h0Z"/>
      <path class="st0" d="M1044.17,90.64c1.03.56,1.03,1.12,0,1.68v-1.68Z"/>
      <path class="st0" d="M858.04,149.48c1.03.56,1.03,1.12,0,1.68v-1.68Z"/>
      <path class="st0" d="M1053.7,142.79c.88,1.07,3.2,2.19,1.62,3.3-.77-.99-3.19-2.13-1.62-3.3Z"/>
      <path class="st0" d="M873.95,137.71c1.03.56,1.03,1.12,0,1.68v-1.68Z"/>
      <path class="st0" d="M907.36,92.32c1.03.56,1.03,1.12,0,1.68v-1.68Z"/>
      <path class="st0" d="M921.68,92.32c1.03.56,1.03,1.12,0,1.68v-1.68Z"/>
      <path class="st0" d="M932.81,92.32c1.03.56,1.03,1.12,0,1.68v-1.68Z"/>
      <path class="st0" d="M877.13,134.35c1.03.56,1.03,1.12,0,1.68v-1.68Z"/>
      <path class="st0" d="M939.18,92.32c1.03.56,1.03,1.12,0,1.68v-1.68Z"/>
      <path class="st0" d="M1053.7,129.34c.88,1.07,3.2,2.19,1.62,3.3-.77-.99-3.19-2.13-1.62-3.3Z"/>
      <path class="st0" d="M943.95,129.31c1.03.56,1.03,1.12,0,1.68v-1.68Z"/>
      <path class="st0" d="M877.13,129.31c1.03.56,1.03,1.12,0,1.68v-1.68Z"/>
      <path class="st0" d="M1047.35,125.94c1.03.56,1.03,1.12,0,1.68v-1.68Z"/>
      <path class="st0" d="M990.08,124.26c1.03.56,1.03,1.12,0,1.68v-1.68Z"/>
      <path class="st0" d="M985.31,124.26c1.03.56,1.03,1.12,0,1.68v-1.68Z"/>
      <path class="st0" d="M963.06,122.62c1.58,1.1-.74,2.22-1.62,3.3l-.75-.79,2.37-2.5h0Z"/>
      <path class="st0" d="M877.13,124.26c1.03.56,1.03,1.12,0,1.68v-1.68Z"/>
      <path class="st0" d="M869.18,124.26c1.03.56,1.03,1.12,0,1.68v-1.68Z"/>
      <path class="st0" d="M958.27,119.22c1.03.56,1.03,1.12,0,1.68v-1.68Z"/>
      <path class="st0" d="M1052.13,117.54c1.03.56,1.03,1.12,0,1.68v-1.68Z"/>
      <path class="st0" d="M872.36,117.54c1.03.56,1.03,1.12,0,1.68v-1.68Z"/>
      <path class="st0" d="M974.18,112.49c1.03.56,1.03,1.12,0,1.68v-1.68Z"/>
      <path class="st0" d="M1055.31,110.81c1.03.56,1.03,1.12,0,1.68v-1.68Z"/>
      <path class="st0" d="M1047.35,110.81c1.03.56,1.03,1.12,0,1.68v-1.68Z"/>
      <path class="st0" d="M988.49,110.81c1.03.56,1.03,1.12,0,1.68v-1.68Z"/>
      <path class="st0" d="M894.63,110.81c1.03.56,1.03,1.12,0,1.68v-1.68Z"/>
      <path class="st0" d="M854.86,4.9c1.03.56,1.03,1.12,0,1.68v-1.68Z"/>
      <path class="st0" d="M891.45,107.45c1.03.56,1.03,1.12,0,1.68v-1.68Z"/>
      <path class="st0" d="M880.32,107.45c1.03.56,1.03,1.12,0,1.68v-1.68Z"/>
      <path class="st0" d="M937.59,105.77c1.03.56,1.03,1.12,0,1.68v-1.68Z"/>
      <path class="st0" d="M932.81,105.77c1.03.56,1.03,1.12,0,1.68v-1.68Z"/>
      <path class="st0" d="M1040.99,104.09c1.03.56,1.03,1.12,0,1.68v-1.68Z"/>
      <path class="st0" d="M1029.85,104.09c1.03.56,1.03,1.12,0,1.68v-1.68Z"/>
      <path class="st0" d="M951.9,95.68c1.03.56,1.03,1.12,0,1.68v-1.68Z"/>
      <path class="st0" d="M870.77,99.04c1.03.56,1.03,1.12,0,1.68v-1.68Z"/>
      <path class="st0" d="M1040.99,97.36c1.03.56,1.03,1.12,0,1.68v-1.68Z"/>
    </g>
  </g>
  <rect x="1061.2" y="762.89" width="3.72" height="5.99"/>
</svg>