<?xml version="1.0" encoding="UTF-8"?>
<svg id="Layer_1" xmlns="http://www.w3.org/2000/svg" version="1.1" viewBox="0 0 1920 1080">
  <!-- Generator: Adobe Illustrator 29.5.1, SVG Export Plug-In . SVG Version: 2.1.0 Build 141)  -->
  <defs>
    <style>
      .st0 {
        fill: #fff;
      }
    </style>
  </defs>
  <g id="doaL8L.tif">
    <g>
      <path class="st0" d="M982.93,171.34l8.85,1.58,3.9,23.64c6.85-3.84,3.61-18.66,7.11-23.56l7.19-1.65v42.03h-6.36l-.8-15.15-2.4,15.13-7.95.03-2.38-16.84-.8,16.84h-6.36v-42.04h0Z"/>
      <path class="st0" d="M927.25,173.86c-.06-.47-2.4-1.9-1.59-2.51l7.96-.03-.02,16.83h7.97l.69-15.24,7.25-1.58v42.03h-7.96c-.26-4.72.38-9.63.01-14.37-.24-3.1,1.38-4.21-2.4-4.16-9.22.12-4.53,11.85-5.56,18.54h-6.36c-1.14-12.37,1.56-27.54,0-39.52h.01Z"/>
      <path class="st0" d="M972.89,171.87c5.08,3.97,9.42,46.22-7.87,42.92-16.92-3.22-10.87-57.58,7.87-42.92Z"/>
      <path d="M963.86,206.64l4.84-.74c2.38-1.84,2.88-26.08-.9-27.82-4.58-2.11-5.04,4.49-5.36,7.73-.7,6.97-.58,14.16,1.42,20.83h0Z"/>
      <path class="st0" d="M1041.79,171.34l19.12.97-.02,7.44-11.15-.02v8.42l8.66-.03c5.52,10.13-8.45,7.75-8.7,9.38l.04,7.46,11.15-.02v8.42h-19.1v-42.03h0Z"/>
      <path class="st0" d="M1016.33,171.34h19.1l.06,5.85-11.29,3.6.09,7.37c14.65-3.22,12.53,10.4,0,8.4v8.42l11.15-.02v8.42h-19.1v-42.03h-.01Z"/>
    </g>
  </g>
  <rect x="1061.2" y="762.89" width="3.72" height="5.99"/>
</svg>