<?xml version="1.0" encoding="UTF-8"?>
<svg id="Layer_1" xmlns="http://www.w3.org/2000/svg" version="1.1" viewBox="0 0 1920 1080">
  <!-- Generator: Adobe Illustrator 29.5.1, SVG Export Plug-In . SVG Version: 2.1.0 Build 141)  -->
  <defs>
    <style>
      .st0 {
        fill: #fff;
      }
    </style>
  </defs>
  <g id="doaL8L.tif">
    <g>
      <path class="st0" d="M739.53,3.21h-23.86c2.13,15.39,15.73,3.8,23.86,10.94l-3.17,1.66,3.95,2.52,3.98-13.44-4.74,3.37s-.02-5.05-.02-5.05Z"/>
      <path class="st0" d="M706.1,13.32l6.38-2.56c-7.84-13.69-3.91-1.07-9.35,1.62l1.42,5.98c5.17.72,2.63-1.62,1.55-5.03h0Z"/>
      <rect class="st0" x="699.77" y="6.59" width="3.17" height="1.65"/>
      <rect class="st0" x="723.63" y="13.32" width="3.17" height="1.65"/>
      <path class="st0" d="M719.64,14.98v1.68c1.03-.56,1.03-1.12,0-1.68Z"/>
      <path class="st0" d="M730.78,16.66v1.68c1.03-.56,1.03-1.12,0-1.68Z"/>
      <path class="st0" d="M727.6,21.71v1.68c1.03-.56,1.03-1.12,0-1.68Z"/>
      <path class="st0" d="M734.76,26.74c3.01.54,5.29-1.97,4.75-5.03l-4.75,1.7v3.33Z"/>
      <path class="st0" d="M742.73,21.72c-2.13,4.84-.51,8.86,3.12,4.2l-1.57-4.2s-1.55,0-1.55,0Z"/>
      <path class="st0" d="M743.5,31.8v1.68c1.03-.56,1.03-1.12,0-1.68Z"/>
      <path class="st0" d="M742.71,77.19c-1.47.71-1.47-2.39,0-1.68.07.03.07,1.65,0,1.68Z"/>
      <path class="st0" d="M613.83,235.23c-7.48.26-3.68,9.88,1.6,10.08l-1.6-10.08Z"/>
      <path class="st0" d="M664.74,235.23c-1.34-.98-5.7.31-6.28,2.68-.78,3.18,2.39,5.98,2.78,8.62,3.05,20.68,10.51,25.25,20.06,42.68,1.69,3.08,1.88,6.6,3.51,9.75,1.07,2.06,3.97,7.84,6.98,6.88.42-23.07-23.58-36.26-26.64-58.42-.32-2.33,1.87-10.51-.42-12.18h.01Z"/>
      <polygon class="st0" points="637.71 240.25 634.55 236.91 634.54 240.26 637.71 240.25"/>
      <polygon class="st0" points="653.62 248.66 650.46 245.31 650.45 248.66 653.62 248.66"/>
      <rect class="st0" x="691.82" y="250.36" width="1.56" height="3.35"/>
      <path class="st0" d="M713.28,252.04v1.68c1.03-.56,1.03-1.12,0-1.68Z"/>
      <path class="st0" d="M733.15,315.92c1.03-5.5-1.19-10.66-1.43-15.78-.29-6.23.81-15.5-.1-21.95-.56-4-5.42-6.24-6.17-10.58-.86-4.95,4.01-10.13-1.03-13.86l-.79,10.04-6.37.02-.02,2.52c3.95,4.48,1.19,10.16,1.88,13.11.21.9,5.77,11.62,6.01,12.48,1.99,7.2,1.25,18.49,8.03,24h-.01Z"/>
      <path class="st0" d="M683.83,262.12c.43-3.14.01-5.83-3.15-6.72-.43,3.14-.01,5.83,3.15,6.72Z"/>
      <polygon class="st0" points="693.39 262.11 692.61 257.09 690.23 259.63 690.22 262.11 693.39 262.11"/>
      <path class="st0" d="M707.7,257.09c-4.88-.46-5.16,4.23-4.76,8.39,4.88.46,5.16-4.23,4.76-8.39h0Z"/>
      <rect class="st0" x="599.54" y="258.78" width="3.17" height="1.65"/>
      <rect class="st0" x="577.28" y="262.13" width="1.56" height="3.35"/>
      <rect class="st0" x="617.05" y="265.49" width="1.56" height="3.35"/>
      <path class="st0" d="M643.28,265.49v1.68c1.03-.56,1.03-1.12,0-1.68Z"/>
      <rect class="st0" x="733.17" y="265.49" width="3.17" height="5.03"/>
      <path class="st0" d="M685.43,267.18c-3.01-.54-5.28,1.96-4.76,5.03h4.76v-5.03Z"/>
      <polygon class="st0" points="582.03 272.22 578.85 272.23 580.46 277.24 582.02 277.25 582.03 272.22"/>
      <rect class="st0" x="736.35" y="275.58" width="3.17" height="6.71"/>
      <path class="st0" d="M747.5,290.7c3.65-.44,5.44-15.21,2.37-15.1-3.39.12-2.36,12.34-2.37,15.1Z"/>
      <rect class="st0" x="567.73" y="277.26" width="3.17" height="5.03"/>
      <polygon class="st0" points="591.6 282.3 594.73 279.78 592.37 277.26 591.6 282.3"/>
      <path class="st0" d="M647.23,277.26c-4.04-.66-2.47.31-3.31,2.36-3.25,7.94,1.11,5.18,1.64,7.11.21.76-1,2.75-.56,4.08,1.74,5.26,3.66,12.45,8.6,15.02l-6.37-28.57h0Z"/>
      <polygon class="st0" points="543.85 278.94 540.68 278.94 540.69 283.98 543.84 281.43 543.85 278.94"/>
      <path class="st0" d="M551.01,278.94v1.68c1.03-.56,1.03-1.12,0-1.68Z"/>
      <polygon class="st0" points="712.48 280.63 709.3 280.63 711.7 283.97 712.48 280.63"/>
      <path class="st0" d="M701.36,282.31c-.91.96,1.32,5,2.38,5,4.4,0,.03-7.54-2.38-5Z"/>
      <polygon class="st0" points="585.21 287.33 584.43 283.99 582.04 287.32 585.21 287.33"/>
      <polygon class="st0" points="596.34 285.67 593.17 285.68 595.57 289.01 596.34 285.67"/>
      <polygon class="st0" points="659.99 285.68 655.22 286.49 657.6 288.99 659.99 285.68"/>
      <path class="st0" d="M741.12,294.05c-1.29-3,.74-7.48-3.16-8.39v8.4h3.16Z"/>
      <path class="st0" d="M624.98,289.03h-4.76c.03,6.16,4.73,6.16,4.76,0Z"/>
      <path class="st0" d="M711.69,289.02v1.68c1.03-.56,1.03-1.12,0-1.68Z"/>
      <path class="st0" d="M676.69,292.39v1.68c1.03-.56,1.03-1.12,0-1.68Z"/>
      <path class="st0" d="M764.98,309.2c-.99-6.02-1.22-12-5.57-16.78-5.88,5.89-.38,14.6,3.19,20.14,1.36.72-.13-2.77,2.38-3.36.25,1.54-.19,3.41.02,5.03l3.17-5.02c-1.03.06-2.28-.23-3.18-.02h-.01Z"/>
      <path class="st0" d="M591.6,324.33c4.67-1.51,1.81-2.66,1.62-4.16-.95-7.45-2.72-21.48-7.98-26.1l6.36,30.26Z"/>
      <polygon class="st0" points="612.26 294.08 607.5 294.9 609.87 297.4 612.26 294.08"/>
      <rect class="st0" x="709.31" y="294.08" width="3.16" height="3.34"/>
      <rect class="st0" x="742.73" y="294.08" width="1.56" height="3.35"/>
      <polygon class="st0" points="704.52 299.1 703.74 295.76 701.35 299.09 704.52 299.1"/>
      <path class="st0" d="M769.75,295.76h-4.76c.03,6.16,4.73,6.16,4.76,0Z"/>
      <path class="st0" d="M633.74,297.43v1.68c1.03-.56,1.03-1.12,0-1.68Z"/>
      <polygon class="st0" points="604.31 299.13 599.54 299.12 599.54 302.46 601.9 302.46 604.31 299.13"/>
      <rect class="st0" x="674.32" y="299.12" width="1.56" height="3.35"/>
      <polygon class="st0" points="717.26 304.14 714.09 300.79 714.08 304.15 717.26 304.14"/>
      <rect class="st0" x="742.72" y="300.8" width="3.17" height="10.07"/>
      <rect class="st0" x="707.72" y="302.48" width="3.16" height="3.34"/>
      <polygon class="st0" points="625.78 304.19 623.43 306.68 625.78 309.16 628.14 306.68 625.78 304.19"/>
      <rect class="st0" x="609.09" y="305.85" width="3.17" height="1.65"/>
      <rect class="st0" x="699.77" y="305.85" width="3.17" height="1.65"/>
      <path class="st0" d="M690.2,312.56c1.06-2.11-2.55-5.86-3.15-5.04-1.06,2.11,2.55,5.86,3.15,5.04Z"/>
      <rect class="st0" x="696.59" y="307.52" width="1.56" height="3.35"/>
      <rect class="st0" x="653.63" y="309.21" width="3.17" height="5.03"/>
      <rect class="st0" x="667.96" y="309.21" width="1.56" height="3.35"/>
      <rect class="st0" x="736.35" y="309.21" width="3.17" height="8.39"/>
      <path class="st0" d="M770.55,310.88v1.68c1.03-.56,1.03-1.12,0-1.68Z"/>
      <rect class="st0" x="626.59" y="312.57" width="3.16" height="3.34"/>
      <polygon class="st0" points="706.11 317.6 705.33 312.57 702.95 315.11 702.95 317.59 706.11 317.6"/>
      <path class="st0" d="M779.29,324.33c.08-3.81.86-7.67-2.38-10.05-3.24,2.38-2.46,6.24-2.38,10.05h4.76Z"/>
      <rect class="st0" x="683.86" y="317.62" width="3.17" height="1.65"/>
      <path class="st0" d="M691.01,317.6v1.68c1.03-.56,1.03-1.12,0-1.68Z"/>
      <rect class="st0" x="695" y="317.61" width="1.56" height="3.35"/>
      <rect class="st0" x="698.17" y="317.62" width="3.17" height="1.65"/>
      <polygon class="st0" points="715.66 317.61 713.3 317.62 710.89 320.95 715.66 320.96 715.66 317.61"/>
      <path class="st0" d="M580.45,324.32c.91.96,4.73-1.4,4.73-2.51,0-4.65-7.14-.03-4.73,2.51Z"/>
      <polygon class="st0" points="658.39 319.29 655.22 319.29 655.23 321.78 657.61 324.32 658.39 319.29"/>
      <rect class="st0" x="699.77" y="322.66" width="4.76" height="3.34"/>
      <polygon class="st0" points="696.57 324.34 693.39 324.35 695.79 327.68 696.57 324.34"/>
      <path class="st0" d="M593.97,327.69v1.68c1.03-.56,1.03-1.12,0-1.68Z"/>
      <rect class="st0" x="712.49" y="327.7" width="3.16" height="3.34"/>
      <polygon class="st0" points="779.3 331.04 776.13 327.69 776.13 331.04 779.3 331.04"/>
      <path class="st0" d="M687.83,331.05v1.68c1.03-.56,1.03-1.12,0-1.68Z"/>
      <polygon class="st0" points="696.57 331.07 693.4 331.06 693.41 334.42 696.57 331.07"/>
      <polygon class="st0" points="634.53 332.75 629.77 332.74 629.77 336.09 632.12 336.08 634.53 332.75"/>
      <rect class="st0" x="656.82" y="332.74" width="1.56" height="5.03"/>
      <path class="st0" d="M597.93,334.42l-4.77,5.85,7.17,19.33c3.55-2.54,1.79-3.33,1.25-6.31-1.22-6.75-6.57-11.88-3.65-18.87h0Z"/>
      <polygon class="st0" points="734.74 341.14 733.97 336.11 731.61 338.62 734.74 341.14"/>
      <path class="st0" d="M712.5,349.52c4.14,1.81,14.42,3.9,12.5-3.91-3.95-7.92-13.23-4.87-12.5,3.91Z"/>
      <path class="st0" d="M747.47,344.51c-9.83-1.78-1.98,7.28,0,5.03v-5.03Z"/>
      <rect class="st0" x="750.67" y="347.87" width="3.17" height="6.71"/>
      <polygon class="st0" points="591.57 359.64 589.22 359.65 586.81 362.98 591.57 362.99 591.57 359.64"/>
      <path class="st0" d="M582.83,369.72v1.68c1.03-.56,1.03-1.12,0-1.68Z"/>
      <path class="st0" d="M788.05,369.72v1.68c1.03-.56,1.03-1.12,0-1.68Z"/>
      <rect class="st0" x="747.5" y="374.77" width="1.56" height="5.03"/>
      <path class="st0" d="M582.83,376.45v1.68c1.03-.56,1.03-1.12,0-1.68Z"/>
      <path class="st0" d="M764.97,376.46c-.91-.96-4.73,1.4-4.73,2.51,0,4.65,7.14.03,4.73-2.51Z"/>
      <path class="st0" d="M762.59,396.62v1.68c1.03-.56,1.03-1.12,0-1.68Z"/>
      <rect class="st0" x="747.5" y="413.44" width="1.56" height="3.35"/>
      <path class="st0" d="M768.96,425.2v1.68c1.03-.56,1.03-1.12,0-1.68Z"/>
      <rect class="st0" x="763.4" y="431.94" width="3.17" height="1.65"/>
      <path class="st0" d="M735.55,482.36v1.68c1.03-.56,1.03-1.12,0-1.68Z"/>
      <rect class="st0" x="745.91" y="482.37" width="1.56" height="3.35"/>
      <path class="st0" d="M749.87,497.49v1.68c1.03-.56,1.03-1.12,0-1.68Z"/>
      <path class="st0" d="M751.46,500.86v1.68c1.03-.56,1.03-1.12,0-1.68Z"/>
      <path class="st0" d="M756.23,502.54v1.68c1.03-.56,1.03-1.12,0-1.68Z"/>
      <path class="st0" d="M763.37,524.39l-1.42-14.45-11.28-2.34,4.53,1.86c1.78,6.58,1.39,8.45-2.95,13.24l11.12,1.7h0Z"/>
      <rect class="st0" x="780.91" y="509.27" width="1.56" height="3.35"/>
      <rect class="st0" x="742.73" y="514.32" width="1.56" height="3.35"/>
      <rect class="st0" x="777.72" y="517.68" width="1.56" height="3.35"/>
      <path class="st0" d="M783.28,517.67v1.68c1.03-.56,1.03-1.12,0-1.68Z"/>
      <path class="st0" d="M783.28,524.39v1.68c1.03-.56,1.03-1.12,0-1.68Z"/>
      <path class="st0" d="M789.64,526.08v1.68c1.03-.56,1.03-1.12,0-1.68Z"/>
      <path class="st0" d="M749.07,213.37l-7.94-1.7,2.35-5.05c-3.14,1-4.08,2.95-7.84,3.48-17.68,2.5-41.5-2.82-59.04-.19-7.06,1.06-12.38,9.77-13.52-4.03-.46-5.65.48-11.99.07-17.74,5.85-.58,7.39-.81,10.21,4.57,8.51-2.93,24.77,4.34,24.28-10.17-.04-1.19-2.25-11.22-2.56-11.82-1.33-2.53-5.32.62-4.87-2.73,8.35,3.46,15.14,3.54,23.85,1.68l-1.86,6.41-11.56.3-.93,4.21,14.32,4.18c.19-3.31-1.28-5.98,3.2-5.02.19,3.61-1.36,10.15,2.62,11.52,6.36-.24,14.48,1.2,20.56.37,2.73-.37,2.95-5.74,8.64-3.49v25.22h.02Z"/>
      <path class="st0" d="M707.71,191.49c-1.29-3.51-4.36-5.66-7.95-5.01-.46,2.94,2.47.99,4.31,2.17.96.62-.18,4.6,3.63,2.84h.01Z"/>
      <rect class="st0" x="710.9" y="188.17" width="3.17" height="1.65"/>
      <rect class="st0" x="701.36" y="193.21" width="3.17" height="1.65"/>
      <rect class="st0" x="706.14" y="193.2" width="1.56" height="3.35"/>
      <polygon class="st0" points="672.7 201.6 671.93 196.56 669.56 199.08 672.7 201.6"/>
      <rect class="st0" x="675.9" y="203.29" width="6.35" height="3.34"/>
      <path class="st0" d="M749.06,156.21l-.23,9.84-6.13,4.42,6.36-2.5v10.08c-9.56-2.25-22.46-3.81-31.79,0l-1.63-8.39c3.84.18,8.31-2.02,7.97-6.74l-14.31,1.66c2.67-6.53,16.66-7.21,22.6-6.32,1.44.22,4.85.72,4.44,2.95l-6.44.76c-5.06,7.94,1.82,11.42,7.36,5.96-1.72-9.61,4.3-9.79,11.81-11.74v.02Z"/>
      <polygon class="st0" points="726.79 169.66 723.62 169.67 726.01 173.01 726.79 169.66"/>
      <path class="st0" d="M717.52,147.37l10.86-2.95,1.6,6.73h-34.98c-.4-3.28,3.36-.83,5.21-1.71,1.41-.67,1.05-2.85,2.18-3.2,2.53-.77,10.64,1.66,14.22-1.68l.92,2.8h0Z"/>
      <path class="st0" d="M671.13,169.67l-.8,3.36,4.76-3.36,5.56,5.03.78-5.01,10.37,6.68c-5.61,1.31-13.45-1.33-18.36-.87-3.76.35-6.26,4.58-10.27,4.24-1.53-6.25,2.5-9.02,7.96-10.06h0Z"/>
      <path class="st0" d="M735.55,132.67c.83-.05,6.54-4.6,5.53.81l-7.1,5.94c-2.96-2.22,5.96-1.47,2.35-5.06-1.37-1.36-4.57,1.98-5.57,3.35l-3.05-3.51c-6.26-2.14-13.56,2.26-17.63,2.71-4.54.5-8.25-5.22-9.53.5-2.96-.5-6.16-.21-5.58-4.75,13.44-.63,27.14.85,40.57,0h.01Z"/>
      <path class="st0" d="M666.33,169.65c-4.42,4.66-3.16-12.18-3.15-13.44l7.73,4.19-4.58,9.25h0Z"/>
      <polygon class="st0" points="733.16 104.11 728.36 110.81 726.01 107.4 717.26 112.48 718.95 105.89 733.16 104.11"/>
      <path class="st0" d="M723.62,119.22c1.77-1.55-1.72-7.55,2.35-6.69,5.24,1.11,3.67,5.91,5.6,10.03l-7.95-3.35v3.35h-2.36l-2.4-2.51,4.76-.83h0Z"/>
      <path class="st0" d="M742.73,147.8c-1.94-6.96,2.91-6.71,4.34-8.88,1.11-1.68-.87-5.08,1.99-4.56.59,5.42-1.53,11-6.33,13.44Z"/>
      <path class="st0" d="M671.11,125.94l-9.52-2.49c3.14-4.46,9.85-3.46,9.52,2.49Z"/>
      <path class="st0" d="M688.62,144.45l-6.34,6.69c.16-4.07-4.38-4.64-6.36-7.57,5,2.23,7.39,2.16,12.69.87h.01Z"/>
      <path class="st0" d="M717.26,48.62c-3.21,3.2-6.25,8.58-11.13,8.38l3.96-3.27c.52-6.12,1.78-5.59,7.16-5.12h.01Z"/>
      <polygon class="st0" points="736.37 117.53 732.35 115.83 731.57 112.51 737.94 111.62 736.37 117.53"/>
      <path class="st0" d="M663.18,67.1l3.98-11.73c.1,3.85.19,10.05-3.98,11.73Z"/>
      <path class="st0" d="M747.47,127.65c-3.34,5.61-7.91-3.23-9.5-5.93,5.49-.62,5.03,5.13,9.5,5.93Z"/>
      <path class="st0" d="M692.48,160.55c1.1,1.18,3.06-.11,2.5,2.36l-7.94,1.68,3.2-6.7c2.31-.58,1.13,1.46,2.24,2.66Z"/>
      <path class="st0" d="M674.32,83.91l1.59-8.39h1.55c1.71,4.32,1.09,6.46-3.15,8.39h.01Z"/>
      <polygon class="st0" points="836.56 77.2 836.56 83.9 833.39 83.9 833.39 77.2 836.56 77.2"/>
      <polygon class="st0" points="671.11 147.8 666.38 143.6 668.74 141.08 671.11 147.8"/>
      <polygon class="st0" points="674.32 125.94 676.68 119.23 679.04 121.74 674.32 125.94"/>
      <polygon class="st0" points="687.02 159.59 687.02 161.23 683.04 162.88 680.67 160.4 687.02 159.59"/>
      <path class="st0" d="M691.8,147.82c.77.64-2.78,4.45-4.77,3.33-.77-.64,2.78-4.45,4.77-3.33Z"/>
      <polygon class="st0" points="671.11 72.15 670.33 75.5 667.94 72.16 671.11 72.15"/>
      <rect class="st0" x="729.99" y="97.38" width="4.76" height="1.65"/>
      <polygon class="st0" points="744.3 114.16 741.13 114.17 741.13 110.81 744.3 114.16"/>
      <rect class="st0" x="672.73" y="115.86" width="1.56" height="5.03"/>
      <polygon class="st0" points="683.84 122.57 680.67 122.56 683.06 119.23 683.84 122.57"/>
      <polygon class="st0" points="685.43 75.52 684.65 78.86 682.26 75.52 685.43 75.52"/>
      <polygon class="st0" points="680.66 132.68 679.88 136.02 677.49 132.69 680.66 132.68"/>
      <rect class="st0" x="683.86" y="132.69" width="4.76" height="1.65"/>
      <polygon class="st0" points="677.48 151.15 674.3 151.15 676.7 147.81 677.48 151.15"/>
      <rect class="st0" x="674.31" y="159.59" width="4.76" height="1.65"/>
      <polygon class="st0" points="688.61 11.63 687.83 14.97 685.44 11.64 688.61 11.63"/>
      <rect class="st0" x="664.77" y="82.25" width="3.17" height="1.65"/>
      <path class="st0" d="M670.31,52c2.16,3.23,4.03,2.47,7.14,2.47l-3.92,2.53-3.97-4.21.75-.79h0Z"/>
      <path class="st0" d="M741.1,82.22c-.64,1.42-4.36-4.87-3.98-6.68l3.98,4.19v2.49Z"/>
      <rect class="st0" x="666.37" y="85.6" width="1.56" height="3.35"/>
      <polygon class="st0" points="745.88 88.97 745.88 90.62 741.15 91.5 743.53 88.97 745.88 88.97"/>
      <rect class="st0" x="456.37" y="63.76" width="3.17" height="1.65"/>
      <rect class="st0" x="674.31" y="166.31" width="3.17" height="1.65"/>
      <polygon class="st0" points="691.79 77.21 691.79 78.85 689.44 78.85 687.06 76.33 691.79 77.21"/>
      <rect class="st0" x="669.54" y="77.21" width="3.17" height="1.65"/>
      <rect class="st0" x="679.08" y="141.09" width="3.17" height="1.65"/>
      <rect class="st0" x="663.18" y="137.72" width="1.56" height="3.35"/>
      <rect class="st0" x="706.13" y="46.94" width="3.17" height="1.65"/>
      <rect class="st0" x="694.99" y="120.92" width="3.17" height="1.65"/>
      <rect class="st0" x="702.95" y="119.23" width="1.56" height="3.35"/>
      <path class="st0" d="M720.43,115.88c.22.22-.08,1.1,0,1.65-2.42-.44-6.79-.89-6.34-3.33.54-.26,6.1,1.45,6.34,1.69h0Z"/>
      <rect class="st0" x="372.05" y="115.87" width="3.17" height="1.65"/>
      <rect class="st0" x="819.08" y="109.15" width="3.17" height="1.65"/>
      <polygon class="st0" points="671.11 110.8 669.55 110.8 669.55 108.32 671.93 105.8 671.11 110.8"/>
      <rect class="st0" x="736.35" y="102.42" width="3.17" height="1.65"/>
      <path class="st0" d="M732.37,46.93c1.03.56,1.03,1.12,0,1.68v-1.68Z"/>
      <path class="st0" d="M676.69,48.61c1.03.56,1.03,1.12,0,1.68v-1.68Z"/>
      <path class="st0" d="M457.15,55.33c1.03.56,1.03,1.12,0,1.68v-1.68Z"/>
      <path class="st0" d="M703.72,57.05c.88,1.07,3.2,2.19,1.62,3.3-.77-.99-3.19-2.13-1.62-3.3Z"/>
      <path class="st0" d="M710.1,60.38c1.03.56,1.03,1.12,0,1.68v-1.68Z"/>
      <path class="st0" d="M805.55,60.38c1.03.56,1.03,1.12,0,1.68v-1.68Z"/>
      <path class="st0" d="M473.06,65.42c1.03.56,1.03,1.12,0,1.68v-1.68Z"/>
      <path class="st0" d="M473.06,70.46c1.03.56,1.03,1.12,0,1.68v-1.68Z"/>
      <path class="st0" d="M675.1,72.14c1.03.56,1.03,1.12,0,1.68v-1.68Z"/>
      <path class="st0" d="M663.96,73.83c1.03.56,1.03,1.12,0,1.68v-1.68Z"/>
      <path class="st0" d="M821.46,75.51c1.03.56,1.03,1.12,0,1.68v-1.68Z"/>
      <path class="st0" d="M473.06,78.87c1.03.56,1.03,1.12,0,1.68v-1.68Z"/>
      <path class="st0" d="M821.46,248.67c1.03.56,1.03,1.12,0,1.68v-1.68Z"/>
      <path class="st0" d="M670.33,88.96c1.03.56,1.03,1.12,0,1.68v-1.68Z"/>
      <path class="st0" d="M703.73,161.25c1.03.56,1.03,1.12,0,1.68v-1.68Z"/>
      <path class="st0" d="M708.51,159.57c1.03.56,1.03,1.12,0,1.68v-1.68Z"/>
      <path class="st0" d="M733.96,149.48c1.03.56,1.03,1.12,0,1.68v-1.68Z"/>
      <path class="st0" d="M751.46,125.94c1.03.56,1.03,1.12,0,1.68v-1.68Z"/>
      <path class="st0" d="M676.67,114.21c.88,1.07,3.2,2.19,1.62,3.3-.77-.99-3.19-2.13-1.62-3.3Z"/>
      <path class="st0" d="M686.23,112.49c1.03.56,1.03,1.12,0,1.68v-1.68Z"/>
      <path class="st0" d="M671.92,112.49c1.03.56,1.03,1.12,0,1.68v-1.68Z"/>
      <path class="st0" d="M678.28,110.81c1.03.56,1.03,1.12,0,1.68v-1.68Z"/>
      <path class="st0" d="M372.84,110.81c1.03.56,1.03,1.12,0,1.68v-1.68Z"/>
    </g>
  </g>
</svg>