<?xml version="1.0" encoding="UTF-8"?>
<svg id="Layer_1" xmlns="http://www.w3.org/2000/svg" version="1.1" viewBox="0 0 1920 1080">
  <!-- Generator: Adobe Illustrator 29.5.1, SVG Export Plug-In . SVG Version: 2.1.0 Build 141)  -->
  <path d="M1908.75,507.57c-1.52-5.58.51-13.22-.69-19.5-.73-3.83-4.11-7.55-5.21-11.32-4.54-15.67,3.38-25.12.79-39.63-.85-4.75-5.41-5.44-6.26-10.19-1.15-6.42.35-16.5.03-23.65-.64-14.63-1.5-29.23-1.71-43.71-.47-31.39,1.28-63.23.06-94.54-.08-2.05,1.2-6.27-1.57-5.88l-4.83,61.49c.71,47.89-.54,94.97.14,141.68.13,8.77,2.71,28.8-3.81,34.84.35,1.08.67,2.16.96,3.26.13-.03.25-.05.38-.07,3.33,1.78,3.11,6.34,5.12,8.5,3.75,4.03,11.05,2.88,11.49,3.33.57.59-.89,12.21,5.58,15.14,11.32-10.94,1.45-12.74-.47-19.75ZM1906.82,498.65c-4.84-2.01-5.21-6.8-4.71-11.81,4.84,2.01,5.21,6.8,4.71,11.81Z"/>
  <polygon points="1931.38 502.04 1929.83 507.08 1923.75 503.68 1931.38 502.04"/>
  <rect x="1925.27" y="517.21" width="3.04" height="5.04"/>
  <path d="M1931.38,513.82h-6.1s0-1.65,0-1.65c3.25-.79,4.74-2.9,6.1,1.65Z"/>
  <rect x="1925.28" y="439.63" width="1.5" height="6.73"/>
  <rect x="1897.78" y="534.09" width="4.57" height="1.65"/>
  <rect x="1899.31" y="542.52" width="3.04" height="1.65"/>
  <rect x="1925.27" y="535.78" width="3.04" height="1.65"/>
  <rect x="1925.27" y="529.03" width="3.04" height="1.65"/>
  <rect x="1923.75" y="412.64" width="1.5" height="3.36"/>
  <path d="M1932.14,535.76c.99.56.99,1.12,0,1.69v-1.69Z"/>
  <path d="M1900.06,527.33c.99.56.99,1.12,0,1.69v-1.69Z"/>
  <path d="M1927.56,525.64c.99.56.99,1.12,0,1.69v-1.69Z"/>
  <path d="M1941.3,503.71c.99.56.99,1.12,0,1.69v-1.69Z"/>
  <path d="M1877.15,500.34c.99.56.99,1.12,0,1.69v-1.69Z"/>
  <path d="M1930.61,488.53c.99.56.99,1.12,0,1.69v-1.69Z"/>
  <path d="M1926.03,432.87c.99.56.99,1.12,0,1.69v-1.69Z"/>
  <path d="M1926.03,427.81c.99.56.99,1.12,0,1.69v-1.69Z"/>
  <path d="M1926.03,421.06c.99.56.99,1.12,0,1.69v-1.69Z"/>
  <path d="M1933.67,412.63c.99.56.99,1.12,0,1.69v-1.69Z"/>
</svg>