<?xml version="1.0" encoding="UTF-8"?>
<svg id="Layer_1" xmlns="http://www.w3.org/2000/svg" version="1.1" viewBox="0 0 1920 1080">
  <!-- Generator: Adobe Illustrator 29.5.1, SVG Export Plug-In . SVG Version: 2.1.0 Build 141)  -->
  <path d="M626.41,986.96c-.35-.44-.67-1.02-.96-1.69v2.12c.28-.15.6-.3.96-.43Z"/>
  <path d="M677.38,989.48c-1.64-6.58-.9-39.94-2.24-42.2-.82-1.38-3.28-2.36-3.86-1.64-.94,1.17,2.18,25.6,1.52,31.23-.27,2.32-1.12,5.28-3.05,2.49,1.71-11.59-3.73-22.69-1.54-33.71h-9.16c1.51,12.14-2.27,25.1,1.72,36.87l10.5.24c-2.39,6.54.34,7.29,6.09,6.74Z"/>
  <path d="M663.64,699.36c-.78-11.01,3.38-23.67,1.53-34.56-.6-3.51-1.89-4.7-5.33-4.32-8.14.89-2.21,22.51-1.52,27.86.68,5.24-4.55,10.4,5.32,11.02Z"/>
  <path d="M682.36,589.2c-.89-1.42-.15-4.26-.39-4.54-.58-.68-3.82,1.87-5.26,1.5-1.6-.41-1.73-3.6-2.78-4.4-3.91-2.98-11.42,1.26-15.67-2.04-3.85,2.56.5,7.1-.68,12.29-.45,1.97-3.75-.02-3.1,2.75,7.27,2.06,5.13-4.29,11.36-5.17,10.34-1.46,9.42,4.92,11.06,5.31,2.69.64,6.65-2.18,9.65-1.83-.1-2.47-3.23-2.35-4.2-3.88Z"/>
  <path d="M631.57,982.73v30.36h7.64c.09-10.16-1.35-20.2-1.54-30.37h-6.1Z"/>
  <path d="M659.05,1011.35l9.16,1.74c2.62-7.29-3.06-8.71-3.06-9.27,0-.71,8.69-5.15-.04-10.13l3.1-7.57c-19.34-4.16-4.36,4.5-4.56,7.56-.11,1.67-7.01-2-4.6,8.19.37,1.58,3.49.7,3.06,1.93l-3.06,7.55Z"/>
  <path d="M636.16,958.24l-4.57-2.49v10.1l4.56-3.36.02,7.58-4.58-.84v10.13s6.1,0,6.1,0v-27.83c0-6.96-8.17-7.73-6.17-1.73.32.96,5.91,2.9,4.65,8.45Z"/>
  <path d="M632.35,942.23c9.83,2.44,1.13-23.47,2.27-28.66-2.1-3.03-2.33-.93-2.7,2.04-.48,3.87-.87,10.03-1,14.01-.08,2.3-.62,12.1,1.43,12.61Z"/>
  <polygon points="669.76 1029.96 668.08 1016.65 659.73 1018.11 660.58 1029.97 669.76 1029.96"/>
  <path d="M639.2,591.44c-5.14-.59-11.03-6.71-15.27-.83l6.88,10.93,8.39-10.09Z"/>
  <path d="M660.58,1055.25v15.2s7.65,0,7.65,0l-.02-10.12c-6.16-1.17-.74,4.4-1.52,5.04-1.61,1.31-4.49-1.34-4.6-4.18-.08-2.14,7.79-.58,6.12-5.91l-7.64-.02Z"/>
  <path d="M651.43,690.1c1.71-3.87,4.16-1.47-.06-8.43-.03-1.38,2.31-.61,2.76-1.13l-2.69-11.53-1.54,28.67c4.54.9,5.82-.44,4.57-5.66-.41-1.7-3.65-.57-3.05-1.93Z"/>
  <path d="M671.28,1078.88c-.5.53-.2,14.17.38,14.78.22.23,5.53,2.35,5.71,2.09.46-.68-.98-16.28-1.52-16.88-.16-.18-4.41-.16-4.57.02Z"/>
  <path d="M666.5,938.65l.19-11.58h-7.61c1.16,7.74-2.42,15.98,7.43,11.58ZM664.41,933.82c.99.56.99,1.12,0,1.69v-1.69Z"/>
  <path d="M654.52,969.78c2.5-8.35-2.82-2.46-4.62-7.27l4.58-5.07c-7.47-3.85-9.21,9.31-3.07,10.14-9.21,14.42,6.99,9.2,3.06,5.03-.96-1.02-3.5,4.86-4.58,2.51-.53-3.58,3.97-3.14,4.63-5.34Z"/>
  <path d="M667.46,770.18c1.85-.17,1.04-8.22,6.86-3.34v-8.42s-1.52,3.35-1.52,3.35l-3.03-.03-.14-3.14c-4.16-3.82-6.1,11.94-2.17,11.58Z"/>
  <path d="M634.32,1021.4c.24.39,1.67-.13,1.81.15.21.39-6.05,7.28-.73,8.4,5.16,1.08,2.38-11,3.79-13.48-4,1.23-8.96-1.57-4.87,4.93Z"/>
  <path d="M644.51,709.49c1.76,5.75,2.33-4.63,5.38-1.68.55.53-1.26,4.01,1.52,3.35l3.06-3.35.02-5.06c-5.09-.98-12.21-.57-9.98,6.75Z"/>
  <path d="M674.6,1060.1c-1.18-1.35,1.16-5.39-1.77-4.83-1.96,7.42,2.88,5.86,4.56,10.93-6.81,6.77,1.96-3.8-4.57-2.5v6.73s6.09.02,6.09.02c2.14-13.07-2.91-8.74-4.31-10.35Z"/>
  <path d="M668.07,1097.61c-1.58-3.15-10.87-.43-7.49,6.55h7.65c-.28-1.95.57-5.09-.16-6.55Z"/>
  <path d="M677.38,1029.96c-.34-2.81.88-7.52-.32-9.77-.16-.3-4.76-3.54-5.74-2.9l4.54,4.25-4.59,1.68c-.88,6.47,1.99,5.61,6.11,6.74Z"/>
  <path d="M660.63,708.58l2.99.87v-8.4c-8.99,2.12-5.59,3.21-4.54,11.81l1.55-4.28Z"/>
  <path d="M660.59,1092.35c1.13,1.81,9.1,2.8,7.62-4.19-.97-4.59-10.95-1.13-7.62,4.19Z"/>
  <rect x="660.58" y="1035.03" width="9.18" height="5.05"/>
  <rect x="657.54" y="647.07" width="4.57" height="10.14"/>
  <rect x="659.07" y="721.28" width="4.57" height="10.14"/>
  <path d="M652.24,643.43l2.23-6.45h-9.16c-1.29,7.18,2.13,4.07,6.92,6.45Z"/>
  <path d="M652.94,613.34v-8.42s-3.29,3.15-3.29,3.15c-9.03-3.5-4.48,5.82,3.29,5.27Z"/>
  <path d="M656.01,989.46c.19-.15-1.52-4.18-1.96-4.62-2.79-2.75-8-.9-10.23,2.1,4.35,6.59,1.79-3.73,6.04-.78.34.24-.62,5.43,6.15,3.3Z"/>
  <path d="M645.33,760.1v10.1l4.55-5.05,1.53,5.05v-11.79c-3-.54-.82,4.19-1.52,5.07-3.02,3.8-2.24-3.73-4.56-3.38Z"/>
  <path d="M656.01,636.98c-.09,4.4,4.52,10.03,7.63,6.72,2.84-3.02-3.68-9-7.63-6.72Z"/>
  <path d="M668.24,680.81l3.02-6.73,1.53,8.42v-11.81c-.09-.14-2.49,1.8-2.87,1.43-.74-.72.92-3.81-1.68-3.1v11.79Z"/>
  <path d="M639.18,717.11l9.16,1.67c-2.28-3.65-3.06-7.47-8.35-5.91-1.28.38-3.15,2.89-.81,4.23Z"/>
  <path d="M656,1002.97v-8.42s-6.08-.01-6.08-.01c-1.05,7.54.56,6.38,6.08,8.43Z"/>
  <path d="M654.47,655.5l-1.54-8.42c-4.23-1.42-2,.71-2.52,1.67-.93,1.71-1.47,4.77-3.57,6.75h7.63Z"/>
  <path d="M662.11,613.35v-8.44s-6.12,1.7-6.12,1.7c2.06,4.54.12,8.07,6.12,6.74Z"/>
  <path d="M652.92,593.95c-.06-3.08-8.72-2.8-10.66-2.51.16,3.33,10.74,6.22,10.66,2.51Z"/>
  <path d="M660.6,1082.24h7.62c.14-6.92-7.76-6.92-7.62,0Z"/>
  <path d="M677.39,1002.95l-1.61-8.42c-3.93,1.38-6.14-1.48-4.56,5.63.34,1.51,5.37,3.49,6.17,2.79Z"/>
  <path d="M663.41,628.78c-.87-.72-4.25-.53-5.86-1.94v6.74s6.1,0,6.1,0c-1.39-1.41-.07-4.64-.24-4.79Z"/>
  <path d="M671.3,684.2c1.2,8.72-5.93,18.57,4.55,10.08v-1.63c-.78.03-2.22.23-2.66-.31-1.68-2.11,1.48-8.16-1.89-8.14Z"/>
  <path d="M665.16,906.83c1.4-11.64-2.96-3.76-4.44-5.16-.71-.68.99-3.99-1.64-3.26-1.07,7.57.59,6.31,6.08,8.42Z"/>
  <rect x="659.07" y="738.17" width="4.57" height="6.74"/>
  <path d="M678.89,1037.55c0-2.28-5.49-3.1-7.6-2.52-1.82,5.28,7.61,5.82,7.6,2.52Z"/>
  <path d="M645.32,629.36c4.73,1.49,8.32,9.15,7.64-.83l-7.64.83Z"/>
  <polygon points="659.07 896.72 665.16 896.72 665.17 891.66 659.07 891.66 659.07 896.72"/>
  <polygon points="662.1 760.1 660.61 760.1 660.6 770.2 663.64 770.2 662.1 760.1"/>
  <path d="M692.18,977.57l2-6.63c-4.46-.95-2.14,3.01-2,6.63Z"/>
  <path d="M692.18,977.57l-1.04,3.46c.88-.96,1.09-2.19,1.04-3.46Z"/>
  <path d="M651.44,1104.17c2.16-.92,6.69-2.29,4.55-5.05-2.34-3.03-7.85-.83-4.55,5.05Z"/>
  <path d="M666.7,707.81h6.09c.64-5.11-3.34-3.9-6.08-5.07v5.07Z"/>
  <path d="M652.19,890l-2.28,2.52v2.49s4.55,1.7,4.55,1.7c.37-3.09.09-4.92-2.28-6.71Z"/>
  <path d="M669.77,889.97l-1.53,6.74h4.55c.41-3.14.01-5.85-3.02-6.74Z"/>
  <path d="M651.39,585.53l-6.06-5.92v8.42c2.57.72.91-2.41,1.74-3.13,1.25-1.09,3.27,2.11,4.32.63Z"/>
  <polygon points="675.86 1006.35 671.27 1006.36 671.27 1011.39 675.86 1011.4 675.86 1006.35"/>
  <path d="M649.91,1028.28l3.04-1.69c8.1-10.66-5.26-2.17-3.04,1.69Z"/>
  <polygon points="656 1027.42 652.95 1026.58 652.96 1029.96 656 1027.42"/>
  <path d="M652.03,931.39c-.71-.82-.5-4.54-2.14-1.77l.02,10.93,1.52-5.07,2.22,3.35c-1.31,3.16,2.24.03,2.35-.82.61-4.82-1.98-4.33-3.97-6.62Z"/>
  <path d="M654.47,955.74v-3.36s-6.09.83-6.09.83c1.65,2.6,3.28,2.94,6.09,2.53Z"/>
  <path d="M656.01,1011.39v-5.03c-8.72-2.06-3.03,7,0,5.03Z"/>
  <polygon points="648.35 744.9 648.36 736.48 645.32 736.49 646.86 744.9 648.35 744.9"/>
  <polygon points="666.7 744.9 669.75 744.9 669.75 738.17 666.7 738.18 666.7 744.9"/>
  <path d="M649.91,667.31h3.04s-.75-6.73-.75-6.73c-2.35,1.82-2.66,3.62-2.29,6.73Z"/>
  <rect x="671.29" y="1097.43" width="3.04" height="5.04"/>
  <path d="M659.06,785.37c2.23,2.01,5.89-3.65,4.57-6.72-.58-1.4-4.89,6.43-4.57,6.72Z"/>
  <path d="M634.62,726.35v-3.36s-4.57.83-4.57.83c1.39,1.79,2.32,3.08,4.57,2.53Z"/>
  <path d="M650.74,783.32c.26-.14.03-4.98.67-6.36l-6.09,6.73c1.38-1.02,5.17-.24,5.41-.37Z"/>
  <rect x="646.86" y="669.02" width="1.5" height="8.42"/>
  <path d="M671.3,743.22c2.21-.57,3.5-2.72,3.03-5.05h-3.04s0,5.05,0,5.05Z"/>
  <path d="M623.27,940.73c.82,1.15,1.87,1.94,2.17,1.52.76-1.57-.97-4.06-2.14-4.89-.06,1.13-.08,2.26-.03,3.37Z"/>
  <path d="M660.6,854.53c1.67,1.84,4.7-1.52,3.04-3.36-1.67-1.84-4.7,1.52-3.04,3.36Z"/>
  <rect x="694.21" y="760.1" width="1.5" height="6.73"/>
  <rect x="645.33" y="994.55" width="1.5" height="6.73"/>
  <polygon points="660.61 923.69 662.1 923.69 663.64 918.65 660.6 918.65 660.61 923.69"/>
  <polygon points="652.97 1040.07 654.46 1040.07 656.01 1035.04 652.96 1035.03 652.97 1040.07"/>
  <path d="M678.93,999.59c1.67,1.84,4.7-1.52,3.04-3.36s-4.7,1.52-3.04,3.36Z"/>
  <path d="M652.95,724.69l-7.62-1.69c-1.08.52,7.03,8.03,7.62,1.69Z"/>
  <polygon points="640.74 953.21 643.02 955.71 645.32 952.39 640.74 953.21"/>
  <polygon points="666.71 731.41 669.75 731.4 666.71 728.04 666.71 731.41"/>
  <polygon points="609.43 1095.73 610.18 1092.37 607.13 1092.38 609.43 1095.73"/>
  <rect x="668.24" y="900.09" width="1.5" height="5.04"/>
  <path d="M690.39,588.01l.75-5.01c-4.47-.89-3.98,2.25-.75,5.01Z"/>
  <polygon points="647.61 687.55 648.36 684.2 645.32 684.2 647.61 687.55"/>
  <polygon points="648.37 775.29 645.32 775.28 645.33 778.64 648.37 775.29"/>
  <polygon points="639.22 1062 642.26 1058.65 639.21 1058.64 639.22 1062"/>
  <rect x="645.33" y="891.66" width="1.5" height="5.04"/>
  <polygon points="652.97 741.53 656.01 738.18 652.96 738.17 652.97 741.53"/>
  <path d="M662.9,795.47l.75-5.01c-4.47-.89-3.98,2.25-.75,5.01Z"/>
  <polygon points="645.33 697.67 646.82 697.67 648.36 690.94 645.32 690.95 645.33 697.67"/>
  <path d="M646.83,1021.52v-3.36s-4.54.83-4.54.83c1.35,1.82,2.31,3.08,4.54,2.54Z"/>
  <rect x="666.71" y="692.63" width="1.5" height="5.04"/>
  <polygon points="669.76 930.45 669.77 933.82 672.81 930.46 669.76 930.45"/>
  <rect x="672.82" y="790.46" width="1.5" height="5.04"/>
  <polygon points="609.43 1104.16 610.18 1100.81 607.13 1100.82 609.43 1104.16"/>
  <path d="M625.44,997.9v-5.04h-1.5v.35c.38,1.45.94,3.04,1.31,4.69h.18Z"/>
  <polygon points="640.73 933.83 643.03 937.18 643.78 933.83 640.73 933.83"/>
  <polygon points="642.29 1027.44 643.01 1028.24 646.84 1023.23 643.8 1023.22 642.29 1027.44"/>
  <rect x="660.6" y="861.31" width="4.57" height="1.65"/>
  <rect x="668.24" y="795.52" width="1.5" height="5.04"/>
  <polygon points="660.59 797.21 662.89 800.56 663.64 797.2 660.59 797.21"/>
  <rect x="700.32" y="1067.07" width="1.5" height="3.36"/>
  <rect x="649.91" y="869.73" width="1.5" height="3.36"/>
  <rect x="591.86" y="1065.4" width="3.04" height="1.65"/>
  <rect x="608.67" y="1063.7" width="1.5" height="3.36"/>
  <rect x="651.44" y="1062.01" width="1.5" height="3.36"/>
  <rect x="649.91" y="601.56" width="3.04" height="1.65"/>
  <path d="M625.44,895.01v-3.36h-1.5v1.99c.06.46.11.92.16,1.36h1.33Z"/>
  <rect x="651.44" y="1056.95" width="1.5" height="3.36"/>
  <path d="M632.35,891.68c-1.65,1.49-2.79,2.55-2.29,5.02h1.5l.79-5.02Z"/>
  <rect x="631.58" y="898.41" width="1.5" height="3.36"/>
  <rect x="656.02" y="574.56" width="1.5" height="3.36"/>
  <rect x="656.02" y="567.81" width="1.5" height="3.36"/>
  <rect x="645.32" y="567.82" width="3.04" height="1.65"/>
  <rect x="668.24" y="827.56" width="1.5" height="3.36"/>
  <rect x="634.63" y="561.08" width="3.04" height="1.65"/>
  <rect x="646.86" y="679.14" width="1.5" height="3.36"/>
  <rect x="668.24" y="684.2" width="1.5" height="3.36"/>
  <rect x="623.95" y="922.02" width="1.5" height="3.36"/>
  <rect x="663.66" y="922.02" width="1.5" height="3.36"/>
  <rect x="623.95" y="927.08" width="1.5" height="3.36"/>
  <rect x="608.67" y="1083.94" width="1.5" height="3.36"/>
  <rect x="681.99" y="702.75" width="1.5" height="3.36"/>
  <rect x="678.93" y="1023.22" width="1.5" height="3.36"/>
  <rect x="674.34" y="704.44" width="3.04" height="1.65"/>
  <rect x="678.93" y="704.44" width="1.5" height="3.36"/>
  <rect x="651.44" y="1089" width="1.5" height="3.36"/>
  <rect x="652.96" y="1018.17" width="3.04" height="1.65"/>
  <rect x="668.24" y="790.46" width="1.5" height="3.36"/>
  <rect x="625.48" y="1018.16" width="1.5" height="3.36"/>
  <path d="M625.48,962.48h1.5v-3.36h-.78c-.24.24-.49.48-.72.7v2.65Z"/>
  <rect x="659.08" y="775.28" width="1.5" height="3.36"/>
  <path d="M625.44,984.43h-.34c.11.3.22.58.34.85v-.85Z"/>
  <path d="M625.44,987.78v-.39c-.23.12-.43.25-.61.39h.61Z"/>
  <rect x="681.99" y="972.62" width="1.5" height="3.36"/>
  <path d="M653.72,761.77v1.69c.99-.56.99-1.12,0-1.69Z"/>
  <polygon points="678.17 766.8 678.17 761.81 675.89 764.3 678.17 766.8"/>
  <path d="M653.72,766.83c.99-.56.99-1.12,0-1.69v1.69Z"/>
  <path d="M678.15,739.85v1.69c.99-.56.99-1.12,0-1.69Z"/>
  <path d="M650.66,739.85v1.69c.99-.56.99-1.12,0-1.69Z"/>
  <path d="M662.88,776.96c.99-.56.99-1.12,0-1.69v1.69Z"/>
  <path d="M668.99,775.27v1.69c.99-.56.99-1.12,0-1.69Z"/>
  <path d="M673.57,775.27v1.69c.99-.56.99-1.12,0-1.69Z"/>
  <path d="M676.63,776.96c.99-.56.99-1.12,0-1.69v1.69Z"/>
  <path d="M653.72,778.64c.99-.56.99-1.12,0-1.69v1.69Z"/>
  <path d="M673.57,731.41c.99-.56.99-1.12,0-1.69v1.69Z"/>
  <path d="M653.72,729.73v1.69c.99-.56.99-1.12,0-1.69Z"/>
  <path d="M668.99,780.33c.99-.56.99-1.12,0-1.69v1.69Z"/>
  <path d="M673.57,780.33c.99-.56.99-1.12,0-1.69v1.69Z"/>
  <path d="M673.57,724.67v1.69c.99-.56.99-1.12,0-1.69Z"/>
  <path d="M694.96,782.02v1.69c.99-.56.99-1.12,0-1.69Z"/>
  <path d="M667.46,726.35c.99-.56.99-1.12,0-1.69v1.69Z"/>
  <path d="M681.21,719.61v1.69c.99-.56.99-1.12,0-1.69Z"/>
  <path d="M667.46,709.49v1.69c.99-.56.99-1.12,0-1.69Z"/>
  <path d="M653.72,709.49v1.69c.99-.56.99-1.12,0-1.69Z"/>
  <path d="M672.04,798.88v1.69c.99-.56.99-1.12,0-1.69Z"/>
  <path d="M675.1,695.99v1.69c.99-.56.99-1.12,0-1.69Z"/>
  <path d="M679.68,680.81c.99-.56.99-1.12,0-1.69v1.69Z"/>
  <path d="M676.63,675.75v1.69c.99-.56.99-1.12,0-1.69Z"/>
  <path d="M668.99,824.18v1.69c.99-.56.99-1.12,0-1.69Z"/>
  <path d="M662.88,829.24c.99-.56.99-1.12,0-1.69v1.69Z"/>
  <path d="M685.79,672.38v1.69c.99-.56.99-1.12,0-1.69Z"/>
  <path d="M679.68,672.38v1.69c.99-.56.99-1.12,0-1.69Z"/>
  <path d="M644.55,669.01v1.69c.99-.56.99-1.12,0-1.69Z"/>
  <path d="M668.99,663.95c.99-.56.99-1.12,0-1.69v1.69Z"/>
  <path d="M647.61,662.26v1.69c.99-.56.99-1.12,0-1.69Z"/>
  <path d="M685.79,648.77v1.69c.99-.56.99-1.12,0-1.69Z"/>
  <path d="M647.61,647.08v1.69c.99-.56.99-1.12,0-1.69Z"/>
  <path d="M627.75,642.02c.99-.56.99-1.12,0-1.69v1.69Z"/>
  <path d="M670.52,852.86v1.69c.99-.56.99-1.12,0-1.69Z"/>
  <path d="M650.66,862.98v1.69c.99-.56.99-1.12,0-1.69Z"/>
  <path d="M668.99,628.53v1.69c.99-.56.99-1.12,0-1.69Z"/>
  <path d="M659.83,869.72v1.69c.99-.56.99-1.12,0-1.69Z"/>
  <path d="M664.41,869.72v1.69c.99-.56.99-1.12,0-1.69Z"/>
  <path d="M661.35,621.78v1.69c.99-.56.99-1.12,0-1.69Z"/>
  <path d="M659.83,601.54v1.69c.99-.56.99-1.12,0-1.69Z"/>
  <path d="M635.39,895.02c.99-.56.99-1.12,0-1.69v1.69Z"/>
  <path d="M624.7,901.77c.99-.56.99-1.12,0-1.69v1.69Z"/>
  <path d="M646.08,900.08v1.69c.99-.56.99-1.12,0-1.69Z"/>
  <path d="M653.72,900.08v1.69c.99-.56.99-1.12,0-1.69Z"/>
  <path d="M646.08,903.46v1.69c.99-.56.99-1.12,0-1.69Z"/>
  <path d="M653.72,903.46v1.69c.99-.56.99-1.12,0-1.69Z"/>
  <path d="M630.81,561.06v1.69c.99-.56.99-1.12,0-1.69Z"/>
  <path d="M653.72,913.58v1.69c.99-.56.99-1.12,0-1.69Z"/>
  <path d="M661.35,913.58v1.69c.99-.56.99-1.12,0-1.69Z"/>
  <path d="M655.24,928.76v1.69c.99-.56.99-1.12,0-1.69Z"/>
  <path d="M624.7,935.5c.99-.56.99-1.12,0-1.69v1.69Z"/>
  <path d="M672.04,937.19c.99-.56.99-1.12,0-1.69v1.69Z"/>
  <path d="M643.02,940.56c.99-.56.99-1.12,0-1.69v1.69Z"/>
  <path d="M624.7,949c.99-.56.99-1.12,0-1.69v1.69Z"/>
  <path d="M650.66,947.31v1.69c.99-.56.99-1.12,0-1.69Z"/>
  <path d="M653.72,947.31v1.69c.99-.56.99-1.12,0-1.69Z"/>
  <path d="M678.15,954.06v1.69c.99-.56.99-1.12,0-1.69Z"/>
  <path d="M644.57,962.46c1.52-1.11-.71-2.23-1.56-3.31-1.51,1.17.82,2.32,1.56,3.31Z"/>
  <path d="M688.85,960.8v1.69c.99-.56.99-1.12,0-1.69Z"/>
  <path d="M685.79,965.86v1.69c.99-.56.99-1.12,0-1.69Z"/>
  <path d="M623.64,978.01c.04.29.09.58.13.86.22-.29.17-.57-.13-.86Z"/>
  <path d="M653.72,979.36v1.69c.99-.56.99-1.12,0-1.69Z"/>
  <path d="M682.74,984.42v1.69c.99-.56.99-1.12,0-1.69Z"/>
  <path d="M643.02,1006.34v1.69c.99-.56.99-1.12,0-1.69Z"/>
  <path d="M646.08,1006.34v1.69c.99-.56.99-1.12,0-1.69Z"/>
  <polygon points="679.67 1011.37 681.94 1008.87 679.67 1006.38 679.67 1011.37"/>
  <path d="M643.02,1009.72v1.69c.99-.56.99-1.12,0-1.69Z"/>
  <path d="M646.08,1009.72v1.69c.99-.56.99-1.12,0-1.69Z"/>
  <path d="M676.63,1016.46v1.69c.99-.56.99-1.12,0-1.69Z"/>
  <path d="M679.68,1018.15v1.69c.99-.56.99-1.12,0-1.69Z"/>
  <path d="M704.12,1019.84v1.69c.99-.56.99-1.12,0-1.69Z"/>
  <path d="M704.12,1023.21v1.69c.99-.56.99-1.12,0-1.69Z"/>
  <path d="M708.7,1023.21v1.69c.99-.56.99-1.12,0-1.69Z"/>
  <path d="M647.61,1026.58v1.69c.99-.56.99-1.12,0-1.69Z"/>
  <path d="M636.92,1036.7v1.69c.99-.56.99-1.12,0-1.69Z"/>
  <path d="M644.55,1036.7v1.69c.99-.56.99-1.12,0-1.69Z"/>
  <path d="M627.75,1038.39v1.69c.99-.56.99-1.12,0-1.69Z"/>
  <path d="M633.86,1038.39v1.69c.99-.56.99-1.12,0-1.69Z"/>
  <path d="M629.29,1043.49c-3.44,2.56-1.89,4.85,0,1.65.51-.86,1.24-.89,0-1.65Z"/>
  <path d="M591.09,1045.14v1.69c.99-.56.99-1.12,0-1.69Z"/>
  <path d="M627.75,1050.2v1.69c.99-.56.99-1.12,0-1.69Z"/>
  <path d="M702.59,1058.63v1.69c.99-.56.99-1.12,0-1.69Z"/>
  <path d="M702.59,1063.69v1.69c.99-.56.99-1.12,0-1.69Z"/>
  <path d="M639.97,1065.38v1.69c.99-.56.99-1.12,0-1.69Z"/>
  <path d="M652.19,1067.07v1.69c.99-.56.99-1.12,0-1.69Z"/>
  <path d="M25.96,1070.44v1.69c.99-.56.99-1.12,0-1.69Z"/>
  <path d="M609.42,1080.56c.99-.56.99-1.12,0-1.69v1.69Z"/>
  <path d="M652.19,1080.56c.99-.56.99-1.12,0-1.69v1.69Z"/>
  <path d="M701.07,1080.56v1.69c.99-.56.99-1.12,0-1.69Z"/>
  <path d="M643.02,1085.62v1.69c.99-.56.99-1.12,0-1.69Z"/>
  <path d="M636.92,1087.31v1.69c.99-.56.99-1.12,0-1.69Z"/>
  <path d="M701.07,1087.31v1.69c.99-.56.99-1.12,0-1.69Z"/>
  <path d="M580.4,1092.37v1.69c.99-.56.99-1.12,0-1.69Z"/>
  <path d="M591.09,1094.05v1.69c.99-.56.99-1.12,0-1.69Z"/>
  <path d="M615.53,1100.8v1.69c.99-.56.99-1.12,0-1.69Z"/>
  <path d="M657.58,529h1.47s-.74-8.42-.74-8.42c-.24.17-.44.34-.63.51-.04,2.66-.17,5.53-.1,7.9Z"/>
  <rect x="686.57" y="525.65" width="1.5" height="5.04"/>
  <rect x="645.33" y="523.96" width="1.5" height="5.04"/>
  <path d="M668.22,534.05v-1.65h-3.04v.39c.49.38,1.01.8,1.55,1.27h1.49Z"/>
  <rect x="645.33" y="515.53" width="1.5" height="3.36"/>
  <path d="M639.97,527.33v1.69c.99-.56.99-1.12,0-1.69Z"/>
  <path d="M646.08,522.27c.99-.56.99-1.12,0-1.69v1.69Z"/>
  <path d="M646.08,512.15v1.69c.99-.56.99-1.12,0-1.69Z"/>
  <path d="M678.15,507.09v1.69c.99-.56.99-1.12,0-1.69Z"/>
  <path d="M611.66,937.2c-.04,1.1-.04,2.17.04,3.16v-3.16h-.04Z"/>
</svg>