<?xml version="1.0" encoding="UTF-8"?>
<svg id="Layer_1" xmlns="http://www.w3.org/2000/svg" version="1.1" viewBox="0 0 1920 1080">
  <!-- Generator: Adobe Illustrator 29.5.1, SVG Export Plug-In . SVG Version: 2.1.0 Build 141)  -->
  <defs>
    <style>
      .st0 {
        fill: #fff;
      }
    </style>
  </defs>
  <text/>
  <g id="doaL8L.tif">
    <g>
      <path class="st0" d="M994.05,1063.16c-5.26-1.21-1.51,2.48-2.42,3.52-1.5,1.73-4.34.77-3.93,3.4l5.61-1.67.74-5.25Z"/>
      <polygon class="st0" points="1006.78 1068.37 1002.02 1069.22 1004.43 1071.82 1006.78 1071.83 1006.78 1068.37"/>
      <path class="st0" d="M1010.76,1068.36v1.74c1.03-.58,1.03-1.16,0-1.74Z"/>
      <polygon class="st0" points="990.87 1075.32 986.11 1075.33 986.12 1077.03 990.86 1078.78 990.87 1075.32"/>
      <path class="st0" d="M976.57,1083.98l-1.58-3.45c-5.3,17.08,5.99,10.51,15.89,10.4l-6.38-4.33,6.38-6.06c-4.68-1.36-1.77,3.32-5.5,3.56-3.14.2-4.48.25-4.07-3.56l-1.57,3.44h-3.17Z"/>
      <path class="st0" d="M980.54,1108.32v1.74c1.03-.58,1.03-1.16,0-1.74Z"/>
      <path class="st0" d="M968.61,1115.27h-1.59c.48-.63,1-1.23,1.59-1.74v1.74Z"/>
      <path class="st0" d="M860.43,1115.27c-.88-1.04-2.87-4.93-.79-5.22l3.97.03-1.59,5.2h-1.59Z"/>
      <path class="st0" d="M951.11,1115.27h-1.59,1.59Z"/>
      <polygon class="st0" points="796.8 757.35 793.62 757.34 793.63 760.81 796.8 757.35"/>
      <path class="st0" d="M933.61,878.96c1.04-.12,2.14.1,3.18-.02-1.26-6.2-5.58-6.33-9.54-9.55l3.22-1.71c1.22-5.11-3-3.22-3.35-6.85-1.82-18.76,2.01-40.83.13-60.05,7.75-.83,3.5,11.93,4.78,13.89l4.74-3.47,4.13,40.07-5.72,2.52c-.36,7.51,6.03,5.69,6.39,6.07.41.43-2.67,9.08-.02,12.14l-5.58-6.92c-5.59-.67-.85,10.2.81,8.67l1.59-3.47,2.39,8.64,5.56-3.43v8.67s-2.35-3.47-2.35-3.47c-3.34,2.01-4.72,2.2-4.01,6.95l-1.59-3.47-4.74,3.48c-.23-2.85.27-5.85-.02-8.69-6.68.78,1.64,3.18-4.76,6.95v-12.16c4.04,1.87,4.33.96,4.76,5.21Z"/>
      <polygon class="st0" points="936.78 835.51 936.78 832.05 933.62 834.66 936.78 835.51"/>
      <path class="st0" d="M936,840.74v1.74c1.03-.58,1.03-1.16,0-1.74Z"/>
      <path class="st0" d="M932.83,851.2l-2.37,2.59.75.82c.88-1.11,3.2-2.26,1.62-3.41Z"/>
      <path class="st0" d="M934.4,858.11v1.74c1.03-.58,1.03-1.16,0-1.74Z"/>
      <path class="st0" d="M884.28,505.37l3.18,86.88c-3.77,1.27-4.26-3.11-4.59-6.21-2.01-18.71-.71-40.21-1.66-58.92-.36-7.2-2.2-14.42-1.67-21.75h4.74Z"/>
      <path class="st0" d="M874.74,456.74l-7.93,119.87c-2.73-38.81,5.11-78.15,4.75-117.3l3.18-2.57Z"/>
      <path class="st0" d="M871.56,281.24c-1.08,11.84,2.69,24.22,3.25,35.69.2,4.15-1.92,7.94-1.77,12.07.16,4.67,6.79,13.41.89,16.5-5.55,2.92-2.88-15.01-2.95-16.2-.82-15.12-2.22-30.3-2.59-45.51l3.17-2.56Z"/>
      <path class="st0" d="M882.7,413.33c-.39,3.31-4.05,1.06-4.85,6.04-.52,3.24.54,18.26.95,22.59.33,3.5,6.68,17.12-.86,16.52v-15.64s-4.76,5.19-4.76,5.19c-2.44-4.91,2.57-13.15,2.57-14.76,0-1.09-2.57-3.55-2.74-6.94-.52-10.15,3.02-21.67,1.76-32.14,6.68,4.12-1.22,18.4,7.93,19.14Z"/>
      <path class="st0" d="M914.71,565.93l7.75-1.46v6.95s-7.93-1.74-7.93-1.74c-1.52,4.49,2.85,2.91,3.19,4.6.78,3.88-.6,9.34.09,13.56l-4.88.97,7.95,8.65c-8.01,1.07-3.85-9.07-12.7-1.72l3.15-8.7-3.09,1.68-1.67-5.12,6.35,1.73c1.45-1.85,1.42-12.72-2.36-10.42-2.19,1.33-1.36,5.49-3.98,5.19l1.52-12.78c.67-2.03,6.06-.11,4.85-4.56l1.75,3.19Z"/>
      <rect class="st0" x="909.76" y="569.68" width="1.56" height="3.46"/>
      <path class="st0" d="M978.15,1049.26l-.9,7.02,7.26,2.52-4.8,6.06-3.15.02,1.58-5.18c-9-1.74-7.81,5.34-10.33,12.14-3.16-3.47-3.63-17.3.62-18.16l-1.41-4.41h11.13Z"/>
      <path class="st0" d="M907.36,364.64c2.46.25,6.58,3.32,10.34,1.75-.95,3.88-4.28,3.3-7.07,3.54-7.62.66-20.96-.56-28.73-1.87-2.76-.46-2.66.95-2.38-3.43,9.02.66,18.94-.91,27.84,0Z"/>
      <path class="st0" d="M892.25,656.55v34.75l-4.77-.02c3.74-10.8-1.91-23,0-34.74h4.77Z"/>
      <path class="st0" d="M944.74,915.46c-.29,5.58-1.83,8.84-6.35,11.3l3.97-.9-.8,4.45-14.3,2.52v-8.69c4,1.45,17.11.04,13.48-5.23l-3.94,1.77-1.58-6.96c3.47,2.39,5.49,3.33,9.52,1.74Z"/>
      <path class="st0" d="M889.06,627c-4.18.4-2.62.21-3.12-2.6-1.4-7.97-1.14-15.52-.04-23.45,2.32-.31,2.85,4.55,3.02,6.23.65,6.55-.13,13.26.14,19.82Z"/>
      <path class="st0" d="M914.51,955.41l-4.75-2.62,3.13-1.7c-4.42-2.01-4.21-16.34-.76-16.49l2.38,20.81Z"/>
      <polygon class="st0" points="927.23 1099.66 922.48 1101.39 925.67 1103.98 922.46 1105.72 927.26 1106.59 927.25 1111.79 919.3 1111.79 920.03 1099.63 927.23 1099.66"/>
      <path class="st0" d="M959.05,821.63l-5.54,10.41-7.16-12.15c5.09-.17,7.61,4.9,12.7,1.73Z"/>
      <path class="st0" d="M882.69,482.8l-2.35,15.61c-2.54-3.84-4.58-16.25,2.35-15.61Z"/>
      <path class="st0" d="M930.42,906.76c-6.9,1.05-.56-11.91-3.25-16.18l4.83-2.92-1.58,19.1Z"/>
      <path class="st0" d="M903.38,1016.22c-.87,1.16-2.13,1.5-2.7-1.64-.78-4.26.95-10.02-.54-14.55l4.82-2.92-1.58,19.1Z"/>
      <path class="st0" d="M908.48,527.63l2.84,1.13c-4.67,6.79-.9,14.46.01,21.79l-4.59-4.22-.16-27.04c5.27,1.28.96,6.49,1.9,8.34Z"/>
      <path class="st0" d="M911.34,1049.23l-4.88,1.25.09,3.96-4.76.02v-8.67c3.4-.04,8.26-1.03,9.55,3.45Z"/>
      <path class="st0" d="M874.73,371.59c-4.81-3.31-5.46-13.77-.77-17.37l.77,17.37Z"/>
      <path class="st0" d="M909.75,474.12c-2.17,5.08-2.78,11.55-.03,16.52l-3.14.85c.08-6.17-6.62-15.24,3.17-17.37Z"/>
      <path class="st0" d="M936.79,944.99v-1.74h1.59c-.09.07-.02,2.11-1.59,1.74Z"/>
      <path class="st0" d="M957.47,920.66c-.85-.43-1.84-.53-1.59-1.74.25.59,1.49,1.2,1.59,1.74Z"/>
      <path class="st0" d="M957.47,998.86c-1.74-.25-1.3,1.1-1.59,1.74-.67.52-2.97,2.02-3.17,1.74-.61-3.44,2.27-5.38,4.76-6.95.23,1.02-.23,2.47,0,3.48Z"/>
      <path class="st0" d="M946.34,771.23c.46,1.48,2.93,6.42-.77,5.19-8.84-5-8.31-12.95-7.17-22.56l4.75,1.73.07-9.23-6.42-2.91,4.79,4.33-4.77,2.61-1.63-8.69c-2.25-2.6-2.89.23-3.18,2.59-1.06,8.63,6.37,21.53-4.75,23.47,2.27-3.65-.95-8.45-.91-9.53.1-2.45,2.49-4.98,2.58-8.67.13-5.38-3.12-26.33,2.32-28.67l2.34,3.41,4.77-6.05c-4.5-.95-4.44-6.75-5.13-7.42-1.05-1.02-3.79.5-4.46-1.47-1.63-4.73.14-16.47-.09-22.07-.99-24.95,3.32-63.33.01-85.3-.59-3.91-2.48-7.46-4.59-10.59l3.16.02c-.31-8.63,1.74-16.78-3.24-24.29,4.94-2.6,4.59-3.05,4.95-8.74.41-6.54.1-24.9-4.9-27.77,4.19-5.08,4.97-26.91,4.11-33.1-.27-1.97-4.23-4.6-4.31-7.66l-4.56,1.67-4.77-10.44,4.72.9-1.54-4.37,4.75,1.73-1.6-6.97-4.74,1.76,2.37-5.18,3.94,3.45,3.2-5.22,3.19,3.47-7.98-10.42-4.71,2.62,3.17-6.09c2.37-.64,1.45,2.06,2.45,3.3,6.6,8.22,7.62-7.05,6.95-12.7-.86-7.19-7.81-12.24-1.4-19.32,5.48-6.06,35.66,3.23,43.67,4.42,2.73-4.22-.05-5.42-3.05-7.1-11.2-6.27-26.06-7.17-38.33-6.78l-1.52,3.41c-3.56-2.69-5.16-7.18-7.98-10.49-1.48-1.74-9.63-3.82-.79-5.15l-2.39-6.93c5.6,2.84,6.28,21.03,13.5,13.03-6.25-5.56.4-14.86-1.78-22.36l-7.73-3.72,7.72-2.84-.84-15.05-5.31-2.09,1.62-5.18-7.97-1.77c1.91-5.98,7.2-.9,11.13-1.72l-.09-15.54c-11.83-2.19-23.71.35-35.81-.09-2.07-.08-13.45.08-13.38-2.61,1.86-3.32,3.24-1.87,5.55-1.98,11.45-.55,22.64,1.19,34.18,1.11l-3.13-6.9,5.46-3.6,4.03,3.53-4.73,4.38,7.9,4.33c-1.87-11.3,1.45-22.93,1.62-33.89.04-2.97-1.6-5.71-1.62-8.69-.03-3.49,3.04-8.56.97-11.43l-5.71-2.46c10.31-5.02,3.85-22.92,6.25-32.83l6.47-3.67-4.76-6.06c5.68-2.35,10.56-2.17,16.03.87,1.84,1.47-2.4,7.24,4.63,3.46l-3.17-4.34,109.69.08,17.29,102.08c-5.94,12.65.14,9.18,2.18,14.91,1.81,5.08,7.33,40.93,7.65,47.37.15,2.95-2.5,1.96-3.05,3.68-.83,2.59-.04,8.62-3.29,9.08l-1.61-18.25c-1.01-1.63-2.81,1.03-3.03,1.95-1.71,7.06,1.45,25.41-.16,33.68l-4.75-5.19v10.41s4.75-1.75,4.75-1.75l1.59,6.96-7.94-3.46.15,5.9,5.98,3,2.61,11.94,3.77-6.03-1.39-4.37,11.12-.02c1.12-7.8-10.32-4.3-11.14-5.21-1.98-6.15,2.54-6.88,2.71-7.29.43-1.05-1.46-3.21-.42-4.89.82-1.32,4.21-1.23,4.2-2.67-.02-2.72-7.83-17.48,1.46-18.15l58.17,354.56,5.32-.28,84.65-529.58,136.64,2.42v103.39c-3.09-.54-1.87-5.29-5.86-6.63-5.68-1.9-16.95.43-23.65-.21-3.36-.32-5.91-3.56-7.55-3.26-1.32.24-2.95,2.83-5.15,3.1-9.63,1.2-23.15-1.51-22.77,13.71,1.21.16,3.17,1.98,3.75,1.98h58.86c.48,0,1.22-2.2,2.39-1.74v91.22h-6.33s4.71-6.97,4.71-6.97c-5.35-.86-5.73-11.2-4.69-15.4.2-.79,8.24-3.08.2-4.77l2.92-10.2c-11.97-.8-20.99-.46-31.8,5.22l13.66,3.27c3.72,1.27,8.48-5.88,11.04-1.56,2.39,4.04-4.22,26.59-.86,33.02l-4.74-3.48-3.19,3.46,1.49-5.05-3.08-1.87,4.75-2.61c-5.5-2.86-5.36-4.73-4.75-11.33l-44.56.02c-.65,26.77,31.64,5.13,42.95,18.25-9.2,4.42-20.7-2.58-28.6,5.2l2.57,2.37,37.15.23v12.17s-7.94-1.72-7.94-1.72l7.89,3.53.07,6.89,4.75-.02c1.87-9.23-3.94-19.13,6.37-24.32l.02,119.9-7.8-.19-4.93-18.93h-49.32c1.99,8.17-4.17,16.99-3.92,24.41.3,8.94,3.39,24.5,13.45,24.24,3.24-27.71,34.16-24.53,39.82-.01,6.97.65,6.67-12.39,12.7-12.15v248.47h-63.63v48.65h63.63v139.01l-100.22,1.74V434.14l-5.56,1.74-86.6,586.54h-65.43s-3.5-34.4-3.5-34.4c-10.71-51.55-16.87-106.26-24.34-157.61-19.29-132.61-37.52-265.7-57.99-398.01h-4.74s-.02,354.46-.02,354.46c-2.77.41-1.5-3.95-1.57-6.05-.15-4.35.85-11.94.04-15.32-.47-1.95-4.05-1.74-4.56-3.93-1.65-7.11,1.7-26.07,1.26-34.55-.41-7.98-3.68-16.86-3.13-25.29l-4.77,10.44-4.77-.87,3.2,9.54,6.34-1.73c2.23,6.47-2.35,12.62-2.87,16.88-1.24,10.23-1.47,6.91-3.29,13.9-1.15,4.42,4.04,9.66-1.75,13.53,1.32,3.16,7.05,3.35,7.93,5.22,2.02,4.35-6.03-1.23-4.83,6.94.1.7,3.09.74,3.3,1.97.64,3.75-2.55,12.12-2.48,17.21.12,9.4,4.45,26.23,3.54,36.2-.47,5.18-6.38,9.78-6.02,17.57.2,4.34,3.05,7.15,3.27,10.53.34,5.38-4.82,12.28,6.39,7.74l.03,5.21h-5.57s0,5.18,0,5.18l-2.4-8.64c-3.58-1.98-5.69,6.85-7.15,6.9l-4.77-5.15c-3.96,3.34-2.09,9.15-2.37,13.86l3.21-.84-3.22,21.69c4.79.82,2.63-1.28,3.17-4.4.73-4.19.45-8.79,1.61-12.96,4.47-.97,2.88,1.64,3.29,5,4.36-2.38,3.65,2.35,5,3.37.84.63,5.77-2.22,7.6,2.92l-6.37.87c1.35,4.32,1.19,5.97-2.4,8.67l-5.54-3.44c3.06,3.29,4.43,8.92,6.36,12.15h-4.76c.9,11.61,5.21,12.82,4.76,0,.33.56,5.04.13,1.97,9.54l4.38,6.09-1.57-17.35c7.54-1.4-1.12,13.93,6.35,12.14.49-5.83-.66-12.59,0-18.27.37-3.17-.54-2.81,3.18-2.58v116.42h-77.95l3.18-4.34-6.38-1.75,3.19-3.46c-4.89-3.22-5.48-9.39-11.96-4.38l-1.55-5.18-2.31,9.5,4.65,1.77c-7.29,5.16-.58,16.34-7.91,16.51l.04-12.65c-4.05-.38-6.53-6.19-7.23-6.47-4.4-1.75-.23,10.9-.76,12.16l1.54-3.94,3.23-.37c-1,5.51-1.93,9.71-7.97,9.53l1.65-7.67c-5.9-1.31-1.02-8.29-2.02-12.3-.5-2.03-8.7-5.89-1.23-14.75-5.51-1.45-1.26,7.14-6.36.84,6.74-2.6,4.66-8.16,4.78-14.76,4.83,3.13,2.16,11.87,3.32,18.03.65,3.48,2.53,6.29,3.04,9.77l4.74-3.47.04,10.42c7.8.91-1.44-16.72,6.33-15.66l-3.24-2.84c.7-4.14,2.26-13.14-3.09-12.8-2.56-4.09,19.87-4.65,16.7,3.55-1.17,3.02-5.3,3.22-2.41,10.4l-3.16-1.76c-.42,4.54,0,9.23,4.76,8.68-3.65-3.61-2.61-7.81,1.57-10.4.02,7.54,6.93,11.75,11.98,15.65l3.94-3.48-.8,6.93c6.75-7.73-2.35-6.84.8-13.89.31-.24,1.84.23,1.59-1.74,1.06,4.56,2.64,9.16,3.22,13.89l3.13-1.76,1.59,5.23-1.58-27.78-3.14.83,1.55,9.58-1.59-5.22c-.22-.34-2.49,1.33-3.17,1.76-.62-2.74-2.23-5.35-1.61-8.68-3.16.31.15,4.87-4.53,2.09l-1.8,3.11-1.6-8.67c3.74,2.7,8.88-1.32,10.33-1.19,1.59.14,3,3.58,3.95,2.9.14-.1-.47-3.02,1.06-3.48,3.21-.95,15.36,1.04,16.47,0v-10.4c-10.54,1.24-21.4,2.57-31.82-.03l.05-9.55,4.71.89-4.41-5.95,1.24-6.2c-7.5-.06-1.13,12.89-7.15,17.33-5.25-5.21-4.08-16.17-11.92-15.6-1.42,1.71,4.41,15.63-1.58,17.37.55-12.25.16-23.11-1.61-34.76.87-.97,17.76,1.25,20.69,1.74-.04,1.15-.07,2.29.02,3.44,3.3.55,3.6.16,3.15-3.43-1.03-.18-2.19.16-3.17,0,.21-5.52,0-9.26,6.35-8.71l-3.16-2.74.8-7.69,3.96-1.7c.25,1.06-.29,2.79,0,3.47-5.53,4.57,2.9,8.76,1.59,1.74,5.86,2.97,10.91,7.34,1.6,10.45l4.78.87c-1.38,4.59-.95,14.41-4.79,16.49-.1-2.64.12-10.4.03-10.98-.78-4.92-9.93-2.03-4.82,7.5l-3.12-.91-.04,6.12,2.37-3.45c2.25,2.91,2.71,3.27,5.58,1.73.16,4.04-.13,8.14,0,12.17l4.75-1.28,4.52-6-1.31-3.15,4.74.87-6.3-3.47,6.33-4.38-6.4-7.76,4.81.82v-17.35s-3.98,6.94-3.98,6.94l-5.53-6.07c1.74-3.76,4.84-1.1,6.4-1.87,4.49-2.2,5.26-11.55,4.7-16.37l-6.34,1.73-.81-10.44-.81,8.7-5.59-3.49-3.94,3.47c1.5-5.45,2.65-6.03,7.95-5.21-4.79-6.2-.45-7.38-.01-13.88l-4.75,1.73,1.56-8.67c-2.66-.4-2.06,4.98-3.95,5.18-.58.06-5.65-2.21-3.98-5.19l4.74,1.75,2.4-10.46.71,5.77,4.08,2.9,1.58-13.86-3.97,3.47-.07-6.09,3.61-.89,1.2-3.44c-5.45,2.51-4.69-1.18-7.93-3.47l1.68,5.99-3.28,1.81,3.15,3.48c-6.82,7.08-10.57,5.35-12.71-4.31,6.24-.39,7.34-4.14,9.52-9.61l-9.5,2.63v-19.11c5.16,1.35,3.47,7.77,3.92,8.71,1.06,2.23,3.63-.13,4.02-.03-.06.94-.08,3.21.79,3.54l3.98-.08c-.34-2.67-2.85-2.96-4.77-3.46.49-7.29,3.24-17.47,11.14-17.42l-1.56-4.37,3.11.89.02-6.92-3.16,1.76v-15.64s4.67,8.62,4.67,8.62c-7.13.44-1.02,3.84,1.08,7.06l5.45-2.9c1.56-6.18-3.01-5.11-3.39-8.34-.59-5.05.67-10.05,1.71-14.86l-6.33,6.94-.8-6.94-.78,8.66-6.37,1.76,1.56-8.69-4.75.87c3.2-1.95,10.89-18.87,3.18-18.26l-4,17.37-2.81,2.27-5.91-.53c-1.56-6.16,5.37-2.34,6.37-3.46l-.03-6.94-3.15,3.45,1.57-15.62c-.53-.68-3.66,1.55-4.76,1.73-.26-.82.23-2.39,0-3.46-3.32-.49-3.61-.17-3.17,3.46,1.04-.04,2.15.17,3.17,0Z"/>
      <path class="st0" d="M1268.48,246.48v1.74c1.03-.58,1.03-1.16,0-1.74Z"/>
      <path class="st0" d="M971.79,253.43h-35c1.85,2.16-5.94,4.38-1.62,6.11,5.24,2.1,12.01.27,17.53.83.7,4.4-2.74,12.11,3.96,10.45l2.56-10.25,12.57-.19v-6.94Z"/>
      <path class="st0" d="M1334.5,256.93c-11-6.1-16.43-1.49-27.04,1.73-.58,5.06,4.55,7.38,1.58,12.13h4.78s-1.58-5.19-1.58-5.19c7.52,1.22,41.62,4.03,46.14.87,1.57-1.09,1.87-2.41,1.57-4.35l-44.52,1.72c-.44-2.09.65-4.48,2.53-4.93.89-.21,22.55,4.53,16.54-1.99Z"/>
      <rect class="st0" x="1003.61" y="255.18" width="3.16" height="3.46"/>
      <path class="st0" d="M1366.31,255.18c-4.69.25-12.82-2.25-12.71,5.19,4.69-.25,12.82,2.25,12.71-5.19Z"/>
      <path class="st0" d="M1345.63,256.93h-7.95s0,3.45,0,3.45c3.03.25,6.98.48,7.95-3.45Z"/>
      <polygon class="st0" points="1019.51 262.11 1018.73 258.65 1016.33 262.1 1019.51 262.11"/>
      <rect class="st0" x="1240.65" y="260.4" width="3.17" height="1.7"/>
      <rect class="st0" x="1270.87" y="260.4" width="3.17" height="1.7"/>
      <polygon class="st0" points="1259.73 265.58 1257.32 262.13 1253.37 264.74 1259.73 265.58"/>
      <rect class="st0" x="1262.92" y="263.88" width="3.17" height="1.7"/>
      <path class="st0" d="M1347.22,269.08c-9.19,2.03-18.6-1.29-27.86-.01-2.19.3-5,1.32-2.37,3.47,8.9,1.3,17.31,1.39,26.24-.05,2.93-.47,4.71,1.79,3.99-3.41Z"/>
      <path class="st0" d="M1351.2,269.07v1.74c1.03-.58,1.03-1.16,0-1.74Z"/>
      <path class="st0" d="M1039.4,270.81v1.74c1.03-.58,1.03-1.16,0-1.74Z"/>
      <rect class="st0" x="1355.19" y="270.83" width="3.17" height="1.7"/>
      <rect class="st0" x="932.03" y="272.56" width="3.17" height="1.7"/>
      <rect class="st0" x="1052.94" y="272.56" width="1.56" height="3.46"/>
      <rect class="st0" x="1251.78" y="272.56" width="3.17" height="1.7"/>
      <path class="st0" d="M1286.79,279.5c.61.84,4.21-3.03,3.15-5.21-.61-.84-4.21,3.03-3.15,5.21Z"/>
      <rect class="st0" x="1280.42" y="276.04" width="3.17" height="1.7"/>
      <polygon class="st0" points="1299.49 276.03 1294.74 276.88 1297.14 279.48 1299.49 279.49 1299.49 276.03"/>
      <rect class="st0" x="1302.69" y="277.78" width="3.17" height="1.7"/>
      <path class="st0" d="M1318.59,284.69l-7.18-6.57c-9.15,8.28-.3,8.59,7.18,6.57Z"/>
      <rect class="st0" x="1251.78" y="279.51" width="3.17" height="1.7"/>
      <rect class="st0" x="1289.96" y="281.24" width="4.76" height="3.46"/>
      <polygon class="st0" points="1008.37 282.98 1000.44 284.73 1000.43 286.43 1008.37 286.44 1008.37 282.98"/>
      <rect class="st0" x="1237.47" y="282.98" width="3.16" height="3.46"/>
      <polygon class="st0" points="1339.26 282.98 1336.09 282.99 1338.48 286.44 1339.26 282.98"/>
      <rect class="st0" x="992.48" y="284.73" width="4.76" height="1.7"/>
      <path class="st0" d="M1039.4,284.71v1.74c1.03-.58,1.03-1.16,0-1.74Z"/>
      <rect class="st0" x="1274.06" y="284.73" width="3.17" height="1.7"/>
      <polygon class="st0" points="933.63 291.66 936.76 289.05 934.4 286.46 933.63 291.66"/>
      <path class="st0" d="M951.9,286.45v1.74c1.03-.58,1.03-1.16,0-1.74Z"/>
      <path class="st0" d="M959.86,286.45v1.74c1.03-.58,1.03-1.16,0-1.74Z"/>
      <rect class="st0" x="1247.01" y="288.2" width="3.17" height="1.7"/>
      <rect class="st0" x="1253.37" y="288.2" width="6.35" height="1.7"/>
      <rect class="st0" x="1310.64" y="288.2" width="3.17" height="1.7"/>
      <path class="st0" d="M1322.57,288.19v1.74c1.03-.58,1.03-1.16,0-1.74Z"/>
      <path class="st0" d="M1328.93,288.19v1.74c1.03-.58,1.03-1.16,0-1.74Z"/>
      <rect class="st0" x="1331.33" y="288.2" width="3.17" height="1.7"/>
      <rect class="st0" x="998.84" y="291.68" width="3.17" height="1.7"/>
      <path class="st0" d="M1064.05,303.81l-6.29-11.26-8,3.48,4.76,2.59-6.36,6.09c3.36,1.87,3.57,5.67,7.94,4.32l-1.59-5.18,9.54-.03Z"/>
      <path class="st0" d="M934.4,293.4v1.74c1.03-.58,1.03-1.16,0-1.74Z"/>
      <rect class="st0" x="981.34" y="293.42" width="3.17" height="1.7"/>
      <polygon class="st0" points="1248.59 293.41 1243.83 294.26 1246.23 296.86 1248.59 296.86 1248.59 293.41"/>
      <rect class="st0" x="1254.97" y="293.41" width="1.56" height="3.46"/>
      <rect class="st0" x="1277.24" y="293.42" width="3.17" height="1.7"/>
      <path class="st0" d="M1359.94,293.42l-12.71,1.7c3.36.42,10.75,2.94,12.71-1.7Z"/>
      <path class="st0" d="M1340.86,298.59c-7.9-8.74-22.31.49-32.36-1.8-2.49.6-2.86,9.71-2.63,12.23l34.98-10.44Z"/>
      <rect class="st0" x="1283.6" y="296.88" width="3.16" height="3.46"/>
      <rect class="st0" x="1041.79" y="298.63" width="3.17" height="1.7"/>
      <polygon class="st0" points="962.24 300.37 959.07 300.36 959.08 303.82 962.24 300.37"/>
      <polygon class="st0" points="970.2 300.37 967.03 300.36 967.03 303.82 970.2 300.37"/>
      <path class="st0" d="M980.54,302.09v1.74c1.03-.58,1.03-1.16,0-1.74Z"/>
      <polygon class="st0" points="1243.81 302.1 1239.06 302.09 1239.07 305.56 1243.81 303.8 1243.81 302.1"/>
      <path class="st0" d="M933.62,303.84c.8,1.95-.43,10.29,2.37,10.38,4.15.12.52-10.35-2.37-10.38Z"/>
      <path class="st0" d="M1015.54,305.56v1.74c1.03-.58,1.03-1.16,0-1.74Z"/>
      <path class="st0" d="M1272.47,309.05c-1.36.73-9.73-2.99-9.52.86.19,3.53,14.25,3.01,9.52-.86Z"/>
      <rect class="st0" x="1044.98" y="310.78" width="1.56" height="3.46"/>
      <path class="st0" d="M1056.1,310.79l3.98,5.16c4.36-3.29.59-5.84-3.98-5.16Z"/>
      <rect class="st0" x="1286.78" y="310.78" width="3.16" height="3.46"/>
      <path class="st0" d="M1367.91,317.71l-.78-5.23-1.74-1.5-18.17,3.29c.87,5.18,19.68,4.75,20.68,3.44Z"/>
      <rect class="st0" x="1229.51" y="316" width="3.17" height="1.7"/>
      <path class="st0" d="M1037.81,317.72v1.74c1.03-.58,1.03-1.16,0-1.74Z"/>
      <path class="st0" d="M1288.37,319.48c-.64-.64-17.7-2.99-15.9,3.45.65-1.28,21.06,1.74,15.9-3.45Z"/>
      <rect class="st0" x="936.8" y="319.47" width="4.76" height="3.46"/>
      <path class="st0" d="M953.49,319.46v1.74c1.03-.58,1.03-1.16,0-1.74Z"/>
      <path class="st0" d="M1243.81,319.47c-1.2-1.3-6.44-.81-4.75,4.32,1.97,5.99,6.85-2.04,4.75-4.32Z"/>
      <rect class="st0" x="1059.29" y="321.21" width="3.16" height="3.46"/>
      <path class="st0" d="M1307.45,321.21c-7.48.77-7.19,7.8-7.96,13.87l4.02,1.32,3.18-3.1.75-12.09Z"/>
      <rect class="st0" x="1254.97" y="322.95" width="3.16" height="3.46"/>
      <path class="st0" d="M1240.09,328.82c-3.12-1.05-6.26-2.17-9.58-2.25l-2.66,4.22c0,10.56,20.82,2.78,25.52,5.15,4.38,2.22-4.19,3.09-1.6,7.84,3.95.58,15.78-1.87,17.5,2.62l-4.77,4.32h11.13s-3.16-5.18-3.16-5.18c2.27-1.28,17.6-2.09,15.13-5.26l-4-2.57,7.96-2.62-6.39-3.48,1.61-3.45h-23.87s2.4,12.12,2.4,12.12l-8.77-1.73,4.76-1.74-4.77-3.49,3.18-5.16c-5.97,1.21-11.52,5.09-17.96,3.4-1.09-.29-1.23-2.6-1.68-2.75Z"/>
      <rect class="st0" x="1340.88" y="331.63" width="1.56" height="3.46"/>
      <path class="st0" d="M1295.52,333.36v1.74c1.03-.58,1.03-1.16,0-1.74Z"/>
      <polygon class="st0" points="1329.73 336.82 1326.56 333.36 1326.55 336.83 1329.73 336.82"/>
      <path class="st0" d="M971.79,336.84h-35.79c-1.7,0-3.04,5-2.38,6.94l17.28.23c1.3.93,1.05,10.66,5.76,10.22l.8-10.45h14.33s0-6.94,0-6.94Z"/>
      <polygon class="st0" points="1248.33 345.24 1250.17 338.58 1242.22 340.32 1242.24 345.52 1248.33 345.24"/>
      <rect class="st0" x="1291.56" y="338.58" width="3.16" height="3.46"/>
      <polygon class="st0" points="1299.49 338.58 1296.33 338.58 1296.33 341.16 1298.71 343.78 1299.49 338.58"/>
      <rect class="st0" x="1301.1" y="338.58" width="4.76" height="3.46"/>
      <path class="st0" d="M1227.91,343.77c-.85-3.45-3.39-3.9-6.35-3.45v3.46s6.35,0,6.35,0Z"/>
      <polygon class="st0" points="1234.27 342.04 1229.51 342.06 1231.2 348.05 1227.93 350.72 1230.92 351.54 1229.49 355.93 1237.45 357.68 1234.27 342.04"/>
      <path class="st0" d="M1291.54,347.27c-3.48,1.14-13.98-3.2-12.71,3.46,3.48-1.14,13.98,3.2,12.71-3.46Z"/>
      <rect class="st0" x="1046.57" y="350.76" width="3.17" height="1.7"/>
      <path class="st0" d="M1266.09,354.23c-1.62-1.69-32.06-2.87-25.44,3.45,7.22-1.63,20.38,2.75,25.44-3.45Z"/>
      <polygon class="st0" points="936.78 359.42 936.78 356.85 933.63 354.21 933.62 359.42 936.78 359.42"/>
      <rect class="st0" x="986.12" y="354.22" width="3.16" height="3.46"/>
      <path class="st0" d="M1278.81,354.22c-10.33-1.32-9.9,7.73,0,3.44v-3.44Z"/>
      <rect class="st0" x="1280.42" y="354.22" width="3.16" height="3.46"/>
      <polygon class="st0" points="1293.13 357.68 1292.35 354.22 1289.96 357.67 1293.13 357.68"/>
      <path class="st0" d="M1363.14,375.06c7.5,1.03,5.52-18.53,2.34-19.12-6.56,5.53-12.93-1.19-21.24,1.97l-1.92,9.17,3.31,2.76-3.17,2.6,4.76,4.33c-4.95.35-5.24,3.9-4.77,8.71,5.9-.34,22.71,1,15.95-7.85l-7.98-.85,7.94-1.73-1.48-6.2,3.05-.75c1.51-5.35-2.96-1.67-3.14-5.18l7.89.82-1.52,11.32Z"/>
      <rect class="st0" x="952.71" y="357.7" width="3.17" height="5.2"/>
      <path class="st0" d="M1016.32,357.71h-9.53s0,1.7,0,1.7c3.38.61,6.2,1.33,9.52,0v-1.7Z"/>
      <rect class="st0" x="1017.93" y="357.71" width="4.76" height="1.7"/>
      <rect class="st0" x="1035.43" y="357.71" width="6.35" height="1.7"/>
      <rect class="st0" x="1054.52" y="357.71" width="3.17" height="1.7"/>
      <path class="st0" d="M1328.13,357.71c-3.23,1.34-15.28-3.5-14.3,3.45l14.3-3.45Z"/>
      <path class="st0" d="M1339.27,357.71l-9.54.84c2.62,3.84,7.98,3.93,9.54-.84Z"/>
      <path class="st0" d="M971.78,361.17h-4.76c.03,6.37,4.73,6.37,4.76,0Z"/>
      <path class="st0" d="M1246.95,361.24c-13.77-.69-7.18,9.1-6.94,16.73.37,11.73-1.06,23.56.63,35.32,4.48,1.21,4.77-6.49,6.45-9.51-5.66-1.38-.86-6.13-3.3-11.33l4.8-.02c-4.94-4.56-1.12-7.55-1.5-11.06-.13-1.21-3.03-.85-3.21-2.15-.21-1.61,1.69-4.9.14-7.43l9.32-3.69-6.28-1.88-.13-4.97Z"/>
      <path class="st0" d="M1264.5,361.18c-4.51.54-11.95-2.33-14.32,3.44,4.51-.54,11.95,2.33,14.32-3.44Z"/>
      <path class="st0" d="M1297.11,362.9v1.74c1.03-.58,1.03-1.16,0-1.74Z"/>
      <path class="st0" d="M1323.36,366.36c-1.54-5.37-5.72-1.89-9.54-1.7v1.7s9.54,0,9.54,0Z"/>
      <path class="st0" d="M1339.26,364.66c-4.33-.19-10.34-4.64-12.72,1.7l12.72-1.7Z"/>
      <rect class="st0" x="1231.1" y="364.65" width="3.16" height="3.46"/>
      <polygon class="st0" points="1264.49 366.39 1261.32 366.39 1263.72 369.84 1264.49 366.39"/>
      <rect class="st0" x="1270.87" y="366.39" width="4.76" height="3.46"/>
      <rect class="st0" x="1280.42" y="366.39" width="3.17" height="1.7"/>
      <path class="st0" d="M971.8,383.74c-.04-1.85.44-3.62-.71-5.31-2.07-3.07-33.54-6.55-39.06-10.32v8.67s14.31,1.77,14.31,1.77c.25,8.15-14.25,2.99-15.13,10.4l1.58,3.44,39.01-8.64Z"/>
      <path class="st0" d="M1255.75,368.11v1.74c1.03-.58,1.03-1.16,0-1.74Z"/>
      <polygon class="st0" points="1302.67 369.86 1294.73 371.61 1300.3 378.53 1302.67 369.86"/>
      <path class="st0" d="M1339.27,369.85h-23.07c-.27,0-2.5,2.34-2.38,3.45,1.89,2.61,12.98-.97,14.31,3.48-5.26.82-15.69-3.17-15.9,5.21,9,3.49,17.55,5.06,27.04,3.48l-1.66-8.58-7.9-.96,9.57-.88v-5.21Z"/>
      <path class="st0" d="M1281.99,375.07c-3.48-.08-8.31-.96-9.54,3.45h9.54s0-3.45,0-3.45Z"/>
      <path class="st0" d="M1289.46,379.06c-1.22-1.06-4.15-1.02-5.85-2.26l.1,5.06,7.84,1.87c.19-.16-1.61-4.26-2.08-4.67Z"/>
      <path class="st0" d="M1295.51,376.84c-1.57,1.21.86,2.39,1.62,3.41,1.58-1.14-.74-2.3-1.62-3.41Z"/>
      <rect class="st0" x="1363.14" y="378.55" width="3.16" height="3.46"/>
      <path class="st0" d="M1273.25,382.01v1.74c1.03-.58,1.03-1.16,0-1.74Z"/>
      <path class="st0" d="M1071.22,387.23v1.74c1.03-.58,1.03-1.16,0-1.74Z"/>
      <rect class="st0" x="1297.92" y="387.24" width="4.76" height="1.7"/>
      <polygon class="st0" points="1266.09 388.97 1263.73 388.98 1261.32 392.42 1266.09 392.43 1266.09 388.97"/>
      <polygon class="st0" points="1296.32 392.42 1293.93 389 1291.55 391.58 1296.32 392.42"/>
      <rect class="st0" x="1253.37" y="390.72" width="4.76" height="1.7"/>
      <rect class="st0" x="1274.06" y="390.72" width="3.17" height="1.7"/>
      <polygon class="st0" points="1312.23 397.64 1309.82 394.19 1307.46 394.19 1307.46 397.64 1312.23 397.64"/>
      <polygon class="st0" points="1348.82 397.64 1346.41 394.19 1344.05 394.19 1344.05 397.64 1348.82 397.64"/>
      <path class="st0" d="M1222.35,395.92v1.74c1.03-.58,1.03-1.16,0-1.74Z"/>
      <rect class="st0" x="1250.19" y="395.92" width="4.76" height="3.46"/>
      <rect class="st0" x="1262.93" y="395.92" width="1.56" height="3.46"/>
      <path class="st0" d="M1278.02,395.92v1.74c1.03-.58,1.03-1.16,0-1.74Z"/>
      <rect class="st0" x="1317.01" y="395.92" width="4.76" height="3.46"/>
      <polygon class="st0" points="1361.54 395.92 1356.78 395.93 1356.78 397.63 1361.53 399.39 1361.54 395.92"/>
      <rect class="st0" x="1059.29" y="397.66" width="3.16" height="3.46"/>
      <path class="st0" d="M971.78,399.4l-37.04,7.31c-2.74.35-3.62,5.13-2.72,6.56,1.59,2.53,32.79-7,38.12-7.86l1.64-6.01Z"/>
      <rect class="st0" x="1251.78" y="402.88" width="3.17" height="1.7"/>
      <path class="st0" d="M1308.25,404.6v1.74c1.03-.58,1.03-1.16,0-1.74Z"/>
      <path class="st0" d="M1332.91,406.36h-7.95s3.99,5.16,3.99,5.16c-2.32-2.45-9.47-2.18-10.35,1.76h15.9s-1.59-6.92-1.59-6.92Z"/>
      <polygon class="st0" points="1339.27 406.36 1336.1 406.35 1336.11 409.82 1339.27 406.36"/>
      <path class="st0" d="M1068.03,408.08v1.74c1.03-.58,1.03-1.16,0-1.74Z"/>
      <rect class="st0" x="1224.74" y="409.83" width="4.76" height="1.7"/>
      <path class="st0" d="M1315.4,411.57c-4.1-1.65-6.34-2.17-6.34,3.45l6.34-1.75v-1.69Z"/>
      <rect class="st0" x="1293.15" y="411.56" width="3.16" height="3.46"/>
      <path class="st0" d="M960.66,418.48c12.46,6.46,16.02-8.41,2.35-3.48-2.14.77-2.88-1.17-2.35,3.48Z"/>
      <rect class="st0" x="1272.47" y="413.3" width="3.16" height="3.46"/>
      <rect class="st0" x="1294.74" y="416.78" width="3.17" height="1.7"/>
      <rect class="st0" x="1278.84" y="418.51" width="1.56" height="5.2"/>
      <rect class="st0" x="1310.64" y="418.52" width="3.17" height="1.7"/>
      <rect class="st0" x="1317.01" y="418.52" width="3.17" height="1.7"/>
      <path class="st0" d="M1329.72,418.51l-6.35.85c1.71,2.67,3.41,3.03,6.35,2.61v-3.46Z"/>
      <rect class="st0" x="1334.51" y="418.51" width="4.76" height="3.46"/>
      <path class="st0" d="M1343.25,418.5v1.74c1.03-.58,1.03-1.16,0-1.74Z"/>
      <rect class="st0" x="1348.82" y="418.52" width="6.35" height="1.7"/>
      <path class="st0" d="M1332.11,420.24v1.74c1.03-.58,1.03-1.16,0-1.74Z"/>
      <path class="st0" d="M1230.3,428.93v1.74c1.03-.58,1.03-1.16,0-1.74Z"/>
      <rect class="st0" x="1242.24" y="432.42" width="3.17" height="1.7"/>
      <polygon class="st0" points="1286.77 434.16 1282.02 432.4 1282.01 437.61 1286.77 437.61 1286.77 434.16"/>
      <path class="st0" d="M1243.82,439.37l-4.14,2.62.97,4.25-23.86,2.66,13.84,5.86,3.68-4.97c3.97-1.72,2.63,3.04,4.19,3.48,2.43.68,5.85-.35,8.52-.03l-.23-6.77-4.56-.18,1.59-6.93Z"/>
      <path class="st0" d="M970.2,441.09h-37.38c-3.64,2.98-4.45,20.74,1.58,20.87l.8-13.93h15.93c-.31,5.57-.76,10.44,3.97,13.87,4.01-3.41,2.04-9.2,2.38-13.87h12.74s0-6.94,0-6.94Z"/>
      <path class="st0" d="M1308.66,443.35c-4-1.9-8.41-.42-5.98,4.68-3.22-.17-20.39-4.1-20.65.88l24.41,3.25,12.14,1.11v-5.18c-5.06,1.8-9.16-4.38-9.92-4.74Z"/>
      <path class="st0" d="M1259.74,446.31l-11.11,2.6c3.11,5.56,6.31,2.6,11.11,2.6v-5.19Z"/>
      <path class="st0" d="M1215.18,448.05c-3.37.98-12.44-2.99-11.12,3.46,3.37-.98,12.44,2.99,11.12-3.46Z"/>
      <path class="st0" d="M1274.05,448.06c4.16,10.28,11.65,4.91,4.75.87-1.57-.92-3.01-1.11-4.75-.87Z"/>
      <path class="st0" d="M1344.84,454.99v1.74c1.03-.58,1.03-1.16,0-1.74Z"/>
      <path class="st0" d="M1349.61,456.73v1.74c1.03-.58,1.03-1.16,0-1.74Z"/>
      <polygon class="st0" points="1219.95 458.48 1213.6 458.48 1213.61 461.93 1217.58 463.64 1219.94 461.05 1219.95 458.48"/>
      <rect class="st0" x="1253.38" y="458.48" width="3.16" height="3.46"/>
      <rect class="st0" x="1328.14" y="458.48" width="3.16" height="3.46"/>
      <rect class="st0" x="1232.7" y="460.21" width="1.56" height="3.46"/>
      <path class="st0" d="M1242.22,460.21c-1.65-1.78-6.38,3.45-4.76,5.2s6.38-3.45,4.76-5.2Z"/>
      <rect class="st0" x="1334.51" y="460.22" width="9.53" height="1.7"/>
      <path class="st0" d="M1321.76,461.95h-4.76c.03,6.37,4.73,6.37,4.76,0Z"/>
      <path class="st0" d="M1076.8,470.63l-1.59-3.47c-.42,5.03-2.63,8.61-.84,13.92,1.73,5.11,2.79-1.86,3.29-1.87l8.66,1.83-4.75-13.07-4.77,2.66Z"/>
      <rect class="st0" x="1329.73" y="467.17" width="3.17" height="1.7"/>
      <polygon class="st0" points="1339.27 470.61 1336.86 467.17 1334.51 467.16 1334.51 470.62 1339.27 470.61"/>
      <rect class="st0" x="1240.66" y="468.9" width="1.56" height="3.46"/>
      <path class="st0" d="M1346.43,468.89v1.74c1.03-.58,1.03-1.16,0-1.74Z"/>
      <polygon class="st0" points="1353.58 472.36 1353.57 468.89 1350.42 471.51 1353.58 472.36"/>
      <path class="st0" d="M1223.14,474.12c-4.49.42-10.99-4.8-11.13,3.45l11.13-3.45Z"/>
      <rect class="st0" x="1197.7" y="474.12" width="4.76" height="1.7"/>
      <rect class="st0" x="1224.74" y="474.12" width="4.76" height="1.7"/>
      <polygon class="st0" points="1243.81 475.85 1240.65 475.85 1240.66 481.06 1243.81 478.42 1243.81 475.85"/>
      <rect class="st0" x="1320.19" y="475.86" width="4.76" height="1.7"/>
      <rect class="st0" x="1334.51" y="475.86" width="4.76" height="1.7"/>
      <rect class="st0" x="1352.01" y="475.86" width="3.17" height="1.7"/>
      <rect class="st0" x="924.07" y="477.6" width="3.17" height="1.7"/>
      <path class="st0" d="M1369.5,482.78c-.85-3.45-3.4-3.91-6.36-3.44.85,3.45,3.4,3.91,6.36,3.44Z"/>
      <path class="st0" d="M1081.55,482.79c-3.09-.88-4.27,3.76-5.83,6.48-.6,1.04-3.57.95-2.1,5.68l4.74-5.2-3.16,17.36,3.96-3.46,3.96,5.19-1.58-26.06Z"/>
      <rect class="st0" x="1323.37" y="482.81" width="6.35" height="1.7"/>
      <polygon class="st0" points="1339.26 482.8 1334.51 483.65 1336.91 486.25 1339.26 486.26 1339.26 482.8"/>
      <path class="st0" d="M920.09,484.53v1.74c1.03-.58,1.03-1.16,0-1.74Z"/>
      <path class="st0" d="M923.27,484.53v1.74c1.03-.58,1.03-1.16,0-1.74Z"/>
      <rect class="st0" x="1240.66" y="484.54" width="1.56" height="3.46"/>
      <polygon class="st0" points="1248.59 488 1248.58 484.53 1245.42 487.15 1248.59 488"/>
      <path class="st0" d="M1087.12,486.27v1.74c1.03-.58,1.03-1.16,0-1.74Z"/>
      <polygon class="st0" points="928.83 491.47 928.82 488.01 925.66 490.62 928.83 491.47"/>
      <rect class="st0" x="932.03" y="489.75" width="1.56" height="3.46"/>
      <polygon class="st0" points="1363.13 493.2 1359.97 489.75 1359.96 493.21 1363.13 493.2"/>
      <path class="st0" d="M1308.25,491.48v1.74c1.03-.58,1.03-1.16,0-1.74Z"/>
      <polygon class="st0" points="1242.22 493.23 1239.06 493.23 1239.06 495.8 1241.44 498.42 1242.22 493.23"/>
      <rect class="st0" x="1245.42" y="494.97" width="3.17" height="5.2"/>
      <polygon class="st0" points="935.19 498.44 932.03 499.29 935.18 501.91 935.19 498.44"/>
      <rect class="st0" x="944.75" y="498.45" width="3.17" height="1.7"/>
      <rect class="st0" x="957.49" y="500.18" width="1.56" height="3.46"/>
      <path class="st0" d="M1241.44,505.38v1.74c1.03-.58,1.03-1.16,0-1.74Z"/>
      <rect class="st0" x="944.76" y="507.13" width="1.56" height="3.46"/>
      <rect class="st0" x="951.12" y="507.14" width="3.17" height="1.7"/>
      <rect class="st0" x="1240.66" y="508.87" width="1.56" height="3.46"/>
      <path class="st0" d="M1367.91,512.34c-20.16-2.07-40.34-2.43-60.46,0,.36,5.54-2.14,12.63,3.98,13.9,6.2,1.29,37.79,1.01,44.44-.11,6.06-1.02,13.72-6.05,12.04-13.78Z"/>
      <path class="st0" d="M1084.71,512.35c-8.19-1.99-1.36,16.03,1.62,12.14l-1.31-5.01,2.9-1.05-3.21-6.08Z"/>
      <rect class="st0" x="946.35" y="517.55" width="1.56" height="3.46"/>
      <rect class="st0" x="1223.15" y="519.29" width="3.16" height="3.46"/>
      <path class="st0" d="M1219.16,522.76v1.74c1.03-.58,1.03-1.16,0-1.74Z"/>
      <polygon class="st0" points="938.38 524.51 935.21 524.51 935.22 527.97 938.38 524.51"/>
      <path class="st0" d="M1000.42,524.5c-2.9-.57-5.26,1.91-4.76,5.2h4.76s0-5.2,0-5.2Z"/>
      <rect class="st0" x="990.9" y="526.24" width="1.56" height="3.46"/>
      <rect class="st0" x="1081.57" y="531.46" width="3.16" height="3.46"/>
      <path class="st0" d="M1002.81,533.18v1.74c1.03-.58,1.03-1.16,0-1.74Z"/>
      <rect class="st0" x="1237.47" y="533.2" width="3.17" height="1.7"/>
      <polygon class="st0" points="959.05 534.93 955.89 535.78 959.05 538.4 959.05 534.93"/>
      <rect class="st0" x="990.89" y="534.93" width="3.16" height="3.46"/>
      <rect class="st0" x="1073.61" y="534.93" width="3.17" height="6.93"/>
      <rect class="st0" x="930.44" y="536.67" width="3.16" height="3.46"/>
      <path class="st0" d="M1233.48,536.66v1.74c1.03-.58,1.03-1.16,0-1.74Z"/>
      <rect class="st0" x="941.58" y="540.14" width="1.56" height="3.46"/>
      <rect class="st0" x="957.48" y="543.62" width="3.16" height="3.46"/>
      <rect class="st0" x="1073.62" y="545.36" width="1.56" height="3.46"/>
      <rect class="st0" x="1227.92" y="552.32" width="3.17" height="1.7"/>
      <rect class="st0" x="1237.47" y="555.79" width="3.17" height="1.7"/>
      <polygon class="st0" points="1231.09 557.53 1227.92 557.52 1227.93 560.98 1231.09 557.53"/>
      <rect class="st0" x="1204.06" y="566.22" width="3.17" height="1.7"/>
      <rect class="st0" x="1070.43" y="573.17" width="3.17" height="1.7"/>
      <path class="st0" d="M970.99,578.36v1.74c1.03-.58,1.03-1.16,0-1.74Z"/>
      <path class="st0" d="M1226.33,578.37c-.91,1,1.32,5.17,2.38,5.17,4.4,0,.03-7.79-2.38-5.17Z"/>
      <polygon class="st0" points="1078.37 585.29 1075.21 581.84 1075.2 585.3 1078.37 585.29"/>
      <rect class="st0" x="963.84" y="583.59" width="3.17" height="1.7"/>
      <polygon class="st0" points="1084.74 588.77 1081.57 585.31 1081.57 588.78 1084.74 588.77"/>
      <path class="st0" d="M1331.32,587.07c2.02,5.84,6.61,3.47,6.35-1.76l-6.35,1.76Z"/>
      <rect class="st0" x="1009.98" y="587.06" width="3.16" height="3.46"/>
      <rect class="st0" x="1089.52" y="587.07" width="3.17" height="1.7"/>
      <polygon class="st0" points="1342.45 587.06 1339.28 587.91 1342.44 590.52 1342.45 587.06"/>
      <polygon class="st0" points="1087.91 602.68 1085.54 594.01 1081.56 600.93 1087.91 602.68"/>
      <polygon class="st0" points="1326.54 594.01 1320.19 594.01 1320.19 597.45 1326.54 599.2 1326.54 594.01"/>
      <rect class="st0" x="1006.8" y="595.75" width="3.17" height="1.7"/>
      <path class="st0" d="M1334.5,625.28h-27.04c-1.01,3.81-3.65,24.36.8,24.29l6.62-11.85c13.94-5.21,49.49,10.31,53.04-12.44h-28.63v-17.37c4.13-1.76,4.75,8.74,9.52,5.2,1.85-1.38,3.85-16.81-3.83-17.21-2.34-.12-12.78,1.84-13.55,4.37-.89,2.93,6.12,18.72,3.09,25.01Z"/>
      <rect class="st0" x="1089.52" y="597.48" width="3.16" height="3.46"/>
      <rect class="st0" x="1324.97" y="600.96" width="1.56" height="3.46"/>
      <rect class="st0" x="1000.43" y="602.71" width="3.17" height="1.7"/>
      <path class="st0" d="M1288.36,604.44l-4.76,10.4c6.07.53,3.2-6.59,4.76-10.4Z"/>
      <path class="st0" d="M1217.08,611c-1.34-.8-1.22-6.83-6.66-4.83l2.57,8.78,14.92-.12c-1.49-5.61-8.04-2.16-10.83-3.83Z"/>
      <rect class="st0" x="1016.35" y="609.65" width="1.56" height="3.46"/>
      <path class="st0" d="M1201.68,609.65c-4.16,1.22-2.26,8.51,3.15,6.92,4.16-1.22,2.26-8.51-3.15-6.92Z"/>
      <path class="st0" d="M1072.81,611.38v1.74c1.03-.58,1.03-1.16,0-1.74Z"/>
      <rect class="st0" x="1305.88" y="618.33" width="1.56" height="3.46"/>
      <polygon class="st0" points="938.37 620.07 935.21 620.92 938.37 623.54 938.37 620.07"/>
      <rect class="st0" x="1072.02" y="620.08" width="3.17" height="1.7"/>
      <path class="st0" d="M1205.63,620.07c-2.97-.45-5.5,0-6.35,3.45h6.35s0-3.45,0-3.45Z"/>
      <path class="st0" d="M1216.78,630.47c-2.48-4.22,1.85-10.79-4.77-10.4v10.43s4.77-.02,4.77-.02Z"/>
      <path class="st0" d="M951.9,621.8v1.74c1.03-.58,1.03-1.16,0-1.74Z"/>
      <path class="st0" d="M961.45,621.8v1.74c1.03-.58,1.03-1.16,0-1.74Z"/>
      <path class="st0" d="M1227.91,621.81c-5.06-1.33-3.28,7.5-4.76,10.4l4.76.02v-10.43Z"/>
      <path class="st0" d="M1316.2,621.8v1.74c1.03-.58,1.03-1.16,0-1.74Z"/>
      <rect class="st0" x="1283.6" y="623.56" width="3.17" height="1.7"/>
      <path class="st0" d="M1077.4,629.87c-1.28-1.63-1.8-4.26-3.79-4.59-1.35,5.68,2.94,6.21,6.33,8.69,1.22-4.43-1.64-2.95-2.55-4.1Z"/>
      <polygon class="st0" points="1207.23 628.77 1200.88 629.61 1204.82 632.22 1207.23 628.77"/>
      <rect class="st0" x="1283.61" y="628.76" width="1.56" height="3.46"/>
      <path class="st0" d="M1075.19,633.97c-2.29-3.27-2.49-1.03-2.72,2.18-.29,4,.09,9.51,1.16,13.44l1.56-15.62Z"/>
      <path class="st0" d="M961.45,635.7v1.74c1.03-.58,1.03-1.16,0-1.74Z"/>
      <rect class="st0" x="1014.75" y="635.72" width="3.17" height="1.7"/>
      <path class="st0" d="M957.46,640.92c-9.83-1.84-1.98,7.53,0,5.2v-5.2Z"/>
      <rect class="st0" x="1065.66" y="640.92" width="1.56" height="3.46"/>
      <rect class="st0" x="946.35" y="642.66" width="1.56" height="3.46"/>
      <polygon class="st0" points="1016.32 649.59 1016.32 644.4 1014.76 644.4 1013.15 649.58 1016.32 649.59"/>
      <rect class="st0" x="1181.79" y="649.61" width="3.16" height="3.46"/>
      <path class="st0" d="M1078.34,670.44c3.81-6.93,8.96-15.82-1.56-19.08l1.57,12.14-1.57-7.81-3.21.02,1.6,13.87,3.16.86Z"/>
      <path class="st0" d="M948.72,653.08v1.74c1.03-.58,1.03-1.16,0-1.74Z"/>
      <polygon class="st0" points="968.6 653.09 965.43 653.09 965.44 658.29 968.59 655.66 968.6 653.09"/>
      <polygon class="st0" points="976.56 656.53 973.4 653.08 973.39 656.54 976.56 656.53"/>
      <path class="st0" d="M998.83,658.29h-4.76s0,10.42,0,10.42c5.7.43,4.99-6.3,4.76-10.42Z"/>
      <rect class="st0" x="1309.05" y="661.77" width="58.86" height="5.21"/>
      <path class="st0" d="M958.27,663.5v1.74c1.03-.58,1.03-1.16,0-1.74Z"/>
      <rect class="st0" x="962.26" y="668.72" width="1.56" height="3.46"/>
      <rect class="st0" x="944.76" y="670.46" width="1.56" height="3.46"/>
      <rect class="st0" x="954.3" y="672.2" width="3.17" height="8.67"/>
      <path class="st0" d="M989.29,694.78l-2.92.25-1.84,8.43c3.67-1.13,3.74-5.6,4.76-8.69l6.35,5.2v-24.31c-4.09-.36-2.67-.31-3.12,2.61-.82,5.35-1.55,11.38-3.23,16.5Z"/>
      <path class="st0" d="M974.99,686.09c3.16-.93,3.58-3.71,3.15-6.95-3.16.93-3.58,3.71-3.15,6.95Z"/>
      <path class="st0" d="M971.77,691.29c.76-1.06,2.14-9.14,1.59-10.4h-1.56c.05,1.42-2.29,13.54-.04,10.4Z"/>
      <path class="st0" d="M1075.19,712.15c-.61-6.67.58-13.46.63-20.03.02-1.95.98-11.34-1.42-11.2-4.67.26-1.26,19.45-1.01,23.54.24,3.96-3.92,8.86,1.8,7.7Z"/>
      <path class="st0" d="M947.13,684.35v1.74c1.03-.58,1.03-1.16,0-1.74Z"/>
      <path class="st0" d="M957.48,698.29l4.73-2.63c-2.67-1.59-3.41-8.8-5.57-9.53-8.25-2.78-7.38,19.25-2.36,13.86l4.77-6.92c.68,2.87-2.42.93-2.88,2.53-.84,2.88,2.11,8.45,2.08,11.5-.09,7.77-4.01,14.69-3.95,22.43,3.63.67,3.12-.34,3.95-3.41.95-3.53,3.34-15.33,3.51-18.63.29-5.58-6.51-6.43-4.27-9.2Z"/>
      <path class="st0" d="M975.77,687.83v1.74c1.03-.58,1.03-1.16,0-1.74Z"/>
      <path class="st0" d="M1013.95,689.57v1.74c1.03-.58,1.03-1.16,0-1.74Z"/>
      <path class="st0" d="M1331.31,696.51c-7.78-4.87-13.29-8.71-22.87-7.05-2.46,4.7-4.91,13.02,1.45,14.08,2.28.38,35.86-6.53,40.61-7.8,2.3-.61,5.64-1.49,6.27-4.42l-24.43-1.51-2.11,2.33,1.08,4.37Z"/>
      <path class="st0" d="M947.13,691.3v1.74c1.03-.58,1.03-1.16,0-1.74Z"/>
      <rect class="st0" x="968.62" y="693.05" width="1.56" height="3.46"/>
      <polygon class="st0" points="973.36 703.46 974.96 696.53 970.23 700.03 970.21 703.46 973.36 703.46"/>
      <path class="st0" d="M944.74,706.93l-.81-6.97-3.95-1.7c-.41,4.29-.12,9.16,4.76,8.66Z"/>
      <path class="st0" d="M965.44,705.2c.61.84,4.21-3.03,3.15-5.21-.61-.84-4.21,3.03-3.15,5.21Z"/>
      <rect class="st0" x="951.12" y="701.74" width="1.56" height="3.46"/>
      <path class="st0" d="M1348.81,701.74l-11.12,1.71c3.14.47,12.29,5.29,11.12-1.71Z"/>
      <path class="st0" d="M952.71,712.15c3.6-1.04,3.39-5.43,3.15-8.68h-1.56s-1.59,8.68-1.59,8.68Z"/>
      <path class="st0" d="M1367.91,706.92c-3.44-7.06-10.91.32-15.9-3.45l-.02,5.2,15.91-1.75Z"/>
      <rect class="st0" x="1079.98" y="705.21" width="1.56" height="3.46"/>
      <rect class="st0" x="1320.19" y="705.22" width="3.17" height="1.7"/>
      <path class="st0" d="M939.18,706.94v1.74c1.03-.58,1.03-1.16,0-1.74Z"/>
      <path class="st0" d="M943.95,710.42v1.74c1.03-.58,1.03-1.16,0-1.74Z"/>
      <rect class="st0" x="968.62" y="710.43" width="3.16" height="3.46"/>
      <path class="st0" d="M966.22,712.16v1.74c1.03-.58,1.03-1.16,0-1.74Z"/>
      <rect class="st0" x="1078.38" y="712.16" width="3.17" height="6.93"/>
      <rect class="st0" x="989.3" y="713.91" width="3.17" height="1.7"/>
      <polygon class="st0" points="946.34 720.83 943.93 717.38 941.57 717.38 941.57 720.83 946.34 720.83"/>
      <path class="st0" d="M946.34,726.06c-.12-1.17.67-3.53-.79-3.46l-5.5,4.53c-1.25,4.5,4.34,6.82,4.35,8.48,0,1.51-3.89,2.97-2.82,6.09,5.17-2.41,3.93-7.45,3.15-12.18l-3.15-.83c1.09-2.43,3.42-1.94,4.76-2.63.11,1.13-.09,2.33,0,3.46,6.1-.05,6.99-6.7,6.35-12.15h-4.76s3.15,6.08,3.15,6.08c-1.14,2.54-3.41,1.91-4.75,2.61Z"/>
      <path class="st0" d="M969.4,717.37v1.74c1.03-.58,1.03-1.16,0-1.74Z"/>
      <path class="st0" d="M1367.9,717.39c-3.68,1.01-12.22-2.29-14.3,1.7,3.67-1.02,12.09,2.31,14.3-1.7Z"/>
      <rect class="st0" x="1073.62" y="720.85" width="1.56" height="5.2"/>
      <polygon class="st0" points="1079.95 729.53 1079.95 722.59 1078.39 722.59 1076.83 726.94 1079.95 729.53"/>
      <polygon class="st0" points="938.38 727.78 935.22 724.32 935.21 727.78 938.38 727.78"/>
      <rect class="st0" x="973.4" y="724.33" width="1.56" height="3.46"/>
      <path class="st0" d="M1365.52,729.53h-57.27c-4.58,2.3-2.15,25.29.02,26.07,4.31,1.56,1.8-10.17,6.57-11.94,11.91-2.8,39.69,3.48,49.52-1.52,5.08-2.59,4.68-11.43,1.17-12.62Z"/>
      <path class="st0" d="M936.79,731.28c-3.8-4.07-3.48,7.96-.78,8.67l.78-8.67Z"/>
      <rect class="st0" x="967.03" y="731.28" width="3.16" height="3.46"/>
      <rect class="st0" x="938.4" y="738.23" width="1.56" height="3.46"/>
      <rect class="st0" x="1076.79" y="738.23" width="3.17" height="8.67"/>
      <rect class="st0" x="994.08" y="739.97" width="1.56" height="3.46"/>
      <rect class="st0" x="1186.57" y="743.44" width="1.56" height="3.46"/>
      <polygon class="st0" points="952.69 745.16 944.97 747.14 944.76 753.85 954.26 753.01 952.69 745.16"/>
      <path class="st0" d="M1179.39,745.17v1.74c1.03-.58,1.03-1.16,0-1.74Z"/>
      <polygon class="st0" points="1215.18 750.37 1214.4 745.18 1212.02 747.8 1212.01 750.37 1215.18 750.37"/>
      <polygon class="st0" points="963.83 748.65 957.48 750.41 957.49 753.86 963.84 752.1 963.83 748.65"/>
      <path class="st0" d="M969.4,748.64v1.74c1.03-.58,1.03-1.16,0-1.74Z"/>
      <path class="st0" d="M983.72,748.64v1.74c1.03-.58,1.03-1.16,0-1.74Z"/>
      <rect class="st0" x="994.07" y="748.66" width="3.17" height="1.7"/>
      <path class="st0" d="M1207.23,748.66c-3.59,2.48-13.89-3.67-12.73,3.45,5.54.13,10.03,3.95,12.73-3.45Z"/>
      <rect class="st0" x="974.99" y="750.39" width="1.56" height="3.46"/>
      <polygon class="st0" points="997.23 755.6 994.88 755.61 992.47 759.05 997.23 759.06 997.23 755.6"/>
      <polygon class="st0" points="947.92 760.8 947.14 757.34 943.19 761.69 947.92 760.8"/>
      <path class="st0" d="M959.86,757.33v1.74c1.03-.58,1.03-1.16,0-1.74Z"/>
      <polygon class="st0" points="954.14 760.97 949.53 759.07 949.53 767.76 954.14 765.86 954.14 760.97"/>
      <path class="st0" d="M1179.39,760.81v1.74c1.03-.58,1.03-1.16,0-1.74Z"/>
      <rect class="st0" x="939.99" y="762.55" width="1.56" height="3.46"/>
      <path class="st0" d="M983.72,764.28v1.74c1.03-.58,1.03-1.16,0-1.74Z"/>
      <path class="st0" d="M1367.91,766.03l-59.44-1.51-1.91,1.39.91,20.95c4.34.56,4.21-4.58,7.45-6.61,13.81-8.66,52.38,9.65,52.99-14.22Z"/>
      <path class="st0" d="M1209.62,767.76v1.74c1.03-.58,1.03-1.16,0-1.74Z"/>
      <rect class="st0" x="978.17" y="769.5" width="1.56" height="3.46"/>
      <rect class="st0" x="971.81" y="772.98" width="1.56" height="3.46"/>
      <path class="st0" d="M1200.86,778.17c.91-1-1.32-5.17-2.38-5.17-4.4,0-.03,7.79,2.38,5.17Z"/>
      <polygon class="st0" points="1212 778.17 1211.22 772.98 1207.23 778.17 1212 778.17"/>
      <path class="st0" d="M953.49,774.71v1.74c1.03-.58,1.03-1.16,0-1.74Z"/>
      <path class="st0" d="M979.73,779.92l-7.94.02c1.71,3.02-.48,4.34-1.59,6.92l9.55-1.73-.02-5.21Z"/>
      <polygon class="st0" points="1210.41 779.94 1205.65 779.93 1205.66 785.13 1210.41 779.94"/>
      <polygon class="st0" points="998.83 785.12 998.82 781.66 995.66 784.27 998.83 785.12"/>
      <rect class="st0" x="1003.62" y="781.67" width="1.56" height="3.46"/>
      <polygon class="st0" points="968.61 786.85 965.44 783.4 965.43 786.86 968.61 786.85"/>
      <polygon class="st0" points="982.94 783.4 982.11 788.57 984.5 785.98 984.5 783.4 982.94 783.4"/>
      <polygon class="st0" points="1005.2 790.33 1002.03 786.87 1002.02 790.34 1005.2 790.33"/>
      <polygon class="st0" points="976.58 788.62 975.75 793.79 978.14 791.19 978.14 788.62 976.58 788.62"/>
      <rect class="st0" x="989.3" y="788.62" width="3.16" height="3.46"/>
      <polygon class="st0" points="986.1 790.36 982.93 791.21 986.09 793.82 986.1 790.36"/>
      <path class="st0" d="M999.63,792.08v1.74c1.03-.58,1.03-1.16,0-1.74Z"/>
      <polygon class="st0" points="1130.86 792.09 1127.7 792.94 1130.86 795.56 1130.86 792.09"/>
      <path class="st0" d="M990.08,793.82v1.74c1.03-.58,1.03-1.16,0-1.74Z"/>
      <path class="st0" d="M1087.91,795.57c-5.9-1.44-2.27,8.48-3.16,12.15l3.16-12.15Z"/>
      <polygon class="st0" points="1145.18 795.57 1142.02 796.42 1145.17 799.03 1145.18 795.57"/>
      <rect class="st0" x="1278.83" y="795.58" width="3.17" height="1.7"/>
      <path class="st0" d="M984.51,797.31c-5.11-4.91-7.19,9.33-1.58,4.34,1.21-1.07,2.38-3.57,1.58-4.34Z"/>
      <rect class="st0" x="997.26" y="797.31" width="1.56" height="3.46"/>
      <path class="st0" d="M1000.44,811.2c8.49,8.94,12.33-5.24,7.99-13.17-10.62-1.04-8.39,4.87-10.05,10.99-.13.48-2.28.49-2.41,1.29-.37,2.34-.48,17.87,4.45,14.76l.02-13.88Z"/>
      <rect class="st0" x="1165.88" y="797.31" width="3.16" height="3.46"/>
      <path class="st0" d="M1329.73,804.23c-8.13-.87-14.2-9.67-23.18-3.58l1.9,12.41c1.97.33,37.07-8.6,38.8-9.66.73-.45,2.02-2.13,1.57-2.61l-19.23-.95.15,4.39Z"/>
      <path class="st0" d="M988.49,802.51v1.74c1.03-.58,1.03-1.16,0-1.74Z"/>
      <polygon class="st0" points="984.51 804.26 982.15 804.26 979.74 807.7 984.51 807.71 984.51 804.26"/>
      <path class="st0" d="M991.67,809.46v1.74c1.03-.58,1.03-1.16,0-1.74Z"/>
      <path class="st0" d="M1367.9,809.47c-3.58,1.1-14.94.72-14.3,6.93l14.32-1.73-.02-5.2Z"/>
      <path class="st0" d="M978.15,821.6l-3.98-6.92-.8,5.2-4.74-3.47c1.5,5.01,1.58,6.37-1.6,10.4l11.13-5.21Z"/>
      <path class="st0" d="M982.13,814.67v1.74c1.03-.58,1.03-1.16,0-1.74Z"/>
      <path class="st0" d="M1281.99,814.68c-6.2-1.4-6.55,2.76-2.37,6.93l2.37-6.93Z"/>
      <polygon class="st0" points="1334.5 816.43 1329.73 816.42 1329.74 819.88 1332.09 819.87 1334.5 816.43"/>
      <path class="st0" d="M1348.81,816.42c-2.97-.45-5.5,0-6.35,3.45h6.35s0-3.45,0-3.45Z"/>
      <path class="st0" d="M1006.79,818.17h-3.16s-1.6,6.92-1.6,6.92c.68,1.72,3.98-5.55,4.76-6.92Z"/>
      <path class="st0" d="M1367.9,818.17c-3.96.09-7.97-.2-11.94-.02-1.93.09-5.91-1.31-5.54,1.72,2.2.34,4.32.66,6.55.72,1.96.05,10.37.1,10.93-2.42Z"/>
      <path class="st0" d="M1287.57,819.89v1.74c1.03-.58,1.03-1.16,0-1.74Z"/>
      <path class="st0" d="M1313.81,819.89l-4.64,4.43c-1.87,1.4-5.96-4.11-4.89,2.5h9.54s-.02-6.93-.02-6.93Z"/>
      <path class="st0" d="M978.95,823.36v1.74c1.03-.58,1.03-1.16,0-1.74Z"/>
      <path class="st0" d="M1328.14,826.82c-.97-3.92-4.91-3.7-7.95-3.45v3.46s7.95,0,7.95,0Z"/>
      <path class="st0" d="M1345.63,825.12c-3.37-.1-6.76-3.09-7.94,1.7h7.95s0-1.7,0-1.7Z"/>
      <path class="st0" d="M1366.3,825.12c-2.94-1.12-4.99-1.12-7.93,0v1.7s7.93,0,7.93,0v-1.7Z"/>
      <path class="st0" d="M1009.17,825.1v1.74c1.03-.58,1.03-1.16,0-1.74Z"/>
      <rect class="st0" x="1194.52" y="825.11" width="1.56" height="3.46"/>
      <rect class="st0" x="1285.19" y="825.12" width="3.17" height="1.7"/>
      <polygon class="st0" points="1294.73 825.12 1291.56 825.11 1291.56 828.57 1294.73 825.12"/>
      <polygon class="st0" points="978.16 833.78 984.5 826.84 978.17 828.57 978.16 833.78"/>
      <path class="st0" d="M965.42,828.59l-6.35-.02c-1.35,10.33,1.86,14.36,9.52,19.12l-4.74-5.24,6.34-1.71c1.53-6.2-5.17-2.34-6.36-3.48l1.6-8.66Z"/>
      <path class="st0" d="M996.45,828.57v1.74c1.03-.58,1.03-1.16,0-1.74Z"/>
      <path class="st0" d="M1010.76,828.57v1.74c1.03-.58,1.03-1.16,0-1.74Z"/>
      <path class="st0" d="M976.55,835.52c-.25-6.83-7.83-7.78-9.5-.84l9.5.84Z"/>
      <path class="st0" d="M990.87,830.32c-5.49-1.52-1.39,7.74-3.16,10.42l3.16-10.42Z"/>
      <path class="st0" d="M999.63,832.05v1.74c1.03-.58,1.03-1.16,0-1.74Z"/>
      <path class="st0" d="M1190.53,833.79v1.74c1.03-.58,1.03-1.16,0-1.74Z"/>
      <polygon class="st0" points="974.97 840.72 971.81 837.26 971.8 840.73 974.97 840.72"/>
      <polygon class="st0" points="982.94 844.21 986.1 839.89 983.7 837.28 981.34 837.27 982.94 844.21"/>
      <path class="st0" d="M995.63,845.94c.36-.39,1.76-5.57,1.6-6.94-3.06.85-3.58,3.84-3.15,6.94.51-.09,1.33.24,1.55,0Z"/>
      <polygon class="st0" points="974.97 842.49 970.2 842.49 971.81 847.67 973.36 847.67 974.97 842.49"/>
      <path class="st0" d="M964.46,848.71c-.75-.85-1.16-5.5-3.03-1.03-.38.91.4,3.57-.77,5.2h6.34c1.12-4.29-1.46-2.96-2.54-4.17Z"/>
      <path class="st0" d="M1002,845.95c-5.84-1.77-.74,6.21-3.25,8.64-3.47-1.61-9.94-.22-9.45,5.25l2.35-3.47c4.18,1.13,3.73,5.02,4.02,5.2.37.24,5.1-3.96,7.93-2.55l-1.61-13.08Z"/>
      <rect class="st0" x="982.94" y="847.69" width="1.56" height="5.2"/>
      <path class="st0" d="M1098.26,847.69v1.74c1.03-.58,1.03-1.16,0-1.74Z"/>
      <polygon class="st0" points="976.55 851.17 973.4 851.16 971.79 856.36 976.55 856.37 976.55 851.17"/>
      <rect class="st0" x="982.94" y="854.65" width="1.56" height="3.46"/>
      <rect class="st0" x="989.3" y="861.6" width="1.56" height="3.46"/>
      <path class="st0" d="M1279.62,861.59v1.74c1.03-.58,1.03-1.16,0-1.74Z"/>
      <path class="st0" d="M978.17,892.86c-.73-5.63,3.94-7.44,5.26-12.47,1.02-3.87-.41-11.12-.52-15.32l-1.59,6.93-3.15-3.46c.39,3.07-4.78,13.44,1.56,8.66v8.69s-4.76-3.45-4.76-3.45l-.02,12.14-3.15-5.19c-2.41,7.12,2.48,8.16,3.43,11.05,1.87,5.66-.19,12.24,3.72,16.74,1.76-2.78-.94-6.81,3.56-7.32l-1.18-3.08,6.35,5.19-4.77-9.58c5.2-1.45,3.11-11.53-.77-14.73l-3.97,5.2Z"/>
      <polygon class="st0" points="1002.01 865.07 998.84 865.92 1002 868.54 1002.01 865.07"/>
      <polygon class="st0" points="967.03 878.95 969.4 868.57 970.2 875.47 967.03 878.95"/>
      <polygon class="st0" points="992.47 870.29 989.3 870.28 989.3 873.75 992.47 870.29"/>
      <rect class="st0" x="1140.43" y="870.29" width="3.17" height="1.7"/>
      <rect class="st0" x="973.4" y="877.23" width="1.56" height="3.46"/>
      <path class="st0" d="M990.87,877.23c-3.66-4.94-3.09,11.75-3.16,12.15,5.9,1.44,2.27-8.47,3.16-12.15Z"/>
      <rect class="st0" x="1146.8" y="878.97" width="1.56" height="3.46"/>
      <polygon class="st0" points="971.79 884.18 967.03 882.44 967.03 892.85 971.79 884.18"/>
      <rect class="st0" x="1138.83" y="882.46" width="3.17" height="1.7"/>
      <path class="st0" d="M1281.21,896.34v1.74c1.03-.58,1.03-1.16,0-1.74Z"/>
      <path class="st0" d="M967.81,898.08v1.74c1.03-.58,1.03-1.16,0-1.74Z"/>
      <path class="st0" d="M990.08,901.55v1.74c1.03-.58,1.03-1.16,0-1.74Z"/>
      <path class="st0" d="M1007.58,901.55v1.74c1.03-.58,1.03-1.16,0-1.74Z"/>
      <rect class="st0" x="1108.61" y="901.56" width="3.16" height="3.46"/>
      <polygon class="st0" points="1283.59 903.31 1280.42 903.3 1280.43 906.76 1283.59 903.31"/>
      <polygon class="st0" points="1286.76 910.24 1287.59 905.06 1283.59 906.78 1286.76 910.24"/>
      <path class="st0" d="M998.82,906.75c-1.68-2.28-2.83.15-3.55,2.19-1.03,2.91-1.3,11.45-2.79,15.2,8.83-1.28,4.23.52,6.92-4.58.39-.75,2.72-.61,2.69-1.55-.06-2.62-4.82-6.78-3.27-11.25Z"/>
      <path class="st0" d="M1289.16,910.24v1.74c1.03-.58,1.03-1.16,0-1.74Z"/>
      <path class="st0" d="M1161.89,911.98v1.74c1.03-.58,1.03-1.16,0-1.74Z"/>
      <polygon class="st0" points="984.51 913.72 981.34 913.73 981.34 920.65 984.51 920.66 984.51 913.72"/>
      <rect class="st0" x="973.39" y="917.21" width="3.17" height="1.7"/>
      <polygon class="st0" points="990.87 917.2 987.71 917.2 987.71 919.77 990.09 922.39 990.87 917.2"/>
      <rect class="st0" x="971.8" y="922.42" width="3.17" height="1.7"/>
      <path class="st0" d="M955.88,929.34c3.01.57,5.29-2.03,4.76-5.2l-4.76,5.2Z"/>
      <path class="st0" d="M982.15,925.91l-2.37,2.59.75.82c.88-1.11,3.2-2.26,1.62-3.41Z"/>
      <polygon class="st0" points="998.83 929.34 995.67 925.88 995.66 929.34 998.83 929.34"/>
      <path class="st0" d="M1184.17,925.88v1.74c1.03-.58,1.03-1.16,0-1.74Z"/>
      <rect class="st0" x="986.12" y="929.36" width="1.56" height="3.46"/>
      <rect class="st0" x="1016.35" y="929.36" width="1.56" height="3.46"/>
      <polygon class="st0" points="995.65 934.55 992.49 931.09 992.48 934.56 995.65 934.55"/>
      <rect class="st0" x="1277.24" y="932.85" width="3.17" height="1.7"/>
      <rect class="st0" x="1111.79" y="934.58" width="3.17" height="1.7"/>
      <path class="st0" d="M1293.93,934.57v1.74c1.03-.58,1.03-1.16,0-1.74Z"/>
      <polygon class="st0" points="976.57 936.3 971.8 936.32 971.8 938.02 977.37 941.48 976.57 936.3"/>
      <path class="st0" d="M989.29,939.81l-7.92-.9c2.09,3.28,5.3-.72,4.77,4.32l3.16-3.42Z"/>
      <path class="st0" d="M990.08,936.3v1.74c1.03-.58,1.03-1.16,0-1.74Z"/>
      <polygon class="st0" points="1016.32 939.77 1016.32 936.3 1013.16 938.92 1016.32 939.77"/>
      <path class="st0" d="M936.79,943.25c0,.22-1.99,1.15,0,1.74l12.72,3.47c1-6.1-7.84-5.03-11.13-5.21,1.02-.71,1.84-1.68,3.15-1.77l-.77-3.45c-7.04-.13-4.09,2.46-3.97,5.22Z"/>
      <polygon class="st0" points="1173.81 941.52 1167.47 941.52 1167.47 944.98 1173.82 944.98 1173.81 941.52"/>
      <path class="st0" d="M1184.95,957.15c-1.09-5.59,5.35-15.19-3.16-15.63,2.24,4.92-2.19,13.15,3.16,15.63Z"/>
      <polygon class="st0" points="990.87 946.72 990.86 943.25 987.71 945.87 990.87 946.72"/>
      <path class="st0" d="M993.27,943.25v1.74c1.03-.58,1.03-1.16,0-1.74Z"/>
      <path class="st0" d="M977.36,944.99v1.74c1.03-.58,1.03-1.16,0-1.74Z"/>
      <path class="st0" d="M1172.22,948.49c-2.94-1.12-4.99-1.12-7.93,0v1.7s7.93,0,7.93,0v-1.7Z"/>
      <path class="st0" d="M982.9,950.21c-6.81-1.23-1.79,11.54,1.6,12.16l-1.6-12.16Z"/>
      <path class="st0" d="M940.77,951.94v1.74c1.03-.58,1.03-1.16,0-1.74Z"/>
      <rect class="st0" x="954.3" y="951.96" width="3.17" height="1.7"/>
      <rect class="st0" x="974.99" y="951.95" width="1.56" height="3.46"/>
      <path class="st0" d="M994.86,953.68v1.74c1.03-.58,1.03-1.16,0-1.74Z"/>
      <rect class="st0" x="1169.06" y="955.43" width="3.16" height="3.46"/>
      <rect class="st0" x="955.9" y="957.16" width="1.56" height="3.46"/>
      <path class="st0" d="M1122.12,958.89v1.74c1.03-.58,1.03-1.16,0-1.74Z"/>
      <rect class="st0" x="968.62" y="960.65" width="3.17" height="1.7"/>
      <path class="st0" d="M1177,962.39c-3.37-.1-6.76-3.09-7.94,1.7h7.95s0-1.7,0-1.7Z"/>
      <polygon class="st0" points="959.06 965.82 955.9 962.37 955.89 965.83 959.06 965.82"/>
      <rect class="st0" x="1175.42" y="971.07" width="3.17" height="1.7"/>
      <path class="st0" d="M986.9,974.53v1.74c1.03-.58,1.03-1.16,0-1.74Z"/>
      <rect class="st0" x="986.11" y="978.02" width="3.17" height="1.7"/>
      <path class="st0" d="M1114.96,981.46c-.85-3.45-3.39-3.9-6.35-3.45v3.46s6.35,0,6.35,0Z"/>
      <rect class="st0" x="1118.15" y="978.02" width="3.17" height="1.7"/>
      <path class="st0" d="M958.27,984.96v1.74c1.03-.58,1.03-1.16,0-1.74Z"/>
      <polygon class="st0" points="1000.42 991.93 994.06 990.19 998.06 995.37 1000.42 995.37 1000.42 991.93"/>
      <path class="st0" d="M1130.08,990.17v1.74c1.03-.58,1.03-1.16,0-1.74Z"/>
      <path class="st0" d="M1362.34,998.86v1.74c1.03-.58,1.03-1.16,0-1.74Z"/>
      <rect class="st0" x="979.76" y="1004.08" width="1.56" height="3.46"/>
      <path class="st0" d="M983.72,1004.07v1.74c1.03-.58,1.03-1.16,0-1.74Z"/>
      <path class="st0" d="M1168.26,1004.07v1.74c1.03-.58,1.03-1.16,0-1.74Z"/>
      <path class="st0" d="M982.13,1009.28v1.74c1.03-.58,1.03-1.16,0-1.74Z"/>
      <path class="st0" d="M990.08,1016.23v1.74c1.03-.58,1.03-1.16,0-1.74Z"/>
      <path class="st0" d="M920.88,1047.51c-.16.17-1.77,3.31-1.59,3.48-.23-.55-2.33-1.15-1.59-3.47.97.14,2.49-.33,3.18,0Z"/>
      <path class="st0" d="M920.88,1047.51c1.53-1.62,4.04-1.79,5.59-3.44l.77,10.38-7.74-.27c-.78-.67.03-2.62-.21-3.19h3.17c.37-2.59.21-2.65-1.58-3.48Z"/>
      <path class="st0" d="M871.56,270.8c-5.8,1.64-5.74-12.08-2.38-12.12l2.38,12.12Z"/>
      <path class="st0" d="M865.18,628.74c-2.76-.38-1.85-9.33-1.63-11.35.28-2.6.32-5.36,3.22-6.02l-1.6,17.36Z"/>
      <path class="st0" d="M932.01,922.39c-6.92.06-4.49-9.01-4.75-13.89,4.28,2.14,3.39,9.68,4.75,13.89Z"/>
      <path class="st0" d="M876.33,388.96c-7.55-.34-4.62-8.52-.78-12.15l.78,12.15Z"/>
      <rect class="st0" x="909.74" y="957.16" width="4.78" height="8.67"/>
      <path class="st0" d="M919.3,1094.4l7.93-5.19c.62,7.5-2.6,7.53-7.93,5.19Z"/>
      <path class="st0" d="M909.74,552.3l1.6,12.14c-3.87,3.59-8-14.33-1.6-12.14Z"/>
      <path class="st0" d="M890.65,646.12h-2.35c-6.83-2.91,2.7-16.74,2.35,0Z"/>
      <polygon class="st0" points="963.83 1063.16 960.76 1065.62 962.23 1071.83 954.3 1069.22 963.83 1063.16"/>
      <path class="st0" d="M936.79,790.36l1.6,6.05-3.99,2.59c-4.42-1.75-.67-11.43,2.39-8.63Z"/>
      <polygon class="st0" points="925.65 957.15 919.3 954.54 924.08 948.48 925.65 957.15"/>
      <path class="st0" d="M903.93,1067.74c.7,1.11,4.82,2.84,3.45,5.77l-5.58.07v-10.42c2.77-.54,1.01,2.81,2.13,4.59Z"/>
      <path class="st0" d="M862.01,701.72h-3.16c-.12-3.7-.67-7.95,2.39-10.41l.78,10.41Z"/>
      <polygon class="st0" points="949.51 802.5 954.13 802.61 954.27 811.2 948.61 801.64 951.1 797.31 949.51 802.5"/>
      <path class="st0" d="M900.19,406.35c0,6.83-6.31,6.92-6.35,0h6.35Z"/>
      <path class="st0" d="M863.61,673.94c-.89,2.95-.11,10.9-3.16,12.14.95-3.23-2.85-13.48,3.16-12.14Z"/>
      <path class="st0" d="M862.02,1097.91l1.58,8.65h-6.35c1.05-2.85.06-10.02,4.77-8.65Z"/>
      <path class="st0" d="M947.91,903.28l-4.74-3.46c.69,3.26-2.09,7.29-4.77,8.67-1.04-8.36,10.67-8.33,7.95-17.36l1.56,12.15Z"/>
      <polygon class="st0" points="957.45 811.18 955.9 800.77 959.87 800.81 957.45 811.18"/>
      <path class="st0" d="M908.14,614.84h-1.55c-.08-3.71-.94-9.01,3.15-10.41l-1.59,10.41Z"/>
      <path class="st0" d="M922.47,1030.14v2.57s-4.75,4.37-4.75,4.37c-.62-4.17.74-7.37,4.75-6.94Z"/>
      <rect class="st0" x="866.8" y="243.02" width="3.17" height="6.93"/>
      <path class="st0" d="M900.2,920.65c-5.91,1.47-2.29-8.46-3.16-12.14,3.37,1.27.34,9,3.16,12.14Z"/>
      <path class="st0" d="M1022.68,812.93c-3.6-1.53-.68-10.45-1.56-13.88,3.6,1.53.68,10.45,1.56,13.88Z"/>
      <path class="st0" d="M963.83,1084.01v5.2c-1.98,2.33-9.83-7.04,0-5.2Z"/>
      <polygon class="st0" points="892.23 712.15 888.98 707.81 891.46 703.48 892.23 712.15"/>
      <polygon class="st0" points="941.56 774.72 939.95 783.39 938.4 783.39 938.39 774.72 941.56 774.72"/>
      <polygon class="st0" points="925.65 960.64 925.65 965.83 920.88 965.82 922.49 960.63 925.65 960.64"/>
      <path class="st0" d="M957.46,1087.49v1.7s-7.94,0-7.94,0c1.45-4.9,4.5-2.74,7.94-1.7Z"/>
      <rect class="st0" x="941.58" y="800.78" width="1.56" height="12.15"/>
      <polygon class="st0" points="892.23 288.15 887.49 291.65 887.48 284.72 889.84 284.73 892.23 288.15"/>
      <rect class="st0" x="1078.39" y="421.99" width="1.56" height="12.15"/>
      <rect class="st0" x="862.04" y="651.35" width="1.56" height="12.15"/>
      <path class="st0" d="M917.72,936.31h1.56s.83,10.38.83,10.38c-4.37-3.1-3.22-5.41-2.38-10.38Z"/>
      <rect class="st0" x="947.94" y="807.73" width="1.56" height="10.41"/>
      <path class="st0" d="M919.28,682.61c-2.4,2.63-6.78-5.17-2.38-5.17,1.05,0,3.29,4.17,2.38,5.17Z"/>
      <path class="st0" d="M904.97,1080.51h-6.35s0-1.71,0-1.71c3.05.27,5.38.32,4.79-3.48h1.55s.01,5.19.01,5.19Z"/>
      <polygon class="st0" points="900.2 965.82 893.85 965.82 893.85 964.13 898.59 960.64 900.2 965.82"/>
      <polygon class="st0" points="917.69 854.64 912.96 850.29 915.32 847.69 917.69 854.64"/>
      <rect class="st0" x="1021.12" y="837.27" width="1.56" height="10.41"/>
      <polygon class="st0" points="911.51 977.74 914.51 976.25 914.51 979.73 909.75 979.73 909.76 974.54 911.51 977.74"/>
      <polygon class="st0" points="939.96 1059.66 935.21 1058.81 939.96 1054.46 939.96 1059.66"/>
      <rect class="st0" x="865.22" y="599.22" width="1.56" height="8.67"/>
      <polygon class="st0" points="904.97 404.61 904.96 407.18 901.81 409.82 901.8 404.61 904.97 404.61"/>
      <path class="st0" d="M904.97,425.44c-2.07.71-8-2.6-6.35-3.44,2.84-.47,5.58.1,6.35,3.44Z"/>
      <polygon class="st0" points="963.83 1092.69 963.83 1096.15 959.06 1096.14 961.47 1092.7 963.83 1092.69"/>
      <polygon class="st0" points="1022.69 901.54 1019.52 901.54 1019.53 898.97 1021.91 896.35 1022.69 901.54"/>
      <polygon class="st0" points="908.15 289.93 907.37 295.13 904.99 292.5 904.98 289.93 908.15 289.93"/>
      <path class="st0" d="M963.83,1051l-2.39,3.42c-1.7-1.55-2.89-2.63-2.37-5.18l4.76,1.75Z"/>
      <polygon class="st0" points="909.74 783.39 906.57 783.39 906.58 778.18 909.73 780.82 909.74 783.39"/>
      <path class="st0" d="M944.74,889.41l-5.58,6.9-.75-.82c2.43-2.5,2.15-7.01,6.33-6.08Z"/>
      <polygon class="st0" points="1022.68 882.43 1021.12 882.43 1019.56 878.08 1021.91 875.5 1022.68 882.43"/>
      <rect class="st0" x="957.48" y="1045.79" width="6.35" height="1.7"/>
      <path class="st0" d="M935.2,1070.11c.77.66-2.78,4.6-4.77,3.44-.77-.66,2.78-4.6,4.77-3.44Z"/>
      <path class="st0" d="M941.58,786.87c-.39-3.19-.09-5.09,2.39-6.92.23,2.67.59,6.48-2.39,6.92Z"/>
      <rect class="st0" x="1013.16" y="878.97" width="3.16" height="3.46"/>
      <rect class="st0" x="906.58" y="493.23" width="1.56" height="6.93"/>
      <rect class="st0" x="901.81" y="1017.98" width="1.56" height="6.93"/>
      <path class="st0" d="M927.25,1080.51c-1.99,1.16-5.54-2.78-4.77-3.44,1.99-1.16,5.54,2.78,4.77,3.44Z"/>
      <path class="st0" d="M916.09,1054.46c-.61.84-4.21-3.03-3.15-5.21.61-.84,4.21,3.03,3.15,5.21Z"/>
      <rect class="st0" x="1021.12" y="852.91" width="1.56" height="6.93"/>
      <polygon class="st0" points="874.74 454.98 871.57 454.98 873.18 449.79 874.73 449.79 874.74 454.98"/>
      <rect class="st0" x="911.35" y="915.46" width="1.56" height="6.93"/>
      <polygon class="st0" points="901.78 390.71 901.78 394.18 897.03 392.42 897.03 390.72 901.78 390.71"/>
      <rect class="st0" x="951.12" y="910.25" width="3.16" height="3.46"/>
      <polygon class="st0" points="1011.54 913.71 1008.41 911.11 1010.77 908.51 1011.54 913.71"/>
      <path class="st0" d="M933.61,1056.21c.77.66-2.78,4.6-4.77,3.44-.77-.66,2.78-4.6,4.77-3.44Z"/>
      <polygon class="st0" points="914.52 404.59 911.35 404.59 911.35 401.13 914.52 404.59"/>
      <polygon class="st0" points="890.65 413.3 889.87 416.76 887.48 413.31 890.65 413.3"/>
      <rect class="st0" x="928.85" y="786.88" width="1.56" height="5.2"/>
      <polygon class="st0" points="917.69 772.99 911.34 778.17 913.06 772.08 917.69 772.99"/>
      <rect class="st0" x="957.48" y="1103.13" width="4.76" height="1.7"/>
      <polygon class="st0" points="893.83 767.77 893.82 771.23 890.66 768.62 893.83 767.77"/>
      <rect class="st0" x="850.9" y="826.84" width="1.56" height="5.2"/>
      <polygon class="st0" points="914.52 461.96 911.35 465.42 911.35 461.95 914.52 461.96"/>
      <polygon class="st0" points="900.2 955.43 897.04 958.89 897.03 955.43 900.2 955.43"/>
      <rect class="st0" x="890.67" y="724.33" width="1.56" height="5.2"/>
      <polygon class="st0" points="862.01 1090.94 858.85 1090.09 862.01 1087.47 862.01 1090.94"/>
      <rect class="st0" x="916.13" y="1082.27" width="1.56" height="5.2"/>
      <polygon class="st0" points="909.76 703.47 909.76 700 913.73 698.29 916.08 700.88 909.76 703.47"/>
      <polygon class="st0" points="901.79 481.07 898.63 484.53 898.62 481.07 901.79 481.07"/>
      <rect class="st0" x="906.58" y="696.53" width="1.56" height="5.2"/>
      <polygon class="st0" points="900.2 939.8 897.04 943.25 897.03 939.79 900.2 939.8"/>
      <polygon class="st0" points="952.69 885.9 949.53 885.05 952.68 882.44 952.69 885.9"/>
      <polygon class="st0" points="924.06 1063.16 923.28 1066.61 920.88 1063.16 924.06 1063.16"/>
      <rect class="st0" x="916.13" y="887.66" width="1.56" height="5.2"/>
      <polygon class="st0" points="914.51 1066.61 911.35 1065.76 914.5 1063.15 914.51 1066.61"/>
      <rect class="st0" x="897.04" y="889.4" width="1.56" height="5.2"/>
      <polygon class="st0" points="909.75 515.79 906.57 515.8 906.58 512.33 909.75 515.79"/>
      <rect class="st0" x="911.35" y="899.82" width="1.56" height="5.2"/>
      <rect class="st0" x="897.04" y="901.56" width="1.56" height="5.2"/>
      <rect class="st0" x="911.35" y="906.77" width="1.56" height="5.2"/>
      <polygon class="st0" points="965.42 908.51 964.64 911.97 962.24 908.52 965.42 908.51"/>
      <polygon class="st0" points="892.25 282.95 889.07 282.96 889.08 279.5 892.25 282.95"/>
      <rect class="st0" x="1014.76" y="908.51" width="1.56" height="5.2"/>
      <polygon class="st0" points="868.38 578.38 865.22 581.84 865.21 578.37 868.38 578.38"/>
      <polygon class="st0" points="912.93 289.94 909.76 293.4 909.76 289.93 912.93 289.94"/>
      <rect class="st0" x="911.35" y="924.15" width="1.56" height="3.46"/>
      <rect class="st0" x="897.04" y="924.15" width="1.56" height="3.46"/>
      <rect class="st0" x="893.85" y="1050.99" width="1.56" height="3.46"/>
      <rect class="st0" x="917.72" y="927.62" width="1.56" height="3.46"/>
      <rect class="st0" x="911.35" y="929.36" width="1.56" height="3.46"/>
      <rect class="st0" x="901.8" y="1057.95" width="3.17" height="1.7"/>
      <rect class="st0" x="946.35" y="905.04" width="1.56" height="3.46"/>
      <rect class="st0" x="922.49" y="1057.94" width="1.56" height="3.46"/>
      <rect class="st0" x="898.63" y="272.56" width="1.56" height="3.46"/>
      <rect class="st0" x="1014.76" y="903.3" width="1.56" height="3.46"/>
      <rect class="st0" x="866.8" y="1059.69" width="3.17" height="1.7"/>
      <polygon class="st0" points="1021.12 889.4 1022.68 889.4 1022.68 891.97 1020.29 894.57 1021.12 889.4"/>
      <rect class="st0" x="863.63" y="637.45" width="1.56" height="3.46"/>
      <rect class="st0" x="1013.16" y="885.93" width="3.17" height="1.7"/>
      <rect class="st0" x="906.58" y="503.65" width="1.56" height="3.46"/>
      <rect class="st0" x="1021.12" y="884.18" width="1.56" height="3.46"/>
      <polygon class="st0" points="922.49 1068.37 924.05 1068.37 924.88 1073.54 922.49 1070.94 922.49 1068.37"/>
      <rect class="st0" x="904.98" y="654.83" width="3.17" height="1.7"/>
      <rect class="st0" x="1003.62" y="878.97" width="1.56" height="3.46"/>
      <rect class="st0" x="901.81" y="1026.67" width="1.56" height="3.46"/>
      <rect class="st0" x="936.8" y="1075.33" width="3.17" height="1.7"/>
      <rect class="st0" x="911.35" y="484.54" width="1.56" height="3.46"/>
      <rect class="st0" x="1021.12" y="861.6" width="1.56" height="3.46"/>
      <polygon class="st0" points="901.78 946.75 901.78 948.45 899.43 948.45 897.05 945.84 901.78 946.75"/>
      <rect class="st0" x="877.95" y="703.48" width="1.56" height="3.46"/>
      <rect class="st0" x="912.94" y="475.85" width="1.56" height="3.46"/>
      <rect class="st0" x="858.86" y="710.43" width="1.56" height="3.46"/>
      <polygon class="st0" points="904.96 1087.46 902.68 1084.15 898.62 1084.02 904.96 1087.46"/>
      <polygon class="st0" points="881.1 475.83 879.54 475.83 877.97 471.49 880.33 468.93 881.1 475.83"/>
      <rect class="st0" x="922.49" y="845.96" width="1.56" height="3.46"/>
      <rect class="st0" x="890.66" y="753.87" width="3.17" height="1.7"/>
      <rect class="st0" x="904.98" y="359.44" width="3.17" height="1.7"/>
      <rect class="st0" x="952.72" y="991.91" width="1.56" height="3.46"/>
      <rect class="st0" x="951.12" y="1106.6" width="3.17" height="1.7"/>
      <rect class="st0" x="959.07" y="1106.6" width="3.17" height="1.7"/>
      <rect class="st0" x="897.03" y="385.51" width="3.17" height="1.7"/>
      <rect class="st0" x="1021.12" y="788.62" width="1.56" height="3.46"/>
      <rect class="st0" x="906.57" y="395.93" width="3.17" height="1.7"/>
      <rect class="st0" x="933.63" y="804.26" width="1.56" height="3.46"/>
      <rect class="st0" x="904.98" y="399.41" width="3.17" height="1.7"/>
      <path class="st0" d="M972.58,809.46c1.03.58,1.03,1.16,0,1.74v-1.74Z"/>
      <path class="st0" d="M961.45,816.41c1.03.58,1.03,1.16,0,1.74v-1.74Z"/>
      <path class="st0" d="M929.63,779.92c1.03.58,1.03,1.16,0,1.74v-1.74Z"/>
      <path class="st0" d="M893.04,776.45c1.03.58,1.03,1.16,0,1.74v-1.74Z"/>
      <path class="st0" d="M958.27,818.15c1.03.58,1.03,1.16,0,1.74v-1.74Z"/>
      <path class="st0" d="M854.86,776.45c1.03.58,1.03,1.16,0,1.74v-1.74Z"/>
      <path class="st0" d="M894.63,819.89c1.03.58,1.03,1.16,0,1.74v-1.74Z"/>
      <path class="st0" d="M920.09,769.5c1.03.58,1.03,1.16,0,1.74v-1.74Z"/>
      <path class="st0" d="M1021.9,828.57c1.03.58,1.03,1.16,0,1.74v-1.74Z"/>
      <path class="st0" d="M893.04,743.43c1.03.58,1.03,1.16,0,1.74v-1.74Z"/>
      <path class="st0" d="M858.04,739.96c1.03.58,1.03,1.16,0,1.74v-1.74Z"/>
      <path class="st0" d="M891.45,733.01c1.03.58,1.03,1.16,0,1.74v-1.74Z"/>
      <path class="st0" d="M842.14,842.47c1.03.58,1.03,1.16,0,1.74v-1.74Z"/>
      <path class="st0" d="M912.15,844.25c1.58,1.14-.74,2.3-1.62,3.41l-.75-.82,2.37-2.59Z"/>
      <path class="st0" d="M880.32,722.58c1.03.58,1.03,1.16,0,1.74v-1.74Z"/>
      <path class="st0" d="M859.64,717.37c1.03.58,1.03,1.16,0,1.74v-1.74Z"/>
      <path class="st0" d="M842.14,851.16c1.03.58,1.03,1.16,0,1.74v-1.74Z"/>
      <path class="st0" d="M910.54,851.16c1.03.58,1.03,1.16,0,1.74v-1.74Z"/>
      <path class="st0" d="M929.63,712.16c1.03.58,1.03,1.16,0,1.74v-1.74Z"/>
      <path class="st0" d="M912.13,854.64c1.03.58,1.03,1.16,0,1.74v-1.74Z"/>
      <path class="st0" d="M1017.14,858.15c1.58,1.14-.74,2.3-1.62,3.41l-.75-.82,2.37-2.59Z"/>
      <path class="st0" d="M861.23,687.83c1.03.58,1.03,1.16,0,1.74v-1.74Z"/>
      <path class="st0" d="M1021.9,870.27c1.03.58,1.03,1.16,0,1.74v-1.74Z"/>
      <path class="st0" d="M908.95,666.98c1.03.58,1.03,1.16,0,1.74v-1.74Z"/>
      <path class="st0" d="M912.13,878.96c1.03.58,1.03,1.16,0,1.74v-1.74Z"/>
      <path class="st0" d="M945.54,885.91c1.03.58,1.03,1.16,0,1.74v-1.74Z"/>
      <path class="st0" d="M918.5,627.01c1.03.58,1.03,1.16,0,1.74v-1.74Z"/>
      <path class="st0" d="M920.09,892.86c1.03.58,1.03,1.16,0,1.74v-1.74Z"/>
      <path class="st0" d="M897.82,896.34c1.03.58,1.03,1.16,0,1.74v-1.74Z"/>
      <path class="st0" d="M961.45,903.29c1.03.58,1.03,1.16,0,1.74v-1.74Z"/>
      <path class="st0" d="M959.86,908.5c1.03.58,1.03,1.16,0,1.74v-1.74Z"/>
      <path class="st0" d="M920.09,588.79c1.03.58,1.03,1.16,0,1.74v-1.74Z"/>
      <path class="st0" d="M918.5,918.93c1.03.58,1.03,1.16,0,1.74v-1.74Z"/>
      <path class="st0" d="M902.59,555.77c1.03.58,1.03,1.16,0,1.74v-1.74Z"/>
      <path class="st0" d="M905.77,929.35c1.03.58,1.03,1.16,0,1.74v-1.74Z"/>
      <path class="st0" d="M916.91,531.45c1.03.58,1.03,1.16,0,1.74v-1.74Z"/>
      <path class="st0" d="M897.82,531.45c1.03.58,1.03,1.16,0,1.74v-1.74Z"/>
      <path class="st0" d="M889.86,529.71c1.03.58,1.03,1.16,0,1.74v-1.74Z"/>
      <path class="st0" d="M891.45,519.28c1.03.58,1.03,1.16,0,1.74v-1.74Z"/>
      <path class="st0" d="M893.04,505.38c1.03.58,1.03,1.16,0,1.74v-1.74Z"/>
      <path class="st0" d="M889.86,470.63c1.03.58,1.03,1.16,0,1.74v-1.74Z"/>
      <path class="st0" d="M897.82,950.2c1.03.58,1.03,1.16,0,1.74v-1.74Z"/>
      <path class="st0" d="M907.36,467.16c1.03.58,1.03,1.16,0,1.74v-1.74Z"/>
      <path class="st0" d="M910.54,456.73c1.03.58,1.03,1.16,0,1.74v-1.74Z"/>
      <path class="st0" d="M897.82,454.99c1.03.58,1.03,1.16,0,1.74v-1.74Z"/>
      <path class="st0" d="M921.68,449.78c1.03.58,1.03,1.16,0,1.74v-1.74Z"/>
      <path class="st0" d="M891.45,964.1c1.03.58,1.03,1.16,0,1.74v-1.74Z"/>
      <path class="st0" d="M904.18,964.1c1.03.58,1.03,1.16,0,1.74v-1.74Z"/>
      <path class="st0" d="M937.59,967.58c1.03.58,1.03,1.16,0,1.74v-1.74Z"/>
      <path class="st0" d="M891.45,976.27c1.03.58,1.03,1.16,0,1.74v-1.74Z"/>
      <path class="st0" d="M923.27,976.27c1.03.58,1.03,1.16,0,1.74v-1.74Z"/>
      <path class="st0" d="M955.09,976.27c1.03.58,1.03,1.16,0,1.74v-1.74Z"/>
      <path class="st0" d="M959.86,976.27c1.03.58,1.03,1.16,0,1.74v-1.74Z"/>
      <path class="st0" d="M975.77,976.27c1.03.58,1.03,1.16,0,1.74v-1.74Z"/>
      <path class="st0" d="M866,415.03c1.03.58,1.03,1.16,0,1.74v-1.74Z"/>
      <path class="st0" d="M907.36,406.34c1.03.58,1.03,1.16,0,1.74v-1.74Z"/>
      <path class="st0" d="M889.86,983.22c1.03.58,1.03,1.16,0,1.74v-1.74Z"/>
      <path class="st0" d="M913.72,395.92c1.03.58,1.03,1.16,0,1.74v-1.74Z"/>
      <path class="st0" d="M896.21,988.47c.88,1.11,3.2,2.26,1.62,3.41-.77-1.02-3.19-2.2-1.62-3.41Z"/>
      <path class="st0" d="M889.86,990.17c1.03.58,1.03,1.16,0,1.74v-1.74Z"/>
      <path class="st0" d="M918.5,990.17c1.03.58,1.03,1.16,0,1.74v-1.74Z"/>
      <path class="st0" d="M412.61,371.59c1.03.58,1.03,1.16,0,1.74v-1.74Z"/>
      <path class="st0" d="M902.59,359.43c1.03.58,1.03,1.16,0,1.74v-1.74Z"/>
      <path class="st0" d="M897.82,359.43c1.03.58,1.03,1.16,0,1.74v-1.74Z"/>
      <path class="st0" d="M910.54,357.69c1.03.58,1.03,1.16,0,1.74v-1.74Z"/>
      <path class="st0" d="M856.45,357.69c1.03.58,1.03,1.16,0,1.74v-1.74Z"/>
      <path class="st0" d="M403.07,350.74c1.03.58,1.03,1.16,0,1.74v-1.74Z"/>
      <path class="st0" d="M901,343.79c1.03.58,1.03,1.16,0,1.74v-1.74Z"/>
      <path class="st0" d="M939.18,1016.23c1.03.58,1.03,1.16,0,1.74v-1.74Z"/>
      <polygon class="st0" points="936 1019.74 937.6 1023.15 936 1021.48 933.64 1022.33 936 1019.74"/>
      <path class="st0" d="M870.77,1023.18c1.03.58,1.03,1.16,0,1.74v-1.74Z"/>
      <path class="st0" d="M902.59,333.36c1.03.58,1.03,1.16,0,1.74v-1.74Z"/>
      <path class="st0" d="M928.03,1033.64c.88,1.11,3.2,2.26,1.62,3.41-.77-1.02-3.19-2.2-1.62-3.41Z"/>
      <path class="st0" d="M921.68,1037.08c1.03.58,1.03,1.16,0,1.74v-1.74Z"/>
      <path class="st0" d="M908.95,319.46c1.03.58,1.03,1.16,0,1.74v-1.74Z"/>
      <path class="st0" d="M936,1044.03c1.03.58,1.03,1.16,0,1.74v-1.74Z"/>
      <path class="st0" d="M864.41,1045.77c1.03.58,1.03,1.16,0,1.74v-1.74Z"/>
      <path class="st0" d="M894.63,1045.77c1.03.58,1.03,1.16,0,1.74v-1.74Z"/>
      <path class="st0" d="M951.9,1045.77c1.03.58,1.03,1.16,0,1.74v-1.74Z"/>
      <path class="st0" d="M918.5,312.51c1.03.58,1.03,1.16,0,1.74v-1.74Z"/>
      <path class="st0" d="M888.27,312.51c1.03.58,1.03,1.16,0,1.74v-1.74Z"/>
      <path class="st0" d="M921.68,309.04c1.03.58,1.03,1.16,0,1.74v-1.74Z"/>
      <path class="st0" d="M907.36,302.09c1.03.58,1.03,1.16,0,1.74v-1.74Z"/>
      <path class="st0" d="M923.27,298.61c1.03.58,1.03,1.16,0,1.74v-1.74Z"/>
      <path class="st0" d="M920.09,293.4c1.03.58,1.03,1.16,0,1.74v-1.74Z"/>
      <path class="st0" d="M904.18,284.71c1.03.58,1.03,1.16,0,1.74v-1.74Z"/>
      <path class="st0" d="M864.41,1052.72c1.03.58,1.03,1.16,0,1.74v-1.74Z"/>
      <path class="st0" d="M886.68,1052.72c1.03.58,1.03,1.16,0,1.74v-1.74Z"/>
      <path class="st0" d="M932.81,1052.72c1.03.58,1.03,1.16,0,1.74v-1.74Z"/>
      <path class="st0" d="M920.09,281.23c1.03.58,1.03,1.16,0,1.74v-1.74Z"/>
      <path class="st0" d="M908.95,281.23c1.03.58,1.03,1.16,0,1.74v-1.74Z"/>
      <path class="st0" d="M889.86,276.02c1.03.58,1.03,1.16,0,1.74v-1.74Z"/>
      <path class="st0" d="M963.04,1056.2c1.03.58,1.03,1.16,0,1.74v-1.74Z"/>
      <path class="st0" d="M889.86,1057.93c1.03.58,1.03,1.16,0,1.74v-1.74Z"/>
      <path class="st0" d="M894.63,1057.93c1.03.58,1.03,1.16,0,1.74v-1.74Z"/>
      <path class="st0" d="M907.36,1057.93c1.03.58,1.03,1.16,0,1.74v-1.74Z"/>
      <path class="st0" d="M916.91,1057.93c1.03.58,1.03,1.16,0,1.74v-1.74Z"/>
      <path class="st0" d="M921.68,267.33c1.03.58,1.03,1.16,0,1.74v-1.74Z"/>
      <path class="st0" d="M916.91,267.33c1.03.58,1.03,1.16,0,1.74v-1.74Z"/>
      <path class="st0" d="M918.5,1063.15c1.03.58,1.03,1.16,0,1.74v-1.74Z"/>
      <path class="st0" d="M880.32,1064.88c1.03.58,1.03,1.16,0,1.74v-1.74Z"/>
      <path class="st0" d="M908.95,1064.88c1.03.58,1.03,1.16,0,1.74v-1.74Z"/>
      <path class="st0" d="M907.36,244.75c1.03.58,1.03,1.16,0,1.74v-1.74Z"/>
      <path class="st0" d="M926.47,241.31c1.58,1.14-.74,2.3-1.62,3.41l-.75-.82,2.37-2.59Z"/>
      <path class="st0" d="M921.68,239.53c1.03.58,1.03,1.16,0,1.74v-1.74Z"/>
      <path class="st0" d="M932.81,1075.31c1.03.58,1.03,1.16,0,1.74v-1.74Z"/>
      <path class="st0" d="M947.13,1077.05c1.03.58,1.03,1.16,0,1.74v-1.74Z"/>
      <path class="st0" d="M854.86,1080.52c1.03.58,1.03,1.16,0,1.74v-1.74Z"/>
      <path class="st0" d="M858.04,1084c1.03.58,1.03,1.16,0,1.74v-1.74Z"/>
      <path class="st0" d="M924.86,1084c1.03.58,1.03,1.16,0,1.74v-1.74Z"/>
      <path class="st0" d="M947.13,1087.47c1.03.58,1.03,1.16,0,1.74v-1.74Z"/>
      <path class="st0" d="M858.04,1092.69c1.03.58,1.03,1.16,0,1.74v-1.74Z"/>
      <path class="st0" d="M861.23,1094.42c1.03.58,1.03,1.16,0,1.74v-1.74Z"/>
      <path class="st0" d="M948.72,1094.42c1.03.58,1.03,1.16,0,1.74v-1.74Z"/>
      <path class="st0" d="M899.41,1097.9c1.03.58,1.03,1.16,0,1.74v-1.74Z"/>
      <path class="st0" d="M889.86,1101.37c1.03.58,1.03,1.16,0,1.74v-1.74Z"/>
      <path class="st0" d="M901,1101.37c1.03.58,1.03,1.16,0,1.74v-1.74Z"/>
      <path class="st0" d="M910.54,1106.59c1.03.58,1.03,1.16,0,1.74v-1.74Z"/>
      <path class="st0" d="M948.72,1110.06c1.03.58,1.03,1.16,0,1.74v-1.74Z"/>
      <rect class="st0" x="1003.61" y="1092.7" width="3.17" height="1.7"/>
      <rect class="st0" x="1003.61" y="1099.65" width="3.17" height="1.7"/>
      <path class="st0" d="M1001.22,1090.95c1.03.58,1.03,1.16,0,1.74v-1.74Z"/>
      <rect class="st0" x="1326.55" y="519.3" width="3.17" height="1.7"/>
      <rect class="st0" x="1321.78" y="519.3" width="3.17" height="1.7"/>
      <polygon class="st0" points="1275.63 333.35 1272.46 333.34 1274.85 329.9 1275.63 333.35"/>
      <rect class="st0" x="1274.06" y="335.12" width="3.17" height="1.7"/>
      <path class="st0" d="M1270.07,336.84c1.03.58,1.03,1.16,0,1.74v-1.74Z"/>
      <path class="st0" d="M955.09,380.28c1.03.58,1.03,1.16,0,1.74v-1.74Z"/>
      <path class="st0" d="M1322.57,255.17c1.03.58,1.03,1.16,0,1.74v-1.74Z"/>
      <rect class="st0" x="978.17" y="896.35" width="1.56" height="3.46"/>
      <path class="st0" d="M978.95,903.29c1.03.58,1.03,1.16,0,1.74v-1.74Z"/>
      <rect class="st0" x="1076.79" y="472.39" width="3.17" height="1.7"/>
      <rect class="st0" x="960.66" y="1005.82" width="3.17" height="1.7"/>
      <path class="st0" d="M980.54,873.75c1.03.58,1.03,1.16,0,1.74v-1.74Z"/>
    </g>
  </g>
</svg>