<?xml version="1.0" encoding="UTF-8"?>
<svg id="Layer_1" xmlns="http://www.w3.org/2000/svg" version="1.1" viewBox="0 0 1920 1080">
  <!-- Generator: Adobe Illustrator 29.5.1, SVG Export Plug-In . SVG Version: 2.1.0 Build 141)  -->
  <defs>
    <style>
      .st0 {
        fill: #fff;
      }
    </style>
  </defs>
  <g id="doaL8L.tif">
    <g>
      <path class="st0" d="M1389.38,210.01c-10.22-1.91-13.5-14.86-13.58-24.37-.04-5.03,6.38-1.64,9.59-2.54l-7.62-12.96c-.8-11.31-2.8-29.78,10.79-33.37,1.49-.39,12.48-.66,13.36-.39,4.21,1.31,1.91,15.39.87,16.35-.32.29-5.54-1.43-7.83,1.79l-1.59-15.12-3.01,25.01,69.81.18,1.58,18.5h-73.18c-.55,4.82.59,9.17,5.61,10.04l64.92-.03,5.82,16.89h-75.56l.02.02Z"/>
      <polygon class="st0" points="1406.09 176.36 1403.68 173.03 1401.32 173.03 1401.32 176.37 1406.09 176.36"/>
      <path class="st0" d="M1422.79,173.02v1.68c1.03-.56,1.03-1.12,0-1.68Z"/>
      <path class="st0" d="M1429.15,173.02v1.68c1.03-.56,1.03-1.12,0-1.68Z"/>
      <path class="st0" d="M1437.11,173.02v1.68c1.03-.56,1.03-1.12,0-1.68Z"/>
      <path class="st0" d="M1418.02,174.7v1.68c1.03-.56,1.03-1.12,0-1.68Z"/>
      <rect class="st0" x="1398.14" y="198.25" width="3.17" height="1.65"/>
      <rect class="st0" x="1410.88" y="199.93" width="1.56" height="3.35"/>
      <rect class="st0" x="1390.19" y="204.97" width="3.16" height="3.34"/>
      <polygon class="st0" points="1458.59 134.34 1460.17 154.51 1445.85 154.53 1445.85 134.34 1458.59 134.34"/>
      <path class="st0" d="M1468.11,194.87c-5.24-2.13-2.63-7.54-1.55-11.76,3.47.64.78,8.83,1.55,11.76Z"/>
      <path class="st0" d="M1407.66,152.84c-2.79.39-1.48-3.81-1.57-5.86-.16-3.63.09-7.32.02-10.94,2.79-.39,1.48,3.81,1.57,5.86.16,3.63-.09,7.32-.02,10.94Z"/>
      <polygon class="st0" points="1468.12 166.3 1468.12 174.69 1464.95 174.68 1464.95 166.31 1468.12 166.3"/>
      <path class="st0" d="M1471.3,213.36h-3.16v-6.72c3.16.9,3.57,3.58,3.16,6.72Z"/>
      <polygon class="st0" points="1466.53 146.13 1466.53 151.15 1463.36 151.15 1463.36 146.14 1466.53 146.13"/>
      <rect class="st0" x="1463.37" y="152.85" width="1.56" height="5.03"/>
    </g>
  </g>
  <rect x="1061.2" y="762.89" width="3.72" height="5.99"/>
</svg>