<?xml version="1.0" encoding="UTF-8"?>
<svg id="Layer_1" xmlns="http://www.w3.org/2000/svg" version="1.1" viewBox="0 0 1920 1080">
  <!-- Generator: Adobe Illustrator 29.5.1, SVG Export Plug-In . SVG Version: 2.1.0 Build 141)  -->
  <defs>
    <style>
      .st0 {
        fill: #fff;
      }
    </style>
  </defs>
  <g id="doaL8L.tif">
    <g>
      <path class="st0" d="M1759.23,875.77l-3.07,4.08,7.88,43.81-4.79,1.71c10.77,2.03,2.23,5.05,1.27,8.24-1.09,3.62.15,7.38-1.1,10.93l4.58,1.86,1.59-5.06,1.59,16.8-4.74-10.08c.3,1.53-1,3.14-.92,4.25.26,3.69,6.23,24.6,7.75,29.73.52,1.76.41,5.08,2.69,4.68l-4.74-26.88c4.22,1.07,2.09,17.8,7.96,14.26l-15.95-98.33h0Z"/>
      <path class="st0" d="M1767.22,884.19c5.56-3.53,1.04,1.3.67,3.24-.42,2.17-.97,6.78,1.71,6.79,3.6.01.02-9.78,3.94-10.89l-6.31.85h0Z"/>
      <rect class="st0" x="1771.99" y="904.36" width="3.16" height="3.34"/>
      <rect class="st0" x="1757.68" y="914.45" width="1.56" height="3.35"/>
      <path class="st0" d="M1756.87,943.02v1.68c1.03-.56,1.03-1.12,0-1.68Z"/>
      <rect class="st0" x="1757.68" y="956.48" width="1.56" height="5.03"/>
      <path class="st0" d="M1758.46,964.88v1.68c1.03-.56,1.03-1.12,0-1.68Z"/>
      <path class="st0" d="M1759.24,976.65c-5.83.03-5.83,5,0,5.03v-5.03Z"/>
      <path class="st0" d="M1826.55,989.8l-2.54-19.11c-.91-6.06-9.91-7.78,1.34-14.78-1.25,6.74,5.36,15.7,5.74,19.59.3,3.01-6.77,9.05-4.53,14.3h0Z"/>
      <path class="st0" d="M1774.18,825c2.56,26.34-19.11,14.29-6.83-2.27l6.83,2.27Z"/>
      <path class="st0" d="M1796.75,732.12l5.01,9c-13.77-2.55-15.97,10.16-29.78,4.52-1.64-7.08,2.16-2.68,4.17-3.13,3.71-.83,11.36-1.47,14.21-3.42,3.53-2.41-1.63-8.75,6.39-6.97h0Z"/>
      <polygon class="st0" points="1772 759.24 1758.52 759.26 1757.12 750.2 1760.8 754.78 1765.76 754.78 1771.96 747.93 1772 759.24"/>
      <path class="st0" d="M1776.95,723.08c-3.29,4.58-5.98,5.7-2.48,11.26l-12.36-7.89,14.84-3.37Z"/>
      <polygon class="st0" points="1831.53 827.06 1829.12 835.01 1821.63 836.08 1824.04 828.12 1831.53 827.06"/>
      <path class="st0" d="M1816.68,1012.42c-3.23-3.29,6.94-11.96,9.88-13.55,1.6,8.04-2.07,11.11-9.88,13.55Z"/>
      <path class="st0" d="M1775.15,539.53c1.3,6.75-10.49-.69-14.31,1.66,2.13-5.48,9.95.06,14.31-1.66Z"/>
      <path class="st0" d="M1861.31,865.49c.97,4.26-3.18,6.09-6.19,8.99-7.91-7.37-4.62-10.54,6.19-8.99Z"/>
      <polygon class="st0" points="1770.4 774.9 1769.59 769.84 1767.23 773.2 1764.03 768.19 1772.03 768.96 1770.4 774.9"/>
      <path class="st0" d="M1819.12,573.87l-3.7,11.28c-5.26-2.96-1-6.6-1.23-11.3l4.93.02h0Z"/>
      <path class="st0" d="M1831.53,772.8v6.76h-7.42c-.81-4.12,2.73-7.48,7.42-6.76Z"/>
      <path class="st0" d="M1809.18,858.69c-6.29-1.74-5.07-8.6-4.91-13.55h2.43l2.48,13.55Z"/>
      <path class="st0" d="M1829.04,944.61l-1.22,9.02c-3.82-2.44-4.32-4.85-3.72-9.02h4.94Z"/>
      <rect class="st0" x="1814.18" y="528.66" width="4.94" height="6.76"/>
      <polygon class="st0" points="1767.2 800.11 1764.03 800.11 1764.04 795.07 1767.19 797.62 1767.2 800.11"/>
      <polygon class="st0" points="1771.97 737.92 1771.96 740.41 1768.81 742.95 1768.8 737.92 1771.97 737.92"/>
      <polygon class="st0" points="1781.52 768.19 1779.15 771.49 1775.17 769.83 1775.17 768.19 1781.52 768.19"/>
      <polygon class="st0" points="1829.06 793.12 1821.63 793.13 1821.63 788.63 1825.3 788.64 1829.06 793.12"/>
      <polygon class="st0" points="1779.41 797.67 1779.4 804.43 1776.98 804.43 1774.46 797.68 1779.41 797.67"/>
      <rect class="st0" x="1908.49" y="793.15" width="2.43" height="9.02"/>
      <rect class="st0" x="1796.81" y="799.93" width="4.94" height="4.5"/>
      <rect class="st0" x="1873.74" y="802.19" width="4.94" height="4.5"/>
      <polygon class="st0" points="1786.87 729.86 1783.15 734.32 1779.44 730.96 1786.87 729.86"/>
      <polygon class="st0" points="1901.01 856.42 1896.06 856.41 1898.57 849.67 1901 849.66 1901.01 856.42"/>
      <polygon class="st0" points="1878.68 813.47 1871.26 813.46 1871.26 811.25 1878.66 808.96 1878.68 813.47"/>
      <polygon class="st0" points="1851.38 919.74 1851.37 924.25 1846.44 920.85 1851.38 919.74"/>
      <rect class="st0" x="1834.03" y="919.75" width="7.42" height="2.21"/>
      <polygon class="st0" points="1918.23 670.93 1911 672.22 1915.94 662.04 1918.23 670.93"/>
      <rect class="st0" x="1768.8" y="754.74" width="4.76" height="1.65"/>
      <polygon class="st0" points="1913.42 716.29 1913.4 720.8 1908.48 717.4 1913.42 716.29"/>
      <polygon class="st0" points="1851.38 953.65 1851.37 958.16 1846.44 954.76 1851.38 953.65"/>
      <rect class="st0" x="1816.68" y="564.83" width="2.43" height="6.76"/>
      <path class="st0" d="M1824.07,544.46h-2.43c-.61-4.15-.14-6.61,3.72-8.98l-1.29,8.98h0Z"/>
      <rect class="st0" x="1910.97" y="870.01" width="2.43" height="6.76"/>
      <rect class="st0" x="1876.23" y="822.54" width="2.43" height="6.76"/>
      <polygon class="st0" points="1903.49 858.71 1903.48 863.22 1898.55 859.81 1903.49 858.71"/>
      <polygon class="st0" points="1898.57 838.36 1901 838.36 1902.29 845.09 1898.56 841.71 1898.57 838.36"/>
      <rect class="st0" x="1910.97" y="836.1" width="2.43" height="4.5"/>
      <rect class="st0" x="1876.23" y="851.92" width="2.43" height="4.5"/>
      <rect class="st0" x="1826.6" y="860.97" width="2.43" height="4.5"/>
      <rect class="st0" x="1786.9" y="811.23" width="2.43" height="4.5"/>
      <rect class="st0" x="1786.88" y="806.72" width="4.94" height="2.21"/>
      <rect class="st0" x="1898.55" y="799.94" width="4.94" height="2.21"/>
      <rect class="st0" x="1764.55" y="487.98" width="4.94" height="2.21"/>
      <polygon class="st0" points="1784.42 795.41 1786.85 795.41 1788.14 802.13 1784.41 798.76 1784.42 795.41"/>
      <rect class="st0" x="1824.12" y="992.08" width="2.43" height="4.5"/>
      <rect class="st0" x="1826.6" y="867.75" width="2.43" height="4.5"/>
      <rect class="st0" x="1888.64" y="867.75" width="2.43" height="4.5"/>
      <rect class="st0" x="1786.9" y="528.66" width="2.43" height="4.5"/>
      <rect class="st0" x="1754.64" y="772.8" width="2.43" height="4.5"/>
      <rect class="st0" x="1819.16" y="555.79" width="2.43" height="4.5"/>
      <rect class="st0" x="1868.77" y="766.03" width="4.94" height="2.21"/>
      <rect class="st0" x="1768.81" y="707.66" width="1.56" height="3.35"/>
      <rect class="st0" x="1775.17" y="709.35" width="3.17" height="1.65"/>
      <rect class="st0" x="1901.05" y="605.52" width="2.43" height="4.5"/>
      <rect class="st0" x="1886.15" y="892.63" width="4.94" height="2.21"/>
      <rect class="st0" x="1898.57" y="892.62" width="2.43" height="4.5"/>
      <rect class="st0" x="1861.33" y="951.4" width="4.94" height="2.21"/>
      <rect class="st0" x="1898.55" y="630.4" width="4.94" height="2.21"/>
      <rect class="st0" x="1774.48" y="714.04" width="4.94" height="2.21"/>
      <rect class="st0" x="1759.27" y="754.73" width="1.56" height="3.35"/>
      <polygon class="st0" points="1762.42 773.21 1760.86 773.21 1760.03 768.21 1762.42 770.72 1762.42 773.21"/>
      <path class="st0" d="M1775.96,776.58c1.03.56,1.03,1.12,0,1.68v-1.68Z"/>
      <path class="st0" d="M1780.73,773.22c1.03.56,1.03,1.12,0,1.68v-1.68Z"/>
      <path class="st0" d="M1753.37,682.37c1.61.75,1.61,1.51,0,2.26v-2.26Z"/>
      <path class="st0" d="M1815.41,698.19c1.61.75,1.61,1.51,0,2.26v-2.26Z"/>
      <path class="st0" d="M1768,784.98c1.03.56,1.03,1.12,0,1.68v-1.68Z"/>
      <path class="st0" d="M1775.96,786.67c1.03.56,1.03,1.12,0,1.68v-1.68Z"/>
      <path class="st0" d="M1788.11,666.54c1.61.75,1.61,1.51,0,2.26v-2.26Z"/>
      <path class="st0" d="M1764.82,756.4c1.03.56,1.03,1.12,0,1.68v-1.68Z"/>
      <path class="st0" d="M1764.82,791.71c1.03.56,1.03,1.12,0,1.68v-1.68Z"/>
      <path class="st0" d="M1777.55,749.68c1.03.56,1.03,1.12,0,1.68v-1.68Z"/>
      <path class="st0" d="M1772.77,744.63c1.03.56,1.03,1.12,0,1.68v-1.68Z"/>
      <path class="st0" d="M1755.85,646.2c1.61.75,1.61,1.51,0,2.26v-2.26Z"/>
      <path class="st0" d="M1764.82,739.59c1.03.56,1.03,1.12,0,1.68v-1.68Z"/>
      <path class="st0" d="M1753.68,798.43c1.03.56,1.03,1.12,0,1.68v-1.68Z"/>
      <path class="st0" d="M1760.05,731.19c1.03.56,1.03,1.12,0,1.68v-1.68Z"/>
      <path class="st0" d="M1889.86,619.07c1.61.75,1.61,1.51,0,2.26v-2.26Z"/>
      <path class="st0" d="M1855.11,619.07c1.61.75,1.61,1.51,0,2.26v-2.26Z"/>
      <path class="st0" d="M1760.82,616.81c1.61.75,1.61,1.51,0,2.26v-2.26Z"/>
      <path class="st0" d="M1867.52,596.47c1.61.75,1.61,1.51,0,2.26v-2.26Z"/>
      <path class="st0" d="M1899.78,587.42c1.61.75,1.61,1.51,0,2.26v-2.26Z"/>
      <path class="st0" d="M1798.04,750.19c1.61.75,1.61,1.51,0,2.26v-2.26Z"/>
      <path class="st0" d="M1912.19,754.71c1.61.75,1.61,1.51,0,2.26v-2.26Z"/>
      <path class="st0" d="M1765.78,781.83c1.61.75,1.61,1.51,0,2.26v-2.26Z"/>
      <path class="st0" d="M1788.11,781.83c1.61.75,1.61,1.51,0,2.26v-2.26Z"/>
      <path class="st0" d="M1842.71,784.1c1.61.75,1.61,1.51,0,2.26v-2.26Z"/>
      <path class="st0" d="M1765.78,795.4c1.61.75,1.61,1.51,0,2.26v-2.26Z"/>
      <path class="st0" d="M1790.59,487.96c1.61.75,1.61,1.51,0,2.26v-2.26Z"/>
      <path class="st0" d="M1780.67,487.96c1.61.75,1.61,1.51,0,2.26v-2.26Z"/>
      <path class="st0" d="M1755.85,487.96c1.61.75,1.61,1.51,0,2.26v-2.26Z"/>
      <path class="st0" d="M1770.74,797.66c1.61.75,1.61,1.51,0,2.26v-2.26Z"/>
      <path class="st0" d="M1775.96,625.27c1.03.56,1.03,1.12,0,1.68v-1.68Z"/>
      <path class="st0" d="M1768,618.54c1.03.56,1.03,1.12,0,1.68v-1.68Z"/>
      <path class="st0" d="M1780.67,813.48c1.61.75,1.61,1.51,0,2.26v-2.26Z"/>
      <path class="st0" d="M1887.37,813.48c1.61.75,1.61,1.51,0,2.26v-2.26Z"/>
      <path class="st0" d="M1768,596.69c1.03.56,1.03,1.12,0,1.68v-1.68Z"/>
      <path class="st0" d="M1887.35,842.92c1.37,1.44,5,2.95,2.53,4.43-1.2-1.33-4.98-2.86-2.53-4.43Z"/>
      <path class="st0" d="M1788.11,847.39c1.61.75,1.61,1.51,0,2.26v-2.26Z"/>
      <path class="st0" d="M1827.82,854.17c1.61.75,1.61,1.51,0,2.26v-2.26Z"/>
      <path class="st0" d="M1889.86,863.22c1.61.75,1.61,1.51,0,2.26v-2.26Z"/>
      <path class="st0" d="M1889.86,881.3c1.61.75,1.61,1.51,0,2.26v-2.26Z"/>
      <path class="st0" d="M1850.15,892.6c1.61.75,1.61,1.51,0,2.26v-2.26Z"/>
      <path class="st0" d="M1862.56,919.73c1.61.75,1.61,1.51,0,2.26v-2.26Z"/>
      <path class="st0" d="M1887.37,924.25c1.61.75,1.61,1.51,0,2.26v-2.26Z"/>
      <path class="st0" d="M1874.97,928.77c1.61.75,1.61,1.51,0,2.26v-2.26Z"/>
      <path class="st0" d="M1850.15,980.77c1.61.75,1.61,1.51,0,2.26v-2.26Z"/>
      <path class="st0" d="M1847.67,998.85c1.61.75,1.61,1.51,0,2.26v-2.26Z"/>
      <path class="st0" d="M1835.26,1021.46c1.61.75,1.61,1.51,0,2.26v-2.26Z"/>
    </g>
  </g>
</svg>