<?xml version="1.0" encoding="UTF-8"?>
<svg id="Layer_1" xmlns="http://www.w3.org/2000/svg" version="1.1" viewBox="0 0 1920 1080">
  <!-- Generator: Adobe Illustrator 29.5.1, SVG Export Plug-In . SVG Version: 2.1.0 Build 141)  -->
  <defs>
    <style>
      .st0 {
        fill: #fff;
      }
    </style>
  </defs>
  <text/>
  <g id="doaL8L.tif">
    <g>
      <path class="st0" d="M973.38,1068.11h7.95s-2.38-5.02-2.38-5.02l-3.95,2.51,4.74-5.88-12.72-.02,1.68-5.8-3.2-1.65c1.3-8.79,4.67-5.13,7.06-6.41.83-.45.74-2.29,2.03-2.78,2.88-1.09,6.83-1.31,9.94-1.86-1.4-8.28-2.86-12.75,3.87-18.13l12.01,4.71-3.16,3.32h4.76c.22-7.7-3.65-14.51-7.95-20.16h160.67c.17,0-.71,2.89,1.06,3.38,3.06.84,7.49-1.53,10.07,2.52l-4.75-.85.79,3.37,8.74-.03-3.18-5.01,7.94-.03-6.35-3.34h50.91v1.68h-42.95l10.97,1.84c3.57,15.94-6.57,4.94-14.9,6.57-4.17.82-4.68,5.35-8.8,5.02l1.58-5.02-3.16.02-.68,3.19-7.81-1.65-2.68,4.34,3.21,1.66-3.19,2.5,5.57,3.38.8-3.35,3.95,3.36,2.39-3.37c-2.74,13.3,8.98,16.2,13.51,23.56.66,1.08,2.18,6.49-.77,4.18l-3.59-6.49-4.41-.31c-7.66,1.57-1.8,16.27,5.68,17.71,6.39,1.23,13.5-.52,13.48-8.39,2.57.3,2.18,3.83,4.75,5.87,6.88,5.46,16.4,2.95,17.58-6.63,1.45-11.75-1.32-26.53.03-38.68l-4.88-1.75,9.52-.85c-2.76,6.35-4.67,13.57-3.13,20.72.25,1.17,2.54,1.19,2.63,1.48.35,1.12-1.08,2.93-.32,4.6,2.46,5.34,11.62,6.3,10.35,13.54-14-17.65-14.49-7.4-11.11,10.08h-6.39s0,6.73,0,6.73l-4.76,1.68h-57.27l-.02-5.04-4.75,1.7v1.64s3.17,1.7,3.17,1.7h-4.77l-2.4-3.33.81,3.33h-117.72c-.98-7.03-5.88-13.03-12.72-10.07l3.18,4.19-3.18,5.88h-35l-.81-1.66-2.37-.02c2.73-2.28,4.48-1.92,7.95-1.69l-3.18-6.72-4.75,4.23-3.16-1.68,1.56-7.58,1.72,3.24,4.46-1.29.17,3.09Z"/>
      <path class="st0" d="M1126.1,1012.65c-2.07-.68-8,2.52-6.35,3.33,2.84.46,5.58-.1,6.35-3.33Z"/>
      <rect class="st0" x="1130.88" y="1012.65" width="3.17" height="1.65"/>
      <path class="st0" d="M1136.44,1012.63v1.68c1.03-.56,1.03-1.12,0-1.68Z"/>
      <rect class="st0" x="1138.83" y="1012.65" width="9.53" height="1.65"/>
      <rect class="st0" x="1149.97" y="1012.65" width="3.17" height="1.65"/>
      <polygon class="st0" points="1156.33 1021.02 1153.95 1016 1151.57 1018.54 1151.56 1021.03 1156.33 1021.02"/>
      <path class="st0" d="M1174.64,1016.03l-2.37,2.5.75.79c.88-1.07,3.2-2.19,1.62-3.3Z"/>
      <polygon class="st0" points="1181.77 1017.69 1177.02 1015.99 1177.01 1019.35 1181.77 1019.34 1181.77 1017.69"/>
      <rect class="st0" x="1138.84" y="1017.68" width="1.56" height="3.35"/>
      <path class="st0" d="M1149.17,1017.67v1.68c1.03-.56,1.03-1.12,0-1.68Z"/>
      <path class="st0" d="M1158.71,1017.67v1.68c1.03-.56,1.03-1.12,0-1.68Z"/>
      <rect class="st0" x="1143.61" y="1019.37" width="3.17" height="1.65"/>
      <rect class="st0" x="1183.38" y="1019.37" width="3.17" height="1.65"/>
      <path class="st0" d="M1121.33,1032.81v34.47l9.54,2.53c1.03-1.09-1.88-14.04,3.17-15.13.97,8.6,4.66,17.19,14.33,15.11-1.11-8.34-7.21-17.47-6.49-26.06.54-6.52,8.21-12.86,8.11-20.14-11.73-4.58-13.17,5.42-16.72,14.29,3.5-21.11-27.18-25.08-24.67-3.39l-3.38-9.85-9.33-.23c.93,15.94,10.23,30.43,7.96,47.08,2.21-.12,4.85.45,6.93-.25,6.45-2.18-2.52-36.06,10.57-38.43Z"/>
      <path class="st0" d="M1070.42,1071.47v-45.39l-10.91.25-.23,16.55c-4.83,6.69-2.55-16.16-3.17-16.81l-11.14.02c-.79.71,4.39,11.02.01,11.75-.38-17.74-22.38-18.23-23.98-.93-1.57,16.98-2.98,41.21,19.65,36.26,4.87-4.73,5.04-11.72,4.08-18.26l-9.31-1.93c-1.32,1.37,2.92,11.97-3.18,10.08,1.55-5.24-6.18-28.42,2.36-28.59l.8,15.16,11.15-.02c.95,9.61-4.84,29.6,10.43,21.96l.71-18.59c6.36,3.22,1.15,13.58,3.91,18.58l8.8-.09Z"/>
      <path class="st0" d="M1090.94,1024.58c-3.87-.16-10.68-1.82-12.26,2.67-.58,12.17-4.67,26.7-5.13,38.43-.09,2.35-.37,5.22,1.6,6.78l8.08-.09,3.89-10.96,2.46,9.99,9.47.1-8.12-46.91Z"/>
      <path class="st0" d="M994.05,1027.77c-5.26-1.17-1.51,2.4-2.42,3.41-1.5,1.68-4.34.74-3.93,3.29l5.61-1.62.74-5.08Z"/>
      <polygon class="st0" points="1006.78 1032.81 1002.02 1033.64 1004.43 1036.15 1006.78 1036.16 1006.78 1032.81"/>
      <path class="st0" d="M1010.76,1032.81v1.68c1.03-.56,1.03-1.12,0-1.68Z"/>
      <path class="st0" d="M1150.76,1032.81v1.68c1.03-.56,1.03-1.12,0-1.68Z"/>
      <polygon class="st0" points="990.87 1039.54 986.11 1039.55 986.12 1041.19 990.86 1042.89 990.87 1039.54"/>
      <path class="st0" d="M1008.74,1050.94c-.86-2.25,3.85-9.82-1.2-11.39-5.5-1.71-5.82,5.02-7.14,6.7-1.53,1.95-1.11-5.97-4.75-3.33,1.36,8.34,6.4,3.39,9.54,8.37l-12.71.02,6.35,3.37c2.89,2.68-16.23,3.46-17.49,5.88l4.78.84-3.08,4.07c1.57,2.04,1.06,5.99,2.26,7.71,2.92,4.19,23.2,2.9,19.9,0l-4.53-.82-.25-5.91c6.13.55,12.55-2.07,17.5-5.9l-9.53-2.53c-.71-2.79,2.77-.95,3.21-2.49,1.33-4.63-2.69-4.11-2.86-4.58Z"/>
      <path class="st0" d="M976.57,1047.92l-1.58-3.34c-5.3,16.53,5.99,10.17,15.89,10.06l-6.38-4.19,6.38-5.87c-4.68-1.31-1.77,3.21-5.5,3.44-3.14.19-4.48.24-4.07-3.44l-1.57,3.33h-3.17Z"/>
      <path class="st0" d="M980.54,1071.47v1.68c1.03-.56,1.03-1.12,0-1.68Z"/>
      <rect class="st0" x="1119.75" y="1073.16" width="1.56" height="3.35"/>
      <path class="st0" d="M968.61,1078.2h-1.59c.48-.61,1-1.19,1.59-1.68v1.68Z"/>
      <path class="st0" d="M1404.5,1078.2l-1.94-6.49-2.7-.93,1.45-11.07c-4.72-3.21-8.06,10.36-9.52,2.55,2.33-3.72,5.44-4.64,9.53-4.24l-1.59-5.02,8.72-.03-.76,12.63c-8.02-.71-.65,2.53-.46,2.89,1.37,2.49.08,6.79.44,9.73h-3.18Z"/>
      <path class="st0" d="M1337.68,1078.2l.78-25.18c2.22,2.56,3.55.02,4.06,4.13.83,6.59.29,14.35,1.52,21.05h-6.36Z"/>
      <path class="st0" d="M1380.63,1078.2v-15.12s5.56-.02,5.56-.02c1.56.41.16,10.3-2.35,10.95.74.39,8.04.6,4.74,4.19h-7.95Z"/>
      <path class="st0" d="M1358.36,1078.2l3.96-18.5c3.97,5.44-.07,12.48,2.4,18.5h-6.36Z"/>
      <path class="st0" d="M1466.54,1078.2c.8-6.01-2.97-12.81,3.99-15.1l-2.4,5,3.17.84-1.59,9.26h-3.18Z"/>
      <path class="st0" d="M1428.36,1073.16c-1.05-1.3-3.07-1.95-3.21-2.85-.27-1.68.63-20.75,4.79-15.65l1.6,18.51c-1.03.14-2.17-.16-3.18-.01,1.06,1.32,2.07,1.66,3.14,2.79l.04,2.25h-6.36v-5.05c1.04-.16,2.17.16,3.18,0Z"/>
      <polygon class="st0" points="1275.64 1078.2 1272.46 1078.2 1273.27 1073.14 1277.18 1075.68 1275.64 1078.2"/>
      <path class="st0" d="M1464.95,1078.2h-6.36v-3.35c2.97-.38,5.39.02,6.36,3.35Z"/>
      <polygon class="st0" points="1291.55 1078.2 1286.78 1076.5 1286.79 1073.16 1292.87 1075.15 1293.14 1078.2 1291.55 1078.2"/>
      <polygon class="st0" points="1455.4 1078.2 1450.63 1078.2 1451.44 1074.82 1455.4 1078.2"/>
      <polygon class="st0" points="1417.22 1078.2 1415.63 1074.85 1419.6 1074.83 1420.4 1078.2 1417.22 1078.2"/>
      <polygon class="st0" points="1315.41 1078.2 1310.64 1078.2 1311.45 1074.82 1315.41 1078.2"/>
      <polygon class="st0" points="1348.82 1078.2 1348.83 1074.85 1351.19 1074.83 1352 1078.2 1348.82 1078.2"/>
      <path class="st0" d="M951.11,1078.2h-1.59,1.59Z"/>
      <path class="st0" d="M1372.68,1078.2h-1.59,1.59Z"/>
      <path class="st0" d="M1472.9,1078.2h-1.59,1.59Z"/>
      <path class="st0" d="M978.15,1014.33l-.9,6.79,7.26,2.44-4.8,5.86h-3.15s1.58-5,1.58-5c-9-1.69-7.81,5.17-10.33,11.75-3.16-3.36-3.63-16.74.62-17.57l-1.41-4.27h11.13Z"/>
      <path class="st0" d="M1200.87,1059.71h-1.58c1.36-3.15-1.61-7.76-1.61-9.25v-26.06h1.57c-.61,2.09,1.61,4.87,1.61,5.88v29.42Z"/>
      <path class="st0" d="M1421.98,1052.98l-6.33,1.68,4.76,3.37-1.25,6.48,2.83.26-2.36,8.37-5.4-1.88c1.26-9.59-4.9-18.16,7.75-18.28Z"/>
      <rect class="st0" x="1415.65" y="1061.4" width="1.56" height="3.35"/>
      <path class="st0" d="M1313.8,1056.34c.46,2.38,4.98,15.99.79,16.8-5.35,1.03-7.18-15.43-.79-16.8Z"/>
      <polygon class="st0" points="927.23 1063.09 922.48 1064.77 925.67 1067.27 922.46 1068.95 927.26 1069.8 927.25 1074.83 919.3 1074.82 920.03 1063.07 927.23 1063.09"/>
      <path class="st0" d="M903.38,982.36c-.87,1.13-2.13,1.45-2.7-1.59-.78-4.12.95-9.7-.54-14.07l4.82-2.82-1.58,18.48Z"/>
      <path class="st0" d="M911.34,1014.3l-4.88,1.21.09,3.83-4.76.02v-8.39c3.4-.04,8.26-.99,9.55,3.34Z"/>
      <polygon class="st0" points="1386.99 1052.99 1386.99 1061.39 1380.64 1061.38 1381.39 1054.62 1386.99 1052.99"/>
      <rect class="st0" x="1277.24" y="901.69" width="3.17" height="1.65"/>
      <path class="st0" d="M1293.93,903.35v1.68c1.03-.56,1.03-1.12,0-1.68Z"/>
      <path class="st0" d="M1362.34,965.56v1.68c1.03-.56,1.03-1.12,0-1.68Z"/>
      <rect class="st0" x="979.76" y="970.61" width="1.56" height="3.35"/>
      <path class="st0" d="M983.72,970.6v1.68c1.03-.56,1.03-1.12,0-1.68Z"/>
      <path class="st0" d="M1168.26,970.6v1.68c1.03-.56,1.03-1.12,0-1.68Z"/>
      <path class="st0" d="M982.13,975.64v1.68c1.03-.56,1.03-1.12,0-1.68Z"/>
      <path class="st0" d="M990.08,982.37v1.68c1.03-.56,1.03-1.12,0-1.68Z"/>
      <path class="st0" d="M920.88,1012.63c-.16.17-1.77,3.21-1.59,3.36-.23-.53-2.33-1.11-1.59-3.36.97.13,2.49-.32,3.18,0Z"/>
      <path class="st0" d="M920.88,1012.63c1.53-1.57,4.04-1.73,5.59-3.33l.77,10.04-7.74-.26c-.78-.65.03-2.53-.21-3.09h3.17c.37-2.5.21-2.56-1.58-3.36Z"/>
      <path class="st0" d="M1178.58,1032.8c-.21,7.54,3.7,8.17,9.55,5.05v10.09s-12.71-15.11-12.71-15.11l3.16-.02Z"/>
      <path class="st0" d="M1242.22,1010.97c.46,2.38-4.51,2.71-5.82,2.71-4.18,0-8.76-1.94-13.25-1.06l5.54-1.66,13.53.02Z"/>
      <path class="st0" d="M919.3,1058l7.93-5.02c.62,7.26-2.6,7.28-7.93,5.02Z"/>
      <path class="st0" d="M1282.01,1047.91c-.72.9,1.55,5.6-1.58,5.07v-13.43s6.32,9.25,6.32,9.25l-4.74-.89Z"/>
      <polygon class="st0" points="963.83 1027.78 960.76 1030.16 962.23 1036.17 954.3 1033.64 963.83 1027.78"/>
      <polygon class="st0" points="1283.61 1068.09 1277.24 1069.78 1281.21 1061.39 1283.61 1068.09"/>
      <path class="st0" d="M1353.59,1069.79c.25-.16-.21-1.18,0-1.68.92.26.03,1.5,0,1.68Z"/>
      <path class="st0" d="M1352,1068.11c.17.23-.2,1.96,1.59,1.68-.43,3.05-.34,6.43-3.99,1.69-2.6-3.38-.26-3.26,2.39-3.37Z"/>
      <path class="st0" d="M1352,1068.11c-6.56-8.57-1.16-7.17-.36-8.67s-3.8-5.51,1.14-4.79l-.86,7.47c.02,1.64,4.73-1.36,1.68,5.99-.41-.12-1.1-.02-1.59,0Z"/>
      <path class="st0" d="M903.93,1032.21c.7,1.08,4.82,2.75,3.45,5.58l-5.58.06v-10.08c2.77-.52,1.01,2.72,2.13,4.44Z"/>
      <path class="st0" d="M922.47,995.83v2.49s-4.75,4.23-4.75,4.23c-.62-4.03.74-7.13,4.75-6.72Z"/>
      <path class="st0" d="M1469.72,1061.37c-1.96.01-4.17.01-5.61,1.67-2.89,3.32.6,8.66-2.32,10.1,1.61-5.32-3.34-7.1-3.2-7.54,1.04-3.09,7.78-3.62,6.34-6.71l-6.34-4.21c5.32-3.56,6.97,3.35,11.12,6.69Z"/>
      <path class="st0" d="M1234.26,1049.61c-2.69-1.18-4.13-6.06-6.35-8.38,4.25-.32,6.95,4.11,6.35,8.38Z"/>
      <path class="st0" d="M963.83,1047.95v5.03c-1.98,2.26-9.83-6.81,0-5.03Z"/>
      <path class="st0" d="M1398.13,1071.46c-4.56.65-8.33-1.81-3.98-4.99l3.98,4.99Z"/>
      <path class="st0" d="M957.46,1051.32v1.64s-7.94,0-7.94,0c1.45-4.75,4.5-2.65,7.94-1.64Z"/>
      <rect class="st0" x="1278.83" y="1010.97" width="11.12" height="1.65"/>
      <path class="st0" d="M1217.25,1072.66c1.81,1.58,5.43-1.39,4.29,3.85-5.36,1.27-5.74-2.04-6.34-6.71,2.51-.67.95,1.9,2.05,2.85Z"/>
      <path class="st0" d="M904.97,1044.57h-6.35s0-1.66,0-1.66c3.05.27,5.38.31,4.79-3.36h1.55s.01,5.02.01,5.02Z"/>
      <polygon class="st0" points="1293.13 1059.7 1289.96 1059.72 1289.14 1051.33 1293.13 1059.7"/>
      <polygon class="st0" points="939.96 1024.39 935.21 1023.57 939.96 1019.36 939.96 1024.39"/>
      <polygon class="st0" points="963.83 1056.35 963.83 1059.7 959.06 1059.69 961.47 1056.36 963.83 1056.35"/>
      <path class="st0" d="M963.83,1016.01l-2.39,3.31c-1.7-1.5-2.89-2.55-2.37-5.01l4.76,1.7Z"/>
      <polygon class="st0" points="1396.53 1073.16 1396.53 1076.51 1394.18 1076.5 1391.78 1073.99 1396.53 1073.16"/>
      <rect class="st0" x="1156.33" y="1010.97" width="7.94" height="1.65"/>
      <rect class="st0" x="1261.33" y="1010.97" width="7.94" height="1.65"/>
      <rect class="st0" x="1243.83" y="1010.97" width="6.35" height="1.65"/>
      <rect class="st0" x="957.48" y="1010.97" width="6.35" height="1.65"/>
      <polygon class="st0" points="1261.34 1076.52 1262.11 1071.48 1264.47 1074 1261.34 1076.52"/>
      <rect class="st0" x="1267.69" y="1032.81" width="3.16" height="3.34"/>
      <path class="st0" d="M935.2,1034.5c.77.64-2.78,4.45-4.77,3.33-.77-.64,2.78-4.45,4.77-3.33Z"/>
      <rect class="st0" x="1361.55" y="1010.97" width="6.35" height="1.65"/>
      <rect class="st0" x="901.81" y="984.06" width="1.56" height="6.71"/>
      <path class="st0" d="M927.25,1044.56c-1.99,1.12-5.54-2.69-4.77-3.33,1.99-1.12,5.54,2.69,4.77,3.33Z"/>
      <path class="st0" d="M916.09,1019.36c-.61.82-4.21-2.94-3.15-5.04.61-.82,4.21,2.94,3.15,5.04Z"/>
      <path class="st0" d="M1307.44,1066.43c.39,3.09.09,4.92-2.39,6.69-.23-2.58-.59-6.27,2.39-6.69Z"/>
      <rect class="st0" x="1437.91" y="1064.77" width="6.35" height="1.65"/>
      <rect class="st0" x="1393.37" y="1052.99" width="3.16" height="3.34"/>
      <polygon class="st0" points="1471.3 1054.68 1471.3 1056.33 1466.55 1056.33 1466.55 1052.98 1471.3 1054.68"/>
      <path class="st0" d="M933.61,1021.05c.77.64-2.78,4.45-4.77,3.33-.77-.64,2.78-4.45,4.77-3.33Z"/>
      <rect class="st0" x="1256.56" y="1066.45" width="4.76" height="1.65"/>
      <rect class="st0" x="957.48" y="1066.45" width="4.76" height="1.65"/>
      <polygon class="st0" points="1441.09 1059.7 1441.87 1056.35 1445.83 1060.56 1441.09 1059.7"/>
      <rect class="st0" x="916.13" y="1046.26" width="1.56" height="5.03"/>
      <polygon class="st0" points="1270.86 1027.77 1270.08 1031.12 1267.68 1027.78 1270.86 1027.77"/>
      <polygon class="st0" points="924.06 1027.77 923.28 1031.12 920.88 1027.78 924.06 1027.77"/>
      <polygon class="st0" points="914.51 1031.12 911.35 1030.29 914.5 1027.76 914.51 1031.12"/>
      <polygon class="st0" points="1251.78 1029.43 1248.6 1029.43 1248.61 1026.08 1251.78 1029.43"/>
      <rect class="st0" x="1199.29" y="1019.37" width="4.76" height="1.65"/>
      <rect class="st0" x="1272.46" y="1010.97" width="4.76" height="1.65"/>
      <rect class="st0" x="1302.69" y="1010.97" width="4.76" height="1.65"/>
      <polygon class="st0" points="1240.63 1021.03 1237.47 1020.2 1240.62 1017.68 1240.63 1021.03"/>
      <rect class="st0" x="1355.19" y="1010.97" width="4.76" height="1.65"/>
      <polygon class="st0" points="1197.69 1014.33 1194.52 1017.67 1194.51 1014.32 1197.69 1014.33"/>
      <rect class="st0" x="1202.48" y="1014.32" width="1.56" height="3.35"/>
      <rect class="st0" x="893.85" y="1016" width="1.56" height="3.35"/>
      <rect class="st0" x="1348.82" y="1010.97" width="3.17" height="1.65"/>
      <rect class="st0" x="1317.01" y="1010.97" width="3.17" height="1.65"/>
      <rect class="st0" x="1297.92" y="1010.97" width="3.17" height="1.65"/>
      <rect class="st0" x="901.8" y="1022.74" width="3.17" height="1.65"/>
      <rect class="st0" x="922.49" y="1022.73" width="1.56" height="3.35"/>
      <rect class="st0" x="866.8" y="1024.42" width="3.17" height="1.65"/>
      <rect class="st0" x="1310.64" y="1027.78" width="3.17" height="1.65"/>
      <polygon class="st0" points="922.49 1032.81 924.05 1032.81 924.88 1037.82 922.49 1035.3 922.49 1032.81"/>
      <rect class="st0" x="1223.16" y="1036.18" width="1.56" height="3.35"/>
      <rect class="st0" x="1374.28" y="1036.19" width="3.17" height="1.65"/>
      <rect class="st0" x="1267.69" y="1037.87" width="3.17" height="1.65"/>
      <rect class="st0" x="901.81" y="992.46" width="1.56" height="3.35"/>
      <rect class="st0" x="936.8" y="1039.55" width="3.17" height="1.65"/>
      <rect class="st0" x="1269.29" y="1046.26" width="1.56" height="3.35"/>
      <polygon class="st0" points="904.96 1051.29 902.68 1048.08 898.62 1047.96 904.96 1051.29"/>
      <rect class="st0" x="1371.1" y="1054.67" width="1.56" height="3.35"/>
      <rect class="st0" x="1457" y="1059.72" width="3.17" height="1.65"/>
      <rect class="st0" x="1450.64" y="1061.4" width="3.17" height="1.65"/>
      <rect class="st0" x="1480.87" y="1068.12" width="1.56" height="3.35"/>
      <rect class="st0" x="951.12" y="1069.81" width="3.17" height="1.65"/>
      <rect class="st0" x="959.07" y="1069.81" width="3.17" height="1.65"/>
      <rect class="st0" x="-6.56" y="390.59" width="3.17" height="1.65"/>
      <path class="st0" d="M939.18,982.37c1.03.56,1.03,1.12,0,1.68v-1.68Z"/>
      <polygon class="st0" points="936 985.77 937.6 989.06 936 987.45 933.64 988.27 936 985.77"/>
      <path class="st0" d="M870.77,989.09c1.03.56,1.03,1.12,0,1.68v-1.68Z"/>
      <path class="st0" d="M928.03,999.21c.88,1.07,3.2,2.19,1.62,3.3-.77-.99-3.19-2.13-1.62-3.3Z"/>
      <path class="st0" d="M921.68,1002.54c1.03.56,1.03,1.12,0,1.68v-1.68Z"/>
      <path class="st0" d="M936,1009.27c1.03.56,1.03,1.12,0,1.68v-1.68Z"/>
      <path class="st0" d="M894.63,1010.95c1.03.56,1.03,1.12,0,1.68v-1.68Z"/>
      <path class="st0" d="M951.9,1010.95c1.03.56,1.03,1.12,0,1.68v-1.68Z"/>
      <path class="st0" d="M1166.67,1010.95c1.03.56,1.03,1.12,0,1.68v-1.68Z"/>
      <path class="st0" d="M1293.93,1010.95c1.03.56,1.03,1.12,0,1.68v-1.68Z"/>
      <path class="st0" d="M1313.02,1010.95c1.03.56,1.03,1.12,0,1.68v-1.68Z"/>
      <path class="st0" d="M1338.48,1010.95c1.03.56,1.03,1.12,0,1.68v-1.68Z"/>
      <path class="st0" d="M1343.25,1010.95c1.03.56,1.03,1.12,0,1.68v-1.68Z"/>
      <path class="st0" d="M886.68,1017.67c1.03.56,1.03,1.12,0,1.68v-1.68Z"/>
      <path class="st0" d="M932.81,1017.67c1.03.56,1.03,1.12,0,1.68v-1.68Z"/>
      <path class="st0" d="M1193.71,1019.36c1.03.56,1.03,1.12,0,1.68v-1.68Z"/>
      <path class="st0" d="M963.04,1021.04c1.03.56,1.03,1.12,0,1.68v-1.68Z"/>
      <path class="st0" d="M889.86,1022.72c1.03.56,1.03,1.12,0,1.68v-1.68Z"/>
      <path class="st0" d="M894.63,1022.72c1.03.56,1.03,1.12,0,1.68v-1.68Z"/>
      <path class="st0" d="M907.36,1022.72c1.03.56,1.03,1.12,0,1.68v-1.68Z"/>
      <path class="st0" d="M916.91,1022.72c1.03.56,1.03,1.12,0,1.68v-1.68Z"/>
      <path class="st0" d="M1257.34,1026.08c1.03.56,1.03,1.12,0,1.68v-1.68Z"/>
      <path class="st0" d="M918.5,1027.76c1.03.56,1.03,1.12,0,1.68v-1.68Z"/>
      <path class="st0" d="M1282.8,1027.76c1.03.56,1.03,1.12,0,1.68v-1.68Z"/>
      <path class="st0" d="M880.32,1029.44c1.03.56,1.03,1.12,0,1.68v-1.68Z"/>
      <path class="st0" d="M908.95,1029.44c1.03.56,1.03,1.12,0,1.68v-1.68Z"/>
      <path class="st0" d="M1305.07,1029.44c1.03.56,1.03,1.12,0,1.68v-1.68Z"/>
      <path class="st0" d="M1250.98,1034.49c1.03.56,1.03,1.12,0,1.68v-1.68Z"/>
      <path class="st0" d="M1281.21,1036.17c1.03.56,1.03,1.12,0,1.68v-1.68Z"/>
      <path class="st0" d="M932.81,1039.53c1.03.56,1.03,1.12,0,1.68v-1.68Z"/>
      <path class="st0" d="M947.13,1041.21c1.03.56,1.03,1.12,0,1.68v-1.68Z"/>
      <path class="st0" d="M1270.07,1042.89c1.03.56,1.03,1.12,0,1.68v-1.68Z"/>
      <path class="st0" d="M1362.34,1044.57c1.03.56,1.03,1.12,0,1.68v-1.68Z"/>
      <path class="st0" d="M924.86,1047.94c1.03.56,1.03,1.12,0,1.68v-1.68Z"/>
      <path class="st0" d="M947.13,1051.3c1.03.56,1.03,1.12,0,1.68v-1.68Z"/>
      <path class="st0" d="M1270.07,1051.3c1.03.56,1.03,1.12,0,1.68v-1.68Z"/>
      <path class="st0" d="M1270.07,1054.66c1.03.56,1.03,1.12,0,1.68v-1.68Z"/>
      <path class="st0" d="M1305.07,1056.34c1.03.56,1.03,1.12,0,1.68v-1.68Z"/>
      <path class="st0" d="M948.72,1058.02c1.03.56,1.03,1.12,0,1.68v-1.68Z"/>
      <path class="st0" d="M1355.98,1059.71c1.03.56,1.03,1.12,0,1.68v-1.68Z"/>
      <path class="st0" d="M481.02,1061.39c1.03.56,1.03,1.12,0,1.68v-1.68Z"/>
      <path class="st0" d="M899.41,1061.39c1.03.56,1.03,1.12,0,1.68v-1.68Z"/>
      <path class="st0" d="M889.86,1064.75c1.03.56,1.03,1.12,0,1.68v-1.68Z"/>
      <path class="st0" d="M901,1064.75c1.03.56,1.03,1.12,0,1.68v-1.68Z"/>
      <path class="st0" d="M1397.34,1064.75c1.03.56,1.03,1.12,0,1.68v-1.68Z"/>
      <path class="st0" d="M1328.93,1066.43c1.03.56,1.03,1.12,0,1.68v-1.68Z"/>
      <path class="st0" d="M910.54,1069.79c1.03.56,1.03,1.12,0,1.68v-1.68Z"/>
      <path class="st0" d="M1289.16,1069.79c1.03.56,1.03,1.12,0,1.68v-1.68Z"/>
      <path class="st0" d="M1235.07,1071.47c1.03.56,1.03,1.12,0,1.68v-1.68Z"/>
      <path class="st0" d="M1373.47,1071.47c1.03.56,1.03,1.12,0,1.68v-1.68Z"/>
      <path class="st0" d="M1378.25,1071.47c1.03.56,1.03,1.12,0,1.68v-1.68Z"/>
      <path class="st0" d="M1453.02,1071.47c1.03.56,1.03,1.12,0,1.68v-1.68Z"/>
      <path class="st0" d="M948.72,1073.16c1.03.56,1.03,1.12,0,1.68v-1.68Z"/>
      <path class="st0" d="M1282.8,1074.84c1.03.56,1.03,1.12,0,1.68v-1.68Z"/>
      <rect class="st0" x="1003.61" y="1056.36" width="3.17" height="1.65"/>
      <rect class="st0" x="1003.61" y="1063.08" width="3.17" height="1.65"/>
      <path class="st0" d="M1001.22,1054.66c1.03.56,1.03,1.12,0,1.68v-1.68Z"/>
      <rect class="st0" x="960.66" y="972.3" width="3.17" height="1.65"/>
    </g>
  </g>
</svg>