<?xml version="1.0" encoding="UTF-8"?>
<svg id="Layer_1" xmlns="http://www.w3.org/2000/svg" version="1.1" viewBox="0 0 1920 1080">
  <!-- Generator: Adobe Illustrator 29.5.1, SVG Export Plug-In . SVG Version: 2.1.0 Build 141)  -->
  <path d="M1906.82,498.65c-4.84-2.01-5.21-6.8-4.71-11.81,4.84,2.01,5.21,6.8,4.71,11.81Z"/>
  <path d="M1935.96,569.51l-4.57,3.38c1.31,3.83,8.41,3.53,1.5,5.87l2.94,1.54-1.4,14.47-3.01-.88c1.48,2.48-1.21,7.57,3.42,7.32,1.5-.08,4.48-3.24,4.17.29l-8.36,3.4-6.89-17.74,7.62,2.54c.19-3.07-9.54-9.29-4.99-10.11,3.1-.56,4.19,1.44,3.49-4.23-.72-5.89-6.57-.71-4.59-5.01,1.68-3.67,7.91-1.38,10.67-.85Z"/>
  <path d="M1931.36,628.52c-5.21-2.53.82-13.4-5.32-13.5l-.03,3.41c-4.87-.23-2.55-7.74-3.8-11.81,3.62,2.13,7.97,1.84,10.58,4.37l-1.44,17.54Z"/>
  <path d="M1738.96,1035.01h1.46s2.32-5.02,2.32-5.02l3.81,10.08c-9.68-3.28-13.23,5.48-13.73-10.1,3.98-.77,5.68.85,6.13,5.05Z"/>
  <path d="M1861.1,626.84c-5.18-1.91-1.47-6.85-1.89-10.52s-4.83-19.08-4.19-19.83c6.56-7.73,7.66,28.46,6.09,30.35Z"/>
  <path d="M1905.09,639.11c.32.19.28,2.98,3.21,3.88,6.28,1.92,14.83-2.12,18.49,4.08-10.97,1.52-21.34-5.34-32.07-1.69-.4-2.9,2.79-1.25,4.54-2.63s1.16-6.36,5.82-3.64Z"/>
  <path d="M1845.83,572.88c.49,3.16-2.88.78-4.25,1.98-1.04.9-.29,5.24-2.62,6.43-.09-8.75-5.49-2.43-9.91-7.59l16.79-.82Z"/>
  <path d="M1917.61,618.37c-4.7-.83-2.12,5.45-4.54,7.65-2.13,1.93-4.61-1.03-4.57-1.71.05-.8,3.24-2.71,3.89-4.28.72-1.75-3.17-11.41,5.23-1.65Z"/>
  <path d="M1679.35,663.95c.44.53,2.37,13.54-1.5,13.48,2.49-5.82-4.49-6.85-3.05-10.94.54-1.54,3.75-3.51,4.56-2.54Z"/>
  <path d="M1851.95,1008.01l-6.1,1.7c-1.13-9.91,4.54-10.49,6.1-1.7Z"/>
  <path d="M1690.76,378.06c6.65,9.33-3.48,4.81-3.56,3.42-.06-1,1.92-3.9,1.34-5.95,2.02-.51,1.24,1.15,2.22,2.53Z"/>
  <path d="M1730.08,611.18c2.61,1.88,8.33-1.66,8.84,2.15h-12.2c1.58-9.55,2.89-2.49,3.37-2.15Z"/>
  <polygon points="1670.19 669.02 1665.61 668.99 1669.44 660.58 1670.19 669.02"/>
  <polygon points="1931.38 502.04 1929.83 507.08 1923.75 503.68 1931.38 502.04"/>
  <polygon points="1926.79 1014.77 1923.74 1014.77 1925.28 1004.67 1926.78 1004.67 1926.79 1014.77"/>
  <rect x="1874.87" y="574.57" width="10.68" height="1.65"/>
  <path d="M1835.14,594.8v5.05c-2.94-1.75-5.56-.94-4.57-5.05h4.57Z"/>
  <path d="M1816.8,711.16c-.2.23-1-.08-1.49,0-.58-1.39.99-9.34,3.03-8.41.38.9-1.09,7.89-1.53,8.41Z"/>
  <rect x="1790.86" y="763.47" width="4.57" height="3.36"/>
  <rect x="1925.27" y="517.21" width="3.04" height="5.04"/>
  <path d="M1819.87,685.87c-2.31,2.55-6.51-5.02-2.28-5.02,1.01,0,3.16,4.05,2.28,5.02Z"/>
  <polygon points="1833.62 579.63 1832.08 586.35 1830.58 586.35 1830.58 579.62 1833.62 579.63"/>
  <rect x="1813.77" y="652.16" width="7.62" height="1.65"/>
  <path d="M1841.25,599.84h-3.04s0-5.05,0-5.05c2.21.57,3.5,2.72,3.03,5.05Z"/>
  <path d="M1931.38,513.82h-6.1s0-1.65,0-1.65c3.25-.79,4.74-2.9,6.1,1.65Z"/>
  <rect x="1764.9" y="292.89" width="7.62" height="1.65"/>
  <path d="M1931.37,633.6c1.67,1.84-1.37,5.2-3.04,3.36s1.37-5.2,3.04-3.36Z"/>
  <rect x="1824.47" y="512.16" width="6.09" height="1.65"/>
  <polygon points="1815.29 611.67 1815.28 616.71 1813.79 616.71 1812.24 611.68 1815.29 611.67"/>
  <rect x="1925.28" y="439.63" width="1.5" height="6.73"/>
  <rect x="1712.97" y="604.93" width="6.09" height="1.65"/>
  <rect x="1815.3" y="658.9" width="6.09" height="1.65"/>
  <rect x="1712.97" y="291.21" width="6.09" height="1.65"/>
  <path d="M1928.31,663.96c1.67,1.84-1.37,5.2-3.04,3.36s1.37-5.2,3.04-3.36Z"/>
  <path d="M1850.42,636.97c1.67,1.84-1.37,5.2-3.04,3.36-1.67-1.84,1.37-5.2,3.04-3.36Z"/>
  <path d="M1885.55,105.66c1.67,1.84-1.37,5.2-3.04,3.36s1.37-5.2,3.04-3.36Z"/>
  <rect x="1784.76" y="402.52" width="1.5" height="5.04"/>
  <polygon points="1940.53 93.86 1940.53 97.22 1937.49 94.68 1940.53 93.86"/>
  <rect x="1835.16" y="540.84" width="4.57" height="1.65"/>
  <rect x="1925.28" y="1058.64" width="1.5" height="5.04"/>
  <rect x="1897.78" y="534.09" width="4.57" height="1.65"/>
  <rect x="1888.62" y="653.84" width="4.57" height="1.65"/>
  <polygon points="1853.47 505.41 1853.46 508.77 1850.43 506.23 1853.47 505.41"/>
  <rect x="1682.43" y="631.91" width="1.5" height="5.04"/>
  <rect x="1841.27" y="636.98" width="3.04" height="1.65"/>
  <rect x="1893.21" y="154.58" width="1.5" height="3.36"/>
  <path d="M1661.04,642.03h1.5l.79,5.02c-1.65-1.49-2.79-2.55-2.29-5.02Z"/>
  <rect x="1682.43" y="643.72" width="1.5" height="3.36"/>
  <rect x="1813.77" y="626.86" width="3.04" height="1.65"/>
  <rect x="1787.81" y="615.05" width="3.04" height="1.65"/>
  <rect x="1894.73" y="653.84" width="1.5" height="3.36"/>
  <rect x="1807.67" y="611.68" width="3.04" height="1.65"/>
  <rect x="1913.06" y="609.98" width="1.5" height="3.36"/>
  <rect x="1807.67" y="603.23" width="1.5" height="3.36"/>
  <rect x="1911.53" y="596.5" width="3.04" height="1.65"/>
  <rect x="1838.22" y="589.74" width="1.5" height="3.36"/>
  <rect x="1897.78" y="562.76" width="3.04" height="1.65"/>
  <rect x="1815.31" y="1045.15" width="1.5" height="3.36"/>
  <rect x="1899.31" y="542.52" width="3.04" height="1.65"/>
  <rect x="1925.27" y="535.78" width="3.04" height="1.65"/>
  <rect x="1925.27" y="529.03" width="3.04" height="1.65"/>
  <rect x="1925.28" y="1082.25" width="1.5" height="3.36"/>
  <rect x="1816.84" y="692.63" width="1.5" height="3.36"/>
  <rect x="1827.53" y="927.08" width="1.5" height="3.36"/>
  <rect x="1825.99" y="1002.99" width="3.04" height="1.65"/>
  <rect x="1847.38" y="937.21" width="3.04" height="1.65"/>
  <rect x="1850.43" y="448.07" width="3.04" height="1.65"/>
  <rect x="1925.28" y="1090.69" width="1.5" height="3.36"/>
  <rect x="1923.75" y="412.64" width="1.5" height="3.36"/>
  <rect x="1688.54" y="394.09" width="1.5" height="3.36"/>
  <rect x="1833.64" y="964.19" width="1.5" height="3.36"/>
  <rect x="1926.81" y="743.23" width="1.5" height="3.36"/>
  <rect x="1826" y="975.99" width="1.5" height="3.36"/>
  <rect x="1847.38" y="977.69" width="3.04" height="1.65"/>
  <path d="M1719.83,731.41c.99.56.99,1.12,0,1.69v-1.69Z"/>
  <path d="M1703.03,685.87c.99.56.99,1.12,0,1.69v-1.69Z"/>
  <path d="M1926.03,672.38c.99.56.99,1.12,0,1.69v-1.69Z"/>
  <path d="M1672.48,672.38c.99.56.99,1.12,0,1.69v-1.69Z"/>
  <path d="M1704.56,835.99c.99.56.99,1.12,0,1.69v-1.69Z"/>
  <path d="M1875.63,647.08c.99.56.99,1.12,0,1.69v-1.69Z"/>
  <path d="M1872.57,647.08c.99.56.99,1.12,0,1.69v-1.69Z"/>
  <path d="M1828.28,647.08c.99.56.99,1.12,0,1.69v-1.69Z"/>
  <path d="M1820.64,647.08c.99.56.99,1.12,0,1.69v-1.69Z"/>
  <path d="M1941.3,643.71c.99.56.99,1.12,0,1.69v-1.69Z"/>
  <path d="M1820.64,642.02c.99.56.99,1.12,0,1.69v-1.69Z"/>
  <path d="M1816.06,642.02c.99.56.99,1.12,0,1.69v-1.69Z"/>
  <path d="M1686.23,640.33c.99.56.99,1.12,0,1.69v-1.69Z"/>
  <path d="M1930.61,638.65c.99.56.99,1.12,0,1.69v-1.69Z"/>
  <path d="M1820.64,636.96c.99.56.99,1.12,0,1.69v-1.69Z"/>
  <path d="M1906.17,625.15c.99.56.99,1.12,0,1.69v-1.69Z"/>
  <path d="M1916.87,621.78c.99.56.99,1.12,0,1.69v-1.69Z"/>
  <path d="M1785.51,615.03c.99.56.99,1.12,0,1.69v-1.69Z"/>
  <path d="M1817.59,611.66c.99.56.99,1.12,0,1.69v-1.69Z"/>
  <path d="M1814.53,604.91c.99.56.99,1.12,0,1.69v-1.69Z"/>
  <path d="M1942.83,599.85c.99.56.99,1.12,0,1.69v-1.69Z"/>
  <path d="M1904.65,599.85c.99.56.99,1.12,0,1.69v-1.69Z"/>
  <path d="M1919.92,591.42c.99.56.99,1.12,0,1.69v-1.69Z"/>
  <path d="M1919.92,581.3c.99.56.99,1.12,0,1.69v-1.69Z"/>
  <path d="M1927.56,562.75c.99.56.99,1.12,0,1.69v-1.69Z"/>
  <path d="M1855.77,552.63c.99.56.99,1.12,0,1.69v-1.69Z"/>
  <path d="M1826.75,539.13c.99.56.99,1.12,0,1.69v-1.69Z"/>
  <path d="M1932.14,535.76c.99.56.99,1.12,0,1.69v-1.69Z"/>
  <path d="M1900.06,527.33c.99.56.99,1.12,0,1.69v-1.69Z"/>
  <path d="M1927.56,525.64c.99.56.99,1.12,0,1.69v-1.69Z"/>
  <path d="M1855.77,525.64c.99.56.99,1.12,0,1.69v-1.69Z"/>
  <path d="M1849.66,927.07c.99.56.99,1.12,0,1.69v-1.69Z"/>
  <path d="M1849.66,930.44c.99.56.99,1.12,0,1.69v-1.69Z"/>
  <path d="M1941.3,503.71c.99.56.99,1.12,0,1.69v-1.69Z"/>
  <path d="M1852.72,502.03c.99.56.99,1.12,0,1.69v-1.69Z"/>
  <path d="M1877.15,500.34c.99.56.99,1.12,0,1.69v-1.69Z"/>
  <path d="M1930.61,488.53c.99.56.99,1.12,0,1.69v-1.69Z"/>
  <path d="M1826.75,942.25c.99.56.99,1.12,0,1.69v-1.69Z"/>
  <path d="M1926.03,432.87c.99.56.99,1.12,0,1.69v-1.69Z"/>
  <path d="M1926.03,427.81c.99.56.99,1.12,0,1.69v-1.69Z"/>
  <path d="M1926.03,421.06c.99.56.99,1.12,0,1.69v-1.69Z"/>
  <path d="M1933.67,412.63c.99.56.99,1.12,0,1.69v-1.69Z"/>
  <path d="M1826.75,952.37c.99.56.99,1.12,0,1.69v-1.69Z"/>
  <path d="M1834.39,952.37c.99.56.99,1.12,0,1.69v-1.69Z"/>
  <path d="M1849.66,952.37c.99.56.99,1.12,0,1.69v-1.69Z"/>
  <path d="M1677.07,392.39c.99.56.99,1.12,0,1.69v-1.69Z"/>
  <path d="M1689.29,389.02c.99.56.99,1.12,0,1.69v-1.69Z"/>
  <path d="M1826.75,962.49c.99.56.99,1.12,0,1.69v-1.69Z"/>
  <path d="M1926.03,962.49c.99.56.99,1.12,0,1.69v-1.69Z"/>
  <path d="M1689.29,370.46c.99.56.99,1.12,0,1.69v-1.69Z"/>
  <path d="M1678.59,370.46c.99.56.99,1.12,0,1.69v-1.69Z"/>
  <path d="M1926.03,974.3c.99.56.99,1.12,0,1.69v-1.69Z"/>
  <path d="M1834.39,977.67c.99.56.99,1.12,0,1.69v-1.69Z"/>
  <path d="M1834.39,986.1c.99.56.99,1.12,0,1.69v-1.69Z"/>
  <path d="M1848.13,986.1c.99.56.99,1.12,0,1.69v-1.69Z"/>
  <path d="M1926.03,989.48c.99.56.99,1.12,0,1.69v-1.69Z"/>
  <path d="M1837.44,1002.97c.99.56.99,1.12,0,1.69v-1.69Z"/>
  <path d="M1884.79,1016.46c.99.56.99,1.12,0,1.69v-1.69Z"/>
  <path d="M1926.03,1018.15c.99.56.99,1.12,0,1.69v-1.69Z"/>
  <path d="M1926.03,1024.9c.99.56.99,1.12,0,1.69v-1.69Z"/>
  <path d="M1926.03,1031.64c.99.56.99,1.12,0,1.69v-1.69Z"/>
  <path d="M1926.03,1048.51c.99.56.99,1.12,0,1.69v-1.69Z"/>
  <path d="M1926.03,1068.75c.99.56.99,1.12,0,1.69v-1.69Z"/>
  <path d="M1814.53,1092.37c.99.56.99,1.12,0,1.69v-1.69Z"/>
  <path d="M1926.03,1099.11c.99.56.99,1.12,0,1.69v-1.69Z"/>
  <path d="M1698.45,544.19c.99.56.99,1.12,0,1.69v-1.69Z"/>
  <path d="M1800.01,969.25c.24.34-.1,2.31,0,3.35-2.91.27-5.8.32-7.62-2.53.8-2.18,6.96-1.74,7.62-.82Z"/>
  <path d="M1789.33,969.25c-.82,3.35-3.26,3.79-6.11,3.34.82-3.35,3.26-3.79,6.11-3.34Z"/>
  <path d="M1799.26,1011.4c.99.56.99,1.12,0,1.69v-1.69Z"/>
  <rect x="1793.92" y="932.15" width="4.57" height="1.65"/>
  <rect x="1787.81" y="932.15" width="3.04" height="1.65"/>
</svg>