<?xml version="1.0" encoding="UTF-8"?>
<svg id="Layer_1" xmlns="http://www.w3.org/2000/svg" version="1.1" viewBox="0 0 1920 1080">
  <!-- Generator: Adobe Illustrator 29.5.1, SVG Export Plug-In . SVG Version: 2.1.0 Build 141)  -->
  <defs>
    <style>
      .st0 {
        fill: #fff;
      }
    </style>
  </defs>
  <g id="doaL8L.tif">
    <g>
      <path class="st0" d="M1329.73,46.93c-.46.02-1.88-1.78-3.2-.82-1.55,1.13-2.14,4.36-3.91,5.93-6.19,5.48-22.62,2.82-30.07,8.21l-2.6,6.84-5.67-1.54-1.62,3.39-4.75-1.7-3.86,3.22v-8.39l7.95,1.66c-1.86-5.49-9.88-2.51-7.95-10.06,6.19-.04-.09,7.61,9.53,5.02l-3.17-2.49,4.74-6.74c-4.1-4.59-6.68-5.05-11.09-.84v-8.41c4.74,1.28,9.5,6.2,14.5,5.86,8.31-.56,8.31-10.06,17.3-7.56l-1.58-6.7,3.27,4.86,7.93-.61-.03-5.85,6.32-3.44h-7.95l-.77,4.95-10.15-1.37-1.83,6.49-3.29-1.04c-3.43-13.78-14.52-7.57-23.71-4v-10.1l2.35,1.28,1.49-2.77,7.29.66-6.39-.85.96-5.1-5.71-4.97c12.87,3.86,24.82,3.76,38.17,3.37-8.58,15.69,7.86,15.54,1.59,0,12.48-1.06,26.61-.03,38.9-1.78,3.6-.51,8.6-5.84,11.29-1.66l-.87,18.57c-6.73-.16-14.56.39-21.05,2.2-2.95.82-5.29.39-4.41,4.51l27.04,5.06c.71,4.48-4.21,4.78-6.35,7.56l4.65.92.1,9.98-15.88,1.69,1.57-13.43c-5.6-2.49-6.71,3.43-7.16,3.42-1.01-.04-5.6-2.63-8.74-3.43s-1.71-.08-3.18,0h0Z"/>
      <polygon class="st0" points="1328.13 16.68 1318.62 15.81 1322.55 21.67 1328.13 16.68"/>
      <path class="st0" d="M1301.11,26.75c8.52-5.24-9.99-8.82-12.73-10.08-1.56,9.34,7.43,12.71,11.93,5.04l.8,5.04h0Z"/>
      <path class="st0" d="M1301.89,16.66v1.68c1.03-.56,1.03-1.12,0-1.68Z"/>
      <path class="st0" d="M1356.78,21.72l-15.02-1.72-.92,4.23c.87,2.93,17.34,4.66,15.94-2.51h0Z"/>
      <rect class="st0" x="1317.01" y="21.72" width="3.16" height="3.34"/>
      <polygon class="st0" points="1282 23.41 1278.83 23.4 1278.84 26.75 1282 23.41"/>
      <path class="st0" d="M1309.05,25.09c-1.99-1.12-5.54,2.69-4.77,3.33,1.99,1.12,5.54-2.69,4.77-3.33Z"/>
      <path class="st0" d="M1300.3,30.11v1.68c1.03-.56,1.03-1.12,0-1.68Z"/>
      <rect class="st0" x="1312.24" y="38.53" width="6.35" height="3.34"/>
      <path class="st0" d="M1305.86,40.22c-1.99-1.12-5.54,2.69-4.77,3.33,1.99,1.12,5.54-2.69,4.77-3.33Z"/>
      <rect class="st0" x="1307.46" y="40.21" width="3.16" height="3.34"/>
      <rect class="st0" x="1337.7" y="40.21" width="1.56" height="3.35"/>
      <path class="st0" d="M1322.57,41.88v1.68c1.03-.56,1.03-1.12,0-1.68Z"/>
      <path class="st0" d="M1343.25,41.88v1.68c1.03-.56,1.03-1.12,0-1.68Z"/>
      <rect class="st0" x="1348.82" y="41.9" width="3.17" height="1.65"/>
      <path class="st0" d="M1303.48,46.93v1.68c1.03-.56,1.03-1.12,0-1.68Z"/>
      <path class="st0" d="M1323.36,46.94c-3.62-.59-6.79.69-6.34,5.03,1.28-.81,7.88-4.29,6.34-5.03Z"/>
      <polygon class="st0" points="1355.18 50.27 1352.77 46.94 1350.42 46.93 1350.42 50.28 1355.18 50.27"/>
      <path class="st0" d="M1297.11,48.61v1.68c1.03-.56,1.03-1.12,0-1.68Z"/>
      <path class="st0" d="M1310.64,48.62c-1.99-1.12-5.54,2.69-4.77,3.33,1.99,1.12,5.54-2.69,4.77-3.33Z"/>
      <rect class="st0" x="1312.24" y="48.62" width="3.17" height="1.65"/>
      <rect class="st0" x="1299.51" y="50.31" width="3.17" height="1.65"/>
      <path class="st0" d="M1292.34,51.97v1.68c1.03-.56,1.03-1.12,0-1.68Z"/>
      <rect class="st0" x="1285.19" y="53.67" width="3.17" height="1.65"/>
      <path class="st0" d="M1354.38,53.65v1.68c1.03-.56,1.03-1.12,0-1.68Z"/>
      <path class="st0" d="M1295.52,55.33v1.68c1.03-.56,1.03-1.12,0-1.68Z"/>
      <path class="st0" d="M1332.91,46.93c1.09,7.34-1.15,9.55-6.36,4.19,2.62.26,2.94-4.03,3.18-4.19h3.18,0Z"/>
      <path class="st0" d="M1306.83,77.89c.42.19,1.79,4.3,5.39,2.68l-2.41,3.34c-3.64.9-4.61-5.92-6.58-6.62-2.73-.97-16.53,2.43-21.22-.09l7.17,8.36-15.18-4.18.24-5.67c9.97-3.13,23.23-1.96,32.59,2.18Z"/>
      <path class="st0" d="M1333.09,83.73l6.18-1.48-9.54,5.01c2.26-4.16.5-4.94-1.59-8.37,0,0,4.95,4.84,4.95,4.84Z"/>
      <path class="st0" d="M1316.75,85.87l1.83,6.44-4.78-.83c3.59-.17,4.15-3.17.79-4.19-1.61-.49-5.22,6.41-10.31,3.33l5.91-4.96,6.56.21Z"/>
      <path class="st0" d="M1342.45,55.34c1.14,6.89-3.41,6.22-7.94,6.7l7.94-6.7Z"/>
      <path class="st0" d="M1309.04,63.76l-15.89,1.65c-.27-2.54,6.05-2.28,7.74-2.33,2.74-.08,5.41.66,8.15.68Z"/>
      <path class="st0" d="M1326.53,60.38c1,6.74-11.07,2.05-14.29,3.34,2.55-4.92,10.26.05,14.29-3.34Z"/>
      <path class="st0" d="M1307.45,87.26l-4.77.02-1.56-4.23c1.66-1.06,7.28,3.49,6.33,4.2h0Z"/>
      <polygon class="st0" points="1280.4 88.98 1280.4 90.62 1274.06 90.63 1274.06 87.28 1280.4 88.98"/>
      <polygon class="st0" points="1321.77 77.21 1319.4 80.5 1315.42 78.85 1315.42 77.21 1321.77 77.21"/>
      <rect class="st0" x="1320.19" y="55.35" width="4.76" height="1.65"/>
      <rect class="st0" x="1323.37" y="77.21" width="3.17" height="1.65"/>
      <path class="st0" d="M1278.02,48.61c1.03.56,1.03,1.12,0,1.68v-1.68Z"/>
      <path class="st0" d="M1330.52,55.33c1.03.56,1.03,1.12,0,1.68v-1.68Z"/>
      <path class="st0" d="M1330.52,60.38c1.03.56,1.03,1.12,0,1.68v-1.68Z"/>
    </g>
  </g>
  <rect x="1061.2" y="762.89" width="3.72" height="5.99"/>
</svg>