<?xml version="1.0" encoding="UTF-8"?>
<svg id="Layer_1" xmlns="http://www.w3.org/2000/svg" version="1.1" viewBox="0 0 1920 1080">
  <!-- Generator: Adobe Illustrator 29.5.1, SVG Export Plug-In . SVG Version: 2.1.0 Build 141)  -->
  <defs>
    <style>
      .st0 {
        fill: #fff;
      }
    </style>
  </defs>
  <g id="doaL8L.tif">
    <g>
      <path class="st0" d="M1582.67,479.36c-1.47.71-1.47-2.39,0-1.68.07.03.07,1.65,0,1.68Z"/>
      <path class="st0" d="M1534.94,489.45c2.79.43,1.42,1.68,1.59,4.11.5,7.24-.26,14.08-1.58,21.11l6.33,1.68-1.4-30.16,4.43-.24,1.11-4.79c2.54-1.94,11.4,4.53,10.16-.92-1.27-5.63-6.92-6.15-11.67-6.03l-4.19,10.2.2-11.53,10.75-2.19,1.18-4.89,10.11-1.56c-.32,2.8.67,6.47.04,9-.48,1.9-4.02-.26-3.22,3.6.11,1.55,2.8.21,3.22,1.94,1.19,4.85-.3,17.14-.09,23.36.21,6.44,5.31,13.92-2.93,12.68l.64,3.22-5.58,2.5,6.41.03c3.37-1.27,5.25,5.92-.08,6.73l.11,2.45c8.06-1.15-4.42,30.1,7.85,21.08l-3.02-3.37,7.82-9.22c-6.62,2.27-6.97-8.25-5.59-12.62,2.35-7.4,8.88,1.95,7.18-7.56l-7.95-2.5,11.11-2.56c.88-4.53-.99-2.45-3.17-4.19l4.79-3.39c.04-5.19-9.09-1.89-6.5-10.81l-4.66-.11c6.46-7.35-1.05-15.21-1.58-23.51l15.91-.03-6.35-5.01,19.1-2.54-23.87-2.52,1.59-11.76,6.34,1.67-1.6-8.39c-2.98,2.05-5.19,6.93-8.76,8.37s-2.27-3.54-2.45-5.73c6.46-2.08,9.36-5.23,9.75-12.71,5.62.82,14.04,3.28,18.96-.9l-12.28-3.77c-7.51,5.44-5.68-1.09-9.97-7.12,8.54,3.01,13.22-1.29,21.23-1.71l1.07-4.2c-7.18-6.98-16.26-1.54-23.98-5.15l.08-5.77,22.27-2.52c-5.54-7.39-20.31,3.55-20.66-5.88l12.71-.84c-4.44-4.82-11.83-.54-17.5-2.54-1.18-6.87,8.43-.43,11.11-5.87l-11.1-2.54c3.63-5.35-3.49-10.92,3.18-12.59-8.5-3.69-3.67-18.81-6.37-27.75l6.37-1.67c-2.79-.37-4.6,1.81-4.58-2.39.06-10.34-2.26-21.63-3.06-32.08l1.3-18.52-7.96-2.5,4.73,5.88-6.33,2.54c-1.45,5.29,4.06,2.4,5.66,4.9,3.63,6.36-1.6,14.44-1.71,18.75-.15,6.06,4.32,15.23,2.52,22.49l-4.88.92c-.89,4.7,1.61,3.27,4.77,3.37l-1.6,40.34c-1.45-.87-4.29-1.37-4.74-2.93-2.6-8.97-2.71-16.4-1.6-25.65h-12.74l-.8,10.1c-7.04-.09-.74-11.75-7.13-10.11-2.03,2.33,2.11,13.15-2.38,11.78-.99-.3-2.33-7.94-10.34-.01.78-4.63,1.57-6.39-1.6-10.07l3.17-.85-3.19-4.2,4.77-3.37h-9.53l1.59,5.03-15.92,1.7c-1.72,6.47,7.45.72,9.55,3.37l-3.18,5.01,3.17,1.67c-2.64,2.28-9.18-2.62-7.94,3.38,9.55,2.09,19.99.4,29.46,1.69,2.9.39,2.57-.58,2.36,3.37h-28.63c-.63,5.95,9.94,4.62,13.5,8.47,2.07-6.79,12.28-2.19,18.3-3.41l-8.84,3.24-2.14,11.18,3.03,1.53-6.38,2.55,1.61,5.01-11.13-6.7c3.73,7.01,6.49,9.49,14.31,10.09.39.54-.92,2.21-1.58,2.55-3.84,1.96-24.86-1.89-30.22,2.47l-.02-183.25h281.58v110.97l-17.49-.03,3-1.84-1.41-6.53c5.66-1.65,2.15,5.64,3.17,6.73l9.55-.02c-2.1-7.19,3.53-14.66-4.79-17.65l4.8-.85v-11.75h-9.56l1.22,4.96,1.99.91-3.24,1.67v3.39l3.25,1.67-.14,2.41c-4.23-.37-3.19,3.16-3.06,6.84-5.34,1.18-2.6-4.03-3.15-7.46l-6.39-.98,6.37-1.67v-5.03l-7.96-.02,7.95-1.67c1.62-6.63-4.16-3.13-3.18-8.39l3.16-1.67-6.36-.02,6.37-3.37c.5-3.39-11.73-3.15-12.73-2.53-4.45,2.75,4.07,3.58,3.17,5.9-5.73,1.62-4.55-2.67-7.05-5.08-4.23-4.08-8.6,1.67-.9,4.26l-6.36.85c3.61,6.52,13.23.68,19.08,2.5-2.73,5.05-15.98,1.15-17.48,2.54-.44,2.3.56,4.05,2.65,4.75,2.7.9,8.26-1.33,8.47,1.95l-12.71,1.72c-1.62,7.28,9.74.18,11.12,5l-30.22,1.68,9.55-3.36-1.6-6.7c2.9.13,7.88.45,7.98-4.2l-6.38-.87c2.82-3.51,5.46-3.5,4.78-9.1-.22-1.79-5.96.27-4.81-4.31-7.39,4.75,1.45,6.05,1.59,7.53.47,4.95-8.67,7.33-12.7,5.89l1.59-6.71h-23.07c-1.65,0-3.15,3.73-.01,5l5.56-3.32-.07,8.99,3.26,2.75c-4.34,2.9-16.24-2.68-15.89,5.05l14.32.02-.04,16.03c7.72-.35,15.26-1.24,23.07-.88,5.71.26,14.39,1.22,20.43,1.8,1.72.16,8.85.88,9.03,3.22h-153.52l-2.39,2.52v192.5h143.17v114.32h-143.17v219.4c1.4,2.4,3.17,2.32,5.49,2.61,14.55,1.8,34.05-.51,49.29-.15,5.87.14,11.47,2.69,18.4.07l-.21,6.48-6.11,2.75,4.7,4.26-.73,3.39-3.99,1.64,3.16,8.36-4.75,1.7-3.18-10.08c2.26,7.64-3.68,15.67-2.53,22.39.52,3.06.23,5.39,4.1,4.48-1.14-3.6-4.05-15.68,2.4-15.08,3.92.36.07,7.45.8,8.36,3.01,3.75,2.71-4.33,4.75-3.34l.2,9.89c9.35,3.2,10.11,2.4,12.42-7.5l-3.09-1.67c.71-6.27,2.55-21.06,1.68-26.51-.09-.56-5.93-3.07-3.24-9.52h97.04c2.13,12.64,1.93,25.53,1.11,38.24-.23,3.55-4.34,3.98.47,8.81l-3.14.05-.05,2.49c-.22,1.57,2.26.37,2.77,1.2,3.29,5.4-1.82,52.91.43,63.54h-98.63l4.75-7.57-4.75-3.52.27-8.3,2.98-1.71c-.17-3.03-2.97-7.67-3.1-10.08-.04-.68,2.4-.55,2.93-2.03,2.95-8.22-2.88-20.75.23-29.58l-11.08-2.57c-.49,7.76-5.15,16.32-1.77,23.34l-4.8.02v8.4l-3.16-1.72-.03,5.08c-4.17-.74-2.68-7.69-1.22-10.62,1.27-2.54,4.34-2.62,4.55-3.9.67-4.03-6.86-12.77-3.32-19.1l-4.87-.92c.85-15.23-5.87-29.39-1.49-44.48l-6.35,2.52c-.48,1.48,2.68.16,3.14,1.88,1.12,4.14-2.74,21.4.03,27.53-4.81.8-2.62-1.26-3.17-4.26-1.27-6.87-.85-14.11-2.36-20.98-1.8-3.6-6.21,2.26-5.67,5.9.13.87,2.86.56,2.98,1.64.06.5.33,7.69.31,8.35-.04,1.46-5.21.11-3.22,4.31h4.78l-1.7,5.82,3.28.94-4.75,4.17,6.35,2.55-4.77,3.38,2.83,4.17-2.83,4.18,9.53,1.72-9.53,2.5,6.35,2.55-4.77,1.67c-.61,4.23,3,5.03,6.37,5.06l-4.73,4.18,7.91,4.22-9.57,5.87,2.58,3.97,5.41-1.44-4.63,3.51,1.47,3.87-3.27,1.95c3.01,5.14.24,9.23.06,14.18,1.8-1.88,3.58-5.3,4.76-5.99,4.07-2.38,14.63,2.9,12.73,9.35h-17.5c0-1.11-.03-2.24,0-3.35-1.4,1.47-1.74,3.48-3.89,3.49l-52.7.02-3.07-3.53c-1.46-.25-.3,2.43-1.08,2.96-6.03,4.07-78.9-2.22-91.99.43l1.61-569.93c3.36,3.2,16.43,1.45,17.19,1.92.61.38.86,3.02,1.95,3.85,3.28,2.51,6.11,1.72,7.87,6.84l-25.43.83v5.03c7-1,10.38,4.81,17.51,1.7-3.07,3.68-2.54,5.43-1.6,10.06-1.47,1.52-12.71-3.32-11.12,3.36,7.72-.28,16.88-3.65,23.07,3.34l.8-6.68-6.24-.18-1.72-11.59c3.21-.83,4.95,1.94,7.48,2.75,1.16.37,3.41-1.21,3.56-1.03,1.49,1.74.26,8.98,9.62,8.38-1.2,4.52-17.5-.52-9.04,5.45,3.46,2.44,5.67,1.79,5.53,9.24-.16,8.38-11.62-4.71-12.62,5.3l-9.31.17-2.39-8.38-4.68,8.6-5.65-.22,8.74,10.08c1.46-3.4,2.56-5.07,6.43-3.53l.73-4.87,3.19,5.06,4.75-1.72.02,5.07,6.22-3.23c5.58,6.69,5.04,9.67,4.9,18.35-5.72-.89-4.41,11.93-3.16,15.13,4.92-2.31,3.09-10.38,3.16-15.13l-.02-.03Z"/>
      <path class="st0" d="M1611.29,233.93c-3.44-1-6.49-3.1-7.94,1.64h7.95v-1.64h-.01Z"/>
      <polygon class="st0" points="1729.03 235.57 1726.64 232.26 1724.26 234.75 1729.03 235.57"/>
      <rect class="st0" x="1525.41" y="233.92" width="3.17" height="1.65"/>
      <rect class="st0" x="1533.36" y="233.91" width="3.16" height="3.34"/>
      <rect class="st0" x="1544.5" y="233.92" width="3.17" height="1.65"/>
      <rect class="st0" x="1576.31" y="233.92" width="3.17" height="1.65"/>
      <rect class="st0" x="1582.68" y="233.92" width="4.76" height="1.65"/>
      <rect class="st0" x="1593.81" y="233.92" width="6.35" height="1.65"/>
      <path class="st0" d="M1616.87,233.9v1.68c1.03-.56,1.03-1.12,0-1.68Z"/>
      <path class="st0" d="M1623.24,233.9v1.68c1.03-.56,1.03-1.12,0-1.68Z"/>
      <rect class="st0" x="1644.72" y="233.92" width="4.76" height="1.65"/>
      <rect class="st0" x="1679.72" y="233.92" width="4.76" height="1.65"/>
      <rect class="st0" x="1690.85" y="233.92" width="6.35" height="1.65"/>
      <path class="st0" d="M1705.96,233.9v1.68c1.03-.56,1.03-1.12,0-1.68Z"/>
      <rect class="st0" x="1711.53" y="233.92" width="6.35" height="1.65"/>
      <rect class="st0" x="1730.62" y="233.92" width="4.76" height="1.65"/>
      <rect class="st0" x="1752.9" y="233.92" width="3.17" height="1.65"/>
      <polygon class="st0" points="1770.39 237.25 1767.22 233.91 1767.21 237.26 1770.39 237.25"/>
      <path class="st0" d="M1558.82,249.01c3.62.81,5.49,3.18,7.91-.82l-2.33-2.47-5.58,1.65v1.64h0Z"/>
      <path class="st0" d="M1732.21,250.72c-2.46-6.18-9.39-2.33-13.57-2.53-1.72-.08-8.98-5.63-8.7,2.53h22.27,0Z"/>
      <path class="st0" d="M1591.42,247.35v1.68c1.03-.56,1.03-1.12,0-1.68Z"/>
      <path class="st0" d="M1599.37,247.35v1.68c1.03-.56,1.03-1.12,0-1.68Z"/>
      <rect class="st0" x="1624.04" y="247.37" width="6.35" height="1.65"/>
      <path class="st0" d="M1767.21,249.05c-4.94-.43-12.41-4.96-12.72,3.34,3.48-1.1,13.96,3.09,12.72-3.34Z"/>
      <polygon class="st0" points="1526.98 249.04 1522.23 249.04 1522.23 254.08 1526.99 252.38 1526.98 249.04"/>
      <path class="st0" d="M1536.53,249.05h-6.35v3.34c2.97.43,5.5,0,6.35-3.34Z"/>
      <path class="st0" d="M1546.07,249.04l-7.94.82c1.9,2.84,4.91,2.79,7.94,2.52v-3.34h0Z"/>
      <rect class="st0" x="1635.17" y="249.05" width="3.17" height="1.65"/>
      <polygon class="st0" points="1659.03 249.05 1654.26 249.87 1656.64 252.36 1659.03 249.05"/>
      <rect class="st0" x="1673.35" y="249.05" width="3.17" height="1.65"/>
      <rect class="st0" x="1682.9" y="249.05" width="4.76" height="1.65"/>
      <rect class="st0" x="1697.22" y="249.05" width="3.17" height="1.65"/>
      <polygon class="st0" points="1515.85 250.73 1511.09 250.73 1511.09 254.07 1513.44 254.06 1515.85 250.73"/>
      <path class="st0" d="M1574.71,254.09l-12.71,1.69,3.18,5.01-11.13,3.36,7.95-.87c4.99,5.66-2.78,2.19-1.59,7.61,3.17.27,7.02.41,7.95-3.34l-3.17-1.67,4.78-4.26-3.2-1.64,7.94-5.88h0Z"/>
      <polygon class="st0" points="1576.3 257.43 1581.9 259.07 1584.23 256.6 1582.67 254.88 1576.32 254.08 1576.3 257.43"/>
      <rect class="st0" x="1590.63" y="254.1" width="3.17" height="1.65"/>
      <path class="st0" d="M1701.98,292.75h31.02c.27,0,2.5-2.26,2.39-3.35-6-.34-12.15.52-18.15-.17-1.55-.18-5.98-.73-5.71-3.21h23.07c.33,0,2.89-2.82,2.38-3.34-12.72-2.83-26.07-.75-38.99-.87-1.37-.01-4.43-.26-3.95-2.5h60.43l-14.31,3.36,11.13,5.88-12.71.84c-.69,4.29.62,3.12,3.53,3.86,5.46,1.39,11.54-.84,17.15-.51l-7.95-6.7,9.54-.03-3.18-6.7,4.77-3.37c-24.63-.28-48.9-1.33-73.56-1.1-2.1.02-3.51,1.48-4.38-2.28h46.93c.42,0,1.59-1.93,2.36-2.52l-4.74-4.2h27.84c1.53,0,4.25,2,7.16-.02-.28-2.29-2.16-2.92-4.04-3.26-9.48-1.75-23.89,2.43-34.15-.09l6.37-3.37c-3.63-6.59-14.03-2.3-19.88-2.62-5.15-.28-21.78-3.96-24.66-.7-3.18,3.6,4.01,2.61,3.17,5l-27.03,1.71c-6.37,5.14,13.93,2.58,15.1,2.62,4.85.14,10.32.71,15.11,1.57-5.66,8.96-21.32-4.9-22.25,5.89l3.16,1.67h-11.12l4.78-1.67-3.85-4.95-8.9,1.6,6.36,5.01c-1.41,2.27-25.98-2.14-21.5,3.4l4,3.32-3.33,1.01,1.64,5.01c-6.79,1.5,1.52,5.38-1.5,10.79h71.6l-11.14-5.03v.02Z"/>
      <polygon class="st0" points="1611.28 255.77 1608.12 255.78 1609.72 260.79 1604.95 264.16 1612.9 262.48 1611.28 255.77"/>
      <rect class="st0" x="1646.31" y="255.77" width="4.76" height="3.34"/>
      <polygon class="st0" points="1659.03 259.11 1655.86 255.76 1655.86 259.11 1659.03 259.11"/>
      <rect class="st0" x="1671.76" y="255.77" width="6.35" height="3.34"/>
      <rect class="st0" x="1681.31" y="255.78" width="3.17" height="1.65"/>
      <rect class="st0" x="1738.58" y="255.77" width="6.35" height="3.34"/>
      <path class="st0" d="M1773.56,255.77c-.68-.54-10.69.27-12.95.63-2.02.32-3.52-2.84-2.94,2.71.99.2,21.45,1.09,15.89-3.34h0Z"/>
      <rect class="st0" x="1638.36" y="257.45" width="3.16" height="3.34"/>
      <rect class="st0" x="1748.12" y="257.46" width="4.76" height="1.65"/>
      <rect class="st0" x="1622.46" y="259.13" width="1.56" height="3.35"/>
      <path class="st0" d="M1502.49,260.91c-8.05,1.99,8.27,9.5,11.74,2.41,0-2.46-10.48-2.72-11.74-2.41Z"/>
      <polygon class="st0" points="1544.49 264.15 1542.08 260.81 1538.13 263.33 1544.49 264.15"/>
      <polygon class="st0" points="1552.43 260.81 1546.09 260.81 1546.09 264.16 1552.44 264.16 1552.43 260.81"/>
      <path class="st0" d="M1615.28,260.8v1.68c1.03-.56,1.03-1.12,0-1.68Z"/>
      <rect class="st0" x="1517.45" y="262.5" width="3.17" height="1.65"/>
      <rect class="st0" x="1533.36" y="262.5" width="3.17" height="1.65"/>
      <path class="st0" d="M1593.01,262.49v1.68c1.03-.56,1.03-1.12,0-1.68Z"/>
      <path class="st0" d="M1599.37,262.49v1.68c1.03-.56,1.03-1.12,0-1.68Z"/>
      <rect class="st0" x="1641.54" y="262.49" width="3.16" height="3.34"/>
      <path class="st0" d="M1660.62,262.5c-3.07,1.16-13.85-3.22-12.72,3.34l12.72-3.34Z"/>
      <rect class="st0" x="1544.5" y="267.55" width="3.17" height="1.65"/>
      <path class="st0" d="M1556.42,267.53v1.68c1.03-.56,1.03-1.12,0-1.68Z"/>
      <rect class="st0" x="1590.63" y="267.54" width="4.76" height="3.34"/>
      <rect class="st0" x="1603.37" y="267.54" width="1.56" height="3.35"/>
      <polygon class="st0" points="1611.3 270.88 1611.29 267.53 1608.13 270.06 1611.3 270.88"/>
      <path class="st0" d="M1654.26,269.22l-10.11-1.51-2.62,4.85c3.49-1.1,13.95,3.1,12.73-3.34Z"/>
      <path class="st0" d="M1736.98,272.57h25.45c.19-3.86.59-3.01-2.35-3.37-4.83-.6-14.45-.99-19.15-.1-2.98.56-4.66-1.38-3.95,3.47Z"/>
      <path class="st0" d="M1599.37,269.21v1.68c1.03-.56,1.03-1.12,0-1.68Z"/>
      <rect class="st0" x="1765.62" y="269.22" width="6.35" height="3.34"/>
      <rect class="st0" x="1517.45" y="272.59" width="3.17" height="1.65"/>
      <path class="st0" d="M1524.6,272.57v1.68c1.03-.56,1.03-1.12,0-1.68Z"/>
      <path class="st0" d="M1510.29,274.25v1.68c1.03-.56,1.03-1.12,0-1.68Z"/>
      <path class="st0" d="M1566.75,274.26c-2.96,1.02-12.34-3.01-11.12,3.35,3.13-2.25,12.52,2.88,11.12-3.35Z"/>
      <path class="st0" d="M1612.89,274.27c-4.8,1.77-9.01.33-13.65.18-3.2-.11-3.89,1.85-2.25,3.16,4.91-.73,13.17,2.54,15.9-3.34Z"/>
      <rect class="st0" x="1585.86" y="275.95" width="3.17" height="1.65"/>
      <rect class="st0" x="1616.08" y="275.95" width="3.17" height="1.65"/>
      <rect class="st0" x="1765.62" y="275.95" width="4.76" height="1.65"/>
      <path class="st0" d="M1568.34,280.99c-3.48-.08-8.31-.93-9.54,3.34h9.54v-3.34Z"/>
      <rect class="st0" x="1582.68" y="280.99" width="9.53" height="3.34"/>
      <path class="st0" d="M1614.48,280.99c-4.47.2-9.06-.32-13.54,0-3.18.22-4.6-1.33-3.94,3.36,4.36-2.78,18.07,4.13,17.48-3.35h0Z"/>
      <path class="st0" d="M1625.61,281l-7.94.82c2.06,3.5,4.66.84,7.94.83v-1.65Z"/>
      <path class="st0" d="M1634.37,280.98v1.68c1.03-.56,1.03-1.12,0-1.68Z"/>
      <path class="st0" d="M1542.1,282.66v1.68c1.03-.56,1.03-1.12,0-1.68Z"/>
      <path class="st0" d="M1775.16,286.01c-1.23-4.26-6.05-3.42-9.54-3.34v3.34h9.54Z"/>
      <rect class="st0" x="1523.82" y="287.71" width="3.16" height="3.34"/>
      <polygon class="st0" points="1589.03 291.05 1585.87 287.7 1585.86 291.06 1589.03 291.05"/>
      <rect class="st0" x="1590.64" y="287.71" width="1.56" height="3.35"/>
      <polygon class="st0" points="1606.52 287.71 1604.17 287.72 1601.76 291.05 1606.52 291.06 1606.52 287.71"/>
      <polygon class="st0" points="1614.49 291.05 1612.08 287.71 1608.13 290.23 1614.49 291.05"/>
      <rect class="st0" x="1616.08" y="287.71" width="4.76" height="3.34"/>
      <path class="st0" d="M1502.33,289.39v1.68c1.03-.56,1.03-1.12,0-1.68Z"/>
      <path class="st0" d="M1516.65,289.39v1.68c1.03-.56,1.03-1.12,0-1.68Z"/>
      <rect class="st0" x="1764.03" y="289.39" width="9.53" height="3.34"/>
      <rect class="st0" x="1515.86" y="292.76" width="3.16" height="3.34"/>
      <polygon class="st0" points="1606.52 294.44 1598.59 294.44 1598.59 297.79 1606.52 297.79 1606.52 294.44"/>
      <rect class="st0" x="1608.13" y="294.44" width="6.35" height="3.34"/>
      <rect class="st0" x="1619.27" y="294.44" width="3.16" height="3.34"/>
      <polygon class="st0" points="1773.57 294.43 1764.02 294.42 1764.02 304.53 1773.58 304.5 1773.57 294.43"/>
      <path class="st0" d="M1586.65,296.11v1.68c1.03-.56,1.03-1.12,0-1.68Z"/>
      <rect class="st0" x="1590.63" y="296.13" width="3.17" height="1.65"/>
      <polygon class="st0" points="1719.47 296.12 1714.72 296.13 1714.72 297.77 1719.46 299.47 1719.47 296.12"/>
      <polygon class="st0" points="1725.83 301.16 1721.86 299.51 1719.49 304.51 1723.46 306.16 1725.83 301.16"/>
      <rect class="st0" x="1499.95" y="301.17" width="3.17" height="1.65"/>
      <rect class="st0" x="1552.45" y="301.16" width="4.76" height="3.34"/>
      <path class="st0" d="M1601.75,301.16l-6.35.82c1.71,2.59,3.41,2.93,6.35,2.52v-3.34Z"/>
      <polygon class="st0" points="1608.11 301.16 1605.76 301.17 1603.35 304.5 1608.11 304.51 1608.11 301.16"/>
      <rect class="st0" x="1641.54" y="301.16" width="9.53" height="3.34"/>
      <path class="st0" d="M1663.8,304.5c-1.23-4.26-6.05-3.42-9.54-3.34v3.34h9.54Z"/>
      <path class="st0" d="M1682.9,301.16h-15.91c.19,4.92,5.46,5.28,0,9.25l4.77.85-4.77,8.37c2.43.32,4.59,1.74,7.12,1.72,2.13-.02,15.76-2.87,10.4-5.93l-6.38-4.16,19.05-.85-20.64-2.54,6.37-1.67v-5.03h-.01Z"/>
      <path class="st0" d="M1690.85,301.17c-3.01-.56-5.29,1.96-4.76,5.03l4.76-5.03Z"/>
      <rect class="st0" x="1533.37" y="302.84" width="1.56" height="3.35"/>
      <path class="st0" d="M1577.1,302.84v1.68c1.03-.56,1.03-1.12,0-1.68Z"/>
      <path class="st0" d="M1612.1,302.84v1.68c1.03-.56,1.03-1.12,0-1.68Z"/>
      <rect class="st0" x="1619.27" y="302.85" width="3.17" height="1.65"/>
      <path class="st0" d="M1526.19,304.52v1.68c1.03-.56,1.03-1.12,0-1.68Z"/>
      <rect class="st0" x="1598.59" y="306.21" width="3.17" height="1.65"/>
      <rect class="st0" x="1635.17" y="307.9" width="3.17" height="1.65"/>
      <path class="st0" d="M1531.76,309.56v28.58c3.57.21,2.9.64,3.23-2.53s.29-15.01.09-18.48c-.17-2.98.19-6.6-3.32-7.58h0Z"/>
      <rect class="st0" x="1654.26" y="309.58" width="4.76" height="1.65"/>
      <path class="st0" d="M1522.22,316.27c-1.23-4.26-6.05-3.42-9.54-3.34v3.34h9.54Z"/>
      <polygon class="st0" points="1601.76 317.95 1599.35 314.62 1597 314.61 1596.99 317.96 1601.76 317.95"/>
      <polygon class="st0" points="1540.53 316.32 1538.16 318.81 1540.53 321.29 1540.53 316.32"/>
      <polygon class="st0" points="1663.8 319.63 1661.39 316.3 1659.04 316.29 1659.04 319.64 1663.8 319.63"/>
      <path class="st0" d="M1548.47,317.97v1.68c1.03-.56,1.03-1.12,0-1.68Z"/>
      <path class="st0" d="M1643.92,319.65v1.68c1.03-.56,1.03-1.12,0-1.68Z"/>
      <polygon class="st0" points="1608.12 324.67 1605.74 321.36 1603.36 323.86 1608.12 324.67"/>
      <polygon class="st0" points="1663.79 324.68 1663.79 321.33 1660.63 323.86 1663.79 324.68"/>
      <path class="st0" d="M1697.2,338.13l-.73-15.13-13.58.03c2.43,3.84,4.36,4.14,0,7.56l3.17.85-3.16,1.67,1.57,4.25,12.73.78h0Z"/>
      <rect class="st0" x="1589.04" y="323.03" width="3.17" height="1.65"/>
      <path class="st0" d="M1599.37,323.01v1.68c1.03-.56,1.03-1.12,0-1.68Z"/>
      <rect class="st0" x="1609.72" y="323.03" width="4.76" height="1.65"/>
      <polygon class="st0" points="1620.84 323.02 1616.08 323.03 1616.09 324.67 1620.83 326.37 1620.84 323.02"/>
      <rect class="st0" x="1670.17" y="323.03" width="4.76" height="1.65"/>
      <path class="st0" d="M1678.91,323.01v1.68c1.03-.56,1.03-1.12,0-1.68Z"/>
      <rect class="st0" x="1641.54" y="324.7" width="3.16" height="3.34"/>
      <polygon class="st0" points="1649.48 328.06 1646.31 328.89 1649.47 331.42 1649.48 328.06"/>
      <path class="st0" d="M1678.11,328.06c-5.1,1.82-14.23.3-17.49,5.02l11.13.03-3.17,5.02,6.97-.26,2.56-9.81h0Z"/>
      <path class="st0" d="M1543.91,333.48c.49.82-1.77,2-.23,2.95l2.39-4.14-2.38-2.51-2.36,3.3c.76.04,2.26-.11,2.57.41h.01Z"/>
      <path class="st0" d="M1578.69,329.73v1.68c1.03-.56,1.03-1.12,0-1.68Z"/>
      <path class="st0" d="M1620.05,329.73v1.68c1.03-.56,1.03-1.12,0-1.68Z"/>
      <rect class="st0" x="1643.14" y="329.74" width="1.56" height="3.35"/>
      <rect class="st0" x="1554.05" y="331.42" width="1.56" height="3.35"/>
      <polygon class="st0" points="1511.07 338.13 1510.29 334.79 1507.9 338.12 1511.07 338.13"/>
      <rect class="st0" x="1515.86" y="336.48" width="3.17" height="1.65"/>
      <rect class="st0" x="1499.95" y="341.51" width="4.76" height="3.34"/>
      <path class="st0" d="M1515.85,344.85c1.94-1.51-8.01-5.32-9.54-.82l9.54.82Z"/>
      <polygon class="st0" points="1526.99 341.52 1520.63 342.34 1524.58 344.86 1526.99 341.52"/>
      <rect class="st0" x="1533.36" y="341.51" width="3.16" height="3.34"/>
      <rect class="st0" x="1539.73" y="341.51" width="3.16" height="3.34"/>
      <path class="st0" d="M1550.06,343.18v1.68c1.03-.56,1.03-1.12,0-1.68Z"/>
      <rect class="st0" x="1576.31" y="343.2" width="3.17" height="1.65"/>
      <path class="st0" d="M1511.08,351.57l-11.13-3.34c-1.32,6.24,7.76,2.4,11.13,3.34Z"/>
      <rect class="st0" x="1533.36" y="349.92" width="3.16" height="3.34"/>
      <path class="st0" d="M1540.51,349.91v1.68c1.03-.56,1.03-1.12,0-1.68Z"/>
      <path class="st0" d="M1529.38,354.95v1.68c1.03-.56,1.03-1.12,0-1.68Z"/>
      <polygon class="st0" points="1526.99 356.65 1523.82 356.64 1523.82 360 1526.99 356.65"/>
      <rect class="st0" x="1581.09" y="370.09" width="3.16" height="3.34"/>
      <rect class="st0" x="1573.14" y="376.82" width="1.56" height="3.35"/>
      <rect class="st0" x="1576.32" y="378.5" width="1.56" height="3.35"/>
      <polygon class="st0" points="1504.71 395.29 1503.93 391.95 1501.54 395.29 1504.71 395.29"/>
      <path class="st0" d="M1520.62,391.95c-3.41,2.46-13.99-3.26-12.71,3.35,3.07-1.18,13.84,3.21,12.71-3.35Z"/>
      <path class="st0" d="M1514.26,402.05l-6.35-1.7v3.33c2.28.13,4.04,2,6.34,1.7v-3.33h.01Z"/>
      <polygon class="st0" points="1504.71 402.04 1501.54 402.04 1503.93 405.38 1504.71 402.04"/>
      <rect class="st0" x="1579.5" y="439.03" width="4.76" height="1.65"/>
      <rect class="st0" x="1581.09" y="447.43" width="3.16" height="3.34"/>
      <path class="st0" d="M1582.67,477.68c-2.87-1.86-6.59-6.07-10.67-.87l1.04,5.03,8.81,2.59c1.87-.05.24-4.28.82-5.07.31-.43,3.31.92,3.2-.84.22-1.74-2.43-.34-3.2-.84Z"/>
      <path class="st0" d="M1508.7,476v1.68c1.03-.56,1.03-1.12,0-1.68Z"/>
      <path class="st0" d="M1523.01,482.73v1.68c1.03-.56,1.03-1.12,0-1.68Z"/>
      <polygon class="st0" points="1501.53 489.44 1501.52 486.09 1498.36 488.62 1501.53 489.44"/>
      <path class="st0" d="M1555.66,504.58c1.89,1.61,5.87-11.3,4.08-13.54l-15.25-2.51-1.58,4.27,3.17,1.67-3.16,2.51c3.91,5.91,12.43-.01,12.75,7.59h-.01Z"/>
      <polygon class="st0" points="1514.26 492.8 1511.1 489.45 1511.09 492.8 1514.26 492.8"/>
      <path class="st0" d="M1526.98,497.87c-5.78-.05-6.27,7.53-4.75,11.75,5.15,1.21,3.68-8.89,4.75-11.75Z"/>
      <rect class="st0" x="1554.04" y="509.64" width="3.17" height="1.65"/>
      <rect class="st0" x="1522.23" y="511.32" width="3.16" height="3.34"/>
      <path class="st0" d="M1585.06,511.31v1.68c1.03-.56,1.03-1.12,0-1.68Z"/>
      <path class="st0" d="M1543.69,516.35v1.68c1.03-.56,1.03-1.12,0-1.68Z"/>
      <path class="st0" d="M1533.35,531.47c-.73-8.81-4.56-2-7.11-2.25-1.11-.11-2.53-2.38-4.75-2.51-6.1-.34-13.52.96-19.94-.27-.6,3.71.27,3.37,3.1,4.19,9.46,2.77,19.16,2.29,28.7.83h0Z"/>
      <polygon class="st0" points="1557.21 529.79 1557.2 526.44 1554.04 528.97 1557.21 529.79"/>
      <polygon class="st0" points="1574.71 533.15 1574.7 529.8 1571.54 532.33 1574.71 533.15"/>
      <path class="st0" d="M1515.84,534.85c-5.75,3.02-15.68-4.88-19.07,1.66,5.73,2.06,9.39,3.97,15.56,2.22,2.85-.81,4.23.45,3.51-3.88h0Z"/>
      <polygon class="st0" points="1539.61 535.04 1528.59 536.51 1538.12 536.54 1532.54 539.9 1547.67 546.6 1544.49 541.59 1549.25 539.91 1539.74 539.88 1539.61 535.04"/>
      <rect class="st0" x="1514.27" y="539.9" width="3.17" height="1.65"/>
      <path class="st0" d="M1524.6,541.57v1.68c1.03-.56,1.03-1.12,0-1.68Z"/>
      <path class="st0" d="M1551.65,546.61v1.68c1.03-.56,1.03-1.12,0-1.68Z"/>
      <polygon class="st0" points="1639.93 546.62 1637.58 546.63 1635.17 549.96 1639.93 549.97 1639.93 546.62"/>
      <polygon class="st0" points="1649.48 546.62 1647.12 546.63 1644.71 549.96 1649.48 549.97 1649.48 546.62"/>
      <rect class="st0" x="1628.81" y="548.31" width="4.76" height="1.65"/>
      <rect class="st0" x="1652.67" y="548.31" width="6.35" height="1.65"/>
      <path class="st0" d="M1696.41,548.29v1.68c1.03-.56,1.03-1.12,0-1.68Z"/>
      <rect class="st0" x="1700.39" y="549.98" width="3.18" height="26.9"/>
      <rect class="st0" x="1574.72" y="553.35" width="3.17" height="1.65"/>
      <path class="st0" d="M1563.58,556.7v23.54c4.72.78,2.62-1.17,3.26-4.13,1.13-5.17.65-11.58-.13-16.88-.43-2.9.89-2.81-3.13-2.52h0Z"/>
      <path class="st0" d="M1588.24,558.38v1.68c1.03-.56,1.03-1.12,0-1.68Z"/>
      <rect class="st0" x="1665.41" y="563.43" width="1.56" height="3.35"/>
      <rect class="st0" x="1514.27" y="575.21" width="3.17" height="1.65"/>
      <rect class="st0" x="1496.78" y="578.56" width="1.56" height="3.35"/>
      <path class="st0" d="M1626.82,597.46c-1.53-1.65-8.81-4.17-7.54.39.6,2.15,7.59,11.56,9.51,9.27.06-2.82-.06-7.61-1.97-9.67h0Z"/>
      <path class="st0" d="M1633.59,605.45l-3.18-6.71.12,11.54c7.64,2.33,12.21,4.83,16.58,11.98l-.78-5.91,3.15-.82c-.87,6.54,1.94,9.43,7.96,10.13-.29,3.44-7.11,6.89-2.39,10.03l3.17-6.68c5.41,8.94,16.51,6.78,16.81,18.42l4.67.08c1.48-9.91,1.39-13.21-7.24-18.45l-4.67,3.29c-2.82-5.07-7.85-7.96-11.16-11.79-1.47-1.7-1.81-5.85-2.68-6.43-1.39-.92-4.41.39-5.78-.53-.71-.48-4.93-10.77-10.65-13.18-4.28-1.8-.63,5.69-3.94,5.02h.01Z"/>
      <rect class="st0" x="1725.85" y="603.78" width="3.16" height="3.34"/>
      <rect class="st0" x="1737" y="603.78" width="1.56" height="3.35"/>
      <rect class="st0" x="1651.08" y="607.15" width="3.16" height="3.34"/>
      <rect class="st0" x="1659.04" y="610.51" width="3.16" height="3.34"/>
      <path class="st0" d="M1703.56,637.4c-.69-8.83,2.06-18.88-2.36-26.89l-.86,21.07,3.23,5.82h-.01Z"/>
      <rect class="st0" x="1730.63" y="610.51" width="1.56" height="3.35"/>
      <path class="st0" d="M1565.97,612.18v1.68c1.03-.56,1.03-1.12,0-1.68Z"/>
      <path class="st0" d="M1666.19,612.18v1.68c1.03-.56,1.03-1.12,0-1.68Z"/>
      <rect class="st0" x="1684.49" y="612.2" width="3.17" height="1.65"/>
      <path class="st0" d="M1738.57,612.2c-6.21-1.22-2.07,10.19-3.16,13.43l3.16-13.43Z"/>
      <rect class="st0" x="1721.09" y="627.32" width="1.56" height="3.35"/>
      <path class="st0" d="M1738.55,639.08c.04-3.7.91-8.79-3.15-10.09-.04,3.7-.91,8.79,3.15,10.09Z"/>
      <path class="st0" d="M1647.88,632.38c-3.6-.28-12.36-2.74-14.3,1.64l14.3-1.64Z"/>
      <path class="st0" d="M1728.23,630.67v1.68c1.03-.56,1.03-1.12,0-1.68Z"/>
      <rect class="st0" x="1627.22" y="640.77" width="3.16" height="3.34"/>
      <path class="st0" d="M1696.41,640.76v1.68c1.03-.56,1.03-1.12,0-1.68Z"/>
      <rect class="st0" x="1729.03" y="642.45" width="3.16" height="3.34"/>
      <rect class="st0" x="1565.18" y="719.8" width="3.17" height="1.65"/>
      <rect class="st0" x="1565.18" y="743.33" width="3.16" height="3.34"/>
      <path class="st0" d="M1560.41,793.76c-1.88,9.27,7.55,12.53,7.93,2.53l-7.93-2.53Z"/>
      <path class="st0" d="M1554.83,822.33v1.68c1.03-.56,1.03-1.12,0-1.68Z"/>
      <rect class="st0" x="1565.18" y="844.21" width="3.17" height="1.65"/>
      <polygon class="st0" points="1686.09 877.81 1689.22 875.29 1686.86 872.78 1686.09 877.81"/>
      <path class="st0" d="M1759.23,872.77l-3.07,4.08,7.88,43.81-4.79,1.71c10.77,2.03,2.23,5.05,1.27,8.24-1.09,3.62.15,7.38-1.1,10.93l4.58,1.86,1.59-5.06,1.59,16.8-4.74-10.08c.3,1.53-1,3.14-.92,4.25.26,3.69,6.23,24.6,7.75,29.73.52,1.76.41,5.08,2.69,4.68l-4.74-26.88c4.22,1.07,2.09,17.8,7.96,14.26l-15.95-98.33h0Z"/>
      <path class="st0" d="M1663.79,882.86c0-6.17-4.74-6.17-4.74,0h4.74Z"/>
      <path class="st0" d="M1767.22,881.19c5.56-3.53,1.04,1.3.67,3.24-.42,2.17-.97,6.78,1.71,6.79,3.6.01.02-9.78,3.94-10.89l-6.31.85h0Z"/>
      <path class="st0" d="M1693.23,879.5v1.68c1.03-.56,1.03-1.12,0-1.68Z"/>
      <path class="st0" d="M1704.37,879.5v1.68c1.03-.56,1.03-1.12,0-1.68Z"/>
      <path class="st0" d="M1719.47,884.53c1.63-1.74-3.16-6.74-4.76-5.03s3.16,6.74,4.76,5.03Z"/>
      <path class="st0" d="M1639.14,881.18v1.68c1.03-.56,1.03-1.12,0-1.68Z"/>
      <polygon class="st0" points="1730.61 886.21 1730.6 882.86 1727.44 885.39 1730.61 886.21"/>
      <rect class="st0" x="1682.91" y="887.91" width="1.56" height="3.35"/>
      <rect class="st0" x="1682.9" y="894.64" width="3.16" height="3.34"/>
      <polygon class="st0" points="1706.75 898 1703.58 898 1703.59 903.03 1706.74 900.49 1706.75 898"/>
      <path class="st0" d="M1727.43,901.33c.77-.64-2.78-4.45-4.77-3.33-.77.64,2.78,4.45,4.77,3.33Z"/>
      <polygon class="st0" points="1694.03 903.02 1690.86 899.67 1690.85 903.02 1694.03 903.02"/>
      <rect class="st0" x="1771.99" y="901.36" width="3.16" height="3.34"/>
      <path class="st0" d="M1683.69,903.03v1.68c1.03-.56,1.03-1.12,0-1.68Z"/>
      <rect class="st0" x="1717.9" y="906.41" width="3.17" height="1.65"/>
      <path class="st0" d="M1685.28,908.08v1.68c1.03-.56,1.03-1.12,0-1.68Z"/>
      <rect class="st0" x="1697.22" y="908.09" width="3.16" height="3.34"/>
      <rect class="st0" x="1757.68" y="911.45" width="1.56" height="3.35"/>
      <rect class="st0" x="1665.41" y="913.13" width="1.56" height="3.35"/>
      <path class="st0" d="M1666.19,919.84v1.68c1.03-.56,1.03-1.12,0-1.68Z"/>
      <path class="st0" d="M1704.37,926.57v1.68c1.03-.56,1.03-1.12,0-1.68Z"/>
      <path class="st0" d="M1585.06,934.98v1.68c1.03-.56,1.03-1.12,0-1.68Z"/>
      <path class="st0" d="M1756.87,940.02v1.68c1.03-.56,1.03-1.12,0-1.68Z"/>
      <rect class="st0" x="1585.86" y="941.71" width="3.16" height="3.34"/>
      <polygon class="st0" points="1701.97 951.79 1701.19 946.75 1698.83 949.27 1701.97 951.79"/>
      <polygon class="st0" points="1686.06 953.46 1686.06 950.11 1682.9 952.64 1686.06 953.46"/>
      <rect class="st0" x="1757.68" y="953.48" width="1.56" height="5.03"/>
      <polygon class="st0" points="1716.29 958.5 1716.28 955.15 1713.13 957.68 1716.29 958.5"/>
      <polygon class="st0" points="1694.02 961.87 1693.24 956.84 1690.86 959.38 1690.85 961.87 1694.02 961.87"/>
      <path class="st0" d="M1687.66,958.51c-3.87-.23-2.8-.54-3.09,2.52-.56,6.02,2.46,13.2-.08,19.32,1.42-.83,12.6.42,10.35-3.36l-5.53-2.63c3.01-8.29-3.3-7.42-1.65-15.85h0Z"/>
      <rect class="st0" x="1722.67" y="958.53" width="3.17" height="1.65"/>
      <path class="st0" d="M1758.46,961.88v1.68c1.03-.56,1.03-1.12,0-1.68Z"/>
      <rect class="st0" x="1692.45" y="968.61" width="1.56" height="3.35"/>
      <rect class="st0" x="1700.4" y="968.62" width="3.17" height="1.65"/>
      <path class="st0" d="M1759.24,973.65c-5.83.03-5.83,5,0,5.03v-5.03Z"/>
      <rect class="st0" x="1503.14" y="977.02" width="3.16" height="3.34"/>
      <path class="st0" d="M1739.37,980.37v1.68c1.03-.56,1.03-1.12,0-1.68Z"/>
      <path class="st0" d="M1554.05,444.08l4.45.84c-2.73,5.61,6.77,6.16,3.49,15.96l-9.55-1.7c.74-1.85,1.69-3.74,1.65-5.85-.17-8.98-3.81-5.85-8-10.93,5.48,1.18,4.73-3.42,7.94-5.05l.03,6.73h0Z"/>
      <path class="st0" d="M1552.44,405.41l7.02-1.51c8.46,8.17-8.18,13.33-7.02,1.51Z"/>
      <path class="st0" d="M1734.34,566.09l-6.6.54-2.87,6.47c-5.66-8.87,1.9-11.74,9.87-15.81l-.39,8.8h-.01Z"/>
      <path class="st0" d="M1673.35,985.4h-7.95v-3.34c3.03-.25,6.98-.46,7.95,3.34Z"/>
      <polygon class="st0" points="1561.99 388.59 1560.38 393.62 1552.45 390.24 1561.99 388.59"/>
      <path class="st0" d="M1541.3,388.59v1.64c-3.7.99-6.79,3.28-9.53-.83l9.53-.82h0Z"/>
      <polygon class="st0" points="1560.38 402.03 1554.05 398.64 1554.04 397 1560.38 395.3 1560.38 402.03"/>
      <path class="st0" d="M1531.77,403.7v-3.34l3.97-1.66,2.35,2.48c-1.69,2.6-3.41,2.91-6.32,2.51h0Z"/>
      <path class="st0" d="M1654.26,968.59v-3.34l6.34-1.7c.42,4.24-2.52,5.68-6.34,5.03h0Z"/>
      <polygon class="st0" points="1560.39 417.17 1560.38 422.2 1555.63 420.5 1555.63 417.17 1560.39 417.17"/>
      <polygon class="st0" points="1541.3 368.41 1541.3 375.12 1538.13 375.11 1538.13 368.42 1541.3 368.41"/>
      <polygon class="st0" points="1657.42 933.29 1654.29 930.77 1656.65 928.26 1657.42 933.29"/>
      <polygon class="st0" points="1734.76 607.05 1732.25 613.8 1729.82 613.8 1729.81 607.04 1734.76 607.05"/>
      <rect class="st0" x="1655.86" y="958.52" width="3.16" height="3.34"/>
      <polygon class="st0" points="1541.31 410.42 1536.54 409.6 1538.92 407.1 1541.31 410.42"/>
      <rect class="st0" x="1649.49" y="953.48" width="3.16" height="3.34"/>
      <polygon class="st0" points="1541.3 376.82 1541.29 380.17 1538.13 377.64 1541.3 376.82"/>
      <polygon class="st0" points="1534.94 418.85 1534.93 422.2 1531.77 419.67 1534.94 418.85"/>
      <rect class="st0" x="1539.72" y="467.61" width="4.76" height="1.65"/>
      <rect class="st0" x="1732.29" y="288.31" width="7.42" height="2.21"/>
      <rect class="st0" x="1706.76" y="306.21" width="3.17" height="1.65"/>
      <rect class="st0" x="1711.53" y="306.21" width="3.17" height="1.65"/>
      <rect class="st0" x="1749.71" y="319.66" width="3.17" height="1.65"/>
      <polygon class="st0" points="1526.98 464.25 1526.98 465.9 1522.25 466.77 1524.63 464.25 1526.98 464.25"/>
      <rect class="st0" x="1539.73" y="457.52" width="1.56" height="3.35"/>
      <rect class="st0" x="1654.26" y="971.98" width="3.17" height="1.65"/>
      <rect class="st0" x="1539.72" y="442.39" width="3.17" height="1.65"/>
      <rect class="st0" x="1550.86" y="433.99" width="3.17" height="1.65"/>
      <rect class="st0" x="1550.87" y="427.25" width="1.56" height="3.35"/>
      <rect class="st0" x="1665.41" y="950.12" width="1.56" height="3.35"/>
      <rect class="st0" x="1568.37" y="395.31" width="1.56" height="3.35"/>
      <rect class="st0" x="1536.55" y="393.63" width="1.56" height="3.35"/>
      <rect class="st0" x="1531.78" y="393.63" width="1.56" height="3.35"/>
      <path class="st0" d="M1708.7,597.99c1.61.75,1.61,1.51,0,2.26v-2.26Z"/>
      <path class="st0" d="M1723.59,555.04c1.61.75,1.61,1.51,0,2.26v-2.26Z"/>
      <path class="st0" d="M1711.19,543.73c1.61.75,1.61,1.51,0,2.26v-2.26Z"/>
      <path class="st0" d="M1569.15,504.58c1.03.56,1.03,1.12,0,1.68v-1.68Z"/>
      <path class="st0" d="M1569.15,499.54c1.03.56,1.03,1.12,0,1.68v-1.68Z"/>
      <path class="st0" d="M1534.15,467.6c1.03.56,1.03,1.12,0,1.68v-1.68Z"/>
      <path class="st0" d="M1540.51,464.23c1.03.56,1.03,1.12,0,1.68v-1.68Z"/>
      <path class="st0" d="M1650.28,911.44c1.03.56,1.03,1.12,0,1.68v-1.68Z"/>
      <path class="st0" d="M1543.69,457.51c1.03.56,1.03,1.12,0,1.68v-1.68Z"/>
      <path class="st0" d="M1542.1,452.46c1.03.56,1.03,1.12,0,1.68v-1.68Z"/>
      <path class="st0" d="M1736,878.3c1.61.75,1.61,1.51,0,2.26v-2.26Z"/>
      <path class="st0" d="M1651.87,918.16c1.03.56,1.03,1.12,0,1.68v-1.68Z"/>
      <path class="st0" d="M1651.87,923.21c1.03.56,1.03,1.12,0,1.68v-1.68Z"/>
      <path class="st0" d="M1565.97,437.33c1.03.56,1.03,1.12,0,1.68v-1.68Z"/>
      <path class="st0" d="M1675.73,929.93c1.03.56,1.03,1.12,0,1.68v-1.68Z"/>
      <path class="st0" d="M1655.05,936.66c1.03.56,1.03,1.12,0,1.68v-1.68Z"/>
      <path class="st0" d="M1578.69,415.48c1.03.56,1.03,1.12,0,1.68v-1.68Z"/>
      <path class="st0" d="M1553.24,381.85c1.03.56,1.03,1.12,0,1.68v-1.68Z"/>
      <path class="st0" d="M1553.24,376.81c1.03.56,1.03,1.12,0,1.68v-1.68Z"/>
      <path class="st0" d="M1526.18,366.76c.88,1.07,3.2,2.19,1.62,3.3-.77-.99-3.19-2.13-1.62-3.3Z"/>
      <path class="st0" d="M1707.55,312.92c1.03.56,1.03,1.12,0,1.68v-1.68Z"/>
      <path class="st0" d="M1719.48,269.19c-4.51-.45-9.11-1.21-13.64-1.4-3.74-.15-8.36,3.72-10.22-1.93,7.09,1.35,19.07-3.43,23.86,3.33Z"/>
      <path class="st0" d="M1724.25,259.13c2.64,2.12-.2,3.07-2.36,3.37-6.27.88-12.12-2.02-18.3-1.71-.37-2.93,3.61-1.58,5.54-1.66,5.02-.22,10.11.14,15.12,0Z"/>
      <path class="st0" d="M1663.79,279.32c.37,2.93-3.61,1.58-5.54,1.66-3.97.17-7.99-.1-11.95-.02,3.44-6.69,12.09-2.07,17.49-1.65h0Z"/>
      <path class="st0" d="M1662.2,286.04c.25,2.39-6.03,3.16-7.31,3.17-3.43.04-6.69-1.84-10.17-1.53.57-2.44,8.97-2.38,10.93-2.34,2.23.05,4.35.36,6.55.69h0Z"/>
      <path class="st0" d="M1694.02,292.76c-3.01,5.31-12.39.01-17.48,1.65-.37-2.94,3.61-1.58,5.54-1.66,3.97-.18,7.99.11,11.94.02h0Z"/>
      <path class="st0" d="M1709.93,286.04c-2.99,4.96-11.39.6-15.89,1.65l15.89-1.65Z"/>
      <path class="st0" d="M1676.52,286.04c-1.96,5.2-8.97,2.07-12.71,1.65l12.71-1.65Z"/>
      <path class="st0" d="M1690.84,279.32c-1.66,4.93-9.14.82-12.71,1.65l12.71-1.65Z"/>
      <path class="st0" d="M1690.84,286.04c-1.21,4.64-8.07,1.26-11.12,1.65l11.12-1.65Z"/>
      <polygon class="st0" points="1654.25 291.07 1654.25 294.42 1646.31 294.41 1646.31 292.77 1654.25 291.07"/>
      <path class="st0" d="M1663.79,292.76v3.35c-3.09-1.67-4.85-1.67-7.93,0v-3.35h7.93Z"/>
      <rect class="st0" x="1666.99" y="279.32" width="7.94" height="1.65"/>
      <rect class="st0" x="1665.4" y="292.76" width="6.35" height="1.65"/>
      <polygon class="st0" points="1700.39 259.14 1698 262.45 1695.63 259.96 1700.39 259.14"/>
      <rect class="st0" x="1721.08" y="265.87" width="6.35" height="1.65"/>
      <rect class="st0" x="1695.63" y="292.76" width="4.76" height="1.65"/>
      <rect class="st0" x="1676.54" y="272.59" width="4.76" height="1.65"/>
      <path class="st0" d="M1674.14,292.75c1.03.56,1.03,1.12,0,1.68v-1.68Z"/>
      <path class="st0" d="M1639.94,610.48c-1.99,1.12-5.54-2.69-4.77-3.33,1.99-1.12,5.54,2.69,4.77,3.33Z"/>
      <path class="st0" d="M1578.69,479.36c1.03.56,1.03,1.12,0,1.68v-1.68Z"/>
    </g>
  </g>
</svg>