<?xml version="1.0" encoding="UTF-8"?>
<svg id="Layer_1" xmlns="http://www.w3.org/2000/svg" version="1.1" viewBox="0 0 1920 1080">
  <!-- Generator: Adobe Illustrator 29.5.1, SVG Export Plug-In . SVG Version: 2.1.0 Build 141)  -->
  <path d="M1797.97,520.28c-2.79-10.2-.4-20.62-.02-30.91l10.47-.83-10.47-.84c-.12-2.83-.41-7.3.07-9.95-.09-1.23-.09-2.47-.07-3.71-1.39-7.9,2.38-87.6-1.48-87.6h-114.22c-.22,0-2.57,3.16-3.57-1.03-.68-2.87-.07-6.81-.16-9.95-.08-2.61,1.39-6.65-2.23-5.9-.42,2.51-6.3,13.34-7.48,13.48-2.27.26-2.05-5.2-.75-6.71-4.94-.22-5.3,5.06-2.04,8.18,1.74,1.67,15.18,10.37,7.22,12.06-5.38,1.14-4.28-4.5-5.08-5.99-.5-.93-5.03-7.57-5.46-7.61-3.56-.38-6.05,4.81-7.93,3.24-.29-.24-.06-3.31-.84-3.15-8.54,1.74-7.27,9.77-8.26-6.73l7.45-.02c.67-2.82-2.78-.82-3.07-2.64-.52-3.25,1.92-8.92,3.06-7.48.78.98-2.01,6.49,2.99,5.07,3.63-6.77-2.85-10.55-2.97-11.26-.39-2.27-1.34-12.73-1.32-14.98.02-1.4,3.16-12.72,4.26-13.47,1.62-1.11,14.42.33,14.97.91.59.62-1.8,4.88-1.3,7.25.72,3.37,6.36,4.65,5.86,10.38-.16,1.83-2.93,5.96-3.81,5.96-1.06,0-3.66-6.36-6.72-5.02l1.51,10.1c2.44.64.96-1.81,1.74-2.81.84-1.06,8.91-2.64,10.19,1.13v-205.88h117.96V0h-285.19l-52.26,364.5h-22.4v1.69h20.9l-14.58,113.98c.36,4.32,10.48.19,11.59,5.82-3.92-.64-13.24,2.18-14.69-2.79-6.17-47.3-12.92-94.5-19.42-141.74-1.4-10.16-1.6-22.06-3.11-31.71-.26-1.65-4.89,1.95-5.9-8.7-2.39-25.04-1.42-49.57-6.55-75.33-1.62-8.11-3.93-5.29-6.05.72-1.82,5.15.13,10.51-6.24,3.08l-.75,5.05c-4.68-1.88-1.54-8.97-2.96-13.5l2.94.91c-3.65-7.55.37-1.97,2.94-3.36.85-.46,6.48-4.76,6.06-6.81-10.72.81-8.12-2.6-11.92-11.84,1.66-1.28,3.91,2.21,5.23,2.56.66.17.57-2.26,1.27-2.75,3.31-2.34,4.84.28,4.86-7.92-6.95-64.14-14.97-128.17-24.83-191.84h-141.85c-1.01,12.94.96,26.73.95,39.37,0,18.51-3.21,43.05-1.04,61.13.49,4.09,3.43,6.73,3.14,9.91-.22,2.37-2.66,4.5-3.14,8.46-3.09,25.66.53,69.34.05,92.85-.11,5.2-1.76,12.49,3.03,13.56-5.6,1.44-1.91,9.61-3.68,15.19l.67,151.04,13.46.85c-.15,8.13-12.34.05-13.52,5.3-1.81,8.08,2.89,7.27,3.06,8.2.73,3.96-2.58,1.62-3.04,3.59-.31,1.34-.36,12,.03,12.44.87.98,12.84-1.45,13.45.85,1.16,4.32-2.56,1.55-4.04,1.54-2.16,0-10.39-1.16-10.61,1.75l1.2,83.6c-.07.04-.14.08-.21.11.18,1.65.22,3.3.18,4.95.01,0,.02,0,.03,0l-.03.1c-.1,4.04-.62,8.09-.63,12.14,0,.03-.01.05-.02.07l.67,63.53c.03.06.05.13.05.21,0,1.48,0,2.97.06,4.45.04,1.14.14,2.31-.1,3.43v23.64c.02.05.04.11.04.18v4.58c0,.07-.02.13-.04.18v35.97s-.05-.02-.08-.03c0,.04.02.07.02.11,0,2.07.09,4.14.1,6.22,0,.07-.02.13-.04.18v34.86c0,.58,2.9,5.35,3.74,5.9,1.24.81-.29-6.29,3-1.71.58,4.81,2.76,14.99.62,19.2-3.54,6.97-5.58-5.45-5.5-8.6.09-3.66,5.3-5.05-1.85-8.89,2.45,17.72-3.98,54.43,1.55,69.65.68,1.87,2.96.69,2.94,2.07-.05,4.28-4.16,2.36-4.62,6.68-3.14,29.45,2.64,66.06.04,96.33l1.03,8.65-1.03,9.76.07,112.29h107.51v-329.06l8.97-.84-9.04-3.63,3.04-257.08c8.85,67.9,20.11,135.44,30.01,203.18.33,1.34,2.66,7.21,3.07,7.53.57.45,3.41-4.48,4.28,5.28l2.98-6.75c7.17,6.79,1.56-.18,7.45,0,1.63,13.85-3.51,5.92-4.47,6.73-1.55,1.3.3,9.76-.01,10.13-.52.61-4.36.2-5.32-1.67-1.04-2.02.86-4.13.57-5.79-.34-1.94-4.81-2.44-4.22-6.02l-1.46,9.25,22.16,139.03c-6.83,1.15.65,1.66,1.54,4.62l12.18,83.26c6.36-.9,42.08,2.1,44.08-1.51,3.12-10.59,7.62-65.66,11.66-70.49.42-.5,1.7-.54,2.43-.51v-1.65s-3.06-.95-3.06-.95l49.6-306.76c8.23-6.37,1.6-3.13,1.16-5.55-.27-1.49.09-3.1.24-4.59,2.17-22.12,8.2-48.54,11.84-71.12.34-2.14.64-5.58,2.93-2.53,2.25,2.99-1.69,68.66-.38,78.52-1.73,4.14-3.82,1.85-6.7,1.18-3.12-.72-2.32,2.52-1.86,2.97.7.68,6.62-.78,7.4.08,1.04,1.14,2.07,19.49,1.28,22.4-1.08,3.97-5.78,4.07-5.71,5.37.09,1.93,5.26-.78,6,5.04l-.11,96.13,4.58.93c-7.23,4.96-3.9,11.66-4.47,20.23,4.43-1.09,1.36-11.1,1.66-11.61.26-.43,7.33-6.38,7.33-1.01,0,7.25-3.38,17.91-6.04,24.43l-2.96-3.36c.34,3.37-.64,7.55,0,10.7.26,1.29,4.72,1.21,2.97,6.18l-2.96-1.71v45.59s2.99-.85,2.99-.85c-.93,3.81-2.63,5.72-3.04,10.06-2.06,21.9,1.61,47.74.05,70.07,5.38,1.07,6.39-3.64,8.92-7.6-1.58-1.39-4.26,4.54-5.94,2.54-3.84-4.58,7.98-9.19,8.89-4.13.26,1.44-2.2,9.8-3.58,11.11-2.17,2.06-4.13-.19-5.02.27-.25.13-.32,1.52-.87,2.14-.9,1.02-2.41.6-2.41.74v221.06h167.23l-4.47-16.87,7.45,16.08c3.44,2.47,5.62-.92,5.97-.9-1.8-.33-2.32-4.58-2.59-6.36-1.27-8.45-.24-4.31,3.42-3.88,4.35.51,5.3-.13,9.62,1.8,5.47,2.44,4.77,2.54,4.48,10.13l29.05.1,1.6-5.27,23.11.11-7.47,5.05h26.88v-193.22l-2.24-2.53h-117.21v-7.59s4.45,0,4.45,0c-5.09-3.06-5.05-4.31-4.46-10.99l10.47-.84-10.47-.84v-132.47c0-1.61-5.18-3.29-6.41-4.26-.93-.73-1.01-2.43-1.41-2.74-.69-.52-2.94,1.56-3.86-1.6-.13-.44.24-6.72.45-7.51.95-3.5,3.2-3.17,3.45-4.1.27-1.01-.29-15.08,4.87-10.23,1.29,1.21.6,4.79,2.92,4.29v-65.81h102.28c2.15,0,.46,7.61,4.47,6.76l-.73-6.76,11.93-.02c1.18-9.91,1.73-19.54,1.57-29.6-.11-6.91-3.54-14.2-.03-21.51.92-1.92,3.03-.56,2.96-2.04-.07-1.61-2.4.13-2.99-2ZM1662.08,322.33l-1.51,5.04h-1.46c-.15-4.07-.95-5.87,2.97-5.04ZM1389.58,210.94c.97.56.97,1.12,0,1.69v-1.69ZM1391.07,172.15c2.12.07,4.94,13.11,3.65,15.06-.32.49-4.81,2.63-5.48-.74-.41-2.04-.89-14.42,1.83-14.33ZM1388.85,190.69h1.47v5.05h-1.47v-5.05ZM1375.41,126.56c3.11.1,3.33,11.32,2.97,11.8-3.69,4.92-3.31-10.66-2.97-11.8ZM1369.41,189.01c1.63,1.84-1.34,5.2-2.97,3.36-1.63-1.84,1.34-5.2,2.97-3.36ZM1364.93,232.87c-5.03-.35.22-12.01.76-11.8,4.83,1.86-1.04,9.09-.76,11.8ZM1362.7,248.06c.97.56.97,1.12,0,1.69v-1.69ZM1358.98,205.89h2.97v1.66h-2.97v-1.66ZM1343.29,140.06c.97.56.97,1.12,0,1.69v-1.69ZM1332.84,118.12c.97.56.97,1.12,0,1.69v-1.69ZM1332.11,121.51h1.47v3.36h-1.47v-3.36ZM1329.11,138.39h2.97v1.66h-2.97v-1.66ZM1332.08,177.2v3.36h-1.47v-3.36h1.47ZM1329.85,163.69v-1.69c.97.56.97,1.12,0,1.69ZM1326.13,143.45h1.47v3.36h-1.47v-3.36ZM1331.9,182.36c.75.66,1,6.01,3.16,7.64,1.9,1.43,5.08-1.67,5.92-.99.39.32,4.18,9.13,4.29,9.66.45,2.3-1.07,4.51-.93,6.36.58,7.7,5.16,16.67-4.77,14.35,1.54-3.65-.46-21.59-1.81-23.25-1.18-1.44-7.16-1.98-8.26-2.7-1.97-1.31-7-8.89-4.86-11.16.27-.28,6.98-.14,7.27.11ZM1333.33,329.53c-3.6,1.17-7.43,2.86-10.19-1.33-.71-4.11,2.9-2.38,5.2-2.51,2.73-.15,5.5.09,8.22,0,.65,4.43-.62,2.98-3.23,3.83ZM1338.05,641.26v3.36h-1.47v-3.36h1.47ZM1330.61,536.63c1.24-1.41,5.32,2.59,4.47,3.35-1.69,1.52-6.84-.65-4.47-3.35ZM1327.62,629.43v-5.05c5.48.03,5.48,5.02,0,5.05ZM1335.09,632.82h1.47v3.36h-1.47v-3.36ZM1320.15,538.3v-1.66h5.96v1.66h-5.96ZM1320.16,656.43v-5.05c5.48.03,5.48,5.02,0,5.05ZM1332.08,249.74h-1.47v-10.11h1.47v10.11ZM1330.61,235.13c-10.47-5.83-10.46-20.83,1.47-20.81l-2.97,10.11,16.41,1.7c.37.38-4.1,9.77-4.5,10.11-3.29,2.75-3.14-5.65-4.44-3.35-1.01,1.79.16,5.66-5.98,2.24ZM1336.57,212.63c1.63,1.84-1.34,5.2-2.97,3.36-1.63-1.84,1.34-5.2,2.97-3.36ZM1333.58,197.45v1.66h-2.97v-1.66h2.97ZM1321.65,173.82h2.97v6.73h-2.97v-6.73ZM1315.67,205.88c.76-.41,3.53.67,4.24-.17,1.43-1.69-.08-9.75.92-11.61,1.18-2.19,5.08-2.13,5.3-1.71.37.69-3.27,3.1,1.35,4.08l-1.36,7.71,8.09-.02c4.11,11.18-6.16-2.01-10.84,3.78-.26.32-.45,9.2-3.22,4.69-.68-1.1,1.45-5.59-1.49-5.07l.74,13.48c-1.2-1.53-4.37-14.84-3.74-15.18ZM1317.16,636.2l-.73,8.42c-3.02-2.95-4.08-9.88.73-8.42ZM1316.42,629.44v-1.69c.97.56.97,1.12,0,1.69ZM1315.68,538.3v-1.66h2.97v1.66h-2.97ZM1311.94,45.57l.73,5.05-2.95-2.53,2.22-2.52ZM1309.7,70.89h2.97v1.66h-2.97v-1.66ZM1306.72,327.38h1.47v3.36h-1.47v-3.36ZM1296.26,381.38c.51-.56,12.22,1.35,14.19,1.36,1.56.01,4.68-1.93,5.21-1.36,4.23,4.52-18.04,12.56-19.47,5.69-.21-1-.11-5.49.07-5.69ZM1298.55,633.43c4.75-.05,9.35.44,14.13-.61,1.27,4.71-2.7,3.11-3.71,4.93-.46.82,1.16,7.75-2.98,8.21-.2.02-3.68-1.16-3.77-1.35-.47-.94,2.09-3.83.1-5.94-2.27-2.41-5.7-.23-7.54-3.35-.61-4.17,1.64-1.87,3.77-1.89ZM1304.48,664.87c-4.19-2.5-1.55-8.81,1.49-10.11,1.17-.5.37,1.71,1.28,2.73.64.72,4.81,1.05,2.44,4.01-.99,1.23-4.97-5.69-5.21,3.37ZM1309.68,811.7v3.36h-1.47v-3.36h1.47ZM1302.98,696.94v-1.69c.97.56.97,1.12,0,1.69ZM1303.74,653.05v-3.36h1.47v3.36h-1.47ZM1300.73,648.01v3.37s-2.97-2.54-2.97-2.54l2.97-.83ZM1297.75,642.95l-2.97,3.36v-3.37s2.97,0,2.97,0ZM1287.31,636.18v-3.36h5.96v3.36h-5.96ZM1289.54,646.31v-1.69c.97.56.97,1.12,0,1.69ZM1266.4,654.74v-3.37s2.98,3.36,2.98,3.36h-2.98ZM1268.64,810v-1.69c.97.56.97,1.12,0,1.69ZM1276.85,823.49c-2.1-.78-6.29,1.73-7.48.93-6.28-4.25,5.47-7.3,7.48-.93ZM1275.37,798.18v-3.36h1.47v3.36h-1.47ZM1276.83,782.99h-1.46l-1.5-8.42h4.47l-1.5,8.42ZM1272.39,733.22l2.22-2.52.73,5.05-2.95-2.53ZM1275.37,757.68v-3.36h1.47v3.36h-1.47ZM1277.59,761.06v-1.69c.97.56.97,1.12,0,1.69ZM1276.86,747.56c.85-1.21,4.53,4.52,2.96,6.75-.85,1.21-4.53-4.52-2.96-6.75ZM1278.32,737.45c.24.2,2.99,5.56,2.99,5.9.03,10.28-10.76-12.26-2.99-5.9ZM1278.33,732.38v3.36h-1.47v-3.36h1.47ZM1276.86,728.99v-5.05h1.47v5.05h-1.47ZM1282.81,641.26c1.63,1.84-1.34,5.2-2.97,3.36-1.63-1.84,1.34-5.2,2.97-3.36ZM1284.31,653.07c1.63,1.84-1.34,5.2-2.97,3.36-1.63-1.84,1.34-5.2,2.97-3.36ZM1281.33,637.86c-.39-.41,1.51-11.65,4.47-8.42.87.95-1.42,11.6-4.47,8.42ZM1284.31,322.32c1.63,1.84-1.34,5.2-2.97,3.36-1.63-1.84,1.34-5.2,2.97-3.36ZM1288.79,205.88c1.63,1.84-1.34,5.2-2.97,3.36-1.63-1.84,1.34-5.2,2.97-3.36ZM1288.79,648.01v3.37s-2.97-2.54-2.97-2.54l2.97-.83ZM1292.53,322.31c.97.56.97,1.12,0,1.69v-1.69ZM1288.05,180.56c.97.56.97,1.12,0,1.69v-1.69ZM1284.31,180.57l-2.23,6.73c-3.91-1.92-.14-9.21,2.23-6.73ZM1281.33,160.33l-2.97,3.36v-3.37s2.97,0,2.97,0ZM1279.83,177.2c-1.04,2.88.39,13.01-4.47,11.8.48-3.03-.44-12.92,4.47-11.8ZM1278.33,192.37c.26.32.77,6.8,1.52,8.43l1.48-6.75,2.99,6.75c2.94.52.82-4.03,1.49-5.07.59-.91,4.18,1.11,4.47,2.57.51,2.59-7.38,7.35-8.2,10.92-.47-3.56-6.61-8.98-6.75-9.59-.52-2.22-.07-11.01,3-7.26ZM1273.87,322.32h5.96v3.36h-5.96v-3.36ZM1275.34,690.2v3.36h-1.47v-3.36h1.47ZM1273.11,717.19c.97.56.97,1.12,0,1.69v-1.69ZM1275.35,725.63v3.37s-2.97-2.54-2.97-2.54l2.97-.83ZM1270.89,636.2h1.47v3.36h-1.47v-3.36ZM1270.89,669.95h1.47v3.36h-1.47v-3.36ZM1269.37,322.32c1.63,1.84-1.34,5.2-2.97,3.36s1.34-5.2,2.97-3.36ZM1267.14,632.81v-1.69c.97.56.97,1.12,0,1.69ZM1267.88,644.63c1.25,1.4-2.3,6.01-2.97,5.05-1.35-1.91.57-7.73,2.97-5.05ZM1260.43,136.7h2.97v1.66h-2.97v-1.66ZM1257.45,177.19c.93-1.26,5.7,7.13,4.46,8.43-2.95,3.11-4.94-7.78-4.46-8.43ZM1258.92,389.82v3.36h-1.47v-3.36h1.47ZM1251.39,146.66c.92-.88-1.85-6.38,3.06-4.9-.33,1.88,1,6.53-.88,6.76-3.13.38-8.79,2-11.05-.87,1.69-2.31,7.49.33,8.88-.99ZM1235.79,334.12c.97.56.97,1.12,0,1.69v-1.69ZM1235.79,349.31c.97.56.97,1.12,0,1.69v-1.69ZM1235.05,379.68c-1.63-1.84,1.34-5.2,2.97-3.36,1.63,1.84-1.34,5.2-2.97,3.36ZM1254.44,177.19l-13.42-5.05c4.45.55,13.34-2.8,13.42,5.05ZM1244.01,379.68c-1.63-1.84,1.34-5.2,2.97-3.36,1.63,1.84-1.34,5.2-2.97,3.36ZM1251.44,518.9l-2.98,5.91c-4.92-3.97-3.61-13.51,2.98-5.91ZM1236.54,514.7h4.47v1.66h-4.47v-1.66ZM1235.05,437.07h1.47v3.36h-1.47v-3.36ZM1241.01,705.38c-4.92,1.23-1.23-5.45-5.95-1.68v-11.82s7.44,1.71,7.44,1.71l-1.49,11.79ZM1238.03,750.93c1.66-7.21,2.98-12.71,2.99-20.24,3.65,1.11,3.88,8.65,2.49,11.45-.7,1.4-3.48-.87-1,7.94l-4.49.85ZM1244.57,745.06c-.34-2.04,1.73-6.22,3.88-4.25,1,.92,3.29,11.45,1.64,14.09-.33.52-10.16,4.9-10.57,4.47-3.66-3.84,8.84-5.5,8.91-7.58.03-.87-3.54-4.72-3.87-6.73ZM1241,762.76v3.36h-1.47v-3.36h1.47ZM1235.05,816.76h1.47v3.36h-1.47v-3.36ZM1235.05,889.31v-3.37s2.97,0,2.97,0l-2.97,3.36ZM1241.01,916.3h-2.97v-1.66h2.97v1.66ZM1241.02,892.68v-3.37s2.98,3.36,2.98,3.36h-2.98ZM1247.73,793.12v-1.69c.97.56.97,1.12,0,1.69ZM1251.46,759.38c1.63,1.84-1.34,5.2-2.97,3.36-1.63-1.84,1.34-5.2,2.97-3.36ZM1251.47,730.7h2.98s-2.97,3.37-2.97,3.37v-3.37ZM1249.98,766.13c1.24-1.41,5.32,2.59,4.47,3.35-1.69,1.52-6.84-.65-4.47-3.35ZM1258.93,912.09c-.8,2.04-4.93,3.66-5.96,2.53-.24-.26-1.52-8.69,2.95-6.71-.92,3.2,3.32,3.38,3.01,4.18ZM1255.2,774.56v-1.69c.97.56.97,1.12,0,1.69ZM1254.45,728.99c-.84-.76,3.24-4.76,4.47-3.35,2.37,2.71-2.78,4.87-4.47,3.35ZM1254.46,698.62v-5.05h1.47v5.05h-1.47ZM1255.93,700.32v3.36h-1.47v-3.36h1.47ZM1256.69,707.06v-1.69c.97.56.97,1.12,0,1.69ZM1257.4,677.54c.1.39,6.71,3.75,3.02,5.89-2.93,1.7-5.76-3.68-4.49,8.45-4.27-3.65-2.31,1.7-5.95,3.36-.9-2.93,2.1-3.79,2.32-5.82.12-1.08-.75-10.59-1.05-11.66-1.45-5.22-10.72-.49-8.74-5.28.55-1.33,2.88-2.44,3.58-4.2.85-2.11-.95-7.81,3.14-10.15,4.78-.86.08,4.4.73,5.04,3.95,3.9,3.51-6.27,3.67-6.74.77-2.37,3.16-4.35,3.41-6.14.38-2.64-2.63-6.01.34-8.24,1.2-.9,4.11-1.25,4.51-.79.38.43-.13,9.28.35,12.26.67,4.14,2.96,6.73,4.15,10.47-3.52,6.21-3-1.45-3.74-.8-4.49,3.93.11,9.54-.75,10.11-1.37.91-6.25-2.23-4.52,4.24ZM1263.42,673.3c-1.63-1.84,1.34-5.2,2.97-3.36,1.63,1.84-1.34,5.2-2.97,3.36ZM1262.66,796.5v-1.69c.97.56.97,1.12,0,1.69ZM1263.4,740.8h-1.47v-3.36h1.47v3.36ZM1266.39,728.98h-2.97v-1.66h2.97v1.66ZM1270.87,914.61h-4.47v-1.66h4.47v1.66ZM1272.37,914.62v-3.36c2.79-.43,5.17,0,5.97,3.35h-5.97ZM1279.82,813.37l-2.97-2.54,2.97-.83v3.37ZM1278.35,772.87v-10.12c.93.1,2.75-.24,2.97,0,.74.83.28,10.14-2.97,10.12ZM1282.09,658.13c3.85-.98,3.57,5.54,2.21,6.73-2.94,2.58-5.86-5.8-2.21-6.73ZM1285.8,762.73h-2.97v-1.66h2.97v1.66ZM1285.8,752.61h-2.97v-1.66h2.97v1.66ZM1285.81,910.41l5.21-7.59c3.65,1.16-.61,7.79-1,8.08-.81.59-4.02,1.11-4.21-.48ZM1286.55,779.62v-1.69c.97.56.97,1.12,0,1.69ZM1288.05,789.75v-1.69c.97.56.97,1.12,0,1.69ZM1289.54,702v-1.69c.97.56.97,1.12,0,1.69ZM1290.29,708.73v-1.66h2.97v1.66h-2.97ZM1287.31,917.99c-2.5-2.85,5.14-6,5.96-5.05,1.99,2.31-4.13,7.13-5.96,5.05ZM1290.28,690.18c1.9-4.56-.39-10.56-2.35-15.06-.85-1.96-2.97-3.01-3.61-4.36-2.08-4.38,8.04-.61,8.94-2.53l-5.98-3.37,2.98-5.03c-.91,5.8,4.25,1.31,5.24,1.72,4.29,1.8-2.02,5.38.76,10.05,3.67.07-1.72-3.91,1.48-5.91,3.56-2.22,4.04,12.8,3.96,15.46-.05,1.88-1.91,18.43-2.48,19.15-1.73,2.17-2.86.2-2.98-2.52-.31-7.34,2.06-8.44-5.97-7.62ZM1300.71,721.42l-.71.8-2.23-2.52.71-.8,2.23,2.52ZM1299.23,818.44l-2.97-2.54,2.97-.83v3.37ZM1302.22,728.98h-2.97v-1.66h2.97v1.66ZM1300.74,708.76c2.29-2.19,6.22,4.78,4.47,6.73-2.51,2.81-4.82-6.39-4.47-6.73ZM1309.69,821.83v1.65c-6.81,1.18-6.82-5.36,0-1.65ZM1312.68,680.07v3.37s-2.97-2.54-2.97-2.54l2.97-.83ZM1314.92,710.41c-.27-.01-3.46-3.55-3.6-4.42-.43-2.63,4.96-4.2-.12-9.03,4.42,1.09,1.59-4.87,2.99-6.77.14-.2,3.79,1.73,4.08,2.14,2.82,3.98-1.48,18.17-3.35,18.08ZM1320.16,809.99c-1.63-1.84,1.34-5.2,2.97-3.36s-1.34,5.2-2.97,3.36ZM1323.88,720.56v-1.69c.97.56.97,1.12,0,1.69ZM1317.17,672.46l7.45-.83c3.11,3.59-5.24,5.27-7.45.83ZM1326.87,701.97c-2.67-.2-2.68-9.79.73-10.1-.58,1.4,2.51,10.34-.73,10.1ZM1328.36,727.31v-1.69c.97.56.97,1.12,0,1.69ZM1328.36,715.5v-1.69c.97.56.97,1.12,0,1.69ZM1328.36,712.12v-1.69c.97.56.97,1.12,0,1.69ZM1327.63,683.44v-3.37s2.97,0,2.97,0l-2.97,3.36ZM1329.11,674.98v-1.66h2.97v1.66h-2.97ZM1335.07,809.99c-5.48-.03-5.48-5.02,0-5.05v5.05ZM1335.83,717.19v-1.69c.97.56.97,1.12,0,1.69ZM1336.56,712.12h-1.47v-3.36h1.47v3.36ZM1338.06,693.55h-2.97v-6.73h2.97v6.73ZM1338.81,675v-1.69c.97.56.97,1.12,0,1.69ZM1336.58,669.1l2.97-2.54v3.37s-2.97-.83-2.97-.83ZM1337.34,663.19c-2.59.15-13.66-.52-14.2,0-3.93,3.78,8.23,2.87,4.47,6.74-.53.54-7.13-3.15-7.36-3.51-.32-.5,2.02-4.12,1.39-4.91-.32-.41-7.92,4.55-8.94-.87-.33-1.72,2.7-5.56,3.71-5.59.95-.02,3.65,4.23,5.99,4.24,1.88.01,4.26-3.33,5.05-2.64.29.26-.11,3.13,1.05,3.19,2.71.14,7.33-1.7,11.08-.01.12,3.55.67,3.21-2.22,3.37ZM1357.46,264.94c-.33.42-8.46-4.94-8.75-5.4-.26-.42.93-8.17-.21-9.79-.69-.99-4.24,1.34-5.33,1.59-.35.08-1.12-6.46-3.61-3.26-1.17,1.5,2.71,9.85-2.99,8.44,1.7-6-6.75-11-.13-12.55l-1.36-4.33c2.71,2.26,5.72-.33,7.92.26,2.92.79,16.19,22.86,14.46,25.05ZM1360.46,224.43l-.73,16.88c-2.69-5.05-7.28-19.8.73-16.88ZM1366.43,266.62c-.87.99-5.24-.3-5.95-2.54-2.88-8.96,9.9-1.97,5.95,2.54ZM1367.18,243v-1.69c.97.56.97,1.12,0,1.69ZM1373.6,210.62c-.23.54-7.72,8.29-8.65,7.06-1.23-1.62.39-15.97,3.74-16.86,2.95-.78,6.15,6.87,4.9,9.8ZM1375.38,222.74h-1.47v-3.36h1.47v3.36ZM1379.87,202.51c-1.55-1.64-.09-10,4.46.85-.79.26-4.3-.68-4.46-.85ZM1385.83,197.44c-8.35-3.14-9.42-6.11-9.04-16.07.46-12.17,7.17-15.93-8.85-14.31-.26-7.52,5.46-5.05,7.49-6.06,1.26-.62,4.43-5.99,5.93-4.05.23.3-.22,5.05.35,7.19,3.08,11.61,5.25,20.62,4.12,33.3ZM1388.09,219.38v-1.69c.97.56.97,1.12,0,1.69ZM1388.09,205.88v-1.69c.97.56.97,1.12,0,1.69ZM1388.83,671.61h-2.97v-1.66h2.97v1.66ZM1397.04,752.62v-1.69c.97.56.97,1.12,0,1.69ZM1411.22,705.37c-2.39,2.68-4.31-3.14-2.97-5.05.67-.95,4.21,3.66,2.97,5.05ZM1456.04,399.95h1.47v3.36h-1.47v-3.36ZM1456.77,702v-1.69c.97.56.97,1.12,0,1.69ZM1441.09,718.87c-2.36,2.49-4.76-4.76-4.47-5.04,1.78-1.75,5.93,3.51,4.47,5.04ZM1436.6,712.12c-1.1.01-2.57-1.68-2.87-2.65-2.06-6.67,3.26-4.24,2.87,2.65ZM1420.2,693.57h1.47v5.05h-1.47v-5.05ZM1415.72,668.25c2.88-.04,3.82,7.47,2.97,8.43-3.27,3.67-3.48-5.27-2.97-8.43ZM1418.68,720.57v3.36h-1.47v-3.36h1.47ZM1416.46,798.19v-1.69c.97.56.97,1.12,0,1.69ZM1417.21,779.62v-3.37s2.98,3.36,2.98,3.36h-2.98ZM1420.2,708.74c-1.63-1.84,1.34-5.2,2.97-3.36,1.63,1.84-1.34,5.2-2.97,3.36ZM1426.15,777.92h-2.97v-1.66h2.97v1.66ZM1426.91,735.75v-1.69c.97.56.97,1.12,0,1.69ZM1426.91,700.31v-1.69c.97.56.97,1.12,0,1.69ZM1428.4,712.12v-1.69c.97.56.97,1.12,0,1.69ZM1430.65,714.64c-1.55-4.91,6.23-2.2,4.45,4.24-1.27-.37-4.15-3.27-4.45-4.24ZM1433.64,722.26h1.47v3.36h-1.47v-3.36ZM1442.58,804.95v1.66c-9.91-1.11-10.35-4.92,0-1.66ZM1450.04,715.49c-2.29,2.91-8.56-9.39-7.31-14.07.53-1.97,3.4-3.84,4.33-2.78.25.29-1.36,2.7-.87,5.05.49,2.35,5.61,9.58,3.85,11.81ZM1450.8,686.81v-1.69c.97.56.97,1.12,0,1.69ZM1454.52,690.2v3.37s-2.97-2.54-2.97-2.54l2.97-.83ZM1456.78,740.81c-3.18-2.78-3.87-7.93.73-6.73l-.73,6.73ZM1457.5,727.31c-5.31-2.21-.41-7.42-1.74-12.25-.48-1.76-2.3-2.81-2.68-3.85-1.05-2.85,2.01-3.32,2.91-2.45,3.14,3.02,1.95,14.2,1.5,18.56ZM1462.74,678.37v-1.69c.97.56.97,1.12,0,1.69ZM1490.37,356.05h-5.97s0-3.35,0-3.35c2.79-.43,5.17,0,5.97,3.35ZM1485.76,671.49c-.14.18-4.08.2-4.24.04-1.04-1.08-.92-7.64-.11-8.33,2.07-1.76,7.65,4.22,4.34,8.29ZM1496.34,489.37h-20.9v-3.38h20.9v3.38ZM1502.3,487.67h-2.97v-1.66h2.97v1.66ZM1506.78,487.67h-2.97v-1.66h2.97v1.66ZM1536.67,595.7h1.47v3.36h-1.47v-3.36ZM1535.16,617.6l1.51-8.41,2.96,10.12-4.47-1.71ZM1757.63,1005.74c-2.31,2.55-4.94-2.39-.73-5.05,1.32.07.89,4.87.73,5.05ZM1775.56,1000.68c-.36-3.11-.06-4.91,2.24-6.74l.73,6.73h-2.97ZM1766.67,992.09c-.61-.67.35-4.08-.09-4.88-.19-.34-6.9.14-7.18.41-.76.73-.93,2.99-1.75,3.82-2.81,2.85-3.61-8.43-.62-9.22,3.67-.97,16.55,2.01,21.51-.1v10.14c-2.4-.52-10.97.82-11.87-.17ZM1756.16,958.5c.45-.61,9.69,6.27,13.42,3.39.35,2.93-3.42,1.62-5.21,1.67-2.31.07-5.2.34-7.35.02-1.56-.23-1.01-4.88-.86-5.09ZM1756.14,941.62c7.59.65,14.94-.49,22.4-1.68v18.56s-2.3-5.16-2.3-5.16c-6.9,1.69-13.99-2.61-20.08.1l-.02-11.82ZM1776.47,973.87c-2.6,1.06-19.46,4.25-20.33,3.2l.02-11.82c3.69,3.64,20.73,3.27,22.39,5.08,2.34,2.56-.53,2.91-2.07,3.54ZM1773,912.63c-2.01.32-13.43-1.63-13.86-3.93-1.08-5.85,18.65-5.01,19.4-4.19,2.28,2.51-2.49,7.64-5.54,8.12ZM1758.38,850.5c.97.56.97,1.12,0,1.69v-1.69ZM1756.16,896.93c1.69-3.81,22.5-6.36,22.38,2.5-6.82-2.82-12.5-1.5-19.32-.72-1.08.12-4.69,1.88-3.06-1.78ZM1759.92,923.11c5.93-2.45,12.45-1.67,18.63-1.74v8.45s-8.97,0-8.97,0c1.54,1.82,1.38,6.88-.74,6.71-2.01-.16-1.91-6-2.43-6.49-.71-.69-21.37-.79-6.49-6.93ZM1691.95,391.51v5.05c-9.79-.38-11.16-6.63,0-5.05ZM1662.82,391.5c.97.56.97,1.12,0,1.69v-1.69ZM1661.33,519.78c1.54,1.29,4.11,11.32,3.73,11.77-2.5,2.95-3.14-2.17-3.64-3.38-1.15-2.76-3.34-6.23-.09-8.39ZM1663.56,590.62c-2.31,2.55-4.94-2.39-.73-5.05,1.32.07.9,4.87.73,5.05ZM1660.58,534.95c3.16,3.57-7.42,7.64-7.43,2.52,0-2.2,6.56-3.51,7.43-2.52ZM1656.12,531.55v-3.36h1.47v3.36h-1.47ZM1654.62,389.81l2.97,3.36h-2.98s0-3.36,0-3.36ZM1651.64,393.19l2.97,3.36h-2.98s0-3.36,0-3.36ZM1650.88,388.12c.97.56.97,1.12,0,1.69v-1.69ZM1650.88,533.25c.97.56.97,1.12,0,1.69v-1.69ZM1645.67,413.45h1.47v3.36h-1.47v-3.36ZM1657.6,582.2c.08,2.68-3.83,2.72-4.37,3.58-.71,1.13,2.43,7.02,1.38,8.21-.16.18-4.16,1.04-4.43-1.29-.12-1.04.37-2.92-.19-3.51-.65-.69-7.29-.04-7.29-2.78,0-3.1,12.26-2.69,14.9-4.2ZM1640.43,605.78c-3.56,0-.63-9.92,2.23-6.71.92,1.03-.69,6.71-2.23,6.71ZM1642.66,614.27v1.66h-2.97v-1.66h2.97ZM1633.7,577.13v3.37s-2.97-2.54-2.97-2.54l2.97-.83ZM1622.51,384.75c.97.56.97,1.12,0,1.69v-1.69ZM1615.8,585.57h1.47v3.36h-1.47v-3.36ZM1620.26,595.7v1.66s-5.95,1.7-5.95,1.7v-3.37s5.95,0,5.95,0ZM1605.34,345.92h-5.97s0-3.35,0-3.35c2.79-.43,5.17,0,5.97,3.35ZM1600.11,278.44c.97.56.97,1.12,0,1.69v-1.69ZM1600.84,283.5v3.37s-2.97-.83-2.97-.83l2.97-2.54ZM1599.35,290.26v3.36h-1.47v-3.36h1.47ZM1599.36,295.32v3.37s-2.97-2.54-2.97-2.54l2.97-.83ZM1594.14,675c.97.56.97,1.12,0,1.69v-1.69ZM1596.37,683.45v3.37s-2.97-2.54-2.97-2.54l2.97-.83ZM1590.41,599.05h-8.95c-3.46-3.98,7.81-5.53,8.95,0ZM1579.21,18.56c.97.56.97,1.12,0,1.69v-1.69ZM1554.58,590.64h2.97v1.66h-2.97v-1.66ZM1557.54,599.06l-2.95-2.53,2.22-2.52.73,5.05ZM1552.34,595.69c1.32.07.89,4.87.73,5.05-2.31,2.55-4.94-2.39-.73-5.05ZM1551.57,47.23l-7.45,3.39v-5.05s7.45,0,7.45,0v1.65ZM1542.63,22.8c.27-1.36,3.47-3.44,4.46-2.54.16.14,1.48,3.99,1.47,4.21-.07,3.41-6.86,2.94-5.94-1.67ZM1542.64,604.99c.38-1.51,2.58-3.45,3.76-.87.88,1.94-1.41,5.59,1.47,6.74,4.48,1.8,3.24-3.08,4.47-3.38,2.57-.63,1.73,1.11,3.73,3.4.2-1.01-.27-3.01.01-3.37.94-1.23,5.8,6.99,6.45-.02.31-3.39,2.41-1.84,2.49-1.68.17.32.17,4.66.71,6.76.47,1.8,2.55,4.08,2.29,5.87-.47,3.15-1.88,2.03-3.7.85-3.17-2.04-5.74-5.54-8.25-8.41-1.08,5.46-2.85,3.7-4.51,6.32-2.23,3.51-2,9.75-5.94,8.87-1.74-3.56.15-12.41-.19-14.38-.12-.7-4.42-.27-2.79-6.7ZM1538.13,725.62c-.61.86-4.18-3.33-2.96-5.06.61-.86,4.18,3.33,2.96,5.06ZM1537.4,707.06v-1.69c.97.56.97,1.12,0,1.69ZM1536.67,702l.73-5.05,2.22,2.52-2.95,2.53ZM1536.67,691.87l.73-5.05,2.22,2.52-2.95,2.53ZM1539.63,680.05h-1.47v-3.36h1.47v3.36ZM1541.15,715.51h1.47v3.36h-1.47v-3.36ZM1543.37,756v-1.69c.97.56.97,1.12,0,1.69ZM1544.1,734.05h-1.46c-1.59-4.63-2.36-8.46,2.96-8.42l-1.5,8.42ZM1548.59,685.11h-2.97v-1.66h2.97v1.66ZM1548.4,669.24c.16,3.34-1.48,4.11-2.78,2.38-.51-.68-.15-15.23,0-17.74.2-3.37-1.19-4.88,2.98-4.19-.71,6.48-.5,13.04-.19,19.54ZM1550.68,629.4c.93-6.65,2.77-7.83,6.86-3.34-.52-2.82,1.72-8.65,4.39-6.6.18.14-.16,3.11.99,3.36,1.86.4,7.39-3.24,8.07.74.4,2.33-1.69,4.22-3.71,4.21-1.73,0,.52-4.12-2.24-3.38,4.02,7.42-6.64,18.36,2.97,13.5-.68,10.36,1.86,1.66,2.25,1.65,3.27-.02,2.42,3.04,4.17,4.57,1.2,1.05,3.86.7,4.9,2.1,1.93,2.61-1.57,7.07-.76,8.33.4.63,5.18,1.88,5.86,4.45.47,4.29-1.03,1.98-3.05,1.63-5.17-.88-2.11,3.32-3.66,2.56-2.21-1.08-1-6.55-5.22-5.05l1.5,11.79c2,.92,1.45-6.94,4.46-3.36,2.3,2.73-3.52,5.42-2.2,8.39l-3.76-1.64c2.23,3.63-.99,8.44-.96,9.27.08,1.91,3.32,2.85,2.43,5.9h-10.45c-.45-3.46.86-6.98.67-10.35-.42-7.33-5.84-9.12,3.81-8.19l-.02,5.04c1.96-3.13,3.07-18.55,1.5-20.23-1.3-1.39-6.85,3.43-6.7-5.07l-5.98,13.46c-2.1-1.72-2.36-4.47-2.81-7.08-.97-5.68-.75-13.65-1.36-18.82-.32-2.72-2.54-3.74-1.97-7.86ZM1568.76,708.75v-1.69c.97.56.97,1.12,0,1.69ZM1568.76,771.19v-1.69c.97.56.97,1.12,0,1.69ZM1561.29,732.37v-1.69c.97.56.97,1.12,0,1.69ZM1561.29,779.62v-1.69c.97.56.97,1.12,0,1.69ZM1556.81,675v-1.69c.97.56.97,1.12,0,1.69ZM1552.33,752.62v-1.69c.97.56.97,1.12,0,1.69ZM1554.56,781.31h-1.47v-5.05h1.47v5.05ZM1554.56,742.49h-1.47v-3.36h1.47v3.36ZM1553.83,730.69l.73,6.74c-.73,1.03-5.43-4.16-.73-6.74ZM1553.82,707.06v-1.69c.97.56.97,1.12,0,1.69ZM1553.08,693.55c-1.63-1.84,1.34-5.2,2.97-3.36,1.63,1.84-1.34,5.2-2.97,3.36ZM1558.3,740.81v-1.69c.97.56.97,1.12,0,1.69ZM1559.04,683.42h-2.97v-1.66h2.97v1.66ZM1560.53,669.93h-1.47v-3.36h1.47v3.36ZM1562.78,916.34c2.82,0,2.82,8.38,0,8.38s-2.82-8.38,0-8.38ZM1562.05,946.69l.73-5.05,2.22,2.52-2.95,2.53ZM1566.52,944.99c-1.63-1.84,1.34-5.2,2.97-3.36s-1.34,5.2-2.97,3.36ZM1570.98,988.87h-1.47v-3.36h1.47v3.36ZM1573.99,695.24c-1.63-1.84,1.34-5.2,2.97-3.36,1.63,1.84-1.34,5.2-2.97,3.36ZM1580.71,685.12c-1.6-1.59-5.94-2.07-3.73-5.05.15-.2,4.31,1.5,4.47,1.7.14.18.54,3.57-.74,3.35ZM1581.45,669.92c-.84-.76,3.24-4.76,4.47-3.35,2.37,2.71-2.78,4.87-4.47,3.35ZM1585.18,695.25v-1.69c.97.56.97,1.12,0,1.69ZM1584.44,683.43c-1.54-1.8,3.01-6.75,4.47-5.05,1.54,1.8-3.01,6.75-4.47,5.05ZM1588.92,695.23v-1.66s5.95-1.7,5.95-1.7v3.37s-5.95,0-5.95,0ZM1597.12,918v-1.69c.97.56.97,1.12,0,1.69ZM1596.39,723.94l4.47,5.05c-2.83.55-4.97-1.97-4.47-5.05ZM1608.31,683.43h-1.47v-3.36h1.47v3.36ZM1606.81,658.12l2.99,11.81c-2.54-1.09-9.58-13.42-2.99-11.81ZM1612.8,595.7c1.63,1.84-1.34,5.2-2.97,3.36-1.63-1.84,1.34-5.2,2.97-3.36ZM1615.04,688.5v-1.69c.97.56.97,1.12,0,1.69ZM1621.77,607.49c-2.77-.73-6.62,2.17-8.94.92-5.54-2.98-1.93-9.34-.03-5.97.58,1.03-.5,7.61,2.12.13,2.5,2.56,8-.63,6.85,4.91ZM1624.78,595.65c-1.14-2.07,2.5-8.24-5.29-3.36-2.94-4.41,1.55-2.51,3.27-3.9.67-.54.35-2.94,1.26-2.9,1.92.09,3.29,2.56,5.89,3.2,4.29,1.06,12.96-4.57,12.74,3.61-2.66-.21-17.29,4.4-17.88,3.34ZM1636.68,950.05h-1.47v-3.36h1.47v3.36ZM1636.68,919.68h-1.47v-3.36h1.47v3.36ZM1634.43,648.01c1.95.84,3.15,5.72,2.25,6.73-2.76,3.09-7.02-8.79-2.25-6.73ZM1637.43,664.88l2.22,2.52-2.95,2.53.73-5.05ZM1645.65,709.51c.36-1.92-2.79-3.9-2.88-6.56-.03-.82,1.06-10.66,1.39-11.07,1.49-1.84,4,.82,2.99,3.37,2.34.09,2.4-4.34,3.17-4.93.45-.35,5.6,1.31,5.78,1.57,3.01,4.49-5.85,3.74-6.69,4.96-5.56,8.09.61,8.78.75,9.35,1.66,6.42-3.31,3.24-4.29,4.4-.78.92.53,9.28-3.94,8.26-7.23-1.64,3.6-8.77,3.72-9.36ZM1640.43,700.31v-1.69c.97.56.97,1.12,0,1.69ZM1667.92,712.25c1.19.96,4,12.43,3.11,15.06-4.88,1.29-2.59-4.91-5.45-6.88-1.8-1.24-6.12-1.22-6.48-1.56-2.34-2.17,6.27-8.68,8.83-6.62ZM1666.56,690.2c.76.69-2.95,4.72-4.48,3.35-.76-.69,2.95-4.72,4.48-3.35ZM1658.34,691.87v-1.69c.97.56.97,1.12,0,1.69ZM1647.2,685.08c-.2-.2-1.01-4.14-1.54-5.86-.45-1.45-2.57-2.96.74-4.21,1.31-.49.34,3,1.48,3.42,4.73,1.72,4.4-4.9,5.97-5.08.32-.04,5.22,3.48,5.22,4.19,0,1.76-9.65,9.8-11.86,7.54ZM1657.59,734.08v1.66h-2.97v-1.66h2.97ZM1644.91,663.16c-2.65-.03-2.54-6.72,0-6.69,2.65.03,2.54,6.72,0,6.69ZM1647.15,728.99c-1.63-1.84,1.34-5.2,2.97-3.36,1.63,1.84-1.34,5.2-2.97,3.36ZM1650.12,737.45v3.36h-1.47v-3.36h1.47ZM1647.15,717.18v-3.37s2.98,3.36,2.98,3.36h-2.98ZM1639.69,727.32c.16-.18,4.31-.18,4.47,0,3.93,4.49-8.4,4.49-4.47,0ZM1642.66,943.32c.16.18.16,4.87,0,5.05-3.97,4.44-3.97-9.49,0-5.05ZM1640.43,928.12v-1.69c.97.56.97,1.12,0,1.69ZM1641.92,936.56v-1.69c.97.56.97,1.12,0,1.69ZM1644.15,951.76c2.72,3.07-1.9,7.01-5.97,5.04.33-2.23,4.71-6.46,5.97-5.04ZM1642.65,965.26v3.36h-1.47v-3.36h1.47ZM1641.16,1014.18h-1.47v-3.36h1.47v3.36ZM1642.66,1002.36h-2.97v-1.66h2.97v1.66ZM1639.69,980.45c.16-.18,4.31-.18,4.47,0,3.93,4.49-8.4,4.49-4.47,0ZM1644.91,1014.19v-1.69c.97.56.97,1.12,0,1.69ZM1644.91,1004.06v-1.69c.97.56.97,1.12,0,1.69ZM1648.65,992.24c-1.63-1.84,1.34-5.2,2.97-3.36,1.63,1.84-1.34,5.2-2.97,3.36ZM1654.06,808.75c-1.72.22-3.33,2.35-5.04,2.68-3.41.66-7.08-1.98-10.82.25l-.02-10.96c-.17-1.43,2.63-1.08,2.97-.82.13.1-.31,2.31,1.03,3.41,3.36,2.76,10.79-1.63,15.95.2,2.59.92,3.29,5.57,2.45,6.48-.72.78-4.92-1.44-6.51-1.24ZM1662.07,1014.17h-2.97v-1.66h2.97v1.66ZM1663.56,983.8c-3.97,4.44-3.97-9.49,0-5.05.16.18.16,4.87,0,5.05ZM1659.1,794.81v-8.42c8.21-1.07,8.21,9.49,0,8.42ZM1665.81,1004.06v-1.69c.97.56.97,1.12,0,1.69ZM1664.99,776.25c-.44.34-3.3-1.11-4.87-1.08-1.41.02-4.9,1.76-5.51,1.08-1.92-2.16,4.22-10.22,5.97-11.08.77-.38,5.59,2.62,5.78,2.91.74,1.13-1.07,7.94-1.37,8.17ZM1698.63,987.22c-.67-2.88-1.04-5.48-.71-8.46l4.45,15.17c-1.82.15-3.41-5.28-3.75-6.71ZM1711.2,995.03c-1.58-5.32-3.64-10.68-4.31-16.27l7.45,20.23c-4.47.89-2.36-1.33-3.14-3.95ZM1720.3,983.8l2.98,13.51c-2.96-1.22-9.83-14.82-2.98-13.51ZM1718.82,902.83h5.96v1.66h-5.96v-1.66ZM1727.77,906.2c-2.92,4.93-11.61,6.79-5.29,13.56,3.23,3.46,8.86,1.35,8.27,6.67-13.33-4.55-19.83-13.91-2.98-20.23ZM1720.3,934.88c2.37,2.71-2.78,4.87-4.47,3.35-.84-.76,3.24-4.76,4.47-3.35ZM1701.66,901.15c-1.38,7.07-1.52,19.23,4.38,23.7,1.33,1,4.43,2.58,5.31,1.58.86-.98-1.77-8.53,1.49-8.42-.78,3.09,2.2,12.52-2.23,11.83-9.79-1.53-14.96-20.12-8.94-28.68ZM1702.38,931.52c.38,3.04-5.77,1.35-5.93,4.19-.12,2.1,12.26,22.62,14.89,19.41,1.08-1.31-2.35-13.79,2.98-15.18-1.02,5.74-2.76,13.35-1.21,19.1,1.19,4.39,11.18,8.25,13.16,12.95l-15.95-10.64c-1.55-3.76-4.23-5.86-6.5-8.78-1.14-1.47-1.9-7.39-4.46-3.21-3.64,5.93,1.76,13.75,3.9,19.13,1.13,2.84,1.33,5.35-1.62,1.83-1.81-5.18-5.9-13.69-4.98-19.02.32-1.86,2.19-3.74,2.22-5.45.08-4.43-10.99-15.03,3.5-14.33ZM1678.49,945.01c1.63,1.84-1.34,5.2-2.97,3.36-1.63-1.84,1.34-5.2,2.97-3.36ZM1670.31,744.17c-5.33-2.28-.99-10.42,2.21-6.73.29.33,1.22,8.2-2.21,6.73ZM1672.52,693.55c-2.39,2.68-4.31-3.14-2.97-5.05.67-.95,4.21,3.66,2.97,5.05ZM1671.03,680.07c.83,1.02-3.85,11.12-5.96,8.42-1.32-1.68,3.99-10.84,5.96-8.42ZM1666.54,664.88v3.36h-1.47v-3.36h1.47ZM1665.81,663.19v-1.69c.97.56.97,1.12,0,1.69ZM1662.08,644.62c-.08,1.35.23,4.79,0,5.05-2.57,2.87-6.04-5.82-2.23-6.7.42-.1,1.64,1.65,2.24,1.64.49-8.07-.55-4.24,3.79-3.42.71.14-2.25-5.45,2.18-3.33.67,6.06-1.5,6.7-5.97,6.74ZM1675.51,609.18l-10.44-1.67c-1.19,5.63,3.04,2.4,4.48,3.37.61.41-2.01,11.21-2.85,12.5-1.18,1.82-4,.55-4.45,1.11-.82,1.01.93,9.61-2.42,13.51-1.95,2.27-4.42-.04-5.31.66-1.47,1.15-1.81,7.57-3.64,7.63-3.83.12.16-12.31-5.21-10.1-3.13,9.44,1.3,8.36,5.22,15.19,1.53-9.83,7.05-5.89,5.23,3.38l4.45-3.37c-.44,2.95-1.79,12.07-5.18,11.85-7.82-.5-6.22-8.96-6.92-9.96-.32-.45-3.85-.72-5.38-1.49-7.02-3.58-.46-5.96-.67-9.38-.23-3.76-5.58-9.16-6.42-12.78-.48-2.05-1.19-15.91,2.18-12.86,2.37,2.14-.29,7.21,4.46,5.94.65-10.35,2.66-4.74,5.8-4.24,1.5.24,4.46-1.19,4.66-.84.49.84-.45,4.52.02,5.11.12.15,2.38-1.83,2.8-1.42.76.75-.89,3.77,1.66,3.07l1.6-10.87-1-2.46,5.35,4.05c-1.45,1.03-5.32,7.07-1.47,7.59-.2-2.42,2.45-4.44,2.72-6.23.08-.55-2.33-10.29-2.71-10.63-.71-.63-5.17,3.97-5.93,3.37-.28-.22-1.52-7.8-4.51-5.05-.26.24,3.73,7.18-2.99,6.72,2.87-4.14-1.76-10.4-.78-13.49,1.67-5.32,4.57,6.22,6.74,5.07l-2.24-6.72c2.93,5.13,4.01.64,6.71.94.69.08,1.81,1.56,4,1.57,2.81.01,12.01-3.58,12.45-1.68,1.22,5.21-5.88-1.39-5.95,3.36-.04,2.27,9.11,1.22,5.94,9.27ZM1653.86,614.25v-1.69c.97.56.97,1.12,0,1.69ZM1721.79,526.49c-.9.92-4.89-1.66-6.52-1.32-1.48.31-9.1,8.94-9.88,8.07.44-8.02,12.85-6.91,0-10.13l-1.51,10.14-7.28-1.93.59-3.11-3.22,3.14c-2.75,1.16-1.65-1.8-2.48-2.53-6.43-5.59-4.6,3.36-5.58,4.36-.73.74-4.74-1.01-6.45-1.08-2.52-.1-12.46,1.7-12.88,1.15-1.07-1.38-1.07-14.14.77-16.97,1-1.53,7.81-.14,8.12.15.59.58-.17,5.02.08,6.67,2.98.17.57-5.7,3.91-6.61,1.19-.32,12.25.62,14.75.8,4.74.33,9.95.58,14.73.97,2.08.17,17.13,3.83,12.88,8.22ZM1757.64,563.62v-3.36c2.79-.43,5.17,0,5.97,3.35h-5.97Z"/>
  <path d="M1709.86,1005.75v8.44c2.14.12,11.59,3.66,13.43,1.68,1.07-1.16-2.37-9.88-2.98-10.12-.5-.2-8.09,1.68-10.45,0Z"/>
  <path d="M1665.06,369.58c-.76.69,2.95,4.72,4.48,3.35.76-.69-2.95-4.72-4.48-3.35Z"/>
  <polygon points="1666.57 362.81 1666.56 366.18 1669.54 366.17 1666.57 362.81"/>
  <rect x="1327.62" y="1029.39" width="2.97" height="1.66"/>
  <rect x="1656.12" y="344.26" width="1.47" height="3.36"/>
  <rect x="1666.57" y="345.95" width="1.47" height="3.36"/>
  <rect x="1660.6" y="357.76" width="1.47" height="3.36"/>
  <path d="M1659.84,369.56c.97-.56.97-1.12,0-1.69v1.69Z"/>
  <path d="M1379.13,774.56v1.69c.97-.56.97-1.12,0-1.69Z"/>
  <path d="M1661.33,351c.97-.56.97-1.12,0-1.69v1.69Z"/>
  <polygon points="1665.09 340.02 1667.32 342.53 1668.02 341.73 1665.8 339.22 1665.09 340.02"/>
  <path d="M1656.85,340.88v1.69c.97-.56.97-1.12,0-1.69Z"/>
  <path d="M1661.33,339.19v1.69c.97-.56.97-1.12,0-1.69Z"/>
  <path d="M1658.34,356.06v1.69c.97-.56.97-1.12,0-1.69Z"/>
  <path d="M1765.85,1014.19v1.69c.97-.56.97-1.12,0-1.69Z"/>
  <path d="M1329.85,1024.31v1.69c.97-.56.97-1.12,0-1.69Z"/>
  <rect x="1426.17" y="364.52" width="5.96" height="1.66"/>
  <path d="M1434.37,293.62v1.69c.97-.56.97-1.12,0-1.69Z"/>
  <path d="M1507.54,5.06v1.69c.97-.56.97-1.12,0-1.69Z"/>
  <path d="M1658.34,627.75v1.69c.97-.56.97-1.12,0-1.69Z"/>
  <path d="M1566.51,642.95c-1.63-1.84-4.6,1.52-2.97,3.36,1.63,1.84,4.6-1.52,2.97-3.36Z"/>
  <rect x="1556.08" y="636.2" width="1.47" height="3.36"/>
  <rect x="1560.56" y="639.57" width="1.47" height="3.36"/>
  <path d="M1567.26,678.37v1.69c.97-.56.97-1.12,0-1.69Z"/>
  <polygon points="1576.94 650.52 1576.23 649.72 1574.01 652.23 1574.71 653.03 1576.94 650.52"/>
  <path d="M1571.74,646.31v1.69c.97-.56.97-1.12,0-1.69Z"/>
  <rect x="1255.95" y="664.89" width="2.97" height="1.66"/>
  <rect x="1293.29" y="675.01" width="1.47" height="5.05"/>
  <rect x="1296.27" y="685.13" width="1.47" height="3.36"/>
  <path d="M1297,678.37v1.69c.97-.56.97-1.12,0-1.69Z"/>
  <path d="M1775.55,948.37c1.07-.99-.77-4.92-3.6-4.99-3.23-.08-8.6,3.14-12.82,1.63-.82,10.04,3.15,2.57,6.9,2.11,2.15-.26,8.12,2.56,9.53,1.25Z"/>
  <rect x="1772.58" y="924.77" width="2.97" height="1.66"/>
  <rect x="1769.59" y="987.2" width="5.96" height="1.66"/>
  <rect x="1757.64" y="972.02" width="2.97" height="1.66"/>
  <path d="M1762.86,972v1.69c.97-.56.97-1.12,0-1.69Z"/>
  <rect x="1763.62" y="907.89" width="10.44" height="1.66"/>
</svg>