<?xml version="1.0" encoding="UTF-8"?>
<svg id="Layer_1" xmlns="http://www.w3.org/2000/svg" version="1.1" viewBox="0 0 1920 1080">
  <!-- Generator: Adobe Illustrator 29.5.1, SVG Export Plug-In . SVG Version: 2.1.0 Build 141)  -->
  <defs>
    <style>
      .st0 {
        fill: #fff;
      }
    </style>
  </defs>
  <g id="doaL8L.tif">
    <g>
      <rect class="st0" x="1049.76" y="16.67" width="1.56" height="5.03"/>
      <path class="st0" d="M1098.26,142.76v1.68c1.03-.56,1.03-1.12,0-1.68Z"/>
      <rect class="st0" x="1107.02" y="142.77" width="3.16" height="3.34"/>
      <path class="st0" d="M1170.65,129.3h2.35l3.97-4.19c-3.6-5.19-7.13-1.18-6.32,4.19Z"/>
      <path class="st0" d="M1081.93,118.65c8.04,3.61,44.53-1.08,56.18-1.2,5.87-.06,10.92,2.35,17.22.19l2.58,9.97c-3.63.25-5.79-3.96-9.41-4.29-1.88-.17-3.12,1.9-4.34,1.97-22.03,1.1-45.51-1.5-66.65,2.25-2.56.45-5.2.07-7.77.19l-.99-9.4,12.13-2.26c.76-.03.59,2.38,1.06,2.59h-.01Z"/>
      <path class="st0" d="M1075.74,7.69c1.3.9,3.47.04,4.33,1.69,1.79,3.45-1.13,8.3,6.26,12.31-8.25-.18-8.68,6.58-8.71,13.48l-5.26.31-1.13,3.03-2.41-6.67,4.78-.88c-6.61-6.88-3.04-13.02,1.6-19.33l-6.39,2.48,1.65-7.55,2.97,1.42.2-3.08c2.47-.71.98,1.99,2.12,2.78h0Z"/>
      <path class="st0" d="M1073.62,26.75c3.16-.9,3.58-3.59,3.15-6.72-3.16.9-3.58,3.59-3.15,6.72Z"/>
      <path class="st0" d="M1108.6,100.73c3.83-5.73,15.44-1.96,21.4-3.25l1.73-5.27c4.18.33,10.26-1.41,11.86,3.46l-4.76,1.68,4.76,3.38h-35,.01Z"/>
      <path class="st0" d="M1086.32,43.57l-3.12,11.07c-5.45.87-8.13-2.86-12.77,2.37-1.54-4.44,2.85-2.75,3.2-4.44.46-2.27-.2-4.95-.02-7.32l6.35,3.34-.79-5.04,7.15.02h0Z"/>
      <rect class="st0" x="1146.77" y="92.31" width="11.15" height="8.42"/>
      <polygon class="st0" points="1083.14 58.68 1083.16 63.73 1087.92 60.39 1087.16 63.8 1091.09 67.09 1076.79 67.09 1077.04 60.66 1083.14 58.68"/>
      <path class="st0" d="M1073.6,90.64c-.12-.07.28-2.31-.49-2.77-2.11-1.25-5.32-.84-5.87-3.94,5.97,1.94,7.39.25,10.34-5.03,3.52,4.72,6.38,6.27,12.01,4.27,9.01-3.2,1.77-12.3,4.7-19.43-3.14-.09-5.69,1.34-4.77-3.36l15.89,1.69-7.94,1.67.76,3.33,3.99-1.65.14,16.67,6.22.13-.78-5,2.42,5,4.1-3.37,3.57,1.33,1.13-3.07,10.22.9c-6.82,7.8-17.56,5.74-25.83,7.99-2.15.59-15.72,5.63-16.33,6.28-1.14,1.21-1.78,3.32.43,3.3,5.09,2.33,9.58,7.75,11.56-1.59l6.32,6.7c-7.71.75-14.04-.16-21.04-3.48-1.39-.66-.97-4.45-3.58-3.22-6.05,2.84,1.21,9.73.77,10.06h-6.36c.7-5.84.53-9.1,4.77-13.42-1.67-.42-5.4.54-6.36-.02l-.02,2.5-3.15,2.55v-6.72l3.17,1.68v.02Z"/>
      <path class="st0" d="M1085.53,88.96v1.68c1.03-.56,1.03-1.12,0-1.68Z"/>
      <polygon class="st0" points="1126.09 92.34 1111.78 94.9 1105.43 93.98 1126.09 92.34"/>
      <path class="st0" d="M1055.65,87.77c.36.47,3.72,7.75-.32,6.21l-5.59-8.38c.86-.74,5.04,1.04,5.91,2.16h0Z"/>
      <path class="st0" d="M1178.6,8.27l-3.2,10.06c-3.22-.75-1.56-6.52-6.33-3.35v-5.04l4.73,3.36,4.81-5.03h-.01Z"/>
      <polygon class="st0" points="1143.59 20.04 1138.8 25.05 1135.66 20.86 1143.59 20.04"/>
      <path class="st0" d="M1097.87,54.85c1.15.87,2.95.42,4.36.5v1.65h-6.35v-5.03h1.56c-.13.88-.2,2.39.42,2.87h0Z"/>
      <polygon class="st0" points="1118.14 8.27 1118.14 11.61 1113.37 11.6 1115.78 8.27 1118.14 8.27"/>
      <polygon class="st0" points="1137.22 36.83 1135.66 36.83 1135.66 30.11 1138.78 32.62 1137.22 36.83"/>
      <path class="st0" d="M1108.6,43.58l-2.38,5.02-2.36-2.51c1.42-1.8,2.41-3.06,4.74-2.51Z"/>
      <path class="st0" d="M1121.33,23.37l-4.76,1.7c-.17-4.69,3.13-6.75,4.76-1.7Z"/>
      <polygon class="st0" points="1184.95 83.9 1181.79 83.9 1181.79 81.42 1184.17 78.88 1184.95 83.9"/>
      <polygon class="st0" points="1108.6 14.97 1103.84 14.15 1106.21 11.65 1108.6 14.97"/>
      <rect class="st0" x="1146.79" y="31.8" width="3.16" height="3.34"/>
      <rect class="st0" x="1177.02" y="77.2" width="3.16" height="3.34"/>
      <polygon class="st0" points="1114.97 38.53 1110.2 38.5 1110.2 36.86 1115.78 33.51 1114.97 38.53"/>
      <polygon class="st0" points="1056.09 154.52 1052.95 152 1055.32 149.49 1056.09 154.52"/>
      <polygon class="st0" points="1130.87 65.44 1128.49 68.75 1126.11 66.25 1130.87 65.44"/>
      <polygon class="st0" points="1188.13 23.38 1184.96 23.37 1185.74 18.38 1188.13 20.89 1188.13 23.38"/>
      <rect class="st0" x="1116.56" y="30.13" width="4.76" height="1.65"/>
      <rect class="st0" x="1137.24" y="26.77" width="3.17" height="1.65"/>
      <rect class="st0" x="1153.16" y="16.67" width="1.56" height="3.35"/>
      <rect class="st0" x="1191.34" y="78.88" width="1.56" height="3.35"/>
      <rect class="st0" x="1086.35" y="30.12" width="1.56" height="3.35"/>
      <rect class="st0" x="1089.52" y="53.67" width="3.17" height="1.65"/>
      <rect class="st0" x="1070.44" y="60.38" width="1.56" height="3.35"/>
      <rect class="st0" x="1110.21" y="25.08" width="1.56" height="3.35"/>
      <rect class="st0" x="1172.24" y="77.21" width="3.17" height="1.65"/>
      <rect class="st0" x="1068.84" y="48.62" width="3.17" height="1.65"/>
      <rect class="st0" x="1046.57" y="147.81" width="1.56" height="3.35"/>
      <polygon class="st0" points="1135.63 26.74 1134.07 26.74 1133.24 21.74 1135.63 24.26 1135.63 26.74"/>
      <rect class="st0" x="1107.02" y="8.28" width="3.17" height="1.65"/>
      <rect class="st0" x="1191.33" y="20.04" width="3.17" height="1.65"/>
      <rect class="st0" x="1054.53" y="136.04" width="1.56" height="3.35"/>
      <rect class="st0" x="1188.16" y="75.52" width="1.56" height="3.35"/>
      <rect class="st0" x="1108.61" y="4.91" width="3.17" height="1.65"/>
      <rect class="st0" x="1181.8" y="73.83" width="1.56" height="3.35"/>
      <rect class="st0" x="1094.29" y="94.02" width="3.17" height="1.65"/>
      <rect class="st0" x="1084.75" y="100.74" width="3.17" height="1.65"/>
      <path class="st0" d="M1115.76,43.56c1.03.56,1.03,1.12,0,1.68v-1.68Z"/>
      <path class="st0" d="M1123.71,45.25c1.03.56,1.03,1.12,0,1.68v-1.68Z"/>
      <path class="st0" d="M1173.03,33.48c1.03.56,1.03,1.12,0,1.68v-1.68Z"/>
      <path class="st0" d="M1158.71,28.43c1.03.56,1.03,1.12,0,1.68v-1.68Z"/>
      <path class="st0" d="M1182.57,26.75c1.03.56,1.03,1.12,0,1.68v-1.68Z"/>
      <path class="st0" d="M1161.89,26.75c1.03.56,1.03,1.12,0,1.68v-1.68Z"/>
      <path class="st0" d="M1125.3,25.07c1.03.56,1.03,1.12,0,1.68v-1.68Z"/>
      <path class="st0" d="M1093.49,25.07c1.03.56,1.03,1.12,0,1.68v-1.68Z"/>
      <path class="st0" d="M1120.53,65.42c1.03.56,1.03,1.12,0,1.68v-1.68Z"/>
      <path class="st0" d="M1098.26,21.71c1.03.56,1.03,1.12,0,1.68v-1.68Z"/>
      <path class="st0" d="M1174.62,72.14c1.03.56,1.03,1.12,0,1.68v-1.68Z"/>
      <path class="st0" d="M1193.71,73.83c1.03.56,1.03,1.12,0,1.68v-1.68Z"/>
      <path class="st0" d="M1063.26,75.51c1.03.56,1.03,1.12,0,1.68v-1.68Z"/>
      <path class="st0" d="M1169.85,75.51c1.03.56,1.03,1.12,0,1.68v-1.68Z"/>
      <path class="st0" d="M1173.03,20.03c1.03.56,1.03,1.12,0,1.68v-1.68Z"/>
      <path class="st0" d="M1125.32,18.38c1.58,1.1-.74,2.22-1.62,3.3l-.75-.79,2.37-2.5h0Z"/>
      <path class="st0" d="M1069.63,78.87c1.03.56,1.03,1.12,0,1.68v-1.68Z"/>
      <path class="st0" d="M1169.85,80.55c1.03.56,1.03,1.12,0,1.68v-1.68Z"/>
      <path class="st0" d="M1174.62,80.55c1.03.56,1.03,1.12,0,1.68v-1.68Z"/>
      <path class="st0" d="M1169.85,16.66c1.03.56,1.03,1.12,0,1.68v-1.68Z"/>
      <path class="st0" d="M1182.57,14.98c1.03.56,1.03,1.12,0,1.68v-1.68Z"/>
      <path class="st0" d="M1112.58,13.3c1.03.56,1.03,1.12,0,1.68v-1.68Z"/>
      <path class="st0" d="M1184.17,85.59c1.03.56,1.03,1.12,0,1.68v-1.68Z"/>
      <path class="st0" d="M1125.3,11.62c1.03.56,1.03,1.12,0,1.68v-1.68Z"/>
      <path class="st0" d="M1053.7,142.79c.88,1.07,3.2,2.19,1.62,3.3-.77-.99-3.19-2.13-1.62-3.3Z"/>
      <path class="st0" d="M1104.62,8.26c1.03.56,1.03,1.12,0,1.68v-1.68Z"/>
      <path class="st0" d="M1053.7,129.34c.88,1.07,3.2,2.19,1.62,3.3-.77-.99-3.19-2.13-1.62-3.3Z"/>
      <path class="st0" d="M1161.89,6.58c1.03.56,1.03,1.12,0,1.68v-1.68Z"/>
      <path class="st0" d="M1125.3,6.58c1.03.56,1.03,1.12,0,1.68v-1.68Z"/>
      <path class="st0" d="M1047.35,125.94c1.03.56,1.03,1.12,0,1.68v-1.68Z"/>
      <path class="st0" d="M1173.03,4.9c1.03.56,1.03,1.12,0,1.68v-1.68Z"/>
      <path class="st0" d="M1052.13,117.54c1.03.56,1.03,1.12,0,1.68v-1.68Z"/>
      <path class="st0" d="M1153.94,4.9c1.03.56,1.03,1.12,0,1.68v-1.68Z"/>
      <path class="st0" d="M1055.31,110.81c1.03.56,1.03,1.12,0,1.68v-1.68Z"/>
      <path class="st0" d="M1047.35,110.81c1.03.56,1.03,1.12,0,1.68v-1.68Z"/>
    </g>
  </g>
  <rect x="1061.2" y="762.89" width="3.72" height="5.99"/>
</svg>