<?xml version="1.0" encoding="UTF-8"?>
<svg id="Layer_1" xmlns="http://www.w3.org/2000/svg" version="1.1" viewBox="0 0 1920 1080">
  <!-- Generator: Adobe Illustrator 29.5.1, SVG Export Plug-In . SVG Version: 2.1.0 Build 141)  -->
  <defs>
    <style>
      .st0 {
        fill: #fff;
      }
    </style>
  </defs>
  <g id="doaL8L.tif">
    <g>
      <path class="st0" d="M1339.27,87.29c-1.2,5.06-7.66,6.2-6.35,11.75,3.28-4.15,31.83-5.43,31.77-.84-4.8,2.33-11.78,13.98-15.83,15.33-.56.19-11.14.85-11.72.75-1.24-.22-5.05-12.12-10.61,1.55,12.04,6.01,23.35,8.41,36.59,10.13-1.39,4.82-12.75-2.29-11.12,5.02h12.73l.08,19.21-27.84,7.8-.97-3.34-3.06-.08-3.22,6.67,34.99,5.07-6.36,3.37.82,3.35c6.22-4.5,7.44,6.79,3.99,9.36l-19.14-.11c-.98,9.16,16.08,10.23,18.72,13,1.71,1.79,2.88,14.08,1.27,16.53l-90.01.77-1.55-5.91c13.13,1.41,26.22-1.35,39-1.82,9.26-.34,18.58,4.73,27.81-4.08-3.42-2.3-6.14-1.24-7.12,2.54-8.53-4.21-24.6-12.68-33.68-13.35-8.24-.61-16.09,4.37-24.43,3.26l.24-21.64,6.09-2.87c-.55-5.51-2.35-5.21-6.43-6.71l.11-14.18c6.54-.19,9.48,5.34,16.46,4.95,12.15-.68,30.81-10.98,43.98-11.71v-5.01l-25.45-.03,3.17-5.02c-5.13-.65-11.91,2.08-15.87-2.55,13.18.42,25.58-4.49,38.92-.83,7.81-4.29-12.27-12.61-14.7-13.09s-4.41,1.12-6.74,1.33c-1.13-8.48,13.93.24,12.74-5.9-2.41-12.44-8.14-3.23-12.75-9.21l11.12-4.25c1.59-3.1-6.76-2.68-3.16-5.85,3.7-3.25,4.55,5.06,7.94,3.34l-1.58-5.02c5.44-2-.57,7.53,4.74,3.34.9-.71.36-7.01,6.39-5.01h.02Z"/>
      <path class="st0" d="M1344.04,100.73l-6.92-1.54-2.62,6.58c8.9,2.62,8.24-3.85,9.54-5.03.33-.31,2.23.2,3.17,0v-3.34h-3.16v3.36-.03Z"/>
      <polygon class="st0" points="1355.18 99.06 1352.01 99.05 1352.01 104.08 1353.57 104.08 1355.18 99.06"/>
      <rect class="st0" x="1345.64" y="107.47" width="3.17" height="1.65"/>
      <rect class="st0" x="1345.64" y="127.63" width="3.16" height="3.34"/>
      <rect class="st0" x="1323.37" y="129.32" width="3.17" height="1.65"/>
      <path class="st0" d="M1340.07,137.71v1.68c1.03-.56,1.03-1.12,0-1.68Z"/>
      <polygon class="st0" points="1318.58 156.22 1312.24 157.04 1314.6 159.52 1318.58 157.87 1318.58 156.22"/>
      <rect class="st0" x="1293.15" y="167.98" width="1.56" height="3.35"/>
      <rect class="st0" x="1332.92" y="167.99" width="3.17" height="1.65"/>
      <rect class="st0" x="1288.38" y="169.66" width="1.56" height="3.35"/>
      <path class="st0" d="M1341.66,169.66v1.68c1.03-.56,1.03-1.12,0-1.68Z"/>
      <path class="st0" d="M1355.17,169.66c-5.55-1.56-7.76,3.03-11.13,6.7,4.97.63,11.02-.15,11.13-6.7Z"/>
      <polygon class="st0" points="1339.27 176.36 1335.29 172.93 1331.33 175.55 1339.27 176.36"/>
      <path class="st0" d="M1308.25,181.42v1.68c1.03-.56,1.03-1.12,0-1.68Z"/>
      <rect class="st0" x="1337.69" y="184.8" width="3.16" height="3.34"/>
      <rect class="st0" x="1283.6" y="186.49" width="4.76" height="1.65"/>
      <path class="st0" d="M1306.83,77.89c.42.19,1.79,4.3,5.39,2.68l-2.41,3.34c-3.64.9-4.61-5.92-6.58-6.62-2.73-.97-16.53,2.43-21.22-.09l7.17,8.36-15.18-4.18.24-5.67c9.97-3.13,23.23-1.96,32.59,2.18Z"/>
      <path class="st0" d="M1333.09,83.73l6.18-1.48-9.54,5.01c2.26-4.16.5-4.94-1.59-8.37,0,0,4.95,4.84,4.95,4.84Z"/>
      <path class="st0" d="M1316.75,85.87l1.83,6.44-4.78-.83c3.59-.17,4.15-3.17.79-4.19-1.61-.49-5.22,6.41-10.31,3.33l5.91-4.96,6.56.21Z"/>
      <path class="st0" d="M1274.05,109.13l24.64-5.07-.42,2.56,2.85,1.66c-3.8,4.05-5.23-2.65-5.58-2.52-3.55,2.33-.68,4.95-.82,8.4-4.47-2.59-8.15-2.43-10.78,2.5,3.04,4.53,1.89,6.74,7.56,5.04l-1.52,3.19,3.19,1.89-4.8,5.86,12.71,3.37-19.07-1.65-.2,4.74-7.77,1.97v-31.94h.01Z"/>
      <rect class="st0" x="1277.24" y="117.55" width="3.17" height="1.65"/>
      <rect class="st0" x="1283.61" y="122.59" width="1.56" height="3.35"/>
      <path class="st0" d="M1307.45,87.26l-4.77.02-1.56-4.23c1.66-1.06,7.28,3.49,6.33,4.2h0Z"/>
      <polygon class="st0" points="1280.4 88.98 1280.4 90.62 1274.06 90.63 1274.06 87.28 1280.4 88.98"/>
      <polygon class="st0" points="1321.77 77.21 1319.4 80.5 1315.42 78.85 1315.42 77.21 1321.77 77.21"/>
      <polygon class="st0" points="1312.22 104.08 1309.05 104.07 1311.44 100.73 1312.22 104.08"/>
      <polygon class="st0" points="1307.45 102.42 1306.67 105.76 1304.27 102.42 1307.45 102.42"/>
      <rect class="st0" x="1323.37" y="77.21" width="3.17" height="1.65"/>
      <path class="st0" d="M1322.57,109.13c1.03.56,1.03,1.12,0,1.68v-1.68Z"/>
      <path class="st0" d="M1303.48,105.77c1.03.56,1.03,1.12,0,1.68v-1.68Z"/>
    </g>
  </g>
  <rect x="1061.2" y="762.89" width="3.72" height="5.99"/>
</svg>