<?xml version="1.0" encoding="UTF-8"?>
<svg id="Layer_1" xmlns="http://www.w3.org/2000/svg" version="1.1" viewBox="0 0 1920 1080">
  <!-- Generator: Adobe Illustrator 29.5.1, SVG Export Plug-In . SVG Version: 2.1.0 Build 141)  -->
  <defs>
    <style>
      .st0 {
        fill: #fff;
      }
    </style>
  </defs>
  <g id="doaL8L.tif">
    <g>
      <path class="st0" d="M26.47,51.68c55.59,5.71,113.9-3.45,167.66,4.81-4.04,3.2-15.4.92-16.92,1.39-7.47,2.33-.5,9.74-21.92,7.29-14.45-1.65,8.44-13.29-23.96-11.55l-15.1,21.22c-11.13-.76-12.15-10.26-23.88-2.89-1.73,1.09,23.63.63,8.87,4.85l-32.86-1.98c-2.66-4.71,2.01-3.19,11.61-4.68-3.87-10.97-24.5-3.32-32.57-10.78l-8.93,3.88,17.88-7.71-29.88-3.86h0Z"/>
      <rect class="st0" x="62.4" y="55.56" width="11.92" height="1.89"/>
      <path class="st0" d="M86.33,56.5h5.99c-2-1.25-3.99-1.25-5.99,0Z"/>
      <path class="st0" d="M98.43,62.28l8.92,2.88,2.82-.91c-3.81-1.07-7.81-3.89-11.74-1.97Z"/>
      <path class="st0" d="M373.86,20.79v11.55c-25.21.18-60.62-.27-71.84-8.69l71.84-2.87h0Z"/>
      <path class="st0" d="M373.87,55.56c-2.61,5.07-19.39,1.89-24.25,3-4.15.95-3.89,4.39-9.77,4.85-10.4.81-35.56-2.08-43.82-4.98,22.94-5.29,51.68-.24,77.84-2.87Z"/>
      <path class="st0" d="M158.19,18.85l-2.84,3.82-63-1.92c-1.39-3.37,13.59-1.81,20.87-1.91,14.94-.21,30.07.13,44.97,0h0Z"/>
      <path class="st0" d="M200.15,14.96c-11.17.22-26.35.56-29.95-3.82l27.07-1.9,2.88,5.72Z"/>
      <path class="st0" d="M319.98,125.08h29.9l-.03,3.85c-11.61-1.91-18.24-1.91-29.84,0l-.03-3.85Z"/>
      <rect class="st0" x="20.47" y="18.86" width="29.89" height="1.89"/>
      <rect class="st0" x="308.01" y="43.96" width="11.92" height="3.84"/>
      <rect class="st0" x="56.41" y="18.86" width="23.9" height="1.89"/>
      <rect class="st0" x="296.03" y="125.08" width="11.92" height="3.84"/>
      <rect class="st0" x="365.69" y="127.63" width="3.16" height="3.34"/>
      <rect class="st0" x="319.99" y="76.79" width="11.92" height="3.84"/>
      <rect class="st0" x="343.95" y="45.9" width="23.9" height="1.89"/>
      <rect class="st0" x="242.11" y="72.94" width="17.91" height="1.89"/>
      <rect class="st0" x="316.38" y="127.63" width="1.56" height="5.03"/>
      <polygon class="st0" points="38.35 38.16 38.38 42.01 26.43 42 38.35 38.16"/>
      <rect class="st0" x="92.35" y="32.38" width="17.91" height="1.89"/>
      <rect class="st0" x="206.2" y="53.62" width="5.87" height="5.77"/>
      <polygon class="st0" points="200.18 20.79 212.1 21.73 200.21 24.64 200.18 20.79"/>
      <rect class="st0" x="116.32" y="38.18" width="11.92" height="1.89"/>
      <rect class="st0" x="122.31" y="71.01" width="11.92" height="1.89"/>
      <rect class="st0" x="20.47" y="32.38" width="11.92" height="1.89"/>
      <rect class="st0" x="212.16" y="43.97" width="11.92" height="1.89"/>
      <rect class="st0" x="26.49" y="132.8" width="5.87" height="3.84"/>
      <rect class="st0" x="456.37" y="63.76" width="3.17" height="1.65"/>
      <rect class="st0" x="80.41" y="78.72" width="5.87" height="3.84"/>
      <rect class="st0" x="230.13" y="55.56" width="11.92" height="1.89"/>
      <rect class="st0" x="182.24" y="144.39" width="5.87" height="3.84"/>
      <rect class="st0" x="244.79" y="77.21" width="3.17" height="1.65"/>
      <rect class="st0" x="302.06" y="131" width="3.17" height="1.65"/>
      <rect class="st0" x="372.05" y="115.87" width="3.17" height="1.65"/>
      <rect class="st0" x="62.4" y="32.38" width="11.92" height="1.89"/>
      <rect class="st0" x="152.26" y="69.08" width="11.92" height="1.89"/>
      <rect class="st0" x="247.97" y="110.83" width="3.17" height="1.65"/>
      <rect class="st0" x="248.1" y="98.05" width="11.92" height="1.89"/>
      <rect class="st0" x="278.05" y="125.08" width="11.92" height="1.89"/>
      <path class="st0" d="M50.39,118.31c2-1.25,3.99-1.25,5.99,0h-5.99Z"/>
      <path class="st0" d="M68.36,116.37c2-1.25,3.99-1.25,5.99,0h-5.99Z"/>
      <path class="st0" d="M38.41,33.33c2-1.25,3.99-1.25,5.99,0h-5.99Z"/>
      <path class="st0" d="M38.41,122.17c2-1.25,3.99-1.25,5.99,0h-5.99Z"/>
      <path class="st0" d="M38.41,135.69c2-1.25,3.99-1.25,5.99,0h-5.99Z"/>
      <path class="st0" d="M457.15,55.33c1.03.56,1.03,1.12,0,1.68v-1.68Z"/>
      <path class="st0" d="M134.26,33.33c2-1.25,3.99-1.25,5.99,0h-5.99Z"/>
      <path class="st0" d="M285.34,23.39c1.03.56,1.03,1.12,0,1.68v-1.68Z"/>
      <path class="st0" d="M473.06,65.42c1.03.56,1.03,1.12,0,1.68v-1.68Z"/>
      <path class="st0" d="M473.06,70.46c1.03.56,1.03,1.12,0,1.68v-1.68Z"/>
      <path class="st0" d="M182.18,23.67c2-1.25,3.99-1.25,5.99,0h-5.99Z"/>
      <path class="st0" d="M277.39,20.03c1.03.56,1.03,1.12,0,1.68v-1.68Z"/>
      <path class="st0" d="M473.06,78.87c1.03.56,1.03,1.12,0,1.68v-1.68Z"/>
      <path class="st0" d="M200.15,31.4c2-1.25,3.99-1.25,5.99,0h-5.99Z"/>
      <path class="st0" d="M206.14,98.99c2-1.25,3.99-1.25,5.99,0h-5.99Z"/>
      <path class="st0" d="M212.13,145.34c2-1.25,3.99-1.25,5.99,0h-5.99Z"/>
      <path class="st0" d="M230.1,98.99c2-1.25,3.99-1.25,5.99,0h-5.99Z"/>
      <path class="st0" d="M230.1,64.23c2-1.25,3.99-1.25,5.99,0h-5.99Z"/>
      <path class="st0" d="M294.89,9.94c1.03.56,1.03,1.12,0,1.68v-1.68Z"/>
      <path class="st0" d="M245.57,149.48c1.03.56,1.03,1.12,0,1.68v-1.68Z"/>
      <path class="st0" d="M290.12,9.94c1.03.56,1.03,1.12,0,1.68v-1.68Z"/>
      <path class="st0" d="M256.71,132.67c1.03.56,1.03,1.12,0,1.68v-1.68Z"/>
      <path class="st0" d="M349.91,135.69c2-1.25,3.99-1.25,5.99,0h-5.99Z"/>
      <path class="st0" d="M242.08,145.34c2-1.25,3.99-1.25,5.99,0h-5.99Z"/>
      <path class="st0" d="M325.95,135.69c2-1.25,3.99-1.25,5.99,0h-5.99Z"/>
      <path class="st0" d="M237.62,117.54c1.03.56,1.03,1.12,0,1.68v-1.68Z"/>
      <path class="st0" d="M242.08,21.74c2-1.25,3.99-1.25,5.99,0h-5.99Z"/>
      <path class="st0" d="M372.84,110.81c1.03.56,1.03,1.12,0,1.68v-1.68Z"/>
      <path class="st0" d="M291.71,4.9c1.03.56,1.03,1.12,0,1.68v-1.68Z"/>
      <path class="st0" d="M248.07,44.92c2-1.25,3.99-1.25,5.99,0h-5.99Z"/>
      <path class="st0" d="M295.99,135.69c2-1.25,3.99-1.25,5.99,0h-5.99Z"/>
      <path class="st0" d="M278.02,31.4c2-1.25,3.99-1.25,5.99,0h-5.99Z"/>
      <path class="st0" d="M278.02,98.99c2-1.25,3.99-1.25,5.99,0h-5.99Z"/>
      <path class="st0" d="M260.05,29.47c2-1.25,3.99-1.25,5.99,0h-5.99Z"/>
    </g>
  </g>
</svg>