<?xml version="1.0" encoding="UTF-8"?>
<svg id="Layer_1" xmlns="http://www.w3.org/2000/svg" version="1.1" viewBox="0 0 1920 1080">
  <!-- Generator: Adobe Illustrator 29.5.1, SVG Export Plug-In . SVG Version: 2.1.0 Build 141)  -->
  <path d="M685.04,33.13v6.74s3.03,0,3.03,0c.39-3.15,0-5.84-3.03-6.74Z"/>
  <polygon points="685.04 43.25 685.04 49.98 686.54 49.98 688.08 43.26 685.04 43.25"/>
  <path d="M683.5,60.1c2.71,2.55,4.94-6.38,4.58-6.71-2.71-2.55-4.94,6.38-4.58,6.71Z"/>
  <path d="M633.1,159.62c1.67,1.84,4.7-1.52,3.04-3.36s-4.7,1.52-3.04,3.36Z"/>
  <rect x="666.71" y="53.37" width="1.5" height="6.73"/>
  <rect x="707.95" y="164.7" width="4.57" height="1.65"/>
  <polygon points="701.84 164.7 701.84 168.06 704.88 164.7 701.84 164.7"/>
  <rect x="701.84" y="147.83" width="1.5" height="3.36"/>
  <rect x="691.15" y="147.83" width="1.5" height="3.36"/>
  <rect x="685.04" y="147.83" width="1.5" height="3.36"/>
  <rect x="704.89" y="203.5" width="3.04" height="1.65"/>
  <rect x="721.7" y="46.63" width="1.5" height="3.36"/>
  <rect x="707.95" y="44.94" width="1.5" height="3.36"/>
  <rect x="721.7" y="33.13" width="1.5" height="3.36"/>
  <rect x="685.04" y="26.4" width="3.04" height="1.65"/>
  <path d="M707.17,235.53c.99-.56.99-1.12,0-1.69v1.69Z"/>
  <path d="M707.17,208.54c.99-.56.99-1.12,0-1.69v1.69Z"/>
  <path d="M685.79,201.79c.99-.56.99-1.12,0-1.69v1.69Z"/>
  <path d="M702.59,193.36c.99-.56.99-1.12,0-1.69v1.69Z"/>
  <path d="M693.43,193.36c.99-.56.99-1.12,0-1.69v1.69Z"/>
  <path d="M685.79,193.36c.99-.56.99-1.12,0-1.69v1.69Z"/>
  <path d="M707.17,179.87c.99-.56.99-1.12,0-1.69v1.69Z"/>
  <path d="M702.59,176.49c.99-.56.99-1.12,0-1.69v1.69Z"/>
  <path d="M662.88,173.12c.99-.56.99-1.12,0-1.69v1.69Z"/>
  <path d="M716.34,149.51c.99-.56.99-1.12,0-1.69v1.69Z"/>
  <path d="M708.7,149.51c.99-.56.99-1.12,0-1.69v1.69Z"/>
  <path d="M722.45,60.11c.99-.56.99-1.12,0-1.69v1.69Z"/>
  <path d="M673.57,60.11c.99-.56.99-1.12,0-1.69v1.69Z"/>
  <path d="M722.45,55.05c.99-.56.99-1.12,0-1.69v1.69Z"/>
  <path d="M698.01,55.05c.99-.56.99-1.12,0-1.69v1.69Z"/>
  <path d="M679.68,55.05c.99-.56.99-1.12,0-1.69v1.69Z"/>
  <path d="M673.57,55.05c.99-.56.99-1.12,0-1.69v1.69Z"/>
  <path d="M667.46,49.99c.99-.56.99-1.12,0-1.69v1.69Z"/>
  <path d="M698.01,48.31c.99-.56.99-1.12,0-1.69v1.69Z"/>
  <path d="M679.68,48.31c.99-.56.99-1.12,0-1.69v1.69Z"/>
  <path d="M675.1,46.62c.99-.56.99-1.12,0-1.69v1.69Z"/>
  <path d="M722.45,43.25c.99-.56.99-1.12,0-1.69v1.69Z"/>
  <path d="M679.68,39.87c.99-.56.99-1.12,0-1.69v1.69Z"/>
  <path d="M675.1,38.19c.99-.56.99-1.12,0-1.69v1.69Z"/>
  <path d="M756.05,225.41c.99-.56.99-1.12,0-1.69v1.69Z"/>
</svg>