<?xml version="1.0" encoding="UTF-8"?>
<svg id="Layer_1" xmlns="http://www.w3.org/2000/svg" version="1.1" viewBox="0 0 1920 1080">
  <!-- Generator: Adobe Illustrator 29.5.1, SVG Export Plug-In . SVG Version: 2.1.0 Build 141)  -->
  <defs>
    <style>
      .st0 {
        fill: #fff;
      }
    </style>
  </defs>
  <g id="doaL8L.tif">
    <g>
      <path class="st0" d="M18.6,324.99c.75.46,1.35,4.76,5.57,6.87,5.06,2.53,11.24-2.15,15.39,2.09l-9.51,3.35c7.27,4.77,6.28,16.74-2.67,10.28-6.75-4.87-7.15-17.55-19.64-16.18.26-4.7,7.22-8.64,10.85-6.41h0Z"/>
      <path class="st0" d="M302.05,896.31c-3.55-1.24-6.19-14.07-6.3-17.94-.15-4.94,2.52-6.86,2.54-8.13.04-1.67-9.43-24.35-10.55-28.59-.4-1.42,12.22-2.92,11.02-6.58l-8.01-15.92-4.36.14-3.45,8.08c-5.22-2.58,3.59-9.17.02-13.42l4.76,3.34c-1.23-7.91-6.35-5.45-3.15-15.12,5.56,2.33,2.36,13.56,9.52,13.44,2.14-2.48-8.61-17.56-9.2-19.67-1.96-7,.96-15.31,1.26-22.36l9.53,1.68.02-6.71h-9.56l.02-13.45,7.94,5.03-1.58-13.43,6.36.9,15.12-17.72,1.59,3.41,7.14-3.44c-.9-3.53-8.82-.76-10.8-3.7-2.21-3.29-2.69-26.7-11.44-23.17l-3.22-20.18-4.75,1.68,1.58-47.06,4.76,1.68.08-5.05,9.47-.84c-2.69-7.19-11.23-5.73-17.48-5.91l7.92-4.19-3.16-4.19,4.77-3.38c-2.9,1.53-5.99,2.34-6.36-2.51-.13-1.69,4.79,1.59,4.79-2.52-5.22,1.69-5.99-4.73-7.17-5.07-5.5-1.6,2.19,6.08-3.13,5.02-6.97-1.4-1.3-9.13-7.18-8.4v-1.63c4.81.63,3-5.88,5.55-8.49,2.37-2.42,7.08.16,5.59-6.66l4.75,3.34v-6.71l-7.83,1.83-.13,4.91-4.73-1.72-6.38,13.47v-21.86l3.96,3.24,5.53-7.45c-5.02-6.28-5.09,4.27-5.54,4.23l-3.95-4.23-.7-80.36-2.48-9.56-.36,44.37c-7,3.47-2.4,12.49-2.83,19.51l3.16-1.7c-1.24,13.47,1.66,29.96.15,43-.35,3.04-2.69,2.32-2.87,2.71-1.24,2.8,2.07,11.62,4.24,13.92.98,1.04,6.62-.99,6.43,2.56l-7.96.78-1.58,12.7h-4.76c.66-10.54-3.93-17.15,3.23-26.07l-3.28-1.79.04-12.49,3.63.03,1.15-5.91-4.77.83c-.16-8.11-.8-16.23,3.17-23.52h-4.73c-.21,4.97-2.27,9.85-2.84,14.71-1.11,9.46,1.6,12.94-3.54,21.76-4.4,7.54,2.84,8.09,3.31,14.85.38,5.46-3.43,3.86-3.4,5,.07,2.2,2.81,4.29,3.33,8.3,1.23,9.33-1.09,21.5-.09,31.2h-108.18v337.09c0,5-13.76.87-16.64.77-28.33-.95-56.86.85-85.18.08l.08-463.25c-1.76-17.94-.03-36.32-.07-54.58,4.64-.26,9.18-1.06,9.57,5.04l2.97-.22c-.7-4.38,4.98-2.33,4.97-3.97-7.98-.19-11.58-9.45-18.92-11.12l2.88-22.62c6.23-3.49,6.02,1.67,7.62,2.65,4.12,2.53,17.93.76,13.16-6.74,9.41,1.84,2.94-8.45-.69-3.28l-3.18,6.3-10.41-1.35v-21.85h14.3c.48-5.22-4.28-5.27-7.96-5.04l3.18-5.01-5.38-1.81c-3.78,9.37-9.2,3.2-16.01,3.4-6.27.18-16.56,3.93-22.41,3.63-3.25-.17-1.45-5.14-5.41-1.94l-1.69-6.65c4.63-1.5,1.91,3.74,5.52,3.52,5.34-.33,15.84-8.2,23.14-6.92-3.76-6.87,7.52-6.58.56-13.14l-14.92-2.81,16.48-1.08,2.4-2.57v-49.88l-3.5-2.57c-6.51,6.73-12.68,2.66-20.16.63,6.62-5.31,14.44-4.33,22.29-4.21v-6.71l-15.52-2.09c-3.9-5.8,2.15-11.03-3.57-16.39h9.54l-3.17,8.38,11.12-2.52-3.18-4.18,6.17-2.75c2.78-13.78-5.28-30.79,1.78-42.65l-6.33-2.54c7.12-4.45.66-11.68,6.18-13.37l-1.44-4.28,76.37-.02c2.07,7.95-6.39,17.02.81,21.85,7.41,1.79-1.22-17.37,3.85-21.12,6.32-.72,15.92-2.83,20.78,1.79v304.3l2.39,2.52h103.4c.53,0,2.42-2.23,3.98-1.68v-33.62l1.58,10.92,3.19-.03c-1.47-5.77.37-14.31-.54-19.82-.69-4.14-3.31-6.58-3.84-9.19-.6-2.95,1.32-8.37-.39-12.14l3.19,3.35,4.74-3.36,3.19,6.72.08-29.19c6.43-2.48.77-4.34.67-6.89-.12-2.84.6-28.93,1.14-30.33.58-1.48,3.64-1.33,4.31-3.56.54-1.8-1.03-17.55.18-19.11,3.45.58,5.53,3.16,7.95-.88l-3.19-5.83,6.36,1.65c-6.23-5.7-9.06-5.35-10.35-15.28l-3.95.16c-.95-6.81,4.08-1.68,5.55-1.68h27.84c.36-2.38-2.8-2.47-4.41-2.89-9.49-2.45-19.2-4.55-29-3.85l.02-5.03,4.73-.81c-8.42-5.11-4.62-33.57-8.75-34.49-7.52-1.68-3.31,24.88-5.59,26.88h-4.73v-119.35h98.63l.11,390.81-4.9,1.78,4.91,15-.11,348.97h-82.72v-8.4c3.97-1.13,3.57,3.45,5.19,4.56,3.39,2.33,10.19,2.59,12.3-2.05-10.49,2-8.23-11.87-4.79-18.55l-3.16-2.44,3.17-3.37c-4.85-1.28-5.32,6.62-3.21,9.26l-4.72-4.21-3.18,6.7c-3.68-7.26,6.04-7.42,7.9-14.3l-7.9,5.9-1.59-16.8,5.53,5.03c1.29-.3,7.51-9.79,8.04-11.68,1.91-6.83-1.33-16.54-.42-19.11.85-2.4,4.3-4.87,4.31-5.35.02-1.13-9.19-6.38-2.35-10.92,4.03,8.85,5.03-.71,5.56-5.05l3.23-.84-2.44-4.2c-1.65.4-.59,3.44-.79,5.04l.02-.02Z"/>
      <polygon class="st0" points="111.15 233.92 107.98 233.91 107.98 237.27 111.15 233.92"/>
      <rect class="st0" x="101.62" y="242.32" width="1.56" height="3.35"/>
      <rect class="st0" x="298.88" y="245.68" width="3.16" height="3.34"/>
      <path class="st0" d="M82.5,250.72l-11.12,3.34c3.37.45,11.86,3.46,11.12-3.34Z"/>
      <path class="st0" d="M108.78,250.73c-4.16,1.18-2.26,8.23,3.15,6.69,4.16-1.18,2.26-8.23-3.15-6.69h0Z"/>
      <rect class="st0" x="76.16" y="257.45" width="3.17" height="6.71"/>
      <path class="st0" d="M130.25,262.48c.91.96,4.73-1.4,4.73-2.51,0-4.65-7.14-.03-4.73,2.51Z"/>
      <path class="st0" d="M127.05,259.12c-6.19-2.15-1.78,15.41-.72,16.77.92,1.18,2.48,1.72,3.91,1.77.35,2.66-3.77,1.8-5.44,4.92-.57,1.06-.94,21.12-1.14,24.37-.57,9.27-5.22,14.54,2.61,21.13.92-6.94,2.27-14.08,3.05-21,.81-7.2,1.5-13.6,2.4-20.34s1.79-13.95,1.7-20.87c-2.82-3.49-3.7,7.32-5.59,1.7-.94-2.8-.91-5.55-.77-8.44h-.01Z"/>
      <rect class="st0" x="104.79" y="262.5" width="3.17" height="1.65"/>
      <path class="st0" d="M59.45,272.57v1.68c1.03-.56,1.03-1.12,0-1.68Z"/>
      <polygon class="st0" points="302.04 279.29 301.26 274.26 298.88 276.8 298.88 279.29 302.04 279.29"/>
      <polygon class="st0" points="282.95 277.63 278.22 276.76 280.6 279.28 282.95 279.28 282.95 277.63"/>
      <rect class="st0" x="324.33" y="275.94" width="3.16" height="3.34"/>
      <path class="st0" d="M116.72,282.66v1.68c1.03-.56,1.03-1.12,0-1.68Z"/>
      <rect class="st0" x="74.58" y="284.35" width="1.56" height="3.35"/>
      <path class="st0" d="M300.45,311.23c-2.7-7.36,5.8-25.68-3.17-26.88-.21,3.02,1.38,5.81,1.24,8.81-.25,5.32-5.89,18.21,1.93,18.07h0Z"/>
      <polygon class="st0" points="327.49 289.38 326.71 286.03 324.32 289.37 327.49 289.38"/>
      <path class="st0" d="M64.22,299.47v1.68c1.03-.56,1.03-1.12,0-1.68Z"/>
      <rect class="st0" x="69.8" y="299.49" width="3.17" height="1.65"/>
      <path class="st0" d="M84.1,302.84c-.91-.96-4.73,1.4-4.73,2.51,0,4.65,7.14.03,4.73-2.51Z"/>
      <polygon class="st0" points="53.88 311.22 50.71 307.88 50.71 311.23 53.88 311.22"/>
      <path class="st0" d="M300.45,312.93c-4.82-.83-2.53,1.29-3.21,4.09-.85,3.55-1.56,7.35-1.55,11.03,6.48.73,3.5-11.36,4.76-15.11h0Z"/>
      <path class="st0" d="M304.43,316.28v1.68c1.03-.56,1.03-1.12,0-1.68Z"/>
      <rect class="st0" x="319.56" y="321.34" width="4.76" height="3.34"/>
      <path class="st0" d="M59.45,331.42v1.68c1.03-.56,1.03-1.12,0-1.68Z"/>
      <polygon class="st0" points="121.47 334.81 121.47 343.15 123.89 338.98 121.47 334.81"/>
      <rect class="st0" x="295.69" y="334.79" width="3.17" height="5.03"/>
      <path class="st0" d="M326.71,334.78v1.68c1.03-.56,1.03-1.12,0-1.68Z"/>
      <polygon class="st0" points="298.86 346.54 298.85 344.05 295.7 341.5 295.69 346.54 298.86 346.54"/>
      <polygon class="st0" points="77.73 343.19 74.56 343.2 76.95 346.54 77.73 343.19"/>
      <path class="st0" d="M295.7,358.31c4.77-1.5.97-6.56,1.56-10.08-4.11.86-1.52,7.33-1.56,10.08Z"/>
      <rect class="st0" x="71.39" y="351.6" width="3.16" height="3.34"/>
      <polygon class="st0" points="325.12 354.99 322.76 357.47 325.12 359.96 327.47 357.47 325.12 354.99"/>
      <path class="st0" d="M74.55,358.32l-15.17-1.15-2.31,4.5c4.84-.44,10.43.65,15.13.01,2.32-.31,4.93-1.28,2.35-3.36h0Z"/>
      <path class="st0" d="M100.81,361.68v1.68c1.03-.56,1.03-1.12,0-1.68Z"/>
      <path class="st0" d="M65.79,363.39c-1.57,1.17.86,2.31,1.62,3.3,1.58-1.1-.74-2.22-1.62-3.3Z"/>
      <rect class="st0" x="80.93" y="363.38" width="3.17" height="1.65"/>
      <rect class="st0" x="71.39" y="365.05" width="3.16" height="3.34"/>
      <rect class="st0" x="71.39" y="370.09" width="1.56" height="5.03"/>
      <path class="st0" d="M325.9,371.77c-8.13,4.35-1.75,11.75-.06,5.81.46-1.62-.1-3.97.06-5.81Z"/>
      <path class="st0" d="M72.98,385.23l-.02-6.74c-3.68,1.09-2.91,3.95-1.56,6.72l-11.14.03c2.52,4.37,9.7.34,7.95,8.39,4.49,1.56,2.71-3.75,5.73-4.81,3.26-1.15,8.18.26,11.75-.24-2.32-3.44-9.22-4.69-12.71-3.33v-.02Z"/>
      <rect class="st0" x="66.61" y="397" width="3.17" height="1.65"/>
      <polygon class="st0" points="103.19 397 95.23 396.99 96.17 402.18 101.6 405.37 93.65 408.73 117.51 410.42 111.15 407.05 114.33 402.04 98.43 400.32 103.19 397"/>
      <rect class="st0" x="74.57" y="400.36" width="3.17" height="1.65"/>
      <polygon class="st0" points="325.9 403.72 323.55 403.72 319.56 410.42 324.36 409.63 325.9 403.72"/>
      <path class="st0" d="M78.54,410.43v1.68c1.03-.56,1.03-1.12,0-1.68Z"/>
      <polygon class="st0" points="72.96 417.17 70.61 417.18 68.2 420.5 72.96 420.51 72.96 417.17"/>
      <polygon class="st0" points="325.91 420.5 323.5 417.18 321.15 417.17 321.15 420.51 325.91 420.5"/>
      <polygon class="st0" points="77.73 423.87 76.95 418.85 74.58 421.39 74.57 423.87 77.73 423.87"/>
      <rect class="st0" x="71.39" y="425.57" width="1.56" height="3.35"/>
      <polygon class="st0" points="324.32 430.63 321.15 430.62 321.15 433.97 324.32 430.63"/>
      <rect class="st0" x="100.02" y="439.03" width="3.17" height="1.65"/>
      <polygon class="st0" points="68.19 447.41 68.18 444.06 63.43 445.76 63.43 447.4 68.19 447.41"/>
      <rect class="st0" x="106.38" y="444.08" width="4.76" height="1.65"/>
      <rect class="st0" x="112.75" y="445.76" width="3.17" height="1.65"/>
      <polygon class="st0" points="311.59 445.75 309.23 445.76 307.02 448.48 308.43 454.14 311.59 454.14 311.59 445.75"/>
      <rect class="st0" x="319.56" y="445.75" width="3.16" height="3.34"/>
      <polygon class="st0" points="77.75 450.8 71.39 449.11 75.36 457.5 77.75 450.8"/>
      <rect class="st0" x="63.44" y="452.47" width="1.56" height="3.35"/>
      <path class="st0" d="M282.16,454.15v1.68c1.03-.56,1.03-1.12,0-1.68Z"/>
      <path class="st0" d="M99.22,457.51v1.68c1.03-.56,1.03-1.12,0-1.68Z"/>
      <rect class="st0" x="319.56" y="457.52" width="1.56" height="3.35"/>
      <path class="st0" d="M89.67,459.19v1.68c1.03-.56,1.03-1.12,0-1.68Z"/>
      <path class="st0" d="M280.57,462.55v1.68c1.03-.56,1.03-1.12,0-1.68Z"/>
      <path class="st0" d="M311.59,465.92c-5.74-1.17-2.27,7.62-7.93,6.74l5.56,4.98,2.37-11.73h0Z"/>
      <polygon class="st0" points="107.97 472.62 102.39 467.64 100.03 470.14 100.02 472.63 107.97 472.62"/>
      <polygon class="st0" points="92.88 469.29 90.5 471.8 94.42 474.31 96.8 471.8 92.88 469.29"/>
      <path class="st0" d="M280.57,469.28v1.68c1.03-.56,1.03-1.12,0-1.68Z"/>
      <path class="st0" d="M321.13,469.27c-1.96-2.62-2.9.02-3.18,2.49-1.16,10.16-.25,22.38-1.57,32.81,4.51.9,2.57-1.27,3.63-3.72,3.63-8.45-.08-8.21.06-14.18.14-5.58,3.13-11.06,1.06-17.4Z"/>
      <path class="st0" d="M127.85,470.96v1.68c1.03-.56,1.03-1.12,0-1.68Z"/>
      <path class="st0" d="M65.81,477.68v1.68c1.03-.56,1.03-1.12,0-1.68Z"/>
      <rect class="st0" x="114.34" y="477.7" width="3.17" height="1.65"/>
      <rect class="st0" x="133.43" y="477.7" width="3.17" height="1.65"/>
      <rect class="st0" x="279.79" y="479.38" width="3.17" height="1.65"/>
      <path class="st0" d="M329.07,492.8l1.59-13.44c-3.82.77-4.99,11.89-1.59,13.44Z"/>
      <polygon class="st0" points="66.6 482.74 63.43 482.74 63.44 486.09 66.6 482.74"/>
      <rect class="st0" x="268.66" y="482.73" width="1.56" height="5.03"/>
      <path class="st0" d="M313,482.93l-7.76-.19c-2.12,1.82,13.38,19.87,7.76.19Z"/>
      <rect class="st0" x="122.29" y="491.14" width="4.76" height="3.34"/>
      <path class="st0" d="M282.16,491.13v1.68c1.03-.56,1.03-1.12,0-1.68Z"/>
      <rect class="st0" x="58.67" y="496.18" width="1.56" height="3.35"/>
      <rect class="st0" x="101.62" y="496.18" width="1.56" height="3.35"/>
      <path class="st0" d="M67.4,499.54v1.68c1.03-.56,1.03-1.12,0-1.68Z"/>
      <path class="st0" d="M80.13,502.9v1.68c1.03-.56,1.03-1.12,0-1.68Z"/>
      <path class="st0" d="M305.23,502.92c2.79,13.61,9.55,6.12,3.23.77-1.18-1-1.8-.98-3.23-.77Z"/>
      <polygon class="st0" points="340.23 506.25 337.06 502.9 337.06 506.25 340.23 506.25"/>
      <path class="st0" d="M343.4,509.63c-5.83.03-5.83,5,0,5.03v-5.03h0Z"/>
      <path class="st0" d="M292.5,513c-.91-.96-4.73,1.4-4.73,2.51,0,4.65,7.14.03,4.73-2.51Z"/>
      <path class="st0" d="M317.94,519.71c2.37-5.6-.45-9.46-4.72-4.2l4.72,4.2Z"/>
      <path class="st0" d="M115.13,516.35v1.68c1.03-.56,1.03-1.12,0-1.68Z"/>
      <path class="st0" d="M118.31,516.35v1.68c1.03-.56,1.03-1.12,0-1.68Z"/>
      <polygon class="st0" points="271.83 526.42 268.66 518.03 267.06 526.43 271.83 526.42"/>
      <rect class="st0" x="57.07" y="519.72" width="3.16" height="3.34"/>
      <rect class="st0" x="335.47" y="519.72" width="1.56" height="3.35"/>
      <path class="st0" d="M309.99,528.11c.56-3.83-.65-7.16-4.75-6.71l.03,3.32,4.72,3.39Z"/>
      <polygon class="st0" points="329.08 526.43 329.08 523.94 325.93 521.39 325.92 526.43 329.08 526.43"/>
      <path class="st0" d="M317.95,526.45h-3.16c-.38,3.1-.06,4.9,2.39,6.71l.78-6.71h-.01Z"/>
      <path class="st0" d="M327.49,534.84l-.78-6.71c-2.45,1.81-2.77,3.61-2.39,6.71h3.17Z"/>
      <path class="st0" d="M319.54,534.85h-3.15l-1.61,5.02c2.9.57,5.27-1.84,4.76-5.02h0Z"/>
      <rect class="st0" x="63.43" y="536.53" width="3.16" height="3.34"/>
      <polygon class="st0" points="311.59 543.27 306.83 543.26 306.83 546.6 309.18 546.6 311.59 543.27"/>
      <rect class="st0" x="60.25" y="548.31" width="3.17" height="1.65"/>
      <path class="st0" d="M302.05,549.99c-1.99-1.12-5.54,2.69-4.77,3.33,1.99,1.12,5.54-2.69,4.77-3.33Z"/>
      <path class="st0" d="M80.92,573.51h28.63l-3.17,5.04h7.93v-8.4c-13.33,1.78-25.63-5.67-39.58-3.57-1.4-21.86-19.55-15.46-6.04-2,1.04,1.03,4.2.68,5.17,2.1.69,1.02-.99,3.43-.75,4.05.56,1.39,2.5.98,2.92,2.36,1.03,3.36.09,8.76,2.46,12.23,3.62,5.31,5.17-8.12,5.62-8.46.86-.66,5.9,3.63,7.93-.83l-11.13-2.51h.01Z"/>
      <polygon class="st0" points="142.96 553.35 139.79 554.17 142.95 556.7 142.96 553.35"/>
      <rect class="st0" x="80.94" y="555.03" width="1.56" height="3.35"/>
      <rect class="st0" x="292.51" y="555.03" width="3.16" height="3.34"/>
      <polygon class="st0" points="284.54 561.74 283.76 556.71 281.38 559.25 281.38 561.73 284.54 561.74"/>
      <polygon class="st0" points="92.05 563.42 92.04 560.06 88.88 562.59 92.05 563.42"/>
      <rect class="st0" x="341.84" y="560.07" width="1.56" height="3.35"/>
      <rect class="st0" x="286.16" y="561.75" width="1.56" height="3.35"/>
      <path class="st0" d="M181.14,566.8l-12.72.82c2.94,3.72,10.79,4.18,12.72-.82Z"/>
      <path class="st0" d="M258.3,566.79v1.68c1.03-.56,1.03-1.12,0-1.68Z"/>
      <rect class="st0" x="282.97" y="566.8" width="3.17" height="1.65"/>
      <path class="st0" d="M123.86,571.84c-.62-.73-5.43-2.19-6.3.8l1.56,5.9c1.13-.29,6.17-5.04,4.74-6.7Z"/>
      <rect class="st0" x="271.84" y="570.16" width="1.56" height="3.35"/>
      <path class="st0" d="M340.22,571.84h-3.16c-.38,3.1-.06,4.9,2.39,6.71l.78-6.71h-.01Z"/>
      <polygon class="st0" points="100 575.2 95.25 576.03 97.65 578.54 100 578.55 100 575.2"/>
      <path class="st0" d="M103.99,575.19v1.68c1.03-.56,1.03-1.12,0-1.68Z"/>
      <polygon class="st0" points="133.41 576.88 130.25 577.71 133.4 580.24 133.41 576.88"/>
      <polygon class="st0" points="216.14 581.9 212.98 578.56 212.97 581.91 216.14 581.9"/>
      <path class="st0" d="M304.43,578.56v1.68c1.03-.56,1.03-1.12,0-1.68Z"/>
      <path class="st0" d="M328.3,580.24v1.68c1.03-.56,1.03-1.12,0-1.68Z"/>
      <path class="st0" d="M93.64,581.92l-7.92.82c2.2,2.85,4.19,4.91,7.91,4.21v-5.03h0Z"/>
      <path class="st0" d="M107.96,583.61h-12.71l1.58,6.7-9.54,1.68c5.42-.79,12.67,4.83,12.71-3.34l-3.16-1.67c2.96-1.09,12.33,3.01,11.12-3.37Z"/>
      <path class="st0" d="M84.9,585.28v1.68c1.03-.56,1.03-1.12,0-1.68Z"/>
      <polygon class="st0" points="343.4 592 343.39 588.64 340.24 591.17 343.4 592"/>
      <polygon class="st0" points="292.5 602.08 289.34 598.73 289.33 602.08 292.5 602.08"/>
      <polygon class="st0" points="300.46 598.75 297.28 598.74 297.29 602.09 300.46 598.75"/>
      <rect class="st0" x="327.51" y="600.42" width="3.16" height="3.34"/>
      <path class="st0" d="M321.93,603.77v1.68c1.03-.56,1.03-1.12,0-1.68Z"/>
      <path class="st0" d="M334.66,603.77v1.68c1.03-.56,1.03-1.12,0-1.68Z"/>
      <path class="st0" d="M360.9,612.17c-1.96-10.16-6.83-3.91-10.39-3.44-3.64.48-12.33-2.26-13.45.95-.77,4.04,3.1,2.42,5.54,2.51,6.17.21,12.2-1.24,18.3-.02h0Z"/>
      <path class="st0" d="M311.59,615.56l21.51-.06-1.78-7.98c-5.61,1.43-17.69-3.2-18.17,4.67l-6.32-3.36v15.12h9.53l-4.76-8.38h0Z"/>
      <rect class="st0" x="302.06" y="610.51" width="1.56" height="5.03"/>
      <polygon class="st0" points="305.22 620.6 302.06 620.6 302.06 623.08 304.44 625.62 305.22 620.6"/>
      <polygon class="st0" points="316.35 630.68 313.19 630.68 313.19 637.39 315.55 637.38 317.92 634.88 316.35 630.68"/>
      <path class="st0" d="M333.07,634.04v1.68c1.03-.56,1.03-1.12,0-1.68Z"/>
      <polygon class="st0" points="358.52 635.75 356.17 638.24 358.52 640.73 360.88 638.24 358.52 635.75"/>
      <path class="st0" d="M304.43,644.12v1.68c1.03-.56,1.03-1.12,0-1.68Z"/>
      <polygon class="st0" points="360.9 659.26 357.73 659.27 360.12 662.61 360.9 659.26"/>
      <path class="st0" d="M310.8,667.66v1.68c1.03-.56,1.03-1.12,0-1.68Z"/>
      <polygon class="st0" points="306.82 669.36 303.65 669.35 303.66 672.7 306.82 669.36"/>
      <path class="st0" d="M306.82,676.08c-3.36-2.74-5.88,6.94-2.36,8.37,2.94,1.2,2.69-8.1,2.36-8.37Z"/>
      <polygon class="st0" points="359.31 682.78 358.53 677.76 356.15 680.3 356.15 682.78 359.31 682.78"/>
      <path class="st0" d="M323.52,681.11v1.68c1.03-.56,1.03-1.12,0-1.68Z"/>
      <path class="st0" d="M328.3,684.47v1.68c1.03-.56,1.03-1.12,0-1.68Z"/>
      <path class="st0" d="M329.07,699.59c1.05-3.99,3.33-8.28-1.55-10.07v10.08h1.55Z"/>
      <rect class="st0" x="356.15" y="696.25" width="3.16" height="3.34"/>
      <path class="st0" d="M328.3,708.01v1.68c1.03-.56,1.03-1.12,0-1.68Z"/>
      <polygon class="st0" points="322.73 719.8 317.97 719.79 317.97 723.13 320.32 723.12 322.73 719.8"/>
      <polygon class="st0" points="329.09 719.8 325.92 719.79 325.93 723.14 329.09 719.8"/>
      <rect class="st0" x="354.55" y="721.48" width="3.17" height="1.65"/>
      <rect class="st0" x="340.24" y="729.88" width="3.17" height="1.65"/>
      <path class="st0" d="M354.54,739.95c-5.79-1.43-1.16,10.14-3.17,13.45,6.95.73,2.39-9.59,3.17-13.45Z"/>
      <path class="st0" d="M330.67,758.44c.15-4.24,3.88-9.69-1.56-11.76.81,2.83-1.96,10.91,1.56,11.76Z"/>
      <path class="st0" d="M343.4,748.37c-4.88-.46-5.16,4.23-4.76,8.39,4.88.46,5.16-4.23,4.76-8.39Z"/>
      <rect class="st0" x="349.78" y="758.46" width="3.17" height="5.03"/>
      <rect class="st0" x="329.11" y="760.14" width="1.56" height="3.35"/>
      <polygon class="st0" points="343.4 763.48 343.39 760.13 340.24 762.66 343.4 763.48"/>
      <rect class="st0" x="321.15" y="765.18" width="3.16" height="3.34"/>
      <path class="st0" d="M324.31,773.59c-9.83-1.78-1.98,7.28,0,5.03v-5.03Z"/>
      <polygon class="st0" points="332.27 775.27 329.09 775.28 331.49 778.61 332.27 775.27"/>
      <polygon class="st0" points="338.63 780.29 338.62 777.81 335.47 775.26 335.46 780.29 338.63 780.29"/>
      <rect class="st0" x="340.24" y="775.27" width="3.17" height="5.03"/>
      <path class="st0" d="M357.72,780.29c-.03-6.16-4.73-6.16-4.76,0h4.76Z"/>
      <path class="st0" d="M296.48,780.3v1.68c1.03-.56,1.03-1.12,0-1.68Z"/>
      <path class="st0" d="M345,785.36l-9.46.08-1.66,18.4c6.69.36,2.85-10.78,4.78-15.11,5.62,1.35-2.01,11.71,4.75,10.09l1.59-13.45h0Z"/>
      <path class="st0" d="M293.3,787.03v1.68c1.03-.56,1.03-1.12,0-1.68Z"/>
      <path class="st0" d="M352.95,790.4h-4.76c-.37,3.1-.1,4.93,2.4,6.7h2.35v-6.7h.01Z"/>
      <rect class="st0" x="314.78" y="802.17" width="3.16" height="3.34"/>
      <rect class="st0" x="321.15" y="802.17" width="3.16" height="3.34"/>
      <path class="st0" d="M300.47,803.85c-3.03,2.98,6.37,7.53,6.32,2.51-.02-1.73-5.27-3.55-6.32-2.51Z"/>
      <path class="st0" d="M335.48,818.96c4.96-5.28,4.78-.82,7.44-.29,4.62.92,5.83-8.83,6.84-12.28l-3.15-1.73c-7.03,8.37-19.32,1.96-20.71,16.8l3.19,1.74,3.2-7.59c3.25-.53,3.46.06,3.19,3.34h0Z"/>
      <rect class="st0" x="354.55" y="805.53" width="3.16" height="3.34"/>
      <path class="st0" d="M310.8,807.2v1.68c1.03-.56,1.03-1.12,0-1.68Z"/>
      <polygon class="st0" points="321.13 808.89 314.78 808.89 314.78 812.22 321.13 813.92 321.13 808.89"/>
      <path class="st0" d="M337.04,820.66c-4.89-.99-2.36,1.76-3.32,3.97-.83,1.92-4.07,8.25-3.03,9.46,6.25-.15,6.71-8.51,6.35-13.43Z"/>
      <rect class="st0" x="319.56" y="837.48" width="3.17" height="1.65"/>
      <path class="st0" d="M321.84,865.13c1.86-1.33,4.36-.87,5.37-3.58,1.45-3.87,5.07-15.18,5.91-19.02.47-2.13.36-4.93-1.64-5.02-4.81-.23-12.43,18.49-11.94,23.51l-5.59-1.66.81,4.99-5.56-3.32-3.86,9.12c10.09,4.69-3,9.35,1.48,19.45,5.81,1.38,7.87-5.4,8.85-10.12,1.88-9.02-3.15-7.72,6.16-14.34h0Z"/>
      <path class="st0" d="M313.98,854.28v1.68c1.03-.56,1.03-1.12,0-1.68Z"/>
      <path class="st0" d="M332.27,876.14c-.91-.96-4.73,1.4-4.73,2.51,0,4.65,7.14.03,4.73-2.51Z"/>
      <polygon class="st0" points="303.63 931.62 298.87 931.62 300.48 938.33 303.63 938.33 303.63 931.62"/>
      <path class="st0" d="M294.89,950.11v1.68c1.03-.56,1.03-1.12,0-1.68Z"/>
      <rect class="st0" x="297.29" y="950.12" width="1.56" height="3.35"/>
      <path class="st0" d="M298.07,955.15v1.68c1.03-.56,1.03-1.12,0-1.68Z"/>
      <path class="st0" d="M312.39,961.88v1.68c1.03-.56,1.03-1.12,0-1.68Z"/>
      <path class="st0" d="M326.71,963.56v1.68c1.03-.56,1.03-1.12,0-1.68Z"/>
      <polygon class="st0" points="297.28 966.94 294.1 966.93 294.11 970.28 297.28 966.94"/>
      <rect class="st0" x="311.6" y="968.62" width="3.17" height="1.65"/>
      <path class="st0" d="M296.48,971.96v1.68c1.03-.56,1.03-1.12,0-1.68Z"/>
      <path class="st0" d="M313.98,975.33v1.68c1.03-.56,1.03-1.12,0-1.68Z"/>
      <path class="st0" d="M294.89,977.01v1.68c1.03-.56,1.03-1.12,0-1.68Z"/>
      <path class="st0" d="M47.12,247.77c3.42,4.56,1.26,13.38-5.49,10.12-12.03-5.8,1.95-14.84,5.49-10.12h0Z"/>
      <path class="st0" d="M278.17,987.1h-6.34c-.02-7.03,5.43-11.58-1.56-15.99l7.13-4.18.77,20.17Z"/>
      <path class="st0" d="M292.65,743.17c-.31-.24-4.86-5.73-4.96-6.12-1.3-5.2,2.95-13.12,1.65-18.95,4.44,1.51.94,8.23,1.88,12.14.74,3.07,5.69,7.32,5.93,9.05.36,2.61-2.88,5.12-4.49,3.88h-.01Z"/>
      <path class="st0" d="M278.17,961.88c-2.05-.88-3.7-1.59-5.95-.61-2.56,1.11-1.01,4.35-3.57,3.96v-8.39l2.36,3.35,5.21-5.88c-7.66-7.64,2.63-7.4,3.17-3.44l-1.22,11.01h0Z"/>
      <path class="st0" d="M265.47,987.09l2.37-15.11c2.46,3,3.77,16.29-2.37,15.11Z"/>
      <path class="st0" d="M268.63,410.42l1.34,9.09-4.51,2.68c.9-3.57-2.74-13.12,3.16-11.77h.01Z"/>
      <polygon class="st0" points="284.54 383.54 286.11 387.74 283.73 390.24 281.38 390.25 281.38 383.54 284.54 383.54"/>
      <polygon class="st0" points="265.48 469.28 266.25 460.88 268.73 465.07 265.48 469.28"/>
      <polygon class="st0" points="268.63 425.57 267.03 432.28 265.48 432.28 263.88 425.57 268.63 425.57"/>
      <path class="st0" d="M265.48,447.42c.81-2.83-1.96-10.91,1.56-11.76-1.05,3.89,3.45,10.03-1.56,11.76Z"/>
      <path class="st0" d="M267.03,459.18h-1.56v-10.08c4.68,1.36,1.1,6.14,1.56,10.08Z"/>
      <path class="st0" d="M45.91,454.16c-1.82,3.58-5.52,6.25-9.53,5.01l9.53-5.01Z"/>
      <path class="st0" d="M287.71,976.99h-1.55v-8.39h1.55c1.02,3.11,1.02,5.28,0,8.39Z"/>
      <polygon class="st0" points="295.68 701.28 292.51 701.28 292.52 694.57 294.07 694.57 295.68 701.28"/>
      <polygon class="st0" points="282.94 381.84 281.39 381.84 279.82 377.63 282.17 375.14 282.94 381.84"/>
      <rect class="st0" x="270.24" y="625.64" width="3.16" height="3.34"/>
      <polygon class="st0" points="282.95 622.26 279.78 622.25 281.39 617.24 282.94 617.23 282.95 622.26"/>
      <polygon class="st0" points="30.01 270.9 30 275.93 28.44 275.92 26.84 270.91 30.01 270.9"/>
      <polygon class="st0" points="294.09 704.66 292.48 709.68 290.93 709.68 290.92 704.66 294.09 704.66"/>
      <rect class="st0" x="22.07" y="455.84" width="4.76" height="1.65"/>
      <rect class="st0" x="265.48" y="494.5" width="1.56" height="5.03"/>
      <rect class="st0" x="34.8" y="262.49" width="1.56" height="3.35"/>
      <rect class="st0" x="45.93" y="502.92" width="3.17" height="1.65"/>
      <rect class="st0" x="42.75" y="242.33" width="3.17" height="1.65"/>
      <rect class="st0" x="34.8" y="228.88" width="3.17" height="1.65"/>
      <rect class="st0" x="271.84" y="469.29" width="1.56" height="3.35"/>
      <rect class="st0" x="292.52" y="689.53" width="1.56" height="3.35"/>
      <rect class="st0" x="290.93" y="711.38" width="1.56" height="3.35"/>
      <rect class="st0" x="265.48" y="965.25" width="1.56" height="3.35"/>
      <rect class="st0" x="15.71" y="344.88" width="3.17" height="1.65"/>
      <rect class="st0" x="15.71" y="368.42" width="3.17" height="1.65"/>
      <path class="st0" d="M293.3,686.15c1.03.56,1.03,1.12,0,1.68v-1.68Z"/>
      <path class="st0" d="M282.16,829.06c1.03.56,1.03,1.12,0,1.68v-1.68Z"/>
      <path class="st0" d="M274.21,539.89c1.03.56,1.03,1.12,0,1.68v-1.68Z"/>
      <path class="st0" d="M40.36,447.42c1.03.56,1.03,1.12,0,1.68v-1.68Z"/>
      <path class="st0" d="M267.85,360c1.03.56,1.03,1.12,0,1.68v-1.68Z"/>
      <path class="st0" d="M43.54,265.85c1.03.56,1.03,1.12,0,1.68v-1.68Z"/>
      <rect class="st0" x="106.38" y="403.73" width="3.17" height="1.65"/>
      <path class="st0" d="M103.99,403.71c1.03.56,1.03,1.12,0,1.68v-1.68Z"/>
    </g>
  </g>
</svg>