<?xml version="1.0" encoding="UTF-8"?>
<svg id="Layer_1" xmlns="http://www.w3.org/2000/svg" version="1.1" viewBox="0 0 1920 1080">
  <!-- Generator: Adobe Illustrator 29.5.1, SVG Export Plug-In . SVG Version: 2.1.0 Build 141)  -->
  <defs>
    <style>
      .st0 {
        fill: #fff;
      }
    </style>
  </defs>
  <path class="st0" d="M1620.47,70.94c10.12-1.15,16.14-15.35,7.88-19.96l6.91-3.76,16.73,1.92-2.64,7.24h7.9l-2.67-3.6h13.15c2.08,5.85-5,2.51-7.29,3.87-5.26,3.12,1.02,6.73,1.75,9.72.72,2.94-3.07,8.4-2.35,11.8-5.39-.08-5.14,1.17-4.57-2.37.74-4.64,1.92-9.25,1.95-13.95-8.76-1.4-3.75,3.51-5.26,5.45-13.51-6.39-17.51,5.18-27.72,7.16-4.84.94-4.15-.99-3.78-3.51h.01ZM1641.48,60.93h2.63c-.88-1.18-1.75-1.18-2.63,0Z"/>
  <path class="st0" d="M1678.35,29.23l23.58,3.6c-1.73,2.71-3.02,4.14-1.64,7.28,2.07,4.72,11.67,5.2,9.5,8.12-1.27,1.71-8.32,2.82-9.18,6.4l-6.57-.04c3.86-9.81,4.61-10.93-9.34-9.32-.56.06-2.55-5.21-8.87-3.46l2.52-12.57h0Z"/>
  <path class="st0" d="M1749.21,49.14c-.22.2.4,1.69-1.33,1.79-.8-.47-.83-1.63-1.3-1.79h2.63Z"/>
  <path class="st0" d="M1746.58,49.14c-2.5-.83-4.99-1.81-7.88-1.84l7.38-6.31-12.62-9.1,9.24.87,1.26-7.21-10.5,1.8,1.61-5.48-6.85-1.78c.83-3.76,8.36.27,9.18-5.44l1.33,7.27,10.48-3.62c3.44,7.82,7.84,23.89.02,30.84l-1.31-1.8-1.31,1.8h-.03Z"/>
  <path class="st0" d="M1588.95,78.18l2.61,3.61c16.87-1.87-1.2-6.6-3.8-10.81-.31-.51-.79-10.52-.36-10.98,2.51-2.62,22.02-8.24,27.78-7.23l-7.89,3.63c6.9,7.08-7.61,13.83-7.97,19.09-.35,5.15,10.35,2.51,7.98,8.12-2.13,1.28-20.48-3.27-15.74,4.53,4.59,7.54,22.04-1.77,20.96-8.1l-7.84-3.67,9.22-1.81,1.31,7.23,5.21-4.56c9.05-.46,1.95,6.36,5.22,9.16l-5.18-.96c5.06,5.62-4.99,11.61-5.4,3.72-4.02,1.45-5.51,3.6-10.35,1.72l5.22,7.26-10.3-.17-.2-5.27h-7.87c-.5,7.51,12.36,15.3-5.26,18.14l2.64-32.64h.01ZM1591.55,70.01h2.63c-.88-1.18-1.75-1.18-2.63,0ZM1604.69,58.23c-4.8-.57-8.65,1.88-7.86,5.43l7.86-5.43Z"/>
  <path class="st0" d="M1717.68,67.3l-7.87-.91c1.8-4.43,12.2-4.9,12.44-5.4,1.2-2.53-1.49-8.8,8.57-8.2-8.35,6.67-.24,9.11-.02,16.32l-5.33-.84c-2.36,5.94-5.62,2.07-10.38,5.36l10.47,8.15c-11.41,2.06-7.04-7.18-15.76-9.97l7.88-4.52h0Z"/>
  <path class="st0" d="M1615.21,31.02l9.21-3.63-2.76,7.26c2.27,2.18,14.47,4.07,18.04,3.65.81-.09,7.85-7.47,12.24-7.28l.38,3.21,8.89.37,1.29,5.44c-9.82,2.41-21.12,2-30.33-1.79l-2.5,3.62c-.78-.19-11.75-6.39-12.75-7.25-1.11-.97-3.3-.48-1.71-3.61h0Z"/>
  <polygon class="st0" points="1544.24 90.88 1544.26 96.31 1536.36 97.24 1544.25 105.36 1531.13 109.01 1532.27 92.58 1544.24 90.88"/>
  <path class="st0" d="M1665.11,58.21l10.18-.2c2.7-1.23.07-8.9,8.23-7.04l-.7,9.71c-1.57,5.02-12.09,4.54-17.67,6.61,0,0-.04-9.08-.04-9.08Z"/>
  <path class="st0" d="M1537.48,35.31c.63-.59,3.13-.59,3.48-1.08,1.86-2.57.32-5.9.69-8.69l4.61,2.65-11.19,22.75c-10-5.84-3.8-9.85,2.41-15.63Z"/>
  <path class="st0" d="M1541.58,69.09c2.88,5.03,5.25,7.02,2.65,12.71l-10.49-1.81-2.61,9.06c2.89-5.88.97-10.77-2.67-16.29l13.12-3.67Z"/>
  <path class="st0" d="M1552.13,110.84c10.84.94,19.02-4.59,28.91-1.81-2.25,4.11-11.56,5.05-17.06,5.44-5.18.37-14.01,1.67-11.85-3.63Z"/>
  <path class="st0" d="M1557.48,94.52l7.79-.02v5.45l13.13-.92c-3.04,3.1-24.13,5.73-26.27,4.53l5.34-9.04h.01Z"/>
  <path class="st0" d="M1510.08,54.59c1.04,5.71-.27,12.52-10.49,12.69l-1.53-9.08s12.02-3.61,12.02-3.61ZM1502.23,58.22v3.61h2.59v-3.61h-2.59Z"/>
  <path class="st0" d="M1738.23,101.42c1.51-.69,1.76-4.23,4.42-5.09l1.31,5.43,7.82-4.54c.07,6.08-8.06,15.09-12.09,6.2l-8.89,1.12-2.62-2.75c3.04-.22,7.63.75,10.05-.36h0Z"/>
  <path class="st0" d="M1609.91,36.45l1.65,3.67,11.5,2.64c-9.73,6.06-27.74.44-13.15-6.32h0Z"/>
  <path class="st0" d="M1496.97,74.53h7.86c.86,6.23.62,12.25-10.49,10.89l2.63-10.89Z"/>
  <polygon class="st0" points="1725.6 25.56 1730.85 26.48 1730.81 36.42 1717.69 36.43 1725.6 25.56"/>
  <path class="st0" d="M1557.4,29.19c4.49-3.37,5.31,2.84,5.95,3.16,1.87.94,4.9.5,7.19.47l-5.3,7.24c-5.04-.46-9.74-9.43-7.83-10.87h0Z"/>
  <path class="st0" d="M1602.09,127.16c7.48.88,1.68,5.74,3,6.91,1.18,1.05,7.55-.77,4.84,3.96l-13.08-2.7,5.23-8.17h.01Z"/>
  <polygon class="st0" points="1749.2 85.44 1745.29 94.47 1740.87 89.24 1730.82 88.14 1749.2 85.44"/>
  <path class="st0" d="M1570.54,121.74c.97-.83,16.98-4.95,13.11,2.68-2.1,4.15-17.43,1-13.11-2.68Z"/>
  <path class="st0" d="M1635.99,103.41l-2.39-7.09,15.75,2.72c-7.75.68-9.73,4.07-14.47,6.33-2.19,1.05-6.9-.8-2.14-1.75,0,0,3.25-.21,3.25-.21Z"/>
  <path class="st0" d="M1575.79,18.29c-2.34,1.69-2.23,4.59-7.87,3.63l-5.19-5.49,1.59-3.57c3.16.3,6.6-1.6,8.84-1.83-.92,2.42-2.63,4.69-2.62,7.25h5.25Z"/>
  <path class="st0" d="M1741.31,70.92c1.38.99-2.7,12.49-7.85,12.69-1.43-3.25,1.74-5.83,2.44-8.3,1.4-4.99-3.03.19-5.04-1.67l10.46-2.73h0Z"/>
  <path class="st0" d="M1520.59,43.7c-.32,3.51.66,12.11-7.85,10.88-1.06-4.8.96-9.01,7.85-10.88Z"/>
  <path class="st0" d="M1578.4,67.26c1.5-4.6-1.99-2.71-5.44-4.64l2.85-6.22,7.05,4.49c-2.5,4.27-4.21,7.3-1.83,11.83-10.92.61-14.21-4.16-2.64-5.46h0Z"/>
  <path class="st0" d="M1891.1,89.06h-2.63c.85.1,1.81-.14,2.63,0Z"/>
  <path class="st0" d="M1825.41,49.14c.78-1.03-1.45-3.71,1.31-3.64l1.31,3.64h-2.63,0Z"/>
  <path class="st0" d="M1843.8,197.93c.51-.35-1.38-8.1,3.99-9.07l10.49,3.29,6.65-6.01-6.64-6c-4.59,3.09-9.38,3.86-15.79,3.28-3.38-.64,2.7-4.38,1.3-5.44-6.3-4.79-3.21,8.7-10.49,5.42l5.23-10.87-3.91,3.62c-9.69-4.88,7.25-12.57-3.95-13.6,7.28-3.62,9.09-7.45,7.9-13.61l5.14,6.5,7.87-1.07,1.39,5.57,6.02.72c-2.12,3.37,1.77,6.35,2.6,9.61.49,1.91-1.35,4.02-1.07,5.04.44,1.61,7.58,4.45,8.26,4.44,7.13-.1,1.44-9.87,1.9-11.52.61-2.17,6.05-3.3,4.64-6.58l-6.55,3.62c-3.84-2.27-6.65-3.69-4.07-7.14l-7.79-.12,2.66-7.23-10.49-2.73c11.97-6.1-7.1-9.94-2.84-1.07l-16.83,2-.04-9.05-17.09,1.79-2.66-16.34-2.63,5.44-5.23-2.77c-10.39-.99,1.32,10.91-6.6,11.84-2.73.32-6.95-2.22-7.99-3.61-3.45-4.6,8.95-8.06,11.42-11.79l-4.72-8.18h7.9l-1.36-3.65-6.58,1.03c-9.28-4.28,5.32-18.88,2.67-20.96-6.18-4.86-3.29,8.73-10.49,5.43l-2.65-16.34c-8.6,3.43-14.36,1.6-13.1-5.43,15.02,4.64,12.77-7.4,11.78-14.49l8.86,2.09,2.96,5.13,2.66-7.24c-12.42,1.72-10.45-8.27-10.5-14.52l10.47,3.62c3.58-5.44,1.1-9.03.04-14.51,8.62,4.6,14.33-.91,7.86,9.06l21.02,3.64c-3.6,4.75-7.56,7.46-7.94,13.6-.22,3.62.52,2.89,5.31,2.72l2.61-3.61.03,5.45h7.87v-9.08l-13.11,1.8c-.36-3.11,5.58-1.4,7.55-4.82,1.14-1.98-.26-4.59.32-6.06,2.37-5.99,3.09-8.68,13.29-8.16,2.58,1.03,3.43,3.07,5.1,4.53-2.33-.3-5.34.19-7.87,0v5.43c7.41,1.98,9.24-3.15,10.5-3.62,1.77-.66,5.63-.97,7.86-1.81l-7.85,9.06,10.48-1.8,1.34,7.25,1.6-3.29,12.8.56c-7.7,5.77-16.65,3.23-26.22,2.74l1.58,5.57,11.53,4.41c-3.62.47-8.03,3.91-10.5,4.53-1.77.44-5.54-.4-7.9.05,5.47,8.47-18.68,15.27-28.88,12.66.26,1.63-.87,3.69.62,5.15.87.85,5.74-.91,4.62,2.09l-5.33,1.08c5.22,5.25-1.18,3.5-3.82,8.01l-6.63-1.83c.71-1.74,2.7-3.64,2.64-5.44,6.84,1,5.51-1.15,5.24-5.44-5.62-1.25-5.74,2.54-7.87,3.62-.86.43-5.14-1.02-5.32.92l3.92,11.8c7.48,5.49,6.25-1.96,8.15-1.94l6.38,1.92c-1.69-7.45,5.23-7.44,8.09-10.32,1.62-1.63,1.85-5.59,2.61-6,.72-.39,5.05,1.13,7.92.81,4.75-.54,8-3.84,15.53-.83l.08-9.75c-.47-2.57-10.92.99-.07-4.76.66,2.11,5.6,1.68,7.98,2.8,2.23,1.06.41,3.43,1.27,3.82.58.25,4.76-.86,6.49,1.57,2.78,3.91-6.99,2.13-9.36,4.37l-1.12,9.21c5.92,4.27,19.78-11.6,15.89-16.24l18.25-1.89c-.15,2.39.27,4.86.01,7.25l-2.63,1.81c-3.44-8.1-14.21.17-13.16,4.53l10.52,2.74-7.86,1.81,7.9,1.81c-1.17,2.69-4.17,4.56-1.37,7.27,3.07,2.98,9.48-.8,9.18.87-5.75,3.49-13.25,2.86-15.21,9.12,3.33,4.13,6.68,4.44,12.62,2.68v5.44h5.24v-5.43h-5.24l5.29-10.9c6.88,1.69,11.44,1.76,18.34.02,2.07,5.52-.68,2.28-3.87,2.79-13.93,2.22-12.51,3.22-11.86,13.54l7.85-1.81v5.43c-9.03-2.84-17.45-.32-24.95,3.6-4.57-2.17-4.2-5.64-3.96-9.04-7.45,6.43-11.9-.65-16.81.1-5.36.82-10.51,12.15-2.89,14.38l11.83-3.59,2.59,6.36-6.54-2.71c-1.11,2.39,1.69,4.74-3.9,5.42l-2.63-3.62-2.64,9.05c6.28.52,6.98.39,9-3.48l11.85,1.57c.48-12.69,18.42-8.42,31.7-8.95-2.48,2.69-1.76,6-3.52,8.52s-11,4.48-13.42,6.02c-.9.57-14.12,12.97-14.27,13.81-.87,4.91,8.75,5.81,10.19.68l-5.25-1.81c10.75.33,10.68-6.21,18.36-9.09l-10.52,29.02-11.82-9.03-2.5,5.56-6.66-.15,2.58,6.45,10.53-.99c.96,13.81-18.86,25.14-23.65,7.23l-6.7,1.67-1.19-3.45-5.27.91,2.35,4.35c-1.48.57-4.33-.17-4.95.15-.21.11.65,2.06-.74,3.05-1.55,1.1-9.54,2.09-12.38,4.21-3.6-9.15,12.06-6.53,13.12-7.26h.03ZM1793.88,76.37c-5.14-.54-8.68,2.11-7.87,5.42h5.22l2.65-5.42ZM1793.86,52.77l-5.23,3.61h5.24v-3.61h-.01ZM1796.52,105.39v5.43h2.59v-5.43h-2.59ZM1796.52,76.36v3.61h2.59v-3.61h-2.59ZM1799.13,73.63h2.63c-.88-1.18-1.75-1.18-2.63,0ZM1801.78,56.4l-2.65,5.43h5.23l2.64-4.53-5.22-.9ZM1812.62,79.64c2.52,1.43,13.56-2.58,12.77-5.98-1.16-4.97-9.34,1.08-12.26-.18-5.6-.12-15.42,2.78-7.43,6.48l6.54-3.6.38,3.27h0ZM1814.88,63.66c-5.21.91-5.92,4.02-5.22,7.25h5.23v-7.25h-.01ZM1809.64,60.93h2.63c-.88-1.18-1.75-1.18-2.63,0ZM1817.54,121.72v5.43h2.59v-5.43h-2.59ZM1822.88,123.6l1.2,3.56,9.2-9.06-5.95,4.94-4.45.56ZM1830.65,114.47h-5.23v1.79h5.23v-1.79ZM1835.9,128.98c-3.59.56-9.98,5.51-7.84,7.26l10.5-1.83-2.66-5.43ZM1828.04,69.11l.35,6.99c17.54,5.81,15.88-7.46-.35-6.99ZM1838.57,61.85l-2.61,4.54,1.25.86,3.94-5.41h-2.59.01ZM1841.18,121.72v7.25c6.62.45,8.86-2.89,7.86-7.24h-7.86ZM1841.21,97.24l1.25.86,3.92-2.71-1.25-.86-3.92,2.71ZM1846.42,56.41h-5.23v1.79h5.23v-1.79ZM1846.44,177.97v3.61h5.23v-3.61h-5.23ZM1849.05,110.85l1.3,3.6,6.58-1.82-.02-3.61-7.86,1.83ZM1849.08,92.69v3.61h2.59v-3.61h-2.59ZM1851.68,166.17h2.63c-.88-1.18-1.75-1.18-2.63,0ZM1854.31,177.06h2.63c-.88-1.18-1.75-1.18-2.63,0ZM1872.7,148.95c-3.28-1.2-9.16,2.9-7.88,3.6,3.28,1.2,9.16-2.9,7.88-3.6ZM1867.46,114.47v5.43c9.64-.04,9.64-5.39,0-5.43ZM1901.63,141.68v3.61h2.59v-3.61h-2.59Z"/>
  <path class="st0" d="M1807.01,96.32c-1.79-.26-2.9-.12-2.63-1.81,2.13-.16,2.58.42,2.63,1.81Z"/>
  <path class="st0" d="M1851.68,76.36v-1.81l2.59.91c0,1.17-2.28.75-2.59.91h0Z"/>
  <path class="st0" d="M1891.1,89.06c.05-.6-.07-1.21,0-1.81l7.84,2.74-1.25.86c-1.66-1.47-4.27-1.39-6.59-1.78h0Z"/>
  <path class="st0" d="M1849.06,47.32c-.97-.54-1.86-1.14-2.63-1.81,1.3.17,2.48.85,2.63,1.81Z"/>
  <path class="st0" d="M1625.47,120.05c2.55,1.23,2.92,11.16-5.02,8.91l1.61-5.48-6.86-3.57,10.26.14h.01Z"/>
  <path class="st0" d="M1525.85,74.52l-10.48,3.66c-1.06-4.25,2.14-6.57,6.55-9.04,2.79,1.63,4.77,2.73,3.93,5.39h0Z"/>
  <path class="st0" d="M1822.76,25.55c.83,3.66.91,7.32-6.53,5.43-5.75-1.45-2.29-6.8-3.45-10.25-1.51-4.52-2.58.17-5.73-1.52,6.72-5.77,10.95,2.48,9.09,6.36l6.62-.03h0Z"/>
  <polygon class="st0" points="1552.16 79.99 1562.62 76.37 1562.63 85.44 1552.16 79.99"/>
  <path class="st0" d="M1691.4,130.8c-3.26,6.33-10.89,4.36-18.38,5.42,2.34-4.21,12.86-5.04,18.38-5.42Z"/>
  <path class="st0" d="M1717.67,92.71l-3.95,5.42-8.12-7.2c-15.22,8.22-14.73-1.38-4.97-1.97,6.14-.38,11.06,3.54,17.04,3.76h0Z"/>
  <path class="st0" d="M1591.58,127.17l.05,6.39-13.21.84c-.59-3.31,5.33-1.28,8.84-2.03,3.13-.67,4.25-3.13,4.31-5.2h0Z"/>
  <path class="st0" d="M1557.37,58.21c1.76,3.35-8.05,8.89-10.48,7.25-1.12-4.37,5.84-5.64,10.48-7.25Z"/>
  <path class="st0" d="M1820.14,32.82l-2.65,7.25h-5.21c-.99-4.36,1.24-7.69,7.86-7.25Z"/>
  <path class="st0" d="M1657.25,85.46l10.48-3.66c2.39,1.98-5.95,8.43-10.48,7.25v-3.59Z"/>
  <path class="st0" d="M1775.46,36.44l-7.82-4.54,3.9-2.69c4.06,1.94,4.55,3.89,3.92,7.23h0Z"/>
  <rect class="st0" x="1680.9" y="107.21" width="7.86" height="3.61"/>
  <rect class="st0" x="1699.29" y="18.3" width="5.23" height="5.43"/>
  <path class="st0" d="M1696.63,103.57l-2.63,7.25h-2.58c-.71-3.27.12-6.34,5.21-7.25Z"/>
  <rect class="st0" x="1560.04" y="60.03" width="2.59" height="9.06"/>
  <path class="st0" d="M1649.36,114.45c.72-3.2,6.49-3.08,9.22-5.4l1.25.86c-3.38,2.22-5.48,5.26-10.47,4.54Z"/>
  <polygon class="st0" points="1651.98 70.92 1651.98 74.53 1646.74 74.53 1644.14 69.99 1645.4 69.13 1651.98 70.92"/>
  <polygon class="st0" points="1901.62 76.36 1906.86 76.37 1904.21 81.79 1901.63 81.79 1901.62 76.36"/>
  <path class="st0" d="M1898.96,43.7c1.74,2.27-4.19,6.33-5.21,5.44-1.74-2.27,4.19-6.33,5.21-5.44Z"/>
  <path class="st0" d="M1896.33,50.95c1.74,2.27-4.19,6.33-5.21,5.44-1.74-2.27,4.19-6.33,5.21-5.44Z"/>
  <polygon class="st0" points="1562.64 18.3 1562.63 23.73 1560.04 23.73 1557.39 18.31 1562.64 18.3"/>
  <rect class="st0" x="1870.09" y="40.07" width="5.23" height="3.61"/>
  <polygon class="st0" points="1877.96 49.15 1874.02 52.74 1870.09 50.04 1877.96 49.15"/>
  <polygon class="st0" points="1602.05 41.89 1602.04 45.51 1594.19 43.68 1594.19 41.9 1602.05 41.89"/>
  <rect class="st0" x="1746.59" y="127.17" width="5.23" height="3.61"/>
  <polygon class="st0" points="1746.6 60.04 1750.54 69.07 1743.97 69.1 1746.6 60.04"/>
  <polygon class="st0" points="1743.97 74.54 1749.17 77.26 1745.26 79.98 1743.97 74.54"/>
  <polygon class="st0" points="1665.14 72.73 1670.38 76.34 1665.13 76.35 1665.14 72.73"/>
  <polygon class="st0" points="1562.66 123.54 1567.89 124.43 1562.67 127.16 1562.66 123.54"/>
  <rect class="st0" x="1899" y="94.51" width="2.59" height="5.43"/>
  <polygon class="st0" points="1793.86 36.44 1793.86 40.06 1788.62 40.05 1793.86 36.44"/>
  <polygon class="st0" points="1786.01 30.99 1791.25 34.61 1786 34.62 1786.01 30.99"/>
  <polygon class="st0" points="1764.98 67.29 1770.22 68.18 1764.99 70.91 1764.98 67.29"/>
  <polygon class="st0" points="1754.47 61.85 1759.71 62.74 1754.48 65.47 1754.47 61.85"/>
  <polygon class="st0" points="1759.71 112.65 1759.7 116.27 1754.47 113.55 1759.71 112.65"/>
  <rect class="st0" x="1751.86" y="83.62" width="2.59" height="3.61"/>
  <rect class="st0" x="1757.11" y="56.4" width="2.59" height="3.61"/>
  <rect class="st0" x="1762.36" y="58.23" width="5.23" height="1.79"/>
  <rect class="st0" x="1767.61" y="103.59" width="5.23" height="1.79"/>
  <rect class="st0" x="1780.76" y="130.8" width="2.59" height="3.61"/>
  <rect class="st0" x="1728.21" y="118.1" width="2.59" height="3.61"/>
  <rect class="st0" x="1799.14" y="32.82" width="5.23" height="1.79"/>
  <rect class="st0" x="1709.81" y="110.84" width="2.59" height="3.61"/>
  <rect class="st0" x="1707.18" y="78.18" width="5.23" height="1.79"/>
  <rect class="st0" x="1872.71" y="36.45" width="5.23" height="1.79"/>
  <rect class="st0" x="1691.41" y="56.41" width="5.23" height="1.79"/>
  <rect class="st0" x="1896.36" y="72.74" width="5.23" height="1.79"/>
  <polygon class="st0" points="1686.15 96.3 1686.15 94.51 1693.99 97.24 1692.73 98.1 1686.15 96.3"/>
  <rect class="st0" x="1680.9" y="74.56" width="5.23" height="1.79"/>
  <rect class="st0" x="1678.28" y="112.65" width="2.59" height="3.61"/>
  <rect class="st0" x="1670.4" y="49.15" width="2.59" height="3.61"/>
  <polygon class="st0" points="1649.38 76.37 1646.73 82.73 1638.89 79.06 1649.38 76.37"/>
  <rect class="st0" x="1628.36" y="134.43" width="2.59" height="3.61"/>
  <polygon class="st0" points="1623.1 109.02 1625.69 109.02 1621.75 114.43 1620.5 113.57 1623.1 109.02"/>
  <rect class="st0" x="1617.84" y="50.97" width="5.23" height="1.79"/>
  <polygon class="st0" points="1612.61 22.82 1613.87 21.95 1617.79 24.66 1616.53 25.52 1612.61 22.82"/>
  <path class="st0" d="M1583.67,33.72c.88-1.18,1.75-1.18,2.63,0h-2.63Z"/>
  <path class="st0" d="M1636.22,113.55c.88-1.18,1.75-1.18,2.63,0h-2.63Z"/>
  <path class="st0" d="M1636.22,91.78c.88-1.18,1.75-1.18,2.63,0h-2.63Z"/>
  <path class="st0" d="M1573.16,95.41c.88-1.18,1.75-1.18,2.63,0h-2.63Z"/>
  <path class="st0" d="M1573.16,128.07c.88-1.18,1.75-1.18,2.63,0h-2.63Z"/>
  <path d="M1112.37,1050.54c2.46,1,2.46,2,0,3.01v-3.01Z"/>
  <path class="st0" d="M1662.5,91.78c.88-1.18,1.75-1.18,2.63,0h-2.63Z"/>
  <path class="st0" d="M1670.38,86.34c.88-1.18,1.75-1.18,2.63,0h-2.63Z"/>
  <path class="st0" d="M1917.37,84.52c.88-1.18,1.75-1.18,2.63,0h-2.63Z"/>
  <path class="st0" d="M1914.74,122.62c.88-1.18,1.75-1.18,2.63,0h-2.63Z"/>
  <path class="st0" d="M1906.86,99.04c.88-1.18,1.75-1.18,2.63,0h-2.63Z"/>
  <path class="st0" d="M1904.23,44.6c.88-1.18,1.75-1.18,2.63,0h-2.63Z"/>
  <path class="st0" d="M1554.76,124.44c.88-1.18,1.75-1.18,2.63,0h-2.63Z"/>
  <path class="st0" d="M1691.4,73.63c.88-1.18,1.75-1.18,2.63,0h-2.63Z"/>
  <polygon class="st0" points="1870.12 70.02 1874.04 67.31 1875.29 68.18 1871.37 70.88 1870.12 70.02"/>
  <polygon class="st0" points="1870.12 131.71 1874.04 129 1875.29 129.87 1871.37 132.58 1870.12 131.71"/>
  <polygon class="st0" points="1499.63 111.75 1503.55 109.04 1504.8 109.91 1500.88 112.62 1499.63 111.75"/>
  <path class="st0" d="M1864.82,68.19c.88-1.18,1.75-1.18,2.63,0h-2.63Z"/>
  <polygon class="st0" points="1502.25 117.17 1503.51 116.3 1507.43 119.01 1506.17 119.87 1502.25 117.17"/>
  <path class="st0" d="M1720.3,48.23c.88-1.18,1.75-1.18,2.63,0h-2.63Z"/>
  <path class="st0" d="M1807.01,33.72c.88-1.18,1.75-1.18,2.63,0h-2.63Z"/>
  <path class="st0" d="M1728.19,46.42c.88-1.18,1.75-1.18,2.63,0h-2.63Z"/>
  <path class="st0" d="M1517.98,40.97c.88-1.18,1.75-1.18,2.63,0h-2.63Z"/>
  <path class="st0" d="M1783.37,122.62c.88-1.18,1.75-1.18,2.63,0h-2.63Z"/>
  <path class="st0" d="M1780.74,51.86c.88-1.18,1.75-1.18,2.63,0h-2.63Z"/>
  <path class="st0" d="M1780.74,115.37c.88-1.18,1.75-1.18,2.63,0h-2.63Z"/>
  <path class="st0" d="M1733.44,64.56c.88-1.18,1.75-1.18,2.63,0h-2.63Z"/>
  <path class="st0" d="M1772.85,42.79c.88-1.18,1.75-1.18,2.63,0h-2.63Z"/>
  <path class="st0" d="M1736.07,40.97c.88-1.18,1.75-1.18,2.63,0h-2.63Z"/>
  <path class="st0" d="M1762.34,28.27c.88-1.18,1.75-1.18,2.63,0h-2.63Z"/>
  <path class="st0" d="M1759.72,84.52c.88-1.18,1.75-1.18,2.63,0h-2.63Z"/>
  <path class="st0" d="M1751.83,79.08c.88-1.18,1.75-1.18,2.63,0h-2.63Z"/>
</svg>