<?xml version="1.0" encoding="UTF-8"?>
<svg id="Layer_1" xmlns="http://www.w3.org/2000/svg" version="1.1" viewBox="0 0 1920 1080">
  <!-- Generator: Adobe Illustrator 29.5.1, SVG Export Plug-In . SVG Version: 2.1.0 Build 141)  -->
  <path d="M1113.33,646.04l1.53-1.26-.03,4.87c2.77-1.73,1.71-4.57,2.25-6.72-2.71-.93-6.51.17-3.75,3.1Z"/>
  <path d="M1149.92,604.12c.34-5.45.7-10.11-3.73-13.46-.96,1.95,1.79,2.64,1.92,5.57.05,1.17-.84,3.12-1.16,4.52,2.34,1.67.64,3.68,2.97,3.37Z"/>
  <path d="M1231.4,521.16l-.09.27-2.24-4.19c1.12-1.5,1.95-2.62,3.44-2.65.03-1.49-.01-2.98-.15-4.48-4.87,1.11-11.74-7.42-12.92-7.38-3.33.11-6.49,2.81-9.04,2.81-2.91,0-6.73-3.61-10.2-2.79-1.58.38-1.97,5.07-3.24,5.16-2.57.18-1.29-5.91-1.62-6.77-.33-.88-5.82-7.14-6.61-7.53-2.84-1.43-21.98-2.56-23.88-.84-.41.37.82,2.23,1.49,2.56,3.11,1.55,17.85-4.61,25,2.89,1.4,1.46,2.23,6.14-.34,6.3-2.17.14-10.15-7.01-14.2-5,2.34,4.76,7.45,2.9,11.22,6.72,2.47,2.51,2.75,2.53,0,5.03l-18.68-3.33,4.46-5.07c0-3.36-7.59-1.67-8.98-.85-.87.52-7.33,11.38-8.92,9.31-.59-.77,1.86-5.01.9-8.44-.33-1.19-6.97-13.78-7.63-13.49-6.23,2.74,2.87,20.03-3.73,23.62-.66-6.57-.36-13.17-.85-19.69-.08-1.13,1.03-5.64-1.4-5.6-2.78.05-1.28,3.83-1.36,4.99-.47,6.86,1.39,13.55-.12,20.28-4.02-4.48-1.59-11.4-2.58-17.33-1.07-6.39-9.18-14.61,4.42-14.35.75.01,12.34,9.55,12.34,2.16v-237.09c-5.37,5.4-8.42,13.56-13.4,19.45-21.93,25.96-58.61,31.25-88.74,25.95-24.56-4.32-43.78-23.14-55.4-47.08.02,13.05,5.03,25.61,3.74,38.81l-85.11-10.12c-.35,2.42,2.63,2.37,4.16,2.85,19.76,6.22,41.95,9.06,62.14,14.15,2.36.6,4.16,2.93,6.22,3.25,3.74.59,8.02-2.97,11.63-1.55,3.69,1.45,1.75,7.11,2.49,8.23.54.83,9.6-.72,10.4.06,4.31,4.17-8.98,4.27-10.43,1.68l1.5,195.73-5.99,3.38c4.92-2.85,5.73,5.56,4.49,6.76-.65.63-13.85-.34-17.06.14-3.25.48-7.9,3.86-10.4,3.36-1-.2-.8-2.71-1.27-3.12-.94-.82-3.02,1.33-4.2.5-.89-.63-1.06-3.25-2.45-4.33-10.46-8.15-16.94-1.61-25.07-1.49-5.46.07-14.81-6.96-20.7-5.09-1.54.49-1.35,3.21-2.49,4.17-5.18,4.33-15.68,2.04-20.08,2.51-2.54.27-4.24,3.55-9,3.57-6.16.03-6.97-4.29-8.89-4.6-2.59-.41-20.17,3.88-21.67,2.69-1.35-1.07,1.1-9.31-8.04-6.79-2.61.72-1.6,8.4-3.21,10.19-5.07-5.83-.86-14.29-.69-21.01,2-77.06-11.9-214.82,15.55-281.12,21.82-52.69,73.77-67.47,109.77-22.67l13.47,22.74V48.09c0-2.87,6.99-23.39,8.69-27.31,3.08-7.12,8.11-14.34,12.22-20.79h-192.61c-7.35,7.76-16.34,13.57-23.92,21.06-31.76,31.43-52.69,76.7-70.08,118.57-2.96,7.13-.84,12.46-5.17,20.85-.97,1.88-.63,4.39-.89,4.9-1.01,1.98-8.43-7.16-10.22-.61,1.37,7.56-.77,18-.09,24.8,1.01,10.1,2,10.29.72,19.71-1.96,14.38-5.11,28.7-6.64,43.18-7.64,72.15-.9,148.21-3.03,220.99.68,3.2-3.12,1.85-3.13,3.25-.01,1.63,2.95,0,3.13,1.85.35,3.68-3.24,11.42-3.18,14.93.01.63,5.08,1.63,3.04,6l-4.46-1.68-.02,9.27,4.47-.84c1.13,10.11-1.76,4.91-3.01,5.82.01,2.5.05,5,.12,7.49.21,8.16.63,16.32.81,24.48,2.87,46.57-.79,93.43.53,140.31.38,13.37,2.26,28.56,3.12,42.04.23,3.65-.26,7.41-.08,11.06l-2.97-1.71v8.44c2.69-.01.89-9.4,3.74-3.39,2.49,5.27,5.49,35.12,7.16,44.22,3.03,16.47,5.68,26.89,10.74,41.87,2.65,7.84,4.46,16.4,6.82,24.37l-3.08.95c-.6,3.01,2.16,1.07,2.98,1.68,1.83,1.36-2.84,1.47-2.97,2.7-.1.97.82,2.65.62,4.2-.35,2.65-2.18,9.46-1.97,10.67,1.02,5.87,10.77.69,12.44,1.11,2.32.59,1.29,5.36,3.82,4.93v-102.09c0-4.39,2.72-17.56,4.06-22.41,12.78-46.14,64.11-35.86,67.67,13.91-3.36,39.12,4.6,87.91-.73,125.87-2.59,18.47-14.76,33.75-31.63,35.2-4.58.39-8.2-1.54-12.48-.69,3.59,3.15,6.66,13.26,10.46,15.18,5.34,2.7,13.68-2.77,13.52,6.7-.13,7.43-4.11,6.39,2.88,13.59,4.66,4.8,34.45,31.19,38.09,31.19h23.14v10.13s5.97,0,5.97,0v-18.58s11.95,0,11.95,0v24.47c0,3.27,32.09,8.81,36.59,9.27,80.63,8.33,149.77-25.49,195.19-101.7,2.84-4.76,13.5-23.4,14.57-27.41.93-3.46-.95-2.05-2.18-2.52-9.12-3.44-8.18,5.18-17.21,3.39v-31.22l2.24-2.53h30.61c.23,0,.78-4.28.85-5.01.52-5.38-9.68-3.05-13.39-3.6-3.04-.45-7.13-2.85-9.42-2.83-1.06.01-10.89,6.55-10.89.46v-27l2.24-2.53h40.31l3.73-8.44h-39.57c-.37,0-5.23-5.49-5.23-5.91v-24.47h47.78v13.49c2.75-.8,3.16-7.36,3.76-10.09,6.09-28,13.04-105.7,8.23-132.23-.23-1.29-2.85-.96-3.08-2.2-.55-3.01,1.57-8.02.84-9.11-.8-1.19-3.08-1.56-3.78-2.56-1.22-1.74-.45-3.44-.92-4.12-1.21-1.74-4.43-2.32-4.57-4.12-.29-3.6,1.02-9.76-.47-14.43l4.48,8.43c2.88.52-.12-7.71-.35-8.02-3.05-4.18-7.17,2.78-8.63,1.27l3.71-10.26c.95-1.82,3.58.25,3.7.09.39-.49-.16-2.37.05-3.32-.54-.38-2.18.03-3.03-.79-1.43-1.37-2.06-17.32-1.46-21.06l-7.45-1.78v16.88s5.96-1.68,5.96-1.68l-1.5,18.56c-5-2.51-2.45-10.38-2.98-15.18-3.65-.72-2.89.59-3.44,3.75-1.26,7.29,1.83,7.56,2.67,12.25,1.4,7.81,1.39,14.85.79,22.8,2.18-2.77,7.68-6.28,10.45-3.37.65.68-1.03,4.47-.83,5.94.36,2.73,2.25,4.88,2.44,8.41.36,6.42-2.43,12.81-.12,19.4l5.95-6.76c1.9,12.98-3.47,6.46-5.75,8.67-.33.32-1.99,7.48-3.22,9.02,2.27,3.02,1.14-1.77,1.53-2.51.84-1.57,2.47,2.82,2.68,4.68.67,6.09-2.61,10.16.3,15.56-5.01,1.76-1.87-5.06-3.73-5.06-1.86,0,1.28,6.81-3.73,5.07,3.15-7.57-1.5-6.74-1.61-7.76-.19-1.77,1.31-4.17,1.17-6.35-.28-4.52-6.03-11.38.42-14.57l.05,7.61c1.56,1.37,3.01-1.36,2.78-3.15-.28-2.24-7.1-11.18-8.04-11.18-3.09-.02-2.91,19.15-9.12,21.73-7.17,2.97-1.69-7.14-1.31-10.11.17-1.34-.45-7.99-.78-8.28-.81-.7-9.37,2.59-10.43,5.07.22-5.13-3.13-9.2,1.45-12.67l-5.94.86c1.26-3.42-2.19-21.16-1.49-21.93.28-.31,5.47,2.17,7.45,0,1.56,5.63-4.46,2.1-4.48,4.23-.02,2.21,2.19,4.82,2.97,4.21.22-.17.55-5.21,3-5.06.22,2.44-.91,4.51-1.48,6.75,2.15.74,5.8,11.16,6.68.03,7.92,2.46,1.77,9.95,2.27,14.29.35,2.98,5.22,1.67,5.85.71,1.01-1.52,1.14-32.21,1.41-37.96.16-3.35.29-2.41-2.78-2.4,1.49,11.56-3.61,4.34-4.47,5.06-.42.35-.21,6-2.59,6.77-2.45.79-6.53.34-9.36,1.68l1.48-8.42h-10.44c.43,4.04,5.99.68,7.45,4.23,1.51,3.7-3.94,1.95-5.32,4.06-1.46,2.24-.37,7.37-.65,10.25l-7.45-1.69,4.48-5.09c-.93-3.83-4.54-3.53-7.46-3.33l1.49,5.04h-5.97c7.71-6.42-3.48-5.89-5.98-4.25-2.5,1.64,2.52,10.84.01,14.38,2.12-1.65,15.43-1.79,11.93,3.36-.42.62-12.87,3.88-13.42,3.41-.16-.14-1.51-4-1.51-4.23v-29.53c11.03.35,5.88.57,6.3-5.41.15-2.1,2.25-12.98,3.43-13.17,8.42-1.35,3.65,14.09.72,18.56h7.47s-1.51-10.93-1.51-10.93l2.97.03-1.12-11.67,7.88-6.09c2.12,1.74-2.84,9.22,1.5,10.11,5.5,1.12,3.21-8.84,5.97-10.1,5.54-2.55,1.84,7.3,8.17,5.91-4.65-3.57-.68-4.81-.07-8.62,1.59-9.76,3.51-21.54,3.09-31.04l3.71,11.8c2.46-4.8,4.88-1.78,7.48-2.04,8.55-.85,3.22-2.89,3.59-7.12.14-1.58,3.62-.33,3.12-1.8-.54-1.6-3.96-2.59-2.97-5.91l7.44,1.71-1.47,16.78,6.69,1.78c1.31-8.16-1.14-13.03,8.79-10.2,1.58.45.72,3.02.96,3.41,1.11,1.82,1.53-2.42,1.87-2.79,3.19-3.42,24.02-1.34,24.98-2.27,4.86-4.69-12.31-2.04-7.45-6.73.46-.45,15.39,1.43,10.44-3.38-1.79-1.73-16.27,1.49-20.02,1.55-3.59.06-13.25-2.63-15.8-4.95-1.96-1.79,4.42-.77,2.97-4.18-.99-2.32-6.65-3.2-5.96-6.75.15-.79,8.63-8.06,10.49-10.09,2.48-2.71,3.13-7.13,6.66-7.67l17.7.27c2.97,1.11,2.74,5.51,4.41,7.69,3.5,4.59,19.85,6.67,25.03,4.79,4.47-1.62,7.27-10.19,11.78-6.81.04-.82.1-1.63.16-2.45-.23.04-.47-.03-.63-.2-.05-.05-.06-.12-.1-.18ZM964.78,283.48h-4.47v-1.66h4.47v1.66ZM966.28,285.18v-3.37s2.98,3.36,2.98,3.36h-2.98ZM695.27,516.37v-1.69c.97.56.97,1.12,0,1.69ZM707.95,227.81h-1.47v-5.05h1.47v5.05ZM707.2,221.03l.77-5.03h1.47c.49,2.48-.63,3.52-2.24,5.03ZM709.44,210.95v3.36h-1.47v-3.36h1.47ZM708.71,195.75v-1.69c.97.56.97,1.12,0,1.69ZM713.92,214.31h-1.47v-5.05h1.47v5.05ZM707.98,190.69c-.84-5.61.67-11.15.95-16.4.09-1.63-1.26-3.51-.96-3.83.67-.72,3.93,2,4.39,1.56.64-.6-1.09-3.93,1.56-3.25-1.52,6.58-1.28,17.26-5.95,21.93ZM714.68,232.88v-1.69c.97.56.97,1.12,0,1.69ZM714.68,226.12v-1.69c.97.56.97,1.12,0,1.69ZM714.68,219.38v-1.69c.97.56.97,1.12,0,1.69ZM722.15,172.12v-1.69c.97.56.97,1.12,0,1.69ZM723.64,860.62v-1.69c.97.56.97,1.12,0,1.69ZM726.63,216v-1.69c.97.56.97,1.12,0,1.69ZM726.63,202.5v-1.69c.97.56.97,1.12,0,1.69ZM726.63,172.12v-1.69c.97.56.97,1.12,0,1.69ZM753.5,197.44c.97.56.97,1.12,0,1.69v-1.69ZM752.01,162c.97.56.97,1.12,0,1.69v-1.69ZM748.27,172.11h-2.97v-1.66h2.97v1.66ZM751.26,155.23h-2.97v-1.66h2.97v1.66ZM752.01,396.56v-1.69c.97.56.97,1.12,0,1.69ZM754.24,204.17h-2.97v-1.66h2.97v1.66ZM755,185.62v-1.69c.97.56.97,1.12,0,1.69ZM755,172.12v-1.69c.97.56.97,1.12,0,1.69ZM756.49,204.19v-1.69c.97.56.97,1.12,0,1.69ZM767.69,143.45h2.97v1.66h-2.97v-1.66ZM772.16,170.45v1.66h-2.97v-1.66h2.97ZM773.66,399.93c-.27.32-3.27-.17-4.47,0l1.5-10.11c2.86-.12,3.3,9.72,2.97,10.12ZM777.39,145.12v-1.69c.97.56.97,1.12,0,1.69ZM784.86,391.5v-1.69c.97.56.97,1.12,0,1.69ZM795.31,391.5v-1.69c.97.56.97,1.12,0,1.69ZM795.31,146.81v-1.69c.97.56.97,1.12,0,1.69ZM797.54,123.17h-2.97v-1.66h2.97v1.66ZM1140.23,588.94v-1.69c.97.56.97,1.12,0,1.69ZM1140.23,626.06v-1.69c.97.56.97,1.12,0,1.69ZM1151.44,671.63h1.47v8.42h-1.47v-8.42ZM1149.19,696.94c1.32.07.89,4.87.73,5.05-.3.34-3.27-.17-4.47,0l3.74-5.04ZM1146.94,757.7v3.37s-2.97-2.54-2.97-2.54l2.97-.83ZM1128.28,639.56v-1.69c.97.56.97,1.12,0,1.69ZM1130.51,629.45v3.37s-2.97-2.54-2.97-2.54l2.97-.83ZM1092.46,642.91l-2.23-2.52.71-.8,2.23,2.52-.71.8ZM1140.98,464.05c-2.37-2.68,2.1-7.72,4.47-5.05,2.37,2.68-2.1,7.72-4.47,5.05ZM1143.96,410.05v-1.66h2.97v1.66h-2.97ZM1146.93,445.49h-1.47v-3.36h1.47v3.36ZM1146.93,433.68h-1.46s0-6.73,0-6.73h2.97s-1.5,6.73-1.5,6.73ZM1146.94,391.49c-.44.52-11.54-4.51-11.93-5.08-2.77-4.03,3.51-2.91,4.19-3.67.62-.7-.14-3.04,1.29-4.81.66-.82,5.72-4.14,6.46-3.29.28.33-1.45,7.85-1.78,8.15-1.22,1.1-4.2-.73-4.2,1.12,0,2.03,5.09.09,6,.85.24.2.19,6.49-.02,6.74ZM1132.74,359.46c-3.73-7.26,1.18-7.62,6.73-6.77,1.66,6.59-5.93-.62-5.94,4.21,0,2.14,5.4,5.06,8.04,4.12,3.54-1.27.39-8.1,5.36-6.64,1.8,9.68-11.29,10.74-14.2,5.08ZM1133.5,420.2c.16.18.16,4.87,0,5.05-3.97,4.44-3.97-9.49,0-5.05ZM1129.03,484.3c-1.63-1.84,1.34-5.2,2.97-3.36,1.63,1.84-1.34,5.2-2.97,3.36ZM1132.76,405v-1.69c.97.56.97,1.12,0,1.69ZM1133.49,329.06c2.53,16.29,6.81-1.54,8.22-1.65,3.12-.25,6.61,5.46,4.51,10.1-3.53,7.81-22.75-1.43-12.73-8.44ZM1136.49,278.45c.87.99-1.28,5.03-2.23,5.03-4.13,0-.03-7.58,2.23-5.03ZM1142.32,293.46c.3-.3,1.84-8.02,1.76-8.87-.14-1.63-4.58-2.22-4.58-3.61,0-.69,4.87-4.2,5.21-4.18,3.98.2.99,8.99.99,10.93,0,2.9,2.43,6.46.61,9.39-1.85,2.98-15.76,2.26-15.77-.95,0-4.03,10.77-1.72,11.77-2.7ZM1131.99,311.34c0-.4-4.56-4.12-2.96-5.9,1.06-1.18,7.48,3.19,7.42,4.21-.02.43-4.68,4.76-2.95,7.59,1.22,2,13.44.99,9.71-6.75-1.84-3.81-4.39,2.81-5.22,1.7-2.95-3.94,4.39-8.03,6.68-5.17,3.75,4.66,3.06,12.43-2.99,13.57-5.32,1-14.2,1.99-14.26-5.69-.01-1.51,4.53-2.11,4.56-3.55ZM1126.79,413.44c.97.56.97,1.12,0,1.69v-1.69ZM1126.05,472.5c.61-.86,4.18,3.33,2.96,5.06-.61.86-4.18-3.33-2.96-5.06ZM1123.8,288.56c.97.56.97,1.12,0,1.69v-1.69ZM1100.65,305.45c-.48-.35-2.81.69-3.04-.86-.27-1.79.79-5.9,2.3-5.9h24.64v13.51s-10.45,0-10.45,0c-1.08,6.63,4.62,1.85,6.77,2.2,1.6.26,2.93,3.34,2.17,4.53-.81,1.28-14.04,2.53-14.93,1.7-.17-.16-.18-4.91,0-5.05,1.25-.96,5.65,2.31,4.47-3.37l-14.92,1.67c.21-1.8-.4-4.14-.04-5.68.29-1.22,4.8-1.4,3.01-2.73ZM1102.15,318.92h-2.98s0-3.36,0-3.36l2.97,3.36ZM1099.14,331.57c1.58-1.54,17.54-4.27,19.86-3.89,5.7.92,8.66,9.63,5.19,14.48-2.45,3.43-25.79,3.11-26.58-.69-.56-2.66-.3-8.11,1.54-9.9ZM1114.84,388.12v-1.69c.97.56.97,1.12,0,1.69ZM1114.84,415.12v-1.69c.97.56.97,1.12,0,1.69ZM1113.14,374.76c-1.57-.55-9.46.46-13-.15-1.78-.31-1.12-4.85-.97-5.04.18-.24,3.19,1.84,5.18,1.77,5.95-.23,22.89-8.03,17.57,4.55-1.13,2.67-3.66,5.44-6.13,3.55-.56-.43-.51-3.92-2.64-4.66ZM1100.65,349.32c.13.15.22,3.44,0,4.2-3,9.91-4.78-9.55,0-4.2ZM1100.64,359.45v3.36h-1.47v-3.36h1.47ZM1103.65,361.11c-.16-.2.77-3.13.56-5.13-.09-.84-3.95-3.48.35-4.8,5.19-1.59,13.96.93,19.98-1.87v6.74c-6.42-2.9-8.14-.28-12.7.86-1.94.49-3.14-2.13-5.99.83-.16.17,1.54,7.96-2.2,3.37ZM1120.09,418.5c.14-.21,4.14,1.69,4.28,1.9,4.2,6.55-10.78,8.13-4.28-1.9ZM1093.94,369.56c.97.56.97,1.12,0,1.69v-1.69ZM1092.44,366.19c.97.56.97,1.12,0,1.69v-1.69ZM1090.21,372.95c1.24-1.41,5.32,2.59,4.47,3.35-1.69,1.52-6.84-.65-4.47-3.35ZM1085.74,339.19h1.47v6.74h-1.47v-6.74ZM1084.25,325.7h1.47v3.36h-1.47v-3.36ZM1079.76,325.7h2.97v1.66h-2.97v-1.66ZM1084.23,344.27v1.66h-4.47v-1.66h4.47ZM1080.51,337.51l.73,3.36h-2.98s2.25-3.36,2.25-3.36ZM1079.74,459.01v3.36h-1.47v-3.36h1.47ZM1077.51,372.94c.97.56.97,1.12,0,1.69v-1.69ZM1076.77,437.08l-2.97,3.36v-3.37s2.97,0,2.97,0ZM1075.26,442.13v5.05h-1.47v-5.05h1.47ZM1075.27,450.58l-2.23,5.04-2.22-2.52c1.34-1.81,2.26-3.07,4.45-2.52ZM1073.79,460.68v-3.36h1.47v3.36h-1.47ZM1074.53,465.75v-1.69c.97.56.97,1.12,0,1.69ZM1067.06,376.31c.97.56.97,1.12,0,1.69v-1.69ZM1064.83,475.88c2.7-3.25,4.79,6.41,4.47,6.73-2.19,2.15-6.24-4.6-4.47-6.73ZM1053.62,372.94l3.71,4.23-4.45-.87.73-3.36ZM1045.42,327.39h2.97v1.66h-2.97v-1.66ZM1046.16,351v-1.69c.97.56.97,1.12,0,1.69ZM1044.66,394.88c.97.56.97,1.12,0,1.69v-1.69ZM1043.21,497.89c1.2-2,.27-7.13,2.97-8.5,3.39-1.73,1.08,4.1,3.7,3.35.07-3.81,1.06-7.6,3.76-10.11,4.08-.36,1.32.86.99,2.55-.3,1.54,2.65.97,2.72.83.67-1.22-1.43-5.57,1.48-5.07.29,2.73,1.46,9.44-.33,11.43-.91,1.01-4.15.48-5.77,2.73-1.92,2.66-.6,8.05-3.78,9.31-1.44.57-10.61-1.13-11.01-1.56-3.14-3.34,4.4-3.52,5.27-4.97ZM1061.83,573.76c3.93,4.49-8.4,4.49-4.47,0,.16-.18,4.31-.18,4.47,0ZM1059.6,538.31v-1.69c.97.56.97,1.12,0,1.69ZM1061.09,644.62v-1.69c.97.56.97,1.12,0,1.69ZM1056.61,609.19v-1.69c.97.56.97,1.12,0,1.69ZM1090.21,734.06c-.2,4.88,1.7,10.7-3.73,11.83-3.96.82-22.81.76-26.86-.03-3.66-.72-4.66-5.18-7.48-5.05-1.7.07.65,6.95-2.98,5.06-2.67-1.39-3.14-7.68-1.61-10.23,2.25-3.77,36.11.06,42.66-1.58ZM1067.8,624.38c.25.29-.44,5.84-.36,8.06.12,3.18.26,1.99-2.61,2.06l-1.5-10.12h4.47ZM1064.84,577.12v-3.36h1.47v3.36h-1.47ZM1093.95,502.88c1.25-.49,0,2.5,1.92,3.29,1.05.44,2.64-.19,3.24.14.41.22,2.86,6.75-4.42,3.31,1.91,9.27-20.95,1.23-20.88-.84.04-1.12,5.12-4.37,6.65-4.31.79.03.66,3.18,1.73,3.47,7.5,2.07,3.91-2.91,5.77-8.44,2.94,2.36,1.56,8.24,4.51,10.1.65.41,1.69-.24,2.22.01-.43-2.1-5.12-5.01-.74-6.74ZM1084.23,524.83l-2.97,3.36v-3.37s2.97,0,2.97,0ZM1076.78,671.62v-3.36h1.47v3.36h-1.47ZM1077.51,680.06v-1.69c.97.56.97,1.12,0,1.69ZM1076.75,649.68c-1.02-.3-3.98-3.97-4.37-4.67-1-1.79-1.98-3.13-1.58-5.44l8.96.88-3.01,9.23ZM1076.02,688.5v-1.69c.97.56.97,1.12,0,1.69ZM1073.79,705.37v-3.36h1.47v3.36h-1.47ZM1075.26,708.76v5.05h-1.47v-5.05h1.47ZM1072.3,664.87v-3.36h1.47v3.36h-1.47ZM1073.77,671.63v3.36h-1.47v-3.36h1.47ZM1070.05,722.25v-1.69c.97.56.97,1.12,0,1.69ZM1070.05,631.12v-1.69c.97.56.97,1.12,0,1.69ZM1076.78,634.49v-3.36h1.47v3.36h-1.47ZM1076.78,627.75c-1.35-1.91.57-7.73,2.97-5.05,1.25,1.4-2.3,6.01-2.97,5.05ZM1076.76,602.42c-2.15,5.6,2.86,7.13,3.01,7.91.35,1.96-1.38,6.14-.03,8.98-.9-1.07-5.46-7.11-5.6-7.58-.41-1.37-1.61-11.84,2.62-9.31ZM1081.24,553.51c1.63,1.84-1.34,5.2-2.97,3.36s1.34-5.2,2.97-3.36ZM1073.77,614.26v5.05h-1.47v-5.05h1.47ZM1073.01,627.74c-3.17.81-4.64-4.23-1.45-5.05,3.17-.81,4.64,4.23,1.45,5.05ZM1070.78,577.12h-1.47v-3.36h1.47v3.36ZM1068.56,617.62c-4.21-2.66-1.57-7.6.73-5.05.16.18.59,4.97-.73,5.05ZM1068.55,688.5v-1.69c.97.56.97,1.12,0,1.69ZM1067.8,641.24c-3.97,4.44-3.97-9.49,0-5.05.16.18.16,4.87,0,5.05ZM1067.8,700.33v1.66h-2.97v-1.66h2.97ZM1066.33,595.69v-3.37s2.97,0,2.97,0l-2.97,3.36ZM1081.25,705.36v-1.66h2.97v1.66h-2.97ZM1081.99,710.44v-1.69c.97.56.97,1.12,0,1.69ZM1090.21,754.3v13.51h-43.31v-13.51c14.45-.37,28.89.83,43.31,0ZM1037.96,578.8v-3.36h1.47v3.36h-1.47ZM1039.43,632.82v3.36h-1.47v-3.36h1.47ZM1046.9,533.26l-7.46,8.42c-.84-7.13,1.25-9.32,7.46-8.42ZM1045.42,653.08h2.97v1.66h-2.97v-1.66ZM1052.87,642.95c1.63,1.84-1.34,5.2-2.97,3.36s1.34-5.2,2.97-3.36ZM1048.4,627.73v-1.66h2.97v1.66h-2.97ZM1052.87,597.38c.16.18.59,4.97-.73,5.05-4.21-2.66-1.57-7.6.73-5.05ZM1051.39,577.12c-1.63-1.84,1.34-5.2,2.97-3.36,1.63,1.84-1.34,5.2-2.97,3.36ZM1052.87,534.92h-2.97v-1.66h2.97v1.66ZM1051.38,605.83v1.66h-2.97v-1.66h2.97ZM1046.91,541.68v-3.37s2.98,3.36,2.98,3.36h-2.98ZM1048.38,639.57v3.36h-1.47v-3.36h1.47ZM1047.65,659.81v-1.69c.97.56.97,1.12,0,1.69ZM1046.92,661.5c.67-.95,4.21,3.66,2.97,5.05-2.39,2.68-4.31-3.14-2.97-5.05ZM1055.12,614.25v-1.69c.97.56.97,1.12,0,1.69ZM1031.97,597.38c1.63,1.84-1.34,5.2-2.97,3.36-1.63-1.84,1.34-5.2,2.97-3.36ZM1027.49,521.45c1.63,1.84-1.34,5.2-2.97,3.36-1.63-1.84,1.34-5.2,2.97-3.36ZM1021.53,602.42v-1.66h2.97v1.66h-2.97ZM1024.49,627.76v3.36h-1.47v-3.36h1.47ZM1023,607.51v3.36h-1.47v-3.36h1.47ZM1023.79,578.82c-5.55.31-13.28,2.27-11.22-5.06,2.76,2.12,11.99-.26,13.43,1.7,1.66,2.27.16,3.23-2.21,3.36ZM1017.79,533.25v-1.69c.97.56.97,1.12,0,1.69ZM1025.25,540v-1.69c.97.56.97,1.12,0,1.69ZM1023.76,494.44c.97.56.97,1.12,0,1.69v-1.69ZM1021.51,516.38c2.86,2.79-2.83,3.45-3.01,4.44-.67,3.69,2.27,10.37-2.93,9.06l-3-10.93c.44-2.17,8.59-2.92,8.95-2.57ZM1014.06,494.42v-1.66h2.97v1.66h-2.97ZM1018.53,376.3h-2.98s0-3.36,0-3.36l2.97,3.36ZM1015.54,367.88c1.63,1.84-1.34,5.2-2.97,3.36-1.63-1.84,1.34-5.2,2.97-3.36ZM1014.05,374.63c1.63,1.84-1.34,5.2-2.97,3.36-1.63-1.84,1.34-5.2,2.97-3.36ZM965.53,513c.97.56.97,1.12,0,1.69v-1.69ZM835.63,534.94l.73,5.05-2.95-2.53,2.22-2.52ZM864.36,976.78c-5.95-.1-47.31-24.03-48.88-21.66-1.95,2.94-.56,15.77-2.17,18.65-1.85,3.3-8.29,1.28-8.29-.93,0-5.91-1.26-39.85,0-41.34,1.93-2.29,30.31,12.6,33.5,11.75,2.57-.68,1.61-6.46,3.23-6.8l11.06.1c.31,3.57-.94,8.74.72,11.85,1.89,3.54,12.91,5.49,13.93,7.06,1.57,2.42,4.6,24.35-3.08,21.32ZM956.57,980.44v-1.69c.97.56.97,1.12,0,1.69ZM958.06,970.31v-1.69c.97.56.97,1.12,0,1.69ZM958.06,963.56v-1.69c.97.56.97,1.12,0,1.69ZM957.36,895.28c-13.04,4.21-14.55-14.53-13.35-25.29.92-8.19,7.04-8.24,13.3-9.36l-7.2,11.35c-1.98,7.02,3.67,16.83,9.81,10.13,3.25-3.55,3.72-16.7,10.1-19.79,3.57-1.73,1.51,2.48,1.49,3.5-.26,10.79-3.58,26.05-14.15,29.46ZM970.76,887.61l1.5-10.11h1.47s0,10.11,0,10.11h-2.98ZM985.7,825.2l2.97,21.93h-5.96c-.64-8.07.06-14.6,2.99-21.93ZM987.15,875.8c-2.72,2.6-2.48-.51-2.92-2.53-.68-3.14-2.41-8.78.71-10.93,1.52,1.72,4.13,4.32,4.6,6.63.12.57-2.14,6.59-2.39,6.83ZM996.13,889.3c-2.12,2.81-6.72-7.42-5.96-8.42.26-.34,4.02-1.89,5.28,0,.23.34.92,8.11.68,8.43ZM990.17,865.68v-6.74c2.98.9,3.36,3.59,2.97,6.74h-2.97ZM1004.35,813.37h23.14l-.02,6.7c-9.4-.3-25.22,7.37-29.17-6.6-5.52-19.51,8.99-22.27,22.52-20.44,3.59.49,4.43,5.73,1.27,6.64-3.58,1.04-17.24.12-19.34,3.44-1.59,2.51-.6,10.25,1.6,10.25ZM1026.03,890.06l1.46,9.38h-29.86c-.78-.88-.39-23.23,1.39-24.57,7.07-5.33,13.4,5.2,15.99,5.76,2.2.48,15.08-9.87,12.46,1.08-.64,2.69-4.85,1.22-6.35,2.77l-7.07,6.52,11.97-.94ZM999.8,861.02c.9-.13,3.57,1.51,5.97,1.38,2.06-.11,3.98-1.41,6.08-1.41,1.34,0,9.74.16,9.65,2.17-.25,5.53-22.43,8.93-23.85,3.36-.49-1.91.32-5.24,2.16-5.49ZM1022.97,857.73c-.67-.85-.55-2.96-2.36-3.63-4.75-1.77-11.07,2.44-14.77-5.28l-2.25,6.74c-6.05.26-8.24-9.78-3.85-13.65,2.7-2.38,10.67-1.56,15.06-3.22,5.04-1.9,2.98-1.88,2.24-6.76-2.85,1.14-16.4,4.57-17.83,3.3-.21-.18-2-4.77-.13-5.88,3-1.78,27.42-3.63,28.43-2.48.46.52.58,13.02-1.43,14.43l-20.95,4.98,19.02,2.09c6.37,3.36,3.65,15.48-1.18,9.36ZM1027.32,780.66c1.83,6.22-.5,5.72-5.06,5.72-3.63,0-23.69.89-24.64,0-.89-.84.15-5.64,1.52-7.56,2.29-3.21,9.71-6.45,13.09-8.76,1.47-1.01,1.8-3.29,2.15-3.49,1.99-1.1,5.63.41,5.64-1.28.03-2.76-25.48,5.51-22.4-7.59,3.9,1.08,27.83-2.95,29.14-.17,6.28,13.36-14.29,17.9-14.23,19.57.09,2.66,13.16-1.95,14.78,3.57ZM1029.28,644.14c-.38-.32-.15-2.26-.53-2.55-2.12-1.66-16.82,10.55-20.66,11.5-.39,4.49-.06,2.72,2.23,3.31,3.24.84,6.59,1.04,10.07,2.16,1.74.56,6.38,4.07,7.1,2.95.67-1.04-1.45-5.59,1.49-5.07.03,4.71-1.52,7.88,3.01,9.24l-3.01,7.62c-6.98-6.93-16.68-8.61-25.36-11.8v18.56s22.39,0,22.39,0v6.74s-22.34,1.77-22.34,1.77l-1.55,8.35c2.29-.24,4.38-1.09,6.7-1.14,4-.08,13.52,1.78,16.28,1.27,1.52-.28.35-4,1.65-3.49,4.2,1.64-.58,6.1-1.63,8.27l-15.54,14.49,17.93.87c.93,13.24-6.22,7.02-12.71,6.72-1.6-.08-13.46-.38-14.01.1-.37.32-1.9,6.18-1.79,7.28.13,1.25,3.11,1.54,4.34,3.87,1.07,2.03,1.78,11.64,4.85,6.34,1.99-3.43-.62-7.18,6.65-5.86,4.29.78,1.16,7.57,6.67,6.85v-10.12h5.97v16.88s-28.36,0-28.36,0c-.41,0,.12-7.34,0-9.29-.13-2.09,1.17-6.26-1.48-5.89,1.28,12.48-7.03,25.95-8.62,36.67-.65,4.36.22,20.68-1.86,22.38-1.2.98-3.92-.97-4.34-2.78-.11-.49,2.3-14.89-1.61-7.34-.3.58.14,3.15-.86,4.87-1.62,2.79-4.11,4.5-4.83,8.13-.96,4.88.26,10.62-1.81,15.69-4.4.73-2.48-.93-2.95-3.83-1.08-6.67-7.53,4.89-8.22,5.53-6.17,5.76-15.48,7.98-13.21,19.83,3.37,17.62,22.64,6.74,22.88,13.06.33,9.05-26.18,11.19-29.5-7.11-.74-4.06-.24-8.21-.34-12.29-24.1,5.91-45.46-.66-62.71-20.25v23.62h-17.92v67.5h32.85v30.38h-70.18v-23.62h7.47v-153.56h-14.93v-27h32.85c1.16-1.14-2.85-29.36-3.05-34.52-1.62-40.98-2.39-96.27,0-136.84.28-4.74.67-13.59,4.54-9.2,1.32-6.09-1.76-3.49-2.97-6.75,5.34-1.44,5.37,4.12,8.4,6.52,5.62,4.45,17.03,9.06,23.8,10.22,1.69.29,12.74,1.5,13.41,1.42,3.05-.4.41-12.2,7.4-2.99,1.73-6.84,2.98-1.75,6.36-.45,1.96.75,4.56.11,6.33,1.27,3.45,2.26.41,9.66,8.17,7.64,5.6-1.45,3.21-8.34,6.78-10.95,1.11-.81,8.35-2.89,9.52-2.7,1.15.19.62,3.59,1.65,3.55,2.35-.09,3.21-2.99,5.63-3.05,5.97-.15,14.07,8.34,14.53,14.8,2.66.67.94-2.48,1.48-3.36,2.04-3.32,3.61,3.15,4.43,4.17,6.62,8.26,5.31,1.6,10.93-1.2,3.47-1.73,12.6-.32,16.36.85,1.69.52,5.38,3.17,5.6,2.93,2.59-2.86-2.02-3.55-2.94-4.18-1.59-1.08-4.35-2.92-5.95-3.48-2.36-.82-7.24-.5-7.52-.79-.4-.42,1.46-4.28.88-6.8-1.56-6.8-15.3-11.61,2.09-16.83.48-3.32-3.67-.93-4.48-1.68-1.27-1.18,2.14-4.63,2.6-6.35,1.88-7.08.45-15.9,10.15-15.72,3.2.06,6.38,3.86,6.64,3.5.66-.89-1.46-4.64,3.01-3.35l.1,56.35-6.06,4.37,6.03,2.81-.07,63.03c5.5-1.19,10.65,1.24,15.73,1.61,2.76.2,7.22-1.61,9.79-.66,1.53.56,5.78,3.82,5.82,4.95.04,1.33-3.68,3.71-5.65,2.05ZM1028.97,646.32v5.05h-1.47v-5.05h1.47ZM1031.98,623.54l2.97-2.54v3.37s-2.97-.83-2.97-.83ZM1039.43,494.45c1.63,1.84-1.34,5.2-2.97,3.36s1.34-5.2,2.97-3.36ZM1039.43,696.92h-2.97v-1.66h2.97v1.66ZM1039.43,642.93c-3.97,4.44-3.97-9.49,0-5.05.16.18.16,4.87,0,5.05ZM1042.43,626.08h2.97v1.66h-2.97v-1.66ZM1043.93,673.31l2.97,3.36h-2.98s0-3.36,0-3.36ZM1045.42,691.88h2.97v6.73h-2.97v-6.73ZM1090.21,885.09c0,1.18-2.48,2.28-3.73,2.54-8.05,1.65-19.93-1.16-28.48-.14-2.84.34-1.88,3.18-3.13,3.49-2.42.6-5.41-.28-7.97.01v-26.16c0-.58,5.2-5.89,6.44-6.42,2.15-.92,2.77.51,3.26.51h33.6v26.16ZM1055.86,837h34.34v10.13s-41.91.95-41.91.95c-2.38-1.84-1.75-19.31-.73-22.99,4.58-16.47,31.21-3.74,42.64-6.66-.23,3,.75,7.83-.66,10.24-2.61,4.47-30.25-1.33-33.02,3.18-1.04,1.7-.66,3.3-.67,5.15ZM1087.72,802.41c0,2.01,3.01,5.4,2.49,5.89-.5.46-11.22,2.47-12.68,2.51-6.87.19-6.37-6.02-5.32-13.35.21-1.47,6.38-.93,9.03-3.5,2.27-2.2-.08-4.21-.74-4.21-5.87,0-19.33-1.28-23.89,0-7.05,1.98,7.05,9.74,11.21,6.74v11.83c-5.82-.34-15.56,1.86-19.5-4.14-4.09-6.22-3.74-21.93,3.09-25.38,2.9-1.47,33.56-1.62,35.84-.05,1.39.96,4.25,8.2,4.45,10.31.62,6.44-3.98,10.15-3.98,13.35ZM1137.98,688.5c1.02,1.36-2.59,12.23,4.49,11.84-.12,2.81-5.2,5.2-5.96,2.26-.4-1.54-3.31-20.48,1.48-14.1ZM1140.97,742.49h-4.47c.03-6.19,4.44-6.19,4.47,0ZM1135.01,680.07h1.47v5.05h-1.47v-5.05ZM1133.52,705.38c6.22,3.75,4.08,10.66,2.96,16.87-3.51-.8-.3-7.55-.75-10.33-.33-2.06-2.98-3.63-2.21-6.54ZM1135.75,730.69v-1.69c.97.56.97,1.12,0,1.69ZM1132.76,723.94c.97.56.97,1.12,0,1.69v-1.69ZM1117.07,676.7v3.37s-2.97-2.54-2.97-2.54l2.97-.83ZM1117.07,739.13l2.98-5.07,1.53,6.74,2.97-2.57c4.72-.89,1.47,5.24,1.73,5.73.68,1.25,7.78,1.78,1.27,5.93-7.63,4.87-20.3-3.27-1.52-4.86-2.65-4.77-13.66,1.46-14.91-3.4-1.43-5.54,2.84-6.81,5.95-2.51ZM1125.29,756c7.94,0,8.69-9.66,13.65-11.57,3.92-1.51,4.84,3.05,4.79,7.38-.13,10.44-8.05,18.77-17.05,19.26-.76.04.17-2.98-2.77-3.4-4.19-.6-27.8,1.62-29.23.13-.88-.92,1.49-3.96,1.49-4.21v-29.53h7.47s0,21.94,0,21.94h21.65ZM1108.12,732.38c.16.18.59,4.97-.73,5.05-4.21-2.66-1.57-7.6.73-5.05ZM1108.12,712.12c-1.08,1.03-31.07,2.41-18.93-7.04,1.12-.88,11.08-5.46,8.48-8.13-1.11-1.14-5.98,3.12-8.32,3.39-5.88.67-13.05-4.08-4.41-5.9,2.48-.52,17.83-1.37,18.57-.72.18.16,1.38,3.99.98,4.95-1.44,3.51-8.41,4.64-9.79,8.38,1.26-1.28,17.77.93,13.42,5.07ZM1086.15,684.66c1.45,1.7,5.52-1.95,4.04,5.52-.35.44-6.79-4.15-7.44-5.93-1.04-2.83,2.03-3.42,2.95-2.48.15.15-.35,1.94.45,2.88ZM1093.2,685.13c6.41,3.65,11.89-6.31,10.46,3.36l-10.46,1.69v-5.05ZM1106.62,644.63c.14.19.17,4.88,0,5.05-.21.24-5.75.24-5.96,0-2.46-2.81,5.66-5.45,5.95-5.05ZM1105.88,656.44v-1.69c.97.56.97,1.12,0,1.69ZM1106.62,661.51c.16.19.75,5.34-.98,5.04l-15.44,1.69c-.13-3.98,15.78-7.47,16.42-6.73ZM1087.21,666.56l.81,5.18,20.09-1.79-1.5,10.12c-5.67-1.37-11.46-1.84-17.16-2.69-1.09-.16-2.29-1.86-2.98-1.8-1.43.14-3.11,3.62-3.72,2.79-2.83-3.87-1.15-12.33,4.46-11.82ZM1085.8,608.33c-.63,2.61.77,3-3.06,2.54l-1.49-15.18h5.96c.41.44-1.13,11.48-1.41,12.64ZM1084.24,582.17v-1.66h2.97v1.66h-2.97ZM1086.47,585.56v-1.69c.97.56.97,1.12,0,1.69ZM1084.24,556.87c-1.63-1.84,1.34-5.2,2.97-3.36,1.63,1.84-1.34,5.2-2.97,3.36ZM1085.72,573.76c1.63,1.84-1.34,5.2-2.97,3.36-1.63-1.84,1.34-5.2,2.97-3.36ZM1085.73,592.3v-3.37s2.98,3.36,2.98,3.36h-2.98ZM1078.26,534.92c.85-3.82,2.16-2.27,4.09-2.25,6.82.07,12.57,4.4,10.85-6.16l-7.47-1.68c2.55-.11,8.5-.12,10.08,2.09.58.81,2.15,7.75,1.86,8.01-2.59,2.31-15.74,2.04-19.42,0ZM1097.67,570.39c-3.36,8.76-8.28,1.89-3.72,0,.9-.37,2.54.15,3.72,0ZM1090.21,556.87c-1.63-1.84,1.34-5.2,2.97-3.36,1.63,1.84-1.34,5.2-2.97,3.36ZM1091.7,599.05c-.27-.29,1.39-7.94,1.67-8.21.53-.51,5.57-.44,5.78-.21,1.63,1.75-4.5,11.67-7.45,8.42ZM1102.14,573.75l-2.97-2.54,2.97-.83v3.37ZM1106.62,526.49h-1.47v-3.36h1.47v3.36ZM1109.6,533.26v6.74c-5.12-.73-.67-8.42,0-6.74ZM1108.14,575.44v-3.37s2.97,0,2.97,0l-2.97,3.36ZM1112.59,566.99h-1.47v-3.36h1.47v3.36ZM1114.84,519.75v-1.69c.97.56.97,1.12,0,1.69ZM1114.84,499.5v-1.69c.97.56.97,1.12,0,1.69ZM1120.06,575.43h-2.98c2.38-4.26-2.37-7.73,2.98-6.73v6.73ZM1127.52,555.19l-2.97-2.54,2.97-.83v3.37ZM1124.56,514.68v-5.05h1.47v5.05h-1.47ZM1121.57,491.06c1.54,7.58-6.75,7.64-6.72.01-2.94,1.51-.6,7.44-4.4,6.65-5.01-1.03-3.34-5.56-4.03-6.32-.87-.96-10.45-3.19-10.24,1.32,8.83.6,5.05,11.52,1.51,8.46-.23-.2-.47-4.36-1.36-5.68-1.28-1.9-6.61-.83-6.16-6.13-2.18,3.36-5.85,1.59-7.39,2.51-2.07,1.23-2.04,3.65-2.95,4.82-3.93,5.01-6.88-3.25-3.44-3.97,2.57-.54,4.01,1.63,3.36-3.36-6.63,3.92-2.25-2.25-7.45-1.68l1.47,8.39c-6.82-.27-7.09,9.11-13.41,1.72,1.43,11.26-6.82,9.07-4.33.99.59-1.91,3.23-2.12,3.82-3.21,2.27-4.22,2.58-11.29,8.66-11.41,1.3-.02-.17,6.25,3.07,1.82.01-3.6-2.56-9.88,1.47-11.81,7.57-3.63-.87,9.18,5.21,6.73l.02-8.43c7.26,12.43,9.49-3.22,11.19-3.35,3.88-.3.53,14.25.94,14.86.26.39,2.19.88,3.34,2.18.6.69,1.43,4.89,2.42,3.16.25-.43-.32-2.05.27-2.86.36-.49,7.01,2.44,2.72-8.93-6.22,8.22-8.06-5.22-4.51-7.69,3.35,1.52,7.22-1.1,9.58-.85,1.01.1.84,2.69,1.26,2.97,4.54,3.04,10.06-2.88,10.86-2.84,3.96.23-.04,9.11.75,10.09.31.38,4.23-3.28,8.31,1.6,1.92,2.29,1.67,5.54,2.54,6.48.98,1.06,6.48.05,5.56,7.1-4.5,1.29-2.36-2.5-2.99-3.37-.34-.46-4.98,6.58-8.93,0ZM1136.48,561.93h-1.47v-3.36h1.47v3.36ZM1136.48,555.18h-1.47v-3.36h1.47v3.36ZM1132.65,511.42c-3.02,9.87-4.9-2.77-3.61-3.49.27-.15,2.18,1.81,2.72,1.27.44-.44.14-2.95.9-2.82.65.11,5.07,1.45,5.25,1.68,2.4,3.08-1.22,7.48-5.26,3.36ZM1145.46,516.38h1.47v5.05h-1.47v-5.05ZM1148.43,541.68c-5.39,1.47-2-5.44-2.99-6.74-.72-.94-6.82,13.62-5.97-1.68h8.97s-.01,8.42-.01,8.42ZM1152.92,501.2l-2.97,3.36v-3.37s2.97,0,2.97,0ZM1152.17,512.97c-3.27-2.59-2.87-5.2.73-6.72l1.48,4.22-2.21,2.5ZM1160.38,551.82c2.26,2.61-2.12,5.59-4.47.83.07-1.49,4.31-1.01,4.47-.83ZM1155.9,526.49c-.84-.76,3.24-4.76,4.47-3.35,2.37,2.71-2.78,4.87-4.47,3.35ZM1206.66,526.48h-2.97v-1.66h2.97v1.66ZM1206.65,513.82c-9.41,4.85-7.06-6.77,3.01-4.18-.22,1.41-2.02,3.67-3.01,4.18ZM1212.67,513.84c.1-4.28,10.15-5.08,11.91-2.51,3.31,4.83-12.02,7.11-11.91,2.51Z"/>
  <path d="M764.7,885.1c.21,2.35,1.04,7.74,2.22,9.3,1.6,2.11,7.09,2.86,8.39.69,1.24-2.07,2.67-11.86,2.88-14.98,2.01-29.71,2.04-80.13,0-109.82-.23-3.4-1.69-13.47-3.38-15.6-3.81-4.81-10.94,2.99-10.15,8.88,2.62,38.92-3.4,83.3.03,121.54Z"/>
  <path d="M1135.72,787.99c-4.31.08-7.82,1.62-11.85,1.83-3.55.19-20.93-.93-21.71-.07-.27.3,1.23,6.55,1.49,6.74,2.11,1.63,31.88-1.23,37.33,0-.09-8.35,2.02-8.64-5.25-8.51Z"/>
  <path d="M1121.25,836.58c.43-.24.36-2.18.68-2.4,5.39-3.58,4.12,4.97,7.85,7.85l5.23-13.47h-31.36c.87,5.05,15.35,9.29,17.6,8.01Z"/>
  <path d="M1103.64,872.41c1.76,1.35,11.99,2.13,14.84,5.07l4.57-10.09h-19.42c.15,1.17-.23,4.84,0,5.02Z"/>
  <path d="M1154.4,577.13c-3.13-.37-.7,5.65-1.48,6.74-3.33,4.6-2.09-8.44-5.97-5.05,2.7,4.39-1.56,8.84,2.25,11.79l.75-5.05c4.74,2.75,1.77,13.02,2.99,18.56,3.64-.97,1.83-2.9,1.95-4.72.5-7.71,1.56-14.75-.48-22.27Z"/>
  <path d="M731.86,894.37c7.01,4.58,4.04-12.19,2.97-13.5-3.48-4.24-2.86,6.9-2.68,7.66.18.76,5.18,1.03,2.68,4.17-.39.49-4.02-4.4-2.97,1.66Z"/>
  <path d="M1140.97,641.27l-5.96-1.7c-.71,7.38.04,12.57,5,5.07.47-.71,2.26-1.48.96-3.37Z"/>
  <path d="M1121.58,615.94c4.66-1.05.4-7.87-.77-10.1l.77,10.1Z"/>
  <path d="M1136.51,571.24c-1.77,5.64,7.71.75,5.96-.85-1.35-1.24-5.15-1.72-5.96.85Z"/>
  <path d="M1124.56,606.64c.31.97,3.18,3.87,4.45,4.24,1.78-6.44-6.01-9.15-4.45-4.24Z"/>
  <path d="M1144.71,653.06l.73-6.73c-4.61-1.19-3.91,3.96-.73,6.73Z"/>
  <path d="M733.44,911.16c.36.48,1.79-.23,2.52.15l-1.14-5.11c.41,1.35-1.76,4.47-1.38,4.97Z"/>
  <path d="M735.97,911.3l.36,1.62c.2-.99,0-1.43-.36-1.62Z"/>
  <path d="M736.32,899.44c-.44-.56-1.33.97-2.23.98-.8,0-1.99-1.21-2.23-.99-.17.16-.16,4.88,0,5.07,1.39,1.66,6.01-3.11,4.46-5.05Z"/>
  <rect x="1152.93" y="609.19" width="1.47" height="10.11"/>
  <path d="M691.53,563.62c.16-.18.16-4.87,0-5.05-3.97-4.44-3.97,9.49,0,5.05Z"/>
  <path d="M1149.92,610.87c.16-.18.21-4.49,0-5.05-1.2-3.03-4.77,10.39,0,5.05Z"/>
  <rect x="685.58" y="622.69" width="1.47" height="6.74"/>
  <path d="M1096.18,626.05c1.63,1.84,4.6-1.52,2.97-3.36-1.63-1.84-4.6,1.52-2.97,3.36Z"/>
  <path d="M1118.58,659.8c1.63,1.84,4.6-1.52,2.97-3.36-1.63-1.84-4.6,1.52-2.97,3.36Z"/>
  <polygon points="780.39 951.74 781.12 948.38 778.14 948.39 780.39 951.74"/>
  <rect x="1152.93" y="624.38" width="1.47" height="5.05"/>
  <polygon points="1100.67 626.06 1103.64 622.7 1100.66 622.7 1100.67 626.06"/>
  <rect x="1126.05" y="619.33" width="2.97" height="1.66"/>
  <rect x="1090.21" y="624.39" width="2.97" height="1.66"/>
  <path d="M1146.96,627.74h1.47l.77-5.03c-1.61,1.51-2.73,2.55-2.24,5.03Z"/>
  <rect x="1129.04" y="590.63" width="1.47" height="3.36"/>
  <rect x="1142.48" y="641.26" width="1.47" height="3.36"/>
  <path d="M1118.58,651.39v1.66c2.19.55,3.11-.71,4.45-2.53l-4.45.87Z"/>
  <rect x="685.57" y="653.08" width="2.97" height="1.66"/>
  <rect x="1143.97" y="681.76" width="1.47" height="3.36"/>
  <rect x="724.4" y="909.57" width="1.47" height="3.36"/>
  <rect x="724.4" y="899.45" width="1.47" height="3.36"/>
  <rect x="722.91" y="891.01" width="1.47" height="3.36"/>
  <rect x="1105.14" y="783.02" width="2.97" height="1.66"/>
  <rect x="694.54" y="756.01" width="1.47" height="3.36"/>
  <path d="M696.76,766.12v1.69c.97-.56.97-1.12,0-1.69Z"/>
  <path d="M702.74,815.06v1.69c.97-.56.97-1.12,0-1.69Z"/>
  <path d="M711.7,833.62v1.69c.97-.56.97-1.12,0-1.69Z"/>
  <path d="M1125.29,842.06c.97-.56.97-1.12,0-1.69v1.69Z"/>
  <path d="M704.23,882.56v1.69c.97-.56.97-1.12,0-1.69Z"/>
  <path d="M719.16,882.56v1.69c.97-.56.97-1.12,0-1.69Z"/>
  <path d="M723.64,882.56v1.69c.97-.56.97-1.12,0-1.69Z"/>
  <path d="M723.64,887.62c.97-.56.97-1.12,0-1.69v1.69Z"/>
  <path d="M719.16,892.69c.97-.56.97-1.12,0-1.69v1.69Z"/>
  <path d="M719.16,902.81c.97-.56.97-1.12,0-1.69v1.69Z"/>
  <path d="M1222.35,543.37v1.69c.97-.56.97-1.12,0-1.69Z"/>
  <path d="M689.3,550.12v1.69c.97-.56.97-1.12,0-1.69Z"/>
  <path d="M690.79,656.44v1.69c.97-.56.97-1.12,0-1.69Z"/>
  <path d="M687.8,658.12c.97-.56.97-1.12,0-1.69v1.69Z"/>
  <path d="M690.79,653.06v1.69c.97-.56.97-1.12,0-1.69Z"/>
  <path d="M1135.75,653.06c.97-.56.97-1.12,0-1.69v1.69Z"/>
  <path d="M1138.73,651.37c.97-.56.97-1.12,0-1.69v1.69Z"/>
  <path d="M690.79,648v1.69c.97-.56.97-1.12,0-1.69Z"/>
  <path d="M690.79,637.87v1.69c.97-.56.97-1.12,0-1.69Z"/>
  <path d="M750.52,1036.12v1.69c.97-.56.97-1.12,0-1.69Z"/>
  <path d="M1126.79,588.94v1.69c.97-.56.97-1.12,0-1.69Z"/>
  <path d="M687.8,590.62v1.69c.97-.56.97-1.12,0-1.69Z"/>
  <path d="M690.79,627.75v1.69c.97-.56.97-1.12,0-1.69Z"/>
  <path d="M747.53,1054.69v1.69c.97-.56.97-1.12,0-1.69Z"/>
  <path d="M690.79,624.37v1.69c.97-.56.97-1.12,0-1.69Z"/>
  <path d="M1119.32,604.12c.97-.56.97-1.12,0-1.69v1.69Z"/>
  <path d="M686.31,607.5v1.69c.97-.56.97-1.12,0-1.69Z"/>
  <path d="M1107.38,614.25c.97-.56.97-1.12,0-1.69v1.69Z"/>
  <path d="M1131.27,612.56c.97-.56.97-1.12,0-1.69v1.69Z"/>
  <path d="M1054.31,194.98c.79,32.02,40.55,36.74,46.01,4.61,3.65-21.53-.25-40.95.27-62.13.63-25.75,4.97-61.41-1.19-86.26-3.03-12.25-15.03-20.69-25.99-18.77-10.58,1.85-17.71,12.77-18.88,24.28-4.4,43.03,3.01,94.34-.22,138.27Z"/>
  <polygon points="982.71 504.55 988.66 502.86 988.66 501.2 982.71 502.89 982.71 504.55"/>
  <rect x="990.17" y="499.52" width="2.97" height="1.66"/>
  <rect x="902.08" y="496.13" width="1.47" height="3.36"/>
  <path d="M1207.42,497.81c.97-.56.97-1.12,0-1.69v1.69Z"/>
  <path d="M980.46,506.25c.97-.56.97-1.12,0-1.69v1.69Z"/>
  <path d="M859.52,261.56c.97-.56.97-1.12,0-1.69v1.69Z"/>
  <path d="M977.47,507.94c.97-.56.97-1.12,0-1.69v1.69Z"/>
  <rect x="687.07" y="499.51" width="1.47" height="6.74"/>
  <path d="M686.31,477.56c.97-.56.97-1.12,0-1.69v1.69Z"/>
  <path d="M689.3,477.56c.97-.56.97-1.12,0-1.69v1.69Z"/>
  <polygon points="861.76 804.94 878.19 804.08 861.76 774.56 861.76 804.94"/>
  <path d="M973.81,636.76c.34-1.43.53-18.48-.08-19.15-.15-.17-4.15-.02-4.29.17-1.73,2.41-.86,20.84-.17,21.78.16.22,4.32-1.89,4.54-2.8Z"/>
  <polygon points="1000.63 717.19 1015.54 703.7 1002.1 703.68 1000.63 717.19"/>
  <path d="M978.23,639.55l2.54-4.68c-.62-5.97,2.64-9.42.42-15.57-3.14-.14-2.83-.76-2.98,2.51-.26,5.88.18,11.86.02,17.74Z"/>
  <polygon points="1003.62 653.06 1014.05 644.64 1003.61 642.94 1003.62 653.06"/>
  <path d="M905.06,572.07c-.05,15.74,11.37,3.82,7.46-.01-.28-.28-5.78,1.39-7.46.01Z"/>
  <path d="M900.59,587.25c3-.66,2-2.48,2.19-4.5.15-1.66,1.09-10.26.78-10.67-4.33-5.85-4.04,14.63-2.97,15.18Z"/>
  <path d="M970.77,781.31c.08,3.63-.17,7.34-.01,10.98.09,2.06-1.14,6.27,1.48,5.88-1.72-5.28,3.97-14.18-1.47-16.87Z"/>
  <path d="M854.29,568.68c2.11,2.34,9.22-1.44,5.97-5.05-2.11-2.34-9.22,1.44-5.97,5.05Z"/>
  <path d="M931.91,588.94c-3.91-3.43-2.28,7.85-2.96,8.43,5.52,1.14,4.32-7.24,2.96-8.43Z"/>
  <path d="M971.48,648.01c-4.82-2.07-2.04,11.57,2.25,6.73.9-1.02-.31-5.9-2.25-6.73Z"/>
  <path d="M969.27,646.3c2.37,2.68,6.83-2.37,4.47-5.05-2.37-2.68-6.83,2.37-4.47,5.05Z"/>
  <polygon points="963.29 674.99 966.27 674.99 966.27 666.57 963.29 666.57 963.29 674.99"/>
  <path d="M920.71,653.06c-1.69.14-4.1-1.13-3.7,1.67,2.71-.11,5.51.23,8.23.02,1.69-.14,4.1,1.13,3.7-1.67-2.71.11-5.51-.23-8.23-.02Z"/>
  <rect x="928.95" y="572.07" width="2.97" height="6.73"/>
  <polygon points="963.29 647.98 966.27 647.99 966.27 641.26 963.29 641.26 963.29 647.98"/>
  <path d="M966.27,629.43c.16-.18.16-4.87,0-5.05-3.97-4.44-3.97,9.49,0,5.05Z"/>
  <polygon points="964.8 656.43 966.26 656.43 966.27 649.7 963.29 649.7 964.8 656.43"/>
  <path d="M969.27,659.82v5.05s4.47-1.7,4.47-1.7c.73-.66-2.61-4.45-4.47-3.35Z"/>
  <polygon points="964.77 615.95 963.3 615.94 963.3 622.68 966.27 622.68 964.77 615.95"/>
  <path d="M981.2,646.3c.16-.18.16-4.87,0-5.05-3.97-4.44-3.97,9.49,0,5.05Z"/>
  <path d="M963.3,634.49c1.63,1.84,4.6-1.52,2.97-3.36-1.63-1.84-4.6,1.52-2.97,3.36Z"/>
  <polygon points="901.33 558.57 899.11 561.09 902.06 563.62 901.33 558.57"/>
  <polygon points="948.38 662.34 951.33 664.87 950.6 659.82 948.38 662.34"/>
  <polygon points="963.31 662.34 966.26 664.87 965.53 659.82 963.31 662.34"/>
  <polygon points="971.51 681.76 969.29 684.28 972.23 686.81 971.51 681.76"/>
  <polygon points="972.23 666.56 969.27 669.1 972.24 669.93 972.23 666.56"/>
  <rect x="894.62" y="563.63" width="1.47" height="5.05"/>
  <polygon points="900.58 568.68 903.56 568.67 900.59 565.31 900.58 568.68"/>
  <rect x="894.62" y="573.76" width="1.47" height="5.05"/>
  <polygon points="970.77 776.25 973.74 772.89 970.76 772.88 970.77 776.25"/>
  <rect x="915.52" y="583.88" width="1.47" height="5.05"/>
  <rect x="940.9" y="583.88" width="1.47" height="5.05"/>
  <polygon points="966.27 609.2 963.3 609.2 963.3 612.56 966.27 609.2"/>
  <rect x="978.23" y="610.89" width="2.97" height="1.66"/>
  <rect x="970.76" y="610.89" width="2.97" height="1.66"/>
  <rect x="940.9" y="607.52" width="2.97" height="1.66"/>
  <rect x="915.52" y="592.32" width="1.47" height="3.36"/>
  <rect x="963.3" y="636.2" width="2.97" height="1.66"/>
  <rect x="928.95" y="585.58" width="2.97" height="1.66"/>
  <rect x="940.9" y="575.45" width="1.47" height="3.36"/>
  <rect x="933.44" y="575.45" width="1.47" height="3.36"/>
  <rect x="866.25" y="572.07" width="1.47" height="3.36"/>
  <rect x="915.51" y="563.64" width="2.97" height="1.66"/>
  <rect x="997.64" y="550.14" width="2.97" height="1.66"/>
  <rect x="949.86" y="666.57" width="1.47" height="3.36"/>
  <rect x="996.14" y="666.58" width="2.97" height="1.66"/>
  <rect x="949.86" y="671.63" width="1.47" height="3.36"/>
  <rect x="978.23" y="671.64" width="2.97" height="1.66"/>
  <rect x="981.22" y="681.76" width="1.47" height="3.36"/>
  <rect x="949.86" y="683.45" width="1.47" height="3.36"/>
  <rect x="917.01" y="712.13" width="1.47" height="3.36"/>
  <path d="M917.75,742.5v1.69c.97-.56.97-1.12,0-1.69Z"/>
  <path d="M971.5,769.5c.97-.56.97-1.12,0-1.69v1.69Z"/>
  <path d="M946.12,772.87v1.69c.97-.56.97-1.12,0-1.69Z"/>
  <path d="M946.12,788.06v1.69c.97-.56.97-1.12,0-1.69Z"/>
  <path d="M902.82,727.31v1.69c.97-.56.97-1.12,0-1.69Z"/>
  <path d="M944.62,708.75v1.69c.97-.56.97-1.12,0-1.69Z"/>
  <path d="M970.01,702v1.69c.97-.56.97-1.12,0-1.69Z"/>
  <path d="M970.01,696.94c.97-.56.97-1.12,0-1.69v1.69Z"/>
  <path d="M919.24,690.19v1.69c.97-.56.97-1.12,0-1.69Z"/>
  <path d="M943.13,683.44v1.69c.97-.56.97-1.12,0-1.69Z"/>
  <path d="M992.4,681.75v1.69c.97-.56.97-1.12,0-1.69Z"/>
  <path d="M943.13,673.31v1.69c.97-.56.97-1.12,0-1.69Z"/>
  <path d="M898.34,673.31v1.69c.97-.56.97-1.12,0-1.69Z"/>
  <path d="M971.5,673.31c.97-.56.97-1.12,0-1.69v1.69Z"/>
  <path d="M993.9,666.56v1.69c.97-.56.97-1.12,0-1.69Z"/>
  <path d="M980.46,668.25c.97-.56.97-1.12,0-1.69v1.69Z"/>
  <path d="M898.34,666.56v1.69c.97-.56.97-1.12,0-1.69Z"/>
  <path d="M978.97,663.19v1.69c.97-.56.97-1.12,0-1.69Z"/>
  <path d="M998.38,661.5v1.69c.97-.56.97-1.12,0-1.69Z"/>
  <path d="M898.34,659.81v1.69c.97-.56.97-1.12,0-1.69Z"/>
  <path d="M887.89,659.81v1.69c.97-.56.97-1.12,0-1.69Z"/>
  <path d="M850.56,550.12v1.69c.97-.56.97-1.12,0-1.69Z"/>
  <path d="M932.68,654.75v1.69c.97-.56.97-1.12,0-1.69Z"/>
  <path d="M895.35,560.25v1.69c.97-.56.97-1.12,0-1.69Z"/>
  <path d="M950.6,653.06v1.69c.97-.56.97-1.12,0-1.69Z"/>
  <path d="M922.23,563.62v1.69c.97-.56.97-1.12,0-1.69Z"/>
  <path d="M978.97,649.69v1.69c.97-.56.97-1.12,0-1.69Z"/>
  <path d="M941.64,565.31v1.69c.97-.56.97-1.12,0-1.69Z"/>
  <path d="M934.17,570.37v1.69c.97-.56.97-1.12,0-1.69Z"/>
  <path d="M934.17,646.31v1.69c.97-.56.97-1.12,0-1.69Z"/>
  <path d="M996.88,642.94v1.69c.97-.56.97-1.12,0-1.69Z"/>
  <path d="M950.6,642.94v1.69c.97-.56.97-1.12,0-1.69Z"/>
  <path d="M925.21,577.12v1.69c.97-.56.97-1.12,0-1.69Z"/>
  <path d="M895.35,580.5v1.69c.97-.56.97-1.12,0-1.69Z"/>
  <path d="M901.32,588.94v1.69c.97-.56.97-1.12,0-1.69Z"/>
  <path d="M956.57,634.5v1.69c.97-.56.97-1.12,0-1.69Z"/>
  <path d="M950.6,634.5v1.69c.97-.56.97-1.12,0-1.69Z"/>
  <path d="M901.32,594v1.69c.97-.56.97-1.12,0-1.69Z"/>
  <path d="M919.24,594v1.69c.97-.56.97-1.12,0-1.69Z"/>
  <path d="M941.64,595.69v1.69c.97-.56.97-1.12,0-1.69Z"/>
  <path d="M950.6,627.75v1.69c.97-.56.97-1.12,0-1.69Z"/>
  <path d="M956.57,626.06v1.69c.97-.56.97-1.12,0-1.69Z"/>
  <path d="M928.2,624.37v1.69c.97-.56.97-1.12,0-1.69Z"/>
  <path d="M931.19,599.06v1.69c.97-.56.97-1.12,0-1.69Z"/>
  <path d="M901.32,600.75v1.69c.97-.56.97-1.12,0-1.69Z"/>
  <path d="M916.25,602.44c.97-.56.97-1.12,0-1.69v1.69Z"/>
  <path d="M996.88,621v1.69c.97-.56.97-1.12,0-1.69Z"/>
  <path d="M949.1,621v1.69c.97-.56.97-1.12,0-1.69Z"/>
  <path d="M941.64,604.12v1.69c.97-.56.97-1.12,0-1.69Z"/>
  <path d="M896.84,615.94v1.69c.97-.56.97-1.12,0-1.69Z"/>
  <path d="M934.17,607.5v1.69c.97-.56.97-1.12,0-1.69Z"/>
  <path d="M916.25,614.25v1.69c.97-.56.97-1.12,0-1.69Z"/>
  <path d="M1117.1,491.05h1.46s-.73-6.73-.73-6.73c-3.24,2.41-1.2,3.16-.74,6.73Z"/>
  <polygon points="1106.61 485.14 1108.11 485.99 1109.6 477.57 1108.14 477.57 1106.61 485.14"/>
  <path d="M1056.74,875.95c5.43,4.51,19.08-2.13,26-.14v-5.06h-26.88c.21,1.92-.87,3.74.88,5.2Z"/>
  <path d="M1004.37,882.57c-6.35,1.63,1.02,12.62,5.2,8.42,1.42-1.43-2.02-9.24-5.2-8.42Z"/>
  <path d="M1071.54,739.12v1.69c.97-.56.97-1.12,0-1.69Z"/>
  <path d="M1020.77,831.94v1.69c.97-.56.97-1.12,0-1.69Z"/>
  <path d="M1104.41,307.06c1.94-.09,7.88.38,8.18.06,4.26-4.45-8.29-5.04-10.45-3.36-.08,3.34-.75,3.43,2.27,3.3Z"/>
  <path d="M1119.37,337.53c1.74-.58,4.31-.35,2.18-3.39-.65-.92-20.63-2.36-19.4,4.18.92,4.88,14.44.13,17.22-.79Z"/>
  <path d="M1143.95,332.45c-2.4-2.68-4.31,3.14-2.97,5.05.67.95,4.21-3.66,2.97-5.05Z"/>
  <path d="M984.94,840.37v1.69c.97-.56.97-1.12,0-1.69Z"/>
</svg>