<?xml version="1.0" encoding="UTF-8"?>
<svg id="Layer_1" xmlns="http://www.w3.org/2000/svg" version="1.1" viewBox="0 0 1920 1080">
  <!-- Generator: Adobe Illustrator 29.5.1, SVG Export Plug-In . SVG Version: 2.1.0 Build 141)  -->
  <defs>
    <style>
      .st0 {
        fill: #fff;
      }
    </style>
  </defs>
  <text/>
  <g id="doaL8L.tif">
    <g>
      <path class="st0" d="M566.13,552.3l-1.59-1.74,1.59,1.74Z"/>
      <path class="st0" d="M699.76,984.96v3.48c-.42-.46-3.33.99-3.19-.89-.49-3.15.43-2.83,3.19-2.59Z"/>
      <polygon class="st0" points="688.62 951.94 690.21 955.4 687.84 955.43 687.03 951.94 688.62 951.94"/>
      <path class="st0" d="M706.12,990.17c.4,2.25.29,3.73,2.39,5.21l2.36-3.46c.53,2.24-1.09,3.63-1.58,5.2-7.24-1.3-6.28-5.18-7.95-6.95,1.55.15,3.25-.23,4.77,0Z"/>
      <path class="st0" d="M496.13,705.2c-3.88-1.57-6.94-2.28-11.15-1.73l.02-81.68,4.73.9-4.74-16.51,5.37,3.48c3.12-1.18,7.83-.64,7.38-5.22l6.32,8.67-3.17-6.93,4.76-1.74c-4.98.35-6.64-1.67-6.42-6.93-3.58-3.56-9.56,11.78-14.12,4.2,1.98-14.32-3.36-94.21,1.73-99.42.33-.34,3.39,1.7,4.47-1.24l-6.44-3.67c.35-36.19-1.06-72.53,3.3-108.4l3.98,6.93,5.53-3.46,2.43,6.94,4.75-6.9,3.31,5.31c2.31.42,5.22-1.34,6.23-3.61.51-1.15.8-16.74.51-17.88-.77-3.06-4.73-3.56-4.52-8.88.38-9.47,16.84-10.26,6.34-23.6l-7.87,2.6c1.46-1.96,6.52-18.45,9.5-14.78-1.5,9.11,1.89,18.89,11.05,19.01l3.29-12.07c3.1-1.02,4.03,2.73,5.58,3.46,5.61,2.67.59-19.28-5.62-12.98,3.18,6.37-1.03,10.03-4.75,5.19-1.89-2.47-1.19-5.6-2.46-7.73-1.48-2.48-6.43-2.89-5.65-8.69l-9.37-.11c2.24,9.12-4.23,8.91-6.39,15.64-2.53.49-1.7-2.3-1.25-3.96.76-2.81,10.07-23.69,12.4-22.09l3.19,3.47-3.06-7.64c23.16-37.29,64.34-60.41,104.87-65.33-.21,4.94-.09,11.48,4.77,13.9l-1.57-13.9h45.34c10.85,0,39.89,10.67,50.18,16.43,54.65,30.63,77.43,90.05,81.05,154.73,6.75,120.76-5.1,248.68.11,370.19l-3.27,7.68,4.74,2.66-4.76,3.44,4.78.9-3.19,2.61,3.2,6.03-4.78,4.28,4.78,9.64c-13.25,3.12-3.52,4.97-2.38,6.89,2.51,4.24.05,52.81-.99,61.56-5.57,46.7-28.77,94.13-66.11,118.93-5.33,3.54-18.07,10.78-23.77,12.29-3.61.96-1.44-.95-1.67-1.54-.67-1.74-2.49-5.01-.55-6.12l22.29-4.34-13.37-3.47-2.51,3.49-.03-5.2-4.75,3.46c-.61-2.37,1.1-3.64,1.58-5.2,3.31.6,10.73,1.43,9.54-3.48l2.39,1.39,1.5-2.95c1.69,1.64,4,1.05,5.65,1.56v-3.47s3.17,0,3.17,0v3.46s-3.17,0-3.17,0c.43.13,2.31,2.97,4.76,1.75v1.72s-3.16,0-3.16,0c-.45,3.63-.15,3.94,3.17,3.46.22-.97-.25-3.23,0-3.47.45-.42,2.87-.23,3.99-1.64,5.52-6.87,3.93-7.41-1.4-12.23-1.9-1.71,2.08-6.24,3.13.1l11.77-1.89-1.77-4.99c-3.58,2.56-2.3-.72-4.27-1.81-2.43-1.35-5.46,1.25-7.49-5.34l-.65,5.04,6.21,3.63-12.73-.9c-4.1,2.87,3.03,7.1,1.6,11.32-4.85,1.16-8.34,1.15-12.71-1.72l-.02,6.95c-4.32-3.86-8.11-2.79-12.73-3.48-1.11-6.15,3.89-6.25,7.94-8.69l-1.57,6.93h4.77s.3-6.61.3-6.61l9.21-2.93c-4.69-9.12-14.85-3.42-18.12-4.62-2.76-1.02-1.4-5.28-4.11-4.93.47,5.41.93,11.04-.04,16.45-.47,2.61.75,3.37-3.16,2.65-.02-1.68-.47-2.41-1.59-3.48-1.69-1.61-1.83-2.41-4.77-1.75l-1.57,5.21-3.21-6.92,6.35-3.48-8.51,1.81c-2.39-6.7-5.78-4.47-2.61,1.65l-3.16-.02-.95-3.52-3.08,1.77-.78-5.18c-6.26-1.06-.03,7.29-7.14,5.21l-5.59-13.91-3.8,1.76c-1.68-5.6-7.26-1.86-12.09-3.49l13.53-5.16-.02,5.17,4-6.06-4.78-1.75,3.96-2.62c2.45,9.16,11.58,1.13,7.17,10.41l3.97-3.46,2.62,5.05c4.63-1.04,8.01-2.91,12.49.18l.03-5.24c3.95,4.29,7.8,1.87,12.7,3.47v-10.42s-4.75,1.74-4.75,1.74v-6.94s-4.78,0-4.78,0l3.17,8.67c-3.78-3.91-4.96-4.03-9.53-5.21-1.45-.37-.17-.38-1.59,0-6.01,1.6-1.81,5.01-3.98,5.23l-5.56-5.22-.79,6.92-11.94-9.55c3.31-1.66,3.73-1.52,3.16-6.07l-9.52,5.2,7.28-17.23c4.79-5.13,8.15-9.56,7.04-17.51l-7.78.2-1.79,8.48c-5.91.58-1.54-9.27-9.52-6.93l1.52,4.98-7.05,3.73c-3.26-8.9-11.1-10.25-13.73-.1l-4.6-1.68-1.58,6.94-4.79-19.09c44.92,15.69,79.38-25.63,77.97-72.99l6.34,12.14c1.51-9.27-3.59-14.34-4.64-21.85-.29-2.07-1.36-16.52-1.24-17.38.18-1.23,6.2-4.05,5.89-7.66l-4.62-.11-1.35-11.29c.35-2.01,13.65-4.65,1.36-6.08.33-5.6-1.49-10.87-1.83-16.34-1.51-24.43.1-54.88-.01-79.92-.39-87.25,5.65-185.51.15-271.22-1.75-27.28-11.53-50.03-36.22-59.48-45.2-17.3-81.57,25.65-81.57,73.46v171.15c-3.72-.85-4.88-6.4-6.89-8.23-1.03-.94-3.78-.13-4.12-.54-1.51-1.82,3.3-12.86-.95-13.82-10.3,6.46-10.32,20.83-26.13,15.51,1.8-2.44-2.58-11.53-4.85-8.55.63,4.93,1.91,12.78-3.17,15.63,1.31-3.54-3.35-17.23-3.17-18.15.27-1.39,7.37-4.07,6.36-8.75l-6.38,4.31,1.6-17.37,11.93,12.15,2.34-6.09c-17.94,2.39-.93-15.56-11.06-22.62l-7.95,2.65-1.63-6.92,7.95,1.7-6.35-16.5,3.99.85.77-3.43c-8.01,1.74-9.52-20.19-12.87-3.55-3.74-1.41-4.81-.68-7.8,1.8l-.26-4.85c-6.61-3.45-10.24.4-9.16,8.17l9.4,4.49c-12.57,7.43-4.87,18.26,7.22,9.94l4.01,7.34-4.84,5.32c7.82,3.57,3.79,7.33,3.14,14.75l-8.72-3.54-1.77,3.66-10.17-1.84c3.27,5.23,9.97,8.8,15.91,8.68l-1.47,4.43,3.06,1.61-4,6.11-1.59-3.54-13.5,5.32c-.89,7.19,8.18,1.5,11.21,5.87,1.32,1.91,3.27,10.12,4,13.15.6,2.5-1,4.58-.87,5.96.05.56,6.85,5.41.03,8.86l-8.82-23.45.89,11.19-3.26.99c-.42,3.36,3.31.43,4.95,2.76,2.85,4.07,2.21,15.75,6.2,20.72l-4.78,8.62,7.93.9c1.56,10.84-10.18,2.1-7.93,12.15l4.45.24,5.09,16.38-4.76,7.72h9.52s-7.93-25.21-7.93-25.21l6.34-.86c-1.75,8.34,1.82,12.57,4,19.11,1.23,3.68-.04,9.26,3.95,10.44l.8-6.94c3.39,1.75.78,5.78,1.22,6.62,1.13,2.16,9.45,7.03,10.27,10.11.47,1.75-1.39,5.96.46,8.44l-3.16.88c-2.6-4.54-3.85-9.24-5.69-13.86-1.06-2.66.29-4.31-3.87-3.49l1.58,19.1c-3.25,1.36-5.72-2.93-7.46-3.18-2.5-.36-4.12,5.28-7.9,0l-3.65,2.4,1.72,11.07,4.58.15-1.6,5.19h4.77c-1.72-3.88-3.14-8.51,1.56-10.41,4.74,9.69,8.13,14.87,6.39,26.06-3.68-2.07-5.2-6.97-9.54-6.94l-.96,7.88,2.48,3.28,8,.99c.2-1.68-.23-3.62.01-5.21,1.38.77,6.74,2.62,7.97.87l-2.87-1.7-3.57-14.11,3.23-3.29-4.75-.88v-8.7s6.33,0,6.33,0c.75,5.14-.36,9.89,6.38,8.68-2.67-3.37-3.28-6.39-.8-10.4l7.16,19.1c-5.76,1.8-5.66-4.88-9.52-6.94.11,5.9-2.74,15.07.44,20.37,1.16,1.94,7.1,2.62,5.9,7.41-5.05,3.04-12.06.54-16.39,1.7-2.15.58-1.62,8.38-7.91,3.56-2.59-1.98-1.44-6.09-6.72-5.3-.75.11-.52,6.26-3.99,2.68l-4.85-18.16-22.16-1.87v-12.14s5.59,1.7,5.59,1.7l.76-3.43c-1.13-1.34-9.26,1.14-7.94-5.22l9.54-.02-1.13-2.64,5.89.9-3.17-3.46h3.18s-2.4-3.47-2.4-3.47l-.79,3.47Z"/>
      <path class="st0" d="M613.83,243.01c-7.48.27-3.68,10.21,1.6,10.42l-1.6-10.42Z"/>
      <path class="st0" d="M664.74,243.01c-1.34-1.01-5.7.32-6.28,2.77-.78,3.29,2.39,6.18,2.78,8.91,3.05,21.37,10.51,26.09,20.06,44.11,1.69,3.18,1.88,6.82,3.51,10.07,1.07,2.13,3.97,8.11,6.98,7.11.42-23.85-23.58-37.47-26.64-60.38-.32-2.41,1.87-10.86-.42-12.58Z"/>
      <polygon class="st0" points="637.71 248.2 634.55 244.75 634.54 248.21 637.71 248.2"/>
      <polygon class="st0" points="653.62 256.89 650.46 253.43 650.45 256.9 653.62 256.89"/>
      <rect class="st0" x="691.82" y="258.66" width="1.56" height="3.46"/>
      <path class="st0" d="M713.28,260.38v1.74c1.03-.58,1.03-1.16,0-1.74Z"/>
      <path class="st0" d="M733.15,326.41c1.03-5.69-1.19-11.02-1.43-16.31-.29-6.44.81-16.02-.1-22.68-.56-4.14-5.42-6.45-6.17-10.94-.86-5.11,4.01-10.47-1.03-14.32l-.79,10.38-6.37.02-.02,2.6c3.95,4.63,1.19,10.5,1.88,13.54.21.93,5.77,12.01,6.01,12.9,1.99,7.45,1.25,19.11,8.03,24.81Z"/>
      <path class="st0" d="M683.83,270.81c.43-3.24.01-6.02-3.15-6.95-.43,3.24-.01,6.02,3.15,6.95Z"/>
      <polygon class="st0" points="693.39 270.8 692.61 265.61 690.23 268.23 690.22 270.8 693.39 270.8"/>
      <path class="st0" d="M707.7,265.61c-4.88-.47-5.16,4.37-4.76,8.67,4.88.47,5.16-4.37,4.76-8.67Z"/>
      <rect class="st0" x="599.54" y="267.35" width="3.17" height="1.7"/>
      <rect class="st0" x="577.28" y="270.82" width="1.56" height="3.46"/>
      <rect class="st0" x="617.05" y="274.29" width="1.56" height="3.46"/>
      <path class="st0" d="M643.28,274.28v1.74c1.03-.58,1.03-1.16,0-1.74Z"/>
      <rect class="st0" x="733.17" y="274.29" width="3.17" height="5.2"/>
      <path class="st0" d="M685.43,276.03c-3.01-.55-5.28,2.03-4.76,5.2h4.76s0-5.2,0-5.2Z"/>
      <polygon class="st0" points="582.03 281.24 578.85 281.25 580.46 286.44 582.02 286.44 582.03 281.24"/>
      <rect class="st0" x="736.35" y="284.72" width="3.17" height="6.93"/>
      <path class="st0" d="M747.5,300.35c3.65-.46,5.44-15.72,2.37-15.6-3.39.13-2.36,12.76-2.37,15.6Z"/>
      <rect class="st0" x="567.73" y="286.46" width="3.17" height="5.2"/>
      <polygon class="st0" points="591.6 291.66 594.73 289.05 592.37 286.46 591.6 291.66"/>
      <path class="st0" d="M647.23,286.45c-4.04-.68-2.47.32-3.31,2.44-3.25,8.2,1.11,5.35,1.64,7.35.21.79-1,2.85-.56,4.22,1.74,5.44,3.66,12.87,8.6,15.52l-6.37-29.53Z"/>
      <polygon class="st0" points="543.85 288.19 540.68 288.19 540.69 293.4 543.84 290.77 543.85 288.19"/>
      <path class="st0" d="M551.01,288.19v1.74c1.03-.58,1.03-1.16,0-1.74Z"/>
      <polygon class="st0" points="712.48 289.93 709.3 289.94 711.7 293.39 712.48 289.93"/>
      <path class="st0" d="M701.36,291.67c-.91,1,1.32,5.17,2.38,5.17,4.4,0,.03-7.79-2.38-5.17Z"/>
      <path class="st0" d="M533.93,295.57c-5.89-7.32-8.85,9.26-3.58,11.72,5.4,2.52,6.75-7.78,3.58-11.72Z"/>
      <polygon class="st0" points="585.21 296.86 584.43 293.41 582.04 296.86 585.21 296.86"/>
      <polygon class="st0" points="596.34 295.14 593.17 295.15 595.57 298.6 596.34 295.14"/>
      <polygon class="st0" points="659.99 295.15 655.22 296 657.6 298.58 659.99 295.15"/>
      <path class="st0" d="M741.12,303.81c-1.29-3.1.74-7.73-3.16-8.67v8.68s3.16,0,3.16,0Z"/>
      <rect class="st0" x="542.27" y="298.62" width="3.17" height="6.93"/>
      <path class="st0" d="M624.98,298.62h-4.76c.03,6.37,4.73,6.37,4.76,0Z"/>
      <path class="st0" d="M711.69,298.61v1.74c1.03-.58,1.03-1.16,0-1.74Z"/>
      <polygon class="st0" points="574.07 302.09 570.9 302.1 573.29 305.55 574.07 302.09"/>
      <path class="st0" d="M676.69,302.09v1.74c1.03-.58,1.03-1.16,0-1.74Z"/>
      <path class="st0" d="M764.98,319.46c-.99-6.22-1.22-12.41-5.57-17.34-5.88,6.09-.38,15.09,3.19,20.81,1.36.74-.13-2.86,2.38-3.47.25,1.59-.19,3.53.02,5.2l3.17-5.18c-1.03.06-2.28-.24-3.18-.02Z"/>
      <path class="st0" d="M591.6,335.1c4.67-1.56,1.81-2.75,1.62-4.3-.95-7.69-2.72-22.2-7.98-26.98l6.36,31.27Z"/>
      <polygon class="st0" points="612.26 303.84 607.5 304.68 609.87 307.26 612.26 303.84"/>
      <rect class="st0" x="709.31" y="303.83" width="3.16" height="3.46"/>
      <rect class="st0" x="742.73" y="303.83" width="1.56" height="3.46"/>
      <polygon class="st0" points="704.52 309.03 703.74 305.57 701.35 309.02 704.52 309.03"/>
      <path class="st0" d="M769.75,305.57h-4.76c.03,6.37,4.73,6.37,4.76,0Z"/>
      <path class="st0" d="M577.24,307.3l-6.31,4.36,6.32,3.49-4.74.84-.05,4.36,3.06,1.64-1.42,4.42,4.07-1.58c.99-.08-.05,4.66,3.06,3.31,5.73-2.48-4.16-16.16-3.97-20.83Z"/>
      <path class="st0" d="M633.74,307.3v1.74c1.03-.58,1.03-1.16,0-1.74Z"/>
      <polygon class="st0" points="604.31 309.05 599.54 309.05 599.54 312.5 601.9 312.49 604.31 309.05"/>
      <rect class="st0" x="674.32" y="309.04" width="1.56" height="3.46"/>
      <path class="st0" d="M537.48,315.98c.52-3.17-1.75-5.75-4.76-5.2v5.2s4.76,0,4.76,0Z"/>
      <polygon class="st0" points="717.26 314.23 714.09 310.77 714.08 314.24 717.26 314.23"/>
      <rect class="st0" x="742.72" y="310.78" width="3.17" height="10.41"/>
      <path class="st0" d="M519.2,312.51v1.74c1.03-.58,1.03-1.16,0-1.74Z"/>
      <rect class="st0" x="707.72" y="312.52" width="3.16" height="3.46"/>
      <polygon class="st0" points="625.78 314.28 623.43 316.86 625.78 319.43 628.14 316.86 625.78 314.28"/>
      <rect class="st0" x="609.09" y="316" width="3.17" height="1.7"/>
      <rect class="st0" x="699.77" y="316" width="3.17" height="1.7"/>
      <path class="st0" d="M690.2,322.94c1.06-2.18-2.55-6.06-3.15-5.21-1.06,2.18,2.55,6.06,3.15,5.21Z"/>
      <rect class="st0" x="696.59" y="317.73" width="1.56" height="3.46"/>
      <rect class="st0" x="653.63" y="319.47" width="3.17" height="5.2"/>
      <rect class="st0" x="667.96" y="319.47" width="1.56" height="3.46"/>
      <rect class="st0" x="736.35" y="319.47" width="3.17" height="8.67"/>
      <path class="st0" d="M770.55,321.2v1.74c1.03-.58,1.03-1.16,0-1.74Z"/>
      <rect class="st0" x="626.59" y="322.95" width="3.16" height="3.46"/>
      <polygon class="st0" points="706.11 328.14 705.33 322.95 702.95 325.57 702.95 328.14 706.11 328.14"/>
      <polygon class="st0" points="559.75 326.41 551.82 324.68 557.54 329.66 559.75 326.41"/>
      <path class="st0" d="M779.29,335.1c.08-3.94.86-7.93-2.38-10.39-3.24,2.46-2.46,6.45-2.38,10.39h4.76Z"/>
      <rect class="st0" x="683.86" y="328.17" width="3.17" height="1.7"/>
      <path class="st0" d="M691.01,328.15v1.74c1.03-.58,1.03-1.16,0-1.74Z"/>
      <rect class="st0" x="695" y="328.16" width="1.56" height="3.46"/>
      <rect class="st0" x="698.17" y="328.17" width="3.17" height="1.7"/>
      <polygon class="st0" points="715.66 328.16 713.3 328.17 710.89 331.61 715.66 331.62 715.66 328.16"/>
      <path class="st0" d="M580.45,335.09c.91,1,4.73-1.45,4.73-2.6,0-4.81-7.14-.03-4.73,2.6Z"/>
      <polygon class="st0" points="658.39 329.9 655.22 329.9 655.23 332.47 657.61 335.09 658.39 329.9"/>
      <path class="st0" d="M562.93,347.26c-.08-4.61-.4-13.92-6.34-13.89l6.34,13.89Z"/>
      <rect class="st0" x="699.77" y="333.37" width="4.76" height="3.46"/>
      <polygon class="st0" points="696.57 335.11 693.39 335.12 695.79 338.57 696.57 335.11"/>
      <path class="st0" d="M593.97,338.57v1.74c1.03-.58,1.03-1.16,0-1.74Z"/>
      <rect class="st0" x="712.49" y="338.58" width="3.16" height="3.46"/>
      <polygon class="st0" points="779.3 342.03 776.13 338.58 776.13 342.04 779.3 342.03"/>
      <path class="st0" d="M687.83,342.05v1.74c1.03-.58,1.03-1.16,0-1.74Z"/>
      <polygon class="st0" points="696.57 342.07 693.4 342.06 693.41 345.52 696.57 342.07"/>
      <polygon class="st0" points="634.53 343.81 629.77 343.8 629.77 347.25 632.12 347.25 634.53 343.81"/>
      <rect class="st0" x="656.82" y="343.8" width="1.56" height="5.2"/>
      <rect class="st0" x="540.68" y="345.53" width="3.17" height="5.2"/>
      <path class="st0" d="M597.93,345.53l-4.77,6.04,7.17,19.98c3.55-2.63,1.79-3.44,1.25-6.52-1.22-6.98-6.57-12.28-3.65-19.51Z"/>
      <polygon class="st0" points="734.74 352.48 733.97 347.27 731.61 349.87 734.74 352.48"/>
      <path class="st0" d="M554.98,349.01c-3.89-3.41-8.36,13.79-3.96,15.62.92-4.17,8.47-11.67,3.96-15.62Z"/>
      <path class="st0" d="M712.5,361.14c4.14,1.87,14.42,4.03,12.5-4.04-3.95-8.19-13.23-5.03-12.5,4.04Z"/>
      <path class="st0" d="M574.07,354.22c-2.52-2.76-7.28,2.44-4.76,5.2,2.52,2.76,7.28-2.44,4.76-5.2Z"/>
      <path class="st0" d="M747.47,355.96c-9.83-1.84-1.98,7.53,0,5.2v-5.2Z"/>
      <path class="st0" d="M530.05,362.33c-1.15-.91-1.36-3.94-3.1-4.5l-6.71,1.86c-.8,4.79-1.3,12.31,4.5,11.88l2.49-5.02,6.26,1.57,1.65-3.5c-1.27-1.61-3.64-1.14-5.09-2.29Z"/>
      <rect class="st0" x="750.67" y="359.43" width="3.17" height="6.93"/>
      <path class="st0" d="M558.97,361.16v1.74c1.03-.58,1.03-1.16,0-1.74Z"/>
      <rect class="st0" x="553.42" y="366.39" width="1.56" height="3.46"/>
      <path class="st0" d="M534.31,371.58c-10.61-3.54-1.65,16.38,2.34,15.74,7.25-2.74,10.31-10.33,3.21-15.72l-5.53,5.2-.02-5.22Z"/>
      <polygon class="st0" points="591.57 371.6 589.22 371.61 586.81 375.05 591.57 375.06 591.57 371.6"/>
      <rect class="st0" x="555" y="373.34" width="3.17" height="1.7"/>
      <rect class="st0" x="578.86" y="375.07" width="4.76" height="3.46"/>
      <path class="st0" d="M564.52,376.8c-4.22,2.34-8.27-1.04-11.09,4.34-.26,4.3,12.63.86,11.09-4.34Z"/>
      <rect class="st0" x="567.73" y="376.82" width="3.17" height="1.7"/>
      <path class="st0" d="M582.83,382.01v1.74c1.03-.58,1.03-1.16,0-1.74Z"/>
      <path class="st0" d="M788.05,382.01v1.74c1.03-.58,1.03-1.16,0-1.74Z"/>
      <rect class="st0" x="524.77" y="385.5" width="6.35" height="3.46"/>
      <rect class="st0" x="747.5" y="387.24" width="1.56" height="5.2"/>
      <path class="st0" d="M582.83,388.96v1.74c1.03-.58,1.03-1.16,0-1.74Z"/>
      <path class="st0" d="M764.97,388.97c-.91-1-4.73,1.45-4.73,2.6,0,4.81,7.14.03,4.73-2.6Z"/>
      <path class="st0" d="M577.25,446.3c-1.49-7.2-5.17-47.9-13.51-48.61-3.39-.29-1.04,4.93-.88,6.1,1.13,7.84,1.76,18.18,6.45,24.29l-3.17.86-.02,3.46c5.57-1.63,5.94,5.03,7.79,9.83.94,2.43-1.49,5.06,3.34,4.07Z"/>
      <path class="st0" d="M552.5,412.23c-6.49,11.82,8.99,8.42,8.82,5.4l-4.76-13.03c-2.89-.3-.95,3.75-2.02,6.51-.21.54-1.78.62-2.05,1.11Z"/>
      <rect class="st0" x="513.64" y="408.09" width="3.16" height="3.46"/>
      <path class="st0" d="M762.59,409.82v1.74c1.03-.58,1.03-1.16,0-1.74Z"/>
      <polygon class="st0" points="500.89 413.3 496.14 414.15 498.54 416.75 500.89 416.76 500.89 413.3"/>
      <path class="st0" d="M519.2,415.03v1.74c1.03-.58,1.03-1.16,0-1.74Z"/>
      <polygon class="st0" points="539.07 420.23 539.07 417.66 535.92 415.03 535.91 420.23 539.07 420.23"/>
      <path class="st0" d="M512.02,418.5h-3.16c-.26,3.41-.41,6.54,2.4,8.67h2.36s-1.6-8.67-1.6-8.67Z"/>
      <path class="st0" d="M562.94,421.99h-4.76s0,6.93,0,6.93h2.35c2.5-1.84,2.77-3.73,2.4-6.93Z"/>
      <rect class="st0" x="551.82" y="427.2" width="3.16" height="3.46"/>
      <rect class="st0" x="747.5" y="427.2" width="1.56" height="3.46"/>
      <rect class="st0" x="504.1" y="428.94" width="1.56" height="3.46"/>
      <path class="st0" d="M521.58,428.94c-2.97-.45-5.5,0-6.35,3.45h6.35s0-3.45,0-3.45Z"/>
      <path class="st0" d="M541.47,430.67v1.74c1.03-.58,1.03-1.16,0-1.74Z"/>
      <path class="st0" d="M523.97,437.62v1.74c1.03-.58,1.03-1.16,0-1.74Z"/>
      <path class="st0" d="M513.16,441.61c-.52-.6-4.15-2.47-4.29-2.26-3.62,25.4,15.43,15.18,4.29,2.26Z"/>
      <polygon class="st0" points="521.58 444.56 521.57 441.99 518.42 439.36 518.41 444.56 521.58 444.56"/>
      <path class="st0" d="M768.96,439.35v1.74c1.03-.58,1.03-1.16,0-1.74Z"/>
      <rect class="st0" x="763.4" y="446.32" width="3.17" height="1.7"/>
      <rect class="st0" x="545.46" y="448.05" width="1.56" height="3.46"/>
      <path class="st0" d="M520.79,454.99v1.74c1.03-.58,1.03-1.16,0-1.74Z"/>
      <polygon class="st0" points="578.84 463.68 580.41 459.33 577.28 456.73 575.71 461.08 578.84 463.68"/>
      <polygon class="st0" points="505.67 463.67 505.66 461.1 502.51 458.47 502.5 463.67 505.67 463.67"/>
      <path class="st0" d="M553.39,468.89c.98-1.16-.74-6.89-2.38-6.91-4.74-.05-.44,10.22,2.38,6.91Z"/>
      <rect class="st0" x="562.95" y="463.69" width="3.16" height="3.46"/>
      <polygon class="st0" points="494.53 472.38 491.36 472.39 493.75 475.84 494.53 472.38"/>
      <path class="st0" d="M505.67,477.57c.91-1-1.32-5.17-2.38-5.17-4.4,0-.03,7.79,2.38,5.17Z"/>
      <rect class="st0" x="551.83" y="472.38" width="1.56" height="3.46"/>
      <rect class="st0" x="508.87" y="474.12" width="3.16" height="3.46"/>
      <path class="st0" d="M527.15,477.58v1.74c1.03-.58,1.03-1.16,0-1.74Z"/>
      <path class="st0" d="M552.6,479.32v1.74c1.03-.58,1.03-1.16,0-1.74Z"/>
      <path class="st0" d="M564.57,493.21c8.36.53,4.58-15.14-.8-13.88-5.34,1.25-.33,10.84.8,13.88Z"/>
      <path class="st0" d="M512.05,486.27c.61.84,4.21-3.03,3.15-5.21-.61-.84-4.21,3.03-3.15,5.21Z"/>
      <polygon class="st0" points="531.14 481.07 531.14 483.64 533.53 486.23 532.7 481.07 531.14 481.07"/>
      <path class="st0" d="M543.06,482.79v1.74c1.03-.58,1.03-1.16,0-1.74Z"/>
      <path class="st0" d="M519.99,484.55l-7.89,5.98,4.7,11.37c-7.42-.62-4.19-10.21-12.7-10.42-.13,8.58,4.91,15.47,11.94,18.69,11.56-6.73,3.07-15.56,3.95-25.62Z"/>
      <path class="st0" d="M527.82,484.7l-3.05.7,3.16,6.09-4.75-.87,8.74,11.27c10.21-11.54,4.98-8.32-3.31-14.57-.83-.62-.62-2.49-.79-2.61Z"/>
      <polygon class="st0" points="545.45 489.73 542.28 486.27 542.27 489.74 545.45 489.73"/>
      <path class="st0" d="M553.41,486.28c-.19,3.63-.61,6.51,2.38,8.64,5.88-4.59,4.9-9.12-2.38-8.64Z"/>
      <path class="st0" d="M542.25,494.96c1.06-2.18-2.55-6.06-3.15-5.21-1.06,2.18,2.55,6.06,3.15,5.21Z"/>
      <polygon class="st0" points="526.35 494.97 523.17 494.97 525.57 498.42 526.35 494.97"/>
      <path class="st0" d="M574.07,494.95c-7.05-1.52-1.52,9.56,1.61,6.94l-1.61-6.94Z"/>
      <path class="st0" d="M559.76,503.64c.37-3.2.1-5.1-2.4-6.92h-2.35s0,6.93,0,6.93h4.76Z"/>
      <path class="st0" d="M735.55,498.43v1.74c1.03-.58,1.03-1.16,0-1.74Z"/>
      <rect class="st0" x="745.91" y="498.44" width="1.56" height="3.46"/>
      <polygon class="st0" points="537.48 503.65 534.32 503.66 535.92 510.58 537.48 510.59 537.48 503.65"/>
      <path class="st0" d="M488.18,510.59c.91,1,4.73-1.45,4.73-2.6,0-4.81-7.14-.03-4.73,2.6Z"/>
      <polygon class="st0" points="508.85 508.87 504.09 508.88 504.1 510.57 508.84 512.33 508.85 508.87"/>
      <rect class="st0" x="512.05" y="510.6" width="1.56" height="3.46"/>
      <polygon class="st0" points="534.3 510.6 531.13 510.61 533.52 514.06 534.3 510.6"/>
      <path class="st0" d="M558.97,510.6v1.74c1.03-.58,1.03-1.16,0-1.74Z"/>
      <polygon class="st0" points="518.39 512.34 515.23 512.34 515.24 514.91 517.61 517.54 518.39 512.34"/>
      <rect class="st0" x="539.09" y="512.34" width="3.16" height="3.46"/>
      <path class="st0" d="M566.16,519.25c2.88.49,4.63.07,6.3-2.57-1.95-3.27-4.6-2.79-7.92-2.59l1.62,5.16Z"/>
      <path class="st0" d="M749.87,514.07v1.74c1.03-.58,1.03-1.16,0-1.74Z"/>
      <rect class="st0" x="548.64" y="515.82" width="1.56" height="3.46"/>
      <path class="st0" d="M535.11,517.55v1.74c1.03-.58,1.03-1.16,0-1.74Z"/>
      <path class="st0" d="M751.46,517.55v1.74c1.03-.58,1.03-1.16,0-1.74Z"/>
      <rect class="st0" x="540.68" y="519.29" width="3.16" height="3.46"/>
      <path class="st0" d="M756.23,519.28v1.74c1.03-.58,1.03-1.16,0-1.74Z"/>
      <path class="st0" d="M561.38,533.17c3.92,3.13,12.57-7.56,3.69-10.15-7.01-2.04-5.25,8.91-3.69,10.15Z"/>
      <path class="st0" d="M763.37,541.87l-1.42-14.94-11.28-2.42,4.53,1.92c1.78,6.8,1.39,8.74-2.95,13.68l11.12,1.75Z"/>
      <rect class="st0" x="780.91" y="526.24" width="1.56" height="3.46"/>
      <path class="st0" d="M499.3,531.46c-.23-.3-6.24-2.78-7.17-.02l.83,6.96c1.72-.4,8.26-4.36,6.33-6.93Z"/>
      <rect class="st0" x="535.92" y="529.72" width="1.56" height="3.46"/>
      <path class="st0" d="M547.83,529.71v1.74c1.03-.58,1.03-1.16,0-1.74Z"/>
      <rect class="st0" x="742.73" y="531.46" width="1.56" height="3.46"/>
      <path class="st0" d="M553.39,536.66l-3.98-3.46-2.38,5.22-7.93-3.49c-.77,6.42,4.65,4.99,6.02,5.85.56.35.14,2.66.34,2.8,3.61,2.5,2.16-5.79,7.99-2.48l1.54-7-1.61,2.57Z"/>
      <path class="st0" d="M575.66,533.19c-2.52-2.76-7.28,2.44-4.76,5.2s7.28-2.44,4.76-5.2Z"/>
      <rect class="st0" x="777.72" y="534.93" width="1.56" height="3.46"/>
      <path class="st0" d="M783.28,534.92v1.74c1.03-.58,1.03-1.16,0-1.74Z"/>
      <path class="st0" d="M783.28,541.87v1.74c1.03-.58,1.03-1.16,0-1.74Z"/>
      <polygon class="st0" points="556.57 547.08 556.57 543.61 553.41 546.22 556.57 547.08"/>
      <path class="st0" d="M789.64,543.61v1.74c1.03-.58,1.03-1.16,0-1.74Z"/>
      <path class="st0" d="M564.54,550.56c-.3.51-8.46-.63,1.58,6.96.31-1.4-.39-4.59.02-5.22.23-.35,3.04.88,3.19-.85l-4.77-6.09c-.3,1.42.4,4.51-.02,5.2Z"/>
      <path class="st0" d="M504.08,559.24c-.37-5.41-4.06-11.46-9.53-10.41l.27,6.67,9.26,3.73Z"/>
      <path class="st0" d="M547.83,548.82v1.74c1.03-.58,1.03-1.16,0-1.74Z"/>
      <path class="st0" d="M517.96,552.77c-1.19-1.04-8.64-2.73-9.09-2.2l-.02,5.19,11.14,3.48c.67-.76-1.03-5.6-2.02-6.47Z"/>
      <polygon class="st0" points="559.75 552.32 553.41 550.57 553.42 555.77 559.75 554.02 559.75 552.32"/>
      <path class="st0" d="M572.47,578.35c1.38-2.43-4.57-23.42-7.93-19.1l1.61,13.84c7.08-1.65,2.79,3.45,6.32,5.26Z"/>
      <path class="st0" d="M557.83,564.96c-1.66-1.19-5.65-1.32-4.41,2.08l3.26,7.77c8.15,1.36,6.31-6.14,1.15-9.84Z"/>
      <path class="st0" d="M733.96,569.67v1.74c1.03-.58,1.03-1.16,0-1.74Z"/>
      <path class="st0" d="M726.01,576.62v1.74c1.03-.58,1.03-1.16,0-1.74Z"/>
      <polygon class="st0" points="551.8 580.11 548.63 580.12 550.24 585.3 551.79 585.3 551.8 580.11"/>
      <path class="st0" d="M578.84,580.1c-5.1-6.12-1.36,16.34,3.18,15.64l-3.18-15.64Z"/>
      <path class="st0" d="M546.24,585.31v1.74c1.03-.58,1.03-1.16,0-1.74Z"/>
      <path class="st0" d="M729.98,585.31c-3.89-5.38-4.63,11.73.81,13.9-.27-6.38,10.19,1.09,8.73-6.05-.62-3.05-6.28-5.07-8.75-2.67l-.79-5.18Z"/>
      <polygon class="st0" points="488.19 592.3 492.13 595.73 496.09 589.64 491.37 587.05 488.19 592.3"/>
      <polygon class="st0" points="733.16 604.43 729.99 604.43 730 607.01 732.38 609.63 733.16 604.43"/>
      <path class="st0" d="M495.97,611.51l-6.19-.12c3.48,5.65,8.33,3.64,4.77,12.15,5.43-2.15,1.78-8.11,1.41-12.03Z"/>
      <polygon class="st0" points="755.43 613.12 749.08 613.13 749.08 614.83 755.42 616.59 755.43 613.12"/>
      <path class="st0" d="M733.96,614.85v1.74c1.03-.58,1.03-1.16,0-1.74Z"/>
      <path class="st0" d="M506.47,616.59v1.74c1.03-.58,1.03-1.16,0-1.74Z"/>
      <rect class="st0" x="752.26" y="620.08" width="6.35" height="1.7"/>
      <path class="st0" d="M768.15,620.07c-2.52-2.76-7.28,2.44-4.76,5.2s7.28-2.44,4.76-5.2Z"/>
      <polygon class="st0" points="499.31 625.29 496.14 625.29 496.15 628.75 499.31 625.29"/>
      <rect class="st0" x="496.14" y="630.51" width="3.17" height="1.7"/>
      <path class="st0" d="M502.48,639.18c1.06-2.18-2.55-6.06-3.15-5.21-1.06,2.18,2.55,6.06,3.15,5.21Z"/>
      <path class="st0" d="M507.25,649.61c-1.28-1.04-3.81.91-4.56,2.55,2.29,4.82,2.33,12.73,9.34,11.33.85-3.64-2.8-4.55-3.75-6.92-.63-1.57-.64-6.65-1.03-6.96Z"/>
      <rect class="st0" x="726.82" y="651.35" width="1.56" height="3.46"/>
      <polygon class="st0" points="771.34 653.09 768.17 653.09 768.18 656.55 771.34 653.09"/>
      <polygon class="st0" points="776.11 654.82 772.94 655.68 776.1 658.29 776.11 654.82"/>
      <path class="st0" d="M492.97,668.71c5.87-3.3,5.41-9.8-1.6-10.41l1.6,10.41Z"/>
      <path class="st0" d="M727.6,661.77v1.74c1.03-.58,1.03-1.16,0-1.74Z"/>
      <rect class="st0" x="741.13" y="661.77" width="1.56" height="3.46"/>
      <polygon class="st0" points="788.86 668.72 792.02 666.08 789.63 661.77 788.86 668.72"/>
      <path class="st0" d="M495.33,672.19v1.74c1.03-.58,1.03-1.16,0-1.74Z"/>
      <path class="st0" d="M745.1,672.19v1.74c1.03-.58,1.03-1.16,0-1.74Z"/>
      <rect class="st0" x="502.5" y="673.95" width="3.17" height="1.7"/>
      <polygon class="st0" points="513.62 673.94 507.27 673.94 507.39 678.99 513.61 680.88 513.62 673.94"/>
      <path class="st0" d="M706.92,673.93v1.74c1.03-.58,1.03-1.16,0-1.74Z"/>
      <path class="st0" d="M717.23,699.99c3-3.26,7.09-24.01.67-25.93-4.52-1.35-8.59,10.05-8.25,12.55.09.64,4.08,9.86,4.93,11.71.42.91-.86,5.5,2.66,1.67Z"/>
      <path class="st0" d="M495.33,677.4v1.74c1.03-.58,1.03-1.16,0-1.74Z"/>
      <rect class="st0" x="500.91" y="677.41" width="3.16" height="3.46"/>
      <path class="st0" d="M524.36,690c-2.9-2.15-8.94-2.01-10.7,2.17l12.69,2.59c.19-.16-1.79-4.62-1.99-4.76Z"/>
      <polygon class="st0" points="733.16 693.03 733.15 689.57 729.99 692.18 733.16 693.03"/>
      <path class="st0" d="M748.28,689.57v1.74c1.03-.58,1.03-1.16,0-1.74Z"/>
      <path class="st0" d="M506.47,691.3v1.74c1.03-.58,1.03-1.16,0-1.74Z"/>
      <path class="st0" d="M525.56,696.52v1.74c1.03-.58,1.03-1.16,0-1.74Z"/>
      <rect class="st0" x="707.73" y="698.26" width="1.56" height="3.46"/>
      <rect class="st0" x="750.68" y="701.74" width="1.56" height="3.46"/>
      <path class="st0" d="M710.1,703.47v1.74c1.03-.58,1.03-1.16,0-1.74Z"/>
      <path class="st0" d="M718.05,705.2v1.74c1.03-.58,1.03-1.16,0-1.74Z"/>
      <rect class="st0" x="502.5" y="706.96" width="4.76" height="1.7"/>
      <rect class="st0" x="710.91" y="708.69" width="1.56" height="3.46"/>
      <polygon class="st0" points="722.02 708.69 717.26 709.54 719.67 712.14 722.02 712.15 722.02 708.69"/>
      <path class="st0" d="M729.97,713.88c2.09-2.12-4.16-7.42-6.35-5.19-2.09,2.12,4.16,7.42,6.35,5.19Z"/>
      <polygon class="st0" points="516.81 719.09 513.65 715.63 513.64 719.1 516.81 719.09"/>
      <path class="st0" d="M497.73,717.38c-.91,1,1.32,5.17,2.38,5.17,4.4,0,.03-7.79-2.38-5.17Z"/>
      <polygon class="st0" points="722.03 719.12 718.86 719.11 718.86 722.58 722.03 719.12"/>
      <path class="st0" d="M523.97,722.58v1.74c1.03-.58,1.03-1.16,0-1.74Z"/>
      <polygon class="st0" points="715.66 722.6 712.49 722.59 712.5 726.06 715.66 722.6"/>
      <path class="st0" d="M520.79,726.06v1.74c1.03-.58,1.03-1.16,0-1.74Z"/>
      <path class="st0" d="M727.6,726.06v1.74c1.03-.58,1.03-1.16,0-1.74Z"/>
      <path class="st0" d="M757.82,726.06v1.74c1.03-.58,1.03-1.16,0-1.74Z"/>
      <path class="st0" d="M719.64,729.53v1.74c1.03-.58,1.03-1.16,0-1.74Z"/>
      <rect class="st0" x="757.04" y="734.75" width="1.56" height="3.46"/>
      <path class="st0" d="M733.96,736.48v1.74c1.03-.58,1.03-1.16,0-1.74Z"/>
      <path class="st0" d="M531.13,743.45c-5.7,2.49-8.71-2.21-14.32-1.74,2.3,4.71,12.21,7.94,14.32,1.74Z"/>
      <rect class="st0" x="710.91" y="746.92" width="1.56" height="3.46"/>
      <rect class="st0" x="734.77" y="746.92" width="1.56" height="3.46"/>
      <rect class="st0" x="736.35" y="757.35" width="3.17" height="1.7"/>
      <rect class="st0" x="780.9" y="757.35" width="3.17" height="1.7"/>
      <polygon class="st0" points="796.8 757.35 793.62 757.34 793.63 760.81 796.8 757.35"/>
      <rect class="st0" x="710.9" y="760.82" width="4.76" height="3.46"/>
      <rect class="st0" x="725.23" y="762.55" width="1.56" height="3.46"/>
      <path class="st0" d="M776.91,766.02v1.74c1.03-.58,1.03-1.16,0-1.74Z"/>
      <path class="st0" d="M783.28,766.02v1.74c1.03-.58,1.03-1.16,0-1.74Z"/>
      <rect class="st0" x="779.31" y="776.45" width="1.56" height="3.46"/>
      <path class="st0" d="M749.07,785.14c-3.16.17-13.88-3.27-14.28,2.6-.28,4.16,19.08,1.82,14.28-2.6Z"/>
      <path class="st0" d="M722.02,786.89c-9.7-4.32-10.43,4.75,0,3.44v-3.44Z"/>
      <path class="st0" d="M733.16,790.34c1.62-1.75-3.11-6.97-4.76-5.2-1.62,1.75,3.11,6.97,4.76,5.2Z"/>
      <polygon class="st0" points="764.97 785.14 757.02 785.14 757.04 790.34 764.98 788.59 764.97 785.14"/>
      <polygon class="st0" points="774.53 785.15 771.35 785.14 771.36 788.61 774.53 785.15"/>
      <polygon class="st0" points="782.48 785.15 779.31 785.14 779.31 788.61 782.48 785.15"/>
      <polygon class="st0" points="787.25 785.15 784.08 785.14 784.09 788.61 787.25 785.15"/>
      <rect class="st0" x="790.45" y="785.14" width="1.56" height="3.46"/>
      <polygon class="st0" points="733.16 793.84 729.99 793.83 730 797.3 733.16 793.84"/>
      <rect class="st0" x="729.99" y="799.05" width="3.17" height="1.7"/>
      <rect class="st0" x="729.99" y="802.52" width="3.16" height="3.46"/>
      <polygon class="st0" points="787.25 805.97 784.09 802.51 784.08 805.98 787.25 805.97"/>
      <rect class="st0" x="720.45" y="804.26" width="3.16" height="3.46"/>
      <path class="st0" d="M741.91,804.25v1.74c1.03-.58,1.03-1.16,0-1.74Z"/>
      <polygon class="st0" points="764.97 807.71 764.97 804.25 761.81 806.86 764.97 807.71"/>
      <rect class="st0" x="769.76" y="804.26" width="3.17" height="1.7"/>
      <path class="st0" d="M791.23,804.25v1.74c1.03-.58,1.03-1.16,0-1.74Z"/>
      <polygon class="st0" points="764.97 811.21 761.81 812.06 764.97 814.67 764.97 811.21"/>
      <rect class="st0" x="769.77" y="811.21" width="1.56" height="3.46"/>
      <rect class="st0" x="784.08" y="811.21" width="3.17" height="1.7"/>
      <path class="st0" d="M744.71,817.69c-1.16-.8-1.31-3.78-2.8-4.75l-.8,5.22-8.78-3.43-2.31,6.02c.09,4.43,18.87,2.05,22.22,2.6.79-6.23-5.3-4.12-7.54-5.66Z"/>
      <polygon class="st0" points="752.25 812.95 747.49 812.94 747.49 816.4 749.84 816.39 752.25 812.95"/>
      <path class="st0" d="M791.23,812.93v1.74c1.03-.58,1.03-1.16,0-1.74Z"/>
      <path class="st0" d="M728.39,818.16h-6.35s0,3.45,0,3.45c2.97.45,5.5,0,6.35-3.45Z"/>
      <path class="st0" d="M720.43,819.89l-10.19-.04-.93,5.23c3.04-.39,4.89-1.79,8.13-2.52,1.66-.38,3.65,3.3,2.99-2.68Z"/>
      <path class="st0" d="M714.07,828.59c-2.33-.57-3.32.73-4.74,2.59l2.36,2.6,2.38-5.19Z"/>
      <path class="st0" d="M724.41,828.57v1.74c1.03-.58,1.03-1.16,0-1.74Z"/>
      <path class="st0" d="M735.55,828.57v1.74c1.03-.58,1.03-1.16,0-1.74Z"/>
      <rect class="st0" x="715.67" y="830.33" width="3.17" height="1.7"/>
      <rect class="st0" x="752.26" y="830.32" width="3.16" height="3.46"/>
      <path class="st0" d="M743.5,832.05v1.74c1.03-.58,1.03-1.16,0-1.74Z"/>
      <rect class="st0" x="712.49" y="835.54" width="3.17" height="1.7"/>
      <path class="st0" d="M719.64,835.52v1.74c1.03-.58,1.03-1.16,0-1.74Z"/>
      <path class="st0" d="M756.23,835.52v1.74c1.03-.58,1.03-1.16,0-1.74Z"/>
      <rect class="st0" x="785.67" y="835.54" width="3.17" height="1.7"/>
      <path class="st0" d="M747.49,852.9c-1.25-1.11.57-14.69-4.77-15.64l1.58,20.84,12.72-5.19h-9.53Z"/>
      <path class="st0" d="M715.67,847.69c.29-2.46.34-4.75,1.61-6.93l-6.37-1.75,1.59,8.66c1.05.04,2.12.02,3.18.02-.22,1.88-3.66,4.89,1,6.58,1.16.42,11.29.06,11.72-2.26,1.32-7.18-10.36-4.32-12.72-4.32Z"/>
      <rect class="st0" x="722.04" y="839.02" width="3.17" height="1.7"/>
      <path class="st0" d="M756.23,840.74v1.74c1.03-.58,1.03-1.16,0-1.74Z"/>
      <path class="st0" d="M780.09,842.47v1.74c1.03-.58,1.03-1.16,0-1.74Z"/>
      <path class="st0" d="M733.18,845.96l2.38,12.12c-.12-3.06,1.1-10.98-2.38-12.12Z"/>
      <path class="st0" d="M738.73,845.95v1.74c1.03-.58,1.03-1.16,0-1.74Z"/>
      <path class="st0" d="M778.5,845.95v1.74c1.03-.58,1.03-1.16,0-1.74Z"/>
      <polygon class="st0" points="776.12 847.7 772.94 847.69 771.38 852.05 772.12 852.86 776.12 847.7"/>
      <path class="st0" d="M704.54,851.17c-.91,1,1.32,5.17,2.38,5.17,4.4,0,.03-7.79-2.38-5.17Z"/>
      <path class="st0" d="M759.41,852.9v1.74c1.03-.58,1.03-1.16,0-1.74Z"/>
      <path class="st0" d="M709.63,861.19c.24-3.89-3-3.01-4.69-.86-2.84,3.62-.59,12.22.86,16.45,1.49,4.33,4.23,5.42,4.92,7.11,2.71,6.68,4.27,13.46,6.52,20.29l-4.74-.89,4.51,4.27-2.93,21.78c2.35.21,6.23-.73,8.09.74,2.11,1.67.04,6.57,3.03,6.21l.03-8.67,5.6,1.69-.02-3.52,8.72-3.37-18.31-1.61-7.13-45.31,4.79,5.19c9.4-5.72-2.14-12.18,1.57-20.84l-10.8,1.33Z"/>
      <polygon class="st0" points="736.15 860.08 731.82 860.11 730.02 865.97 733.96 868.56 734.77 865.06 739.51 868.54 736.15 860.08"/>
      <path class="st0" d="M755.43,861.6c-2.9-3.07-3.37,3.39-3.85,3.35-1.32-1.28-7.28-3.28-5.67.96,2.16,5.7,11.8-1.9,9.52-4.31Z"/>
      <path class="st0" d="M773.73,868.54v1.74c1.03-.58,1.03-1.16,0-1.74Z"/>
      <path class="st0" d="M742.69,884.17c1.02-5.55,2.77-9.49-3.15-12.15l3.15,12.15Z"/>
      <rect class="st0" x="749.09" y="873.76" width="1.56" height="3.46"/>
      <rect class="st0" x="784.09" y="875.5" width="1.56" height="3.46"/>
      <path class="st0" d="M733.96,877.23v1.74c1.03-.58,1.03-1.16,0-1.74Z"/>
      <path class="st0" d="M707.71,920.65c-9.18-12.85-3.84-28.82-11.93-41.65-5.31-.42.26,18.89.2,19.92-.1,1.79-3.76,4.53-2.59,7.85h4.78s-3.08,6.24-3.08,6.24l3.17,3.44-1.68,4.21h11.13Z"/>
      <path class="st0" d="M729.97,906.76l-.73-7-5.6-13.83c1.19,7.1-3.1,14.08.23,20.59l6.11.25Z"/>
      <rect class="st0" x="742.73" y="887.66" width="1.56" height="3.46"/>
      <path class="st0" d="M754.64,894.6v1.74c1.03-.58,1.03-1.16,0-1.74Z"/>
      <rect class="st0" x="742.73" y="896.35" width="1.56" height="3.46"/>
      <polygon class="st0" points="757.03 901.53 753.86 898.08 753.85 901.54 757.03 901.53"/>
      <path class="st0" d="M768.96,898.08v1.74c1.03-.58,1.03-1.16,0-1.74Z"/>
      <path class="st0" d="M781.68,899.81v1.74c1.03-.58,1.03-1.16,0-1.74Z"/>
      <path class="st0" d="M750.66,905.05c-4.71-1.62-9.5-3.54-9.53,3.45,3.48.06,8.31.97,9.53-3.45Z"/>
      <path class="st0" d="M761.8,905.04c.14,4.28,9.38,3.57,9.51.85.19-3.81-8.16-.19-9.51-.85Z"/>
      <polygon class="st0" points="784.09 910.24 787.24 907.61 784.86 903.3 784.09 910.24"/>
      <rect class="st0" x="753.85" y="905.04" width="3.17" height="1.7"/>
      <path class="st0" d="M775.32,905.03v1.74c1.03-.58,1.03-1.16,0-1.74Z"/>
      <path class="st0" d="M780.09,905.03v1.74c1.03-.58,1.03-1.16,0-1.74Z"/>
      <rect class="st0" x="682.27" y="906.78" width="3.17" height="1.7"/>
      <path class="st0" d="M731.57,915.45c3.72,2.62,3.63,5.33,11.13,3.46l-.79-5.21c3.84,10.4,16.46,2.65,24.65,5.23v-6.94s-12.73,3.45-12.73,3.45c4.41-4.23-5.33-5.08-8.57-5.02-3.94.07-9.03,2.9-13.7,1.57-.12,1.13.15,2.36.01,3.47-2.11-1.48-3.61-3.94-6.35-3.47v6.93s6.35,0,6.35,0c.14-1.13-.14-2.36,0-3.47Z"/>
      <polygon class="st0" points="771.34 911.99 768.17 911.99 768.17 917.18 771.34 917.17 771.34 911.99"/>
      <path class="st0" d="M685.39,918.8l-.33-4.28-5.97-.79v13.07c9.09,1.25,11.57-3.23,1.59-7.01l4.71-.99Z"/>
      <rect class="st0" x="780.91" y="917.2" width="1.56" height="3.46"/>
      <path class="st0" d="M709.31,922.41h-12.75s.01,5.21.01,5.21c3.92-1.28,8.09.43,11.95,1.68l.78-6.89Z"/>
      <path class="st0" d="M685.44,932.85c-5.14-2.05-6.77-1.4-6.35,5.19l4.55-.24,1.8-4.95Z"/>
      <polygon class="st0" points="733.16 931.1 729.98 931.11 732.38 934.56 733.16 931.1"/>
      <rect class="st0" x="699.77" y="932.85" width="3.17" height="1.7"/>
      <path class="st0" d="M702.14,938.04v1.74c1.03-.58,1.03-1.16,0-1.74Z"/>
      <polygon class="st0" points="704.54 943.21 715.63 945.88 714.22 940.57 711.45 938.58 704.54 938.03 704.54 943.21"/>
      <path class="st0" d="M726.79,943.24c.51-2.53-.66-3.62-2.37-5.16l-3.98,1.71v1.69s6.34,1.75,6.34,1.75Z"/>
      <path class="st0" d="M763.24,938.19c-12.6,5.7-2.58,5.78,4.91,6.79l-4.91-6.79Z"/>
      <path class="st0" d="M694.19,939.78v1.74c1.03-.58,1.03-1.16,0-1.74Z"/>
      <rect class="st0" x="747.5" y="939.79" width="1.56" height="3.46"/>
      <path class="st0" d="M672.9,946.66l-3.35-5.14,1.41,11.05,4.94,1.09c-4.22-7.49,2.24-2.59,1.58-8.67l-4.57,1.66Z"/>
      <polygon class="st0" points="733.16 944.98 733.15 941.52 729.99 944.13 733.16 944.98"/>
      <path class="st0" d="M689.42,943.25v1.74c1.03-.58,1.03-1.16,0-1.74Z"/>
      <path class="st0" d="M697.37,943.25v1.74c1.03-.58,1.03-1.16,0-1.74Z"/>
      <path class="st0" d="M679.87,944.99v1.74c1.03-.58,1.03-1.16,0-1.74Z"/>
      <polygon class="st0" points="687.02 948.46 686.24 945 682.29 949.35 687.02 948.46"/>
      <path class="st0" d="M702.14,944.99v1.74c1.03-.58,1.03-1.16,0-1.74Z"/>
      <path class="st0" d="M728.38,955.42l-1.59-10.41h-1.55c-.1,3.8-.88,9.07,3.15,10.41Z"/>
      <rect class="st0" x="706.14" y="946.74" width="1.56" height="3.46"/>
      <path class="st0" d="M692.6,948.47v1.74c1.03-.58,1.03-1.16,0-1.74Z"/>
      <polygon class="st0" points="734.75 953.66 733.15 948.48 731.59 948.47 731.58 953.67 734.75 953.66"/>
      <path class="st0" d="M715.65,950.2c-5.78-1.63-.4,9.25-1.59,12.16-4-1.47-1.96-8.6-6.34-2.6l3.04,1.6-1.45,4.46h9.53s-3.19-15.64-3.19-15.64Z"/>
      <path class="st0" d="M749.87,951.94v1.74c1.03-.58,1.03-1.16,0-1.74Z"/>
      <path class="st0" d="M731.57,965.83c.91-1-1.32-5.17-2.38-5.17-4.4,0-.03,7.79,2.38,5.17Z"/>
      <rect class="st0" x="733.17" y="960.64" width="3.17" height="5.2"/>
      <path class="st0" d="M768.15,960.64l-6.35.85c1.71,2.67,3.41,3.03,6.35,2.61v-3.46Z"/>
      <path class="st0" d="M667.14,962.37v1.74c1.03-.58,1.03-1.16,0-1.74Z"/>
      <rect class="st0" x="666.36" y="965.86" width="3.17" height="1.7"/>
      <rect class="st0" x="752.27" y="965.85" width="1.56" height="3.46"/>
      <polygon class="st0" points="731.57 969.33 728.39 969.33 730.79 972.78 731.57 969.33"/>
      <path class="st0" d="M745.1,971.05v1.74c1.03-.58,1.03-1.16,0-1.74Z"/>
      <polygon class="st0" points="690.22 976.25 692.57 976.25 694.95 973.64 690.22 974.55 690.22 976.25"/>
      <polygon class="st0" points="755.44 976.28 752.26 976.28 752.27 979.74 755.44 976.28"/>
      <path class="st0" d="M719.64,983.22v1.74c1.03-.58,1.03-1.16,0-1.74Z"/>
      <path class="st0" d="M724.41,984.96v1.74c1.03-.58,1.03-1.16,0-1.74Z"/>
      <path class="st0" d="M701.35,990.17c-.55-.58-1.06-1.16-1.59-1.74.52.07,1.08-.09,1.59,0v1.74Z"/>
      <path class="st0" d="M505.68,745.17c2.03,6.66,8.23,5.06,4.85,12.06,11.21,5.67,3.56-3.97,4.68-5.1l4.75-.89c-6.38,5.31,3.2,10.99,1.61,18.26l-9.52-8.68v12.14c-5.05.39-6.46-9.15-11.22-2.65-3.91,5.4,8.32,10.26,3.27,18.3l4.9-2.88-1.73-11,6.45-1.03,3.12,10.55-3.19,2.62,4.75-1.75c-1.12,5.49,2.61,5.56,5.58,8.67l3.18-6.88c3.86,8.62,9.18,7.51,16.58,8.78l.13,8.57,9.52-3.48c1.21,6.65,1.67,15.29,7.99,18.25-6.46,1.4-.15,9.76-2.4,14.76l-5.6-15.62-1.58,5.22c-6.41,1.16-.75-4.53-1.59-5.21-3.77-3.08-2.23,5.86-6.34,3.46l-3.22-12.15c-3.06-.51-.86,3.69-1.64,5.2-.21.4-5.5-1.82-7.87,1.74.77-4.63-1.78-9.35-2.37-13.05-.54-3.39,3.31-6.12-3.25-7.76-5.89-1.48.46,13.13,2.43,14.77-7.09,2.57-1.16,15.08,6.35,13.01l1.58-5.22,3.2,8.66c-5.33-3.25-18.84,4.8-20.34-1.06-.92-3.58,2.79-17.88-6.72-13.68-.13,3.09.03,6.3,1.08,9.21,1.06,2.93,4.93.74,3.7,5.54-4.13.44-7.56,2.73-11.08-.89-4.9-5.03,1.23-4.15,2.34-5.95,4.16-6.72-7.11-5-2.41-12.25l-6.34,5.2v-6.94s4.76-1.72,4.76-1.72l-7.95-.04,7.94-3.48-2.41-3.44c-3.79,1.34-2.89,5.36-8.72,3.48,7.11,15.45-4.17,4.62-4.76,5.19s1.31,4.15-1.59,3.47l-1.59-15.59,6.42-.84-.09-6.14,6.37-1.73c-3.2-1.15-13.79.64-12.72-5.22,7.01,1.77,8.06-2.48,12.77-6.1l-4.79-6.07c4.11,7.85-5.61,14.76-7.71,7.54-.43-1.48-.73-28.06-.42-31.12.34-3.32,3.25-2.23,3.16-3.28l-1.4-4.41,18.95.15.13,6.79-1.56.87c0,1.09,1.53.78,1.56.87Z"/>
      <rect class="st0" x="491.37" y="748.66" width="3.17" height="1.7"/>
      <path class="st0" d="M494.53,753.87h-3.16c-.38,3.2-.06,5.06,2.39,6.93l.78-6.93Z"/>
      <path class="st0" d="M496.93,755.59v1.74c1.03-.58,1.03-1.16,0-1.74Z"/>
      <path class="st0" d="M505.33,755.99c-1.87-1.26-7.51-1.75-6.01,3.07l4.67-.62,4.08,4.06c.6-1.11-2.47-6.33-2.74-6.51Z"/>
      <polygon class="st0" points="496.12 762.55 493.77 762.56 491.36 766 496.12 766.01 496.12 762.55"/>
      <path class="st0" d="M504.88,764.28v1.74c1.03-.58,1.03-1.16,0-1.74Z"/>
      <polygon class="st0" points="512.03 776.45 508.86 776.46 511.25 779.91 512.03 776.45"/>
      <polygon class="st0" points="508.85 792.08 515.19 791.22 512.02 781.67 508.85 792.08"/>
      <polygon class="st0" points="502.49 790.34 502.48 787.77 499.33 785.13 499.32 790.34 502.49 790.34"/>
      <polygon class="st0" points="535.9 799.02 532.74 795.56 532.73 799.02 535.9 799.02"/>
      <path class="st0" d="M496.93,797.3v1.74c1.03-.58,1.03-1.16,0-1.74Z"/>
      <path class="st0" d="M515.21,804.24c.57-10.51-9.52-8.35-2.35,0h2.35Z"/>
      <path class="st0" d="M538.27,802.54c-1.57,1.21.86,2.39,1.62,3.41,1.58-1.14-.74-2.3-1.62-3.41Z"/>
      <polygon class="st0" points="550.21 807.73 547.06 807.73 545.45 814.66 548.6 814.66 550.21 807.73"/>
      <path class="st0" d="M535.11,809.46v1.74c1.03-.58,1.03-1.16,0-1.74Z"/>
      <polygon class="st0" points="505.68 743.43 508.87 744.3 505.68 745.17 505.68 743.43"/>
      <path class="st0" d="M583.61,670.45v19.1s-3.19-6.94-3.19-6.94c-8.5-.25,2.01,10.09,2.82,13.45,1.21,4.99,0,10.92.38,16.08-2.62.08-3.52.98-3.06-2.44,1.3-9.56,1.43-13.25-8.05-6.24.7-5.69-4.48-8.67-8.81-10.38l2.43,5.15c-2.22.16-4.89-.53-6.97.23-2.83,1.04-1.45,5.32-4.14,4.98l-3.33-14.58,3.31-2.76c-3.31.31-3.62.21-3.19-3.48,6.38,2.29,4.88-3.43,9.55-3.46l.18,8.47,4.42,1.05-1.42,4.35h6.36c1.87-4.42-3.03-2.89-3.18-4.5s1.95-6.83,1.09-8.63c-1.29-2.7-4.54-1.4-4.25-4.23l12.71,5.18c-1.19-2.59-1.46-8.09-2.14-10.01-.61-1.74-5.66-10.62-6.46-14.22-.71-3.2,1.39-9.51-.93-13.98,6.79,7.03,9.79,18.38,11.9,27.96l3.99-.16Z"/>
      <path class="st0" d="M557.38,687.83v1.74c1.03-.58,1.03-1.16,0-1.74Z"/>
      <rect class="st0" x="572.5" y="694.8" width="3.17" height="1.7"/>
      <path class="st0" d="M510.45,873.75l-3.2-.87,3.2-1.73-3.17-4.34,4.76-.86-6.37-11.3-1.58,3.46-4.74-3.48-.28,4.85-12.45.34v-10.39s6.34,6.92,6.34,6.92l-1.57-15.61,3.14,6.92c-.69-4.45,3.95-3.16,5.57-5.13.61-.74-1.12-2.85.06-3.63,6.75-4.42,11.74-.61,10.4,7.7-.25,1.56-4.99.19-3.27,4.56l4.02-.15c1.21,2.24.4,6.55.74,7.1l-3.18.02,2.39,3.45.79-3.47c.17.27,2.38-.41,2.87.2.42.52-2.04,10.23.29,13.7-1.98-1.15-4.34-1.37-4.76,1.73l5.68,1.68-.92,10.48-6.34-4.35,4.76-3.48-3.18-4.34Z"/>
      <path class="st0" d="M506.47,839v1.74c1.03-.58,1.03-1.16,0-1.74Z"/>
      <path class="st0" d="M500.91,845.96l4.74.87c-7.23-6.11-12.53,1.82-9.49,9.53,5.2-1.36,4.26-10.09,4.76-10.4Z"/>
      <path class="st0" d="M612.27,934.56l6.36-7.8-7.64-6.47c1.89-8.14-3.72-15.64-4.31-23.91,4.81,5.01,11.71,12.51,14.2,19.21,1.58,4.24.72,8.21,1.64,11.25,1.12,3.7,7.3,5.14,1.73,9.23l-11.98-1.51Z"/>
      <path class="st0" d="M540.66,757.34l1.59,8.67-11.12.02c-.84,4.06,3.91,5.12,4.51,8.19.69,3.52-4.06,6.54,3.4,6.53l-2.33,6.09c-11.14-3.32-7.25-7.22-10.99-10.57-2.06-1.85-5.94-.24-5.73-3.29l12.71,1.7c.16-3.17-4.4-2.1-5.98-3.75-.28-.29-1.52-7.82-1.29-8.36l3.27-3.1,6.28,3.2,5.67-5.34Z"/>
      <path class="st0" d="M597.94,997.13l-1.58,5.19,4.75-1.73,3.16,13.04c-3.92,4.53-9.48,4.4-7.92-2.62l-6.35,1.76,6.35,6.07c-13.64.16-14.48-6.23-7.93-18.24l3.13,7.52,4.81,1.13-3.18-12.13h4.77Z"/>
      <rect class="st0" x="588.41" y="1007.55" width="1.56" height="3.46"/>
      <path class="st0" d="M583.62,805.99l-1.6,10.41c-4.35-2.98-8.89-4.51-14.11-3.26l-1.1,8.53,7.27,3.4-9.47-.06-4.06-15.53,5.57,3.44-1.56-6.95,4.73,3.46c-.41-4.13,3.23-4.75,6.38-5.22-.64-3.69-6.15.22-.78-5.18l2.31,7.89,6.43-.94Z"/>
      <polygon class="st0" points="575.67 807.74 572.5 807.73 572.51 811.2 575.67 807.74"/>
      <path class="st0" d="M579.65,809.46v1.74c1.03-.58,1.03-1.16,0-1.74Z"/>
      <path class="st0" d="M508.66,929.65c.77,1.49-2.13,5.4-1.2,8.88.76,2.84,7.88,6.38,1.42,9.92-4.99-14.02-11.8-28.24-12.73-43.43,8.43,3.85,4.91,15.12,8.22,21.46,1.23,2.37,4.05,2.69,4.29,3.16Z"/>
      <path class="st0" d="M526.37,845.93l-4.79,3.48,6.38.02-.02,6.94-5.53-1.76-.81,3.47c8.51,1.32,3.09,7.08,3.13,11.21,0,1.07,2.34.8,2.77,1.89,1.2,3.02,2.64,7.96,3.63,11.25l-8.46-10.83c-.09-9.24-3.21-18.25-5.83-26.55l4.74-.85.79-5.2,4.01,6.93Z"/>
      <path class="st0" d="M491.74,869.85c1.77,1.93,6.8.86,9.15.44l-1.69,4.22,3.28,1.84c-2.55,3.68-7.17,4.42-6.38-.85l-6.33,5.2-3.19-17.37c4.79-1.21,3.79,5.03,5.15,6.51Z"/>
      <path class="st0" d="M544.1,772.76l4.55.22c-3.33,4.66.48,6.88.8,9.53.24,1.94-1.18,4.45-.82,6.82.51,3.38,4.1,5.61,3.18,9.7l-9.05-15.27c-.65-4.63-4.13-13.31,1.09-15.98l.26,4.99Z"/>
      <path class="st0" d="M655.21,998.87c-2.3,10.01-7.31,3.85-13.61,6.71l-3.13,8.87-5.52,1.77c-.31-12.66,13.32-15.25,22.26-17.35Z"/>
      <path class="st0" d="M603.43,928.6c2.2,2.52,3.45,4.85,7.1,4.33l-1.47,10.32c-7.16-3.98-8.59-11-9.51-19.11,1.97.31,2.55,2.94,3.88,4.46Z"/>
      <path class="st0" d="M588.39,911.97c-6.26,2.65-3.24.4-6.1-1.57-4.07-2.81-3.1,2.83-1.83-8.83l-5.28.02-1.07-5.24c6.96,1.73,12.03,8.28,14.29,15.63Z"/>
      <path class="st0" d="M514.94,898.45c1.32.84,3.61,10.27,9.81,8.33l-6.38,8.66-3.11-.85c3.55-6.72-1.74-10.29-4.8-15.66.22-1.65,3.54-1.08,4.48-.48Z"/>
      <path class="st0" d="M558.18,748.65l-.82,5.17,3.19-5.17,2.29,2.57c-3.14,6.37-.57,11-7.95,14.08l3.27,12.88h-4.76s-.13-5.03-.13-5.03l-3.03.74c2.64-3.77,3.03-9.59,4.82-13.52.94-2.06,3.82-.04,3.12-3.89-.09-.49-5.3-3.53-4.79-7.81h4.78Z"/>
      <path class="st0" d="M672.7,1005.8c-2.77-.72-1.61-3.47-5.43-5.42-4.41-2.24-5.32-.74-8.86,1.95-.08-7.69,7.59-6.28,12.7-8.69l1.59,12.16Z"/>
      <path class="st0" d="M598.35,918.65l2.74.3-3.13,3.45c-1.08-7.74-5.47-12.82-3.19-20.85,6.17,3.34,4.35,11.37,3.57,17.1Z"/>
      <path class="st0" d="M591.57,958.88c-7.71-1.12-3.8-18.58-3.16-24.31l3.16,24.31Z"/>
      <path class="st0" d="M648.84,1023.18c-5.79-4.26-9.68,5.52-14.27-.86l11.97-3.78,2.3,4.64Z"/>
      <path class="st0" d="M651.92,977.87c-9.53,4.15-5.32-5.38-3.04-10.29l3.04,10.29Z"/>
      <path class="st0" d="M690.71,993.05c1.4.84,2.78.66,4.28.61-2.27,6.02-8.36,2.82-12.72,1.7l7.18-5.19c.99-.42.51,2.42,1.27,2.88Z"/>
      <path class="st0" d="M531.14,934.56l-.8,10.43c-2.1-4.34-3.63-7.31-7.17-10.4l7.96-.03Z"/>
      <polygon class="st0" points="672.69 1026.65 669.63 1024.21 671.93 1007.55 672.69 1026.65"/>
      <path class="st0" d="M573.08,795.04c.26.6,6.53,1.18.19,2.31-6.1-1.12-4.47-7.13-5.54-12.21,3.88,1.52,3.85,6.43,5.35,9.9Z"/>
      <polygon class="st0" points="504.07 349 497.81 345.35 501.71 336.85 504.07 349"/>
      <path class="st0" d="M527.94,574.88l1.58,13.91c-4.61.06-6.02-19.86-1.58-13.91Z"/>
      <polygon class="st0" points="494.51 882.45 497.72 889.37 491.37 891.12 491.35 883.31 494.51 882.45"/>
      <path class="st0" d="M593.17,915.47c.56.56-6.01,12.92-7.95,6.05-.14-.49,5.51-.47,1.6-7.81l6.35,1.75Z"/>
      <polygon class="st0" points="631.35 953.66 625.78 950.5 621.79 958.89 617.2 954.51 625 950.18 623.41 944.99 626.6 943.27 631.35 953.66"/>
      <path class="st0" d="M542.25,670.45c-3.56-1.5-4.94-6.57-4.74-10.42,4.14,1.73,5.29,5.84,4.74,10.42Z"/>
      <path class="st0" d="M537.49,852.92l-.78,8.66c-5.98-1.85-5.66-8.18.78-8.66Z"/>
      <path class="st0" d="M494.56,390.7c-.63-5.09,5.22-11.99,9.5-6.06-4.9-.63-5.73,4.12-9.5,6.06Z"/>
      <path class="st0" d="M653.63,1068.35v-6.93c6.33.04,6.25,6.94,0,6.93Z"/>
      <path class="st0" d="M628.16,1024.94c-1.58,3.72-13.32,2.06-14.3-1.74l14.3,1.74Z"/>
      <polygon class="st0" points="680.66 1054.45 677.49 1054.45 677.5 1044.04 679.06 1044.04 680.66 1054.45"/>
      <path class="st0" d="M521.57,597.48h-4.74c-.65-3.32,2.04-4.7,3.97-6.95l.77,6.95Z"/>
      <path class="st0" d="M543.84,851.16l-7.93-1.75v-1.7s5.36-1.55,5.36-1.55c2.05,1.07,3.04,2.54,2.57,5Z"/>
      <path class="st0" d="M650.44,934.55h-3.17s0-8.67,0-8.67c3.91.94,1.87,5.57,3.16,8.67Z"/>
      <path class="st0" d="M542.26,837.27c2.28,2.32-2.91,6.36-6.35,3.45.03-2.95,5.21-4.61,6.35-3.45Z"/>
      <polygon class="st0" points="499.3 868.53 494.55 868.53 494.54 865.08 499.3 863.32 499.3 868.53"/>
      <path class="st0" d="M636.12,932.82h-3.16s0-6.94,0-6.94c3.16.93,3.57,3.7,3.16,6.94Z"/>
      <path class="st0" d="M685.44,1021.46c-.85,3.45-3.39,3.9-6.35,3.45v-3.46s6.35,0,6.35,0Z"/>
      <polygon class="st0" points="542.38 826.86 539.86 833.75 540.69 823.36 547.01 827.72 542.38 826.86"/>
      <path class="st0" d="M631.34,938.03h-3.16c-.38-3.2-.06-5.06,2.39-6.93l.78,6.93Z"/>
      <path class="st0" d="M642.48,931.1v5.2c-5.83-.03-5.83-5.17,0-5.2Z"/>
      <path class="st0" d="M554.98,990.18l-.78,6.93c-2.45-1.87-2.77-3.73-2.39-6.93h3.16Z"/>
      <path class="st0" d="M559.76,788.61l3.22.85c.59,6.35-1.99,5.91-4.81.89.08.09,1.14-1.29,1.59-1.74Z"/>
      <path class="st0" d="M559.76,788.61c-.41.49-1.67,1.65-1.59,1.74-.17-.31-1.41-.33-1.47-1.04l3.05-4.17v3.48Z"/>
      <polygon class="st0" points="583.63 651.32 577.28 653.08 577.26 649.62 583.61 647.87 583.63 651.32"/>
      <rect class="st0" x="529.55" y="884.18" width="3.17" height="5.2"/>
      <path class="st0" d="M504.08,830.33c-.46,3.48-4.86.09-5.54,5.2l-5.58-3.5,11.11-1.7Z"/>
      <polygon class="st0" points="516.83 924.14 515.24 917.19 519.96 921.53 516.83 924.14"/>
      <path class="st0" d="M523.16,604.42l-4.75-2.6,2.38-2.58c1.7,1.55,2.89,2.63,2.37,5.18Z"/>
      <polygon class="st0" points="524.75 606.16 526.35 614.84 521.8 608.59 524.75 606.16"/>
      <path class="st0" d="M704.51,1000.59l-4.76-5.2c3.01-.57,5.29,2.03,4.76,5.2Z"/>
      <polygon class="st0" points="577.26 739.94 572.51 741.69 572.49 738.24 576.48 736.49 577.26 739.94"/>
      <rect class="st0" x="582.05" y="713.9" width="1.56" height="8.67"/>
      <polygon class="st0" points="524.76 778.19 523.98 783.39 521.6 780.76 521.59 778.19 524.76 778.19"/>
      <polygon class="st0" points="502.49 821.61 496.14 821.6 496.14 819.91 500.12 818.2 502.49 821.61"/>
      <polygon class="st0" points="574.08 880.72 572.47 887.64 570.92 887.64 570.91 880.71 574.08 880.72"/>
      <path class="st0" d="M527.93,534.92c-.61.84-4.21-3.03-3.15-5.21.61-.84,4.21,3.03,3.15,5.21Z"/>
      <rect class="st0" x="539.09" y="884.18" width="3.16" height="3.46"/>
      <path class="st0" d="M526.34,647.86c-.61.84-4.21-3.03-3.15-5.21.61-.84,4.21,3.03,3.15,5.21Z"/>
      <polygon class="st0" points="596.34 892.87 596.34 898.07 594.78 898.06 593.17 892.88 596.34 892.87"/>
      <path class="st0" d="M567.72,713.88c-1.99,1.16-5.54-2.78-4.77-3.44,1.99-1.16,5.54,2.78,4.77,3.44Z"/>
      <polygon class="st0" points="559.76 736.49 559.75 739.96 555 738.2 555 736.5 559.76 736.49"/>
      <rect class="st0" x="548.64" y="729.54" width="3.16" height="3.46"/>
      <polygon class="st0" points="594.76 991.92 591.6 995.38 591.59 991.91 594.76 991.92"/>
      <polygon class="st0" points="554.99 783.38 551.82 783.39 551.83 779.92 554.99 783.38"/>
      <polygon class="st0" points="593.17 976.25 590 976.26 590.01 972.79 593.17 976.25"/>
      <rect class="st0" x="850.9" y="826.84" width="1.56" height="5.2"/>
      <polygon class="st0" points="488.18 840.75 485.01 844.21 485 840.75 488.18 840.75"/>
      <polygon class="st0" points="574.08 958.87 570.91 958.88 570.92 955.42 574.08 958.87"/>
      <polygon class="st0" points="567.72 731.25 564.54 731.26 564.55 727.79 567.72 731.25"/>
      <polygon class="st0" points="551.8 712.15 548.64 711.29 551.79 708.68 551.8 712.15"/>
      <rect class="st0" x="664.77" y="1064.89" width="1.56" height="5.2"/>
      <polygon class="st0" points="564.54 632.21 561.36 632.22 561.37 628.75 564.54 632.21"/>
      <polygon class="st0" points="502.49 896.35 501.71 899.81 499.31 896.36 502.49 896.35"/>
      <polygon class="st0" points="572.49 613.13 569.32 616.59 569.32 613.12 572.49 613.13"/>
      <polygon class="st0" points="550.22 611.36 547.05 611.37 547.05 607.9 550.22 611.36"/>
      <polygon class="st0" points="569.31 604.44 566.14 607.9 566.14 604.43 569.31 604.44"/>
      <rect class="st0" x="575.69" y="600.96" width="1.56" height="5.2"/>
      <polygon class="st0" points="567.72 592.28 564.55 595.74 564.54 592.27 567.72 592.28"/>
      <rect class="st0" x="551.83" y="913.72" width="1.56" height="5.2"/>
      <rect class="st0" x="702.95" y="1049.25" width="1.56" height="3.46"/>
      <rect class="st0" x="561.37" y="929.36" width="1.56" height="3.46"/>
      <rect class="st0" x="567.73" y="595.75" width="3.17" height="1.7"/>
      <rect class="st0" x="582.05" y="611.38" width="1.56" height="3.46"/>
      <rect class="st0" x="556.6" y="616.6" width="1.56" height="3.46"/>
      <rect class="st0" x="524.78" y="618.33" width="1.56" height="3.46"/>
      <rect class="st0" x="847.72" y="317.73" width="1.56" height="3.46"/>
      <rect class="st0" x="534.32" y="936.32" width="3.17" height="1.7"/>
      <rect class="st0" x="572.51" y="891.13" width="1.56" height="3.46"/>
      <rect class="st0" x="566.14" y="637.45" width="1.56" height="3.46"/>
      <rect class="st0" x="671.14" y="1035.35" width="1.56" height="3.46"/>
      <rect class="st0" x="527.96" y="651.35" width="1.56" height="3.46"/>
      <path class="st0" d="M567.7,661.75c-.82,1.97-3.52-4.8-3.15-6.93.82-1.97,3.52,4.8,3.15,6.93Z"/>
      <rect class="st0" x="529.55" y="656.56" width="1.56" height="3.46"/>
      <rect class="st0" x="534.32" y="873.77" width="3.17" height="1.7"/>
      <rect class="st0" x="823.86" y="1021.45" width="1.56" height="3.46"/>
      <rect class="st0" x="534.32" y="868.56" width="3.17" height="1.7"/>
      <rect class="st0" x="652.04" y="1019.72" width="3.17" height="1.7"/>
      <rect class="st0" x="446.82" y="946.75" width="3.17" height="1.7"/>
      <rect class="st0" x="456.38" y="948.47" width="1.56" height="3.46"/>
      <rect class="st0" x="529.55" y="948.47" width="1.56" height="3.46"/>
      <rect class="st0" x="575.69" y="717.38" width="1.56" height="3.46"/>
      <rect class="st0" x="574.09" y="733.02" width="3.17" height="1.7"/>
      <rect class="st0" x="515.23" y="839.02" width="3.17" height="1.7"/>
      <rect class="st0" x="491.37" y="835.54" width="3.17" height="1.7"/>
      <rect class="st0" x="543.87" y="752.13" width="1.56" height="3.46"/>
      <rect class="st0" x="550.23" y="755.61" width="3.17" height="1.7"/>
      <rect class="st0" x="702.95" y="1002.34" width="1.56" height="3.46"/>
      <rect class="st0" x="583.64" y="1000.6" width="1.56" height="3.46"/>
      <rect class="st0" x="577.28" y="779.93" width="1.56" height="3.46"/>
      <rect class="st0" x="639.31" y="972.81" width="3.17" height="1.7"/>
      <rect class="st0" x="547.05" y="976.28" width="1.56" height="3.46"/>
      <path class="st0" d="M557.38,781.66c1.03.58,1.03,1.16,0,1.74v-1.74Z"/>
      <path class="st0" d="M506.47,816.41c1.03.58,1.03,1.16,0,1.74v-1.74Z"/>
      <path class="st0" d="M581.24,818.15c1.03.58,1.03,1.16,0,1.74v-1.74Z"/>
      <path class="st0" d="M490.56,819.89c1.03.58,1.03,1.16,0,1.74v-1.74Z"/>
      <path class="st0" d="M490.58,830.35c1.58,1.14-.74,2.3-1.62,3.41l-.75-.82,2.37-2.59Z"/>
      <path class="st0" d="M549.42,750.38c1.03.58,1.03,1.16,0,1.74v-1.74Z"/>
      <path class="st0" d="M531.92,832.05c1.03.58,1.03,1.16,0,1.74v-1.74Z"/>
      <path class="st0" d="M576.47,837.26c1.03.58,1.03,1.16,0,1.74v-1.74Z"/>
      <path class="st0" d="M551.01,738.22c1.03.58,1.03,1.16,0,1.74v-1.74Z"/>
      <path class="st0" d="M842.14,842.47c1.03.58,1.03,1.16,0,1.74v-1.74Z"/>
      <path class="st0" d="M562.15,726.06c1.03.58,1.03,1.16,0,1.74v-1.74Z"/>
      <path class="st0" d="M574.88,724.32c1.03.58,1.03,1.16,0,1.74v-1.74Z"/>
      <path class="st0" d="M573.29,719.11c1.03.58,1.03,1.16,0,1.74v-1.74Z"/>
      <path class="st0" d="M563.74,847.69c1.03.58,1.03,1.16,0,1.74v-1.74Z"/>
      <path class="st0" d="M574.88,713.89c1.03.58,1.03,1.16,0,1.74v-1.74Z"/>
      <path class="st0" d="M842.14,851.16c1.03.58,1.03,1.16,0,1.74v-1.74Z"/>
      <path class="st0" d="M578.06,712.16c1.03.58,1.03,1.16,0,1.74v-1.74Z"/>
      <path class="st0" d="M560.56,712.16c1.03.58,1.03,1.16,0,1.74v-1.74Z"/>
      <path class="st0" d="M555.79,854.64c1.03.58,1.03,1.16,0,1.74v-1.74Z"/>
      <path class="st0" d="M554.2,706.94c1.03.58,1.03,1.16,0,1.74v-1.74Z"/>
      <path class="st0" d="M536.7,863.32c1.03.58,1.03,1.16,0,1.74v-1.74Z"/>
      <path class="st0" d="M576.47,866.8c1.03.58,1.03,1.16,0,1.74v-1.74Z"/>
      <path class="st0" d="M571.69,868.54c1.03.58,1.03,1.16,0,1.74v-1.74Z"/>
      <path class="st0" d="M552.6,675.67c1.03.58,1.03,1.16,0,1.74v-1.74Z"/>
      <path class="st0" d="M539.86,672.23c.88,1.11,3.2,2.26,1.62,3.41-.77-1.02-3.19-2.2-1.62-3.41Z"/>
      <path class="st0" d="M571.68,875.52c.88,1.11,3.2,2.26,1.62,3.41-.77-1.02-3.19-2.2-1.62-3.41Z"/>
      <path class="st0" d="M582.83,666.98c1.03.58,1.03,1.16,0,1.74v-1.74Z"/>
      <path class="st0" d="M536.7,878.96c1.03.58,1.03,1.16,0,1.74v-1.74Z"/>
      <path class="st0" d="M551.03,665.28c1.58,1.14-.74,2.3-1.62,3.41l-.75-.82,2.37-2.59Z"/>
      <path class="st0" d="M582.83,661.77c1.03.58,1.03,1.16,0,1.74v-1.74Z"/>
      <path class="st0" d="M501.71,882.47c1.58,1.14-.74,2.3-1.62,3.41l-.75-.82,2.37-2.59Z"/>
      <path class="st0" d="M539.88,656.55c1.03.58,1.03,1.16,0,1.74v-1.74Z"/>
      <path class="st0" d="M558.97,649.6c1.03.58,1.03,1.16,0,1.74v-1.74Z"/>
      <path class="st0" d="M579.65,884.18c1.03.58,1.03,1.16,0,1.74v-1.74Z"/>
      <path class="st0" d="M530.33,632.23c1.03.58,1.03,1.16,0,1.74v-1.74Z"/>
      <path class="st0" d="M581.24,889.39c1.03.58,1.03,1.16,0,1.74v-1.74Z"/>
      <path class="st0" d="M520.79,630.49c1.03.58,1.03,1.16,0,1.74v-1.74Z"/>
      <path class="st0" d="M565.33,625.28c1.03.58,1.03,1.16,0,1.74v-1.74Z"/>
      <path class="st0" d="M560.56,625.28c1.03.58,1.03,1.16,0,1.74v-1.74Z"/>
      <path class="st0" d="M519.2,625.28c1.03.58,1.03,1.16,0,1.74v-1.74Z"/>
      <path class="st0" d="M536.7,898.08c1.03.58,1.03,1.16,0,1.74v-1.74Z"/>
      <path class="st0" d="M535.12,903.32c1.58,1.14-.74,2.3-1.62,3.41l-.75-.82,2.37-2.59Z"/>
      <path class="st0" d="M568.51,618.33c1.03.58,1.03,1.16,0,1.74v-1.74Z"/>
      <path class="st0" d="M563.74,618.33c1.03.58,1.03,1.16,0,1.74v-1.74Z"/>
      <path class="st0" d="M552.6,602.69c1.03.58,1.03,1.16,0,1.74v-1.74Z"/>
      <path class="st0" d="M590.78,910.24c1.03.58,1.03,1.16,0,1.74v-1.74Z"/>
      <path class="st0" d="M516.02,590.52c1.03.58,1.03,1.16,0,1.74v-1.74Z"/>
      <path class="st0" d="M512.83,911.98c1.03.58,1.03,1.16,0,1.74v-1.74Z"/>
      <path class="st0" d="M517.61,925.88c1.03.58,1.03,1.16,0,1.74v-1.74Z"/>
      <path class="st0" d="M517.61,531.45c1.03.58,1.03,1.16,0,1.74v-1.74Z"/>
      <path class="st0" d="M525.56,526.23c1.03.58,1.03,1.16,0,1.74v-1.74Z"/>
      <path class="st0" d="M519.2,939.78c1.03.58,1.03,1.16,0,1.74v-1.74Z"/>
      <path class="st0" d="M570.1,941.52c1.03.58,1.03,1.16,0,1.74v-1.74Z"/>
      <path class="st0" d="M539.88,950.2c1.03.58,1.03,1.16,0,1.74v-1.74Z"/>
      <path class="st0" d="M570.1,950.2c1.03.58,1.03,1.16,0,1.74v-1.74Z"/>
      <path class="st0" d="M662.37,950.2c1.03.58,1.03,1.16,0,1.74v-1.74Z"/>
      <path class="st0" d="M692.6,955.42c1.03.58,1.03,1.16,0,1.74v-1.74Z"/>
      <path class="st0" d="M530.33,957.15c1.03.58,1.03,1.16,0,1.74v-1.74Z"/>
      <path class="st0" d="M555.79,957.15c1.03.58,1.03,1.16,0,1.74v-1.74Z"/>
      <path class="st0" d="M606.69,957.15c1.03.58,1.03,1.16,0,1.74v-1.74Z"/>
      <path class="st0" d="M683.05,958.89c1.03.58,1.03,1.16,0,1.74v-1.74Z"/>
      <path class="st0" d="M530.33,965.84c1.03.58,1.03,1.16,0,1.74v-1.74Z"/>
      <path class="st0" d="M522.38,967.58c1.03.58,1.03,1.16,0,1.74v-1.74Z"/>
      <path class="st0" d="M571.69,972.79c1.03.58,1.03,1.16,0,1.74v-1.74Z"/>
      <path class="st0" d="M644.87,979.74c1.03.58,1.03,1.16,0,1.74v-1.74Z"/>
      <path class="st0" d="M671.92,981.48c1.03.58,1.03,1.16,0,1.74v-1.74Z"/>
      <path class="st0" d="M663.96,983.22c1.03.58,1.03,1.16,0,1.74v-1.74Z"/>
      <path class="st0" d="M684.64,983.22c1.03.58,1.03,1.16,0,1.74v-1.74Z"/>
      <path class="st0" d="M692.6,990.17c1.03.58,1.03,1.16,0,1.74v-1.74Z"/>
      <path class="st0" d="M501.7,357.69c1.03.58,1.03,1.16,0,1.74v-1.74Z"/>
      <path class="st0" d="M581.24,1011.02c1.03.58,1.03,1.16,0,1.74v-1.74Z"/>
      <path class="st0" d="M659.19,1023.18c1.03.58,1.03,1.16,0,1.74v-1.74Z"/>
      <path class="st0" d="M870.77,1023.18c1.03.58,1.03,1.16,0,1.74v-1.74Z"/>
      <path class="st0" d="M628.96,1037.08c1.03.58,1.03,1.16,0,1.74v-1.74Z"/>
      <path class="st0" d="M611.47,1044.03c1.03.58,1.03,1.16,0,1.74v-1.74Z"/>
      <path class="st0" d="M665.55,1049.25c1.03.58,1.03,1.16,0,1.74v-1.74Z"/>
      <path class="st0" d="M695.78,1049.25c1.03.58,1.03,1.16,0,1.74v-1.74Z"/>
      <path class="st0" d="M703.73,1057.93c1.03.58,1.03,1.16,0,1.74v-1.74Z"/>
      <path class="st0" d="M641.69,1063.15c1.03.58,1.03,1.16,0,1.74v-1.74Z"/>
      <path class="st0" d="M821.46,256.91c1.03.58,1.03,1.16,0,1.74v-1.74Z"/>
      <path class="st0" d="M633.74,1064.88c1.03.58,1.03,1.16,0,1.74v-1.74Z"/>
      <path class="st0" d="M681.46,1068.36c1.03.58,1.03,1.16,0,1.74v-1.74Z"/>
      <path class="st0" d="M714.06,865.06l1.59,8.68c-2.71.3-2.07-5.58-4.74-7.82l3.15-.85Z"/>
      <polygon class="st0" points="710.88 873.74 707.72 872.89 710.88 870.28 710.88 873.74"/>
      <path class="st0" d="M716.46,865.06c1.03.58,1.03,1.16,0,1.74v-1.74Z"/>
      <path class="st0" d="M745.1,913.71c1.03.58,1.03,1.16,0,1.74v-1.74Z"/>
      <rect class="st0" x="710.9" y="976.29" width="3.17" height="1.7"/>
      <rect class="st0" x="714.09" y="684.36" width="1.56" height="3.46"/>
      <path class="st0" d="M530.33,491.48c1.03.58,1.03,1.16,0,1.74v-1.74Z"/>
    </g>
  </g>
</svg>