<?xml version="1.0" encoding="UTF-8"?>
<svg id="Layer_1" xmlns="http://www.w3.org/2000/svg" version="1.1" viewBox="0 0 1920 1080">
  <!-- Generator: Adobe Illustrator 29.5.1, SVG Export Plug-In . SVG Version: 2.1.0 Build 141)  -->
  <defs>
    <style>
      .st0 {
        fill: #fff;
      }
    </style>
  </defs>
  <g id="doaL8L.tif">
    <g>
      <path class="st0" d="M927.32,867.15c1.04-.12,2.14.1,3.18-.02-1.26-6-5.58-6.12-9.54-9.24l3.22-1.66c1.22-4.95-3-3.12-3.35-6.63-1.82-18.15,2.01-39.51.13-58.1,7.75-.8,3.5,11.55,4.78,13.44l4.74-3.36,4.13,38.77-5.72,2.44c-.36,7.27,6.03,5.51,6.39,5.87.41.41-2.67,8.79-.02,11.75l-5.58-6.7c-5.59-.64-.85,9.87.81,8.39l1.59-3.36,2.39,8.36,5.56-3.32v8.39l-2.35-3.36c-3.34,1.94-4.72,2.12-4.01,6.73l-1.59-3.35-4.74,3.36c-.23-2.76.27-5.66-.02-8.41-6.68.75,1.64,3.07-4.76,6.72v-11.77c4.04,1.81,4.33.93,4.76,5.04v.02Z"/>
      <polygon class="st0" points="930.49 825.11 930.49 821.76 927.33 824.29 930.49 825.11"/>
      <path class="st0" d="M929.71,830.17v1.68c1.03-.56,1.03-1.12,0-1.68Z"/>
      <path class="st0" d="M926.54,840.29l-2.37,2.5.75.79c.88-1.07,3.2-2.19,1.62-3.3h0Z"/>
      <path class="st0" d="M928.11,846.98v1.68c1.03-.56,1.03-1.12,0-1.68Z"/>
      <path class="st0" d="M877.99,505.68l3.18,84.06c-3.77,1.23-4.26-3.01-4.59-6.01-2.01-18.11-.71-38.91-1.66-57.01-.36-6.97-2.2-13.95-1.67-21.04h4.74Z"/>
      <path class="st0" d="M868.45,458.62l-7.93,115.98c-2.73-37.55,5.11-75.62,4.75-113.5l3.18-2.48Z"/>
      <path class="st0" d="M865.27,288.82c-1.08,11.45,2.69,23.43,3.25,34.53.2,4.02-1.92,7.68-1.77,11.68.16,4.52,6.79,12.97.89,15.97-5.55,2.82-2.88-14.52-2.95-15.67-.82-14.63-2.22-29.32-2.59-44.04l3.17-2.47h0Z"/>
      <path class="st0" d="M876.41,416.62c-.39,3.2-4.05,1.03-4.85,5.84-.52,3.13.54,17.67.95,21.86.33,3.39,6.68,16.57-.86,15.98v-15.13l-4.76,5.03c-2.44-4.75,2.57-12.73,2.57-14.28,0-1.05-2.57-3.44-2.74-6.72-.52-9.82,3.02-20.97,1.76-31.1,6.68,3.98-1.22,17.8,7.93,18.52h0Z"/>
      <path class="st0" d="M908.42,564.27l7.75-1.42v6.72l-7.93-1.68c-1.52,4.35,2.85,2.82,3.19,4.45.78,3.76-.6,9.04.09,13.12l-4.88.94,7.95,8.37c-8.01,1.04-3.85-8.78-12.7-1.66l3.15-8.42-3.09,1.62-1.67-4.96,6.35,1.67c1.45-1.79,1.42-12.31-2.36-10.09-2.19,1.29-1.36,5.31-3.98,5.03l1.52-12.37c.67-1.97,6.06-.11,4.85-4.41l1.75,3.09h0Z"/>
      <rect class="st0" x="903.47" y="567.9" width="1.56" height="3.35"/>
      <path class="st0" d="M901.07,369.51c2.46.24,6.58,3.22,10.34,1.7-.95,3.75-4.28,3.2-7.07,3.43-7.62.64-20.96-.54-28.73-1.81-2.76-.45-2.66.92-2.38-3.32,9.02.64,18.94-.88,27.84,0h0Z"/>
      <path class="st0" d="M885.96,651.96v33.62l-4.77-.02c3.74-10.45-1.91-22.25,0-33.62h4.77v.02Z"/>
      <path class="st0" d="M938.45,902.46c-.29,5.4-1.83,8.55-6.35,10.94l3.97-.87-.8,4.3-14.3,2.44v-8.41c4,1.4,17.11.04,13.48-5.06l-3.94,1.71-1.58-6.74c3.47,2.31,5.49,3.23,9.52,1.69h0Z"/>
      <path class="st0" d="M882.77,623.37c-4.18.39-2.62.2-3.12-2.52-1.4-7.71-1.14-15.02-.04-22.69,2.32-.3,2.85,4.4,3.02,6.02.65,6.34-.13,12.83.14,19.18h0Z"/>
      <path class="st0" d="M908.22,941.12l-4.75-2.54,3.13-1.64c-4.42-1.95-4.21-15.81-.76-15.95l2.38,20.13Z"/>
      <path class="st0" d="M854.13,396.42c-1.72,6.04-6.62,14.89-12.69,7.56,3.11-4.11,7.51-7.3,12.69-7.56Z"/>
      <path class="st0" d="M952.76,811.67l-5.54,10.08-7.16-11.75c5.09-.17,7.61,4.74,12.7,1.68h0Z"/>
      <path class="st0" d="M876.4,483.84l-2.35,15.11c-2.54-3.72-4.58-15.72,2.35-15.11Z"/>
      <path class="st0" d="M924.13,894.04c-6.9,1.01-.56-11.53-3.25-15.66l4.83-2.82-1.58,18.48Z"/>
      <path class="st0" d="M897.09,999.96c-.87,1.13-2.13,1.45-2.7-1.59-.78-4.12.95-9.7-.54-14.07l4.82-2.82-1.58,18.48h0Z"/>
      <path class="st0" d="M863.68,233.34c-.27,4.72,2.16,13.48-4.76,13.43.43-3.28-.82-14.34,4.76-13.43h0Z"/>
      <path class="st0" d="M902.19,527.21l2.84,1.09c-4.67,6.57-.9,13.99.01,21.08l-4.59-4.08-.16-26.16c5.27,1.24.96,6.28,1.9,8.07h0Z"/>
      <path class="st0" d="M868.44,376.23c-4.81-3.2-5.46-13.32-.77-16.8l.77,16.8Z"/>
      <path class="st0" d="M903.46,475.44c-2.17,4.91-2.78,11.17-.03,15.99l-3.14.82c.08-5.97-6.62-14.75,3.17-16.81h0Z"/>
      <path class="st0" d="M930.5,931.04v-1.68h1.59c-.09.06-.02,2.04-1.59,1.68Z"/>
      <path class="st0" d="M951.18,907.5c-.85-.42-1.84-.52-1.59-1.68.25.57,1.49,1.16,1.59,1.68Z"/>
      <path class="st0" d="M951.18,983.16c-1.74-.24-1.3,1.06-1.59,1.68-.67.5-2.97,1.96-3.17,1.68-.61-3.32,2.27-5.21,4.76-6.72.23.98-.23,2.39,0,3.36Z"/>
      <path class="st0" d="M940.05,762.92c.46,1.43,2.93,6.21-.77,5.02-8.84-4.84-8.31-12.53-7.17-21.83l4.75,1.68.07-8.93-6.42-2.81,4.79,4.19-4.77,2.52-1.63-8.41c-2.25-2.52-2.89.22-3.18,2.51-1.06,8.35,6.37,20.83-4.75,22.7,2.27-3.53-.95-8.18-.91-9.22.1-2.37,2.49-4.82,2.58-8.39.13-5.21-3.12-25.48,2.32-27.74l2.34,3.3,4.77-5.85c-4.5-.92-4.44-6.53-5.13-7.18-1.05-.99-3.79.48-4.46-1.43-1.63-4.58.14-15.93-.09-21.35-.99-24.14,3.32-61.27.01-82.54-.59-3.78-2.48-7.21-4.59-10.25l3.16.02c-.31-8.35,1.74-16.24-3.24-23.5,4.94-2.52,4.59-2.96,4.95-8.45.41-6.33.1-24.09-4.9-26.87,4.19-4.92,4.97-26.03,4.11-32.03-.27-1.91-4.23-4.45-4.31-7.41l-4.56,1.62-4.77-10.1,4.72.87-1.54-4.23,4.75,1.67-1.6-6.74-4.74,1.7,2.37-5.01,3.94,3.33,3.2-5.05,3.19,3.36-7.98-10.08-4.71,2.54,3.17-5.89c2.37-.62,1.45,1.99,2.45,3.19,6.6,7.95,7.62-6.82,6.95-12.29-.86-6.96-7.81-11.85-1.4-18.7,5.48-5.86,35.66,3.12,43.67,4.27,2.73-4.08-.05-5.24-3.05-6.87-11.2-6.07-26.06-6.94-38.33-6.56l-1.52,3.3c-3.56-2.61-5.16-6.94-7.98-10.15-1.48-1.68-9.63-3.7-.79-4.98l-2.39-6.7c5.6,2.75,6.28,20.35,13.5,12.61-6.25-5.38.4-14.38-1.78-21.64l-7.73-3.59,7.72-2.75-.84-14.56-5.31-2.03,1.62-5.02-7.97-1.72c1.91-5.79,7.2-.87,11.13-1.66l-.09-15.04c-11.83-2.12-23.71.34-35.81-.09-2.07-.07-13.45.08-13.38-2.53,1.86-3.21,3.24-1.81,5.55-1.92,11.45-.53,22.64,1.15,34.18,1.07l-3.13-6.68,5.46-3.48,4.03,3.41-4.73,4.24,7.9,4.19c-1.87-10.93,1.45-22.19,1.62-32.79.04-2.87-1.6-5.53-1.62-8.41-.03-3.38,3.04-8.28.97-11.06l-5.71-2.38c10.31-4.85,3.85-22.18,6.25-31.77l6.47-3.55-4.76-5.86c5.68-2.28,10.56-2.1,16.03.85,1.84,1.42-2.4,7,4.63,3.35l-3.17-4.19,109.69.07,17.29,98.77c-5.94,12.24.14,8.89,2.18,14.43,1.81,4.92,7.33,39.6,7.65,45.84.15,2.86-2.5,1.9-3.05,3.56-.83,2.51-.04,8.34-3.29,8.79l-1.61-17.66c-1.01-1.58-2.81,1-3.03,1.89-1.71,6.83,1.45,24.59-.16,32.59l-4.75-5.03v10.07l4.75-1.69,1.59,6.73-7.94-3.35.15,5.71,5.98,2.9,2.61,11.55,3.77-5.83-1.39-4.23,11.12-.02c1.12-7.55-10.32-4.16-11.14-5.04-1.98-5.95,2.54-6.65,2.71-7.05.43-1.02-1.46-3.1-.42-4.73.82-1.28,4.21-1.19,4.2-2.59-.02-2.63-7.83-16.91,1.46-17.56l58.17,343.06,5.32-.27,84.65-512.41,136.64,2.34v100.03c-3.09-.53-1.87-5.12-5.86-6.41-5.68-1.84-16.95.41-23.65-.21-3.36-.31-5.91-3.44-7.55-3.16-1.32.23-2.95,2.74-5.15,3-9.63,1.16-23.15-1.46-22.77,13.27,1.21.15,3.17,1.92,3.75,1.92h58.86c.48,0,1.22-2.13,2.39-1.68v88.26h-6.33l4.71-6.74c-5.35-.84-5.73-10.83-4.69-14.9.2-.76,8.24-2.98.2-4.62l2.92-9.87c-11.97-.78-20.99-.44-31.8,5.05l13.66,3.16c3.72,1.23,8.48-5.69,11.04-1.51,2.39,3.91-4.22,25.73-.86,31.95l-4.74-3.36-3.19,3.35,1.49-4.89-3.08-1.81,4.75-2.52c-5.5-2.77-5.36-4.58-4.75-10.96l-44.56.02c-.65,25.9,31.64,4.96,42.95,17.65-9.2,4.28-20.7-2.5-28.6,5.04l2.57,2.29,37.15.22v11.77l-7.94-1.66,7.89,3.41.07,6.67,4.75-.02c1.87-8.94-3.94-18.51,6.37-23.53l.02,116.01-7.8-.18-4.93-18.32h-49.32c1.99,7.9-4.17,16.43-3.92,23.62.3,8.65,3.39,23.7,13.45,23.46,3.24-26.81,34.16-23.73,39.82-.01,6.97.63,6.67-11.99,12.7-11.76v240.42h-63.63v47.07h63.63v134.5l-100.22,1.68V436.76l-5.56,1.68-86.6,567.52h-65.43l-3.5-33.29c-10.71-49.88-16.87-102.81-24.34-152.5-19.29-128.3-37.52-257.08-57.99-385.1h-4.74l-.02,342.96c-2.77.4-1.5-3.82-1.57-5.85-.15-4.21.85-11.56.04-14.82-.47-1.89-4.05-1.68-4.56-3.8-1.65-6.88,1.7-25.22,1.26-33.42-.41-7.72-3.68-16.32-3.13-24.47l-4.77,10.1-4.77-.85,3.2,9.23,6.34-1.68c2.23,6.26-2.35,12.21-2.87,16.34-1.24,9.9-1.47,6.69-3.29,13.45-1.15,4.28,4.04,9.34-1.75,13.09,1.32,3.06,7.05,3.24,7.93,5.05,2.02,4.21-6.03-1.19-4.83,6.72.1.68,3.09.71,3.3,1.91.64,3.62-2.55,11.73-2.48,16.65.12,9.09,4.45,25.38,3.54,35.02-.47,5.01-6.38,9.47-6.02,17,.2,4.2,3.05,6.92,3.27,10.19.34,5.2-4.82,11.88,6.39,7.49l.03,5.04h-5.57v5.02l-2.4-8.36c-3.58-1.92-5.69,6.63-7.15,6.68l-4.77-4.98c-3.96,3.23-2.09,8.86-2.37,13.41l3.21-.82-3.22,20.99c4.79.8,2.63-1.24,3.17-4.26.73-4.06.45-8.51,1.61-12.54,4.47-.94,2.88,1.58,3.29,4.84,4.36-2.3,3.65,2.28,5,3.26.84.61,5.77-2.15,7.6,2.83l-6.37.84c1.35,4.18,1.19,5.78-2.4,8.39l-5.54-3.33c3.06,3.18,4.43,8.63,6.36,11.75h-4.76c.9,11.23,5.21,12.41,4.76,0,.33.54,5.04.12,1.97,9.23l4.38,5.89-1.57-16.79c7.54-1.35-1.12,13.47,6.35,11.74.49-5.65-.66-12.18,0-17.67.37-3.07-.54-2.72,3.18-2.49v112.64h-77.95l3.18-4.19-6.38-1.69,3.19-3.35c-4.89-3.12-5.48-9.08-11.96-4.24l-1.55-5.01-2.31,9.19,4.65,1.71c-7.29,4.99-.58,15.81-7.91,15.98l.04-12.24c-4.05-.37-6.53-5.99-7.23-6.26-4.4-1.7-.23,10.55-.76,11.77l1.54-3.82,3.23-.35c-1,5.33-1.93,9.4-7.97,9.22l1.65-7.43c-5.9-1.27-1.02-8.02-2.02-11.9-.5-1.97-8.7-5.7-1.23-14.27-5.51-1.4-1.26,6.91-6.36.82,6.74-2.51,4.66-7.89,4.78-14.28,4.83,3.02,2.16,11.48,3.32,17.45.65,3.37,2.53,6.09,3.04,9.45l4.74-3.36.04,10.08c7.8.88-1.44-16.18,6.33-15.15l-3.24-2.75c.7-4.01,2.26-12.71-3.09-12.39-2.56-3.95,19.87-4.5,16.7,3.43-1.17,2.92-5.3,3.12-2.41,10.06l-3.16-1.71c-.42,4.39,0,8.93,4.76,8.4-3.65-3.49-2.61-7.56,1.57-10.06.02,7.29,6.93,11.37,11.98,15.14l3.94-3.37-.8,6.7c6.75-7.48-2.35-6.62.8-13.44.31-.23,1.84.22,1.59-1.68,1.06,4.41,2.64,8.86,3.22,13.44l3.13-1.7,1.59,5.06-1.58-26.88-3.14.8,1.55,9.27-1.59-5.05c-.22-.33-2.49,1.29-3.17,1.7-.62-2.65-2.23-5.17-1.61-8.4-3.16.3.15,4.71-4.53,2.02l-1.8,3.01-1.6-8.39c3.74,2.61,8.88-1.27,10.33-1.15,1.59.13,3,3.47,3.95,2.8.14-.1-.47-2.92,1.06-3.36,3.21-.92,15.36,1,16.47,0v-10.07c-10.54,1.2-21.4,2.49-31.82-.03l.05-9.24,4.71.86-4.41-5.76,1.24-6c-7.5-.06-1.13,12.48-7.15,16.77-5.25-5.04-4.08-15.64-11.92-15.09-1.42,1.66,4.41,15.12-1.58,16.8.55-11.86.16-22.36-1.61-33.63.87-.94,17.76,1.2,20.69,1.69-.04,1.11-.07,2.22.02,3.33,3.3.54,3.6.16,3.15-3.32-1.03-.17-2.19.16-3.17,0,.21-5.34,0-8.96,6.35-8.42l-3.16-2.65.8-7.44,3.96-1.65c.25,1.02-.29,2.69,0,3.36-5.53,4.42,2.9,8.48,1.59,1.68,5.86,2.87,10.91,7.1,1.6,10.11l4.78.84c-1.38,4.44-.95,13.95-4.79,15.95-.1-2.56.12-10.06.03-10.62-.78-4.76-9.93-1.97-4.82,7.25l-3.12-.88-.04,5.92,2.37-3.34c2.25,2.81,2.71,3.17,5.58,1.67.16,3.91-.13,7.87,0,11.78l4.75-1.24,4.52-5.8-1.31-3.05,4.74.84-6.3-3.36,6.33-4.24-6.4-7.51,4.81.79v-16.79l-3.98,6.71-5.53-5.88c1.74-3.64,4.84-1.07,6.4-1.81,4.49-2.12,5.26-11.17,4.7-15.84l-6.34,1.67-.81-10.1-.81,8.42-5.59-3.37-3.94,3.36c1.5-5.27,2.65-5.83,7.95-5.04-4.79-6-.45-7.14-.01-13.43l-4.75,1.68,1.56-8.39c-2.66-.39-2.06,4.82-3.95,5.01-.58.06-5.65-2.14-3.98-5.02l4.74,1.69,2.4-10.12.71,5.58,4.08,2.8,1.58-13.41-3.97,3.35-.07-5.89,3.61-.86,1.2-3.33c-5.45,2.43-4.69-1.14-7.93-3.35l1.68,5.8-3.28,1.75,3.15,3.37c-6.82,6.85-10.57,5.18-12.71-4.17,6.24-.38,7.34-4,9.52-9.3l-9.5,2.55v-18.49c5.16,1.31,3.47,7.52,3.92,8.42,1.06,2.16,3.63-.13,4.02-.03-.06.91-.08,3.1.79,3.42l3.98-.08c-.34-2.58-2.85-2.86-4.77-3.35.49-7.05,3.24-16.9,11.14-16.85l-1.56-4.23,3.11.86.02-6.69-3.16,1.7v-15.13l4.67,8.34c-7.13.43-1.02,3.72,1.08,6.84l5.45-2.8c1.56-5.98-3.01-4.94-3.39-8.07-.59-4.89.67-9.73,1.71-14.38l-6.33,6.71-.8-6.72-.78,8.38-6.37,1.7,1.56-8.4-4.75.85c3.2-1.89,10.89-18.26,3.18-17.67l-4,16.81-2.81,2.19-5.91-.51c-1.56-5.96,5.37-2.27,6.37-3.35l-.03-6.71-3.15,3.34,1.57-15.11c-.53-.66-3.66,1.5-4.76,1.68-.26-.8.23-2.31,0-3.35-3.32-.48-3.61-.16-3.17,3.34,1.04-.04,2.15.17,3.17,0h-.02Z"/>
      <path class="st0" d="M1262.19,255.19v1.68c1.03-.56,1.03-1.12,0-1.68Z"/>
      <path class="st0" d="M965.5,261.91h-35c1.85,2.09-5.94,4.24-1.62,5.91,5.24,2.03,12.01.26,17.53.8.7,4.25-2.74,11.71,3.96,10.11l2.56-9.92,12.57-.19v-6.72h0Z"/>
      <path class="st0" d="M1328.21,265.3c-11-5.9-16.43-1.44-27.04,1.68-.58,4.9,4.55,7.14,1.58,11.74h4.78l-1.58-5.02c7.52,1.18,41.62,3.89,46.14.84,1.57-1.06,1.87-2.33,1.57-4.21l-44.52,1.67c-.44-2.02.65-4.34,2.53-4.77.89-.2,22.55,4.39,16.54-1.93h0Z"/>
      <rect class="st0" x="997.32" y="263.6" width="3.16" height="3.34"/>
      <path class="st0" d="M1360.02,263.6c-4.69.24-12.82-2.18-12.71,5.03,4.69-.24,12.82,2.18,12.71-5.03Z"/>
      <path class="st0" d="M1339.34,265.29h-7.95v3.34c3.03.25,6.98.46,7.95-3.34Z"/>
      <polygon class="st0" points="1013.22 270.31 1012.44 266.96 1010.04 270.3 1013.22 270.31"/>
      <rect class="st0" x="1234.36" y="268.65" width="3.17" height="1.65"/>
      <rect class="st0" x="1264.58" y="268.65" width="3.17" height="1.65"/>
      <polygon class="st0" points="1253.44 273.66 1251.03 270.33 1247.08 272.85 1253.44 273.66"/>
      <rect class="st0" x="1256.63" y="272.02" width="3.17" height="1.65"/>
      <path class="st0" d="M1340.93,277.05c-9.19,1.96-18.6-1.25-27.86-.01-2.19.29-5,1.28-2.37,3.36,8.9,1.25,17.31,1.34,26.24-.05,2.93-.46,4.71,1.73,3.99-3.3Z"/>
      <path class="st0" d="M1344.91,277.04v1.68c1.03-.56,1.03-1.12,0-1.68Z"/>
      <path class="st0" d="M1033.11,278.72v1.68c1.03-.56,1.03-1.12,0-1.68Z"/>
      <rect class="st0" x="1348.9" y="278.74" width="3.17" height="1.65"/>
      <rect class="st0" x="925.74" y="280.42" width="3.17" height="1.65"/>
      <rect class="st0" x="1046.65" y="280.41" width="1.56" height="3.35"/>
      <rect class="st0" x="1245.49" y="280.42" width="3.17" height="1.65"/>
      <path class="st0" d="M1280.5,287.13c.61.82,4.21-2.94,3.15-5.04-.61-.82-4.21,2.94-3.15,5.04Z"/>
      <rect class="st0" x="1274.13" y="283.78" width="3.17" height="1.65"/>
      <polygon class="st0" points="1293.2 283.78 1288.45 284.6 1290.85 287.11 1293.2 287.12 1293.2 283.78"/>
      <rect class="st0" x="1296.4" y="285.47" width="3.17" height="1.65"/>
      <path class="st0" d="M1312.3,292.16l-7.18-6.36c-9.15,8.01-.3,8.31,7.18,6.36Z"/>
      <rect class="st0" x="1245.49" y="287.15" width="3.17" height="1.65"/>
      <rect class="st0" x="1283.67" y="288.82" width="4.76" height="3.34"/>
      <polygon class="st0" points="1002.08 290.5 994.15 292.19 994.14 293.84 1002.08 293.85 1002.08 290.5"/>
      <rect class="st0" x="1231.18" y="290.5" width="3.16" height="3.34"/>
      <polygon class="st0" points="1332.97 290.5 1329.8 290.51 1332.19 293.85 1332.97 290.5"/>
      <rect class="st0" x="986.19" y="292.19" width="4.76" height="1.65"/>
      <path class="st0" d="M1033.11,292.17v1.68c1.03-.56,1.03-1.12,0-1.68Z"/>
      <rect class="st0" x="1267.77" y="292.19" width="3.17" height="1.65"/>
      <polygon class="st0" points="927.34 298.9 930.47 296.38 928.11 293.86 927.34 298.9"/>
      <path class="st0" d="M945.61,293.85v1.68c1.03-.56,1.03-1.12,0-1.68Z"/>
      <path class="st0" d="M953.57,293.85v1.68c1.03-.56,1.03-1.12,0-1.68Z"/>
      <rect class="st0" x="1240.72" y="295.55" width="3.17" height="1.65"/>
      <rect class="st0" x="1247.08" y="295.55" width="6.35" height="1.65"/>
      <rect class="st0" x="1304.35" y="295.55" width="3.17" height="1.65"/>
      <path class="st0" d="M1316.28,295.54v1.68c1.03-.56,1.03-1.12,0-1.68Z"/>
      <path class="st0" d="M1322.64,295.54v1.68c1.03-.56,1.03-1.12,0-1.68Z"/>
      <rect class="st0" x="1325.04" y="295.55" width="3.17" height="1.65"/>
      <rect class="st0" x="992.55" y="298.92" width="3.17" height="1.65"/>
      <path class="st0" d="M1057.76,310.66l-6.29-10.9-8,3.36,4.76,2.5-6.36,5.89c3.36,1.81,3.57,5.49,7.94,4.18l-1.59-5.02,9.54-.02h0Z"/>
      <path class="st0" d="M928.11,300.58v1.68c1.03-.56,1.03-1.12,0-1.68Z"/>
      <rect class="st0" x="975.05" y="300.6" width="3.17" height="1.65"/>
      <polygon class="st0" points="1242.3 300.59 1237.54 301.41 1239.94 303.93 1242.3 303.93 1242.3 300.59"/>
      <rect class="st0" x="1248.68" y="300.59" width="1.56" height="3.35"/>
      <rect class="st0" x="1270.95" y="300.6" width="3.17" height="1.65"/>
      <path class="st0" d="M1353.65,300.6l-12.71,1.65c3.36.41,10.75,2.84,12.71-1.65Z"/>
      <path class="st0" d="M1334.57,305.6c-7.9-8.46-22.31.48-32.36-1.74-2.49.58-2.86,9.39-2.63,11.84l34.98-10.1h.01Z"/>
      <rect class="st0" x="1277.31" y="303.95" width="3.16" height="3.34"/>
      <rect class="st0" x="1035.5" y="305.64" width="3.17" height="1.65"/>
      <polygon class="st0" points="955.95 307.32 952.78 307.31 952.79 310.67 955.95 307.32"/>
      <polygon class="st0" points="963.91 307.32 960.74 307.31 960.74 310.67 963.91 307.32"/>
      <path class="st0" d="M974.25,308.99v1.68c1.03-.56,1.03-1.12,0-1.68Z"/>
      <polygon class="st0" points="1237.52 309 1232.77 308.99 1232.78 312.35 1237.52 310.65 1237.52 309"/>
      <path class="st0" d="M927.33,310.68c.8,1.89-.43,9.96,2.37,10.04,4.15.12.52-10.01-2.37-10.04Z"/>
      <path class="st0" d="M1009.25,312.35v1.68c1.03-.56,1.03-1.12,0-1.68Z"/>
      <path class="st0" d="M1266.18,315.72c-1.36.7-9.73-2.89-9.52.83.19,3.41,14.25,2.91,9.52-.83Z"/>
      <rect class="st0" x="1038.69" y="317.4" width="1.56" height="3.35"/>
      <path class="st0" d="M1049.81,317.41l3.98,4.99c4.36-3.18.59-5.65-3.98-4.99Z"/>
      <rect class="st0" x="1280.49" y="317.4" width="3.16" height="3.34"/>
      <path class="st0" d="M1361.62,324.1l-.78-5.06-1.74-1.45-18.17,3.18c.87,5.01,19.68,4.59,20.68,3.33h.01Z"/>
      <rect class="st0" x="1223.22" y="322.45" width="3.17" height="1.65"/>
      <path class="st0" d="M1031.52,324.12v1.68c1.03-.56,1.03-1.12,0-1.68Z"/>
      <path class="st0" d="M1282.08,325.81c-.64-.62-17.7-2.9-15.9,3.34.65-1.24,21.06,1.69,15.9-3.34Z"/>
      <rect class="st0" x="930.51" y="325.81" width="4.76" height="3.34"/>
      <path class="st0" d="M947.2,325.8v1.68c1.03-.56,1.03-1.12,0-1.68Z"/>
      <path class="st0" d="M1237.52,325.81c-1.2-1.26-6.44-.78-4.75,4.18,1.97,5.79,6.85-1.97,4.75-4.18Z"/>
      <rect class="st0" x="1053" y="327.49" width="3.16" height="3.34"/>
      <path class="st0" d="M1301.16,327.49c-7.48.74-7.19,7.55-7.96,13.42l4.02,1.27,3.18-3,.75-11.7h0Z"/>
      <rect class="st0" x="1248.68" y="329.17" width="3.16" height="3.34"/>
      <path class="st0" d="M1233.8,334.85c-3.12-1.02-6.26-2.1-9.58-2.18l-2.66,4.08c0,10.22,20.82,2.69,25.52,4.99,4.38,2.15-4.19,2.99-1.6,7.59,3.95.56,15.78-1.81,17.5,2.54l-4.77,4.18h11.13l-3.16-5.01c2.27-1.24,17.6-2.03,15.13-5.09l-4-2.49,7.96-2.54-6.39-3.37,1.61-3.34h-23.87l2.4,11.73-8.77-1.67,4.76-1.68-4.77-3.38,3.18-4.99c-5.97,1.17-11.52,4.92-17.96,3.29-1.09-.28-1.23-2.51-1.68-2.66h.02Z"/>
      <rect class="st0" x="1334.59" y="337.57" width="1.56" height="3.35"/>
      <path class="st0" d="M1289.23,339.25v1.68c1.03-.56,1.03-1.12,0-1.68Z"/>
      <polygon class="st0" points="1323.44 342.59 1320.27 339.25 1320.26 342.6 1323.44 342.59"/>
      <path class="st0" d="M965.5,342.61h-35.79c-1.7,0-3.04,4.84-2.38,6.72l17.28.22c1.3.9,1.05,10.31,5.76,9.89l.8-10.11h14.33v-6.72h0Z"/>
      <polygon class="st0" points="1242.04 350.74 1243.88 344.29 1235.93 345.98 1235.95 351.01 1242.04 350.74"/>
      <rect class="st0" x="1285.27" y="344.3" width="3.16" height="3.34"/>
      <polygon class="st0" points="1293.2 344.3 1290.04 344.3 1290.04 346.79 1292.42 349.33 1293.2 344.3"/>
      <rect class="st0" x="1294.81" y="344.3" width="4.76" height="3.34"/>
      <path class="st0" d="M1221.62,349.32c-.85-3.34-3.39-3.77-6.35-3.34v3.34h6.35Z"/>
      <polygon class="st0" points="1227.98 347.64 1223.22 347.67 1224.91 353.45 1221.64 356.04 1224.63 356.83 1223.2 361.09 1231.16 362.78 1227.98 347.64"/>
      <path class="st0" d="M1285.25,352.71c-3.48,1.1-13.98-3.1-12.71,3.34,3.48-1.1,13.98,3.1,12.71-3.34Z"/>
      <rect class="st0" x="1040.28" y="356.08" width="3.17" height="1.65"/>
      <path class="st0" d="M1259.8,359.44c-1.62-1.63-32.06-2.78-25.44,3.33,7.22-1.58,20.38,2.67,25.44-3.33Z"/>
      <polygon class="st0" points="930.49 364.46 930.49 361.97 927.34 359.42 927.33 364.46 930.49 364.46"/>
      <rect class="st0" x="979.83" y="359.43" width="3.16" height="3.34"/>
      <path class="st0" d="M1272.52,359.43c-10.33-1.27-9.9,7.48,0,3.33v-3.33Z"/>
      <rect class="st0" x="1274.13" y="359.43" width="3.16" height="3.34"/>
      <polygon class="st0" points="1286.84 362.78 1286.06 359.43 1283.67 362.77 1286.84 362.78"/>
      <path class="st0" d="M1356.85,379.59c7.5,1,5.52-17.93,2.34-18.5-6.56,5.35-12.93-1.15-21.24,1.91l-1.92,8.87,3.31,2.67-3.17,2.52,4.76,4.19c-4.95.33-5.24,3.77-4.77,8.43,5.9-.33,22.71.96,15.95-7.6l-7.98-.82,7.94-1.67-1.48-6,3.05-.73c1.51-5.18-2.96-1.62-3.14-5.01l7.89.79-1.52,10.95h-.02Z"/>
      <rect class="st0" x="946.42" y="362.79" width="3.17" height="5.03"/>
      <path class="st0" d="M1010.03,362.8h-9.53v1.65c3.38.59,6.2,1.28,9.52,0v-1.64h.01Z"/>
      <rect class="st0" x="1011.64" y="362.8" width="4.76" height="1.65"/>
      <rect class="st0" x="1029.14" y="362.8" width="6.35" height="1.65"/>
      <rect class="st0" x="1048.23" y="362.8" width="3.17" height="1.65"/>
      <path class="st0" d="M1321.84,362.8c-3.23,1.3-15.28-3.39-14.3,3.34l14.3-3.34Z"/>
      <path class="st0" d="M1332.98,362.8l-9.54.82c2.62,3.71,7.98,3.8,9.54-.82Z"/>
      <path class="st0" d="M965.49,366.16h-4.76c.03,6.16,4.73,6.16,4.76,0Z"/>
      <path class="st0" d="M1240.66,366.22c-13.77-.67-7.18,8.81-6.94,16.18.37,11.35-1.06,22.8.63,34.18,4.48,1.17,4.77-6.28,6.45-9.2-5.66-1.33-.86-5.93-3.3-10.97l4.8-.02c-4.94-4.41-1.12-7.3-1.5-10.7-.13-1.17-3.03-.83-3.21-2.08-.21-1.56,1.69-4.75.14-7.19l9.32-3.57-6.28-1.82-.13-4.81h.02Z"/>
      <path class="st0" d="M1258.21,366.16c-4.51.52-11.95-2.25-14.32,3.33,4.51-.52,11.95,2.25,14.32-3.33Z"/>
      <path class="st0" d="M1290.82,367.83v1.68c1.03-.56,1.03-1.12,0-1.68Z"/>
      <path class="st0" d="M1317.07,371.17c-1.54-5.2-5.72-1.83-9.54-1.65v1.65h9.54Z"/>
      <path class="st0" d="M1332.97,369.53c-4.33-.18-10.34-4.49-12.72,1.65l12.72-1.65Z"/>
      <rect class="st0" x="1224.81" y="369.52" width="3.16" height="3.34"/>
      <polygon class="st0" points="1258.2 371.2 1255.03 371.21 1257.43 374.54 1258.2 371.2"/>
      <rect class="st0" x="1264.58" y="371.2" width="4.76" height="3.34"/>
      <rect class="st0" x="1274.13" y="371.21" width="3.17" height="1.65"/>
      <path class="st0" d="M965.51,387.99c-.04-1.79.44-3.5-.71-5.14-2.07-2.97-33.54-6.34-39.06-9.98v8.39l14.31,1.71c.25,7.89-14.25,2.89-15.13,10.06l1.58,3.33,39.01-8.36h0Z"/>
      <path class="st0" d="M1249.46,372.87v1.68c1.03-.56,1.03-1.12,0-1.68Z"/>
      <polygon class="st0" points="1296.38 374.56 1288.44 376.25 1294.01 382.95 1296.38 374.56"/>
      <path class="st0" d="M1332.98,374.55h-23.07c-.27,0-2.5,2.26-2.38,3.34,1.89,2.52,12.98-.94,14.31,3.37-5.26.8-15.69-3.06-15.9,5.04,9,3.38,17.55,4.89,27.04,3.37l-1.66-8.31-7.9-.92,9.57-.85v-5.04h-.01Z"/>
      <path class="st0" d="M1275.7,379.61c-3.48-.08-8.31-.93-9.54,3.34h9.54v-3.34Z"/>
      <path class="st0" d="M1283.17,383.47c-1.22-1.02-4.15-.99-5.85-2.19l.1,4.9,7.84,1.81c.19-.16-1.61-4.12-2.08-4.52h-.01Z"/>
      <path class="st0" d="M1289.22,381.31c-1.57,1.17.86,2.31,1.62,3.3,1.58-1.1-.74-2.22-1.62-3.3Z"/>
      <rect class="st0" x="1356.85" y="382.97" width="3.16" height="3.34"/>
      <path class="st0" d="M1266.96,386.32v1.68c1.03-.56,1.03-1.12,0-1.68Z"/>
      <path class="st0" d="M1064.93,391.37v1.68c1.03-.56,1.03-1.12,0-1.68Z"/>
      <rect class="st0" x="1291.63" y="391.38" width="4.76" height="1.65"/>
      <polygon class="st0" points="1259.8 393.06 1257.44 393.06 1255.03 396.39 1259.8 396.4 1259.8 393.06"/>
      <polygon class="st0" points="1290.03 396.39 1287.64 393.08 1285.26 395.58 1290.03 396.39"/>
      <rect class="st0" x="1247.08" y="394.74" width="4.76" height="1.65"/>
      <rect class="st0" x="1267.77" y="394.74" width="3.17" height="1.65"/>
      <polygon class="st0" points="1305.94 401.44 1303.53 398.11 1301.17 398.1 1301.17 401.44 1305.94 401.44"/>
      <polygon class="st0" points="1342.53 401.44 1340.12 398.11 1337.76 398.1 1337.76 401.44 1342.53 401.44"/>
      <path class="st0" d="M1216.06,399.77v1.68c1.03-.56,1.03-1.12,0-1.68Z"/>
      <rect class="st0" x="1243.9" y="399.78" width="4.76" height="3.34"/>
      <rect class="st0" x="1256.64" y="399.78" width="1.56" height="3.35"/>
      <path class="st0" d="M1271.73,399.77v1.68c1.03-.56,1.03-1.12,0-1.68Z"/>
      <rect class="st0" x="1310.72" y="399.78" width="4.76" height="3.34"/>
      <polygon class="st0" points="1355.25 399.78 1350.49 399.79 1350.49 401.43 1355.24 403.13 1355.25 399.78"/>
      <rect class="st0" x="1053" y="401.46" width="3.16" height="3.34"/>
      <path class="st0" d="M965.49,403.14l-37.04,7.08c-2.74.34-3.62,4.97-2.72,6.35,1.59,2.45,32.79-6.78,38.12-7.61l1.64-5.82h0Z"/>
      <rect class="st0" x="1245.49" y="406.51" width="3.17" height="1.65"/>
      <path class="st0" d="M1301.96,408.18v1.68c1.03-.56,1.03-1.12,0-1.68Z"/>
      <path class="st0" d="M1326.62,409.87h-7.95l3.99,4.99c-2.32-2.37-9.47-2.1-10.35,1.7h15.9l-1.59-6.69h0Z"/>
      <polygon class="st0" points="1332.98 409.88 1329.81 409.87 1329.82 413.22 1332.98 409.88"/>
      <path class="st0" d="M1061.74,411.54v1.68c1.03-.56,1.03-1.12,0-1.68Z"/>
      <rect class="st0" x="1218.45" y="413.24" width="4.76" height="1.65"/>
      <path class="st0" d="M1309.11,414.92c-4.1-1.59-6.34-2.1-6.34,3.33l6.34-1.69v-1.64h0Z"/>
      <rect class="st0" x="1286.86" y="414.91" width="3.16" height="3.34"/>
      <path class="st0" d="M954.37,421.6c12.46,6.25,16.02-8.13,2.35-3.36-2.14.75-2.88-1.13-2.35,3.36Z"/>
      <rect class="st0" x="1266.18" y="416.59" width="3.16" height="3.34"/>
      <rect class="st0" x="1288.45" y="419.96" width="3.17" height="1.65"/>
      <rect class="st0" x="1272.55" y="421.64" width="1.56" height="5.03"/>
      <rect class="st0" x="1304.35" y="421.64" width="3.17" height="1.65"/>
      <rect class="st0" x="1310.72" y="421.64" width="3.17" height="1.65"/>
      <path class="st0" d="M1323.43,421.64l-6.35.82c1.71,2.59,3.41,2.93,6.35,2.52v-3.34Z"/>
      <rect class="st0" x="1328.22" y="421.64" width="4.76" height="3.34"/>
      <path class="st0" d="M1336.96,421.63v1.68c1.03-.56,1.03-1.12,0-1.68Z"/>
      <rect class="st0" x="1342.53" y="421.64" width="6.35" height="1.65"/>
      <path class="st0" d="M1325.82,423.31v1.68c1.03-.56,1.03-1.12,0-1.68Z"/>
      <path class="st0" d="M1224.01,431.71v1.68c1.03-.56,1.03-1.12,0-1.68Z"/>
      <rect class="st0" x="1235.95" y="435.09" width="3.17" height="1.65"/>
      <polygon class="st0" points="1280.48 436.78 1275.73 435.08 1275.72 440.11 1280.48 440.11 1280.48 436.78"/>
      <path class="st0" d="M1237.53,441.81l-4.14,2.54.97,4.11-23.86,2.57,13.84,5.67,3.68-4.81c3.97-1.66,2.63,2.95,4.19,3.37,2.43.66,5.85-.34,8.52-.03l-.23-6.56-4.56-.17,1.59-6.7h0Z"/>
      <path class="st0" d="M963.91,443.48h-37.38c-3.64,2.88-4.45,20.07,1.58,20.19l.8-13.48h15.93c-.31,5.39-.76,10.1,3.97,13.42,4.01-3.3,2.04-8.9,2.38-13.42h12.74v-6.72h-.02Z"/>
      <path class="st0" d="M1302.37,445.67c-4-1.83-8.41-.4-5.98,4.53-3.22-.16-20.39-3.96-20.65.85l24.41,3.14,12.14,1.07v-5.01c-5.06,1.74-9.16-4.24-9.92-4.58h0Z"/>
      <path class="st0" d="M1253.45,448.53l-11.11,2.51c3.11,5.38,6.31,2.52,11.11,2.51v-5.03h0Z"/>
      <path class="st0" d="M1208.89,450.22c-3.37.95-12.44-2.9-11.12,3.34,3.37-.95,12.44,2.9,11.12-3.34Z"/>
      <path class="st0" d="M1267.76,450.23c4.16,9.95,11.65,4.75,4.75.84-1.57-.89-3.01-1.08-4.75-.84Z"/>
      <path class="st0" d="M1338.55,456.93v1.68c1.03-.56,1.03-1.12,0-1.68Z"/>
      <path class="st0" d="M1343.32,458.61v1.68c1.03-.56,1.03-1.12,0-1.68Z"/>
      <polygon class="st0" points="1213.66 460.3 1207.31 460.3 1207.32 463.65 1211.29 465.3 1213.65 462.79 1213.66 460.3"/>
      <rect class="st0" x="1247.09" y="460.3" width="3.16" height="3.34"/>
      <rect class="st0" x="1321.85" y="460.3" width="3.16" height="3.34"/>
      <rect class="st0" x="1226.41" y="461.99" width="1.56" height="3.35"/>
      <path class="st0" d="M1235.93,461.99c-1.65-1.72-6.38,3.34-4.76,5.03s6.38-3.34,4.76-5.03Z"/>
      <rect class="st0" x="1328.22" y="461.99" width="9.53" height="1.65"/>
      <path class="st0" d="M1315.47,463.67h-4.76c.03,6.16,4.73,6.16,4.76,0Z"/>
      <path class="st0" d="M1070.51,472.07l-1.59-3.35c-.42,4.87-2.63,8.33-.84,13.47,1.73,4.95,2.79-1.8,3.29-1.81l8.66,1.77-4.75-12.65-4.77,2.57h0Z"/>
      <rect class="st0" x="1323.44" y="468.72" width="3.17" height="1.65"/>
      <polygon class="st0" points="1332.98 472.05 1330.57 468.72 1328.22 468.71 1328.22 472.06 1332.98 472.05"/>
      <rect class="st0" x="1234.37" y="470.39" width="1.56" height="3.35"/>
      <path class="st0" d="M1340.14,470.38v1.68c1.03-.56,1.03-1.12,0-1.68Z"/>
      <polygon class="st0" points="1347.29 473.74 1347.28 470.38 1344.13 472.91 1347.29 473.74"/>
      <path class="st0" d="M1216.85,475.44c-4.49.41-10.99-4.65-11.13,3.34l11.13-3.34Z"/>
      <rect class="st0" x="1191.41" y="475.44" width="4.76" height="1.65"/>
      <rect class="st0" x="1218.45" y="475.44" width="4.76" height="1.65"/>
      <polygon class="st0" points="1237.52 477.12 1234.36 477.12 1234.37 482.15 1237.52 479.6 1237.52 477.12"/>
      <rect class="st0" x="1313.9" y="477.12" width="4.76" height="1.65"/>
      <rect class="st0" x="1328.22" y="477.12" width="4.76" height="1.65"/>
      <rect class="st0" x="1345.72" y="477.12" width="3.17" height="1.65"/>
      <rect class="st0" x="917.78" y="478.81" width="3.17" height="1.65"/>
      <path class="st0" d="M1363.21,483.82c-.85-3.34-3.4-3.78-6.36-3.33.85,3.34,3.4,3.78,6.36,3.33Z"/>
      <path class="st0" d="M1075.26,483.83c-3.09-.85-4.27,3.64-5.83,6.27-.6,1.01-3.57.92-2.1,5.5l4.74-5.04-3.16,16.8,3.96-3.35,3.96,5.03-1.58-25.21h.01Z"/>
      <rect class="st0" x="1317.08" y="483.85" width="6.35" height="1.65"/>
      <polygon class="st0" points="1332.97 483.84 1328.22 484.67 1330.62 487.18 1332.97 487.19 1332.97 483.84"/>
      <path class="st0" d="M913.8,485.51v1.68c1.03-.56,1.03-1.12,0-1.68Z"/>
      <path class="st0" d="M916.98,485.51v1.68c1.03-.56,1.03-1.12,0-1.68Z"/>
      <rect class="st0" x="1234.37" y="485.52" width="1.56" height="3.35"/>
      <polygon class="st0" points="1242.3 488.87 1242.29 485.51 1239.13 488.04 1242.3 488.87"/>
      <path class="st0" d="M1080.83,487.2v1.68c1.03-.56,1.03-1.12,0-1.68Z"/>
      <polygon class="st0" points="922.54 492.23 922.53 488.88 919.37 491.41 922.54 492.23"/>
      <rect class="st0" x="925.74" y="490.57" width="1.56" height="3.35"/>
      <polygon class="st0" points="1356.84 493.9 1353.68 490.56 1353.67 493.91 1356.84 493.9"/>
      <path class="st0" d="M1301.96,492.24v1.68c1.03-.56,1.03-1.12,0-1.68Z"/>
      <polygon class="st0" points="1235.93 493.93 1232.77 493.93 1232.77 496.42 1235.15 498.96 1235.93 493.93"/>
      <rect class="st0" x="1239.13" y="495.61" width="3.17" height="5.03"/>
      <polygon class="st0" points="928.9 498.97 925.74 499.8 928.89 502.33 928.9 498.97"/>
      <rect class="st0" x="938.46" y="498.98" width="3.17" height="1.65"/>
      <rect class="st0" x="951.2" y="500.65" width="1.56" height="3.35"/>
      <path class="st0" d="M1235.15,505.69v1.68c1.03-.56,1.03-1.12,0-1.68Z"/>
      <rect class="st0" x="938.47" y="507.38" width="1.56" height="3.35"/>
      <rect class="st0" x="944.83" y="507.39" width="3.17" height="1.65"/>
      <rect class="st0" x="1234.37" y="509.06" width="1.56" height="3.35"/>
      <path class="st0" d="M1361.62,512.42c-20.16-2-40.34-2.35-60.46,0,.36,5.36-2.14,12.22,3.98,13.45,6.2,1.25,37.79.98,44.44-.11,6.06-.99,13.72-5.86,12.04-13.33h0Z"/>
      <path class="st0" d="M1078.42,512.43c-8.19-1.92-1.36,15.51,1.62,11.74l-1.31-4.85,2.9-1.01-3.21-5.88h0Z"/>
      <rect class="st0" x="940.06" y="517.47" width="1.56" height="3.35"/>
      <rect class="st0" x="1216.86" y="519.15" width="3.16" height="3.34"/>
      <path class="st0" d="M1212.87,522.5v1.68c1.03-.56,1.03-1.12,0-1.68Z"/>
      <polygon class="st0" points="932.09 524.2 928.92 524.19 928.93 527.54 932.09 524.2"/>
      <path class="st0" d="M994.13,524.19c-2.9-.55-5.26,1.85-4.76,5.03h4.76v-5.03Z"/>
      <rect class="st0" x="984.61" y="525.87" width="1.56" height="3.35"/>
      <rect class="st0" x="1075.28" y="530.92" width="3.16" height="3.34"/>
      <path class="st0" d="M996.52,532.59v1.68c1.03-.56,1.03-1.12,0-1.68Z"/>
      <rect class="st0" x="1231.18" y="532.61" width="3.17" height="1.65"/>
      <polygon class="st0" points="952.76 534.28 949.6 535.1 952.76 537.63 952.76 534.28"/>
      <rect class="st0" x="984.6" y="534.28" width="3.16" height="3.34"/>
      <rect class="st0" x="1067.32" y="534.28" width="3.17" height="6.71"/>
      <rect class="st0" x="924.15" y="535.96" width="3.16" height="3.34"/>
      <path class="st0" d="M1227.19,535.95v1.68c1.03-.56,1.03-1.12,0-1.68Z"/>
      <rect class="st0" x="935.29" y="539.32" width="1.56" height="3.35"/>
      <rect class="st0" x="951.19" y="542.68" width="3.16" height="3.34"/>
      <rect class="st0" x="1067.33" y="544.37" width="1.56" height="3.35"/>
      <rect class="st0" x="1221.63" y="551.1" width="3.17" height="1.65"/>
      <rect class="st0" x="1231.18" y="554.46" width="3.17" height="1.65"/>
      <polygon class="st0" points="1224.8 556.14 1221.63 556.13 1221.64 559.49 1224.8 556.14"/>
      <rect class="st0" x="1197.77" y="564.55" width="3.17" height="1.65"/>
      <rect class="st0" x="1064.14" y="571.27" width="3.17" height="1.65"/>
      <path class="st0" d="M964.7,576.3v1.68c1.03-.56,1.03-1.12,0-1.68Z"/>
      <path class="st0" d="M1220.04,576.31c-.91.96,1.32,5,2.38,5,4.4,0,.03-7.54-2.38-5Z"/>
      <polygon class="st0" points="1072.08 583.01 1068.92 579.66 1068.91 583.02 1072.08 583.01"/>
      <rect class="st0" x="957.55" y="581.36" width="3.17" height="1.65"/>
      <polygon class="st0" points="1078.45 586.37 1075.28 583.03 1075.28 586.38 1078.45 586.37"/>
      <path class="st0" d="M1325.03,584.72c2.02,5.66,6.61,3.36,6.35-1.7l-6.35,1.7Z"/>
      <rect class="st0" x="1003.69" y="584.72" width="3.16" height="3.34"/>
      <rect class="st0" x="1083.23" y="584.72" width="3.17" height="1.65"/>
      <polygon class="st0" points="1336.16 584.72 1332.99 585.54 1336.15 588.07 1336.16 584.72"/>
      <polygon class="st0" points="1081.62 599.83 1079.25 591.44 1075.27 598.14 1081.62 599.83"/>
      <polygon class="st0" points="1320.25 591.44 1313.9 591.44 1313.9 594.77 1320.25 596.47 1320.25 591.44"/>
      <rect class="st0" x="1000.51" y="593.13" width="3.17" height="1.65"/>
      <path class="st0" d="M1328.21,621.69h-27.04c-1.01,3.69-3.65,23.57.8,23.5l6.62-11.46c13.94-5.04,49.49,9.98,53.04-12.04h-28.63v-16.8c4.13-1.7,4.75,8.45,9.52,5.03,1.85-1.33,3.85-16.26-3.83-16.65-2.34-.12-12.78,1.78-13.55,4.23-.89,2.84,6.12,18.11,3.09,24.19h-.02Z"/>
      <rect class="st0" x="1083.23" y="594.8" width="3.16" height="3.34"/>
      <rect class="st0" x="1318.68" y="598.16" width="1.56" height="3.35"/>
      <rect class="st0" x="994.14" y="599.85" width="3.17" height="1.65"/>
      <path class="st0" d="M1282.07,601.53l-4.76,10.07c6.07.51,3.2-6.38,4.76-10.07Z"/>
      <path class="st0" d="M1210.79,607.88c-1.34-.78-1.22-6.61-6.66-4.67l2.57,8.5,14.92-.12c-1.49-5.43-8.04-2.09-10.83-3.71Z"/>
      <rect class="st0" x="1010.06" y="606.57" width="1.56" height="3.35"/>
      <path class="st0" d="M1195.39,606.58c-4.16,1.18-2.26,8.23,3.15,6.69,4.16-1.18,2.26-8.23-3.15-6.69Z"/>
      <path class="st0" d="M1066.52,608.24v1.68c1.03-.56,1.03-1.12,0-1.68Z"/>
      <rect class="st0" x="1299.59" y="614.98" width="1.56" height="3.35"/>
      <polygon class="st0" points="932.08 616.66 928.92 617.48 932.08 620.01 932.08 616.66"/>
      <rect class="st0" x="1065.73" y="616.67" width="3.17" height="1.65"/>
      <path class="st0" d="M1199.34,616.66c-2.97-.43-5.5,0-6.35,3.34h6.35v-3.34Z"/>
      <path class="st0" d="M1210.49,626.72c-2.48-4.08,1.85-10.44-4.77-10.06v10.09l4.77-.02h0Z"/>
      <path class="st0" d="M945.61,618.33v1.68c1.03-.56,1.03-1.12,0-1.68Z"/>
      <path class="st0" d="M955.16,618.33v1.68c1.03-.56,1.03-1.12,0-1.68Z"/>
      <path class="st0" d="M1221.62,618.34c-5.06-1.29-3.28,7.25-4.76,10.07l4.76.02v-10.09Z"/>
      <path class="st0" d="M1309.91,618.33v1.68c1.03-.56,1.03-1.12,0-1.68Z"/>
      <rect class="st0" x="1277.31" y="620.03" width="3.17" height="1.65"/>
      <path class="st0" d="M1071.11,626.13c-1.28-1.58-1.8-4.13-3.79-4.44-1.35,5.49,2.94,6.01,6.33,8.41,1.22-4.28-1.64-2.86-2.55-3.97h.01Z"/>
      <polygon class="st0" points="1200.94 625.07 1194.59 625.89 1198.53 628.41 1200.94 625.07"/>
      <rect class="st0" x="1277.32" y="625.06" width="1.56" height="3.35"/>
      <path class="st0" d="M1068.9,630.11c-2.29-3.16-2.49-1-2.72,2.11-.29,3.87.09,9.21,1.16,13l1.56-15.11h0Z"/>
      <path class="st0" d="M955.16,631.78v1.68c1.03-.56,1.03-1.12,0-1.68Z"/>
      <rect class="st0" x="1008.46" y="631.8" width="3.17" height="1.65"/>
      <path class="st0" d="M951.17,636.83c-9.83-1.78-1.98,7.28,0,5.03v-5.03Z"/>
      <rect class="st0" x="1059.37" y="636.83" width="1.56" height="3.35"/>
      <rect class="st0" x="940.06" y="638.51" width="1.56" height="3.35"/>
      <polygon class="st0" points="1010.03 645.22 1010.03 640.2 1008.47 640.2 1006.86 645.21 1010.03 645.22"/>
      <rect class="st0" x="1175.5" y="645.24" width="3.16" height="3.34"/>
      <path class="st0" d="M1072.05,665.39c3.81-6.7,8.96-15.31-1.56-18.46l1.57,11.74-1.57-7.55-3.21.02,1.6,13.42,3.16.83h.01Z"/>
      <path class="st0" d="M942.43,648.59v1.68c1.03-.56,1.03-1.12,0-1.68Z"/>
      <polygon class="st0" points="962.31 648.6 959.14 648.6 959.15 653.64 962.3 651.09 962.31 648.6"/>
      <polygon class="st0" points="970.27 651.94 967.11 648.59 967.1 651.95 970.27 651.94"/>
      <path class="st0" d="M992.54,653.64h-4.76v10.08c5.7.42,4.99-6.1,4.76-10.08Z"/>
      <rect class="st0" x="1302.76" y="657" width="58.86" height="5.04"/>
      <path class="st0" d="M951.98,658.68v1.68c1.03-.56,1.03-1.12,0-1.68Z"/>
      <rect class="st0" x="955.97" y="663.73" width="1.56" height="3.35"/>
      <rect class="st0" x="938.47" y="665.41" width="1.56" height="3.35"/>
      <rect class="st0" x="948.01" y="667.1" width="3.17" height="8.39"/>
      <path class="st0" d="M983,688.94l-2.92.25-1.84,8.16c3.67-1.09,3.74-5.41,4.76-8.41l6.35,5.04v-23.52c-4.09-.35-2.67-.3-3.12,2.52-.82,5.17-1.55,11.01-3.23,15.96Z"/>
      <path class="st0" d="M968.7,680.54c3.16-.9,3.58-3.59,3.15-6.72-3.16.9-3.58,3.59-3.15,6.72Z"/>
      <path class="st0" d="M965.48,685.57c.76-1.02,2.14-8.84,1.59-10.07h-1.56c.05,1.38-2.29,13.1-.04,10.07h0Z"/>
      <path class="st0" d="M1068.9,705.75c-.61-6.45.58-13.03.63-19.38.02-1.89.98-10.97-1.42-10.84-4.67.25-1.26,18.82-1.01,22.77.24,3.83-3.92,8.57,1.8,7.45Z"/>
      <path class="st0" d="M940.84,678.85v1.68c1.03-.56,1.03-1.12,0-1.68Z"/>
      <path class="st0" d="M951.19,692.34l4.73-2.54c-2.67-1.54-3.41-8.52-5.57-9.22-8.25-2.69-7.38,18.62-2.36,13.41l4.77-6.7c.68,2.78-2.42.9-2.88,2.44-.84,2.79,2.11,8.18,2.08,11.13-.09,7.52-4.01,14.22-3.95,21.7,3.63.65,3.12-.33,3.95-3.3.95-3.41,3.34-14.83,3.51-18.03.29-5.4-6.51-6.22-4.27-8.9h-.01Z"/>
      <path class="st0" d="M969.48,682.22v1.68c1.03-.56,1.03-1.12,0-1.68Z"/>
      <path class="st0" d="M1007.66,683.9v1.68c1.03-.56,1.03-1.12,0-1.68Z"/>
      <path class="st0" d="M1325.02,690.62c-7.78-4.71-13.29-8.43-22.87-6.82-2.46,4.55-4.91,12.6,1.45,13.62,2.28.37,35.86-6.32,40.61-7.54,2.3-.59,5.64-1.45,6.27-4.28l-24.43-1.46-2.11,2.25,1.08,4.23h0Z"/>
      <path class="st0" d="M940.84,685.58v1.68c1.03-.56,1.03-1.12,0-1.68Z"/>
      <rect class="st0" x="962.33" y="687.27" width="1.56" height="3.35"/>
      <polygon class="st0" points="967.07 697.34 968.67 690.63 963.94 694.02 963.92 697.34 967.07 697.34"/>
      <path class="st0" d="M938.45,700.7l-.81-6.74-3.95-1.64c-.41,4.15-.12,8.86,4.76,8.38Z"/>
      <path class="st0" d="M959.15,699.03c.61.82,4.21-2.94,3.15-5.04-.61-.82-4.21,2.94-3.15,5.04Z"/>
      <rect class="st0" x="944.83" y="695.68" width="1.56" height="3.35"/>
      <path class="st0" d="M1342.52,695.68l-11.12,1.65c3.14.45,12.29,5.12,11.12-1.65Z"/>
      <path class="st0" d="M946.42,705.75c3.6-1.01,3.39-5.26,3.15-8.4h-1.56l-1.59,8.4Z"/>
      <path class="st0" d="M1361.62,700.69c-3.44-6.83-10.91.31-15.9-3.34l-.02,5.03,15.91-1.69h.01Z"/>
      <rect class="st0" x="1073.69" y="699.04" width="1.56" height="3.35"/>
      <rect class="st0" x="1313.9" y="699.05" width="3.17" height="1.65"/>
      <path class="st0" d="M932.89,700.71v1.68c1.03-.56,1.03-1.12,0-1.68Z"/>
      <path class="st0" d="M937.66,704.07v1.68c1.03-.56,1.03-1.12,0-1.68Z"/>
      <rect class="st0" x="962.33" y="704.08" width="3.16" height="3.34"/>
      <path class="st0" d="M959.93,705.75v1.68c1.03-.56,1.03-1.12,0-1.68Z"/>
      <rect class="st0" x="1072.09" y="705.76" width="3.17" height="6.71"/>
      <rect class="st0" x="983.01" y="707.45" width="3.17" height="1.65"/>
      <polygon class="st0" points="940.05 714.14 937.64 710.81 935.28 710.81 935.28 714.15 940.05 714.14"/>
      <path class="st0" d="M940.05,719.2c-.12-1.14.67-3.41-.79-3.35l-5.5,4.38c-1.25,4.35,4.34,6.6,4.35,8.21,0,1.46-3.89,2.87-2.82,5.89,5.17-2.33,3.93-7.21,3.15-11.78l-3.15-.8c1.09-2.35,3.42-1.87,4.76-2.55.11,1.1-.09,2.25,0,3.35,6.1-.04,6.99-6.48,6.35-11.76h-4.76l3.15,5.88c-1.14,2.46-3.41,1.85-4.75,2.52h.01Z"/>
      <path class="st0" d="M963.11,710.8v1.68c1.03-.56,1.03-1.12,0-1.68Z"/>
      <path class="st0" d="M1361.61,710.82c-3.68.98-12.22-2.22-14.3,1.65,3.67-.99,12.09,2.23,14.3-1.65Z"/>
      <rect class="st0" x="1067.33" y="714.17" width="1.56" height="5.03"/>
      <polygon class="st0" points="1073.66 722.57 1073.66 715.85 1072.1 715.85 1070.54 720.06 1073.66 722.57"/>
      <polygon class="st0" points="932.09 720.87 928.93 717.52 928.92 720.88 932.09 720.87"/>
      <rect class="st0" x="967.11" y="717.53" width="1.56" height="3.35"/>
      <path class="st0" d="M1359.23,722.57h-57.27c-4.58,2.23-2.15,24.47.02,25.23,4.31,1.51,1.8-9.84,6.57-11.55,11.91-2.71,39.69,3.37,49.52-1.47,5.08-2.5,4.68-11.06,1.17-12.21h-.01Z"/>
      <path class="st0" d="M930.5,724.26c-3.8-3.94-3.48,7.71-.78,8.39l.78-8.39Z"/>
      <rect class="st0" x="960.74" y="724.26" width="3.16" height="3.34"/>
      <rect class="st0" x="932.11" y="730.98" width="1.56" height="3.35"/>
      <rect class="st0" x="1070.5" y="730.98" width="3.17" height="8.39"/>
      <rect class="st0" x="987.79" y="732.66" width="1.56" height="3.35"/>
      <rect class="st0" x="1180.28" y="736.03" width="1.56" height="3.35"/>
      <polygon class="st0" points="946.4 737.69 938.68 739.61 938.47 746.1 947.97 745.28 946.4 737.69"/>
      <path class="st0" d="M1173.1,737.7v1.68c1.03-.56,1.03-1.12,0-1.68Z"/>
      <polygon class="st0" points="1208.89 742.73 1208.11 737.71 1205.73 740.24 1205.72 742.73 1208.89 742.73"/>
      <polygon class="st0" points="957.54 741.07 951.19 742.77 951.2 746.1 957.55 744.41 957.54 741.07"/>
      <path class="st0" d="M963.11,741.06v1.68c1.03-.56,1.03-1.12,0-1.68Z"/>
      <path class="st0" d="M977.43,741.06v1.68c1.03-.56,1.03-1.12,0-1.68Z"/>
      <rect class="st0" x="987.78" y="741.08" width="3.17" height="1.65"/>
      <path class="st0" d="M1200.94,741.07c-3.59,2.4-13.89-3.55-12.73,3.34,5.54.13,10.03,3.82,12.73-3.34Z"/>
      <rect class="st0" x="968.7" y="742.75" width="1.56" height="3.35"/>
      <polygon class="st0" points="990.94 747.79 988.59 747.8 986.18 751.13 990.94 751.14 990.94 747.79"/>
      <polygon class="st0" points="941.63 752.82 940.85 749.47 936.9 753.69 941.63 752.82"/>
      <path class="st0" d="M953.57,749.47v1.68c1.03-.56,1.03-1.12,0-1.68Z"/>
      <polygon class="st0" points="947.85 752.98 943.24 751.15 943.24 759.55 947.85 757.72 947.85 752.98"/>
      <path class="st0" d="M1173.1,752.83v1.68c1.03-.56,1.03-1.12,0-1.68Z"/>
      <rect class="st0" x="933.7" y="754.52" width="1.56" height="3.35"/>
      <path class="st0" d="M977.43,756.19v1.68c1.03-.56,1.03-1.12,0-1.68Z"/>
      <path class="st0" d="M1361.62,757.88l-59.44-1.46-1.91,1.34.91,20.27c4.34.54,4.21-4.43,7.45-6.39,13.81-8.38,52.38,9.34,52.99-13.76Z"/>
      <path class="st0" d="M1203.33,759.55v1.68c1.03-.56,1.03-1.12,0-1.68Z"/>
      <rect class="st0" x="971.88" y="761.24" width="1.56" height="3.35"/>
      <rect class="st0" x="965.52" y="764.61" width="1.56" height="3.35"/>
      <path class="st0" d="M1194.57,769.63c.91-.96-1.32-5-2.38-5-4.4,0-.03,7.54,2.38,5Z"/>
      <polygon class="st0" points="1205.71 769.63 1204.93 764.61 1200.94 769.62 1205.71 769.63"/>
      <path class="st0" d="M947.2,766.28v1.68c1.03-.56,1.03-1.12,0-1.68Z"/>
      <path class="st0" d="M973.44,771.32l-7.94.02c1.71,2.92-.48,4.2-1.59,6.7l9.55-1.68-.02-5.04h0Z"/>
      <polygon class="st0" points="1204.12 771.34 1199.36 771.33 1199.37 776.37 1204.12 771.34"/>
      <polygon class="st0" points="992.54 776.36 992.53 773 989.37 775.53 992.54 776.36"/>
      <rect class="st0" x="997.33" y="773.01" width="1.56" height="3.35"/>
      <polygon class="st0" points="962.32 778.03 959.15 774.69 959.14 778.04 962.32 778.03"/>
      <polygon class="st0" points="976.65 774.69 975.82 779.69 978.21 777.18 978.21 774.69 976.65 774.69"/>
      <polygon class="st0" points="998.91 781.39 995.74 778.05 995.73 781.4 998.91 781.39"/>
      <polygon class="st0" points="970.29 779.74 969.46 784.74 971.85 782.22 971.85 779.74 970.29 779.74"/>
      <rect class="st0" x="983.01" y="779.74" width="3.16" height="3.34"/>
      <polygon class="st0" points="979.81 781.42 976.64 782.24 979.8 784.77 979.81 781.42"/>
      <path class="st0" d="M993.34,783.09v1.68c1.03-.56,1.03-1.12,0-1.68Z"/>
      <polygon class="st0" points="1124.57 783.1 1121.41 783.92 1124.57 786.45 1124.57 783.1"/>
      <path class="st0" d="M983.79,784.77v1.68c1.03-.56,1.03-1.12,0-1.68Z"/>
      <path class="st0" d="M1081.62,786.46c-5.9-1.4-2.27,8.2-3.16,11.76l3.16-11.76Z"/>
      <polygon class="st0" points="1138.89 786.46 1135.73 787.29 1138.88 789.82 1138.89 786.46"/>
      <rect class="st0" x="1272.54" y="786.47" width="3.17" height="1.65"/>
      <path class="st0" d="M978.22,788.14c-5.11-4.76-7.19,9.03-1.58,4.2,1.21-1.04,2.38-3.46,1.58-4.2Z"/>
      <rect class="st0" x="990.97" y="788.14" width="1.56" height="3.35"/>
      <path class="st0" d="M994.15,801.58c8.49,8.65,12.33-5.07,7.99-12.74-10.62-1.01-8.39,4.71-10.05,10.64-.13.46-2.28.48-2.41,1.25-.37,2.26-.48,17.29,4.45,14.28l.02-13.43h0Z"/>
      <rect class="st0" x="1159.59" y="788.14" width="3.16" height="3.34"/>
      <path class="st0" d="M1323.44,794.84c-8.13-.84-14.2-9.35-23.18-3.47l1.9,12c1.97.32,37.07-8.32,38.8-9.35.73-.43,2.02-2.06,1.57-2.52l-19.23-.92.15,4.25h-.01Z"/>
      <path class="st0" d="M982.2,793.18v1.68c1.03-.56,1.03-1.12,0-1.68Z"/>
      <polygon class="st0" points="978.22 794.87 975.86 794.88 973.45 798.21 978.22 798.21 978.22 794.87"/>
      <path class="st0" d="M985.38,799.9v1.68c1.03-.56,1.03-1.12,0-1.68Z"/>
      <path class="st0" d="M1361.61,799.91c-3.58,1.06-14.94.7-14.3,6.71l14.32-1.68-.02-5.03h0Z"/>
      <path class="st0" d="M971.86,811.65l-3.98-6.7-.8,5.04-4.74-3.36c1.5,4.85,1.58,6.16-1.6,10.07l11.13-5.04h-.01Z"/>
      <path class="st0" d="M975.84,804.95v1.68c1.03-.56,1.03-1.12,0-1.68Z"/>
      <path class="st0" d="M1275.7,804.96c-6.2-1.36-6.55,2.67-2.37,6.71l2.37-6.71Z"/>
      <polygon class="st0" points="1328.21 806.64 1323.44 806.64 1323.45 809.98 1325.8 809.97 1328.21 806.64"/>
      <path class="st0" d="M1342.52,806.64c-2.97-.43-5.5,0-6.35,3.34h6.35v-3.34Z"/>
      <path class="st0" d="M1000.5,808.33h-3.16l-1.6,6.7c.68,1.67,3.98-5.37,4.76-6.7h0Z"/>
      <path class="st0" d="M1361.61,808.33c-3.96.09-7.97-.19-11.94-.02-1.93.08-5.91-1.27-5.54,1.66,2.2.33,4.32.64,6.55.69,1.96.05,10.37.1,10.93-2.34h0Z"/>
      <path class="st0" d="M1281.28,809.99v1.68c1.03-.56,1.03-1.12,0-1.68Z"/>
      <path class="st0" d="M1307.52,810l-4.64,4.29c-1.87,1.35-5.96-3.98-4.89,2.42h9.54l-.02-6.71h.01Z"/>
      <path class="st0" d="M972.66,813.35v1.68c1.03-.56,1.03-1.12,0-1.68Z"/>
      <path class="st0" d="M1321.85,816.7c-.97-3.8-4.91-3.58-7.95-3.34v3.34h7.95Z"/>
      <path class="st0" d="M1339.34,815.05c-3.37-.09-6.76-2.99-7.94,1.65h7.95v-1.65h-.01Z"/>
      <path class="st0" d="M1360.01,815.06c-2.94-1.08-4.99-1.08-7.93,0v1.64h7.93v-1.64Z"/>
      <path class="st0" d="M1002.88,815.03v1.68c1.03-.56,1.03-1.12,0-1.68Z"/>
      <rect class="st0" x="1188.23" y="815.04" width="1.56" height="3.35"/>
      <rect class="st0" x="1278.9" y="815.05" width="3.17" height="1.65"/>
      <polygon class="st0" points="1288.44 815.05 1285.27 815.04 1285.27 818.4 1288.44 815.05"/>
      <polygon class="st0" points="971.87 823.43 978.21 816.72 971.88 818.39 971.87 823.43"/>
      <path class="st0" d="M959.13,818.41l-6.35-.02c-1.35,10,1.86,13.89,9.52,18.5l-4.74-5.07,6.34-1.65c1.53-6-5.17-2.26-6.36-3.37l1.6-8.38h-.01Z"/>
      <path class="st0" d="M990.16,818.4v1.68c1.03-.56,1.03-1.12,0-1.68Z"/>
      <path class="st0" d="M1004.47,818.4v1.68c1.03-.56,1.03-1.12,0-1.68Z"/>
      <path class="st0" d="M970.26,825.11c-.25-6.6-7.83-7.52-9.5-.82l9.5.82Z"/>
      <path class="st0" d="M984.58,820.09c-5.49-1.47-1.39,7.49-3.16,10.08l3.16-10.08Z"/>
      <path class="st0" d="M993.34,821.76v1.68c1.03-.56,1.03-1.12,0-1.68Z"/>
      <path class="st0" d="M1184.24,823.44v1.68c1.03-.56,1.03-1.12,0-1.68Z"/>
      <polygon class="st0" points="968.68 830.15 965.52 826.8 965.51 830.16 968.68 830.15"/>
      <polygon class="st0" points="976.65 833.52 979.81 829.35 977.41 826.82 975.05 826.81 976.65 833.52"/>
      <path class="st0" d="M989.34,835.2c.36-.38,1.76-5.39,1.6-6.71-3.06.82-3.58,3.72-3.15,6.72.51-.09,1.33.23,1.55,0h0Z"/>
      <polygon class="st0" points="968.68 831.86 963.91 831.86 965.52 836.88 967.07 836.88 968.68 831.86"/>
      <path class="st0" d="M958.17,837.88c-.75-.82-1.16-5.32-3.03-.99-.38.88.4,3.46-.77,5.03h6.34c1.12-4.15-1.46-2.86-2.54-4.04h0Z"/>
      <path class="st0" d="M995.71,835.21c-5.84-1.71-.74,6-3.25,8.36-3.47-1.56-9.94-.22-9.45,5.08l2.35-3.35c4.18,1.09,3.73,4.85,4.02,5.03.37.23,5.1-3.83,7.93-2.46l-1.61-12.66h.01Z"/>
      <rect class="st0" x="976.65" y="836.9" width="1.56" height="5.03"/>
      <path class="st0" d="M1091.97,836.89v1.68c1.03-.56,1.03-1.12,0-1.68Z"/>
      <polygon class="st0" points="970.26 840.26 967.11 840.26 965.5 845.28 970.26 845.29 970.26 840.26"/>
      <rect class="st0" x="976.65" y="843.62" width="1.56" height="3.35"/>
      <rect class="st0" x="983.01" y="850.35" width="1.56" height="3.35"/>
      <path class="st0" d="M1273.33,850.34v1.68c1.03-.56,1.03-1.12,0-1.68Z"/>
      <path class="st0" d="M971.88,880.59c-.73-5.44,3.94-7.2,5.26-12.06,1.02-3.75-.41-10.76-.52-14.82l-1.59,6.71-3.15-3.34c.39,2.97-4.78,13,1.56,8.38v8.41l-4.76-3.34-.02,11.75-3.15-5.03c-2.41,6.89,2.48,7.89,3.43,10.69,1.87,5.47-.19,11.85,3.72,16.2,1.76-2.69-.94-6.59,3.56-7.09l-1.18-2.98,6.35,5.02-4.77-9.27c5.2-1.41,3.11-11.16-.77-14.25l-3.97,5.03h0Z"/>
      <polygon class="st0" points="995.72 853.71 992.55 854.53 995.71 857.06 995.72 853.71"/>
      <polygon class="st0" points="960.74 867.14 963.11 857.1 963.91 863.78 960.74 867.14"/>
      <polygon class="st0" points="986.18 858.76 983.01 858.75 983.01 862.11 986.18 858.76"/>
      <rect class="st0" x="1134.14" y="858.76" width="3.17" height="1.65"/>
      <rect class="st0" x="967.11" y="865.48" width="1.56" height="3.35"/>
      <path class="st0" d="M984.58,865.48c-3.66-4.78-3.09,11.37-3.16,11.75,5.9,1.39,2.27-8.2,3.16-11.75Z"/>
      <rect class="st0" x="1140.51" y="867.16" width="1.56" height="3.35"/>
      <polygon class="st0" points="965.5 872.2 960.74 870.51 960.74 880.59 965.5 872.2"/>
      <rect class="st0" x="1132.54" y="870.53" width="3.17" height="1.65"/>
      <path class="st0" d="M1274.92,883.96v1.68c1.03-.56,1.03-1.12,0-1.68Z"/>
      <path class="st0" d="M961.52,885.65v1.68c1.03-.56,1.03-1.12,0-1.68Z"/>
      <path class="st0" d="M983.79,889.01v1.68c1.03-.56,1.03-1.12,0-1.68Z"/>
      <path class="st0" d="M1001.29,889.01v1.68c1.03-.56,1.03-1.12,0-1.68Z"/>
      <rect class="st0" x="1102.32" y="889.02" width="3.16" height="3.34"/>
      <polygon class="st0" points="1277.3 890.71 1274.13 890.7 1274.14 894.05 1277.3 890.71"/>
      <polygon class="st0" points="1280.47 897.41 1281.3 892.4 1277.3 894.07 1280.47 897.41"/>
      <path class="st0" d="M992.53,894.04c-1.68-2.2-2.83.15-3.55,2.12-1.03,2.82-1.3,11.08-2.79,14.7,8.83-1.24,4.23.5,6.92-4.43.39-.72,2.72-.59,2.69-1.5-.06-2.54-4.82-6.56-3.27-10.89Z"/>
      <path class="st0" d="M1282.87,897.41v1.68c1.03-.56,1.03-1.12,0-1.68Z"/>
      <path class="st0" d="M1155.6,899.1v1.68c1.03-.56,1.03-1.12,0-1.68Z"/>
      <polygon class="st0" points="978.22 900.79 975.05 900.79 975.05 907.48 978.22 907.49 978.22 900.79"/>
      <rect class="st0" x="967.1" y="904.16" width="3.17" height="1.65"/>
      <polygon class="st0" points="984.58 904.15 981.42 904.15 981.42 906.64 983.8 909.17 984.58 904.15"/>
      <rect class="st0" x="965.51" y="909.2" width="3.17" height="1.65"/>
      <path class="st0" d="M949.59,915.89c3.01.56,5.29-1.96,4.76-5.03l-4.76,5.03Z"/>
      <path class="st0" d="M975.86,912.58l-2.37,2.5.75.79c.88-1.07,3.2-2.19,1.62-3.3h0Z"/>
      <polygon class="st0" points="992.54 915.89 989.38 912.55 989.37 915.9 992.54 915.89"/>
      <path class="st0" d="M1177.88,912.55v1.68c1.03-.56,1.03-1.12,0-1.68Z"/>
      <rect class="st0" x="979.83" y="915.92" width="1.56" height="3.35"/>
      <rect class="st0" x="1010.06" y="915.92" width="1.56" height="3.35"/>
      <polygon class="st0" points="989.36 920.93 986.2 917.59 986.19 920.94 989.36 920.93"/>
      <rect class="st0" x="1270.95" y="919.29" width="3.17" height="1.65"/>
      <rect class="st0" x="1105.5" y="920.97" width="3.17" height="1.65"/>
      <path class="st0" d="M1287.64,920.95v1.68c1.03-.56,1.03-1.12,0-1.68Z"/>
      <polygon class="st0" points="970.28 922.62 965.51 922.65 965.51 924.29 971.08 927.64 970.28 922.62"/>
      <path class="st0" d="M983,926.02l-7.92-.87c2.09,3.17,5.3-.69,4.77,4.18l3.16-3.31h-.01Z"/>
      <path class="st0" d="M983.79,922.63v1.68c1.03-.56,1.03-1.12,0-1.68Z"/>
      <polygon class="st0" points="1010.03 925.99 1010.03 922.63 1006.87 925.16 1010.03 925.99"/>
      <path class="st0" d="M930.5,929.36c0,.22-1.99,1.11,0,1.68l12.72,3.36c1-5.9-7.84-4.87-11.13-5.04,1.02-.69,1.84-1.62,3.15-1.71l-.77-3.34c-7.04-.13-4.09,2.38-3.97,5.05h0Z"/>
      <polygon class="st0" points="1167.52 927.68 1161.18 927.68 1161.18 931.03 1167.53 931.03 1167.52 927.68"/>
      <path class="st0" d="M1178.66,942.81c-1.09-5.41,5.35-14.7-3.16-15.12,2.24,4.76-2.19,12.72,3.16,15.12Z"/>
      <polygon class="st0" points="984.58 932.71 984.57 929.36 981.42 931.89 984.58 932.71"/>
      <path class="st0" d="M986.98,929.36v1.68c1.03-.56,1.03-1.12,0-1.68Z"/>
      <path class="st0" d="M971.07,931.04v1.68c1.03-.56,1.03-1.12,0-1.68Z"/>
      <path class="st0" d="M1165.93,934.42c-2.94-1.08-4.99-1.08-7.93,0v1.64h7.93v-1.64Z"/>
      <path class="st0" d="M976.61,936.09c-6.81-1.19-1.79,11.16,1.6,11.76l-1.6-11.76Z"/>
      <path class="st0" d="M934.48,937.76v1.68c1.03-.56,1.03-1.12,0-1.68Z"/>
      <rect class="st0" x="948.01" y="937.78" width="3.17" height="1.65"/>
      <rect class="st0" x="968.7" y="937.77" width="1.56" height="3.35"/>
      <path class="st0" d="M988.57,939.44v1.68c1.03-.56,1.03-1.12,0-1.68Z"/>
      <rect class="st0" x="1162.77" y="941.13" width="3.16" height="3.34"/>
      <rect class="st0" x="949.61" y="942.82" width="1.56" height="3.35"/>
      <path class="st0" d="M1115.83,944.49v1.68c1.03-.56,1.03-1.12,0-1.68Z"/>
      <rect class="st0" x="962.33" y="946.19" width="3.17" height="1.65"/>
      <path class="st0" d="M1170.71,947.87c-3.37-.09-6.76-2.99-7.94,1.65h7.95v-1.65h-.01Z"/>
      <polygon class="st0" points="952.77 951.2 949.61 947.85 949.6 951.2 952.77 951.2"/>
      <rect class="st0" x="1169.13" y="956.27" width="3.17" height="1.65"/>
      <path class="st0" d="M980.61,959.62v1.68c1.03-.56,1.03-1.12,0-1.68Z"/>
      <rect class="st0" x="979.82" y="963" width="3.17" height="1.65"/>
      <path class="st0" d="M1108.67,966.33c-.85-3.34-3.39-3.77-6.35-3.34v3.34h6.35Z"/>
      <rect class="st0" x="1111.86" y="963" width="3.17" height="1.65"/>
      <path class="st0" d="M951.98,969.71v1.68c1.03-.56,1.03-1.12,0-1.68Z"/>
      <polygon class="st0" points="994.13 976.46 987.77 974.77 991.77 979.78 994.13 979.79 994.13 976.46"/>
      <path class="st0" d="M1123.79,974.75v1.68c1.03-.56,1.03-1.12,0-1.68Z"/>
      <path class="st0" d="M1356.05,983.16v1.68c1.03-.56,1.03-1.12,0-1.68Z"/>
      <rect class="st0" x="973.47" y="988.21" width="1.56" height="3.35"/>
      <path class="st0" d="M977.43,988.2v1.68c1.03-.56,1.03-1.12,0-1.68Z"/>
      <path class="st0" d="M1161.97,988.2v1.68c1.03-.56,1.03-1.12,0-1.68Z"/>
      <path class="st0" d="M975.84,993.24v1.68c1.03-.56,1.03-1.12,0-1.68Z"/>
      <path class="st0" d="M983.79,999.97v1.68c1.03-.56,1.03-1.12,0-1.68Z"/>
      <path class="st0" d="M865.27,278.71c-5.8,1.59-5.74-11.69-2.38-11.73l2.38,11.73Z"/>
      <path class="st0" d="M858.89,625.04c-2.76-.37-1.85-9.02-1.63-10.98.28-2.51.32-5.18,3.22-5.82l-1.6,16.8h.01Z"/>
      <path class="st0" d="M925.72,909.17c-6.92.05-4.49-8.72-4.75-13.44,4.28,2.07,3.39,9.36,4.75,13.44Z"/>
      <path class="st0" d="M870.04,393.04c-7.55-.32-4.62-8.24-.78-11.75l.78,11.75Z"/>
      <rect class="st0" x="903.45" y="942.81" width="4.78" height="8.39"/>
      <path class="st0" d="M903.45,551.08l1.6,11.75c-3.87,3.47-8-13.86-1.6-11.75Z"/>
      <path class="st0" d="M884.36,641.86h-2.35c-6.83-2.82,2.7-16.2,2.35,0Z"/>
      <path class="st0" d="M930.5,781.43l1.6,5.85-3.99,2.5c-4.42-1.69-.67-11.05,2.39-8.35Z"/>
      <polygon class="st0" points="919.36 942.8 913.01 940.28 917.79 934.41 919.36 942.8"/>
      <path class="st0" d="M855.72,695.66h-3.16c-.12-3.58-.67-7.69,2.39-10.07l.78,10.07h-.01Z"/>
      <polygon class="st0" points="943.22 793.17 947.84 793.27 947.98 801.58 942.32 792.34 944.81 788.15 943.22 793.17"/>
      <path class="st0" d="M893.9,409.87c0,6.61-6.31,6.69-6.35,0h6.35Z"/>
      <path class="st0" d="M857.32,668.78c-.89,2.85-.11,10.55-3.16,11.75.95-3.13-2.85-13.04,3.16-11.75Z"/>
      <path class="st0" d="M941.62,890.68l-4.74-3.35c.69,3.15-2.09,7.05-4.77,8.39-1.04-8.09,10.67-8.06,7.95-16.8l1.56,11.75h0Z"/>
      <polygon class="st0" points="951.16 801.57 949.61 791.5 953.58 791.54 951.16 801.57"/>
      <path class="st0" d="M901.85,611.59h-1.55c-.08-3.59-.94-8.72,3.15-10.07l-1.59,10.07h-.01Z"/>
      <path class="st0" d="M916.18,1013.43v2.49l-4.75,4.23c-.62-4.03.74-7.13,4.75-6.72Z"/>
      <rect class="st0" x="860.51" y="251.83" width="3.17" height="6.71"/>
      <path class="st0" d="M893.91,907.49c-5.91,1.42-2.29-8.19-3.16-11.74,3.37,1.23.34,8.71,3.16,11.74Z"/>
      <path class="st0" d="M1016.39,803.26c-3.6-1.48-.68-10.11-1.56-13.43,3.6,1.48.68,10.11,1.56,13.43Z"/>
      <polygon class="st0" points="885.94 705.75 882.69 701.55 885.17 697.36 885.94 705.75"/>
      <polygon class="st0" points="935.27 766.29 933.66 774.67 932.11 774.68 932.1 766.29 935.27 766.29"/>
      <polygon class="st0" points="919.36 946.18 919.36 951.2 914.59 951.2 916.2 946.17 919.36 946.18"/>
      <rect class="st0" x="935.29" y="791.51" width="1.56" height="11.75"/>
      <polygon class="st0" points="885.94 295.5 881.2 298.89 881.19 292.18 883.55 292.19 885.94 295.5"/>
      <rect class="st0" x="1072.1" y="425" width="1.56" height="11.75"/>
      <rect class="st0" x="855.75" y="646.92" width="1.56" height="11.75"/>
      <path class="st0" d="M911.43,922.64h1.56l.83,10.04c-4.37-3-3.22-5.23-2.38-10.04h-.01Z"/>
      <rect class="st0" x="941.65" y="798.23" width="1.56" height="10.07"/>
      <path class="st0" d="M912.99,677.17c-2.4,2.54-6.78-5-2.38-5,1.05,0,3.29,4.04,2.38,5Z"/>
      <polygon class="st0" points="893.91 951.2 887.56 951.2 887.56 949.56 892.3 946.18 893.91 951.2"/>
      <polygon class="st0" points="911.4 843.61 906.67 839.41 909.03 836.9 911.4 843.61"/>
      <rect class="st0" x="1014.83" y="826.81" width="1.56" height="10.07"/>
      <polygon class="st0" points="905.22 962.73 908.22 961.29 908.22 964.65 903.46 964.65 903.47 959.63 905.22 962.73"/>
      <rect class="st0" x="858.93" y="596.48" width="1.56" height="8.39"/>
      <polygon class="st0" points="898.68 408.19 898.67 410.67 895.52 413.22 895.51 408.19 898.68 408.19"/>
      <path class="st0" d="M898.68,428.34c-2.07.68-8-2.52-6.35-3.33,2.84-.46,5.58.1,6.35,3.33Z"/>
      <polygon class="st0" points="1016.4 889 1013.23 889 1013.24 886.51 1015.62 883.97 1016.4 889"/>
      <polygon class="st0" points="901.86 297.23 901.08 302.25 898.7 299.71 898.69 297.23 901.86 297.23"/>
      <polygon class="st0" points="903.45 774.68 900.28 774.68 900.29 769.64 903.44 772.19 903.45 774.68"/>
      <path class="st0" d="M938.45,877.26l-5.58,6.67-.75-.79c2.43-2.42,2.15-6.79,6.33-5.88Z"/>
      <polygon class="st0" points="1016.39 870.51 1014.83 870.5 1013.27 866.3 1015.62 863.8 1016.39 870.51"/>
      <path class="st0" d="M935.29,778.05c-.39-3.09-.09-4.92,2.39-6.69.23,2.58.59,6.27-2.39,6.69Z"/>
      <rect class="st0" x="1006.87" y="867.16" width="3.16" height="3.34"/>
      <rect class="st0" x="900.29" y="493.93" width="1.56" height="6.71"/>
      <rect class="st0" x="895.52" y="1001.66" width="1.56" height="6.71"/>
      <rect class="st0" x="1014.83" y="841.94" width="1.56" height="6.71"/>
      <polygon class="st0" points="868.45 456.92 865.28 456.92 866.89 451.9 868.44 451.9 868.45 456.92"/>
      <rect class="st0" x="905.06" y="902.47" width="1.56" height="6.71"/>
      <polygon class="st0" points="895.49 394.74 895.49 398.09 890.74 396.39 890.74 394.74 895.49 394.74"/>
      <rect class="st0" x="944.83" y="897.42" width="3.16" height="3.34"/>
      <polygon class="st0" points="1005.25 900.78 1002.12 898.25 1004.48 895.74 1005.25 900.78"/>
      <polygon class="st0" points="908.23 408.16 905.06 408.17 905.06 404.82 908.23 408.16"/>
      <polygon class="st0" points="884.36 416.59 883.58 419.94 881.19 416.6 884.36 416.59"/>
      <rect class="st0" x="922.56" y="778.06" width="1.56" height="5.03"/>
      <polygon class="st0" points="911.4 764.62 905.05 769.62 906.77 763.73 911.4 764.62"/>
      <polygon class="st0" points="887.54 759.56 887.53 762.92 884.37 760.39 887.54 759.56"/>
      <rect class="st0" x="844.61" y="816.72" width="1.56" height="5.03"/>
      <polygon class="st0" points="908.23 463.67 905.06 467.02 905.06 463.67 908.23 463.67"/>
      <polygon class="st0" points="893.91 941.14 890.75 944.49 890.74 941.13 893.91 941.14"/>
      <rect class="st0" x="884.38" y="717.53" width="1.56" height="5.03"/>
      <polygon class="st0" points="903.47 697.35 903.47 694 907.44 692.34 909.79 694.84 903.47 697.35"/>
      <polygon class="st0" points="895.5 482.17 892.34 485.51 892.33 482.16 895.5 482.17"/>
      <rect class="st0" x="900.29" y="690.63" width="1.56" height="5.03"/>
      <polygon class="st0" points="893.91 926.01 890.75 929.36 890.74 926 893.91 926.01"/>
      <polygon class="st0" points="946.4 873.87 943.24 873.04 946.39 870.52 946.4 873.87"/>
      <rect class="st0" x="909.84" y="875.57" width="1.56" height="5.03"/>
      <rect class="st0" x="890.75" y="877.25" width="1.56" height="5.03"/>
      <polygon class="st0" points="903.46 515.76 900.28 515.77 900.29 512.41 903.46 515.76"/>
      <rect class="st0" x="905.06" y="887.34" width="1.56" height="5.03"/>
      <rect class="st0" x="890.75" y="889.02" width="1.56" height="5.03"/>
      <rect class="st0" x="905.06" y="894.06" width="1.56" height="5.03"/>
      <polygon class="st0" points="959.13 895.74 958.35 899.09 955.95 895.75 959.13 895.74"/>
      <polygon class="st0" points="885.96 290.47 882.78 290.48 882.79 287.13 885.96 290.47"/>
      <rect class="st0" x="1008.47" y="895.74" width="1.56" height="5.03"/>
      <polygon class="st0" points="862.09 576.32 858.93 579.66 858.92 576.31 862.09 576.32"/>
      <polygon class="st0" points="906.64 297.23 903.47 300.58 903.47 297.23 906.64 297.23"/>
      <rect class="st0" x="905.06" y="910.87" width="1.56" height="3.35"/>
      <rect class="st0" x="890.75" y="910.87" width="1.56" height="3.35"/>
      <rect class="st0" x="911.43" y="914.24" width="1.56" height="3.35"/>
      <rect class="st0" x="905.06" y="915.92" width="1.56" height="3.35"/>
      <rect class="st0" x="940.06" y="892.38" width="1.56" height="3.35"/>
      <rect class="st0" x="892.34" y="280.41" width="1.56" height="3.35"/>
      <rect class="st0" x="1008.47" y="890.7" width="1.56" height="3.35"/>
      <rect class="st0" x="841.43" y="324.12" width="1.56" height="3.35"/>
      <polygon class="st0" points="1014.83 877.25 1016.39 877.25 1016.39 879.74 1014 882.25 1014.83 877.25"/>
      <rect class="st0" x="857.34" y="633.47" width="1.56" height="3.35"/>
      <rect class="st0" x="1006.87" y="873.89" width="3.17" height="1.65"/>
      <rect class="st0" x="900.29" y="504.02" width="1.56" height="3.35"/>
      <rect class="st0" x="1014.83" y="872.2" width="1.56" height="3.35"/>
      <rect class="st0" x="898.69" y="650.29" width="3.17" height="1.65"/>
      <rect class="st0" x="997.33" y="867.16" width="1.56" height="3.35"/>
      <rect class="st0" x="895.52" y="1010.06" width="1.56" height="3.35"/>
      <rect class="st0" x="905.06" y="485.52" width="1.56" height="3.35"/>
      <rect class="st0" x="1014.83" y="850.35" width="1.56" height="3.35"/>
      <polygon class="st0" points="895.49 932.74 895.49 934.38 893.14 934.38 890.76 931.86 895.49 932.74"/>
      <rect class="st0" x="871.66" y="697.36" width="1.56" height="3.35"/>
      <rect class="st0" x="906.65" y="477.12" width="1.56" height="3.35"/>
      <rect class="st0" x="852.57" y="704.08" width="1.56" height="3.35"/>
      <polygon class="st0" points="874.81 477.1 873.25 477.1 871.68 472.89 874.04 470.42 874.81 477.1"/>
      <rect class="st0" x="916.2" y="835.22" width="1.56" height="3.35"/>
      <rect class="st0" x="884.37" y="746.12" width="3.17" height="1.65"/>
      <rect class="st0" x="898.69" y="364.48" width="3.17" height="1.65"/>
      <rect class="st0" x="946.43" y="976.44" width="1.56" height="3.35"/>
      <rect class="st0" x="890.74" y="389.7" width="3.17" height="1.65"/>
      <rect class="st0" x="1014.83" y="779.74" width="1.56" height="3.35"/>
      <rect class="st0" x="900.28" y="399.79" width="3.17" height="1.65"/>
      <rect class="st0" x="927.34" y="794.87" width="1.56" height="3.35"/>
      <rect class="st0" x="898.69" y="403.15" width="3.17" height="1.65"/>
      <path class="st0" d="M966.29,799.9c1.03.56,1.03,1.12,0,1.68v-1.68Z"/>
      <path class="st0" d="M955.16,806.63c1.03.56,1.03,1.12,0,1.68v-1.68Z"/>
      <path class="st0" d="M923.34,771.32c1.03.56,1.03,1.12,0,1.68v-1.68Z"/>
      <path class="st0" d="M886.75,767.96c1.03.56,1.03,1.12,0,1.68v-1.68Z"/>
      <path class="st0" d="M951.98,808.31c1.03.56,1.03,1.12,0,1.68v-1.68Z"/>
      <path class="st0" d="M848.57,767.96c1.03.56,1.03,1.12,0,1.68v-1.68Z"/>
      <path class="st0" d="M888.34,809.99c1.03.56,1.03,1.12,0,1.68v-1.68Z"/>
      <path class="st0" d="M913.8,761.23c1.03.56,1.03,1.12,0,1.68v-1.68Z"/>
      <path class="st0" d="M1015.61,818.4c1.03.56,1.03,1.12,0,1.68v-1.68Z"/>
      <path class="st0" d="M886.75,736.02c1.03.56,1.03,1.12,0,1.68v-1.68Z"/>
      <path class="st0" d="M851.75,732.65c1.03.56,1.03,1.12,0,1.68v-1.68Z"/>
      <path class="st0" d="M885.16,725.93c1.03.56,1.03,1.12,0,1.68v-1.68Z"/>
      <path class="st0" d="M835.85,831.85c1.03.56,1.03,1.12,0,1.68v-1.68Z"/>
      <path class="st0" d="M905.86,833.56c1.58,1.1-.74,2.22-1.62,3.3l-.75-.79,2.37-2.5h0Z"/>
      <path class="st0" d="M874.03,715.84c1.03.56,1.03,1.12,0,1.68v-1.68Z"/>
      <path class="st0" d="M853.35,710.8c1.03.56,1.03,1.12,0,1.68v-1.68Z"/>
      <path class="st0" d="M835.85,840.25c1.03.56,1.03,1.12,0,1.68v-1.68Z"/>
      <path class="st0" d="M904.25,840.25c1.03.56,1.03,1.12,0,1.68v-1.68Z"/>
      <path class="st0" d="M923.34,705.75c1.03.56,1.03,1.12,0,1.68v-1.68Z"/>
      <path class="st0" d="M905.84,843.62c1.03.56,1.03,1.12,0,1.68v-1.68Z"/>
      <path class="st0" d="M1010.85,847.01c1.58,1.1-.74,2.22-1.62,3.3l-.75-.79,2.37-2.5h0Z"/>
      <path class="st0" d="M854.94,682.22c1.03.56,1.03,1.12,0,1.68v-1.68Z"/>
      <path class="st0" d="M1015.61,858.75c1.03.56,1.03,1.12,0,1.68v-1.68Z"/>
      <path class="st0" d="M902.66,662.04c1.03.56,1.03,1.12,0,1.68v-1.68Z"/>
      <path class="st0" d="M905.84,867.15c1.03.56,1.03,1.12,0,1.68v-1.68Z"/>
      <path class="st0" d="M939.25,873.88c1.03.56,1.03,1.12,0,1.68v-1.68Z"/>
      <path class="st0" d="M912.21,623.37c1.03.56,1.03,1.12,0,1.68v-1.68Z"/>
      <path class="st0" d="M913.8,880.6c1.03.56,1.03,1.12,0,1.68v-1.68Z"/>
      <path class="st0" d="M891.53,883.96c1.03.56,1.03,1.12,0,1.68v-1.68Z"/>
      <path class="st0" d="M955.16,890.69c1.03.56,1.03,1.12,0,1.68v-1.68Z"/>
      <path class="st0" d="M953.57,895.73c1.03.56,1.03,1.12,0,1.68v-1.68Z"/>
      <path class="st0" d="M913.8,586.39c1.03.56,1.03,1.12,0,1.68v-1.68Z"/>
      <path class="st0" d="M912.21,905.82c1.03.56,1.03,1.12,0,1.68v-1.68Z"/>
      <path class="st0" d="M896.3,554.44c1.03.56,1.03,1.12,0,1.68v-1.68Z"/>
      <path class="st0" d="M899.48,915.91c1.03.56,1.03,1.12,0,1.68v-1.68Z"/>
      <path class="st0" d="M910.62,530.91c1.03.56,1.03,1.12,0,1.68v-1.68Z"/>
      <path class="st0" d="M891.53,530.91c1.03.56,1.03,1.12,0,1.68v-1.68Z"/>
      <path class="st0" d="M883.57,529.23c1.03.56,1.03,1.12,0,1.68v-1.68Z"/>
      <path class="st0" d="M885.16,519.14c1.03.56,1.03,1.12,0,1.68v-1.68Z"/>
      <path class="st0" d="M886.75,505.69c1.03.56,1.03,1.12,0,1.68v-1.68Z"/>
      <path class="st0" d="M883.57,472.06c1.03.56,1.03,1.12,0,1.68v-1.68Z"/>
      <path class="st0" d="M891.53,936.08c1.03.56,1.03,1.12,0,1.68v-1.68Z"/>
      <path class="st0" d="M901.07,468.7c1.03.56,1.03,1.12,0,1.68v-1.68Z"/>
      <path class="st0" d="M904.25,458.61c1.03.56,1.03,1.12,0,1.68v-1.68Z"/>
      <path class="st0" d="M891.53,456.93c1.03.56,1.03,1.12,0,1.68v-1.68Z"/>
      <path class="st0" d="M915.39,451.89c1.03.56,1.03,1.12,0,1.68v-1.68Z"/>
      <path class="st0" d="M885.16,949.53c1.03.56,1.03,1.12,0,1.68v-1.68Z"/>
      <path class="st0" d="M897.89,949.53c1.03.56,1.03,1.12,0,1.68v-1.68Z"/>
      <path class="st0" d="M931.3,952.89c1.03.56,1.03,1.12,0,1.68v-1.68Z"/>
      <path class="st0" d="M885.16,961.3c1.03.56,1.03,1.12,0,1.68v-1.68Z"/>
      <path class="st0" d="M916.98,961.3c1.03.56,1.03,1.12,0,1.68v-1.68Z"/>
      <path class="st0" d="M948.8,961.3c1.03.56,1.03,1.12,0,1.68v-1.68Z"/>
      <path class="st0" d="M953.57,961.3c1.03.56,1.03,1.12,0,1.68v-1.68Z"/>
      <path class="st0" d="M969.48,961.3c1.03.56,1.03,1.12,0,1.68v-1.68Z"/>
      <path class="st0" d="M859.71,418.26c1.03.56,1.03,1.12,0,1.68v-1.68Z"/>
      <path class="st0" d="M901.07,409.86c1.03.56,1.03,1.12,0,1.68v-1.68Z"/>
      <path class="st0" d="M883.57,968.03c1.03.56,1.03,1.12,0,1.68v-1.68Z"/>
      <path class="st0" d="M907.43,399.77c1.03.56,1.03,1.12,0,1.68v-1.68Z"/>
      <path class="st0" d="M889.92,973.1c.88,1.07,3.2,2.19,1.62,3.3-.77-.99-3.19-2.13-1.62-3.3Z"/>
      <path class="st0" d="M883.57,974.75c1.03.56,1.03,1.12,0,1.68v-1.68Z"/>
      <path class="st0" d="M912.21,974.75c1.03.56,1.03,1.12,0,1.68v-1.68Z"/>
      <path class="st0" d="M896.3,364.47c1.03.56,1.03,1.12,0,1.68v-1.68Z"/>
      <path class="st0" d="M891.53,364.47c1.03.56,1.03,1.12,0,1.68v-1.68Z"/>
      <path class="st0" d="M904.25,362.78c1.03.56,1.03,1.12,0,1.68v-1.68Z"/>
      <path class="st0" d="M850.16,362.78c1.03.56,1.03,1.12,0,1.68v-1.68Z"/>
      <path class="st0" d="M894.71,349.33c1.03.56,1.03,1.12,0,1.68v-1.68Z"/>
      <path class="st0" d="M932.89,999.97c1.03.56,1.03,1.12,0,1.68v-1.68Z"/>
      <polygon class="st0" points="929.71 1003.37 931.31 1006.66 929.71 1005.05 927.35 1005.87 929.71 1003.37"/>
      <path class="st0" d="M896.3,339.25c1.03.56,1.03,1.12,0,1.68v-1.68Z"/>
      <path class="st0" d="M921.74,1016.81c.88,1.07,3.2,2.19,1.62,3.3-.77-.99-3.19-2.13-1.62-3.3Z"/>
      <path class="st0" d="M915.39,1020.14c1.03.56,1.03,1.12,0,1.68v-1.68Z"/>
      <path class="st0" d="M902.66,325.8c1.03.56,1.03,1.12,0,1.68v-1.68Z"/>
      <path class="st0" d="M912.21,319.07c1.03.56,1.03,1.12,0,1.68v-1.68Z"/>
      <path class="st0" d="M881.98,319.07c1.03.56,1.03,1.12,0,1.68v-1.68Z"/>
      <path class="st0" d="M915.39,315.71c1.03.56,1.03,1.12,0,1.68v-1.68Z"/>
      <path class="st0" d="M901.07,308.99c1.03.56,1.03,1.12,0,1.68v-1.68Z"/>
      <path class="st0" d="M916.98,305.62c1.03.56,1.03,1.12,0,1.68v-1.68Z"/>
      <path class="st0" d="M913.8,300.58c1.03.56,1.03,1.12,0,1.68v-1.68Z"/>
      <path class="st0" d="M897.89,292.17c1.03.56,1.03,1.12,0,1.68v-1.68Z"/>
      <path class="st0" d="M913.8,288.81c1.03.56,1.03,1.12,0,1.68v-1.68Z"/>
      <path class="st0" d="M902.66,288.81c1.03.56,1.03,1.12,0,1.68v-1.68Z"/>
      <path class="st0" d="M883.57,283.77c1.03.56,1.03,1.12,0,1.68v-1.68Z"/>
      <path class="st0" d="M915.39,275.36c1.03.56,1.03,1.12,0,1.68v-1.68h0Z"/>
      <path class="st0" d="M910.62,275.36c1.03.56,1.03,1.12,0,1.68v-1.68h0Z"/>
      <path class="st0" d="M901.07,253.5c1.03.56,1.03,1.12,0,1.68v-1.68Z"/>
      <path class="st0" d="M920.18,250.18c1.58,1.1-.74,2.22-1.62,3.3l-.75-.79,2.37-2.5h0Z"/>
      <path class="st0" d="M915.39,248.46c1.03.56,1.03,1.12,0,1.68v-1.68Z"/>
      <rect class="st0" x="1320.26" y="519.16" width="3.17" height="1.65"/>
      <rect class="st0" x="1315.49" y="519.16" width="3.17" height="1.65"/>
      <polygon class="st0" points="1269.34 339.24 1266.17 339.23 1268.56 335.89 1269.34 339.24"/>
      <rect class="st0" x="1267.77" y="340.95" width="3.17" height="1.65"/>
      <path class="st0" d="M1263.78,342.61c1.03.56,1.03,1.12,0,1.68v-1.68Z"/>
      <path class="st0" d="M948.8,384.64c1.03.56,1.03,1.12,0,1.68v-1.68Z"/>
      <path class="st0" d="M1316.28,263.59c1.03.56,1.03,1.12,0,1.68v-1.68Z"/>
      <rect class="st0" x="971.88" y="883.97" width="1.56" height="3.35"/>
      <path class="st0" d="M972.66,890.69c1.03.56,1.03,1.12,0,1.68v-1.68Z"/>
      <rect class="st0" x="1070.5" y="473.76" width="3.17" height="1.65"/>
      <rect class="st0" x="954.37" y="989.9" width="3.17" height="1.65"/>
      <path class="st0" d="M974.25,862.11c1.03.56,1.03,1.12,0,1.68v-1.68Z"/>
    </g>
  </g>
  <rect class="st0" x="1301.2" y="823.46" width="63.99" height="46.71"/>
  <rect class="st0" x="1294.02" y="544.37" width="70.81" height="58.45"/>
  <rect class="st0" x="1294.01" y="375.06" width="70.81" height="110.46"/>
  <rect class="st0" x="1299.57" y="322.45" width="65.25" height="52.61"/>
  <g>
    <path d="M1317.14,886.84c-.39-2.81,1.2-2.57,3.78-3.01l-3.78,3.01Z"/>
    <path d="M1434.46,772.58c-7.99-1.97-12.45-5.82-21.88-4.02-13.69,2.62-20.43,15.4-34.84,10.04,3.08,16.23,6.06,7.84-9.51,11.96l1.91-11.96-7.58,9.02c-14.34-2.38-7.54-13.85-8.22-14.61-.89-.99-6.67-1.05-8.65-3.41-3.22-3.84-1.14-11.23-5.52-13.79l-15.41-1.25,11.33,8.97-20.64.2-2.07-9.18-3.78,6.01-7.48-4.52c7.88-11.47,16.2-3.47,23.82-4.89,4.89-.92,7.79-7.21,12.76-8.24,7.56-1.58,22.69,5.37,31.39,5.73,2.58,2.99-10.49,23.71,5.73,23.99,7.94-7.46,12.22-9.85,9.47-21.11,1.46-1.32,26.65,5.93,34.03-2.99l22.69,9c-.92-3.98-7-5.9-11.05-7.76-5.78-2.67-3.67-5.69-11.65-1.23.73-.88-2.1-5.64,2.26-6.21l22.08,2.9,2.13-2.71c4.48,7.54,8.58,15.06,7.53,24.05l-13.14-6.02c-5.74,3.16-6.21,6.91-5.74,12.04h.03Z"/>
    <rect x="1355.05" y="754.55" width="7.53" height="5.99"/>
    <path d="M1415.53,763.55l-1.86-9c-4.01,2.76-6.9,4.55-5.67,8.99h7.53Z"/>
    <path d="M1387.18,769.57v3.01c2.46-1,2.46-2,0-3.01Z"/>
    <path d="M1245.33,889.82v3.01l-7.6-1.52.07-4.5c.46-.44,6.18,2.14,7.54,3.01h-.01Z"/>
    <path d="M1275.59,850.74v3.01c-2.99-.95-11.43,1.8-11.38-1.5.62-2.64,8.64-1.82,11.38-1.5h0Z"/>
    <path d="M1249.12,892.83c.62,1.22,1.19,6.27-1.89,6.04l-1.89-6.04c.58.47,2.64-.4,3.78,0Z"/>
    <path d="M1328.55,823.69c-.4,1.85-.25,3.94.2,5.79l14.93,3.23c-.93,1.6.99,6.28-1.65,9.1-4.91,5.26-20.03-.75-17.31,8.92l-3.71.02-7.57-6.02-.04,30.06-22.66-2.99,11.34,6.02c-1.9,6.37-13.08,7.56-20.28,5.61-7.8-2.11-10.71-21.29-21.34-5.68l11.35,6.04-18.9-5.98c-3.75,16.81,22.67,10.23,35.95,10.33,6.64.05,7.44-3.22,5.63,4.67l-16.75-3.15c-3.79,10.33-17.77,6.95-28.62,3.16-1.16-2.27-2.23-2.02-3.78-3.01l3.94-21.05c9.1,2.23,22.05,2.42,24.42-6.03,1.92-.12,1.01,14.55,17.01-1.49-5.38-.92-11.25-6.27-15.12-7.5l3.73-1.52c-.81-1.37-2.15-1.31-3.73-1.49l3.7-7.55-9.33,1.58-1.94-6.02,26.48-6.02.29,11.79,14.83.2c3.86-11.66-14.18-1.44-15.1-8.98,12.09,2.74,13.26-7.54,18.02-8.99,1.31-.4,15.18-3.04,16-3.06h.01Z"/>
    <path d="M1328.55,823.69c1.33-6.18,10.44-10.43-3.49-13.3l3.16-16.6c-10.38,1.17-11.53-2.08-14.8-9.16l16.7,3.28,2.31-6.26,30.15,12-18.88,2.99c-.34,14.22,18.06,3.47,30.23,6.02,1.58,5-5.01,1.8-6.69,3.45-2.72,2.67-.2,10.33-.86,14.56,1.83-.4,3.78-2.18,5.7-2.93l1.8,1.41-9.42,7.49-1.77-1.43c.97-1.44,3.48-3.19,3.69-4.53-12.36,2.67-4.28,2.12-8.8,4.88-3.02,1.84-13.53,6.52-13.9,7.14-2.26-5.02-8.36-9.21-15.13-9.02h0Z"/>
    <path d="M1339.91,820.67c13.59,1.39,19.12-5.59,17.04-14.97l-17.04,14.97Z"/>
    <path d="M1022.16,1013.08c3.74-2.27,4.32-4.46,11.34-3.02l1.74,15.17c5.3,6.75,18.72-1.59,20.96-.15l3.72,7.54-7.45,4.48-2.42-6-13.01,1.52-5.46,16.46,17.05.04-7.56-8.98,7.6,5.99,10-5.76,14.48,5.77,13.29-18.06,6.92,16.57c-10.44,12.72-27.7,1.27-32.17,19.65l-19.39.23-8.26,8.64-.05-12.02-11.3,3v-16.52l-7.53-1.5-7.65,15.01,11.35,2.99-9.46,2.98-9.68-16.32c.05-1.54,12.06-.25,7.78-12.16-3.4-9.45-11.96,1.75-15,2.73-3.62,1.16-10.38-1.21-15.19,1.77l-.06-9.02c9.99.61,13.91,1.7,17.27-6.17l12.74,2.94,4.03-5.78c3.51,7.45,5.82,17.8,18.95,14.99-7.01-8.26-11.56-19.14-26.46-18.04-.57-4.69,10.54-5.06,15.11-5.99-.34,2.68,5.99,14.62,11.32,15.01-3.01-6.38,2.73-15.8-7.54-18.02v.03Z"/>
    <polygon points="1063.77 1046.17 1056.22 1046.17 1056.23 1052.16 1063.76 1046.17 1063.77 1046.17"/>
    <path d="M1041.08,1058.15c1.84-1.17-6.61-7.94-11.33-5.98v5.99h11.33Z"/>
    <path d="M1046.75,1052.16v3.01c2.46-1,2.46-2,0-3.01Z"/>
    <path d="M1225.82,911.28l2.49,8.56,5.8-10.58,14.96,27.19c-11.26,4.23-16.95-8.96-15.1,7.5-14.37,2.61-2.49-13.07-3.8-18.04l-11.3,6-7.52-22.58,14.47,1.94h0Z"/>
    <path d="M1256.68,820.66l-11.34,1.52,7.5,6.02-37.77,13.5v-12l18.93.02.32-11.76c8.69-.72,18.6-6.67,22.36,2.7h0Z"/>
    <path d="M1150.74,865.81l.75,5.49c12.49-2.97,19.21,1.61,18.18,12.5l-24.6-5.81-1.86-12.2,7.52.02h0Z"/>
    <path d="M1143.19,748.54l-1.78,18.11c-5.93,7.89-25.95,2.61-6.73-14.25,2.14-1.88-.46-5.88,8.51-3.86Z"/>
    <path d="M1211.82,790.17c2.67,1.89,11-3.75,15.53-2.02l17.96,8.45-17.03,5.99,1.91-8.96c-12.34,2.93-18.12,4.94-26.41-4.52l7.46-4.5.57,5.55h.01Z"/>
    <path d="M1309.62,772.59c-1.87,9.98-11.74,8.39.02,18.01-9.96,1.13-11.68-6.33-11.38-12.02l-15.08,3.02v-9c10.04,2.88,16.4,2.64,26.44,0h0Z"/>
    <path d="M1139.42,1010.05l15.17-15c16.19-.14,6.69,9.55,7.51,18.07l-37.81-.06,7.59-18.02c13.81,1.64,17.79,7.16,7.54,15.01Z"/>
    <path d="M1351.26,736.49c-1.48-8.6,8.08-19.4,15.09-10.49,1.52,8.46-4.84,11.73-15.09,10.49Z"/>
    <path d="M1217.79,987.97c1.99-1.25-1.12-6.17,4.83-4.93,1.53,5.14-6.33,9.78-6.4,13.51-.08,3.87,7.31,7.24,4.57,10.48l-20.77-10.48c4.32-5.04,12.28-5.13,17.78-8.58h0Z"/>
    <path d="M1173.42,748.54c.79,5.92,11.26,20.12-3.71,18.04,1.37-6.22-11.66-20.17,3.71-18.04Z"/>
    <path d="M1306.81,976.39c1.75,1.88,8.17-1.34,6.6,3.6l-22.67-1.49,11.37-10.49c6.98-.93,1.8,5.26,4.7,8.38h0Z"/>
    <path d="M1150.77,907.83l-15.11,3.02v-9c7.06-.76,13.09-.02,15.11,5.97h0Z"/>
    <polygon points="1351.22 862.72 1336.12 868.76 1339.93 853.75 1351.22 862.72"/>
    <polygon points="1192.36 826.72 1177.25 838.69 1177.27 823.69 1192.36 826.72"/>
    <path d="M1218.84,959v2.95c-8.06,1.38-13,5.43-18.88-1.49,4.98-4.4,12.7-2.95,18.88-1.46Z"/>
    <polygon points="1192.36 977.03 1192.36 979.99 1169.7 983.01 1169.7 977.02 1192.36 977.03"/>
    <polygon points="1116.71 1019.12 1116.71 1022.07 1094.05 1025.08 1094.05 1022.13 1116.71 1019.12"/>
    <path d="M1226.42,868.8l-5.66,11.99-5.67-7.47c3.44-3.22,5.74-5.51,11.33-4.52h0Z"/>
    <polygon points="1211.27 805.67 1211.28 808.63 1192.39 808.64 1192.4 802.65 1211.27 805.67"/>
    <polygon points="1332.34 778.59 1322.85 781.55 1324.8 766.58 1328.51 766.58 1332.34 778.59"/>
    <polygon points="1192.41 1019.09 1188.63 1007.07 1199.88 1014.58 1192.41 1019.09"/>
    <rect x="1294.52" y="709.46" width="7.53" height="8.99"/>
    <path d="M1320.92,883.83c-2,7.77,20.41,9.55,5.7,14.99-7.85,2.9-5.99-12.1-13.18-13.52l7.49-1.47h0Z"/>
    <polygon points="1152.66 772.63 1158.28 777.09 1152.66 781.55 1147.05 777.09 1152.66 772.63"/>
    <path d="M1128.06,727.5v5.99c-5.6.97-7.85-1.32-11.32-4.51l11.32-1.48Z"/>
    <polygon points="1196.15 787.62 1196.13 793.62 1181.05 790.59 1181.05 787.63 1196.15 787.62"/>
    <polygon points="1268.01 796.64 1268.01 802.63 1249.14 799.61 1249.14 796.65 1268.01 796.64"/>
    <polygon points="1175.36 965.03 1180.97 969.49 1175.36 973.95 1169.74 969.49 1175.36 965.03"/>
    <path d="M1305.84,995.05v5.99c-5.6.97-7.85-1.32-11.32-4.51l11.32-1.48Z"/>
    <polygon points="1339.9 697.4 1332.35 697.41 1332.36 688.42 1336.08 688.42 1339.9 697.4"/>
    <rect x="1249.13" y="1022.11" width="7.53" height="5.99"/>
    <rect x="1162.13" y="955.97" width="7.53" height="5.99"/>
    <path d="M1150.71,718.45c-7.85.82-8.53.29-7.49-5.95l13.25-6.01,1.8,1.43-7.56,10.53Z"/>
    <rect x="1150.79" y="934.93" width="7.53" height="5.99"/>
    <path d="M1139.39,871.79c-1.47,1.47-10.01-5.26-7.51-9.02,1.47-1.47,10.01,5.26,7.51,9.02Z"/>
    <rect x="1230.22" y="868.79" width="7.53" height="5.99"/>
    <rect x="1313.44" y="685.42" width="11.32" height="2.96"/>
    <polygon points="1219.59 1022.99 1216.98 1028.1 1211.29 1022.12 1220.75 1019.14 1226.36 1023.63 1219.59 1022.99"/>
    <polygon points="1215.06 1016.07 1207.52 1014.6 1215.04 1010.07 1215.06 1016.07"/>
    <polygon points="1203.73 952.93 1196.18 952.94 1196.19 946.94 1203.73 952.93"/>
    <polygon points="1150.76 946.95 1150.74 952.95 1143.22 948.43 1150.76 946.95"/>
    <polygon points="1320.98 715.48 1313.45 721.47 1313.44 715.47 1320.98 715.48"/>
    <polygon points="1146.99 724.5 1139.45 730.49 1139.44 724.49 1146.99 724.5"/>
    <polygon points="1131.84 853.76 1131.83 859.76 1124.31 855.24 1131.84 853.76"/>
    <path d="M1192.41,853.75l-.02-6c4.49.54,6.73-.13,9.47-2.97l1.8,1.43-11.26,7.54h.01Z"/>
    <rect x="1309.65" y="796.65" width="11.32" height="2.96"/>
    <polygon points="1116.73 772.6 1109.19 778.59 1109.18 772.59 1116.73 772.6"/>
    <rect x="1268.04" y="778.62" width="7.54" height="2.96"/>
    <rect x="1271.83" y="796.65" width="7.54" height="2.96"/>
    <rect x="1271.83" y="763.58" width="7.54" height="2.96"/>
    <rect x="1196.19" y="835.72" width="3.72" height="5.99"/>
    <rect x="1135.66" y="850.77" width="7.54" height="2.96"/>
    <rect x="1143.24" y="856.77" width="3.72" height="5.99"/>
    <polygon points="1339.93 913.89 1343.65 913.89 1347.4 921.41 1345.6 922.85 1339.93 913.89"/>
    <rect x="1324.78" y="718.49" width="7.54" height="2.96"/>
    <rect x="1173.5" y="952.97" width="3.72" height="5.99"/>
    <rect x="1264.26" y="958.99" width="7.54" height="2.96"/>
    <rect x="1184.84" y="700.44" width="3.72" height="5.99"/>
    <polygon points="1143.19 961.99 1143.18 964.95 1128.09 967.97 1128.1 965.01 1143.19 961.99"/>
    <rect x="1226.44" y="983.04" width="7.54" height="2.96"/>
    <rect x="1097.84" y="998.06" width="3.72" height="5.99"/>
    <path d="M1099.71,1043.14c2.46,1,2.46,2,0,3.01v-3.01Z"/>
    <path d="M1216.97,1037.13c2.46,1,2.46,2,0,3.01v-3.01Z"/>
    <path d="M1262.36,1031.12c2.46,1,2.46,2,0,3.01v-3.01Z"/>
    <path d="M1341.79,1007.07c2.46,1,2.46,2,0,3.01v-3.01Z"/>
    <path d="M1345.57,691.41c2.46,1,2.46,2,0,3.01v-3.01Z"/>
    <path d="M1171.57,998.05c2.46,1,2.46,2,0,3.01v-3.01Z"/>
    <path d="M1254.79,986.02c2.46,1,2.46,2,0,3.01v-3.01Z"/>
    <path d="M1322.88,694.42c2.46,1,2.46,2,0,3.01v-3.01Z"/>
    <path d="M1148.88,697.42c2.46,1,2.46,2,0,3.01v-3.01Z"/>
    <path d="M1164.01,967.99c2.46,1,2.46,2,0,3.01v-3.01Z"/>
    <path d="M1160.23,949.95c2.46,1,2.46,2,0,3.01v-3.01Z"/>
    <path d="M1213.18,937.92c2.46,1,2.46,2,0,3.01v-3.01Z"/>
    <path d="M1156.44,925.9c2.46,1,2.46,2,0,3.01v-3.01Z"/>
    <path d="M1269.92,916.88c2.46,1,2.46,2,0,3.01v-3.01Z"/>
    <path d="M1194.27,916.88c2.46,1,2.46,2,0,3.01v-3.01Z"/>
    <path d="M1201.83,913.87c2.46,1,2.46,2,0,3.01v-3.01Z"/>
    <path d="M1311.53,898.84c2.46,1,2.46,2,0,3.01v-3.01Z"/>
    <path d="M1194.27,898.84c2.46,1,2.46,2,0,3.01v-3.01Z"/>
    <path d="M1330.44,862.77c2.46,1,2.46,2,0,3.01v-3.01Z"/>
    <path d="M1258.57,862.77c2.46,1,2.46,2,0,3.01v-3.01Z"/>
    <path d="M1258.57,850.74c2.46,1,2.46,2,0,3.01v-3.01Z"/>
    <path d="M1156.44,847.74c2.46,1,2.46,2,0,3.01v-3.01Z"/>
    <path d="M1145.1,841.72c2.46,1,2.46,2,0,3.01v-3.01Z"/>
    <path d="M1356.92,829.7c2.46,1,2.46,2,0,3.01v-3.01Z"/>
    <path d="M1292.62,793.62c2.46,1,2.46,2,0,3.01v-3.01Z"/>
    <path d="M1122.4,778.59c2.46,1,2.46,2,0,3.01v-3.01Z"/>
    <polygon points="1341.82 772.63 1343.62 774.06 1337.98 778.54 1336.18 777.11 1341.82 772.63"/>
    <path d="M1171.57,772.58c2.46,1,2.46,2,0,3.01v-3.01Z"/>
    <path d="M1164.01,772.58c2.46,1,2.46,2,0,3.01v-3.01Z"/>
    <path d="M1267.83,644.27c-.39-2.81,1.2-2.57,3.78-3.01l-3.78,3.01Z"/>
    <path d="M1385.16,530.01c-7.99-1.97-12.45-5.82-21.88-4.02-13.69,2.62-20.43,15.4-34.84,10.04,3.08,16.23,6.06,7.84-9.51,11.96l1.91-11.96-7.58,9.02c-14.34-2.38-7.54-13.85-8.22-14.61-.89-.99-6.67-1.05-8.65-3.41-3.22-3.84-1.14-11.23-5.52-13.79l-15.41-1.25,11.33,8.97-20.64.2-2.07-9.18-3.78,6.01-7.48-4.52c7.88-11.47,16.2-3.47,23.82-4.89,4.89-.92,7.79-7.21,12.76-8.24,7.56-1.58,22.69,5.37,31.39,5.73,2.58,2.99-10.49,23.71,5.73,23.99,7.94-7.46,12.22-9.85,9.47-21.11,1.46-1.32,26.65,5.93,34.03-2.99l22.69,9c-.92-3.98-7-5.9-11.05-7.76-5.78-2.67-3.67-5.69-11.65-1.23.73-.88-2.1-5.64,2.26-6.21l22.08,2.9,2.13-2.71c4.48,7.54,8.58,15.06,7.53,24.05l-13.14-6.02c-5.74,3.16-6.21,6.91-5.74,12.04h.03Z"/>
    <rect x="1305.74" y="511.99" width="7.53" height="5.99"/>
    <path d="M1366.23,520.98l-1.86-9c-4.01,2.76-6.9,4.55-5.67,8.99h7.53Z"/>
    <path d="M1337.88,527.01v3.01c2.46-1,2.46-2,0-3.01Z"/>
    <path d="M1196.03,647.26v3.01l-7.6-1.52.07-4.5c.46-.44,6.18,2.14,7.54,3.01h-.01Z"/>
    <path d="M1226.29,608.17v3.01c-2.99-.95-11.43,1.8-11.38-1.5.62-2.64,8.64-1.82,11.38-1.5h0Z"/>
    <path d="M1199.81,650.26c.62,1.22,1.19,6.27-1.89,6.04l-1.89-6.04c.58.47,2.64-.4,3.78,0Z"/>
    <path d="M1279.25,581.12c-.4,1.85-.25,3.94.2,5.79l14.93,3.23c-.93,1.6.99,6.28-1.65,9.1-4.91,5.26-20.03-.75-17.31,8.92l-3.71.02-7.57-6.02-.04,30.06-22.66-2.99,11.34,6.02c-1.9,6.37-13.08,7.56-20.28,5.61-7.8-2.11-10.71-21.29-21.34-5.68l11.35,6.04-18.9-5.98c-3.75,16.81,22.67,10.23,35.95,10.33,6.64.05,7.44-3.22,5.63,4.67l-16.75-3.15c-3.79,10.33-17.77,6.95-28.62,3.16-1.16-2.27-2.23-2.02-3.78-3.01l3.94-21.05c9.1,2.23,22.05,2.42,24.42-6.03,1.92-.12,1.01,14.55,17.01-1.49-5.38-.92-11.25-6.27-15.12-7.5l3.73-1.52c-.81-1.37-2.15-1.31-3.73-1.49l3.7-7.55-9.33,1.58-1.94-6.02,26.48-6.02.29,11.79,14.83.2c3.86-11.66-14.18-1.44-15.1-8.98,12.09,2.74,13.26-7.54,18.02-8.99,1.31-.4,15.18-3.04,16-3.06h.01Z"/>
    <path d="M1279.25,581.12c1.33-6.18,10.44-10.43-3.49-13.3l3.16-16.6c-10.38,1.17-11.53-2.08-14.8-9.16l16.7,3.28,2.31-6.26,30.15,12-18.88,2.99c-.34,14.22,18.06,3.47,30.23,6.02,1.58,5-5.01,1.8-6.69,3.45-2.72,2.67-.2,10.33-.86,14.56,1.83-.4,3.78-2.18,5.7-2.93l1.8,1.41-9.42,7.49-1.77-1.43c.97-1.44,3.48-3.19,3.69-4.53-12.36,2.67-4.28,2.12-8.8,4.88-3.02,1.84-13.53,6.52-13.9,7.14-2.26-5.02-8.36-9.21-15.13-9.02h0Z"/>
    <path d="M1290.61,578.1c13.59,1.39,19.12-5.59,17.04-14.97l-17.04,14.97Z"/>
    <path d="M1176.52,668.71l2.49,8.56,5.8-10.58,14.96,27.19c-11.26,4.23-16.95-8.96-15.1,7.5-14.37,2.61-2.49-13.07-3.8-18.04l-11.3,6-7.52-22.58,14.47,1.94h0Z"/>
    <path d="M1207.38,578.09l-11.34,1.52,7.5,6.02-37.77,13.5v-12l18.93.02.32-11.76c8.69-.72,18.6-6.67,22.36,2.7h0Z"/>
    <path d="M1101.43,623.24l.75,5.49c12.49-2.97,19.21,1.61,18.18,12.5l-24.6-5.81-1.86-12.2,7.52.02h0Z"/>
    <path d="M1093.89,505.97l-1.78,18.11c-5.93,7.89-25.95,2.61-6.73-14.25,2.14-1.88-.46-5.88,8.51-3.86Z"/>
    <path d="M1162.52,547.6c2.67,1.89,11-3.75,15.53-2.02l17.96,8.45-17.03,5.99,1.91-8.96c-12.34,2.93-18.12,4.94-26.41-4.52l7.46-4.5.57,5.55h.01Z"/>
    <path d="M1260.31,530.02c-1.87,9.98-11.74,8.39.02,18.01-9.96,1.13-11.68-6.33-11.38-12.02l-15.08,3.02v-9c10.04,2.88,16.4,2.64,26.44,0h0Z"/>
    <path d="M1090.12,767.48l15.17-15c16.19-.14,6.69,9.55,7.51,18.07l-37.81-.06,7.59-18.02c13.81,1.64,17.79,7.16,7.54,15.01Z"/>
    <path d="M1301.96,493.92c-1.48-8.6,8.08-19.4,15.09-10.49,1.52,8.46-4.84,11.73-15.09,10.49Z"/>
    <path d="M1168.48,745.4c1.99-1.25-1.12-6.17,4.83-4.93,1.53,5.14-6.33,9.78-6.4,13.51-.08,3.87,7.31,7.24,4.57,10.48l-20.77-10.48c4.32-5.04,12.28-5.13,17.78-8.58h0Z"/>
    <path d="M1124.11,505.97c.79,5.92,11.26,20.12-3.71,18.04,1.37-6.22-11.66-20.17,3.71-18.04Z"/>
    <path d="M1257.5,733.82c1.75,1.88,8.17-1.34,6.6,3.6l-22.67-1.49,11.37-10.49c6.98-.93,1.8,5.26,4.7,8.38h0Z"/>
    <path d="M1101.46,665.27l-15.11,3.02v-9c7.06-.76,13.09-.02,15.11,5.97h0Z"/>
    <polygon points="1301.91 620.15 1286.81 626.19 1290.62 611.18 1301.91 620.15"/>
    <polygon points="1143.06 584.15 1127.95 596.13 1127.97 581.12 1143.06 584.15"/>
    <path d="M1169.53,716.43v2.95c-8.06,1.38-13,5.43-18.88-1.49,4.98-4.4,12.7-2.95,18.88-1.46Z"/>
    <polygon points="1143.06 734.46 1143.06 737.42 1120.4 740.44 1120.39 734.45 1143.06 734.46"/>
    <polygon points="1067.41 776.55 1067.41 779.51 1044.74 782.51 1044.75 779.56 1067.41 776.55"/>
    <path d="M1177.12,626.24l-5.66,11.99-5.67-7.47c3.44-3.22,5.74-5.51,11.33-4.52h0Z"/>
    <polygon points="1161.97 563.11 1161.97 566.06 1143.09 566.07 1143.09 560.08 1161.97 563.11"/>
    <polygon points="1283.04 536.02 1273.54 538.98 1275.49 524.01 1279.21 524.02 1283.04 536.02"/>
    <polygon points="1143.11 776.52 1139.32 764.5 1150.58 772.02 1143.11 776.52"/>
    <rect x="1245.22" y="466.89" width="7.53" height="8.99"/>
    <path d="M1271.61,641.26c-2,7.77,20.41,9.55,5.7,14.99-7.85,2.9-5.99-12.1-13.18-13.52l7.49-1.47h0Z"/>
    <polygon points="1103.36 530.06 1108.97 534.52 1103.36 538.98 1097.74 534.52 1103.36 530.06"/>
    <path d="M1078.76,484.93v5.99c-5.6.97-7.85-1.32-11.32-4.51l11.32-1.48h0Z"/>
    <polygon points="1146.84 545.06 1146.83 551.05 1131.74 548.02 1131.74 545.07 1146.84 545.06"/>
    <polygon points="1218.7 554.07 1218.71 560.06 1199.83 557.04 1199.83 554.08 1218.7 554.07"/>
    <polygon points="1126.05 722.46 1131.67 726.92 1126.05 731.38 1120.44 726.92 1126.05 722.46"/>
    <path d="M1256.54,752.49v5.99c-5.6.97-7.85-1.32-11.32-4.51l11.32-1.48Z"/>
    <polygon points="1290.59 454.83 1283.04 454.84 1283.06 445.85 1286.78 445.85 1290.59 454.83"/>
    <rect x="1199.83" y="779.54" width="7.53" height="5.99"/>
    <rect x="1112.83" y="713.41" width="7.53" height="5.99"/>
    <path d="M1101.41,475.88c-7.85.82-8.53.29-7.49-5.95l13.25-6.01,1.8,1.43-7.56,10.53h0Z"/>
    <rect x="1101.48" y="692.36" width="7.53" height="5.99"/>
    <path d="M1090.09,629.22c-1.47,1.47-10.01-5.26-7.51-9.02,1.47-1.47,10.01,5.26,7.51,9.02Z"/>
    <rect x="1180.91" y="626.22" width="7.53" height="5.99"/>
    <rect x="1264.13" y="442.85" width="11.32" height="2.96"/>
    <polygon points="1170.28 780.42 1167.68 785.54 1161.99 779.56 1171.44 776.57 1177.06 781.06 1170.28 780.42"/>
    <polygon points="1165.75 773.51 1158.22 772.03 1165.74 767.51 1165.75 773.51"/>
    <polygon points="1154.42 710.36 1146.87 710.38 1146.89 704.38 1154.42 710.36"/>
    <polygon points="1101.45 704.39 1101.44 710.39 1093.92 705.87 1101.45 704.39"/>
    <polygon points="1271.68 472.92 1264.15 478.9 1264.13 472.9 1271.68 472.92"/>
    <polygon points="1097.68 481.93 1090.15 487.92 1090.13 481.92 1097.68 481.93"/>
    <polygon points="1082.54 611.19 1082.52 617.19 1075 612.67 1082.54 611.19"/>
    <path d="M1143.1,611.18l-.02-6c4.49.54,6.73-.13,9.47-2.97l1.8,1.43-11.26,7.54h.01Z"/>
    <rect x="1260.35" y="554.09" width="11.32" height="2.96"/>
    <polygon points="1067.42 530.04 1059.89 536.02 1059.87 530.02 1067.42 530.04"/>
    <rect x="1218.74" y="536.05" width="7.54" height="2.96"/>
    <rect x="1222.52" y="554.09" width="7.54" height="2.96"/>
    <rect x="1222.52" y="521.02" width="7.54" height="2.96"/>
    <rect x="1146.89" y="593.15" width="3.72" height="5.99"/>
    <rect x="1086.35" y="608.2" width="7.54" height="2.96"/>
    <rect x="1093.93" y="614.2" width="3.72" height="5.99"/>
    <polygon points="1290.62 671.32 1294.35 671.32 1298.1 678.85 1296.3 680.28 1290.62 671.32"/>
    <rect x="1275.48" y="475.92" width="7.54" height="2.96"/>
    <rect x="1124.19" y="710.4" width="3.72" height="5.99"/>
    <rect x="1214.96" y="716.42" width="7.54" height="2.96"/>
    <rect x="1135.54" y="457.87" width="3.72" height="5.99"/>
    <polygon points="1093.88 719.43 1093.88 722.38 1078.79 725.4 1078.79 722.44 1093.88 719.43"/>
    <rect x="1177.13" y="740.47" width="7.54" height="2.96"/>
    <rect x="1048.54" y="755.49" width="3.72" height="5.99"/>
    <path d="M1292.48,764.5c2.46,1,2.46,2,0,3.01v-3.01Z"/>
    <path d="M1296.27,448.84c2.46,1,2.46,2,0,3.01v-3.01Z"/>
    <path d="M1122.27,755.48c2.46,1,2.46,2,0,3.01v-3.01Z"/>
    <path d="M1205.49,743.46c2.46,1,2.46,2,0,3.01v-3.01Z"/>
    <path d="M1273.57,451.85c2.46,1,2.46,2,0,3.01v-3.01Z"/>
    <path d="M1099.57,454.85c2.46,1,2.46,2,0,3.01v-3.01Z"/>
    <path d="M1114.7,725.42c2.46,1,2.46,2,0,3.01v-3.01Z"/>
    <path d="M1110.92,707.38c2.46,1,2.46,2,0,3.01v-3.01Z"/>
    <path d="M1163.88,695.36c2.46,1,2.46,2,0,3.01v-3.01Z"/>
    <path d="M1107.14,683.33c2.46,1,2.46,2,0,3.01v-3.01Z"/>
    <path d="M1220.62,674.31c2.46,1,2.46,2,0,3.01v-3.01Z"/>
    <path d="M1144.97,674.31c2.46,1,2.46,2,0,3.01v-3.01Z"/>
    <path d="M1152.53,671.31c2.46,1,2.46,2,0,3.01v-3.01Z"/>
    <path d="M1262.22,656.27c2.46,1,2.46,2,0,3.01v-3.01Z"/>
    <path d="M1144.97,656.27c2.46,1,2.46,2,0,3.01v-3.01Z"/>
    <path d="M1281.14,620.2c2.46,1,2.46,2,0,3.01v-3.01Z"/>
    <path d="M1209.27,620.2c2.46,1,2.46,2,0,3.01v-3.01Z"/>
    <path d="M1209.27,608.17c2.46,1,2.46,2,0,3.01v-3.01Z"/>
    <path d="M1107.14,605.17c2.46,1,2.46,2,0,3.01v-3.01Z"/>
    <path d="M1095.79,599.16c2.46,1,2.46,2,0,3.01v-3.01Z"/>
    <path d="M1307.62,587.13c2.46,1,2.46,2,0,3.01v-3.01Z"/>
    <path d="M1243.31,551.06c2.46,1,2.46,2,0,3.01v-3.01Z"/>
    <path d="M1073.1,536.02c2.46,1,2.46,2,0,3.01v-3.01Z"/>
    <polygon points="1292.51 530.06 1294.32 531.49 1288.67 535.98 1286.87 534.54 1292.51 530.06"/>
    <path d="M1122.27,530.01c2.46,1,2.46,2,0,3.01v-3.01Z"/>
    <path d="M1114.7,530.01c2.46,1,2.46,2,0,3.01v-3.01Z"/>
    <path d="M1256.57,451.06c-.39-2.81,1.2-2.57,3.78-3.01l-3.78,3.01Z"/>
    <path d="M1373.89,336.8c-7.99-1.97-12.45-5.82-21.88-4.02-13.69,2.62-20.43,15.4-34.84,10.04,3.08,16.23,6.06,7.84-9.51,11.96l1.91-11.96-7.58,9.02c-14.34-2.38-7.54-13.85-8.22-14.61-.89-.99-6.67-1.05-8.65-3.41-3.22-3.84-1.14-11.23-5.52-13.79l-15.41-1.25,11.33,8.97-20.64.2-2.07-9.18-3.78,6.01-7.48-4.52c7.88-11.47,16.2-3.47,23.82-4.89,4.89-.92,7.79-7.21,12.76-8.24,7.56-1.58,22.69,5.37,31.39,5.73,2.58,2.99-10.49,23.71,5.73,23.99,7.94-7.46,12.22-9.85,9.47-21.11,1.46-1.32,26.65,5.93,34.03-2.99l22.69,9c-.92-3.98-7-5.9-11.05-7.76-5.78-2.67-3.67-5.69-11.65-1.23.73-.88-2.1-5.64,2.26-6.21l22.08,2.9,2.13-2.71c4.48,7.54,8.58,15.06,7.53,24.05l-13.14-6.02c-5.74,3.16-6.21,6.91-5.74,12.04h.03Z"/>
    <rect x="1294.48" y="318.78" width="7.53" height="5.99"/>
    <path d="M1354.97,327.77l-1.86-9c-4.01,2.76-6.9,4.55-5.67,8.99h7.53Z"/>
    <path d="M1326.61,333.8v3.01c2.46-1,2.46-2,0-3.01Z"/>
    <path d="M1267.98,387.91c-.4,1.85-.25,3.94.2,5.79l14.93,3.23c-.93,1.6.99,6.28-1.65,9.1-4.91,5.26-20.03-.75-17.31,8.92l-3.71.02-7.57-6.02-.04,30.06-22.66-2.99,11.34,6.02c-1.9,6.37-13.08,7.56-20.28,5.61-7.8-2.11-10.71-21.29-21.34-5.68l11.35,6.04-18.9-5.98c-3.75,16.81,22.67,10.23,35.95,10.33,6.64.05,7.44-3.22,5.63,4.67l-16.75-3.15c-3.79,10.33-17.77,6.95-28.62,3.16-1.16-2.27-2.23-2.02-3.78-3.01l3.94-21.05c9.1,2.23,22.05,2.42,24.42-6.03,1.92-.12,1.01,14.55,17.01-1.49-5.38-.92-11.25-6.27-15.12-7.5l3.73-1.52c-.81-1.37-2.15-1.31-3.73-1.49l3.7-7.55-9.33,1.58-1.94-6.02,26.48-6.02.29,11.79,14.83.2c3.86-11.66-14.18-1.44-15.1-8.98,12.09,2.74,13.26-7.54,18.02-8.99,1.31-.4,15.18-3.04,16-3.06h.01Z"/>
    <path d="M1267.98,387.91c1.33-6.18,10.44-10.43-3.49-13.3l3.16-16.6c-10.38,1.17-11.53-2.08-14.8-9.16l16.7,3.28,2.31-6.26,30.15,12-18.88,2.99c-.34,14.22,18.06,3.47,30.23,6.02,1.58,5-5.01,1.8-6.69,3.45-2.72,2.67-.2,10.33-.86,14.56,1.83-.4,3.78-2.18,5.7-2.93l1.8,1.41-9.42,7.49-1.77-1.43c.97-1.44,3.48-3.19,3.69-4.53-12.36,2.67-4.28,2.12-8.8,4.88-3.02,1.84-13.53,6.52-13.9,7.14-2.26-5.02-8.36-9.21-15.13-9.02h0Z"/>
    <path d="M1279.34,384.89c13.59,1.39,19.12-5.59,17.04-14.97l-17.04,14.97Z"/>
    <path d="M1249.05,336.81c-1.87,9.98-11.74,8.39.02,18.01-9.96,1.13-11.68-6.33-11.38-12.02l-15.08,3.02v-9c10.04,2.88,16.4,2.64,26.44,0h0Z"/>
    <path d="M1290.69,300.71c-1.48-8.6,8.08-19.4,15.09-10.49,1.52,8.46-4.84,11.73-15.09,10.49Z"/>
    <polygon points="1290.65 426.94 1275.55 432.98 1279.36 417.97 1290.65 426.94"/>
    <polygon points="1271.78 342.81 1262.28 345.77 1264.23 330.8 1267.94 330.81 1271.78 342.81"/>
    <rect x="1233.95" y="273.68" width="7.53" height="8.99"/>
    <path d="M1260.35,448.05c-2,7.77,20.41,9.55,5.7,14.99-7.85,2.9-5.99-12.1-13.18-13.52l7.49-1.47h0Z"/>
    <polygon points="1279.33 261.62 1271.78 261.63 1271.79 252.64 1275.51 252.64 1279.33 261.62"/>
    <rect x="1252.87" y="249.64" width="11.32" height="2.96"/>
    <polygon points="1260.42 279.71 1252.88 285.69 1252.87 279.69 1260.42 279.71"/>
    <rect x="1249.08" y="360.88" width="11.32" height="2.96"/>
    <rect x="1264.21" y="282.71" width="7.54" height="2.96"/>
    <path d="M1285,255.63c2.46,1,2.46,2,0,3.01v-3.01Z"/>
    <path d="M1262.31,258.64c2.46,1,2.46,2,0,3.01v-3.01Z"/>
    <path d="M1250.96,463.06c2.46,1,2.46,2,0,3.01v-3.01Z"/>
    <path d="M1269.87,426.99c2.46,1,2.46,2,0,3.01v-3.01Z"/>
    <path d="M1296.35,393.92c2.46,1,2.46,2,0,3.01v-3.01Z"/>
    <polygon points="1281.25 336.85 1283.05 338.28 1277.41 342.77 1275.61 341.33 1281.25 336.85"/>
  </g>
</svg>