<?xml version="1.0" encoding="UTF-8"?>
<svg id="Layer_1" xmlns="http://www.w3.org/2000/svg" version="1.1" viewBox="0 0 1920 1080">
  <!-- Generator: Adobe Illustrator 29.5.1, SVG Export Plug-In . SVG Version: 2.1.0 Build 141)  -->
  <defs>
    <style>
      .st0 {
        fill: #fff;
      }
    </style>
  </defs>
  <g id="doaL8L.tif">
    <g>
      <path class="st0" d="M416.66,172.81c5.26.67,13.88-2.06,17.6,2.42,4.29,5.17,11.19,35.08,12.65,36.24,2.95.65,3.12-.84,4.37-2.92,3.02-5,10.24-34.5,11.74-35.51,5.99.2,14.41-2.4,18.87,2.29v52.96h-12.73v-36.99c-4.53-.83-2.61,1.14-3.59,3.7-4.1,10.75-6.49,22.32-9.91,33.32l-13.73.66c-4.76-11.95-5.99-28.06-14.14-37.67v38.67l-11.14-1.68v-55.48h.01Z"/>
      <path class="st0" d="M815.17,92.11c1.03.56,1.03,1.12,0,1.68v-1.68Z"/>
    </g>
  </g>
</svg>