<?xml version="1.0" encoding="UTF-8"?>
<svg id="Layer_1" xmlns="http://www.w3.org/2000/svg" version="1.1" viewBox="0 0 1920 1080">
  <!-- Generator: Adobe Illustrator 29.5.1, SVG Export Plug-In . SVG Version: 2.1.0 Build 141)  -->
  <rect x="1831.59" y="7.61" width="1.48" height="3.47"/>
  <text/>
  <g>
    <path d="M1669.98,430.6c1.82,3.45,2.1,5.2,6.3,4.32l.75,5.13,5.54-4.28-4.72-4.28,4.72-1.72-12.58.83Z"/>
    <polygon points="1684.13 438.35 1681 440.94 1684.13 441.79 1684.13 438.35"/>
    <path d="M1691.23,459.01c1.02-.57,1.02-1.15,0-1.72v1.72Z"/>
    <polygon points="1692 446.97 1690.46 446.97 1688.87 452.1 1692.01 452.11 1692 446.97"/>
    <rect x="1699.91" y="446.97" width="1.54" height="3.42"/>
    <rect x="1693.6" y="445.26" width="3.13" height="1.69"/>
    <path d="M1706.98,443.52c1.02-.57,1.02-1.15,0-1.72v1.72Z"/>
    <path d="M1710.92,460.73v-32.7l-12.6,1.74,1.59,5.15,6.28-3.42c-.52,2.85-4.65,3.17-1.57,6.87l.79-1.69c1,.02.7,1.66.79,1.69,1.42.44,3.48-1.26,3.31,2.53.33,4.1-1.55,7.91-1.58,11.92,0,1.32.74,8.22,2.99,7.92Z"/>
    <path d="M1703.01,456.41c-3.44.38-8.3-1.98-9.42,2.58,3.37.08,7.23.84,9.42-2.58Z"/>
    <rect x="1696.76" y="438.36" width="1.54" height="3.42"/>
    <path d="M1695.96,453.84c1.02-.57,1.02-1.15,0-1.72v1.72Z"/>
    <path d="M1704.62,438.35c.11.13-.15,1.91.79,1.69.61-.36,1.06-.99.79-1.69-.08-.21-1.49.21-1.58,0Z"/>
    <path d="M1913.32,123.4v1.72c1.02-.57,1.02-1.15,0-1.72Z"/>
    <path d="M1044.92,1052.52c-1.07,0-1.07,1.88,0,1.88s1.07-1.88,0-1.88Z"/>
    <path d="M1614.24,506.04c.21,4.23.37,8.47.44,12.71.06,4.22-.08,8.43-.11,12.65-.02,2.67-.08,5.35-.16,8.02l.43.47h-.44c-.04,1.27-.08,2.53-.12,3.8.61,1.02.98,2.21.54,3.1-.12.16-.35.14-.64,0-.12,3.71-.22,7.43-.22,11.15,1.32.04,2.64.08,3.96.11.26-.34.54-.66.85-.93h92.14v-74.01c-2.51,2.17-5.25-.13-6.94.03-1.49.14-.07,5.43-4.08,3.41l-.82-5.09,5.53-.95c1.04-2.62-8.59-4.86-.03-6.03l.02-3.4c-3.98.2-3.38-.54-1.55-3.46-.71.49-3.42.69-4.71,1.72l-.03-2.56c.42-1.91,3.3-.43,4.74-.88.45-.14,1.03-1.55,1.58-1.72.15-1.62.92-5.69-1.55-5.15l-2.39,5.13-3.92-3.41-1.6,10.34-11.01-1.75c-1.13-4.88,2.85-1.98,3.27-5.9,1.01-9.22-2.84-5.76-3.27-11.29l3.13-1.71-6.28-1.75-4.73,5.15,4.72-8.58-8.46-1.61c-2.34,1.19-3.05,3.24-2.62,5.91.27,1.68,3.92-.34,3.2,2.55l-7.85,1.75c-.91-9.69-2.79-16.58,1.56-25.82-7.72,2.72-17.31-.96-24.49-.2-2.99.31-2.25,3.68-2.98,3.59-4.59-.57-11.24-6.33-14.27-10.25l3.94,8.57h-15.1c-.12.7-.23,1.4-.34,2.09l2.92,3.9-4.01,6.02.29-3.63c-.25,2.37-.44,4.75-.58,7.12,3.3,1.76,5.55,5.52,5.81,12.02-5.04.5-4.75-4.79-4.78-8.52l-1.19-.06c-.07,1.88-.12,3.76-.15,5.65-.1,8.63.28,17.27.8,25.88.51,8.61,1.16,17.2,1.59,25.81ZM1676.27,510.62c1.04-3.53,8.26-2.99,11.02-3.41-1.58,4.89-7.27,3.32-11.02,3.41ZM1686.5,515.8v-1.72c1.02.57,1.02,1.15,0,1.72ZM1685.72,527.83l-3.12-4.28,7.84-4.29c-.2,4.92-5.25,5.43-.02,9.46l-1.54,1.74-11.02.82,7.86-3.45ZM1684.15,553.66c-.51-3.14,1.73-5.69,4.71-5.15v5.15s-4.71,0-4.71,0ZM1706.19,550.21l-14.79.13c-2.03-5.88-2.18-7.88-8.84-7.01-1.18-7.17,9.61-1.26,12.74-.85l.64,4.27.8-5.11c4.25-.57,4.11-.26,5.51,3.45l3.94-3.45v8.58ZM1699.89,527.87v1.69h-6.28v-1.69h6.28ZM1695.18,519.25h4.73s-.01,5.14-.01,5.14c-2.95.56-5.21-1.92-4.72-5.14ZM1706.19,527.87v1.69h-4.71v-1.69h4.71ZM1706.19,517.53v6.87c-6.27-.04-6.19-6.87,0-6.87ZM1698.32,477.92c-3.5,2.42-7.86-.39-7.87-5.14l7.87,5.14ZM1688.86,476.23l6.3,8.58-9.3-3.6,3.01-4.98ZM1692.8,489.99v-1.72c1.02.57,1.02,1.15,0,1.72ZM1686.5,491.71v-1.72c1.02.57,1.02,1.15,0,1.72ZM1683.35,459.01c1.02.57,1.02,1.15,0,1.72v-1.72ZM1683.35,462.45c1.02.57,1.02,1.15,0,1.72v-1.72ZM1680.2,483.1c1.02.57,1.02,1.15,0,1.72v-1.72ZM1679.44,490l2.57,3.47,14.73-.03-.79,8.59,3.79-7.78,9.6-.8-.75,17.21c-6.39,3.71-6.95-5.48-5.56-10.33l-6.18,1.86,1.46,3.3-3.2.87.07,4.3,4.71-1.72v-1.72c2.18.32.02,1.44,0,1.72-.15,1.7.15,3.47-.01,5.18-7.63-1.95-13.38-1.22-10.21-12.02l-8.77,2.59-7.78-7.83c.76-3.74,7.1-1.37,6.32-6.84ZM1642.4,505.48v-1.72c1.02.57,1.02,1.15,0,1.72ZM1646.33,533h-3.13v-1.69h3.13v1.69ZM1647.91,510.62h-3.13v-1.69h3.13v1.69ZM1648.7,533.01v-1.72c1.02.57,1.02,1.15,0,1.72ZM1653.43,533.01v-1.72c1.02.57,1.02,1.15,0,1.72ZM1658.15,533.01v-1.72c1.02.57,1.02,1.15,0,1.72ZM1658.92,517.51h-1.54v-3.42h1.54v3.42ZM1658.13,510.62h-2.33v-1.69l4.69-.9-2.35,2.58ZM1656.58,503.75v-1.72c1.02.57,1.02,1.15,0,1.72ZM1671.53,510.63h-6.28v-3.42h6.28v3.42ZM1671.53,493.44l-1.59,10.31c-2.5.32-.9-2.59-3.48-4.01-1.62-.89-4.09-.95-5.95-1.16-2.09-5.4,10.36-5.81,11.02-5.14ZM1656.58,440.07c1.02.57,1.02,1.15,0,1.72v-1.72ZM1653.43,484.82c1.02.57,1.02,1.15,0,1.72v-1.72ZM1657.36,495.16v3.42c-2.9.42-4.59.07-6.28-2.58l6.28-.84ZM1649.48,495.16c1.11,6.59-6.3,1.47-10.13,1.56l10.13-1.56ZM1617.2,441.8v-1.72c1.02.57,1.02,1.15,0,1.72ZM1628.77,531.02l-6.05.25,4.69-4.29-4.69-6.01,7.19,1.63-1.15,8.42ZM1635.3,551.94h-1.54v-3.42h1.54v3.42ZM1634.53,441.8c1.02.57,1.02,1.15,0,1.72v-1.72ZM1633.75,491.72h3.13v1.69h-3.13v-1.69ZM1632.16,496.85h-9.44s0-3.42,0-3.42c3.45-.08,8.23-.95,9.44,3.42ZM1625.87,443.53h2.33s2.39,3.42,2.39,3.42h-4.72s0-3.42,0-3.42ZM1621.91,440.11c.87,1.1,3.17,2.24,1.61,3.37-.76-1.01-3.16-2.18-1.61-3.37ZM1616.42,495.17h3.13v1.69h-3.13v-1.69ZM1617.2,524.41v-1.72c1.02.57,1.02,1.15,0,1.72ZM1615.62,477.94c1.02.57,1.02,1.15,0,1.72v-1.72ZM1614.84,529.59h3.13v1.69h-3.13v-1.69ZM1614.05,460.73c1.02.57,1.02,1.15,0,1.72v-1.72ZM1614.05,469.33c1.02.57,1.02,1.15,0,1.72v-1.72ZM1614.05,474.5c1.02.57,1.02,1.15,0,1.72v-1.72Z"/>
    <path d="M1703.04,467.61c.62-.43.88.44,1.58-1.72h-1.58c-.26.23.25,1.33,0,1.72Z"/>
    <path d="M1704.62,465.89l4.74,6.06-3.15,5.98,2.35-3.45,2.35,3.45.09-9.19-3.24-1.98c-.18-.96,6.23-.98,3.15-4.3-.55-.6-2.44,2.23-3.92,2.72-.9.3-2.12-1.08-2.36-1-.06.61.14,1.29,0,1.72Z"/>
  </g>
</svg>