<?xml version="1.0" encoding="UTF-8"?>
<svg id="Layer_1" xmlns="http://www.w3.org/2000/svg" version="1.1" viewBox="0 0 1920 1080">
  <!-- Generator: Adobe Illustrator 29.5.1, SVG Export Plug-In . SVG Version: 2.1.0 Build 141)  -->
  <defs>
    <style>
      .st0 {
        fill: #fff;
      }
    </style>
  </defs>
  <g id="doaL8L.tif">
    <g>
      <path class="st0" d="M1339.27,85.29c-1.2,5.06-7.66,6.2-6.35,11.75,3.28-4.15,31.83-5.43,31.77-.84-4.8,2.33-11.78,13.98-15.83,15.33-.56.19-11.14.85-11.72.75-1.24-.22-5.05-12.12-10.61,1.55,12.04,6.01,23.35,8.41,36.59,10.13-1.39,4.82-12.75-2.29-11.12,5.02h12.73l.08,19.21-27.84,7.8-.97-3.34-3.06-.08-3.22,6.67,34.99,5.07-6.36,3.37.82,3.35c6.22-4.5,7.44,6.79,3.99,9.36l-19.14-.11c-.98,9.16,16.08,10.23,18.72,13,1.71,1.79,2.88,14.08,1.27,16.53l-90.01.77-1.55-5.91c13.13,1.41,26.22-1.35,39-1.82,9.26-.34,18.58,4.73,27.81-4.08-3.42-2.3-6.14-1.24-7.12,2.54-8.53-4.21-24.6-12.68-33.68-13.35-8.24-.61-16.09,4.37-24.43,3.26l.24-21.64,6.09-2.87c-.55-5.51-2.35-5.21-6.43-6.71l.11-14.18c6.54-.19,9.48,5.34,16.46,4.95,12.15-.68,30.81-10.98,43.98-11.71v-5.01l-25.45-.03,3.17-5.02c-5.13-.65-11.91,2.08-15.87-2.55,13.18.42,25.58-4.49,38.92-.83,7.81-4.29-12.27-12.61-14.7-13.09s-4.41,1.12-6.74,1.33c-1.13-8.48,13.93.24,12.74-5.9-2.41-12.44-8.14-3.23-12.75-9.21l11.12-4.25c1.59-3.1-6.76-2.68-3.16-5.85,3.7-3.25,4.55,5.06,7.94,3.34l-1.58-5.02c5.44-2-.57,7.53,4.74,3.34.9-.71.36-7.01,6.39-5.01h.02Z"/>
      <path class="st0" d="M1344.04,98.73l-6.92-1.54-2.62,6.58c8.9,2.62,8.24-3.85,9.54-5.03.33-.31,2.23.2,3.17,0v-3.34h-3.16v3.36-.03Z"/>
      <polygon class="st0" points="1355.18 97.06 1352.01 97.05 1352.01 102.08 1353.57 102.08 1355.18 97.06"/>
      <rect class="st0" x="1345.64" y="105.47" width="3.17" height="1.65"/>
      <rect class="st0" x="1345.64" y="125.63" width="3.16" height="3.34"/>
      <rect class="st0" x="1323.37" y="127.32" width="3.17" height="1.65"/>
      <path class="st0" d="M1340.07,135.71v1.68c1.03-.56,1.03-1.12,0-1.68Z"/>
      <polygon class="st0" points="1318.58 154.22 1312.24 155.04 1314.6 157.52 1318.58 155.87 1318.58 154.22"/>
      <rect class="st0" x="1293.15" y="165.98" width="1.56" height="3.35"/>
      <rect class="st0" x="1332.92" y="165.99" width="3.17" height="1.65"/>
      <rect class="st0" x="1288.38" y="167.66" width="1.56" height="3.35"/>
      <path class="st0" d="M1341.66,167.66v1.68c1.03-.56,1.03-1.12,0-1.68Z"/>
      <path class="st0" d="M1355.17,167.66c-5.55-1.56-7.76,3.03-11.13,6.7,4.97.63,11.02-.15,11.13-6.7Z"/>
      <polygon class="st0" points="1339.27 174.36 1335.29 170.93 1331.33 173.55 1339.27 174.36"/>
      <path class="st0" d="M1308.25,179.42v1.68c1.03-.56,1.03-1.12,0-1.68Z"/>
      <rect class="st0" x="1337.69" y="182.8" width="3.16" height="3.34"/>
      <rect class="st0" x="1283.6" y="184.49" width="4.76" height="1.65"/>
    </g>
  </g>
  <g>
    <path class="st0" d="M1917.37,84.52c.88-1.18,1.75-1.18,2.63,0h-2.63Z"/>
    <path class="st0" d="M1914.74,122.62c.88-1.18,1.75-1.18,2.63,0h-2.63Z"/>
  </g>
</svg>