<?xml version="1.0" encoding="UTF-8"?>
<svg id="Layer_1" xmlns="http://www.w3.org/2000/svg" version="1.1" viewBox="0 0 1920 1080">
  <!-- Generator: Adobe Illustrator 29.5.1, SVG Export Plug-In . SVG Version: 2.1.0 Build 141)  -->
  <defs>
    <style>
      .st0 {
        fill: #fff;
      }
    </style>
  </defs>
  <g id="doaL8L.tif">
    <g>
      <path class="st0" d="M1389.38,208.01c-10.22-1.91-13.5-14.86-13.58-24.37-.04-5.03,6.38-1.64,9.59-2.54l-7.62-12.96c-.8-11.31-2.8-29.78,10.79-33.37,1.49-.39,12.48-.66,13.36-.39,4.21,1.31,1.91,15.39.87,16.35-.32.29-5.54-1.43-7.83,1.79l-1.59-15.12-3.01,25.01,69.81.18,1.58,18.5h-73.18c-.55,4.82.59,9.17,5.61,10.04l64.92-.03,5.82,16.89h-75.56l.02.02Z"/>
      <polygon class="st0" points="1406.09 174.36 1403.68 171.03 1401.32 171.03 1401.32 174.37 1406.09 174.36"/>
      <path class="st0" d="M1422.79,171.02v1.68c1.03-.56,1.03-1.12,0-1.68Z"/>
      <path class="st0" d="M1429.15,171.02v1.68c1.03-.56,1.03-1.12,0-1.68Z"/>
      <path class="st0" d="M1437.11,171.02v1.68c1.03-.56,1.03-1.12,0-1.68Z"/>
      <path class="st0" d="M1418.02,172.7v1.68c1.03-.56,1.03-1.12,0-1.68Z"/>
      <rect class="st0" x="1398.14" y="196.25" width="3.17" height="1.65"/>
      <rect class="st0" x="1410.88" y="197.93" width="1.56" height="3.35"/>
      <rect class="st0" x="1390.19" y="202.97" width="3.16" height="3.34"/>
      <polygon class="st0" points="1458.59 132.34 1460.17 152.51 1445.85 152.53 1445.85 132.34 1458.59 132.34"/>
      <path class="st0" d="M1468.11,192.87c-5.24-2.13-2.63-7.54-1.55-11.76,3.47.64.78,8.83,1.55,11.76Z"/>
      <path class="st0" d="M1407.66,150.84c-2.79.39-1.48-3.81-1.57-5.86-.16-3.63.09-7.32.02-10.94,2.79-.39,1.48,3.81,1.57,5.86.16,3.63-.09,7.32-.02,10.94Z"/>
      <polygon class="st0" points="1468.12 164.3 1468.12 172.69 1464.95 172.68 1464.95 164.31 1468.12 164.3"/>
      <path class="st0" d="M1471.3,211.36h-3.16v-6.72c3.16.9,3.57,3.58,3.16,6.72Z"/>
      <polygon class="st0" points="1466.53 144.13 1466.53 149.15 1463.36 149.15 1463.36 144.14 1466.53 144.13"/>
      <rect class="st0" x="1463.37" y="150.85" width="1.56" height="5.03"/>
      <rect class="st0" x="819.08" y="107.15" width="3.17" height="1.65"/>
      <path class="st0" d="M821.46,73.51c1.03.56,1.03,1.12,0,1.68v-1.68Z"/>
    </g>
  </g>
</svg>