<?xml version="1.0" encoding="UTF-8"?>
<svg id="Layer_1" xmlns="http://www.w3.org/2000/svg" version="1.1" viewBox="0 0 1920 1080">
  <!-- Generator: Adobe Illustrator 29.5.1, SVG Export Plug-In . SVG Version: 2.1.0 Build 141)  -->
  <defs>
    <style>
      .st0 {
        fill: #fff;
      }
    </style>
  </defs>
  <g id="doaL8L.tif">
    <g>
      <path class="st0" d="M1429.15,123.94c-13.34-2.31-14.72-17.51-13.52-29.43,2.53-25.3,22.31-14.43,38.71-19.19l2.66-10.21c-18.75-.85-37.67-2.62-56.55-1.76-3.24.15-9.75.25-12.38.63-3.15.45-7.03,7.24-9.9-2.16-3.02-9.89.85-15.16,4.07-23.61,4.07,1.84,5.63,7.41,10.36,8.36,8.98,1.81,29.39.2,39.8.12,9.92-.08,28.92-6.13,34.8,5.11,4.18,7.97,2.01,14.09.99,22.4l6.32,1.69,1.56,17.78-5.55-8.36c-4.38,2.7-.41,5.83-.7,9.01-.11,1.18-2.67,1.16-3.28,2.22-.9,1.58-.57,32.88.04,36.61.45,2.75,2.28,3.71,3.14,5.91l-4.75,1.7c-4.83-18.27-1.78-36.97-3.22-55.48-5.02,1.97.72,8.73-4.76,10.96-1.06.59-1.99-.87-2.38-.87h-26.25l.15,9.94c8.72.91,18.34-1.97,26.16,3.49l2.32-3.33c-2.55,6.27,1.99,11.71,1.6,18.48-9.03-1.09-20.82,1.49-29.43,0h0Z"/>
      <path class="st0" d="M1383.02,55.01v1.68c1.03-.56,1.03-1.12,0-1.68Z"/>
      <path class="st0" d="M1386.2,55.01v1.68c1.03-.56,1.03-1.12,0-1.68Z"/>
      <rect class="st0" x="1460.19" y="66.79" width="1.56" height="3.35"/>
      <path class="st0" d="M1459.38,76.87v1.68c1.03-.56,1.03-1.12,0-1.68Z"/>
      <path class="st0" d="M1425.97,86.96v1.68c1.03-.56,1.03-1.12,0-1.68Z"/>
      <path class="st0" d="M1430.74,86.96v1.68c1.03-.56,1.03-1.12,0-1.68Z"/>
      <polygon class="st0" points="1466.52 93.68 1465.75 88.65 1463.39 91.16 1466.52 93.68"/>
      <path class="st0" d="M1424.38,95.36v1.68c1.03-.56,1.03-1.12,0-1.68Z"/>
    </g>
  </g>
</svg>