<?xml version="1.0" encoding="UTF-8"?>
<svg id="Layer_1" xmlns="http://www.w3.org/2000/svg" version="1.1" viewBox="0 0 1920 1080">
  <!-- Generator: Adobe Illustrator 29.5.1, SVG Export Plug-In . SVG Version: 2.1.0 Build 141)  -->
  <defs>
    <style>
      .st0 {
        fill: #fff;
      }
    </style>
  </defs>
  <path class="st0" d="M1575.33,427.51c2.97.48,1.52,1.85,1.7,4.52.54,7.97-.28,15.5-1.68,23.24l6.74,1.85-1.5-33.2,4.72-.26,1.18-5.28c2.7-2.14,12.14,4.99,10.83-1.01s-7.37-6.77-12.43-6.64l-4.46,11.23.22-12.69,11.45-2.41,1.25-5.38,10.76-1.72c-.35,3.08.72,7.12.04,9.91-.51,2.1-4.29-.29-3.43,3.96.12,1.71,2.98.23,3.43,2.14,1.27,5.34-.31,18.87-.1,25.72.22,7.09,5.66,15.33-3.13,13.96l.69,3.54-5.94,2.75,6.82.03c3.59-1.4,5.6,6.52-.09,7.4l.11,2.7c8.59-1.27-4.71,33.14,8.36,23.21l-3.21-3.71,8.33-10.16c-7.05,2.5-7.43-9.09-5.95-13.9,2.5-8.15,9.46,2.15,7.64-8.32l-8.47-2.76,11.84-2.81c.94-4.98-1.05-2.7-3.38-4.61l5.1-3.73c.05-5.71-9.68-2.08-6.93-11.9l-4.96-.12c6.88-8.09-1.12-16.75-1.68-25.88l16.94-.03-6.77-5.51,20.34-2.8-25.42-2.78,1.69-12.95,6.75,1.84-1.7-9.23c-3.18,2.26-5.53,7.63-9.33,9.22s-2.42-3.89-2.61-6.31c6.88-2.29,9.97-5.75,10.38-13.99,5.98.9,14.95,3.62,20.2-.99l-13.08-4.14c-7.99,5.99-6.05-1.2-10.62-7.84,9.09,3.31,14.08-1.42,22.61-1.88l1.14-4.62c-7.64-7.68-17.32-1.69-25.54-5.67l.08-6.35,23.72-2.77c-5.9-8.13-21.63,3.91-22.01-6.48l13.54-.93c-4.73-5.31-12.6-.59-18.64-2.8-1.25-7.56,8.98-.48,11.84-6.47l-11.83-2.79c3.87-5.89-3.71-12.02,3.38-13.86-9.05-4.07-3.9-20.7-6.79-30.54l6.78-1.83c-2.97-.41-4.9,1.99-4.88-2.63.06-11.39-2.41-23.81-3.25-35.32l1.39-20.39-8.48-2.75,5.03,6.48-6.75,2.8c-1.55,5.82,4.33,2.65,6.03,5.39,3.86,7.01-1.7,15.9-1.82,20.64-.16,6.68,4.6,16.77,2.68,24.76l-5.2,1.01c-.95,5.18,1.72,3.6,5.08,3.71l-1.71,44.41c-1.55-.95-4.57-1.5-5.05-3.22-2.76-9.87-2.89-18.05-1.7-28.24h-13.57s-.86,11.12-.86,11.12c-7.5-.1-.78-12.93-7.59-11.13-2.16,2.57,2.25,14.48-2.54,12.97-1.06-.33-2.48-8.74-11.01-.01.83-5.1,1.68-7.04-1.71-11.09l3.38-.93-3.39-4.62,5.08-3.71h-10.15s1.7,5.53,1.7,5.53l-16.96,1.87c-1.83,7.12,7.94.79,10.17,3.71l-3.39,5.51,3.38,1.84c-2.81,2.51-9.78-2.88-8.46,3.72,10.17,2.3,21.29.44,31.38,1.86,3.09.43,2.74-.64,2.51,3.7h-30.5c-.67,6.55,10.59,5.09,14.38,9.33,2.21-7.47,13.08-2.41,19.5-3.76l-9.42,3.57-2.28,12.31,3.23,1.68-6.79,2.8,1.71,5.52-11.86-7.37c3.97,7.72,6.91,10.45,15.25,11.11.42.6-.98,2.44-1.68,2.8-4.09,2.16-26.48-2.08-32.19,2.72l-.02-201.73h299.92v122.16s-18.63-.03-18.63-.03l3.19-2.03-1.5-7.19c6.03-1.82,2.29,6.21,3.37,7.41l10.17-.03c-2.24-7.92,3.77-16.14-5.1-19.42l5.11-.94v-12.94s-10.18,0-10.18,0l1.3,5.46,2.12,1.01-3.45,1.83v3.74s3.46,1.84,3.46,1.84l-.15,2.66c-4.51-.4-3.4,3.48-3.26,7.53-5.68,1.3-2.76-4.43-3.35-8.21l-6.8-1.08,6.78-1.84v-5.54s-8.48-.03-8.48-.03l8.47-1.84c1.72-7.3-4.43-3.45-3.38-9.24l3.37-1.84-6.78-.03,6.79-3.71c.53-3.73-12.49-3.47-13.56-2.79-4.74,3.03,4.34,3.95,3.38,6.49-6.11,1.78-4.85-2.94-7.51-5.59-4.5-4.49-9.16,1.84-.96,4.69l-6.77.94c3.85,7.18,14.1.74,20.32,2.75-2.91,5.56-17.03,1.26-18.62,2.8-.46,2.53.59,4.45,2.82,5.23,2.88,1,8.79-1.47,9.02,2.15l-13.54,1.9c-1.73,8.02,10.37.2,11.85,5.51l-32.18,1.85,10.17-3.69-1.71-7.38c3.08.14,8.4.5,8.5-4.63l-6.79-.96c3-3.86,5.81-3.85,5.09-10.02-.23-1.97-6.35.3-5.12-4.75-7.88,5.22,1.54,6.66,1.69,8.29.5,5.45-9.24,8.07-13.52,6.48l1.69-7.39h-24.57c-1.75,0-3.36,4.1-.01,5.51l5.92-3.65-.07,9.9,3.47,3.03c-4.62,3.19-17.3-2.95-16.93,5.56l15.25.02-.04,17.64c8.22-.38,16.26-1.36,24.58-.97,6.09.29,15.33,1.34,21.76,1.98,1.83.18,9.42.97,9.62,3.55h-163.51l-2.54,2.78v211.91h152.5v125.85h-152.5v241.52c1.49,2.64,3.38,2.55,5.84,2.87,15.5,1.99,36.26-.57,52.5-.16,6.25.16,12.21,2.96,19.6.08l-.23,7.14-6.51,3.03,5,4.68-.77,3.74-4.25,1.8,3.37,9.2-5.06,1.87-3.39-11.1c2.41,8.41-3.92,17.25-2.7,24.65.56,3.37.24,5.93,4.37,4.94-1.21-3.96-4.32-17.26,2.55-16.6,4.18.4.07,8.2.85,9.2,3.2,4.13,2.89-4.77,5.06-3.68l.22,10.88c9.96,3.52,10.77,2.64,13.23-8.25l-3.3-1.84c.76-6.91,2.72-23.19,1.79-29.18-.1-.61-6.31-3.38-3.45-10.48h103.36c2.27,13.91,2.06,28.1,1.18,42.09-.25,3.91-4.62,4.38.5,9.69l-3.34.05-.05,2.74c-.24,1.73,2.41.4,2.95,1.32,3.51,5.94-1.94,58.24.45,69.95h-105.06l5.06-8.34-5.06-3.88.29-9.14,3.18-1.89c-.18-3.34-3.16-8.44-3.3-11.1-.04-.75,2.55-.61,3.12-2.24,3.14-9.05-3.07-22.85.25-32.56l-11.8-2.83c-.52,8.54-5.48,17.96-1.88,25.69l-5.11.03v9.25s-3.36-1.89-3.36-1.89l-.03,5.59c-4.44-.81-2.86-8.47-1.3-11.69,1.35-2.8,4.62-2.88,4.85-4.29.72-4.44-7.31-14.06-3.54-21.02l-5.19-1.01c.91-16.77-6.25-32.36-1.59-48.96l-6.76,2.78c-.51,1.63,2.85.17,3.35,2.06,1.2,4.56-2.92,23.56.03,30.3-5.12.89-2.79-1.39-3.38-4.69-1.35-7.56-.9-15.53-2.52-23.09-1.92-3.96-6.62,2.48-6.04,6.49.14.95,3.04.62,3.17,1.8.06.55.35,8.47.33,9.2-.05,1.6-5.55.12-3.43,4.75l5.09.02-1.82,6.39,3.49,1.03-5.06,4.59,6.77,2.8-5.08,3.72,3.02,4.59-3.01,4.6,10.15,1.89-10.15,2.75,6.76,2.81-5.09,1.84c-.65,4.65,3.2,5.53,6.78,5.56l-5.04,4.61,8.43,4.65-10.19,6.46,2.75,4.37,5.76-1.58-4.93,3.87,1.56,4.26-3.48,2.15c3.21,5.66.26,10.17.07,15.61,1.92-2.07,3.81-5.83,5.08-6.6,4.33-2.62,15.58,3.19,13.56,10.29h-18.64c0-1.22-.03-2.46.01-3.69-1.5,1.61-1.86,3.83-4.14,3.84l-56.13.02-3.27-3.89c-1.56-.27-.32,2.68-1.15,3.26-6.42,4.48-84.04-2.44-97.98.47l1.71-627.41c3.58,3.52,17.5,1.6,18.31,2.12.65.42.92,3.33,2.07,4.24,3.5,2.77,6.51,1.89,8.38,7.53l-27.09.91v5.54c7.46-1.1,11.06,5.29,18.65,1.87-3.27,4.05-2.7,5.98-1.7,11.08-1.56,1.67-13.54-3.65-11.85,3.7,8.23-.31,17.98-4.02,24.58,3.67l.85-7.35-6.65-.19-1.84-12.76c3.42-.91,5.27,2.14,7.97,3.03,1.24.41,3.63-1.33,3.79-1.14,1.59,1.92.28,9.89,10.25,9.22-1.28,4.97-18.64-.57-9.63,6,3.69,2.69,6.04,1.97,5.89,10.17-.17,9.23-12.38-5.18-13.44,5.83l-9.91.19-2.55-9.23-4.98,9.46-6.02-.24,9.31,11.09c1.55-3.75,2.72-5.58,6.84-3.89l.78-5.36,3.39,5.57,5.06-1.89.03,5.58,6.62-3.55c5.94,7.36,5.37,10.64,5.22,20.21-6.1-.98-4.7,13.13-3.37,16.65,5.24-2.54,3.29-11.43,3.37-16.65Z"/>
</svg>