<?xml version="1.0" encoding="UTF-8"?>
<svg id="Layer_1" xmlns="http://www.w3.org/2000/svg" version="1.1" viewBox="0 0 1920 1080">
  <!-- Generator: Adobe Illustrator 29.5.1, SVG Export Plug-In . SVG Version: 2.1.0 Build 141)  -->
  <defs>
    <style>
      .st0 {
        fill: #fff;
      }
    </style>
  </defs>
  <path class="st0" d="M403.78,859.5c-3.78-1.37-6.59-15.49-6.71-19.75-.15-5.44,2.68-7.55,2.71-8.95.04-1.83-10.05-26.8-11.23-31.47-.43-1.56,13.02-3.22,11.73-7.24l-8.53-17.53-4.64.15-3.68,8.89c-5.56-2.84,3.82-10.09.02-14.77l5.07,3.67c-1.31-8.71-6.77-6-3.36-16.65,5.92,2.57,2.51,14.92,10.14,14.8,2.28-2.73-9.17-19.33-9.8-21.66-2.09-7.7,1.02-16.85,1.35-24.61l10.15,1.85.02-7.39h-10.18s.02-14.8.02-14.8l8.45,5.53-1.68-14.78,6.78.99,16.1-19.51,1.69,3.76,7.61-3.79c-.96-3.89-9.39-.83-11.5-4.07-2.36-3.62-2.87-29.39-12.18-25.51l-3.42-22.21-5.06,1.85,1.68-51.81,5.06,1.85.08-5.55,10.09-.93c-2.87-7.91-11.96-6.31-18.62-6.51l8.43-4.61-3.37-4.61,5.08-3.72c-3.09,1.68-6.38,2.57-6.78-2.76-.14-1.87,5.11,1.75,5.1-2.77-5.56,1.86-6.38-5.21-7.64-5.58-5.86-1.76,2.33,6.7-3.33,5.52-7.42-1.54-1.38-10.05-7.65-9.24v-1.79c5.12.69,3.19-6.47,5.91-9.35,2.52-2.67,7.54.17,5.95-7.33l5.06,3.68v-7.38s-8.34,2.01-8.34,2.01l-.14,5.4-5.04-1.89-6.79,14.83v-24.06s4.22,3.56,4.22,3.56l5.89-8.2c-5.34-6.91-5.42,4.7-5.91,4.66l-4.21-4.66-.74-88.47-2.64-10.53-.38,48.85c-7.46,3.82-2.56,13.75-3.01,21.48l3.36-1.87c-1.32,14.83,1.77,32.98.16,47.34-.37,3.35-2.87,2.55-3.06,2.99-1.32,3.09,2.2,12.8,4.51,15.33,1.04,1.14,7.05-1.1,6.85,2.82l-8.47.85-1.69,13.98h-5.07c.71-11.61-4.19-18.88,3.44-28.7l-3.49-1.98.05-13.75,3.87.03,1.22-6.51-5.08.91c-.17-8.93-.86-17.86,3.38-25.89h-5.04c-.22,5.47-2.41,10.84-3.02,16.19-1.18,10.42,1.71,14.25-3.78,23.95-4.69,8.3,3.03,8.9,3.53,16.35.4,6.01-3.65,4.25-3.62,5.5.07,2.42,2.99,4.73,3.55,9.13,1.31,10.27-1.16,23.66-.1,34.35h-115.22v371.08c0,5.5-14.66.96-17.72.85-30.17-1.05-60.56.93-90.73.09l.09-509.97c-1.87-19.75-.03-39.98-.08-60.08,4.95-.28,9.78-1.17,10.2,5.55l3.17-.24c-.75-4.82,5.3-2.57,5.29-4.37-8.5-.21-12.33-10.4-20.15-12.24l3.06-24.91c6.63-3.84,6.42,1.84,8.12,2.92,4.39,2.78,19.1.83,14.01-7.42,10.02,2.03,3.13-9.3-.73-3.61l-3.39,6.94-11.09-1.49v-24.05s15.23-.01,15.23-.01c.51-5.75-4.55-5.8-8.47-5.55l3.39-5.52-5.73-1.99c-4.02,10.32-9.8,3.53-17.05,3.75-6.67.2-17.64,4.33-23.87,4-3.46-.18-1.54-5.66-5.76-2.14l-1.8-7.32c4.93-1.65,2.03,4.12,5.88,3.87,5.69-.36,16.87-9.03,24.64-7.61-4.01-7.57,8.01-7.25.6-14.47l-15.89-3.1,17.56-1.19,2.55-2.83.02-54.91-3.74-2.83c-6.93,7.41-13.51,2.93-21.47.69,7.05-5.84,15.38-4.76,23.75-4.64v-7.39s-16.53-2.31-16.53-2.31c-4.16-6.39,2.29-12.14-3.81-18.04h10.16s-3.37,9.23-3.37,9.23l11.85-2.78-3.39-4.6,6.57-3.02c2.96-15.17-5.62-33.89,1.9-46.95l-6.74-2.79c7.58-4.9.7-12.86,6.59-14.72l-1.53-4.71,81.34-.02c2.2,8.75-6.81,18.74.86,24.06,7.9,1.97-1.3-19.12,4.1-23.24,6.73-.79,16.96-3.12,22.14,1.97v334.99l2.54,2.78h110.14c.56,0,2.57-2.45,4.24-1.85v-37.02l1.69,12.02,3.4-.03c-1.57-6.35.4-15.75-.58-21.82-.73-4.56-3.52-7.24-4.09-10.12-.63-3.24,1.41-9.22-.41-13.37l3.4,3.69,5.05-3.7,3.4,7.39.09-32.14c6.84-2.73.82-4.78.71-7.58-.13-3.12.63-31.85,1.22-33.39.62-1.63,3.88-1.47,4.59-3.92.58-1.98-1.1-19.32.19-21.04,3.68.64,5.89,3.47,8.47-.97l-3.39-6.42,6.77,1.82c-6.63-6.27-9.65-5.89-11.02-16.82l-4.21.18c-1.01-7.5,4.34-1.85,5.92-1.85h29.65c.39-2.62-2.99-2.72-4.7-3.18-10.11-2.7-20.45-5.01-30.89-4.23l.02-5.54,5.04-.89c-8.97-5.63-4.92-36.95-9.32-37.97-8.01-1.85-3.52,27.38-5.95,29.59h-5.03s0-131.39,0-131.39h105.06l.12,430.22-5.22,1.95,5.23,16.51-.12,384.16h-88.11v-9.24c4.23-1.25,3.8,3.79,5.53,5.02,3.61,2.56,10.86,2.85,13.1-2.26-11.17,2.2-8.77-13.07-5.1-20.42l-3.36-2.69,3.38-3.71c-5.17-1.41-5.67,7.29-3.42,10.19l-5.02-4.64-3.39,7.38c-3.92-7.99,6.43-8.17,8.42-15.74l-8.42,6.5-1.7-18.5,5.89,5.54c1.37-.33,8-10.78,8.56-12.86,2.04-7.52-1.42-18.21-.45-21.04.9-2.64,4.58-5.36,4.59-5.89.02-1.24-9.79-7.03-2.51-12.02,4.29,9.74,5.36-.78,5.92-5.56l3.44-.92-2.6-4.62c-1.76.44-.63,3.78-.84,5.54Z"/>
</svg>