<?xml version="1.0" encoding="UTF-8"?>
<svg id="Layer_1" xmlns="http://www.w3.org/2000/svg" version="1.1" viewBox="0 0 841.89 595.28">
  <!-- Generator: Adobe Illustrator 29.5.1, SVG Export Plug-In . SVG Version: 2.1.0 Build 141)  -->
  <defs>
    <style>
      .st0 {
        fill: #fff;
        stroke: #000;
        stroke-miterlimit: 10;
      }
    </style>
  </defs>
  <path class="st0" d="M451.43,345.4c.06,1.29,1.62,1.63,1.87,2.05-.68-.81-.98-1.28-1.87-2.05Z"/>
  <path class="st0" d="M455.14,348.48c-.01-1.29-1.77-.94-1.85-1.03.29.48-.29,1.6,0,2.05.29-.24,1.53.32,1.85-1.02Z"/>
  <path class="st0" d="M419.69,388.45c-1.19-.6-2.99-3.34-4.66-4.09l-1.78,3.17-.24-.43c-.36.58-.66,1.09-.78,1.34,2.65,3.56,3.36.17,7.47,0Z"/>
  <path class="st0" d="M427.16,394.6c-.27-.58.59-2.5-.32-3.67-1.98-1.77-5.18-1.48-7.14-2.48l-1.86,8.19,9.33-2.04Z"/>
  <path class="st0" d="M447.7,345.4c1.22.14,2.5-.09,3.73,0-1.99-1.74-2.54-1.37-3.73-2.05.29.32-.25,1.44,0,2.05Z"/>
  <polygon class="st0" points="434.62 307.48 438.36 308.51 438.36 306.46 434.62 307.48"/>
  <path class="st0" d="M441.19,345.41l-.96,2.04c3.34.77,2.93-1.28,3.73-2.05-.94.16-2.03-.33-2.78.01Z"/>
  <path class="st0" d="M443.96,345.4c.6-.1,1.25.04,1.87,0v-2.05c-.58.65-1.26,1.47-1.87,2.05Z"/>
  <path class="st0" d="M492.51,259.32l-3.71,7.19.9.98c.8-.66,1.93-1.91,2.81-2.01.37-1.71,2.25-3.75,1.87-6.15-.6.05-1.26.04-1.87,0Z"/>
  <path class="st0" d="M446.76,341.41c-.89.37-.64,1.62-.93,1.95h1.87c-.29-.17-.31-1.95-.93-1.95Z"/>
  <path class="st0" d="M445.83,345.4l3.21,2.67c-.74-.75-.96-1.75-1.34-2.67-.59-.07-1.27-.04-1.87,0Z"/>
  <path class="st0" d="M533.58,232.67c.02-.12.42-.4.85-.88l-.53-.98,1.65-3.01c-.12-4.53-3.04-6.09-7.57-5.38l5.33,4.37.27,5.87Z"/>
  <path class="st0" d="M488.77,154.78c2.17,1.6,1.71,5.2,6.15,4.42l-3.52-6.47h-2.63c.09.65-.02,1.38,0,2.05Z"/>
  <path class="st0" d="M475.7,140.43h1.87l-.16-2.85c-.39-.94-1.36-.88-1.7-1.25-.21,1.29.3,3.05,0,4.1Z"/>
  <polygon class="st0" points="509.31 244.97 509.31 247.02 513.05 247.02 513.04 242.92 509.31 244.97"/>
  <path class="st0" d="M434.63,241.75v-7.02s-4.02,1.73-4.02,1.73c1.58,1.55,2.94,3.34,4.02,5.3Z"/>
  <path class="st0" d="M559.72,130.19c-.44.36-2.05-.22-1.87,2.05.92-.33,1.78-.86,1.87-2.05Z"/>
  <path class="st0" d="M537.32,247.02c-1.36-1.11-5.56-3.62-5.61-1.02l5.61,3.07c.03-.68-.04-1.37,0-2.05Z"/>
  <path class="st0" d="M565.33,142.48c1.13-1.23,2.05-2.65,3.65-3.27l5.46.99,3.68-4.47-1.48-2.57-2.96.9-1.33-4.98-2.32.67-.97-5.73-1.87,10.25-1.86-6.16c-3.49-1.01-3.79.57-5.6,2.07l3.73,12.3c.62.07,1.26-.09,1.87,0Z"/>
  <path class="st0" d="M434.63,378.2v2.05h1.87c-.18-.24.25-2.4-1.87-2.05Z"/>
  <path class="st0" d="M487.37,255.21l-1.3,2.31c1.65.52,3.57,1.6,6.43,1.8v-2.05c-.56-.56-1.78-1.42-1.87-2.05l-2.9-.06c-.13,0-.25.03-.37.05Z"/>
  <path class="st0" d="M190.04,285.96c-.59-1.38-1.3-2.7-1.87-4.1h-3.73c1.18.7,1.24,2.19,5.6,4.1Z"/>
  <path class="st0" d="M169.5,294.15h3.73s-1.87-4.09-1.87-4.09c-.07.24-2.71,1.11-1.86,4.09Z"/>
  <polygon class="st0" points="445.13 330.62 445.82 331.05 446.46 328.23 445.13 330.62"/>
  <polygon class="st0" points="323.54 189.62 322.76 181.54 320.04 186.33 323.54 189.62"/>
  <polygon class="st0" points="596.09 221.77 596.23 220.33 595.03 219.97 596.09 221.77"/>
  <polygon class="st0" points="231.1 299.29 229.24 298.26 229.24 300.31 231.1 299.29"/>
  <path class="st0" d="M167.63,279.81c-.16.3-.47.66-.87,1.08l-3.04,5.37-4.3,7.61c3.12-.19,6-1.37,8.35-4.74,2.17-3.11,1.14-4.92,1.73-7.28.75-2.97,2.54-5.82,2.28-9.84l-3.6,6.36c-.14.5-.31.98-.54,1.42Z"/>
  <path class="st0" d="M249.78,363.85c-1.32,1.01-2.95,1.96-4.13,3.29l1.63,3c.17-.02.33-.05.47-.09l4.74-8.47c-2.49-.3-2.23,1.9-2.71,2.27Z"/>
  <polygon class="st0" points="467.48 108.78 466.38 106.75 466.38 109.68 467.48 108.78"/>
  <polygon class="st0" points="441.64 336.85 439.45 340.75 441.17 341.28 441.64 336.85"/>
  <polygon class="st0" points="417.82 382.29 417.25 380.39 416.36 381.98 417.82 382.29"/>
  <path class="st0" d="M442.49,394.96l.44,1.08.72-1.31c-.34.12-.72.21-1.16.23Z"/>
  <polygon class="st0" points="438.35 398.7 438.38 402.78 439.08 403.02 441.46 398.69 438.35 398.7"/>
  <path class="st0" d="M430.19,400.93c-.75-.56-2.23-4.62-3.03-6.34,1.33,6.2-.55,2.59-2.79,3.07-3.44.74-6.66,2.7-9.36,5.1l-1.84-6.11c-3.04,2.38-2.8,8.22-1.06,11.3l-7.35.98,5.59-12.28-6.54,4.08-.92-3.05,9.35-3.1-1.56-4.78c.17-.99,1.38-1.05,1.54-1.37-1.03-1.39-1.55-4.15-3.72-4.1l-3.74,4.09,3.92-8.08.6.13-32.89-58.26-.56.61-2.79-3.06.9-.99,1.33,1.46-3.64-6.44,51.21.38.38-1.34-7.25-5.63,1.87-11.01,3.71,2.08.12-8.09,11.13.87-1.9,13.36h5.58s-1.83-7.26-1.83-7.26l4.65-7.06-2.81,6.11,5.58,1.05,1.89,5.11-5.61,4.1,1.85,1.02-1.85,1.02-5.58,3.06,3.25,2.7,11.67.09v-1.74s2.78,0,2.78,0l.81,1.76,2.92.02-1.59,2.85,1.63,3.53-2.67-1.67-1.84,3.29.75,2.48,4.69-2.04c-.14,6.93,2.16,10.54,7.57,13.49l-3.84,17.27c-3.68.87-4-1.63-5.59-4.09-1.33,1.11-3.75,1.74-3.74,4.07,4.4-.14,6,4.26,7.47,8.21l-11.14-6.13-3.79,6.14,1.86-8.18h-5.6s3.71,13.33,3.71,13.33l-4.64-5.13.91,7.18-4.7.84-1.82,6.3c-5.42-3.74.51-4.9.41-7.13-1.21-3.4-2.79-5.38-4.73-6.92l-2.79,4.99,2.44.9v2.02s-4.08,0-4.08,0l-3.14,5.61c7.73-.07,5.47,7.96,12.82,11.83l-3.73,1.03,3.74,4.09.93-2.03c1.18,0,.85,1.96.93,2.03.7.52,3.54,2.12,3.73,2.05.75-.27.5-3.97,1.87,0,7.13-2.89,2.39-12.22-2.8-4.12l-2.78-3.07,3.7-2.02c-1.73-1.31-2.52-3.41-3.72-5.14-.23-.34-1.43-.18-1.85-1.01.08-1.34,1.73-.92,1.85-1.04,4.34-4.46,7.32-.21,9.34,4.09l-7.47-2.04c3.34,4.39,5.4,6.42,11.21,6.16-.44.82-.72,1.75-.96,2.68l9.22-16.74c-1.57-2.93-3.16-6.02-2.67-6.44l7.08-1.56,27.36-49.69,23.45.17v-.15s4.58.08,4.58.08l.08.11,32.95.24,22.82,41.2,1.18-.65-.49,1.89,3.2,5.77,1.03-1.52.5,4.28,3.4,6.14,15.33-26.56-2.33-3.2.87-.67-11.42-20.99h-2.6v-2.03h1.49l-1.51-2.78v.71h-1.84v-4.09h1.84v2.71l9.41.07c.09-.4.38-.74.87-.74s.79.35.88.75l59.75.44,30.75.22-17.15-29.8-45-78.2h-.26v-.46l-3.28-5.7h-2.33s0-4.04,0-4.04l-7.53-13.08-10.75,20.52,4.28-1.32-4.64,5.26-1.25-.86-.92,1.75,3.88.05c-.95,6.59,4.1,4.94,3.63,11.27l5.83,5.04-7.45-2.04.53,3.08,12.54,21.42v-1.94h3.72v2.03h-3.67l2.32,3.96c2.17,1.73,3.91,4.22,4.04,6.9l1.89,3.23c2.48-1.13,3.15-4.81,2.92-7.94l14.93,4.13c1.15,3.87-2.18,5.22-4.7,6.16-1.14.43.04-6.58-4.64-4.11l1.88,6.14-4.72,2.03-3.7-6.1-.61,2.02,3.74,6.4c.15-.14.35-.24.6-.24,1.06,0,1.19,1.56.4,1.96l1.27,2.16c.06-.01.13-.02.2-.02.86,0,1.11,1.03.74,1.63l5.22,8.92h-14.64c.47.57.25,1.75-.67,1.75s-1.14-1.17-.67-1.75h-21.07c.47.57.25,1.75-.67,1.75s-1.14-1.17-.67-1.75h-21.83l1.01,2.78-.9.99-1.73-3.77h-7.94l-4.44-8.15-7.25,1.92c-.58,3.99,1.48,7.06-3.86,5.92l1.76-9.07-5.5-3.25,2.04-7.95,5.12-1.71-10.69-19.65-.21.64-3.71-4.09c-.11,2.03.12,4.11-.01,6.14.41.33.9.5,1.11,1.05-.03.59-1.05.75-1.11,1-1.14,4.17-2.63,8.03-3.89,12.13l-5.44.16c-.6-3.29,2.21-1.2,3.79-3.32,1.91-2.56,1.82-5.01-.99-6.89l-4.77,4.78-3.63-1.74,4.81-2.95-.97-5.98,6.47-4.4c1.58-2.53.47-5.86.89-8.19h-9.33s5.58-3.06,5.58-3.06l-3.43-4.52c-.39-1.65,1.56-2.43,1.59-2.67.24-2.22-2.34-5.65-1.87-6.14l8.41,4.06v-4.1s4.52,2.02,4.52,2.02l4.81-8.11c1.74,1.01-.79,2.85-.63,3.69l3.63-6.59-2.05-2.26.9-.99,1.83,2.01,19.05-34.62,8.34-15.15-3.99,3.67,3.71-9.22-11.19-2.08,7.45-2.04c1.01-6.3-2.2-3.57-5.59-4.1-.27.3.01,1.62-.92,2.03-1.23-.06-.8-1.84-.95-2.03-2.36-3.12-3.38-7.01-5.6-10.25-.81.29-1.47.6-2.08.85l-4.01,7.17,2.34-.85-2.78,3.06-.36-.78-.86,1.54-4.19,7.48h2.61v2.03h-3.72v-.03l-1.18,2.1h1.16v4.09h-1.84v-2.86l-4.79,8.55c1.35,1.64-.19,2.26-.34,4.08-.74,8.98.08,4.51,2.69,7.04.27.26-1.83,7.19,4.29,5.73l-3.72-4.08,5.59-2.05-7.46-2.08c-1.04-5.32,1.34-3.03,3.87-5.2l-2-7.07c6.18-1.82,2.06,4.63,4.8,6.29l8.26-.14-3.72,3.06,5.59,4.1-9.13,7.42c1.48,3.51,2.13,5.41-1.14,7.95l-2.68-5.2c-5.43,1.39-7-.56-10.4-5.02l-3.73,8.15-.78-5.1-5.22,9.32c.12-.06.25-.1.41-.1,1.21,0,1.21,2.05,0,2.05-.62,0-.92-.54-.91-1.07l-4.71,8.4-15.03-27.61c-3.67.51-3.36-3.31-3.3-6.06l-1.46-2.68-14.72-3.77-3.75,6.15,2.76-8.38,6.57.19c-.01-1.36.05-2.75,0-4.11-1.71-1.26-1.67-.63-4.49-3.31l-2.97-2.83c1.77-.28,4.01.38,5.59-.01-.15-1.33-.04-2.74.01-4.14l-1.21-2.23-3.26.37-2.02-4.22-2.85,2.02-5.58,5.14c1.29-1.52,3.14-3.14,3.71-5.14l-5.61-5.14.94-3.06c1.04,1.99,3.51,2.85,4.67,4.09.59-3.57-1.6-5.45,2.83-2.31l-.96-5.88.74.54-1.17-2.15-3.32,3.65h-1.84s.92-4.1.92-4.1l3.23-1.41-7.83-14.38-3.79,7.6-.02-12.31-3.69,2.08c-.35-2.11-.71-5.31-1.75-6.97-1.26-2-4.54.06-3.87-3.28l6.66.99-22.75-41.8-1.66,1.82-.9-.99,1.89-2.07-7.17-13.17-14.24-26.17-17.15,30.11-14.02,24.62h.24v2.03h-1.4l-15.41,27.07v3.68s-2.09,0-2.09,0l-20.31,35.68v3.27l-1.26-1.05-18.56,32.6-1.63,5.3,2.4,3.4-1.49,6.89,5.61,2.04-10.27-2.03-1.86,4.09-2.05-3.38-1.23,2.17.48,5.3-2.83-1.17-1.12,1.97,2.07,2.29-4.67,2.27-.64,1.12-.36-.63-5.35,2.61,1.73,3.84c-1.85.19-3.8-.21-5.63,0l1.86,3.12,5.6-1.06-3.36,2.32-.38,7.91-3.61-8.98-3.84-1.28c-.55-3.26,1.84-1.81,3.73-2.03l1.59-20.03-26.24-46.47-9.9-17.54-1.87,4.08-.9-.99,1.76-4.87-4.67-8.28-14.97,26.47h1.04v2.63s3.12,5.62,3.12,5.62c.43.15.63.62.59,1.07l2.79,5.03s.03,0,.04,0c.81,0,1.08.92.8,1.53l6.98,12.58,25.17,45.35h3.45v2.03h-2.33l7.49,13.49-2.83,4.98h1.4s0,4.09,0,4.09l-3.39-.6-4.6,8.08,2.39-1.32v2.03l-3.71,1.62-20.26,35.59h-66.86l40.77-73.39-15.63-28.7-.77,1.37c.06-.01.12-.02.19-.02,1.21,0,1.21,2.05,0,2.05-.51,0-.81-.37-.89-.79l-44.64,78.98,3.5,4.84-3.71-1.04.18,10.11,1.68.14c.28-1.08-.18-2.79.01-4.09h1.85c.12,1.33-.15,2.78.01,4.09,1.94.72,3.4.74,5.6,2.05l2.8-2.05c.53.15.52,1.86.93,2.05,3.01,1.36,6.44.56,5.59,6.15-.42.55-2.54-1.53-3.72-2.05.61,1.43.61,4.23,1.87,6.14l-3.74-4.09-2.91,4.24-6.41-2.2,3.73-5.1c-.37-2.34-2.9,1.78-3.74-5.14-.56-.21-1.3.2-1.87,0-.71,2.69-.07,2.04-1.87,4.1-.11.13.25,2.03-.93,2.03l-.93-2.03c-2.73.75-1.36,4.29-1.87,6.15l5.6,4.09c-1.15.25-2.95-.36-3.73.01-.73.35-5.46,4.7-5.58,5.26,3.34,5.13,2.94,7.8,3.68,12.91l3.69.03-3.64-9.99,5.47,1.02-1.36-2.7,6.16-4.46-2.82,9.17,2.77,1.05,4.69-10.24c-.1,3.54.76,6.93.81,10.44.04,3.29-3.08,4.47,2.94,3.89l-.88-10.29c1.83-4.3,5.65-2.26,6.55-3.06,1.98-1.73.73-5.68,3.65-5.08l1.89,6.12-9.32,5.16,7.44-3.1c.08,4.11-1.48,7.32,3.74,6.15l1.86-10.23v7.17s1.86-3.07,1.86-3.07h3.73s2.27,9.31,2.27,9.31l3.35-1.13-1.06,4.15,7.18.05c.12-.06.26-.1.42-.1s.3.04.42.11l10.51.08c-.72-4.5-3.7-6.56-4.4-12.48-.28-2.4-.02-1.28,0-2.05.06-2.73-.05-5.48.01-8.2l5.4,2.27c-2.31,5.28,1.98,7.86,3.93,12.06l-5.59-4.08-.09,5.11,3.43,1.36-1.52,3.76h5.64c.12,1,.17,1.74.15,2.29l7.38.05-4.59,8.06c.71,1.08,1.08,2.31.77,3.95l-2.17-1.49-7.56,13.27,8.81,6.64c6.08-4.06-2.29-6.25-2.38-9.13-.02-.73,1.22-6.05,3.29-5.18l-.71,6.07,10.02,3.12c-2.17,2.52-2.01,18.42-.57,22.62l9.78-17.47h-1.71v-2.03h2.84l9.19-16.42h-2.7v-2.03h3.72v.19l1.26-2.26h-6.85s0-4.09,0-4.09l4.66-2.03,2.52,5.53,3.97-7.09,3.9.03c.13-.31.4-.55.81-.55s.69.24.82.56l37.5.27c.07-.44.36-.84.9-.84s.83.4.9.85l15.1.11,47.24,85.12,1.26-1.02c1.56-5.71,4.34-4.64,8.34-7.16l.91,6.14c-4.32-2.84-6.58,1.24-9.88,3.17l9.44,17.01,17.4,31.33,16.41-29.82,6.27-11.39c-.2-6.18-3.1-3.32-6.73-6.03ZM443.03,306.46c-1.21,0-1.21-2.05,0-2.05s1.21,2.05,0,2.05ZM426.23,374.1c-1.21,0-1.21-2.05,0-2.05s1.21,2.05,0,2.05ZM429.96,382.3c-1.21,0-1.21-2.05,0-2.05s1.21,2.05,0,2.05ZM437.43,374.1c-1.21,0-1.21-2.05,0-2.05s1.21,2.05,0,2.05ZM448.63,384.35c-1.21,0-1.21-2.05,0-2.05s1.21,2.05,0,2.05ZM459.84,359.73l-2.79-3.06.9-.99,2.79,3.06-.9.99ZM581.2,329.01c1.21,0,1.21,2.05,0,2.05s-1.21-2.05,0-2.05ZM564.39,337.21c-1.21,0-1.21-2.05,0-2.05s1.21,2.05,0,2.05ZM569.99,341.3c-1.21,0-1.21-2.05,0-2.05s1.21,2.05,0,2.05ZM574.66,353.59h-3.72v-2.03h3.72v2.03ZM574.65,347.45l-3.72-3.08v-1.01s3.72,0,3.72,0v4.09ZM568.89,329.18l-5.42,1.89-1.87-6.15c7.81-2.06,10.38,3.34,16.5,6.44l-.62,5.84c-2.96-3.47-8.76-2.37-8.58-8.01ZM577.46,351.55c-1.21,0-1.21-2.05,0-2.05s1.21,2.05,0,2.05ZM602.66,214.21h-3.72v-2.03h3.72v2.03ZM604.52,220.37h-1.84v-4.09h1.84v4.09ZM602.68,210.12v-4.09s3.72,0,3.72,0l-3.72,4.09ZM609.2,224.47c-1.21,0-1.21-2.05,0-2.05s1.21,2.05,0,2.05ZM609.2,206.02c-1.21,0-1.21-2.05,0-2.05s1.21,2.05,0,2.05ZM610.12,195.77h-1.84v-4.09h1.84v4.09ZM611.07,201.92c-1.21,0-1.21-2.05,0-2.05s1.21,2.05,0,2.05ZM618.54,251.12c-1.21,0-1.21-2.05,0-2.05s1.21,2.05,0,2.05ZM627.87,290.06c1.21,0,1.21,2.05,0,2.05s-1.21-2.05,0-2.05ZM619.48,292.12h3.72v2.03h-3.72v-2.03ZM607.34,310.56c-1.21,0-1.21-2.05,0-2.05s1.21,2.05,0,2.05ZM616.67,292.11c1.21,0,1.21,2.05,0,2.05s-1.21-2.05,0-2.05ZM607.35,298.29l.9.99-2.79,3.06-.9-.99,2.79-3.06ZM599.87,292.11c1.21,0,1.21,2.05,0,2.05s-1.21-2.05,0-2.05ZM566.26,158.88c1.21,0,1.21,2.05,0,2.05s-1.21-2.05,0-2.05ZM555.06,142.48c1.21,0,1.21,2.05,0,2.05s-1.21-2.05,0-2.05ZM554.13,162.97h-7.48s5.61-16.38,5.61-16.38l.93,6.16,2.78-.04-1.85,10.25ZM562.52,160.93c1.21,0,1.21,2.05,0,2.05s-1.21-2.05,0-2.05ZM562.52,167.08c1.21,0,1.21,2.05,0,2.05s-1.21-2.05,0-2.05ZM557.87,150.69h1.84s1.88,6.13,1.88,6.13h-3.73s0-6.13,0-6.13ZM558.79,177.33c-1.21,0-1.21-2.05,0-2.05s1.21,2.05,0,2.05ZM556.92,136.33c1.21,0,1.21,2.05,0,2.05s-1.21-2.05,0-2.05ZM559.72,179.39l-1.88,6.13h-1.84s0-6.14,0-6.14h3.73ZM553.18,185.55l2.79,3.06-.9.99-2.79-3.06.9-.99ZM542.93,195.79h3.72v2.03h-3.72v-2.03ZM542.93,199.89c2.53,1.01,7.46-2.72,7.44-1.05l-7.44,3.07v-2.03ZM535.46,189.64l4.67-2.03,2.77,3.04-2.77,3.04-4.67-2.03v-2.02ZM536.4,193.75l.9.99-2.79,3.06-.9-.99,2.79-3.06ZM254.45,134.28c-1.21,0-1.21-2.05,0-2.05s1.21,2.05,0,2.05ZM256.32,156.83c-1.21,0-1.21-2.05,0-2.05s1.21,2.05,0,2.05ZM256.32,142.48c-1.21,0-1.21-2.05,0-2.05s1.21,2.05,0,2.05ZM258.19,150.68c-1.21,0-1.21-2.05,0-2.05s1.21,2.05,0,2.05ZM260.97,134.28h-1.84v-4.09h1.84v4.09ZM260.04,128.11l-.9-.99,2.79-3.06.9.99-2.79,3.06ZM187.23,259.32c1.21,0,1.21,2.05,0,2.05s-1.21-2.05,0-2.05ZM184.44,267.51v-4.09s3.73,4.09,3.73,4.09h-3.73ZM190.97,240.87c1.21,0,1.21,2.05,0,2.05s-1.21-2.05,0-2.05ZM190.04,269.55v-1.01s3.72-3.08,3.72-3.08v4.09s-3.72,0-3.72,0ZM194.7,294.16c-1.21,0-1.21-2.05,0-2.05s1.21,2.05,0,2.05ZM213.37,294.16c-1.21,0-1.21-2.05,0-2.05s1.21,2.05,0,2.05ZM219.91,290.07h3.72v2.03h-3.72v-2.03ZM220.84,298.26c-1.21,0-1.21-2.05,0-2.05s1.21,2.05,0,2.05ZM225.39,308.41l-5.3-.02-1.13-8.06,8.39,3.04-1.96,5.03ZM231.09,311.6l-.9.99-2.79-3.06.9-.99,2.79,3.06ZM282.46,267.52c1.21,0,1.21,2.05,0,2.05s-1.21-2.05,0-2.05ZM280.59,259.32c1.21,0,1.21,2.05,0,2.05s-1.21-2.05,0-2.05ZM280.59,288.01c1.21,0,1.21,2.05,0,2.05s-1.21-2.05,0-2.05ZM276.86,281.86c1.21,0,1.21,2.05,0,2.05s-1.21-2.05,0-2.05ZM273.12,296.21c1.21,0,1.21,2.05,0,2.05s-1.21-2.05,0-2.05ZM267.52,290.06c1.21,0,1.21,2.05,0,2.05s-1.21-2.05,0-2.05ZM266.6,302.36l3.72,4.09h-3.73s0-4.09,0-4.09ZM272.18,308.52v2.03h-3.72v-2.03h3.72ZM265.65,298.26c1.21,0,1.21,2.05,0,2.05s-1.21-2.05,0-2.05ZM259.13,302.36l3.72,4.09h-3.73s0-4.09,0-4.09ZM257.24,304.42v3.05s-4.67,5.12-4.67,5.12l-.9-.99,3.73-7.18h1.84ZM249.79,292.11h.92s2.78,3.07,2.78,3.07l-3.7,3.07v-6.15ZM251.64,300.32v4.09h-1.84v-4.09h1.84ZM246.04,288.02v4.09s-.92,0-.92,0l-2.81-4.08h3.73ZM244.2,312.6l-7.47-20.48,4.66,6.12,4.66-4.08,1.9,6.14-5.63.02c-2.26,1.57,7.29,11.23,1.89,12.28ZM247.93,310.55v-4.09h1.84v4.09h-1.84ZM256.32,318.76c-1.21,0-1.21-2.05,0-2.05s1.21,2.05,0,2.05ZM246.06,333.11c-1.9-6.49,7.68-4.38,9.34-6.16l-1.87-6.14,5.59,6.13-13.06,6.17ZM255.65,343.75l-2.12,3.7,2.79-6.12,1.87,4.03-2.54-1.61ZM259.11,339.25h-1.84s0-6.14,0-6.14h3.73s-1.88,6.14-1.88,6.14ZM265.65,331.06c-1.21,0-1.21-2.05,0-2.05s1.21,2.05,0,2.05ZM265.65,322.86c-1.21,0-1.21-2.05,0-2.05s1.21,2.05,0,2.05ZM276.85,314.63c-.69-2.05,1.51-5.38,2.37-7.62,1.66-4.31,2.16-2.53,6.04-2.6l-8.41,10.22ZM289.93,247.02c-1.21,0-1.21-2.05,0-2.05s1.21,2.05,0,2.05ZM384.2,306.46h-.92s-2.8-3.09-2.8-3.09v-3.05s3.72,0,3.72,0v6.14ZM414.09,229.98v-1.39h3.72v1.59c4.51.61,8.6,2.55,11.86,5.41l-.65-2.91,7.13.58.73,2.87c5.34-.64,9.41,3.24,10.82,8.84l-7.46,2.06c-.68-.89,3.19-10.67-.94-10.22-3.01.33-1.37,6.73-2.86,9.23.64,2.1.99,4.33.99,6.64,0,6.46-2.7,12.28-7.02,16.41l4.21-1.56v6.15l-5.58-2.06v-1.32c-3.9,3.18-8.88,5.08-14.31,5.08-12.54,0-22.71-10.17-22.71-22.71,0-5.54,1.98-10.61,5.28-14.55v-1.33h1.21c3.99-4.07,9.49-6.64,15.6-6.81ZM403.82,224.47c1.21,0,1.21,2.05,0,2.05s-1.21-2.05,0-2.05ZM405.69,206.02c1.21,0,1.21,2.05,0,2.05s-1.21-2.05,0-2.05ZM406.63,228.56v-2.03h5.59v2.03h-5.59ZM435.56,220.37c1.21,0,1.21,2.05,0,2.05s-1.21-2.05,0-2.05ZM444.9,226.52l-2.81-4.08h3.73s0,4.09,0,4.09h-.92ZM445.81,231.63l-2.79,3.06-.9-.99,2.79-3.06.9.99ZM443.97,277.76v-6.15h.92s2.78,3.07,2.78,3.07l-3.7,3.07ZM444.9,283.91c-1.21,0-1.21-2.05,0-2.05s1.21,2.05,0,2.05ZM441.16,283.91c-1.21,0-1.21-2.05,0-2.05s1.21,2.05,0,2.05ZM438.35,271.62v4.09h-1.84v-4.09h1.84ZM435.56,285.96c-1.21,0-1.21-2.05,0-2.05s1.21,2.05,0,2.05ZM424.36,275.71c-1.21,0-1.21-2.05,0-2.05s1.21,2.05,0,2.05ZM392.62,240.87c1.21,0,1.21,2.05,0,2.05s-1.21-2.05,0-2.05ZM392.62,226.52c1.21,0,1.21,2.05,0,2.05s-1.21-2.05,0-2.05ZM448.63,283.91c1.21,0,1.21,2.05,0,2.05s-1.21-2.05,0-2.05ZM399.16,292.11l5.58,2.06-2.79,6.12-4.67-2.04,1.88-6.14ZM403.82,310.54l-2.8-3.06v-1.01s5.6,0,5.6,0l-2.8,4.06ZM409.42,290.06c-1.21,0-1.21-2.05,0-2.05s1.21,2.05,0,2.05ZM413.16,294.16c-1.21,0-1.21-2.05,0-2.05s1.21,2.05,0,2.05ZM443.03,292.11c-1.21,0-1.21-2.05,0-2.05s1.21,2.05,0,2.05ZM445.84,294.16v-4.09s3.73,4.09,3.73,4.09h-3.73ZM450.5,290.06c-1.21,0-1.21-2.05,0-2.05s1.21,2.05,0,2.05ZM459.83,314.66c-1.21,0-1.21-2.05,0-2.05s1.21,2.05,0,2.05ZM460.84,303.5l-7.53.91,5.39-4.31,3.93-5.93-1.79,9.33ZM457.05,289.03l.9-.99,2.79,3.06-.9.99-2.79-3.06ZM471.91,329.01l-7.42-2.06,4.69-14.33c10.13,3.35,4.67,8.77,2.72,16.4ZM479.43,304.4h-1.85v-4.09h1.85v4.09ZM486.92,306.46c-1.23-2.56,2.98-7.15,3.71-6.15,1.23,2.56-2.98,7.15-3.71,6.15ZM493.43,298.24l-.9-.99,2.79-3.06.9.99-2.79,3.06ZM498.12,277.76l-3.73-7.18,7.44-1.01-3.71,8.19ZM502.78,290.06c-1.21,0-1.21-2.05,0-2.05s1.21,2.05,0,2.05ZM507.45,309.53c.33-1.95,2.24-.49,3.24-1.23l-2.18-3.99c-.74-.16-1.27-.57-1.06-1.94l1.06,1.94c1.41.31,3.57-.27,2.68,3.16-.11.42-.28.67-.5.83l2.35,4.3-5.59-3.07ZM512.12,294.13l-4.67-2.03v-2.03s7.44,1,7.44,1l-2.77,3.06ZM520.5,300.3h-1.84v-4.09h1.84v4.09ZM536.38,294.16c-1.21,0-1.21-2.05,0-2.05s1.21,2.05,0,2.05ZM561.59,312.6v-1.01s2.8-3.06,2.8-3.06l2.8,4.06h-5.6ZM590.53,292.11c1.21,0,1.21,2.05,0,2.05s-1.21-2.05,0-2.05ZM585.87,308.52h1.84v4.09h-1.84v-4.09ZM584.93,294.16c1.21,0,1.21,2.05,0,2.05s-1.21-2.05,0-2.05ZM580.27,288.02h1.85l-2.8,6.12-.9-.99,1.86-5.13ZM582.11,296.23c.36,6.03,5.55,2.12,1.88,10.22l-5.58-9.22,3.71-1ZM573.73,298.26c1.21,0,1.21,2.05,0,2.05s-1.21-2.05,0-2.05ZM576.52,302.37v4.09s-.92,0-.92,0l-2.81-4.08h3.73ZM565.33,288.02l7.44,5.13-7.45,1.01c-.64,6.04-.12,9.09-7.46,8.19l1.87-12.29c.7-.97,3.76,3.82,5.59,4.1.21-1.99-.15-4.13,0-6.14ZM530.78,275.71c1.21,0,1.21,2.05,0,2.05s-1.21-2.05,0-2.05ZM527.99,269.57h1.84v4.09h-1.84v-4.09ZM523.33,259.34l.9.99-2.79,3.06-.9-.99,2.79-3.06ZM532.82,286.27h-29.46l3.63-6.6c-.13.09-.29.14-.48.14-1.21,0-1.21-2.05,0-2.05.65,0,.95.6.9,1.15l10.64-19.33,14.77,26.68ZM510.25,238.81l4.65-4.1,1.56,9.04c-.34,2.26-3.23,2.84-3.42,3.26-.36.77.24,2.85-.01,4.1-2.27.05-2.78-2.72-3.72-4.1-.06-.09-1.85.26-1.85-1.02l1.85-1.02-1.82-2.96-3.77.91,1.87-10.26c6.6-1.64.5,4.11,4.66,6.15ZM512.11,214.22c1.21,0,1.21,2.05,0,2.05s-1.21-2.05,0-2.05ZM515.85,206.02c1.21,0,1.21,2.05,0,2.05s-1.21-2.05,0-2.05ZM507.45,257.28h3.72v2.03h-3.72v-2.03ZM522.32,235.68l3.79-.95v4.07s-6.54,4.1-6.54,4.1l2.75-7.22ZM517.71,220.37c1.21,0,1.21,2.05,0,2.05s-1.21-2.05,0-2.05ZM507.44,224.48v2.02s-5.58,2.06-5.58,2.06v-4.09s5.58,0,5.58,0ZM504.65,220.35l-2.79-3.06.9-.99,2.79,3.06-.9.99ZM502.78,189.63c1.21,0,1.21,2.05,0,2.05s-1.21-2.05,0-2.05ZM504.64,183.48c1.21,0,1.21,2.05,0,2.05s-1.21-2.05,0-2.05ZM499.03,175.3l4.66,5.11-.9.99-4.66-5.11.9-.99ZM497.18,203.97c1.21,0,1.21,2.05,0,2.05s-1.21-2.05,0-2.05ZM498.09,213.21l-5.57-4.12,3.72-1.01,1.85,5.13ZM495.31,167.08c1.21,0,1.21,2.05,0,2.05s-1.21-2.05,0-2.05ZM487.84,169.13c1.21,0,1.21,2.05,0,2.05s-1.21-2.05,0-2.05ZM484.11,167.08c1.21,0,1.21,2.05,0,2.05s-1.21-2.05,0-2.05ZM478.52,144.56l.9.99-2.79,3.06-.9-.99,2.79-3.06ZM477.57,171.19v4.09s-.92,0-.92,0l-2.81-4.08h3.73ZM468.24,156.84h7.46v2.03h-7.46v-2.03ZM465.43,144.53c1.21,0,1.21,2.05,0,2.05s-1.21-2.05,0-2.05ZM455.16,101.48c-1.81,9.25,12.08,8.57,5.7,17.57l2.28.92,1.35,4.06-5.6-2.04,1.04,3.67-6.62,2.47,3.68-5.52c5.8-14.17-4.17-11.81-5.53-16.03-1.15-3.58-.36-6.21,3.7-5.1ZM463.57,152.73c-1.21,0-1.21-2.05,0-2.05s1.21,2.05,0,2.05ZM460.76,140.43v4.09s-5.58,0-5.58,0v-2.02s5.58-2.06,5.58-2.06ZM459.83,132.23c1.21,0,1.21,2.05,0,2.05s-1.21-2.05,0-2.05ZM452.36,134.28c-1.21,0-1.21-2.05,0-2.05s1.21,2.05,0,2.05ZM450.5,109.69c1.21,0,1.21,2.05,0,2.05s-1.21-2.05,0-2.05ZM445.81,90.22l-3.7,3.07-1.88-6.14c2.77-.67,3.87.88,5.58,3.06ZM441.16,83.04c1.21,0,1.21,2.05,0,2.05s-1.21-2.05,0-2.05ZM438.37,74.86h3.72v2.03h-3.72v-2.03ZM436.51,93.29c.39-.51,9.36,5.22,9.32,8.19l-10.28-2.14.96-6.05ZM434.62,70.76l-3.37,2.33,1.47,2.79-3.67-2.06,5.57-3.06ZM431.86,91.24l.89,8.19h-1.84s-1.87-10.24-1.87-10.24l2.82,2.05ZM431.83,78.94c1.21,0,1.21,2.05,0,2.05s-1.21-2.05,0-2.05ZM426.23,78.94c-1.21,0-1.21-2.05,0-2.05s1.21,2.05,0,2.05ZM424.36,66.64c-1.21,0-1.21-2.05,0-2.05s1.21,2.05,0,2.05ZM422.49,58.45c1.21,0,1.21,2.05,0,2.05s-1.21-2.05,0-2.05ZM418.76,56.4c1.21,0,1.21,2.05,0,2.05s-1.21-2.05,0-2.05ZM413.16,50.25c1.21,0,1.21,2.05,0,2.05s-1.21-2.05,0-2.05ZM415.03,66.16l-.91-4.66c.97-1.12,4.91,1.56,5.51,2.14,1.02,1,6.04,8.77,5.66,9.14-5.76-1.4-6.47-5.61-13.07-2.05l.02-5.16,2.79.59ZM409.43,74.82l-4.66-5.1,5.58-3.06c-2.43,3.57-.2,5.79-.92,8.16ZM403.81,74.85l2.78,3.07c-1.71,2.19-2.81,3.73-5.58,3.06l2.8-6.13ZM401.95,66.64c1.21,0,1.21,2.05,0,2.05s-1.21-2.05,0-2.05ZM403.82,56.4c1.21,0,1.21,2.05,0,2.05s-1.21-2.05,0-2.05ZM407.55,58.45c1.21,0,1.21,2.05,0,2.05s-1.21-2.05,0-2.05ZM397.26,75.86l-3.62,4.11,7.36,9.22-8.45-8.12-2.74-6.22,7.44,1.01ZM394.48,89.19c-1.21,0-1.21-2.05,0-2.05s1.21,2.05,0,2.05ZM394.48,97.39c-1.21,0-1.21-2.05,0-2.05s1.21,2.05,0,2.05ZM390.75,93.29c-1.21,0-1.21-2.05,0-2.05s1.21,2.05,0,2.05ZM388.88,95.34c1.21,0,1.21,2.05,0,2.05s-1.21-2.05,0-2.05ZM387.94,99.45v2.02s-7.46,2.05-7.46,2.05v-2.02s7.46-2.05,7.46-2.05ZM385.15,113.79c-1.21,0-1.21-2.05,0-2.05s1.21,2.05,0,2.05ZM384.21,119.95v2.03h-3.72v-2.03h3.72ZM381.41,91.24c1.21,0,1.21,2.05,0,2.05s-1.21-2.05,0-2.05ZM385.15,85.09c1.21,0,1.21,2.05,0,2.05s-1.21-2.05,0-2.05ZM380.49,81h1.84s-2.8,8.17-2.8,8.17l-.9-.99,1.85-7.18ZM379.55,109.69c-1.21,0-1.21-2.05,0-2.05s1.21,2.05,0,2.05ZM375.81,111.74c1.21,0,1.21,2.05,0,2.05s-1.21-2.05,0-2.05ZM372.08,109.69c1.21,0,1.21,2.05,0,2.05s-1.21-2.05,0-2.05ZM368.34,117.89c1.21,0,1.21,2.05,0,2.05s-1.21-2.05,0-2.05ZM356.22,138.39h1.85v4.09h-1.85v-4.09ZM347.81,146.58c1.21,0,1.21,2.05,0,2.05s-1.21-2.05,0-2.05ZM336.6,179.38c1.21,0,1.21,2.05,0,2.05s-1.21-2.05,0-2.05ZM334.74,183.48c1.21,0,1.21,2.05,0,2.05s-1.21-2.05,0-2.05ZM324.47,195.79h3.72v2.03h-3.72v-2.03ZM319.79,197.85l2.8,6.12h-1.84l-1.86-5.13.9-.99ZM312.33,203.97c1.21,0,1.21,2.05,0,2.05s-1.21-2.05,0-2.05ZM319.8,234.72c-1.21,0-1.21-2.05,0-2.05s1.21,2.05,0,2.05ZM309.54,212.18h1.84v4.09h-1.84v-4.09ZM309.54,226.53h1.84v4.09h-1.84v-4.09ZM310.46,234.72c-1.21,0-1.21-2.05,0-2.05s1.21,2.05,0,2.05ZM304.87,228.6l.9.99-2.79,3.06-.9-.99,2.79-3.06ZM300.21,224.48h1.85v4.09h-1.85v-4.09ZM297.39,222.42c1.21,0,1.21,2.05,0,2.05s-1.21-2.05,0-2.05ZM297.39,226.52c1.21,0,1.21,2.05,0,2.05s-1.21-2.05,0-2.05ZM297.39,230.62c1.21,0,1.21,2.05,0,2.05s-1.21-2.05,0-2.05ZM296.47,236.78h1.84v6.14h-1.84v-6.14ZM297.39,265.47c-1.21,0-1.21-2.05,0-2.05s1.21,2.05,0,2.05ZM293.66,177.33c1.21,0,1.21,2.05,0,2.05s-1.21-2.05,0-2.05ZM274.99,158.88c-1.21,0-1.21-2.05,0-2.05s1.21,2.05,0,2.05ZM280.59,181.43c-1.21,0-1.21-2.05,0-2.05s1.21,2.05,0,2.05ZM289.94,175.25l-2.79-3.06.9-.99,2.79,3.06-.9.99ZM290.86,214.24h5.6s0,6.14,0,6.14h-.92s-4.67-6.14-4.67-6.14ZM295.53,247.02c1.21,0,1.21,2.05,0,2.05s-1.21-2.05,0-2.05ZM303,290.06c-1.21,0-1.21-2.05,0-2.05s1.21,2.05,0,2.05ZM319.8,312.61c-1.21,0-1.21-2.05,0-2.05s1.21,2.05,0,2.05ZM294.64,286.27l8.21-14.67c-1.06-.16-1.01-2.03.15-2.03.36,0,.6.18.75.43l5.82-10.4,14.81,26.67h-29.74ZM327.27,312.61c-1.21,0-1.21-2.05,0-2.05s1.21,2.05,0,2.05ZM345,292.1h-3.72v-2.03h3.72v2.03ZM335.67,281.85v-4.08c3.77-.3,8.16-.62,9.33,4.08-3.6,1.04-5.74,1.45-9.33,0ZM345.94,308.51c-1.21,0-1.21-2.05,0-2.05s1.21,2.05,0,2.05ZM345.94,304.41c-1.21,0-1.21-2.05,0-2.05s1.21,2.05,0,2.05ZM349.67,316.71c-1.21,0-1.21-2.05,0-2.05s1.21,2.05,0,2.05ZM355.27,326.96c-1.21,0-1.21-2.05,0-2.05s1.21,2.05,0,2.05ZM352.49,312.59l-3.75-4.09v-2.02s7.45,3.08,7.45,3.08v3.05s-3.7-.02-3.7-.02ZM360.88,318.76c-1.21,0-1.21-2.05,0-2.05s1.21,2.05,0,2.05ZM368.34,349.5c-1.21,0-1.21-2.05,0-2.05s1.21,2.05,0,2.05ZM371.41,286.27h-15.33l-30.86-54.64,69.54-124.25-1.22-1.77h2.21s13.78-24.62,13.78-24.62c-.04,0-.07.01-.12.01-1.21,0-1.21-2.05,0-2.05.48,0,.76.32.86.7l4.08-7.29,3.94,7.12.46-.5.9.99-.68.74,1.56,2.81,6.6,3.65-.95,2.06-3.04-.98,1.79,3.24c.13.13.22.3.27.48l9.88,17.85c.13-.07.27-.12.45-.12,1,0,1.17,1.39.52,1.88l15.41,27.83,5.53-3.05v2.03l-4.67,2.04-.77-.84,4.03,7.27,5.13,2.83-.9.99-2.79-1.22,9.67,17.46c2.69-3.84,6.44-8.81,8.98-5.97v8.19s-4.51-2.17-4.51-2.17l-2.76,3.01,4.23,7.64,6.79,5.85-3.77-.41,1.54,2.79c2.68.68,5.33.76,6.8-.3,1.85.19.91-2.7,1.03-4.11-1.63-.85.03-1.95,0-2.05-.37-1.3-2.46-3.55-1.87-4.09l6.31.1,3.01-4.2.97,5.95-2.87-.86-.88,7.17c-.75-1.17-1.6-1.59-2.81-2.03,3.11,9.89,3.51,2.1,9.31,7.19l-6.51,2.44-6.53-3.47,7.44,9.23-10.26-7.16c-.11.52-.18,1-.24,1.45l4.03,7.28c3.55,1.73,8.38,2.59,10.22,7.63l-3.95-3.81-3.86.53,7.62,13.76,5.58.71c-1.17,2.48.24,5.61-.95,7.64l2.77,5-3.88,6.94h.42v2.03h-1.55l-4.98,8.89c-.41,2.21-1.25,5.15-.94,7.52l1.87,2.05,1.87,2.05c3.11-.25,5.35.44,7.46-3.09l-9.32-6.14,5.56.03-.91-5.15,10.27,6.16-3.37,2.31-.32,8.85,5.55,2.14c-4.36,6.86-6.12-4.64-11.18-3.05l1.86,6.13c-2.7.7-5.19-2.31-7.47-2.04-.38,1.75-.76,3.47-1.29,5.16l4.21,5.13-1.06,8.15-5.63-12.88-3.27-1.83-.42-7.83c-.36-.11-.68-.17-.99-.21l-2.96,5.29c.11.62.27,1.25.45,1.87.8,2.75,9.01,5.84,9.11,11.51l-5.03-1,.42-3.06c-4.08,3.83-6.66,1.46-9-2.06l-1.32,2.36v3.76s-1.21-1.59-1.21-1.59l-4.51,8.05h-18.74c2.68-2.89,5.01-6.11,6.94-9.57l-4.87-3.05v-4.07s7.48.99,7.48.99l-1.87-7.16,3.72,2.08v-6.18s-4.68,2.02-4.68,2.02l-.77-7.03-5.73-1.15,5.6-2.05-2.79-4.05-6.52,3.06,4.66-11.28.93,6.14,5.29-2.33,1.24-5.86,1.22,3.6,1.93.15c-.33-1.35-.73-2.68-1.17-3.98-1.16-.76-2.26-2.1-2.93-3.87.57.05,1.06.1,1.49.12-1.74-4.04-4.01-7.79-6.71-11.19l-2.27,4.92-3.68-3.07,2.42-5.86c-2.57-2.61-5.42-4.92-8.51-6.92l4.19,7.64c-4.29-4.35-5.79-2.98-11.19-2.06l1.91-6.92,1.81-.62c-2.41-1.3-4.94-2.4-7.56-3.29-.13.33-.4.59-.83.59-.66,0-.95-.6-.9-1.15-1.14-.34-2.3-.64-3.48-.9h-.28v-.06c-3.38-.73-6.88-1.13-10.48-1.14-.68,1.13-1.15,2.44-.73,4.26.6,2.58,4.97,3.98,7.34,2.88l1.98-3.88,7.47,6.16-4.66,6.15-1.04-3.92-7.15,1.7-2.06-4.97-5.62-1.03,1.58-7.26c-26.17,1.45-46.94,23.12-46.94,49.66,0,13.03,5.01,24.91,13.22,33.77h-5.46c.47.57.25,1.75-.67,1.75s-1.14-1.17-.67-1.75ZM493.44,193.73c-1.21,0-1.21-2.05,0-2.05s1.21,2.05,0,2.05ZM497.18,255.22c1.21,0,1.21,2.05,0,2.05s-1.21-2.05,0-2.05ZM450.5,228.57c1.21,0,1.21,2.05,0,2.05s-1.21-2.05,0-2.05ZM455.18,234.71v-6.14h1.84v6.14h-1.84ZM375.81,253.17c-1.21,0-1.21-2.05,0-2.05s1.21,2.05,0,2.05ZM371.16,253.16v-4.09h1.84v4.09h-1.84ZM372.08,273.66c-1.21,0-1.21-2.05,0-2.05s1.21,2.05,0,2.05ZM375.81,339.26c-1.21,0-1.21-2.05,0-2.05s1.21,2.05,0,2.05ZM400.09,390.5c-1.21,0-1.21-2.05,0-2.05s1.21,2.05,0,2.05ZM418.76,406.9c-1.21,0-1.21-2.05,0-2.05s1.21,2.05,0,2.05Z"/>
  <path class="st0" d="M486.91,181.43c-.34-1.09.06-2.31-1.87-2.05-.04.68.06,1.37,0,2.05.47.25,1.27-.21,1.87,0Z"/>
  <path class="st0" d="M488.77,148.64l.31-.17-.41-.75c-.63.4-1.22.78-1.77.91.29,2.67,1.83,3.87,1.87,4.1v-4.1Z"/>
  <polygon class="st0" points="173.17 269.56 175.1 269.57 175.11 266.13 173.17 269.56"/>
  <polygon class="st0" points="174.17 281.89 173.23 283.91 175.1 283.91 174.17 281.89"/>
  <polygon class="st0" points="495.89 218.57 494.99 217.96 495.94 219.68 495.89 218.57"/>
  <polygon class="st0" points="485.05 199.88 484.99 199.9 485.05 200.01 485.05 199.88"/>
  <polygon class="st0" points="439.3 396.55 440.23 394.6 438.36 394.6 439.3 396.55"/>
  <polygon class="st0" points="429 312.63 425.29 313.64 425.29 314.19 429.59 314.22 429 312.63"/>
  <polygon class="st0" points="430.87 397.64 434.62 398.69 434.63 392.55 432.76 392.55 430.87 397.64"/>
  <polygon class="st0" points="488.77 253.16 488.77 252.71 488.61 252.99 488.77 253.16"/>
  <path class="st0" d="M435.6,347.63l.89,3.93-3.81,1.28-2.87,5.13,2.03,5.86c.41-3.04-.52-5.26,1.84-8.12,2.09-2.53,5.36-3.91,8.43-4.18l-1.88-4.08-3.22-2.35-1.41,2.52Z"/>
</svg>