<?xml version="1.0" encoding="UTF-8"?>
<svg id="Layer_1" xmlns="http://www.w3.org/2000/svg" version="1.1" viewBox="0 0 841.89 595.28">
  <!-- Generator: Adobe Illustrator 29.5.1, SVG Export Plug-In . SVG Version: 2.1.0 Build 141)  -->
  <defs>
    <style>
      .st0 {
        fill: #fff;
        stroke: #fff;
        stroke-miterlimit: 10;
      }
    </style>
  </defs>
  <path class="st0" d="M453.1,428.33c.06,1.47,1.85,1.86,2.13,2.34-.78-.93-1.12-1.45-2.13-2.34Z"/>
  <path class="st0" d="M457.33,431.84c-.01-1.47-2.02-1.07-2.1-1.17.33.55-.33,1.82,0,2.34.33-.28,1.74.37,2.1-1.16Z"/>
  <path class="st0" d="M416.94,477.38c-1.36-.69-3.41-3.81-5.32-4.66l-2.03,3.62-.27-.49c-.41.66-.75,1.25-.89,1.53,3.02,4.06,3.83.2,8.51,0Z"/>
  <path class="st0" d="M425.45,484.39c-.31-.66.67-2.84-.37-4.18-2.25-2.02-5.9-1.69-8.14-2.83l-2.12,9.34,10.63-2.33Z"/>
  <path class="st0" d="M448.85,428.33c1.39.15,2.85-.1,4.26,0-2.26-1.99-2.89-1.56-4.26-2.34.33.36-.29,1.64,0,2.34Z"/>
  <polygon class="st0" points="433.94 385.13 438.21 386.29 438.21 383.96 433.94 385.13"/>
  <path class="st0" d="M441.43,428.35l-1.09,2.32c3.81.87,3.34-1.45,4.25-2.34-1.07.19-2.31-.37-3.16.01Z"/>
  <path class="st0" d="M444.59,428.33c.68-.12,1.43.04,2.13,0v-2.34c-.66.74-1.44,1.67-2.13,2.34Z"/>
  <path class="st0" d="M499.91,330.24l-4.23,8.19,1.02,1.11c.92-.75,2.2-2.17,3.2-2.29.42-1.95,2.57-4.28,2.13-7.01-.69.06-1.44.05-2.13,0Z"/>
  <path class="st0" d="M447.78,423.78c-1.01.42-.72,1.84-1.06,2.22h2.13c-.33-.19-.35-2.23-1.07-2.22Z"/>
  <path class="st0" d="M446.72,428.33l3.66,3.04c-.84-.85-1.1-2-1.53-3.04-.68-.08-1.44-.04-2.13,0Z"/>
  <path class="st0" d="M546.71,299.88c.03-.14.48-.46.96-1l-.61-1.12,1.89-3.43c-.14-5.17-3.46-6.94-8.62-6.13l6.07,4.98.31,6.69Z"/>
  <path class="st0" d="M495.65,211.12c2.47,1.82,1.95,5.92,7,5.03l-4.01-7.37h-2.99c.11.74-.03,1.57,0,2.34Z"/>
  <path class="st0" d="M480.76,194.78h2.13l-.19-3.25c-.45-1.07-1.55-1-1.94-1.42-.24,1.47.34,3.48,0,4.67Z"/>
  <polygon class="st0" points="519.06 313.89 519.06 316.23 523.31 316.23 523.3 311.55 519.06 313.89"/>
  <path class="st0" d="M433.96,310.22v-8s-4.58,1.97-4.58,1.97c1.8,1.77,3.35,3.8,4.58,6.03Z"/>
  <path class="st0" d="M576.5,183.1c-.5.41-2.34-.25-2.13,2.34,1.05-.38,2.03-.97,2.13-2.34Z"/>
  <path class="st0" d="M550.97,316.23c-1.55-1.27-6.34-4.12-6.4-1.17l6.4,3.5c.04-.78-.05-1.56,0-2.34Z"/>
  <path class="st0" d="M582.88,197.11c1.29-1.41,2.34-3.02,4.16-3.72l6.22,1.12,4.19-5.09-1.68-2.93-3.37,1.02-1.51-5.67-2.65.77-1.11-6.53-2.14,11.68-2.12-7.02c-3.97-1.15-4.31.65-6.38,2.36l4.26,14.01c.7.08,1.43-.11,2.13,0Z"/>
  <path class="st0" d="M433.96,465.7v2.34h2.13c-.21-.28.29-2.73-2.13-2.34Z"/>
  <path class="st0" d="M494.05,325.56l-1.48,2.64c1.88.6,4.07,1.83,7.33,2.05v-2.34c-.64-.64-2.03-1.62-2.13-2.34l-3.31-.07c-.15,0-.29.03-.42.06Z"/>
  <path class="st0" d="M155.25,360.6c-.68-1.57-1.48-3.08-2.13-4.67h-4.26c1.34.8,1.42,2.49,6.38,4.67Z"/>
  <path class="st0" d="M131.85,369.94h4.25s-2.13-4.66-2.13-4.66c-.07.27-3.09,1.27-2.12,4.66Z"/>
  <polygon class="st0" points="445.92 411.49 446.71 411.98 447.44 408.77 445.92 411.49"/>
  <polygon class="st0" points="307.37 250.82 306.49 241.62 303.39 247.07 307.37 250.82"/>
  <polygon class="st0" points="617.94 287.46 618.09 285.81 616.73 285.4 617.94 287.46"/>
  <polygon class="st0" points="202.04 375.78 199.93 374.62 199.93 376.95 202.04 375.78"/>
  <path class="st0" d="M129.72,353.6c-.18.34-.53.75-.99,1.23l-3.46,6.12-4.9,8.67c3.55-.22,6.84-1.57,9.51-5.4,2.47-3.54,1.29-5.61,1.97-8.29.85-3.39,2.9-6.63,2.59-11.21l-4.1,7.25c-.16.57-.36,1.12-.62,1.62Z"/>
  <path class="st0" d="M223.33,449.35c-1.5,1.15-3.36,2.23-4.71,3.74l1.85,3.42c.19-.03.37-.06.54-.11l5.4-9.65c-2.83-.34-2.54,2.17-3.09,2.59Z"/>
  <polygon class="st0" points="471.39 158.71 470.13 156.4 470.14 159.73 471.39 158.71"/>
  <polygon class="st0" points="441.94 418.59 439.46 423.03 441.41 423.64 441.94 418.59"/>
  <polygon class="st0" points="414.81 470.36 414.15 468.2 413.14 470.01 414.81 470.36"/>
  <path class="st0" d="M442.91,484.8l.5,1.24.82-1.5c-.39.14-.82.23-1.32.26Z"/>
  <polygon class="st0" points="438.2 489.06 438.23 493.71 439.03 493.98 441.75 489.06 438.2 489.06"/>
  <path class="st0" d="M428.89,491.61c-.86-.64-2.54-5.26-3.45-7.22,1.52,7.06-.62,2.95-3.18,3.5-3.92.84-7.58,3.07-10.67,5.81l-2.1-6.96c-3.47,2.71-3.19,9.37-1.21,12.87l-8.38,1.12,6.37-13.99-7.45,4.65-1.04-3.48,10.65-3.53-1.77-5.44c.2-1.13,1.57-1.2,1.75-1.56-1.17-1.58-1.76-4.73-4.24-4.68l-4.27,4.66,4.46-9.21.68.14-37.47-66.38-.64.7-3.18-3.49,1.03-1.13,1.51,1.66-4.14-7.34,58.35.43.43-1.52-8.26-6.42,2.14-12.54,4.23,2.37.13-9.21,12.69.99-2.16,15.22h6.36s-2.08-8.28-2.08-8.28l5.29-8.04-3.2,6.97,6.36,1.19,2.16,5.82-6.39,4.68,2.1,1.17-2.1,1.17-6.36,3.49,3.7,3.08,13.3.1v-1.99s3.17,0,3.17,0l.93,2.01,3.32.02-1.82,3.24,1.85,4.03-3.04-1.91-2.1,3.75.85,2.83,5.34-2.32c-.15,7.9,2.46,12.01,8.63,15.37l-4.38,19.67c-4.2.99-4.56-1.85-6.37-4.67-1.51,1.26-4.27,1.98-4.26,4.64,5.01-.16,6.84,4.85,8.51,9.36l-12.7-6.99-4.32,6.99,2.12-9.32h-6.38s4.23,15.19,4.23,15.19l-5.29-5.85,1.03,8.18-5.35.96-2.07,7.17c-6.18-4.26.58-5.58.47-8.12-1.38-3.88-3.18-6.13-5.39-7.89l-3.18,5.68,2.78,1.03v2.31s-4.65,0-4.65,0l-3.58,6.39c8.81-.08,6.23,9.07,14.61,13.48l-4.25,1.17,4.26,4.66,1.06-2.31c1.34,0,.97,2.23,1.06,2.31.79.6,4.03,2.42,4.25,2.34.85-.31.57-4.53,2.13,0,8.13-3.29,2.72-13.93-3.19-4.69l-3.17-3.49,4.22-2.3c-1.97-1.5-2.87-3.88-4.24-5.86-.27-.38-1.62-.21-2.11-1.15.09-1.52,1.97-1.05,2.11-1.19,4.94-5.08,8.34-.24,10.64,4.66l-8.51-2.32c3.81,5,6.15,7.31,12.77,7.02-.5.93-.82,1.99-1.09,3.05l10.5-19.07c-1.79-3.34-3.6-6.87-3.05-7.34l8.07-1.78,31.18-56.62,26.72.19v-.18s5.21.09,5.21.09l.09.12,37.55.27,26,46.95,1.34-.74-.56,2.15,3.64,6.58,1.18-1.73.57,4.88,3.88,7,17.46-30.26-2.66-3.65.99-.76-13.01-23.92h-2.96v-2.31h1.7l-1.72-3.16v.81h-2.1v-4.66h2.1v3.09l10.72.08c.11-.46.43-.84,1-.84s.9.39,1,.86l68.08.5,35.04.25-19.55-33.96-51.28-89.11h-.3v-.52l-3.73-6.49h-2.65s0-4.6,0-4.6l-8.58-14.91-12.25,23.39,4.88-1.5-5.29,6-1.43-.98-1.05,2,4.42.06c-1.08,7.51,4.67,5.63,4.13,12.84l6.65,5.74-8.49-2.32.6,3.51,14.29,24.4v-2.21h4.24v2.31h-4.19l2.64,4.51c2.48,1.97,4.46,4.81,4.6,7.86l2.15,3.68c2.83-1.29,3.59-5.48,3.32-9.05l17.01,4.7c1.31,4.41-2.48,5.95-5.35,7.02-1.3.48.04-7.49-5.29-4.69l2.14,6.99-5.37,2.31-4.22-6.95-.7,2.3,4.27,7.29c.17-.16.39-.27.69-.27,1.21,0,1.36,1.78.46,2.23l1.44,2.46c.07-.01.15-.02.23-.02.98,0,1.26,1.18.85,1.86l5.95,10.17h-16.68c.54.65.29,1.99-.76,1.99s-1.3-1.34-.76-1.99h-24.01c.54.65.29,1.99-.76,1.99s-1.3-1.34-.76-1.99h-24.88l1.15,3.17-1.03,1.13-1.97-4.3h-9.05l-5.05-9.29-8.26,2.18c-.66,4.54,1.69,8.04-4.4,6.75l2-10.33-6.27-3.71,2.32-9.06,5.84-1.95-12.18-22.39-.24.73-4.23-4.66c-.13,2.31.13,4.69-.01,7,.46.38,1.03.57,1.27,1.2-.03.68-1.19.85-1.27,1.14-1.3,4.76-3,9.15-4.44,13.82l-6.19.18c-.68-3.75,2.52-1.37,4.31-3.79,2.17-2.92,2.08-5.71-1.13-7.85l-5.43,5.45-4.14-1.98,5.48-3.36-1.11-6.81,7.37-5.01c1.81-2.88.54-6.67,1.02-9.33l-10.64-.02,6.36-3.47-3.91-5.15c-.45-1.88,1.78-2.77,1.81-3.04.28-2.53-2.67-6.44-2.13-6.99l9.59,4.63.02-4.68,5.14,2.3,5.48-9.24c1.99,1.15-.9,3.25-.72,4.2l4.13-7.51-2.34-2.57,1.03-1.13,2.09,2.29,21.71-39.44,9.51-17.26-4.54,4.19,4.23-10.51-12.76-2.37,8.49-2.32c1.16-7.18-2.5-4.07-6.37-4.67-.31.34.01,1.85-1.05,2.31-1.4-.07-.91-2.09-1.08-2.31-2.69-3.56-3.85-7.99-6.38-11.68-.93.33-1.68.69-2.37.97l-4.57,8.17,2.67-.97-3.17,3.49-.41-.89-.98,1.75-4.77,8.52h2.97v2.31h-4.24v-.04l-1.34,2.39h1.32v4.66h-2.1v-3.26l-5.46,9.75c1.54,1.87-.21,2.58-.38,4.65-.84,10.24.09,5.14,3.07,8.02.31.3-2.08,8.19,4.88,6.53l-4.24-4.64,6.37-2.33-8.5-2.37c-1.18-6.07,1.53-3.45,4.41-5.92l-2.28-8.06c7.04-2.07,2.35,5.28,5.47,7.17l9.41-.16-4.24,3.49,6.37,4.67-10.4,8.46c1.69,3.99,2.43,6.17-1.3,9.06l-3.05-5.93c-6.18,1.59-7.97-.64-11.85-5.72l-4.25,9.29-.89-5.81-5.95,10.62c.13-.07.29-.11.47-.11,1.38,0,1.38,2.34,0,2.34-.71,0-1.05-.62-1.03-1.22l-5.36,9.58-17.12-31.46c-4.18.58-3.83-3.77-3.76-6.9l-1.66-3.05-16.78-4.3-4.27,7,3.14-9.55,7.48.21c-.01-1.55.06-3.13,0-4.68-1.95-1.43-1.91-.71-5.12-3.77l-3.38-3.22c2.02-.32,4.57.43,6.38-.01-.17-1.52-.05-3.13.01-4.71l-1.38-2.54-3.71.42-2.3-4.81-3.25,2.3-6.36,5.85c1.47-1.73,3.58-3.58,4.23-5.85l-6.39-5.85,1.07-3.48c1.19,2.27,4,3.25,5.32,4.66.67-4.06-1.82-6.21,3.22-2.63l-1.09-6.7.84.62-1.33-2.45-3.78,4.15h-2.1s1.04-4.67,1.04-4.67l3.68-1.6-8.92-16.39-4.32,8.66-.02-14.03-4.21,2.37c-.4-2.41-.81-6.05-2-7.94-1.44-2.28-5.18.06-4.41-3.74l7.58,1.13-25.92-47.63-1.89,2.08-1.03-1.13,2.15-2.36-8.17-15-16.22-29.82-19.55,34.31-15.97,28.05h.28v2.31h-1.59l-17.56,30.85v4.19s-2.38,0-2.38,0l-23.15,40.66v3.73l-1.44-1.2-21.15,37.15-1.85,6.04,2.73,3.87-1.7,7.85,6.39,2.33-11.7-2.32-2.12,4.66-2.34-3.85-1.41,2.47.55,6.04-3.23-1.33-1.28,2.25,2.35,2.61-5.32,2.59-.72,1.27-.41-.72-6.09,2.97,1.97,4.38c-2.11.22-4.33-.24-6.42.01l2.12,3.56,6.38-1.21-3.83,2.64-.43,9.01-4.11-10.23-4.37-1.45c-.63-3.72,2.1-2.06,4.25-2.32l1.81-22.82-29.91-52.95-11.28-19.99-2.13,4.65-1.03-1.13,2.01-5.55-5.32-9.44-17.06,30.16h1.19v2.99s3.56,6.41,3.56,6.41c.49.18.71.71.67,1.22l3.18,5.73s.03,0,.05,0c.93,0,1.23,1.05.91,1.74l7.95,14.33,28.68,51.68h3.93v2.31h-2.65l8.53,15.37-3.23,5.67h1.6s0,4.66,0,4.66l-3.86-.68-5.24,9.2,2.72-1.5v2.31l-4.23,1.85-23.09,40.56h-76.19l46.46-83.62-17.81-32.71-.88,1.56c.07-.01.14-.02.21-.02,1.38,0,1.38,2.34,0,2.34-.59,0-.92-.42-1.01-.9l-50.87,89.99,3.98,5.52-4.23-1.18.21,11.52,1.92.16c.32-1.23-.21-3.18.01-4.66h2.1c.14,1.52-.17,3.17.01,4.66,2.21.82,3.87.84,6.38,2.34l3.19-2.33c.6.17.6,2.12,1.06,2.33,3.42,1.55,7.34.64,6.37,7.01-.48.63-2.89-1.74-4.24-2.34.7,1.63.7,4.82,2.13,6.99l-4.27-4.66-3.32,4.83-7.3-2.51,4.25-5.81c-.42-2.66-3.31,2.03-4.26-5.85-.63-.23-1.48.22-2.13,0-.81,3.07-.08,2.33-2.13,4.67-.13.14.28,2.31-1.06,2.31l-1.06-2.31c-3.11.86-1.55,4.89-2.13,7.01l6.38,4.66c-1.32.29-3.36-.42-4.25.01-.84.4-6.23,5.36-6.36,5.99,3.81,5.84,3.35,8.89,4.19,14.72l4.2.03-4.15-11.38,6.24,1.17-1.55-3.07,7.02-5.09-3.21,10.45,3.16,1.2,5.34-11.67c-.12,4.03.87,7.89.92,11.89.05,3.75-3.51,5.09,3.35,4.44l-1-11.72c2.09-4.9,6.44-2.58,7.47-3.48,2.26-1.97.83-6.48,4.16-5.79l2.15,6.97-10.62,5.88,8.47-3.54c.09,4.69-1.69,8.34,4.27,7.01l2.12-11.66v8.17s2.12-3.5,2.12-3.5h4.25s2.58,10.61,2.58,10.61l3.82-1.29-1.2,4.73,8.19.06c.13-.07.29-.11.47-.11s.35.05.48.12l11.98.09c-.82-5.13-4.22-7.47-5.01-14.22-.32-2.73-.02-1.46,0-2.34.06-3.11-.06-6.24.01-9.34l6.15,2.59c-2.63,6.01,2.25,8.96,4.47,13.74l-6.37-4.65-.1,5.82,3.91,1.55-1.73,4.29h6.43c.14,1.14.19,1.98.17,2.61l8.41.06-5.23,9.19c.8,1.23,1.23,2.63.88,4.5l-2.47-1.7-8.61,15.12,10.04,7.56c6.93-4.62-2.61-7.12-2.71-10.4-.02-.83,1.39-6.9,3.75-5.9l-.8,6.91,11.41,3.55c-2.47,2.87-2.29,20.99-.64,25.77l11.14-19.91h-1.95v-2.31h3.24l10.47-18.71h-3.07v-2.31h4.24v.22l1.44-2.57h-7.8s0-4.66,0-4.66l5.31-2.32,2.87,6.3,4.52-8.08,4.45.03c.15-.35.46-.63.92-.63s.78.28.93.64l42.73.31c.07-.5.41-.95,1.02-.95s.95.46,1.02.97l17.2.13,53.82,96.99,1.44-1.16c1.77-6.5,4.94-5.29,9.5-8.15l1.04,7c-4.92-3.24-7.49,1.42-11.26,3.61l10.76,19.39,19.82,35.7,18.7-33.98,7.14-12.97c-.22-7.05-3.53-3.78-7.67-6.87ZM443.53,383.96c-1.38,0-1.38-2.34,0-2.34s1.38,2.34,0,2.34ZM424.38,461.03c-1.38,0-1.38-2.34,0-2.34s1.38,2.34,0,2.34ZM428.64,470.37c-1.38,0-1.38-2.34,0-2.34s1.38,2.34,0,2.34ZM437.15,461.03c-1.38,0-1.38-2.34,0-2.34s1.38,2.34,0,2.34ZM449.91,472.71c-1.38,0-1.38-2.34,0-2.34s1.38,2.34,0,2.34ZM462.69,444.66l-3.18-3.49,1.03-1.13,3.18,3.49-1.03,1.13ZM600.97,409.65c1.38,0,1.38,2.34,0,2.34s-1.38-2.34,0-2.34ZM581.82,418.99c-1.38,0-1.38-2.34,0-2.34s1.38,2.34,0,2.34ZM588.2,423.66c-1.38,0-1.38-2.34,0-2.34s1.38,2.34,0,2.34ZM593.51,437.66h-4.24v-2.31h4.24v2.31ZM593.51,430.67l-4.24-3.51v-1.15s4.24,0,4.24,0v4.66ZM586.94,409.85l-6.18,2.15-2.13-7.01c8.9-2.34,11.83,3.8,18.81,7.34l-.71,6.65c-3.38-3.95-9.98-2.7-9.78-9.13ZM596.71,435.34c-1.38,0-1.38-2.34,0-2.34s1.38,2.34,0,2.34ZM625.43,278.84h-4.24v-2.31h4.24v2.31ZM627.55,285.86h-2.1v-4.66h2.1v4.66ZM625.45,274.19v-4.66s4.24,0,4.24,0l-4.24,4.66ZM632.88,290.53c-1.38,0-1.38-2.34,0-2.34s1.38,2.34,0,2.34ZM632.88,269.51c-1.38,0-1.38-2.34,0-2.34s1.38,2.34,0,2.34ZM633.93,257.83h-2.1v-4.66h2.1v4.66ZM635.01,264.84c-1.38,0-1.38-2.34,0-2.34s1.38,2.34,0,2.34ZM643.52,320.9c-1.38,0-1.38-2.34,0-2.34s1.38,2.34,0,2.34ZM654.15,365.27c1.38,0,1.38,2.34,0,2.34s-1.38-2.34,0-2.34ZM644.59,367.62h4.24v2.31h-4.24v-2.31ZM630.75,388.63c-1.38,0-1.38-2.34,0-2.34s1.38,2.34,0,2.34ZM641.39,367.61c1.38,0,1.38,2.34,0,2.34s-1.38-2.34,0-2.34ZM630.76,374.64l1.03,1.13-3.18,3.49-1.03-1.13,3.18-3.49ZM622.24,367.61c1.38,0,1.38,2.34,0,2.34s-1.38-2.34,0-2.34ZM583.95,215.8c1.38,0,1.38,2.34,0,2.34s-1.38-2.34,0-2.34ZM571.18,197.11c1.38,0,1.38,2.34,0,2.34s-1.38-2.34,0-2.34ZM570.13,220.45h-8.52s6.4-18.66,6.4-18.66l1.06,7.02,3.17-.05-2.11,11.68ZM579.69,218.13c1.38,0,1.38,2.34,0,2.34s-1.38-2.34,0-2.34ZM579.69,225.14c1.38,0,1.38,2.34,0,2.34s-1.38-2.34,0-2.34ZM574.38,206.46h2.1s2.14,6.99,2.14,6.99h-4.25s0-6.99,0-6.99ZM575.44,236.82c-1.38,0-1.38-2.34,0-2.34s1.38,2.34,0,2.34ZM573.31,190.1c1.38,0,1.38,2.34,0,2.34s-1.38-2.34,0-2.34ZM576.5,239.17l-2.14,6.98h-2.1s0-6.99,0-6.99h4.25ZM569.04,246.19l3.18,3.49-1.03,1.13-3.18-3.49,1.03-1.13ZM557.36,257.85h4.24v2.31h-4.24v-2.31ZM557.36,262.52c2.88,1.15,8.5-3.1,8.48-1.2l-8.48,3.5v-2.31ZM548.85,250.85l5.32-2.32,3.16,3.47-3.16,3.47-5.32-2.32v-2.3ZM549.92,255.53l1.03,1.13-3.18,3.49-1.03-1.13,3.18-3.49ZM228.65,187.77c-1.38,0-1.38-2.34,0-2.34s1.38,2.34,0,2.34ZM230.78,213.46c-1.38,0-1.38-2.34,0-2.34s1.38,2.34,0,2.34ZM230.78,197.11c-1.38,0-1.38-2.34,0-2.34s1.38,2.34,0,2.34ZM232.91,206.45c-1.38,0-1.38-2.34,0-2.34s1.38,2.34,0,2.34ZM236.08,187.76h-2.1v-4.66h2.1v4.66ZM235.02,180.73l-1.03-1.13,3.18-3.49,1.03,1.13-3.18,3.49ZM152.06,330.24c1.38,0,1.38,2.34,0,2.34s-1.38-2.34,0-2.34ZM148.87,339.57v-4.66s4.25,4.66,4.25,4.66h-4.25ZM156.31,309.22c1.38,0,1.38,2.34,0,2.34s-1.38-2.34,0-2.34ZM155.25,341.9v-1.15s4.24-3.51,4.24-3.51v4.66s-4.24,0-4.24,0ZM160.57,369.94c-1.38,0-1.38-2.34,0-2.34s1.38,2.34,0,2.34ZM181.84,369.94c-1.38,0-1.38-2.34,0-2.34s1.38,2.34,0,2.34ZM189.3,365.29h4.24v2.31h-4.24v-2.31ZM190.35,374.62c-1.38,0-1.38-2.34,0-2.34s1.38,2.34,0,2.34ZM195.54,386.18l-6.04-.02-1.28-9.18,9.56,3.46-2.23,5.74ZM202.03,389.81l-1.03,1.13-3.18-3.49,1.03-1.13,3.18,3.49ZM260.56,339.58c1.38,0,1.38,2.34,0,2.34s-1.38-2.34,0-2.34ZM258.44,330.24c1.38,0,1.38,2.34,0,2.34s-1.38-2.34,0-2.34ZM258.44,362.94c1.38,0,1.38,2.34,0,2.34s-1.38-2.34,0-2.34ZM254.18,355.93c1.38,0,1.38,2.34,0,2.34s-1.38-2.34,0-2.34ZM249.93,372.28c1.38,0,1.38,2.34,0,2.34s-1.38-2.34,0-2.34ZM243.54,365.27c1.38,0,1.38,2.34,0,2.34s-1.38-2.34,0-2.34ZM242.49,379.29l4.24,4.66h-4.25s0-4.66,0-4.66ZM248.86,386.31v2.31h-4.24v-2.31h4.24ZM241.42,374.62c1.38,0,1.38,2.34,0,2.34s-1.38-2.34,0-2.34ZM233.98,379.29l4.24,4.66h-4.25s0-4.66,0-4.66ZM231.83,381.63v3.48s-5.32,5.83-5.32,5.83l-1.03-1.13,4.25-8.18h2.1ZM223.34,367.61h1.05s3.17,3.5,3.17,3.5l-4.22,3.5v-7.01ZM225.45,376.96v4.66h-2.1v-4.66h2.1ZM219.07,362.94v4.66s-1.05,0-1.05,0l-3.2-4.65h4.25ZM216.96,390.95l-8.51-23.34,5.31,6.98,5.31-4.65,2.16,6.99-6.42.02c-2.58,1.79,8.31,12.79,2.16,14ZM221.22,388.62v-4.66h2.1v4.66h-2.1ZM230.78,397.97c-1.38,0-1.38-2.34,0-2.34s1.38,2.34,0,2.34ZM219.09,414.32c-2.16-7.4,8.75-4.99,10.64-7.02l-2.14-6.99,6.37,6.98-14.88,7.03ZM230.02,426.44l-2.42,4.22,3.18-6.97,2.13,4.59-2.9-1.83ZM233.95,421.32h-2.1s0-6.99,0-6.99h4.25s-2.14,6.99-2.14,6.99ZM241.42,411.98c-1.38,0-1.38-2.34,0-2.34s1.38,2.34,0,2.34ZM241.42,402.64c-1.38,0-1.38-2.34,0-2.34s1.38,2.34,0,2.34ZM254.17,393.27c-.79-2.33,1.72-6.13,2.7-8.69,1.89-4.91,2.47-2.89,6.88-2.96l-9.58,11.64ZM269.07,316.23c-1.38,0-1.38-2.34,0-2.34s1.38,2.34,0,2.34ZM376.5,383.96h-1.05s-3.19-3.52-3.19-3.52v-3.48s4.24,0,4.24,0v7ZM410.56,296.81v-1.59h4.24v1.82c5.14.7,9.8,2.91,13.52,6.17l-.74-3.32,8.12.66.83,3.27c6.08-.73,10.73,3.7,12.33,10.07l-8.51,2.35c-.78-1.01,3.63-12.16-1.08-11.65-3.43.37-1.56,7.67-3.26,10.51.73,2.39,1.13,4.93,1.13,7.56,0,7.36-3.07,13.99-8,18.7l4.8-1.77v7.01l-6.36-2.35v-1.5c-4.45,3.62-10.12,5.79-16.31,5.79-14.29,0-25.88-11.59-25.88-25.88,0-6.31,2.26-12.09,6.01-16.57v-1.52h1.38c4.54-4.64,10.81-7.57,17.77-7.75ZM398.85,290.53c1.38,0,1.38,2.34,0,2.34s-1.38-2.34,0-2.34ZM400.98,269.51c1.38,0,1.38,2.34,0,2.34s-1.38-2.34,0-2.34ZM402.05,295.19v-2.31h6.37v2.31h-6.37ZM435.02,285.86c1.38,0,1.38,2.34,0,2.34s-1.38-2.34,0-2.34ZM445.66,292.86l-3.2-4.65h4.25s0,4.66,0,4.66h-1.05ZM446.7,298.7l-3.18,3.49-1.03-1.13,3.18-3.49,1.03,1.13ZM444.61,351.26v-7.01h1.05s3.17,3.5,3.17,3.5l-4.22,3.5ZM445.66,358.27c-1.38,0-1.38-2.34,0-2.34s1.38,2.34,0,2.34ZM441.4,358.27c-1.38,0-1.38-2.34,0-2.34s1.38,2.34,0,2.34ZM438.2,344.26v4.66h-2.1v-4.66h2.1ZM435.02,360.6c-1.38,0-1.38-2.34,0-2.34s1.38,2.34,0,2.34ZM422.25,348.92c-1.38,0-1.38-2.34,0-2.34s1.38,2.34,0,2.34ZM386.09,309.22c1.38,0,1.38,2.34,0,2.34s-1.38-2.34,0-2.34ZM386.09,292.87c1.38,0,1.38,2.34,0,2.34s-1.38-2.34,0-2.34ZM449.91,358.27c1.38,0,1.38,2.34,0,2.34s-1.38-2.34,0-2.34ZM393.55,367.61l6.36,2.34-3.18,6.97-5.32-2.32,2.14-6.99ZM398.85,388.6l-3.19-3.48v-1.15s6.38,0,6.38,0l-3.19,4.63ZM405.23,365.27c-1.38,0-1.38-2.34,0-2.34s1.38,2.34,0,2.34ZM409.49,369.94c-1.38,0-1.38-2.34,0-2.34s1.38,2.34,0,2.34ZM443.53,367.61c-1.38,0-1.38-2.34,0-2.34s1.38,2.34,0,2.34ZM446.73,369.94v-4.66s4.25,4.66,4.25,4.66h-4.25ZM452.04,365.27c-1.38,0-1.38-2.34,0-2.34s1.38,2.34,0,2.34ZM462.68,393.3c-1.38,0-1.38-2.34,0-2.34s1.38,2.34,0,2.34ZM463.82,380.59l-8.58,1.04,6.15-4.92,4.47-6.75-2.04,10.63ZM459.51,364.09l1.03-1.13,3.18,3.49-1.03,1.13-3.18-3.49ZM476.44,409.66l-8.45-2.35,5.35-16.33c11.54,3.82,5.32,9.99,3.1,18.69ZM485,381.62h-2.1v-4.66h2.1v4.66ZM493.54,383.96c-1.4-2.92,3.4-8.15,4.23-7.01,1.4,2.92-3.4,8.15-4.23,7.01ZM500.96,374.59l-1.03-1.13,3.18-3.49,1.03,1.13-3.18,3.49ZM506.31,351.25l-4.25-8.18,8.48-1.15-4.23,9.33ZM511.61,365.27c-1.38,0-1.38-2.34,0-2.34s1.38,2.34,0,2.34ZM516.93,387.45c.38-2.22,2.55-.56,3.69-1.4l-2.48-4.55c-.84-.19-1.45-.65-1.21-2.21l1.21,2.21c1.61.36,4.07-.31,3.05,3.6-.12.47-.32.76-.57.94l2.68,4.9-6.37-3.5ZM522.26,369.91l-5.32-2.32v-2.31s8.48,1.14,8.48,1.14l-3.16,3.48ZM531.81,376.94h-2.1v-4.66h2.1v4.66ZM549.91,369.94c-1.38,0-1.38-2.34,0-2.34s1.38,2.34,0,2.34ZM578.63,390.95v-1.15s3.19-3.48,3.19-3.48l3.19,4.63h-6.38ZM611.6,367.61c1.38,0,1.38,2.34,0,2.34s-1.38-2.34,0-2.34ZM606.3,386.3h2.1v4.66h-2.1v-4.66ZM605.22,369.94c1.38,0,1.38,2.34,0,2.34s-1.38-2.34,0-2.34ZM599.92,362.94h2.1l-3.19,6.97-1.03-1.13,2.12-5.85ZM602,372.3c.41,6.88,6.32,2.42,2.14,11.64l-6.36-10.51,4.22-1.14ZM592.46,374.62c1.38,0,1.38,2.34,0,2.34s-1.38-2.34,0-2.34ZM595.64,379.29v4.66s-1.05,0-1.05,0l-3.2-4.65h4.25ZM582.89,362.94l8.48,5.85-8.49,1.15c-.73,6.88-.13,10.35-8.5,9.34l2.13-14.01c.8-1.1,4.28,4.35,6.37,4.67.24-2.26-.17-4.71,0-7ZM543.52,348.92c1.38,0,1.38,2.34,0,2.34s-1.38-2.34,0-2.34ZM540.34,341.92h2.1v4.66h-2.1v-4.66ZM535.03,330.27l1.03,1.13-3.18,3.49-1.03-1.13,3.18-3.49ZM545.84,360.95h-33.56l4.14-7.52c-.15.1-.33.16-.55.16-1.38,0-1.38-2.34,0-2.34.75,0,1.08.68,1.03,1.31l12.12-22.02,16.83,30.41ZM520.13,306.88l5.3-4.67,1.78,10.3c-.39,2.58-3.68,3.24-3.9,3.72-.41.88.28,3.25-.01,4.67-2.58.06-3.17-3.1-4.24-4.67-.07-.1-2.1.3-2.1-1.17l2.1-1.17-2.07-3.37-4.3,1.04,2.13-11.69c7.52-1.86.57,4.68,5.31,7.01ZM522.25,278.86c1.38,0,1.38,2.34,0,2.34s-1.38-2.34,0-2.34ZM526.5,269.51c1.38,0,1.38,2.34,0,2.34s-1.38-2.34,0-2.34ZM516.94,327.92h4.24v2.31h-4.24v-2.31ZM533.88,303.31l4.32-1.09v4.64s-7.45,4.67-7.45,4.67l3.14-8.22ZM528.63,285.86c1.38,0,1.38,2.34,0,2.34s-1.38-2.34,0-2.34ZM516.92,290.55v2.31s-6.36,2.35-6.36,2.35v-4.66s6.36,0,6.36,0ZM513.75,285.84l-3.18-3.49,1.03-1.13,3.18,3.49-1.03,1.13ZM511.61,250.83c1.38,0,1.38,2.34,0,2.34s-1.38-2.34,0-2.34ZM513.74,243.82c1.38,0,1.38,2.34,0,2.34s-1.38-2.34,0-2.34ZM507.34,234.51l5.31,5.83-1.03,1.13-5.31-5.83,1.03-1.13ZM505.23,267.18c1.38,0,1.38,2.34,0,2.34s-1.38-2.34,0-2.34ZM506.27,277.7l-6.35-4.69,4.24-1.15,2.11,5.85ZM503.1,225.14c1.38,0,1.38,2.34,0,2.34s-1.38-2.34,0-2.34ZM494.59,227.47c1.38,0,1.38,2.34,0,2.34s-1.38-2.34,0-2.34ZM490.34,225.14c1.38,0,1.38,2.34,0,2.34s-1.38-2.34,0-2.34ZM483.97,199.47l1.03,1.13-3.18,3.49-1.03-1.13,3.18-3.49ZM482.88,229.82v4.66s-1.05,0-1.05,0l-3.2-4.65h4.25ZM472.26,213.47h8.5v2.31h-8.5v-2.31ZM469.06,199.45c1.38,0,1.38,2.34,0,2.34s-1.38-2.34,0-2.34ZM457.35,150.39c-2.06,10.54,13.77,9.77,6.5,20.02l2.59,1.05,1.54,4.63-6.38-2.33,1.18,4.18-7.54,2.82,4.19-6.29c6.61-16.14-4.75-13.46-6.3-18.27-1.31-4.08-.41-7.07,4.22-5.82ZM466.93,208.79c-1.38,0-1.38-2.34,0-2.34s1.38,2.34,0,2.34ZM463.73,194.78v4.66s-6.36,0-6.36,0v-2.31s6.36-2.35,6.36-2.35ZM462.68,185.43c1.38,0,1.38,2.34,0,2.34s-1.38-2.34,0-2.34ZM454.17,187.77c-1.38,0-1.38-2.34,0-2.34s1.38,2.34,0,2.34ZM452.04,159.74c1.38,0,1.38,2.34,0,2.34s-1.38-2.34,0-2.34ZM446.7,137.55l-4.22,3.5-2.14-6.99c3.15-.76,4.41,1,6.36,3.49ZM441.4,129.38c1.38,0,1.38,2.34,0,2.34s-1.38-2.34,0-2.34ZM438.22,120.05h4.24v2.31h-4.24v-2.31ZM436.1,141.06c.44-.59,10.67,5.95,10.63,9.33l-11.72-2.43,1.09-6.89ZM433.95,115.38l-3.84,2.65,1.67,3.18-4.18-2.34,6.35-3.49ZM430.8,138.72l1.02,9.33h-2.1s-2.13-11.67-2.13-11.67l3.21,2.34ZM430.76,124.71c1.38,0,1.38,2.34,0,2.34s-1.38-2.34,0-2.34ZM424.38,124.71c-1.38,0-1.38-2.34,0-2.34s1.38,2.34,0,2.34ZM422.25,110.69c-1.38,0-1.38-2.34,0-2.34s1.38,2.34,0,2.34ZM420.13,101.35c1.38,0,1.38,2.34,0,2.34s-1.38-2.34,0-2.34ZM415.87,99.02c1.38,0,1.38,2.34,0,2.34s-1.38-2.34,0-2.34ZM409.49,92.01c1.38,0,1.38,2.34,0,2.34s-1.38-2.34,0-2.34ZM411.63,110.14l-1.04-5.31c1.11-1.27,5.6,1.78,6.27,2.44,1.16,1.14,6.88,10,6.45,10.42-6.56-1.6-7.38-6.39-14.89-2.33l.02-5.88,3.18.67ZM405.25,120.01l-5.31-5.81,6.36-3.49c-2.76,4.07-.23,6.6-1.05,9.3ZM398.85,120.04l3.17,3.5c-1.94,2.49-3.21,4.25-6.36,3.49l3.18-6.99ZM396.72,110.69c1.38,0,1.38,2.34,0,2.34s-1.38-2.34,0-2.34ZM398.85,99.02c1.38,0,1.38,2.34,0,2.34s-1.38-2.34,0-2.34ZM403.11,101.35c1.38,0,1.38,2.34,0,2.34s-1.38-2.34,0-2.34ZM391.38,121.19l-4.13,4.69,8.39,10.5-9.62-9.25-3.12-7.09,8.48,1.15ZM388.21,136.39c-1.38,0-1.38-2.34,0-2.34s1.38,2.34,0,2.34ZM388.21,145.73c-1.38,0-1.38-2.34,0-2.34s1.38,2.34,0,2.34ZM383.96,141.06c-1.38,0-1.38-2.34,0-2.34s1.38,2.34,0,2.34ZM381.83,143.39c1.38,0,1.38,2.34,0,2.34s-1.38-2.34,0-2.34ZM380.76,148.08v2.31s-8.49,2.34-8.49,2.34v-2.31s8.49-2.34,8.49-2.34ZM377.58,164.41c-1.38,0-1.38-2.34,0-2.34s1.38,2.34,0,2.34ZM376.51,171.43v2.31h-4.24v-2.31h4.24ZM373.32,138.72c1.38,0,1.38,2.34,0,2.34s-1.38-2.34,0-2.34ZM377.58,131.71c1.38,0,1.38,2.34,0,2.34s-1.38-2.34,0-2.34ZM372.27,127.05h2.1s-3.19,9.31-3.19,9.31l-1.02-1.13,2.11-8.18ZM371.19,159.74c-1.38,0-1.38-2.34,0-2.34s1.38,2.34,0,2.34ZM366.94,162.08c1.38,0,1.38,2.34,0,2.34s-1.38-2.34,0-2.34ZM362.68,159.74c1.38,0,1.38,2.34,0,2.34s-1.38-2.34,0-2.34ZM358.43,169.08c1.38,0,1.38,2.34,0,2.34s-1.38-2.34,0-2.34ZM344.61,192.45h2.1v4.66h-2.1v-4.66ZM335.03,201.78c1.38,0,1.38,2.34,0,2.34s-1.38-2.34,0-2.34ZM322.26,239.15c1.38,0,1.38,2.34,0,2.34s-1.38-2.34,0-2.34ZM320.13,243.82c1.38,0,1.38,2.34,0,2.34s-1.38-2.34,0-2.34ZM308.44,257.85h4.24v2.31h-4.24v-2.31ZM303.1,260.2l3.19,6.97h-2.1l-2.12-5.85,1.03-1.13ZM294.6,267.18c1.38,0,1.38,2.34,0,2.34s-1.38-2.34,0-2.34ZM303.11,302.21c-1.38,0-1.38-2.34,0-2.34s1.38,2.34,0,2.34ZM291.42,276.53h2.1v4.66h-2.1v-4.66ZM291.42,292.88h2.1v4.66h-2.1v-4.66ZM292.48,302.21c-1.38,0-1.38-2.34,0-2.34s1.38,2.34,0,2.34ZM286.11,295.23l1.03,1.13-3.18,3.49-1.03-1.13,3.18-3.49ZM280.79,290.54h2.1v4.66h-2.1v-4.66ZM277.58,288.2c1.38,0,1.38,2.34,0,2.34s-1.38-2.34,0-2.34ZM277.58,292.87c1.38,0,1.38,2.34,0,2.34s-1.38-2.34,0-2.34ZM277.58,297.54c1.38,0,1.38,2.34,0,2.34s-1.38-2.34,0-2.34ZM276.53,304.55h2.1v6.99h-2.1v-6.99ZM277.58,337.25c-1.38,0-1.38-2.34,0-2.34s1.38,2.34,0,2.34ZM273.33,236.82c1.38,0,1.38,2.34,0,2.34s-1.38-2.34,0-2.34ZM252.05,215.8c-1.38,0-1.38-2.34,0-2.34s1.38,2.34,0,2.34ZM258.44,241.49c-1.38,0-1.38-2.34,0-2.34s1.38,2.34,0,2.34ZM269.09,234.45l-3.18-3.49,1.03-1.13,3.18,3.49-1.03,1.13ZM270.14,278.87h6.38s0,6.99,0,6.99h-1.04s-5.32-6.99-5.32-6.99ZM275.46,316.23c1.38,0,1.38,2.34,0,2.34s-1.38-2.34,0-2.34ZM283.97,365.27c-1.38,0-1.38-2.34,0-2.34s1.38,2.34,0,2.34ZM303.11,390.96c-1.38,0-1.38-2.34,0-2.34s1.38,2.34,0,2.34ZM274.45,360.95l9.35-16.71c-1.21-.18-1.16-2.32.17-2.32.41,0,.69.2.86.49l6.63-11.85,16.88,30.39h-33.89ZM311.62,390.96c-1.38,0-1.38-2.34,0-2.34s1.38,2.34,0,2.34ZM331.83,367.59h-4.24v-2.31h4.24v2.31ZM321.2,355.92v-4.65c4.29-.35,9.29-.71,10.63,4.65-4.1,1.19-6.54,1.65-10.63,0ZM332.9,386.29c-1.38,0-1.38-2.34,0-2.34s1.38,2.34,0,2.34ZM332.9,381.62c-1.38,0-1.38-2.34,0-2.34s1.38,2.34,0,2.34ZM337.15,395.64c-1.38,0-1.38-2.34,0-2.34s1.38,2.34,0,2.34ZM343.54,407.31c-1.38,0-1.38-2.34,0-2.34s1.38,2.34,0,2.34ZM340.37,390.94l-4.27-4.67v-2.3s8.49,3.51,8.49,3.51v3.48s-4.22-.02-4.22-.02ZM349.92,397.97c-1.38,0-1.38-2.34,0-2.34s1.38,2.34,0,2.34ZM358.43,433c-1.38,0-1.38-2.34,0-2.34s1.38,2.34,0,2.34ZM361.92,360.95h-17.47l-35.16-62.26,79.24-141.58-1.39-2.02h2.52s15.7-28.05,15.7-28.05c-.04,0-.08.01-.13.01-1.38,0-1.38-2.34,0-2.34.54,0,.87.36.98.8l4.65-8.31,4.49,8.11.52-.57,1.03,1.13-.77.85,1.77,3.2,7.52,4.16-1.08,2.35-3.46-1.11,2.04,3.69c.15.15.25.34.31.55l11.26,20.34c.14-.09.31-.14.51-.14,1.14,0,1.34,1.59.6,2.14l17.56,31.71,6.31-3.48v2.31l-5.33,2.32-.88-.96,4.59,8.29,5.85,3.23-1.03,1.13-3.18-1.39,11.02,19.9c3.07-4.37,7.34-10.04,10.23-6.8v9.34s-5.14-2.47-5.14-2.47l-3.15,3.43,4.82,8.71,7.73,6.67-4.3-.47,1.76,3.18c3.05.77,6.08.87,7.75-.35,2.11.22,1.03-3.08,1.17-4.69-1.85-.97.03-2.22,0-2.34-.42-1.48-2.8-4.04-2.13-4.66l7.19.11,3.44-4.79,1.11,6.78-3.26-.98-1.01,8.17c-.86-1.33-1.83-1.82-3.2-2.31,3.54,11.27,3.99,2.39,10.61,8.19l-7.42,2.78-7.44-3.96,8.48,10.52-11.69-8.16c-.13.59-.21,1.13-.27,1.66l4.59,8.29c4.04,1.97,9.55,2.95,11.65,8.69l-4.5-4.34-4.4.6,8.68,15.68,6.36.81c-1.34,2.83.27,6.39-1.09,8.7l3.16,5.7-4.43,7.9h.47v2.31h-1.77l-5.67,10.13c-.47,2.51-1.42,5.87-1.07,8.57l2.13,2.34,2.13,2.34c3.54-.29,6.09.5,8.5-3.52l-10.62-6.99,6.34.04-1.03-5.86,11.7,7.02-3.84,2.63-.37,10.08,6.32,2.44c-4.96,7.81-6.98-5.29-12.74-3.48l2.12,6.98c-3.07.8-5.91-2.63-8.51-2.32-.43,1.99-.86,3.95-1.48,5.88l4.8,5.85-1.21,9.28-6.41-14.68-3.73-2.09-.48-8.93c-.41-.12-.78-.2-1.13-.24l-3.37,6.02c.13.71.3,1.43.51,2.13.92,3.14,10.26,6.65,10.38,13.11l-5.74-1.14.47-3.48c-4.65,4.37-7.58,1.66-10.26-2.34l-1.5,2.69v4.29s-1.38-1.81-1.38-1.81l-5.14,9.18h-21.36c3.05-3.29,5.71-6.96,7.91-10.91l-5.55-3.48v-4.64s8.52,1.13,8.52,1.13l-2.13-8.15,4.23,2.37v-7.04s-5.34,2.3-5.34,2.3l-.88-8.01-6.53-1.31,6.38-2.34-3.18-4.62-7.43,3.48,5.31-12.85,1.06,6.99,6.03-2.66,1.41-6.68,1.4,4.1,2.2.18c-.38-1.54-.83-3.05-1.33-4.53-1.33-.87-2.58-2.4-3.34-4.41.65.06,1.21.11,1.7.14-1.99-4.6-4.57-8.88-7.65-12.76l-2.59,5.6-4.19-3.49,2.76-6.67c-2.93-2.97-6.18-5.61-9.7-7.88l4.77,8.7c-4.89-4.95-6.6-3.4-12.75-2.35l2.17-7.88,2.07-.7c-2.74-1.48-5.62-2.73-8.61-3.75-.14.38-.46.67-.94.67-.75,0-1.09-.68-1.03-1.31-1.3-.39-2.62-.73-3.96-1.03h-.32v-.07c-3.85-.83-7.84-1.29-11.94-1.3-.77,1.29-1.31,2.78-.83,4.85.68,2.94,5.66,4.53,8.37,3.29l2.26-4.42,8.52,7.01-5.31,7.01-1.19-4.47-8.15,1.93-2.34-5.67-6.41-1.18,1.8-8.27c-29.82,1.65-53.49,26.35-53.49,56.58,0,14.85,5.71,28.38,15.07,38.47h-6.22c.54.65.29,1.99-.76,1.99s-1.3-1.34-.76-1.99ZM500.97,255.5c-1.38,0-1.38-2.34,0-2.34s1.38,2.34,0,2.34ZM505.23,325.57c1.38,0,1.38,2.34,0,2.34s-1.38-2.34,0-2.34ZM452.04,295.21c1.38,0,1.38,2.34,0,2.34s-1.38-2.34,0-2.34ZM457.37,302.21v-6.99h2.1v6.99h-2.1ZM366.94,323.23c-1.38,0-1.38-2.34,0-2.34s1.38,2.34,0,2.34ZM361.63,323.23v-4.66h2.1v4.66h-2.1ZM362.68,346.59c-1.38,0-1.38-2.34,0-2.34s1.38,2.34,0,2.34ZM366.94,421.33c-1.38,0-1.38-2.34,0-2.34s1.38,2.34,0,2.34ZM394.6,479.72c-1.38,0-1.38-2.34,0-2.34s1.38,2.34,0,2.34ZM415.87,498.4c-1.38,0-1.38-2.34,0-2.34s1.38,2.34,0,2.34Z"/>
  <path class="st0" d="M493.53,241.49c-.39-1.24.06-2.63-2.13-2.34-.05.77.07,1.57,0,2.34.54.28,1.45-.24,2.13,0Z"/>
  <path class="st0" d="M495.66,204.12l.35-.19-.46-.85c-.72.46-1.39.88-2.01,1.04.34,3.04,2.09,4.41,2.13,4.67v-4.67Z"/>
  <polygon class="st0" points="136.03 341.91 138.23 341.92 138.24 338 136.03 341.91"/>
  <polygon class="st0" points="137.17 355.96 136.1 358.27 138.23 358.27 137.17 355.96"/>
  <polygon class="st0" points="503.77 283.81 502.74 283.11 503.82 285.07 503.77 283.81"/>
  <polygon class="st0" points="491.42 262.52 491.35 262.54 491.41 262.66 491.42 262.52"/>
  <polygon class="st0" points="439.28 486.61 440.34 484.39 438.21 484.39 439.28 486.61"/>
  <polygon class="st0" points="427.55 390.99 423.31 392.14 423.31 392.77 428.21 392.8 427.55 390.99"/>
  <polygon class="st0" points="429.68 487.85 433.95 489.05 433.96 482.05 431.83 482.05 429.68 487.85"/>
  <polygon class="st0" points="495.65 323.23 495.65 322.71 495.47 323.03 495.65 323.23"/>
  <path class="st0" d="M435.06,430.87l1.02,4.48-4.34,1.46-3.27,5.85,2.31,6.67c.47-3.47-.59-6,2.1-9.25,2.38-2.88,6.11-4.46,9.61-4.76l-2.15-4.65-3.66-2.67-1.61,2.88Z"/>
</svg>