<?xml version="1.0" encoding="UTF-8"?>
<svg id="Layer_1" xmlns="http://www.w3.org/2000/svg" version="1.1" viewBox="0 0 841.89 595.28">
  <!-- Generator: Adobe Illustrator 29.5.1, SVG Export Plug-In . SVG Version: 2.1.0 Build 141)  -->
  <defs>
    <style>
      .st0 {
        fill: none;
      }

      .st1, .st2 {
        fill: #fff;
      }

      .st2 {
        stroke: #fff;
        stroke-miterlimit: 10;
      }
    </style>
  </defs>
  <path class="st1" d="M511.11,487.87c-.43,0-.66-.25-.71-.53-.16,4.09-.79,8-1.86,11.59,1,0,1.88-.16,2.5-.52,1.51.12.74-1.74.83-2.64-1.32-.55.02-1.25,0-1.32-.3-.84-2-2.28-1.52-2.63l5.13.06,2.45-2.7.79,3.82-2.33-.55-.72,4.61c-.61-.75-1.3-1.02-2.28-1.3,2.3,5.79,2.78,2.15,6.41,3.93.02-.05.04-.1.06-.16,1.16-4.4,1.81-9.28,1.82-14.65l-11.31-2.29h0c.05.86.08,1.72.08,2.58,0,.61-.01,1.21-.03,1.81.09-.24.32-.44.7-.44.99,0,.99,1.32,0,1.32ZM520.21,486.55c.99,0,.99,1.32,0,1.32s-.99-1.32,0-1.32ZM514.14,487.87c.99,0,.99,1.32,0,1.32s-.99-1.32,0-1.32Z"/>
  <path class="st1" d="M516.39,508.59c.21-.43.38-.79.48-.98.05-.11.1-.22.16-.32.42-1.14.81-2.29,1.22-3.44.03-.09.07-.18.1-.27-.6-.28-.49-1.22.35-1.22.04,0,.06.01.1.02.19-.5.37-1.01.56-1.51l-3.69,1.09-5.31-2.23,6.05,5.93-8.33-4.6c-1.58,5.78,4.24,5.45,8.32,7.54Z"/>
  <path class="st1" d="M514.9,478.65c1.92,1.12,1.29,3.78,6.06,2.64v-3.95s-6.06,0-6.06,0v-2.63s3.03-1.31,3.03-1.31c-1.8-.38-3.31,1.07-4.55,1.31-.18-1.27.1-2.66,0-3.95,1.83.71,3.67.64,5.59,1.02.55.11.97.35,1.34.6-.34-1.48-.74-2.92-1.21-4.32l-3.37,2.26-5.98.53-1.64-2.71-.81.45c.8,1.95,1.44,3.99,1.93,6.09,1.37-.07,2.97.25,4.14.02.24,1.71,1.49,2.49,1.52,2.63.08.42-.02.89,0,1.32-1.39-.81-1.36-.4-3.65-2.13l-1.92-1.45c.45,2,.76,4.05.94,6.11l4.63.1c0-.87.04-1.77,0-2.64Z"/>
  <path class="st1" d="M514.9,478.65c-.02-.43.08-.9,0-1.32-.03-.15-1.28-.92-1.52-2.63-1.17.23-2.78-.1-4.14-.02-.14,0-.27.01-.4.03l.49.37,1.92,1.45c2.29,1.72,2.26,1.32,3.65,2.13Z"/>
  <path class="st0" d="M422.57,542.01c-2.07,0-3.64.18-4.7.42v24.52c1.01.18,2.49.23,4.06.23,8.57,0,13.23-4.79,13.23-13.18.05-7.33-4.1-11.99-12.58-11.99Z"/>
  <path class="st1" d="M502.28,460.11l3.52-1.21v1.3s-2.07,1.8-2.07,1.8c.61.86,1.18,1.75,1.7,2.69.3.16.68.36,1.15.63l-.78-3.78,4.54,2.62c.35-2.04-.46-4.74,0-6.58l-3.02-1.98,3.02.67,1.87-.81c-1.05-1.27-2.18-2.46-3.4-3.56v1.73h-1.5v-2.63h.48c-3.22-2.69-6.95-4.76-11.1-6.11v4.79s3.05-1.96,3.05-1.96l-4.28,6.78c2.61,1.43,4.88,3.34,6.8,5.62ZM508.08,458.89c.98,0,.98,1.32,0,1.32s-.99-1.32,0-1.32Z"/>
  <path class="st1" d="M513.92,512.72c.79-1.14,1.52-2.33,2.2-3.59l-4.27.46.03-1.97-4.46,1.28-1.65-3.16c-.52.97-1.08,1.9-1.67,2.78l1.65,3.76,3.08-.72c1.77,1.6-6.56,8.25-6.82,2.61l-3.79,2.65,11.18,1.22c.17-.16.33-.33.5-.5l-1.04-1.38,2.11.25c.84-.92,1.63-1.9,2.39-2.93l-1.47-1.27.73-.64,1.3,1.13Z"/>
  <path class="st1" d="M374.01,493.3c.38-2.72.58-5.58.58-8.6,0-4.48-.49-8.72-1.43-12.65-.04,0-.06.02-.1.02-.9,0-.97-1.09-.22-1.28-4.49-16.8-17.35-27.75-35.26-27.75-9.18,0-17.34,2.99-23.76,8.36l2.35,3.54-3.4-2.63c-2.3,2.09-4.36,4.49-6.12,7.2l1.2-.59.73.64-3.79,3.29h-.1c-1.76,3.36-3.12,7.1-4.03,11.16l1.86,2.66-2.56,1.14c-.4,2.71-.62,5.54-.62,8.48,0,20.08,9.91,34.91,25.13,39.92.15.05.3.1.45.15,3.55,1.12,7.38,1.7,11.43,1.7,1.54,0,3.05-.09,4.54-.25l.3-1.74,2.24,1.38c7.3-1.26,13.88-4.49,19.1-9.63l-.76-1.49-3.12-.82c-.45-2.1,1.49-1.16,3.03-1.31l1.64-16.35-1.24-1.34c-3.1,13.23-11.83,22.87-25.12,22.87-3.15,0-6.04-.56-8.67-1.58v2.98h-1.5v-3.64c-10.37-4.95-16.1-17.48-16.1-31.11,0-.68.02-1.36.04-2.04l-1.41,1.22-.73-.64,2.2-1.91c.21-3.42.75-6.73,1.61-9.85l-1.56.54-.73-.64,2.66-1.16c.67-2.16,1.51-4.21,2.5-6.12-.84-.12-.8-1.29.13-1.29.21,0,.36.07.48.16,2.03-3.54,4.66-6.53,7.88-8.7,0-.34.23-.68.74-.68.1,0,.18.02.26.04,3.47-2.08,7.57-3.28,12.32-3.28,17.71,0,26.26,17.1,26.26,33.47,0,3.44-.33,6.77-.96,9.92l2.31.68v-9.22c4.42-.56,2.72.74,2.97,3.32.33,3.41.18,5.04,3.87,7.2l-.77-2.62c.91.2,2.06-.51,3.22-1.16ZM301.76,481.28c-.98,0-.98-1.32,0-1.32s.99,1.32,0,1.32ZM358.65,516.85v3.95s-.75,0-.75,0l-3.8-3.94h4.55ZM350.31,522.11c-.99,0-.99-1.32,0-1.32s.99,1.32,0,1.32ZM348.79,524.74c.98,0,.98,1.32,0,1.32s-.99-1.32,0-1.32ZM312.38,462.85c.99,0,.99,1.32,0,1.32s-.99-1.32,0-1.32ZM307.83,469.43c.99,0,.99,1.32,0,1.32s-.99-1.32,0-1.32ZM307.83,472.06c.99,0,.99,1.32,0,1.32s-.99-1.32,0-1.32ZM304.8,498.4c-.99,0-.99-1.32,0-1.32s.99,1.32,0,1.32ZM306.32,478.63l-2.27-1.96,2.27-1.96-.75,1.96.75,1.96ZM310.09,493.8l-.73.64-2.27-1.97.73-.64,2.27,1.97ZM311.62,474.7l-2.28,3.93-.73-.64-.02-3.29h3.03ZM312.39,469.42l-2.27-1.97.73-.64,2.27,1.97-.73.64ZM368.51,473.38c-.99,0-.99-1.32,0-1.32s.98,1.32,0,1.32ZM368.51,470.75c-.99,0-.99-1.32,0-1.32s.98,1.32,0,1.32ZM370.03,490.5c-.99,0-.99-1.32,0-1.32s.99,1.32,0,1.32Z"/>
  <path class="st1" d="M430.18,526.72h12.34l-25.65-42.27,22.24-35.59-1.57-1.81h2.71s1.66-2.67,1.66-2.67h-8.93v.02l-3.77.82-10.75,18.46c-3.05,5.25-5.13,9.04-7.45,13.93h-.37c-2.2-4.4-4.52-8.55-7.57-13.93l-1.2-2.13-.75,1.29-2.28-2.64c.66-.26,1.25-.54,1.78-.85l-8.43-14.97h-12.34l11.83,19.89c.21.12.33.33.33.55l1.99,3.34c.09-.03.19-.05.31-.05.83,0,.95.93.38,1.22l9.35,15.73-25.17,41.66h12.22l9.9-18.08c4.28-7.21,6.6-11.61,8.92-16.37h.24c2.57,4.76,5.25,9.28,9.53,16.25l10.51,18.2Z"/>
  <path class="st1" d="M493.66,517.46c-.27.12-.54.24-.82.35l.82.36v-.7Z"/>
  <path class="st1" d="M455.75,495.76l-6.08,1.32-1.51-3.94-.73,3.77c.54,2.74,1.29,5.34,2.23,7.79l1.53-2.33h1.5s-1.39,6.03-1.39,6.03c.31.62.64,1.23.97,1.82l.66-2.38,3.57-1.52c.56,2.07-3.14,2.97-2.28,5.9.49,1.66,4.03,2.56,5.97,1.85l1.61-2.49,6.07,3.95-3.79,3.95-.85-2.52-5.12.96c5.43,5.45,12.51,8.91,20.69,9.86l.45-.39.58.5c1.18.11,2.38.17,3.6.17,1.41,0,2.79-.07,4.16-.21v-1.79h1.5v1.62c1.58-.21,3.13-.53,4.64-.92-.03-.21-.06-.43-.1-.69l-3-2.66,3.02-1.3-4.39,1.15-2.42-2.47-2.31,3.95-2.99-1.97,1.78-3.41c-1.26-.03-2.48-.15-3.65-.36l.33.47c-.25-.2-.49-.38-.72-.55-1.56-.31-3.04-.77-4.44-1.36-1.05.09-2.26.35-3.93.58l.77-2.2c-2.64-1.64-4.93-3.82-6.85-6.4v.7h-1.5v-2.63h.18c-3.15-5.01-5.06-11.22-5.57-17.86l-3.71-.58,1.53,6.57ZM483.8,526.06c.99,0,.99,1.32,0,1.32s-.99-1.32,0-1.32ZM480.01,522.11v2.63s-.75,0-.75,0l-2.28-2.62h3.03ZM471.67,520.79c.99,0,.99,1.32,0,1.32s-.99-1.32,0-1.32ZM458.76,501.04v2.63s-3.02,0-3.02,0v-.65s3.02-1.98,3.02-1.98Z"/>
  <path class="st1" d="M484.58,447.68c-.94-2.3-.29-3.99,3.01-3.28-1.26,5.09,6.82,5.5,5.93,9.15.57.24,1.13.51,1.67.8l-.02-7.31-3,1.33c-.29-1.36-.58-3.41-1.43-4.48-.21-.26-.48-.41-.78-.51-1.71-.22-3.48-.35-5.3-.35s-3.48.12-5.16.34c.31.37.5.72.5,1.02l-3.38-.56c-10.36,2.13-18.89,8.44-24.21,17.84.46.34.31,1.17-.47,1.17-.06,0-.11-.02-.16-.03-3.43,6.53-5.35,14.46-5.35,23.47,0,1.64.07,3.23.2,4.8.88-.02,1.8,0,2.54-.26,2.49-.91,4.54-2.64,7.4-2.94.35-.04.79-.07,1.26-.09-.02-.42-.02-.85-.03-1.27-.69-.17-.68-1.08,0-1.24.03-2.01.16-3.99.4-5.92l-.93.61-3.05-2.64v-1.3s4.27,1.39,4.27,1.39c2.4-14.31,10.96-25.7,25.68-25.7,2.24,0,4.33.27,6.27.78-.66-3.1-5.07-2.87-5.87-4.81ZM467.12,448.36c.99,0,.99,1.32,0,1.32s-.99-1.32,0-1.32ZM458.02,473.38c-.99,0-.99-1.32,0-1.32s.98,1.32,0,1.32ZM458.02,470.75c-.99,0-.99-1.32,0-1.32s.98,1.32,0,1.32ZM464.85,454.94v-2.63s3.03,2.63,3.03,2.63h-3.03ZM471.67,450.99c-.99,0-.99-1.32,0-1.32s.99,1.32,0,1.32ZM483.8,450.99c-.99,0-.99-1.32,0-1.32s.99,1.32,0,1.32Z"/>
  <path class="st1" d="M347.7,552.52c-.12-.04-.21-.09-.32-.13-.03,0-.06.02-.1.02-.31,0-.51-.14-.63-.32-3.53-1.49-5.13-2.91-5.13-5.56,0-2.12,1.61-4.66,5.85-4.66,2.81,0,4.89.92,5.9,1.48l1.11-3.27c-.8-.45-1.91-.89-3.32-1.17v.33l-3.8,1.31-.73-.64,2.86-1.25c-.59-.06-1.22-.1-1.89-.1-6.04,0-10.05,3.6-10.05,8.44,0,4.38,3.13,7.01,8.21,8.8,4.19,1.61,5.85,3.27,5.85,6.18,0,3.13-2.4,5.3-6.5,5.3-2.77,0-5.39-.92-7.19-2.03l-1.01,3.37c.61.4,1.43.78,2.37,1.09.12-.1.28-.17.5-.17.42,0,.65.24.71.52,1.37.34,2.89.55,4.35.55,7.33,0,10.88-4.15,10.88-8.94s-2.67-7.1-7.93-9.13Z"/>
  <path class="st1" d="M357.89,539.23c-.13,0-.23-.02-.33-.06v3.3h9.45v27.66h4.06v-27.66h9.5v-3.41h-22.17c-.12.1-.29.17-.51.17Z"/>
  <path class="st1" d="M402.84,557.45c0,6.87-2.95,9.91-7.56,9.91-4.15,0-7.24-2.95-7.24-9.91v-18.39h-4.06v18.3c0,9.63,4.79,13.28,11.16,13.28,6.73,0,11.75-3.92,11.75-13.46v-18.12h-4.06v18.39Z"/>
  <path class="st1" d="M422.38,538.83c-3.18,0-6.09.28-8.53.65v21.08l3.94,1.73-.73.63-3.21-.05v7.16c2.03.23,4.43.37,7.28.37,6.04,0,10.83-1.57,13.74-4.47,2.9-2.86,4.47-7.01,4.47-12.08s-1.61-8.62-4.38-11.16c-2.72-2.54-6.82-3.87-12.58-3.87ZM423.12,540.55c.98,0,.98,1.32,0,1.32s-.99-1.32,0-1.32ZM421.92,567.18c-1.57,0-3.04-.05-4.06-.23v-24.52c1.06-.23,2.63-.42,4.7-.42,8.48,0,12.63,4.66,12.58,11.99,0,8.39-4.66,13.18-13.23,13.18Z"/>
  <polygon class="st1" points="448.17 539.06 444.56 539.06 444.56 567.61 446.63 568.21 445.53 570.13 448.57 570.13 448.57 540.24 448.17 539.9 448.17 539.06"/>
  <path class="st1" d="M477.74,565.57c.32,0,.52.14.63.33,2.33-2.74,3.76-6.63,3.76-11.63,0-9.22-5.49-15.72-13.97-15.72s-14.43,6.45-14.43,16.32c0,6.21,2.52,11.07,6.59,13.68l.05-2.89,2.51.15c-3.14-2.19-4.86-6.45-4.86-11.03,0-2.38.41-4.67,1.22-6.66l-3.5-.98,6.05-3.96-.47,1.54c1.62-1.79,3.83-2.9,6.65-2.9,6.68,0,9.91,6.45,9.91,12.63,0,2.22-.36,4.32-1.05,6.16.22.34.09.84-.4.96-1.43,3.08-3.88,5.24-7.21,5.69l-.6,3.32c.8-.05,1.59-.15,2.35-.31l-.05-.15,3.78-4.54-2.28,3.93.75.11c1.6-.63,3.06-1.57,4.31-2.78-.72-.21-.64-1.27.25-1.27ZM-240.21,392.42h.75s2.26,1.98,2.26,1.98l-3.01,1.98v-3.95Z"/>
  <path class="st1" d="M471.67,522.11c.99,0,.99-1.32,0-1.32s-.99,1.32,0,1.32Z"/>
  <g>
    <path class="st2" d="M448.93,347.29c.06,1.29,1.62,1.63,1.87,2.05-.68-.81-.98-1.28-1.87-2.05Z"/>
    <path class="st2" d="M452.65,350.37c-.01-1.29-1.77-.94-1.85-1.03.29.48-.29,1.6,0,2.05.29-.24,1.53.32,1.85-1.02Z"/>
    <path class="st2" d="M417.19,390.33c-1.19-.6-2.99-3.34-4.66-4.09l-1.78,3.17-.24-.43c-.36.58-.66,1.09-.78,1.34,2.65,3.56,3.36.17,7.47,0Z"/>
    <path class="st2" d="M424.66,396.48c-.27-.58.59-2.5-.32-3.67-1.98-1.77-5.18-1.48-7.14-2.48l-1.86,8.19,9.33-2.04Z"/>
    <path class="st2" d="M445.2,347.29c1.22.14,2.5-.09,3.73,0-1.99-1.74-2.54-1.37-3.73-2.05.29.32-.25,1.44,0,2.05Z"/>
    <polygon class="st2" points="432.12 309.37 435.86 310.39 435.86 308.34 432.12 309.37"/>
    <path class="st2" d="M438.69,347.3l-.96,2.04c3.34.77,2.93-1.28,3.73-2.05-.94.16-2.03-.33-2.78.01Z"/>
    <path class="st2" d="M441.46,347.29c.6-.1,1.25.04,1.87,0v-2.05c-.58.65-1.26,1.47-1.87,2.05Z"/>
    <path class="st2" d="M490.01,261.2l-3.71,7.19.9.98c.8-.66,1.93-1.91,2.81-2.01.37-1.71,2.25-3.75,1.87-6.15-.6.05-1.26.04-1.87,0Z"/>
    <path class="st2" d="M444.26,343.29c-.89.37-.64,1.62-.93,1.95h1.87c-.29-.17-.31-1.95-.93-1.95Z"/>
    <path class="st2" d="M443.33,347.29l3.21,2.67c-.74-.75-.96-1.75-1.34-2.67-.59-.07-1.27-.04-1.87,0Z"/>
    <path class="st2" d="M531.09,234.56c.02-.12.42-.4.85-.88l-.53-.98,1.65-3.01c-.12-4.53-3.04-6.09-7.57-5.38l5.33,4.37.27,5.87Z"/>
    <path class="st2" d="M486.28,156.67c2.17,1.6,1.71,5.2,6.15,4.42l-3.52-6.47h-2.63c.09.65-.02,1.38,0,2.05Z"/>
    <path class="st2" d="M473.21,142.32h1.87l-.16-2.85c-.39-.94-1.36-.88-1.7-1.25-.21,1.29.3,3.05,0,4.1Z"/>
    <polygon class="st2" points="506.81 246.85 506.81 248.9 510.55 248.9 510.54 244.8 506.81 246.85"/>
    <path class="st2" d="M432.13,243.63v-7.02s-4.02,1.73-4.02,1.73c1.58,1.55,2.94,3.34,4.02,5.3Z"/>
    <path class="st2" d="M557.23,132.07c-.44.36-2.05-.22-1.87,2.05.92-.33,1.78-.86,1.87-2.05Z"/>
    <path class="st2" d="M534.82,248.9c-1.36-1.11-5.56-3.62-5.61-1.02l5.61,3.07c.03-.68-.04-1.37,0-2.05Z"/>
    <path class="st2" d="M562.83,144.37c1.13-1.23,2.05-2.65,3.65-3.27l5.46.99,3.68-4.47-1.48-2.57-2.96.9-1.33-4.98-2.32.67-.97-5.73-1.87,10.25-1.86-6.16c-3.49-1.01-3.79.57-5.6,2.07l3.73,12.3c.62.07,1.26-.09,1.87,0Z"/>
    <path class="st2" d="M432.13,380.08v2.05h1.87c-.18-.24.25-2.4-1.87-2.05Z"/>
    <path class="st2" d="M484.87,257.09l-1.3,2.31c1.65.52,3.57,1.6,6.43,1.8v-2.05c-.56-.56-1.78-1.42-1.87-2.05l-2.9-.06c-.13,0-.25.03-.37.05Z"/>
    <path class="st2" d="M187.54,287.85c-.59-1.38-1.3-2.7-1.87-4.1h-3.73c1.18.7,1.24,2.19,5.6,4.1Z"/>
    <path class="st2" d="M167,296.04h3.73s-1.87-4.09-1.87-4.09c-.07.24-2.71,1.11-1.86,4.09Z"/>
    <polygon class="st2" points="442.63 332.51 443.32 332.94 443.97 330.12 442.63 332.51"/>
    <polygon class="st2" points="321.04 191.51 320.27 183.43 317.54 188.21 321.04 191.51"/>
    <polygon class="st2" points="593.59 223.66 593.73 222.21 592.53 221.85 593.59 223.66"/>
    <polygon class="st2" points="228.6 301.17 226.75 300.15 226.75 302.2 228.6 301.17"/>
    <path class="st2" d="M165.13,281.7c-.16.3-.47.66-.87,1.08l-3.04,5.37-4.3,7.61c3.12-.19,6-1.37,8.35-4.74,2.17-3.11,1.14-4.92,1.73-7.28.75-2.97,2.54-5.82,2.28-9.84l-3.6,6.36c-.14.5-.31.98-.54,1.42Z"/>
    <path class="st2" d="M247.28,365.74c-1.32,1.01-2.95,1.96-4.13,3.29l1.63,3c.17-.02.33-.05.47-.09l4.74-8.47c-2.49-.3-2.23,1.9-2.71,2.27Z"/>
    <polygon class="st2" points="464.98 110.67 463.88 108.64 463.88 111.57 464.98 110.67"/>
    <polygon class="st2" points="439.14 338.74 436.95 342.63 438.67 343.17 439.14 338.74"/>
    <polygon class="st2" points="415.32 384.17 414.75 382.28 413.86 383.86 415.32 384.17"/>
    <path class="st2" d="M439.99,396.84l.44,1.08.72-1.31c-.34.12-.72.21-1.16.23Z"/>
    <polygon class="st2" points="435.85 400.59 435.88 404.66 436.59 404.9 438.97 400.58 435.85 400.59"/>
    <path class="st2" d="M427.69,402.82c-.75-.56-2.23-4.62-3.03-6.34,1.33,6.2-.55,2.59-2.79,3.07-3.44.74-6.66,2.7-9.36,5.1l-1.84-6.11c-3.04,2.38-2.8,8.22-1.06,11.3l-7.35.98,5.59-12.28-6.54,4.08-.92-3.05,9.35-3.1-1.56-4.78c.17-.99,1.38-1.05,1.54-1.37-1.03-1.39-1.55-4.15-3.72-4.1l-3.74,4.09,3.92-8.08.6.13-32.89-58.26-.56.61-2.79-3.06.9-.99,1.33,1.46-3.64-6.44,51.21.38.38-1.34-7.25-5.63,1.87-11.01,3.71,2.08.12-8.09,11.13.87-1.9,13.36h5.58s-1.83-7.26-1.83-7.26l4.65-7.06-2.81,6.11,5.58,1.05,1.89,5.11-5.61,4.1,1.85,1.02-1.85,1.02-5.58,3.06,3.25,2.7,11.67.09v-1.74s2.78,0,2.78,0l.81,1.76,2.92.02-1.59,2.85,1.63,3.53-2.67-1.67-1.84,3.29.75,2.48,4.69-2.04c-.14,6.93,2.16,10.54,7.57,13.49l-3.84,17.27c-3.68.87-4-1.63-5.59-4.09-1.33,1.11-3.75,1.74-3.74,4.07,4.4-.14,6,4.26,7.47,8.21l-11.14-6.13-3.79,6.14,1.86-8.18h-5.6s3.71,13.33,3.71,13.33l-4.64-5.13.91,7.18-4.7.84-1.82,6.3c-5.42-3.74.51-4.9.41-7.13-1.21-3.4-2.79-5.38-4.73-6.92l-2.79,4.99,2.44.9v2.02s-4.08,0-4.08,0l-3.14,5.61c7.73-.07,5.47,7.96,12.82,11.83l-3.73,1.03,3.74,4.09.93-2.03c1.18,0,.85,1.96.93,2.03.7.52,3.54,2.12,3.73,2.05.75-.27.5-3.97,1.87,0,7.13-2.89,2.39-12.22-2.8-4.12l-2.78-3.07,3.7-2.02c-1.73-1.31-2.52-3.41-3.72-5.14-.23-.34-1.43-.18-1.85-1.01.08-1.34,1.73-.92,1.85-1.04,4.34-4.46,7.32-.21,9.34,4.09l-7.47-2.04c3.34,4.39,5.4,6.42,11.21,6.16-.44.82-.72,1.75-.96,2.68l9.22-16.74c-1.57-2.93-3.16-6.02-2.67-6.44l7.08-1.56,27.36-49.69,23.45.17v-.15s4.58.08,4.58.08l.08.11,32.95.24,22.82,41.2,1.18-.65-.49,1.89,3.2,5.77,1.03-1.52.5,4.28,3.4,6.14,15.33-26.56-2.33-3.2.87-.67-11.42-20.99h-2.6v-2.03h1.49l-1.51-2.78v.71h-1.84v-4.09h1.84v2.71l9.41.07c.09-.4.38-.74.87-.74s.79.35.88.75l59.75.44,30.75.22-17.15-29.8-45-78.2h-.26v-.46l-3.28-5.7h-2.33s0-4.04,0-4.04l-7.53-13.08-10.75,20.52,4.28-1.32-4.64,5.26-1.25-.86-.92,1.75,3.88.05c-.95,6.59,4.1,4.94,3.63,11.27l5.83,5.04-7.45-2.04.53,3.08,12.54,21.42v-1.94h3.72v2.03h-3.67l2.32,3.96c2.17,1.73,3.91,4.22,4.04,6.9l1.89,3.23c2.48-1.13,3.15-4.81,2.92-7.94l14.93,4.13c1.15,3.87-2.18,5.22-4.7,6.16-1.14.43.04-6.58-4.64-4.11l1.88,6.14-4.72,2.03-3.7-6.1-.61,2.02,3.74,6.4c.15-.14.35-.24.6-.24,1.06,0,1.19,1.56.4,1.96l1.27,2.16c.06-.01.13-.02.2-.02.86,0,1.11,1.03.74,1.63l5.22,8.92h-14.64c.47.57.25,1.75-.67,1.75s-1.14-1.17-.67-1.75h-21.07c.47.57.25,1.75-.67,1.75s-1.14-1.17-.67-1.75h-21.83l1.01,2.78-.9.99-1.73-3.77h-7.94l-4.44-8.15-7.25,1.92c-.58,3.99,1.48,7.06-3.86,5.92l1.76-9.07-5.5-3.25,2.04-7.95,5.12-1.71-10.69-19.65-.21.64-3.71-4.09c-.11,2.03.12,4.11-.01,6.14.41.33.9.5,1.11,1.05-.03.59-1.05.75-1.11,1-1.14,4.17-2.63,8.03-3.89,12.13l-5.44.16c-.6-3.29,2.21-1.2,3.79-3.32,1.91-2.56,1.82-5.01-.99-6.89l-4.77,4.78-3.63-1.74,4.81-2.95-.97-5.98,6.47-4.4c1.58-2.53.47-5.86.89-8.19h-9.33s5.58-3.06,5.58-3.06l-3.43-4.52c-.39-1.65,1.56-2.43,1.59-2.67.24-2.22-2.34-5.65-1.87-6.14l8.41,4.06v-4.1s4.52,2.02,4.52,2.02l4.81-8.11c1.74,1.01-.79,2.85-.63,3.69l3.63-6.59-2.05-2.26.9-.99,1.83,2.01,19.05-34.62,8.34-15.15-3.99,3.67,3.71-9.22-11.19-2.08,7.45-2.04c1.01-6.3-2.2-3.57-5.59-4.1-.27.3.01,1.62-.92,2.03-1.23-.06-.8-1.84-.95-2.03-2.36-3.12-3.38-7.01-5.6-10.25-.81.29-1.47.6-2.08.85l-4.01,7.17,2.34-.85-2.78,3.06-.36-.78-.86,1.54-4.19,7.48h2.61v2.03h-3.72v-.03l-1.18,2.1h1.16v4.09h-1.84v-2.86l-4.79,8.55c1.35,1.64-.19,2.26-.34,4.08-.74,8.98.08,4.51,2.69,7.04.27.26-1.83,7.19,4.29,5.73l-3.72-4.08,5.59-2.05-7.46-2.08c-1.04-5.32,1.34-3.03,3.87-5.2l-2-7.07c6.18-1.82,2.06,4.63,4.8,6.29l8.26-.14-3.72,3.06,5.59,4.1-9.13,7.42c1.48,3.51,2.13,5.41-1.14,7.95l-2.68-5.2c-5.43,1.39-7-.56-10.4-5.02l-3.73,8.15-.78-5.1-5.22,9.32c.12-.06.25-.1.41-.1,1.21,0,1.21,2.05,0,2.05-.62,0-.92-.54-.91-1.07l-4.71,8.4-15.03-27.61c-3.67.51-3.36-3.31-3.3-6.06l-1.46-2.68-14.72-3.77-3.75,6.15,2.76-8.38,6.57.19c-.01-1.36.05-2.75,0-4.11-1.71-1.26-1.67-.63-4.49-3.31l-2.97-2.83c1.77-.28,4.01.38,5.59-.01-.15-1.33-.04-2.74.01-4.14l-1.21-2.23-3.26.37-2.02-4.22-2.85,2.02-5.58,5.14c1.29-1.52,3.14-3.14,3.71-5.14l-5.61-5.14.94-3.06c1.04,1.99,3.51,2.85,4.67,4.09.59-3.57-1.6-5.45,2.83-2.31l-.96-5.88.74.54-1.17-2.15-3.32,3.65h-1.84s.92-4.1.92-4.1l3.23-1.41-7.83-14.38-3.79,7.6-.02-12.31-3.69,2.08c-.35-2.11-.71-5.31-1.75-6.97-1.26-2-4.54.06-3.87-3.28l6.66.99-22.75-41.8-1.66,1.82-.9-.99,1.89-2.07-7.17-13.17-14.24-26.17-17.15,30.11-14.02,24.62h.24v2.03h-1.4l-15.41,27.07v3.68s-2.09,0-2.09,0l-20.31,35.68v3.27l-1.26-1.05-18.56,32.6-1.63,5.3,2.4,3.4-1.49,6.89,5.61,2.04-10.27-2.03-1.86,4.09-2.05-3.38-1.23,2.17.48,5.3-2.83-1.17-1.12,1.97,2.07,2.29-4.67,2.27-.64,1.12-.36-.63-5.35,2.61,1.73,3.84c-1.85.19-3.8-.21-5.63,0l1.86,3.12,5.6-1.06-3.36,2.32-.38,7.91-3.61-8.98-3.84-1.28c-.55-3.26,1.84-1.81,3.73-2.03l1.59-20.03-26.24-46.47-9.9-17.54-1.87,4.08-.9-.99,1.76-4.87-4.67-8.28-14.97,26.47h1.04v2.63s3.12,5.62,3.12,5.62c.43.15.63.62.59,1.07l2.79,5.03s.03,0,.04,0c.81,0,1.08.92.8,1.53l6.98,12.58,25.17,45.35h3.45v2.03h-2.33l7.49,13.49-2.83,4.98h1.4s0,4.09,0,4.09l-3.39-.6-4.6,8.08,2.39-1.32v2.03l-3.71,1.62-20.26,35.59h-66.86l40.77-73.39-15.63-28.7-.77,1.37c.06-.01.12-.02.19-.02,1.21,0,1.21,2.05,0,2.05-.51,0-.81-.37-.89-.79l-44.64,78.98,3.5,4.84-3.71-1.04.18,10.11,1.68.14c.28-1.08-.18-2.79.01-4.09h1.85c.12,1.33-.15,2.78.01,4.09,1.94.72,3.4.74,5.6,2.05l2.8-2.05c.53.15.52,1.86.93,2.05,3.01,1.36,6.44.56,5.59,6.15-.42.55-2.54-1.53-3.72-2.05.61,1.43.61,4.23,1.87,6.14l-3.74-4.09-2.91,4.24-6.41-2.2,3.73-5.1c-.37-2.34-2.9,1.78-3.74-5.14-.56-.21-1.3.2-1.87,0-.71,2.69-.07,2.04-1.87,4.1-.11.13.25,2.03-.93,2.03l-.93-2.03c-2.73.75-1.36,4.29-1.87,6.15l5.6,4.09c-1.15.25-2.95-.36-3.73.01-.73.35-5.46,4.7-5.58,5.26,3.34,5.13,2.94,7.8,3.68,12.91l3.69.03-3.64-9.99,5.47,1.02-1.36-2.7,6.16-4.46-2.82,9.17,2.77,1.05,4.69-10.24c-.1,3.54.76,6.93.81,10.44.04,3.29-3.08,4.47,2.94,3.89l-.88-10.29c1.83-4.3,5.65-2.26,6.55-3.06,1.98-1.73.73-5.68,3.65-5.08l1.89,6.12-9.32,5.16,7.44-3.1c.08,4.11-1.48,7.32,3.74,6.15l1.86-10.23v7.17s1.86-3.07,1.86-3.07h3.73s2.27,9.31,2.27,9.31l3.35-1.13-1.06,4.15,7.18.05c.12-.06.26-.1.42-.1s.3.04.42.11l10.51.08c-.72-4.5-3.7-6.56-4.4-12.48-.28-2.4-.02-1.28,0-2.05.06-2.73-.05-5.48.01-8.2l5.4,2.27c-2.31,5.28,1.98,7.86,3.93,12.06l-5.59-4.08-.09,5.11,3.43,1.36-1.52,3.76h5.64c.12,1,.17,1.74.15,2.29l7.38.05-4.59,8.06c.71,1.08,1.08,2.31.77,3.95l-2.17-1.49-7.56,13.27,8.81,6.64c6.08-4.06-2.29-6.25-2.38-9.13-.02-.73,1.22-6.05,3.29-5.18l-.71,6.07,10.02,3.12c-2.17,2.52-2.01,18.42-.57,22.62l9.78-17.47h-1.71v-2.03h2.84l9.19-16.42h-2.7v-2.03h3.72v.19l1.26-2.26h-6.85s0-4.09,0-4.09l4.66-2.03,2.52,5.53,3.97-7.09,3.9.03c.13-.31.4-.55.81-.55s.69.24.82.56l37.5.27c.07-.44.36-.84.9-.84s.83.4.9.85l15.1.11,47.24,85.12,1.26-1.02c1.56-5.71,4.34-4.64,8.34-7.16l.91,6.14c-4.32-2.84-6.58,1.24-9.88,3.17l9.44,17.01,17.4,31.33,16.41-29.82,6.27-11.39c-.2-6.18-3.1-3.32-6.73-6.03ZM440.53,308.34c-1.21,0-1.21-2.05,0-2.05s1.21,2.05,0,2.05ZM423.73,375.99c-1.21,0-1.21-2.05,0-2.05s1.21,2.05,0,2.05ZM427.46,384.18c-1.21,0-1.21-2.05,0-2.05s1.21,2.05,0,2.05ZM434.93,375.99c-1.21,0-1.21-2.05,0-2.05s1.21,2.05,0,2.05ZM446.13,386.23c-1.21,0-1.21-2.05,0-2.05s1.21,2.05,0,2.05ZM457.35,361.61l-2.79-3.06.9-.99,2.79,3.06-.9.99ZM578.7,330.89c1.21,0,1.21,2.05,0,2.05s-1.21-2.05,0-2.05ZM561.89,339.09c-1.21,0-1.21-2.05,0-2.05s1.21,2.05,0,2.05ZM567.49,343.19c-1.21,0-1.21-2.05,0-2.05s1.21,2.05,0,2.05ZM572.16,355.48h-3.72v-2.03h3.72v2.03ZM572.15,349.34l-3.72-3.08v-1.01s3.72,0,3.72,0v4.09ZM566.39,331.07l-5.42,1.89-1.87-6.15c7.81-2.06,10.38,3.34,16.5,6.44l-.62,5.84c-2.96-3.47-8.76-2.37-8.58-8.01ZM574.96,353.44c-1.21,0-1.21-2.05,0-2.05s1.21,2.05,0,2.05ZM600.16,216.1h-3.72v-2.03h3.72v2.03ZM602.02,222.25h-1.84v-4.09h1.84v4.09ZM600.18,212.01v-4.09s3.72,0,3.72,0l-3.72,4.09ZM606.7,226.36c-1.21,0-1.21-2.05,0-2.05s1.21,2.05,0,2.05ZM606.7,207.91c-1.21,0-1.21-2.05,0-2.05s1.21,2.05,0,2.05ZM607.63,197.65h-1.84v-4.09h1.84v4.09ZM608.57,203.81c-1.21,0-1.21-2.05,0-2.05s1.21,2.05,0,2.05ZM616.04,253c-1.21,0-1.21-2.05,0-2.05s1.21,2.05,0,2.05ZM625.38,291.95c1.21,0,1.21,2.05,0,2.05s-1.21-2.05,0-2.05ZM616.98,294.01h3.72v2.03h-3.72v-2.03ZM604.84,312.44c-1.21,0-1.21-2.05,0-2.05s1.21,2.05,0,2.05ZM614.17,294c1.21,0,1.21,2.05,0,2.05s-1.21-2.05,0-2.05ZM604.85,300.17l.9.99-2.79,3.06-.9-.99,2.79-3.06ZM597.37,294c1.21,0,1.21,2.05,0,2.05s-1.21-2.05,0-2.05ZM563.76,160.77c1.21,0,1.21,2.05,0,2.05s-1.21-2.05,0-2.05ZM552.56,144.37c1.21,0,1.21,2.05,0,2.05s-1.21-2.05,0-2.05ZM551.63,164.85h-7.48s5.61-16.38,5.61-16.38l.93,6.16,2.78-.04-1.85,10.25ZM560.03,162.82c1.21,0,1.21,2.05,0,2.05s-1.21-2.05,0-2.05ZM560.03,168.96c1.21,0,1.21,2.05,0,2.05s-1.21-2.05,0-2.05ZM555.37,152.57h1.84s1.88,6.13,1.88,6.13h-3.73s0-6.13,0-6.13ZM556.29,179.21c-1.21,0-1.21-2.05,0-2.05s1.21,2.05,0,2.05ZM554.42,138.22c1.21,0,1.21,2.05,0,2.05s-1.21-2.05,0-2.05ZM557.23,181.28l-1.88,6.13h-1.84s0-6.14,0-6.14h3.73ZM550.68,187.44l2.79,3.06-.9.99-2.79-3.06.9-.99ZM540.43,197.67h3.72v2.03h-3.72v-2.03ZM540.43,201.77c2.53,1.01,7.46-2.72,7.44-1.05l-7.44,3.07v-2.03ZM532.96,191.53l4.67-2.03,2.77,3.04-2.77,3.04-4.67-2.03v-2.02ZM533.9,195.63l.9.99-2.79,3.06-.9-.99,2.79-3.06ZM251.95,136.17c-1.21,0-1.21-2.05,0-2.05s1.21,2.05,0,2.05ZM253.82,158.72c-1.21,0-1.21-2.05,0-2.05s1.21,2.05,0,2.05ZM253.82,144.37c-1.21,0-1.21-2.05,0-2.05s1.21,2.05,0,2.05ZM255.69,152.57c-1.21,0-1.21-2.05,0-2.05s1.21,2.05,0,2.05ZM258.48,136.16h-1.84v-4.09h1.84v4.09ZM257.54,130l-.9-.99,2.79-3.06.9.99-2.79,3.06ZM184.74,261.2c1.21,0,1.21,2.05,0,2.05s-1.21-2.05,0-2.05ZM181.94,269.39v-4.09s3.73,4.09,3.73,4.09h-3.73ZM188.47,242.75c1.21,0,1.21,2.05,0,2.05s-1.21-2.05,0-2.05ZM187.54,271.44v-1.01s3.72-3.08,3.72-3.08v4.09s-3.72,0-3.72,0ZM192.2,296.05c-1.21,0-1.21-2.05,0-2.05s1.21,2.05,0,2.05ZM210.88,296.05c-1.21,0-1.21-2.05,0-2.05s1.21,2.05,0,2.05ZM217.42,291.96h3.72v2.03h-3.72v-2.03ZM218.34,300.15c-1.21,0-1.21-2.05,0-2.05s1.21,2.05,0,2.05ZM222.9,310.29l-5.3-.02-1.13-8.06,8.39,3.04-1.96,5.03ZM228.59,313.48l-.9.99-2.79-3.06.9-.99,2.79,3.06ZM279.96,269.4c1.21,0,1.21,2.05,0,2.05s-1.21-2.05,0-2.05ZM278.09,261.2c1.21,0,1.21,2.05,0,2.05s-1.21-2.05,0-2.05ZM278.09,289.9c1.21,0,1.21,2.05,0,2.05s-1.21-2.05,0-2.05ZM274.36,283.75c1.21,0,1.21,2.05,0,2.05s-1.21-2.05,0-2.05ZM270.62,298.1c1.21,0,1.21,2.05,0,2.05s-1.21-2.05,0-2.05ZM265.02,291.95c1.21,0,1.21,2.05,0,2.05s-1.21-2.05,0-2.05ZM264.1,304.25l3.72,4.09h-3.73s0-4.09,0-4.09ZM269.68,310.41v2.03h-3.72v-2.03h3.72ZM263.16,300.15c1.21,0,1.21,2.05,0,2.05s-1.21-2.05,0-2.05ZM256.63,304.25l3.72,4.09h-3.73s0-4.09,0-4.09ZM254.74,306.3v3.05s-4.67,5.12-4.67,5.12l-.9-.99,3.73-7.18h1.84ZM247.3,294h.92s2.78,3.07,2.78,3.07l-3.7,3.07v-6.15ZM249.14,302.2v4.09h-1.84v-4.09h1.84ZM243.54,289.9v4.09s-.92,0-.92,0l-2.81-4.08h3.73ZM241.7,314.48l-7.47-20.48,4.66,6.12,4.66-4.08,1.9,6.14-5.63.02c-2.26,1.57,7.29,11.23,1.89,12.28ZM245.43,312.44v-4.09h1.84v4.09h-1.84ZM253.82,320.64c-1.21,0-1.21-2.05,0-2.05s1.21,2.05,0,2.05ZM243.56,334.99c-1.9-6.49,7.68-4.38,9.34-6.16l-1.87-6.14,5.59,6.13-13.06,6.17ZM253.15,345.63l-2.12,3.7,2.79-6.12,1.87,4.03-2.54-1.61ZM256.61,341.13h-1.84s0-6.14,0-6.14h3.73s-1.88,6.14-1.88,6.14ZM263.16,332.94c-1.21,0-1.21-2.05,0-2.05s1.21,2.05,0,2.05ZM263.16,324.74c-1.21,0-1.21-2.05,0-2.05s1.21,2.05,0,2.05ZM274.35,316.52c-.69-2.05,1.51-5.38,2.37-7.62,1.66-4.31,2.16-2.53,6.04-2.6l-8.41,10.22ZM287.43,248.9c-1.21,0-1.21-2.05,0-2.05s1.21,2.05,0,2.05ZM381.71,308.34h-.92s-2.8-3.09-2.8-3.09v-3.05s3.72,0,3.72,0v6.14ZM411.6,231.86v-1.39h3.72v1.59c4.51.61,8.6,2.55,11.86,5.41l-.65-2.91,7.13.58.73,2.87c5.34-.64,9.41,3.24,10.82,8.84l-7.46,2.06c-.68-.89,3.19-10.67-.94-10.22-3.01.33-1.37,6.73-2.86,9.23.64,2.1.99,4.33.99,6.64,0,6.46-2.7,12.28-7.02,16.41l4.21-1.56v6.15l-5.58-2.06v-1.32c-3.9,3.18-8.88,5.08-14.31,5.08-12.54,0-22.71-10.17-22.71-22.71,0-5.54,1.98-10.61,5.28-14.55v-1.33h1.21c3.99-4.07,9.49-6.64,15.6-6.81ZM401.32,226.36c1.21,0,1.21,2.05,0,2.05s-1.21-2.05,0-2.05ZM403.19,207.91c1.21,0,1.21,2.05,0,2.05s-1.21-2.05,0-2.05ZM404.13,230.44v-2.03h5.59v2.03h-5.59ZM433.06,222.26c1.21,0,1.21,2.05,0,2.05s-1.21-2.05,0-2.05ZM442.4,228.4l-2.81-4.08h3.73s0,4.09,0,4.09h-.92ZM443.31,233.52l-2.79,3.06-.9-.99,2.79-3.06.9.99ZM441.48,279.65v-6.15h.92s2.78,3.07,2.78,3.07l-3.7,3.07ZM442.4,285.8c-1.21,0-1.21-2.05,0-2.05s1.21,2.05,0,2.05ZM438.66,285.8c-1.21,0-1.21-2.05,0-2.05s1.21,2.05,0,2.05ZM435.85,273.51v4.09h-1.84v-4.09h1.84ZM433.06,287.85c-1.21,0-1.21-2.05,0-2.05s1.21,2.05,0,2.05ZM421.86,277.6c-1.21,0-1.21-2.05,0-2.05s1.21,2.05,0,2.05ZM390.12,242.75c1.21,0,1.21,2.05,0,2.05s-1.21-2.05,0-2.05ZM390.12,228.41c1.21,0,1.21,2.05,0,2.05s-1.21-2.05,0-2.05ZM446.13,285.8c1.21,0,1.21,2.05,0,2.05s-1.21-2.05,0-2.05ZM396.66,294l5.58,2.06-2.79,6.12-4.67-2.04,1.88-6.14ZM401.32,312.42l-2.8-3.06v-1.01s5.6,0,5.6,0l-2.8,4.06ZM406.92,291.95c-1.21,0-1.21-2.05,0-2.05s1.21,2.05,0,2.05ZM410.66,296.05c-1.21,0-1.21-2.05,0-2.05s1.21,2.05,0,2.05ZM440.53,294c-1.21,0-1.21-2.05,0-2.05s1.21,2.05,0,2.05ZM443.34,296.04v-4.09s3.73,4.09,3.73,4.09h-3.73ZM448,291.95c-1.21,0-1.21-2.05,0-2.05s1.21,2.05,0,2.05ZM457.33,316.54c-1.21,0-1.21-2.05,0-2.05s1.21,2.05,0,2.05ZM458.34,305.39l-7.53.91,5.39-4.31,3.93-5.93-1.79,9.33ZM454.56,290.91l.9-.99,2.79,3.06-.9.99-2.79-3.06ZM469.41,330.9l-7.42-2.06,4.69-14.33c10.13,3.35,4.67,8.77,2.72,16.4ZM476.93,306.29h-1.85v-4.09h1.85v4.09ZM484.42,308.34c-1.23-2.56,2.98-7.15,3.71-6.15,1.23,2.56-2.98,7.15-3.71,6.15ZM490.93,300.12l-.9-.99,2.79-3.06.9.99-2.79,3.06ZM495.62,279.64l-3.73-7.18,7.44-1.01-3.71,8.19ZM500.28,291.95c-1.21,0-1.21-2.05,0-2.05s1.21,2.05,0,2.05ZM504.95,311.41c.33-1.95,2.24-.49,3.24-1.23l-2.18-3.99c-.74-.16-1.27-.57-1.06-1.94l1.06,1.94c1.41.31,3.57-.27,2.68,3.16-.11.42-.28.67-.5.83l2.35,4.3-5.59-3.07ZM509.62,296.02l-4.67-2.03v-2.03s7.44,1,7.44,1l-2.77,3.06ZM518,302.19h-1.84v-4.09h1.84v4.09ZM533.89,296.05c-1.21,0-1.21-2.05,0-2.05s1.21,2.05,0,2.05ZM559.09,314.48v-1.01s2.8-3.06,2.8-3.06l2.8,4.06h-5.6ZM588.03,294c1.21,0,1.21,2.05,0,2.05s-1.21-2.05,0-2.05ZM583.38,310.4h1.84v4.09h-1.84v-4.09ZM582.43,296.05c1.21,0,1.21,2.05,0,2.05s-1.21-2.05,0-2.05ZM577.77,289.9h1.85l-2.8,6.12-.9-.99,1.86-5.13ZM579.61,298.12c.36,6.03,5.55,2.12,1.88,10.22l-5.58-9.22,3.71-1ZM571.23,300.15c1.21,0,1.21,2.05,0,2.05s-1.21-2.05,0-2.05ZM574.02,304.25v4.09s-.92,0-.92,0l-2.81-4.08h3.73ZM562.83,289.9l7.44,5.13-7.45,1.01c-.64,6.04-.12,9.09-7.46,8.19l1.87-12.29c.7-.97,3.76,3.82,5.59,4.1.21-1.99-.15-4.13,0-6.14ZM528.29,277.6c1.21,0,1.21,2.05,0,2.05s-1.21-2.05,0-2.05ZM525.5,271.46h1.84v4.09h-1.84v-4.09ZM520.83,261.23l.9.99-2.79,3.06-.9-.99,2.79-3.06ZM530.32,288.15h-29.46l3.63-6.6c-.13.09-.29.14-.48.14-1.21,0-1.21-2.05,0-2.05.65,0,.95.6.9,1.15l10.64-19.33,14.77,26.68ZM507.75,240.7l4.65-4.1,1.56,9.04c-.34,2.26-3.23,2.84-3.42,3.26-.36.77.24,2.85-.01,4.1-2.27.05-2.78-2.72-3.72-4.1-.06-.09-1.85.26-1.85-1.02l1.85-1.02-1.82-2.96-3.77.91,1.87-10.26c6.6-1.64.5,4.11,4.66,6.15ZM509.61,216.11c1.21,0,1.21,2.05,0,2.05s-1.21-2.05,0-2.05ZM513.35,207.91c1.21,0,1.21,2.05,0,2.05s-1.21-2.05,0-2.05ZM504.95,259.16h3.72v2.03h-3.72v-2.03ZM519.82,237.56l3.79-.95v4.07s-6.54,4.1-6.54,4.1l2.75-7.22ZM515.22,222.26c1.21,0,1.21,2.05,0,2.05s-1.21-2.05,0-2.05ZM504.94,226.37v2.02s-5.58,2.06-5.58,2.06v-4.09s5.58,0,5.58,0ZM502.16,222.23l-2.79-3.06.9-.99,2.79,3.06-.9.99ZM500.28,191.51c1.21,0,1.21,2.05,0,2.05s-1.21-2.05,0-2.05ZM502.15,185.36c1.21,0,1.21,2.05,0,2.05s-1.21-2.05,0-2.05ZM496.53,177.19l4.66,5.11-.9.99-4.66-5.11.9-.99ZM494.68,205.86c1.21,0,1.21,2.05,0,2.05s-1.21-2.05,0-2.05ZM495.59,215.1l-5.57-4.12,3.72-1.01,1.85,5.13ZM492.81,168.96c1.21,0,1.21,2.05,0,2.05s-1.21-2.05,0-2.05ZM485.34,171.01c1.21,0,1.21,2.05,0,2.05s-1.21-2.05,0-2.05ZM481.61,168.96c1.21,0,1.21,2.05,0,2.05s-1.21-2.05,0-2.05ZM476.02,146.44l.9.99-2.79,3.06-.9-.99,2.79-3.06ZM475.07,173.07v4.09s-.92,0-.92,0l-2.81-4.08h3.73ZM465.74,158.73h7.46v2.03h-7.46v-2.03ZM462.94,146.42c1.21,0,1.21,2.05,0,2.05s-1.21-2.05,0-2.05ZM452.66,103.37c-1.81,9.25,12.08,8.57,5.7,17.57l2.28.92,1.35,4.06-5.6-2.04,1.04,3.67-6.62,2.47,3.68-5.52c5.8-14.17-4.17-11.81-5.53-16.03-1.15-3.58-.36-6.21,3.7-5.1ZM461.07,154.62c-1.21,0-1.21-2.05,0-2.05s1.21,2.05,0,2.05ZM458.26,142.32v4.09s-5.58,0-5.58,0v-2.02s5.58-2.06,5.58-2.06ZM457.33,134.12c1.21,0,1.21,2.05,0,2.05s-1.21-2.05,0-2.05ZM449.87,136.17c-1.21,0-1.21-2.05,0-2.05s1.21,2.05,0,2.05ZM448,111.57c1.21,0,1.21,2.05,0,2.05s-1.21-2.05,0-2.05ZM443.31,92.1l-3.7,3.07-1.88-6.14c2.77-.67,3.87.88,5.58,3.06ZM438.66,84.93c1.21,0,1.21,2.05,0,2.05s-1.21-2.05,0-2.05ZM435.87,76.74h3.72v2.03h-3.72v-2.03ZM434.01,95.18c.39-.51,9.36,5.22,9.32,8.19l-10.28-2.14.96-6.05ZM432.12,72.64l-3.37,2.33,1.47,2.79-3.67-2.06,5.57-3.06ZM429.36,93.13l.89,8.19h-1.84s-1.87-10.24-1.87-10.24l2.82,2.05ZM429.33,80.83c1.21,0,1.21,2.05,0,2.05s-1.21-2.05,0-2.05ZM423.73,80.83c-1.21,0-1.21-2.05,0-2.05s1.21,2.05,0,2.05ZM421.86,68.53c-1.21,0-1.21-2.05,0-2.05s1.21,2.05,0,2.05ZM419.99,60.33c1.21,0,1.21,2.05,0,2.05s-1.21-2.05,0-2.05ZM416.26,58.28c1.21,0,1.21,2.05,0,2.05s-1.21-2.05,0-2.05ZM410.66,52.13c1.21,0,1.21,2.05,0,2.05s-1.21-2.05,0-2.05ZM412.54,68.04l-.91-4.66c.97-1.12,4.91,1.56,5.51,2.14,1.02,1,6.04,8.77,5.66,9.14-5.76-1.4-6.47-5.61-13.07-2.05l.02-5.16,2.79.59ZM406.93,76.7l-4.66-5.1,5.58-3.06c-2.43,3.57-.2,5.79-.92,8.16ZM401.32,76.73l2.78,3.07c-1.71,2.19-2.81,3.73-5.58,3.06l2.8-6.13ZM399.45,68.53c1.21,0,1.21,2.05,0,2.05s-1.21-2.05,0-2.05ZM401.32,58.28c1.21,0,1.21,2.05,0,2.05s-1.21-2.05,0-2.05ZM405.06,60.33c1.21,0,1.21,2.05,0,2.05s-1.21-2.05,0-2.05ZM394.77,77.74l-3.62,4.11,7.36,9.22-8.45-8.12-2.74-6.22,7.44,1.01ZM391.99,91.08c-1.21,0-1.21-2.05,0-2.05s1.21,2.05,0,2.05ZM391.99,99.27c-1.21,0-1.21-2.05,0-2.05s1.21,2.05,0,2.05ZM388.25,95.18c-1.21,0-1.21-2.05,0-2.05s1.21,2.05,0,2.05ZM386.38,97.22c1.21,0,1.21,2.05,0,2.05s-1.21-2.05,0-2.05ZM385.44,101.34v2.02s-7.46,2.05-7.46,2.05v-2.02s7.46-2.05,7.46-2.05ZM382.65,115.67c-1.21,0-1.21-2.05,0-2.05s1.21,2.05,0,2.05ZM381.71,121.83v2.03h-3.72v-2.03h3.72ZM378.92,93.13c1.21,0,1.21,2.05,0,2.05s-1.21-2.05,0-2.05ZM382.65,86.98c1.21,0,1.21,2.05,0,2.05s-1.21-2.05,0-2.05ZM377.99,82.88h1.84s-2.8,8.17-2.8,8.17l-.9-.99,1.85-7.18ZM377.05,111.57c-1.21,0-1.21-2.05,0-2.05s1.21,2.05,0,2.05ZM373.31,113.62c1.21,0,1.21,2.05,0,2.05s-1.21-2.05,0-2.05ZM369.58,111.57c1.21,0,1.21,2.05,0,2.05s-1.21-2.05,0-2.05ZM365.85,119.77c1.21,0,1.21,2.05,0,2.05s-1.21-2.05,0-2.05ZM353.72,140.27h1.85v4.09h-1.85v-4.09ZM345.31,148.47c1.21,0,1.21,2.05,0,2.05s-1.21-2.05,0-2.05ZM334.11,181.26c1.21,0,1.21,2.05,0,2.05s-1.21-2.05,0-2.05ZM332.24,185.36c1.21,0,1.21,2.05,0,2.05s-1.21-2.05,0-2.05ZM321.97,197.67h3.72v2.03h-3.72v-2.03ZM317.29,199.73l2.8,6.12h-1.84l-1.86-5.13.9-.99ZM309.83,205.86c1.21,0,1.21,2.05,0,2.05s-1.21-2.05,0-2.05ZM317.3,236.61c-1.21,0-1.21-2.05,0-2.05s1.21,2.05,0,2.05ZM307.04,214.06h1.84v4.09h-1.84v-4.09ZM307.04,228.41h1.84v4.09h-1.84v-4.09ZM307.97,236.61c-1.21,0-1.21-2.05,0-2.05s1.21,2.05,0,2.05ZM302.38,230.48l.9.99-2.79,3.06-.9-.99,2.79-3.06ZM297.71,226.36h1.85v4.09h-1.85v-4.09ZM294.9,224.31c1.21,0,1.21,2.05,0,2.05s-1.21-2.05,0-2.05ZM294.9,228.41c1.21,0,1.21,2.05,0,2.05s-1.21-2.05,0-2.05ZM294.9,232.51c1.21,0,1.21,2.05,0,2.05s-1.21-2.05,0-2.05ZM293.97,238.66h1.84v6.14h-1.84v-6.14ZM294.9,267.35c-1.21,0-1.21-2.05,0-2.05s1.21,2.05,0,2.05ZM291.16,179.21c1.21,0,1.21,2.05,0,2.05s-1.21-2.05,0-2.05ZM272.49,160.77c-1.21,0-1.21-2.05,0-2.05s1.21,2.05,0,2.05ZM278.09,183.31c-1.21,0-1.21-2.05,0-2.05s1.21,2.05,0,2.05ZM287.44,177.14l-2.79-3.06.9-.99,2.79,3.06-.9.99ZM288.36,216.12h5.6s0,6.14,0,6.14h-.92s-4.67-6.14-4.67-6.14ZM293.03,248.9c1.21,0,1.21,2.05,0,2.05s-1.21-2.05,0-2.05ZM300.5,291.95c-1.21,0-1.21-2.05,0-2.05s1.21,2.05,0,2.05ZM317.3,314.49c-1.21,0-1.21-2.05,0-2.05s1.21,2.05,0,2.05ZM292.14,288.15l8.21-14.67c-1.06-.16-1.01-2.03.15-2.03.36,0,.6.18.75.43l5.82-10.4,14.81,26.67h-29.74ZM324.77,314.49c-1.21,0-1.21-2.05,0-2.05s1.21,2.05,0,2.05ZM342.5,293.98h-3.72v-2.03h3.72v2.03ZM333.18,283.74v-4.08c3.77-.3,8.16-.62,9.33,4.08-3.6,1.04-5.74,1.45-9.33,0ZM343.44,310.39c-1.21,0-1.21-2.05,0-2.05s1.21,2.05,0,2.05ZM343.44,306.3c-1.21,0-1.21-2.05,0-2.05s1.21,2.05,0,2.05ZM347.18,318.59c-1.21,0-1.21-2.05,0-2.05s1.21,2.05,0,2.05ZM352.78,328.84c-1.21,0-1.21-2.05,0-2.05s1.21,2.05,0,2.05ZM350,314.47l-3.75-4.09v-2.02s7.45,3.08,7.45,3.08v3.05s-3.7-.02-3.7-.02ZM358.38,320.64c-1.21,0-1.21-2.05,0-2.05s1.21,2.05,0,2.05ZM365.85,351.39c-1.21,0-1.21-2.05,0-2.05s1.21,2.05,0,2.05ZM368.91,288.15h-15.33l-30.86-54.64,69.54-124.25-1.22-1.77h2.21s13.78-24.62,13.78-24.62c-.04,0-.07.01-.12.01-1.21,0-1.21-2.05,0-2.05.48,0,.76.32.86.7l4.08-7.29,3.94,7.12.46-.5.9.99-.68.74,1.56,2.81,6.6,3.65-.95,2.06-3.04-.98,1.79,3.24c.13.13.22.3.27.48l9.88,17.85c.13-.07.27-.12.45-.12,1,0,1.17,1.39.52,1.88l15.41,27.83,5.53-3.05v2.03l-4.67,2.04-.77-.84,4.03,7.27,5.13,2.83-.9.99-2.79-1.22,9.67,17.46c2.69-3.84,6.44-8.81,8.98-5.97v8.19s-4.51-2.17-4.51-2.17l-2.76,3.01,4.23,7.64,6.79,5.85-3.77-.41,1.54,2.79c2.68.68,5.33.76,6.8-.3,1.85.19.91-2.7,1.03-4.11-1.63-.85.03-1.95,0-2.05-.37-1.3-2.46-3.55-1.87-4.09l6.31.1,3.01-4.2.97,5.95-2.87-.86-.88,7.17c-.75-1.17-1.6-1.59-2.81-2.03,3.11,9.89,3.51,2.1,9.31,7.19l-6.51,2.44-6.53-3.47,7.44,9.23-10.26-7.16c-.11.52-.18,1-.24,1.45l4.03,7.28c3.55,1.73,8.38,2.59,10.22,7.63l-3.95-3.81-3.86.53,7.62,13.76,5.58.71c-1.17,2.48.24,5.61-.95,7.64l2.77,5-3.88,6.94h.42v2.03h-1.55l-4.98,8.89c-.41,2.21-1.25,5.15-.94,7.52l1.87,2.05,1.87,2.05c3.11-.25,5.35.44,7.46-3.09l-9.32-6.14,5.56.03-.91-5.15,10.27,6.16-3.37,2.31-.32,8.85,5.55,2.14c-4.36,6.86-6.12-4.64-11.18-3.05l1.86,6.13c-2.7.7-5.19-2.31-7.47-2.04-.38,1.75-.76,3.47-1.29,5.16l4.21,5.13-1.06,8.15-5.63-12.88-3.27-1.83-.42-7.83c-.36-.11-.68-.17-.99-.21l-2.96,5.29c.11.62.27,1.25.45,1.87.8,2.75,9.01,5.84,9.11,11.51l-5.03-1,.42-3.06c-4.08,3.83-6.66,1.46-9-2.06l-1.32,2.36v3.76s-1.21-1.59-1.21-1.59l-4.51,8.05h-18.74c2.68-2.89,5.01-6.11,6.94-9.57l-4.87-3.05v-4.07s7.48.99,7.48.99l-1.87-7.16,3.72,2.08v-6.18s-4.68,2.02-4.68,2.02l-.77-7.03-5.73-1.15,5.6-2.05-2.79-4.05-6.52,3.06,4.66-11.28.93,6.14,5.29-2.33,1.24-5.86,1.22,3.6,1.93.15c-.33-1.35-.73-2.68-1.17-3.98-1.16-.76-2.26-2.1-2.93-3.87.57.05,1.06.1,1.49.12-1.74-4.04-4.01-7.79-6.71-11.19l-2.27,4.92-3.68-3.07,2.42-5.86c-2.57-2.61-5.42-4.92-8.51-6.92l4.19,7.64c-4.29-4.35-5.79-2.98-11.19-2.06l1.91-6.92,1.81-.62c-2.41-1.3-4.94-2.4-7.56-3.29-.13.33-.4.59-.83.59-.66,0-.95-.6-.9-1.15-1.14-.34-2.3-.64-3.48-.9h-.28v-.06c-3.38-.73-6.88-1.13-10.48-1.14-.68,1.13-1.15,2.44-.73,4.26.6,2.58,4.97,3.98,7.34,2.88l1.98-3.88,7.47,6.16-4.66,6.15-1.04-3.92-7.15,1.7-2.06-4.97-5.62-1.03,1.58-7.26c-26.17,1.45-46.94,23.12-46.94,49.66,0,13.03,5.01,24.91,13.22,33.77h-5.46c.47.57.25,1.75-.67,1.75s-1.14-1.17-.67-1.75ZM490.94,195.61c-1.21,0-1.21-2.05,0-2.05s1.21,2.05,0,2.05ZM494.68,257.1c1.21,0,1.21,2.05,0,2.05s-1.21-2.05,0-2.05ZM448,230.46c1.21,0,1.21,2.05,0,2.05s-1.21-2.05,0-2.05ZM452.68,236.6v-6.14h1.84v6.14h-1.84ZM373.31,255.05c-1.21,0-1.21-2.05,0-2.05s1.21,2.05,0,2.05ZM368.66,255.05v-4.09h1.84v4.09h-1.84ZM369.58,275.55c-1.21,0-1.21-2.05,0-2.05s1.21,2.05,0,2.05ZM373.31,341.14c-1.21,0-1.21-2.05,0-2.05s1.21,2.05,0,2.05ZM397.59,392.38c-1.21,0-1.21-2.05,0-2.05s1.21,2.05,0,2.05ZM416.26,408.78c-1.21,0-1.21-2.05,0-2.05s1.21,2.05,0,2.05Z"/>
    <path class="st2" d="M484.41,183.31c-.34-1.09.06-2.31-1.87-2.05-.04.68.06,1.37,0,2.05.47.25,1.27-.21,1.87,0Z"/>
    <path class="st2" d="M486.28,150.52l.31-.17-.41-.75c-.63.4-1.22.78-1.77.91.29,2.67,1.83,3.87,1.87,4.1v-4.1Z"/>
    <polygon class="st2" points="170.67 271.45 172.6 271.45 172.61 268.01 170.67 271.45"/>
    <polygon class="st2" points="171.67 283.77 170.73 285.8 172.6 285.8 171.67 283.77"/>
    <polygon class="st2" points="493.4 220.45 492.49 219.84 493.45 221.56 493.4 220.45"/>
    <polygon class="st2" points="482.56 201.77 482.5 201.79 482.55 201.89 482.56 201.77"/>
    <polygon class="st2" points="436.8 398.43 437.73 396.48 435.86 396.48 436.8 398.43"/>
    <polygon class="st2" points="426.51 314.52 422.79 315.52 422.79 316.08 427.09 316.11 426.51 314.52"/>
    <polygon class="st2" points="428.37 399.52 432.12 400.58 432.13 394.43 430.26 394.43 428.37 399.52"/>
    <polygon class="st2" points="486.27 255.05 486.27 254.59 486.11 254.87 486.27 255.05"/>
    <path class="st2" d="M433.1,349.52l.89,3.93-3.81,1.28-2.87,5.13,2.03,5.86c.41-3.04-.52-5.26,1.84-8.12,2.09-2.53,5.36-3.91,8.43-4.18l-1.88-4.08-3.22-2.35-1.41,2.52Z"/>
  </g>
</svg>