<?xml version="1.0" encoding="UTF-8"?>
<svg id="Layer_1" xmlns="http://www.w3.org/2000/svg" version="1.1" viewBox="0 0 1920 1080">
  <!-- Generator: Adobe Illustrator 29.5.1, SVG Export Plug-In . SVG Version: 2.1.0 Build 141)  -->
  <defs>
    <style>
      .st0 {
        fill: #fff;
      }
    </style>
  </defs>
  <path class="st0" d="M996.25,702.6c.49,1.58,3.12,6.84-.82,5.53-9.42-5.33-8.85-13.8-7.64-24.03l5.06,1.84.08-9.84-6.84-3.1,5.1,4.61-5.08,2.78-1.74-9.26c-2.39-2.77-3.08.24-3.39,2.76-1.12,9.19,6.78,22.93-5.06,24.99,2.42-3.89-1.02-9-.97-10.15.11-2.61,2.65-5.31,2.75-9.24.14-5.73-3.32-28.05,2.47-30.53l2.49,3.63,5.08-6.44c-4.79-1.01-4.73-7.19-5.46-7.9-1.11-1.09-4.03.53-4.75-1.57-1.73-5.04.14-17.54-.09-23.51-1.06-26.57,3.54-67.45.01-90.86-.63-4.16-2.65-7.94-4.89-11.28l3.36.02c-.33-9.19,1.86-17.88-3.45-25.87,5.27-2.77,4.89-3.25,5.28-9.31.44-6.96.11-26.52-5.22-29.58,4.46-5.41,5.29-28.66,4.38-35.26-.29-2.1-4.5-4.9-4.59-8.16l-4.86,1.78-5.09-11.12,5.02.96-1.64-4.66,5.06,1.84-1.7-7.42-5.05,1.87,2.53-5.52,4.2,3.67,3.41-5.56,3.4,3.69-8.5-11.1-5.01,2.79,3.38-6.48c2.52-.68,1.55,2.19,2.61,3.51,7.03,8.75,8.12-7.5,7.4-13.53-.91-7.66-8.32-13.04-1.5-20.58,5.83-6.45,37.98,3.44,46.51,4.71,2.91-4.49-.05-5.77-3.25-7.56-11.93-6.68-27.76-7.64-40.83-7.22l-1.62,3.63c-3.79-2.87-5.5-7.64-8.5-11.17-1.57-1.85-10.25-4.07-.84-5.49l-2.55-7.38c5.97,3.03,6.69,22.4,14.38,13.88-6.65-5.92.42-15.83-1.89-23.82l-8.23-3.96,8.23-3.03-.89-16.03-5.66-2.23,1.72-5.52-8.49-1.89c2.04-6.37,7.67-.95,11.85-1.83l-.09-16.55c-12.6-2.34-25.25.37-38.14-.1-2.2-.08-14.33.09-14.25-2.78,1.99-3.54,3.45-2,5.91-2.11,12.2-.58,24.12,1.27,36.41,1.18l-3.34-7.35,5.81-3.83,4.3,3.76-5.03,4.67,8.42,4.62c-1.99-12.03,1.55-24.42,1.72-36.09.05-3.16-1.7-6.08-1.73-9.25-.03-3.72,3.23-9.12,1.03-12.17l-6.08-2.62c10.98-5.34,4.1-24.41,6.66-34.97l6.89-3.91-5.07-6.45c6.05-2.51,11.24-2.31,17.08.93,1.96,1.56-2.56,7.71,4.93,3.69l-3.38-4.62,116.83.08,18.41,108.73c-6.33,13.47.15,9.78,2.32,15.89,1.93,5.41,7.8,43.59,8.15,50.46.16,3.14-2.66,2.09-3.25,3.92-.88,2.76-.04,9.18-3.51,9.67l-1.71-19.44c-1.08-1.74-3,1.1-3.23,2.08-1.82,7.52,1.54,27.07-.18,35.88l-5.06-5.53v11.09s5.06-1.86,5.06-1.86l1.7,7.41-8.45-3.68.16,6.28,6.37,3.19,2.78,12.72,4.01-6.42-1.48-4.66,11.85-.02c1.19-8.31-10.99-4.58-11.86-5.55-2.1-6.55,2.7-7.32,2.88-7.76.46-1.12-1.55-3.41-.45-5.21.87-1.41,4.48-1.31,4.47-2.85-.02-2.9-8.34-18.62,1.56-19.34l61.96,377.66,5.66-.3,90.16-564.08,145.54,2.57v110.12c-3.29-.58-1.99-5.64-6.25-7.06-6.05-2.03-18.05.46-25.19-.23-3.58-.34-6.29-3.79-8.04-3.48-1.41.25-3.15,3.01-5.49,3.3-10.26,1.27-24.66-1.6-24.25,14.6,1.29.17,3.38,2.11,3.99,2.11h62.69c.52,0,1.3-2.34,2.54-1.85v97.16h-6.74s5.02-7.42,5.02-7.42c-5.7-.92-6.1-11.93-4.99-16.41.21-.84,8.78-3.28.21-5.08l3.11-10.87c-12.75-.86-22.36-.49-33.87,5.56l14.55,3.48c3.96,1.35,9.03-6.26,11.76-1.66,2.55,4.3-4.5,28.32-.92,35.18l-5.05-3.7-3.4,3.69,1.59-5.38-3.28-1.99,5.06-2.78c-5.85-3.05-5.71-5.04-5.06-12.06l-47.46.02c-.69,28.51,33.7,5.47,45.75,19.43-9.8,4.71-22.05-2.75-30.46,5.54l2.74,2.52,39.57.25v12.96s-8.46-1.83-8.46-1.83l8.4,3.76.07,7.34,5.06-.02c1.99-9.84-4.19-20.38,6.78-25.9l.02,127.71-8.31-.2-5.25-20.17h-52.53c2.12,8.7-4.44,18.09-4.17,26,.32,9.52,3.61,26.09,14.32,25.82,3.45-29.51,36.38-26.13,42.41-.01,7.43.7,7.1-13.2,13.52-12.94v264.66h-67.78v51.82h67.78v148.06l-106.75,1.85V343.56l-5.93,1.85-92.24,624.75h-69.7s-3.72-36.64-3.72-36.64c-11.41-54.91-17.97-113.18-25.93-167.88-20.55-141.24-39.96-283.01-61.77-423.93h-5.05s-.02,377.55-.02,377.55c-2.95.43-1.6-4.2-1.68-6.45-.16-4.64.91-12.72.05-16.31-.5-2.08-4.31-1.85-4.85-4.18-1.75-7.57,1.82-27.77,1.35-36.8-.44-8.5-3.92-17.96-3.33-26.94l-5.08,11.12-5.08-.93,3.41,10.16,6.75-1.84c2.37,6.89-2.5,13.44-3.05,17.98-1.32,10.89-1.57,7.36-3.5,14.8-1.22,4.71,4.3,10.28-1.86,14.41,1.41,3.37,7.51,3.57,8.44,5.56,2.15,4.64-6.43-1.31-5.15,7.39.11.75,3.29.79,3.52,2.1.68,3.99-2.71,12.91-2.64,18.33.12,10.01,4.74,27.94,3.77,38.55-.51,5.51-6.79,10.42-6.42,18.71.21,4.63,3.25,7.62,3.48,11.22.37,5.73-5.14,13.07,6.81,8.24l.03,5.55h-5.93s0,5.52,0,5.52l-2.56-9.2c-3.81-2.11-6.07,7.3-7.62,7.35l-5.08-5.48c-4.22,3.56-2.22,9.75-2.52,14.76l3.42-.9-3.43,23.11c5.11.88,2.8-1.37,3.38-4.69.78-4.46.47-9.37,1.71-13.8,4.76-1.03,3.07,1.74,3.5,5.33,4.65-2.53,3.88,2.5,5.32,3.59.9.68,6.15-2.36,8.09,3.11l-6.79.92c1.44,4.6,1.27,6.36-2.55,9.23l-5.9-3.67c3.26,3.5,4.72,9.5,6.78,12.94h-5.07c.96,12.36,5.55,13.66,5.07,0,.36.59,5.37.13,2.1,10.16l4.66,6.48-1.68-18.48c8.03-1.49-1.2,14.83,6.77,12.93.53-6.21-.7-13.41,0-19.46.39-3.38-.58-2.99,3.39-2.74v124h-83.03l3.38-4.62-6.79-1.86,3.4-3.69c-5.21-3.43-5.84-10-12.74-4.67l-1.65-5.51-2.46,10.12,4.95,1.89c-7.77,5.49-.62,17.41-8.43,17.59l.05-13.47c-4.31-.4-6.96-6.6-7.7-6.89-4.69-1.87-.24,11.61-.81,12.95l1.64-4.2,3.44-.39c-1.07,5.86-2.06,10.34-8.49,10.15l1.76-8.17c-6.28-1.4-1.09-8.83-2.15-13.1-.54-2.16-9.27-6.28-1.31-15.71-5.87-1.54-1.34,7.61-6.77.9,7.18-2.77,4.96-8.69,5.09-15.72,5.15,3.33,2.31,12.64,3.54,19.21.7,3.71,2.7,6.7,3.24,10.4l5.05-3.69.04,11.1c8.31.97-1.53-17.81,6.74-16.68l-3.46-3.03c.74-4.41,2.41-14-3.29-13.64-2.73-4.35,21.16-4.95,17.79,3.78-1.24,3.21-5.64,3.43-2.57,11.08l-3.36-1.88c-.45,4.83,0,9.83,5.07,9.25-3.88-3.84-2.78-8.32,1.68-11.08.02,8.03,7.38,12.51,12.76,16.67l4.2-3.71-.85,7.38c7.19-8.24-2.51-7.28.86-14.8.33-.25,1.96.24,1.69-1.85,1.13,4.86,2.81,9.76,3.43,14.8l3.34-1.87,1.69,5.57-1.69-29.59-3.35.88,1.65,10.21-1.69-5.56c-.23-.36-2.66,1.42-3.37,1.87-.66-2.91-2.37-5.69-1.71-9.24-3.36.33.16,5.18-4.83,2.22l-1.91,3.31-1.71-9.23c3.98,2.87,9.46-1.4,11-1.27,1.69.15,3.2,3.82,4.21,3.09.15-.11-.5-3.22,1.13-3.7,3.41-1.02,16.36,1.1,17.54,0v-11.08c-11.22,1.32-22.79,2.74-33.89-.04l.06-10.18,5.02.95-4.7-6.34,1.32-6.6c-7.99-.06-1.2,13.73-7.62,18.46-5.59-5.55-4.34-17.22-12.7-16.61-1.52,1.82,4.7,16.65-1.69,18.5.58-13.05.17-24.61-1.72-37.02.93-1.03,18.91,1.33,22.04,1.86-.05,1.22-.08,2.44.02,3.66,3.52.59,3.83.17,3.36-3.66-1.09-.19-2.33.17-3.38,0,.22-5.88,0-9.86,6.77-9.27l-3.37-2.92.85-8.19,4.21-1.82c.26,1.13-.31,2.97,0,3.7-5.89,4.86,3.09,9.33,1.69,1.85,6.24,3.16,11.62,7.82,1.71,11.13l5.09.92c-1.47,4.89-1.01,15.35-5.11,17.56-.11-2.82.13-11.08.03-11.69-.83-5.24-10.58-2.16-5.13,7.99l-3.32-.97-.04,6.51,2.52-3.68c2.4,3.1,2.88,3.49,5.94,1.84.17,4.3-.14,8.67,0,12.97l5.06-1.36,4.81-6.39-1.4-3.35,5.05.93-6.71-3.7,6.74-4.67-6.82-8.27,5.13.87-.02-18.48-4.23,7.39-5.89-6.47c1.85-4.01,5.15-1.18,6.82-1.99,4.78-2.34,5.61-12.3,5-17.44l-6.75,1.84-.86-11.12-.86,9.27-5.95-3.71-4.2,3.7c1.6-5.81,2.82-6.42,8.47-5.55-5.11-6.61-.48-7.86-.01-14.78l-5.05,1.84,1.67-9.24c-2.83-.43-2.19,5.31-4.21,5.52-.62.06-6.02-2.35-4.23-5.53l5.05,1.87,2.56-11.14.75,6.15,4.35,3.09,1.68-14.76-4.23,3.69-.07-6.49,3.84-.95,1.28-3.67c-5.8,2.68-5-1.25-8.44-3.69l1.79,6.38-3.5,1.92,3.36,3.71c-7.27,7.55-11.26,5.7-13.54-4.59,6.65-.42,7.82-4.41,10.14-10.23l-10.12,2.8v-20.36c5.49,1.44,3.7,8.28,4.17,9.27,1.13,2.38,3.86-.14,4.29-.03-.07,1-.08,3.42.84,3.77l4.24-.08c-.37-2.84-3.04-3.15-5.08-3.68.52-7.77,3.45-18.6,11.87-18.55l-1.66-4.65,3.31.95.02-7.37-3.36,1.88v-16.66s4.98,9.18,4.98,9.18c-7.59.47-1.08,4.09,1.15,7.52l5.8-3.09c1.66-6.58-3.21-5.44-3.61-8.89-.63-5.38.71-10.71,1.82-15.83l-6.75,7.39-.86-7.39-.84,9.23-6.78,1.87,1.66-9.25-5.06.93c3.41-2.08,11.6-20.1,3.39-19.45l-4.26,18.5-3,2.41-6.3-.56c-1.66-6.56,5.72-2.5,6.79-3.69l-.03-7.39-3.36,3.68,1.67-16.64c-.56-.72-3.9,1.66-5.07,1.85-.28-.88.24-2.55,0-3.69-3.54-.53-3.84-.18-3.38,3.68,1.1-.04,2.29.18,3.38,0Z"/>
</svg>