<?xml version="1.0" encoding="UTF-8"?>
<svg id="Layer_1" xmlns="http://www.w3.org/2000/svg" version="1.1" viewBox="0 0 1920 1080">
  <!-- Generator: Adobe Illustrator 29.5.1, SVG Export Plug-In . SVG Version: 2.1.0 Build 141)  -->
  <defs>
    <style>
      .st0 {
        fill: #fff;
      }
    </style>
  </defs>
  <path class="st0" d="M645.41,474.3l-1.69-1.85,1.69,1.85ZM784.34,937.9c-.15,2,2.95.46,3.4.94v-3.7c-2.94-.25-3.92-.6-3.4,2.76ZM774.19,899.98l.86,3.71,2.52-.03-1.69-3.68h-1.69ZM789.44,940.69c1.78,1.88.76,6.02,8.47,7.4.52-1.67,2.24-3.15,1.68-5.54l-2.52,3.68c-2.24-1.57-2.12-3.15-2.55-5.55-1.63-.24-3.43.16-5.08,0ZM571.69,633.47l2.55,3.68-3.39.02,3.38,3.68-6.28-.96,1.2,2.81-10.16.02c-1.4,6.78,7.26,4.13,8.46,5.56l-.81,3.65-5.95-1.81v12.93s23.6,1.99,23.6,1.99l5.16,19.34c3.7,3.81,3.45-2.74,4.25-2.86,5.63-.84,4.4,3.53,7.16,5.64,6.71,5.14,6.14-3.18,8.43-3.79,4.61-1.24,12.07,1.43,17.46-1.82,1.27-5.1-5.05-5.83-6.29-7.89-3.38-5.65-.35-15.42-.46-21.7,4.11,2.19,4,9.32,10.14,7.39l-7.62-20.34c-2.64,4.27-1.99,7.48.86,11.08-7.18,1.29-5.99-3.77-6.8-9.25h-6.74s0,9.27,0,9.27l5.06.94-3.44,3.5,3.8,15.03,3.06,1.82c-1.31,1.87-7.03-.1-8.49-.92-.26,1.7.19,3.76-.01,5.55l-8.52-1.06-2.64-3.5,1.02-8.39c4.62-.03,6.24,5.19,10.16,7.39,1.85-11.92-1.76-17.44-6.81-27.76-5.01,2.03-3.5,6.96-1.67,11.09h-5.08s1.7-5.52,1.7-5.52l-4.87-.16-1.84-11.8,3.88-2.55c4.03,5.62,5.75-.39,8.41,0,1.85.26,4.48,4.83,7.95,3.39l-1.68-20.34c4.44-.88,3,.88,4.13,3.71,1.96,4.93,3.3,9.93,6.07,14.77l3.37-.94c-1.97-2.64,0-7.12-.49-8.98-.87-3.28-9.74-8.47-10.94-10.77-.47-.89,2.32-5.18-1.3-7.05l-.86,7.39c-4.25-1.25-2.9-7.2-4.21-11.12-2.32-6.97-6.12-11.47-4.26-20.35l-6.76.92,8.45,26.84h-10.14s5.07-8.22,5.07-8.22l-5.42-17.44-4.75-.25c-2.4-10.7,10.11-1.39,8.45-12.94l-8.45-.96,5.09-9.19c-4.24-5.29-3.57-17.73-6.6-22.07-1.74-2.48-5.72.64-5.27-2.94l3.47-1.05-.95-11.92,9.4,24.98c7.27-3.68.02-8.85-.03-9.44-.14-1.47,1.56-3.69.93-6.35-.77-3.23-2.85-11.98-4.26-14.01-3.23-4.66-12.89,1.4-11.94-6.26l14.38-5.66,1.7,3.77,4.26-6.51-3.26-1.71,1.56-4.72c-6.33.13-13.47-3.68-16.95-9.24l10.83,1.96,1.88-3.9,9.29,3.77c.7-7.9,4.99-11.91-3.35-15.71l5.15-5.67-4.27-7.81c-12.87,8.86-21.08-2.67-7.69-10.59l-10.01-4.79c-1.15-8.28,2.71-12.38,9.76-8.71l.28,5.16c3.18-2.64,4.32-3.42,8.3-1.91,3.57-17.72,5.18,5.63,13.71,3.78l-.82,3.65-4.25-.91,6.76,17.58-8.47-1.81,1.74,7.37,8.47-2.82c10.79,7.52-7.33,26.64,11.78,24.1l-2.49,6.49-12.7-12.94-1.7,18.5,6.79-4.59c1.07,4.99-6.49,7.84-6.77,9.32-.19.98,4.78,15.56,3.38,19.34,5.41-3.03,4.05-11.39,3.38-16.65,2.42-3.17,7.09,6.51,5.17,9.11,16.84,5.67,16.86-9.64,27.83-16.52,4.53,1.02-.6,12.77,1.02,14.72.36.43,3.29-.43,4.39.57,2.14,1.96,3.38,7.87,7.34,8.77v-182.3c0-50.92,38.74-96.67,86.88-78.24,26.3,10.06,36.72,34.29,38.58,63.35,5.85,91.3-.58,195.96-.16,288.89.12,26.67-1.59,59.1.01,85.12.36,5.82,2.3,11.43,1.95,17.4,13.09,1.53-1.08,4.34-1.45,6.48l1.44,12.03,4.92.12c.32,3.85-6.09,6.85-6.28,8.16-.13.92,1.01,16.31,1.32,18.51,1.11,7.99,6.55,13.4,4.94,23.27l-6.76-12.93c1.5,50.44-35.2,94.45-83.04,77.74l5.1,20.34,1.69-7.4,4.9,1.79c2.8-10.81,11.15-9.37,14.62.11l7.5-3.98-1.61-5.31c8.5-2.49,3.84,8,10.14,7.38l1.91-9.04,8.29-.21c1.18,8.47-2.39,13.19-7.5,18.65l-7.75,18.35,10.14-5.54c.61,4.85.16,4.71-3.37,6.47l12.72,10.17.84-7.37,5.92,5.56c2.3-.24-2.17-3.87,4.24-5.57,1.51-.4.15-.4,1.69,0,4.87,1.26,6.12,1.39,10.15,5.55l-3.37-9.23h5.09s0,7.39,0,7.39l5.06-1.86v11.1c-5.22-1.71-9.32.88-13.53-3.7l-.03,5.58c-4.77-3.29-8.37-1.29-13.3-.19l-2.79-5.38-4.22,3.68c4.69-9.89-5.03-1.33-7.64-11.09l-4.22,2.79,5.09,1.86-4.26,6.45.02-5.51-14.41,5.5c5.14,1.74,11.08-2.24,12.87,3.72l4.05-1.87,5.95,14.82c7.57,2.22.94-6.67,7.61-5.55l.83,5.52,3.28-1.89,1.01,3.75,3.36.02c-3.38-6.52.23-8.9,2.78-1.76l9.07-1.92-6.76,3.71,3.42,7.37,1.67-5.55c3.13-.7,3.28.16,5.08,1.87,1.19,1.13,1.68,1.91,1.69,3.7,4.17.76,2.87-.04,3.36-2.83,1.03-5.76.54-11.76.04-17.52,2.89-.38,1.43,4.16,4.37,5.25,3.48,1.28,14.3-4.79,19.3,4.92l-9.81,3.12-.32,7.04h-5.09s1.68-7.38,1.68-7.38c-4.31,2.59-9.63,2.7-8.46,9.25,4.91.73,8.96-.41,13.56,3.7l.02-7.4c4.66,3.06,8.38,3.07,13.54,1.83,1.52-4.5-6.07-9-1.71-12.06l13.55.96-6.61-3.87.69-5.36c2.16,7.02,5.38,4.24,7.98,5.69,2.1,1.17.74,4.66,4.55,1.93l1.88,5.31-12.54,2.01c-1.12-6.75-5.36-1.93-3.34-.11,5.68,5.13,7.38,5.71,1.49,13.03-1.2,1.49-3.78,1.3-4.25,1.74-.27.25.23,2.66,0,3.69-3.53.51-3.85.17-3.37-3.69h3.38s-.01-1.84-.01-1.84c-2.61,1.29-4.62-1.73-5.07-1.87h3.38s0-3.69,0-3.69h-3.37s0,3.69,0,3.69c-1.77-.54-4.23.08-6.02-1.67l-1.6,3.15-2.54-1.48c1.26,5.22-6.64,4.34-10.17,3.7-.51,1.67-2.34,3.01-1.69,5.54l5.06-3.68.03,5.53,2.67-3.71,14.24,3.7-23.74,4.62c-2.06,1.19-.12,4.67.59,6.52.24.63-2.07,2.66,1.78,1.64,6.08-1.61,19.64-9.32,25.32-13.09,39.77-26.41,64.49-76.93,70.42-126.67,1.11-9.32,3.73-61.05,1.06-65.57-1.21-2.04-11.57-4.01,2.54-7.34l-5.09-10.27,5.09-4.56-3.41-6.42,3.4-2.78-5.09-.96,5.07-3.67-5.05-2.83,3.49-8.18c-5.55-129.42,7.08-265.67-.11-394.3-3.85-68.9-28.12-132.19-86.33-164.81-10.96-6.14-41.89-17.5-53.45-17.5h-48.29l1.68,14.81c-5.18-2.58-5.3-9.54-5.08-14.8-43.17,5.24-87.03,29.86-111.7,69.58l3.26,8.14-3.39-3.69c-2.48-1.7-12.39,20.53-13.2,23.53-.48,1.77-1.36,4.74,1.33,4.22,2.3-7.16,9.19-6.94,6.8-16.65l9.98.12c-.82,6.17,4.45,6.62,6.02,9.26,1.35,2.27.6,5.61,2.62,8.23,3.96,5.15,8.45,1.25,5.06-5.53,6.62-6.71,11.97,16.67,5.99,13.83-1.65-.78-2.64-4.78-5.94-3.69l-3.5,12.85c-9.75-.13-13.37-10.55-11.77-20.25-3.17-3.91-8.57,13.65-10.12,15.74l8.38-2.77c11.18,14.21-6.34,15.05-6.75,25.14-.23,5.67,3.99,6.21,4.81,9.46.31,1.21,0,17.81-.54,19.04-1.07,2.41-4.17,4.29-6.64,3.85l-3.53-5.66-5.06,7.35-2.59-7.39-5.88,3.69-4.24-7.38c-4.65,38.21-3.14,76.91-3.52,115.46l6.86,3.9c-1.15,3.14-4.41.96-4.76,1.32-5.42,5.55.27,90.65-1.84,105.9,4.86,8.08,11.23-8.26,15.04-4.47-.23,5.61,1.53,7.76,6.83,7.39l-5.07,1.85,3.37,7.38-6.73-9.24c.47,4.88-4.55,4.3-7.87,5.56l-5.72-3.71,5.05,17.59-5.04-.96-.02,87c4.47-.58,7.73.18,11.87,1.84l.84-3.69ZM696.22,144.87c-7.97.29-3.92,10.87,1.7,11.1l-1.7-11.1ZM750.44,144.87c-1.43-1.08-6.07.34-6.69,2.95-.83,3.5,2.54,6.58,2.96,9.49,3.25,22.76,11.2,27.79,21.37,46.98,1.79,3.39,2,7.26,3.74,10.73,1.14,2.27,4.23,8.63,7.44,7.57.45-25.4-25.12-39.91-28.38-64.31-.34-2.57,1.99-11.57-.44-13.4ZM721.66,150.4l-3.37-3.68v3.69s3.37,0,3.37,0ZM738.6,159.65l-3.37-3.68v3.69s3.37,0,3.37,0ZM780.95,165.21v-3.68h-1.66v3.68h1.66ZM802.15,163.37v1.85c1.1-.62,1.1-1.23,0-1.85ZM823.31,233.7c1.09-6.06-1.27-11.74-1.53-17.38-.31-6.86.86-17.07-.11-24.16-.6-4.41-5.77-6.87-6.57-11.65-.91-5.44,4.27-11.16-1.1-15.25l-.85,11.05-6.79.02-.02,2.77c4.21,4.93,1.27,11.19,2,14.43.22.99,6.15,12.79,6.4,13.74,2.11,7.93,1.33,20.35,8.56,26.42ZM770.78,174.48c.45-3.45.01-6.41-3.35-7.4-.45,3.45-.01,6.41,3.35,7.4ZM780.96,174.47l-.83-5.53-2.53,2.79v2.74s3.36,0,3.36,0ZM796.21,168.93c-5.2-.5-5.5,4.66-5.07,9.24,5.2.5,5.5-4.66,5.07-9.24ZM684.37,170.79h-3.37v1.81h3.37v-1.81ZM658.95,178.17v-3.68h-1.66v3.68h1.66ZM701.31,181.87v-3.68h-1.66v3.68h1.66ZM727.59,178.18v1.85c1.1-.62,1.1-1.23,0-1.85ZM826.71,178.19h-3.37v5.53h3.37v-5.53ZM772.48,180.04c-3.2-.59-5.62,2.16-5.07,5.53h5.07s0-5.53,0-5.53ZM662.34,185.59h-3.38s1.71,5.53,1.71,5.53h1.66s0-5.53,0-5.53ZM830.1,189.29h-3.37v7.38h3.37v-7.38ZM838.59,205.94c3.89-.49,5.79-16.74,2.52-16.62-3.61.13-2.51,13.59-2.52,16.62ZM650.48,191.14h-3.37v5.53h3.37v-5.53ZM672.54,196.69l3.34-2.78-2.52-2.77-.82,5.54ZM731.8,191.14c-4.3-.72-2.63.34-3.52,2.6-3.46,8.74,1.18,5.7,1.75,7.83.22.84-1.07,3.03-.6,4.49,1.85,5.79,3.9,13.71,9.16,16.54l-6.79-31.46ZM621.68,192.99h-3.37s0,5.54,0,5.54l3.36-2.8v-2.74ZM629.31,192.98v1.85c1.1-.62,1.1-1.23,0-1.85ZM801.29,194.85h-3.38s2.55,3.68,2.55,3.68l.83-3.68ZM789.45,196.7c-.97,1.06,1.41,5.51,2.53,5.51,4.69,0,.03-8.3-2.53-5.51ZM611.11,200.85c-6.28-7.8-9.42,9.86-3.81,12.48,5.75,2.68,7.19-8.29,3.81-12.48ZM665.73,202.23l-.83-3.68-2.55,3.67h3.38ZM677.59,200.4h-3.38s2.55,3.68,2.55,3.68l.83-3.68ZM745.38,200.41l-5.07.9,2.53,2.75,2.54-3.65ZM831.8,209.62c-1.37-3.3.79-8.23-3.37-9.23v9.24s3.37,0,3.37,0ZM623.37,204.1h-3.37v7.38h3.37v-7.38ZM708.1,204.1h-5.07c.03,6.79,5.04,6.79,5.07,0ZM800.45,204.09v1.85c1.1-.62,1.1-1.23,0-1.85ZM653.87,207.8h-3.38s2.55,3.68,2.55,3.68l.83-3.68ZM763.17,207.79v1.85c1.1-.62,1.1-1.23,0-1.85ZM857.22,226.3c-1.06-6.63-1.3-13.21-5.93-18.47-6.27,6.48-.4,16.07,3.4,22.17,1.45.79-.13-3.05,2.53-3.7.27,1.69-.2,3.76.02,5.54l3.37-5.52c-1.1.07-2.43-.25-3.39-.02ZM672.54,242.95c4.97-1.66,1.93-2.93,1.72-4.58-1.01-8.2-2.9-23.65-8.5-28.73l6.78,33.31ZM694.55,209.66l-5.07.9,2.53,2.75,2.54-3.65ZM801.29,209.65h-3.37v3.68h3.37v-3.68ZM835.17,213.33v-3.68h-1.66v3.68h1.66ZM792.82,215.18l-.83-3.68-2.55,3.67h3.38ZM862.29,211.5h-5.07c.03,6.79,5.04,6.79,5.07,0ZM657.25,213.35l-6.72,4.64,6.73,3.71-5.05.9-.06,4.64,3.26,1.74-1.51,4.71,4.33-1.68c1.06-.08-.06,4.96,3.26,3.52,6.1-2.64-4.44-17.21-4.23-22.19ZM717.42,213.34v1.85c1.1-.62,1.1-1.23,0-1.85ZM686.08,215.21h-5.07s0,3.67,0,3.67h2.51s2.57-3.67,2.57-3.67ZM762.31,218.89v-3.68h-1.66v3.68h1.66ZM614.9,222.59c.55-3.37-1.87-6.12-5.07-5.53v5.53s5.07,0,5.07,0ZM806.38,220.73l-3.37-3.68v3.69s3.37,0,3.37,0ZM836.87,217.05h-3.37v11.09h3.37v-11.09ZM595.42,218.9v1.85c1.1-.62,1.1-1.23,0-1.85ZM799.6,218.91h-3.37v3.68h3.37v-3.68ZM708.95,220.78l-2.51,2.74,2.51,2.74,2.51-2.74-2.51-2.74ZM694.54,222.62h-3.37v1.81h3.37v-1.81ZM791.12,222.62h-3.37v1.81h3.37v-1.81ZM777.56,230c1.13-2.32-2.71-6.45-3.36-5.55-1.13,2.32,2.71,6.45,3.36,5.55ZM786.03,228.14v-3.68h-1.66v3.68h1.66ZM741.98,226.31h-3.37v5.53h3.37v-5.53ZM755.53,229.99v-3.68h-1.66v3.68h1.66ZM830.1,226.31h-3.37v9.23h3.37v-9.23ZM863.15,228.15v1.85c1.1-.62,1.1-1.23,0-1.85ZM713.18,230.01h-3.37v3.68h3.37v-3.68ZM794.51,235.54l-.83-5.53-2.53,2.79v2.74s3.36,0,3.36,0ZM638.62,233.7l-8.45-1.84,6.09,5.3,2.36-3.46ZM872.46,242.96c.09-4.2.92-8.44-2.53-11.07-3.45,2.62-2.62,6.87-2.53,11.07h5.07ZM774.18,235.57h-3.37v1.81h3.37v-1.81ZM778.42,235.55v1.85c1.1-.62,1.1-1.23,0-1.85ZM784.34,239.24v-3.68h-1.66v3.68h1.66ZM789.43,235.57h-3.37v1.81h3.37v-1.81ZM804.68,235.56h-2.51s-2.57,3.67-2.57,3.67h5.07s0-3.67,0-3.67ZM660.67,242.95c.97,1.06,5.04-1.54,5.04-2.77,0-5.12-7.6-.03-5.04,2.77ZM743.68,237.41h-3.37s0,2.74,0,2.74l2.53,2.79.83-5.53ZM642,255.91c-.08-4.91-.43-14.83-6.75-14.8l6.75,14.8ZM792.82,241.11h-5.07v3.68h5.07v-3.68ZM784.34,242.97h-3.38s2.55,3.68,2.55,3.68l.83-3.68ZM675.06,246.66v1.85c1.1-.62,1.1-1.23,0-1.85ZM804.68,246.67h-3.37v3.68h3.37v-3.68ZM872.46,250.34l-3.37-3.68v3.69s3.37,0,3.37,0ZM775.03,250.36v1.85c1.1-.62,1.1-1.23,0-1.85ZM784.35,250.38h-3.38s0,3.68,0,3.68l3.37-3.68ZM718.27,252.23h-5.07s0,3.67,0,3.67h2.51s2.57-3.67,2.57-3.67ZM743.67,257.75v-5.53h-1.66v5.53h1.66ZM621.68,254.07h-3.37v5.53h3.37v-5.53ZM679.28,254.06l-5.08,6.44,7.63,21.28c3.78-2.8,1.91-3.67,1.33-6.95-1.3-7.43-6.99-13.07-3.89-20.78ZM825,261.46l-.82-5.54-2.52,2.77,3.34,2.78ZM633.53,257.77c-4.15-3.63-8.91,14.69-4.21,16.64.98-4.44,9.02-12.43,4.21-16.64ZM801.31,270.69c4.41,1.99,15.36,4.29,13.31-4.3-4.2-8.72-14.09-5.36-13.31,4.3ZM653.87,263.32c-2.69-2.94-7.75,2.6-5.07,5.53,2.69,2.94,7.75-2.6,5.07-5.53ZM838.57,265.17c-10.47-1.96-2.11,8.02,0,5.53v-5.53ZM606.98,271.96c-1.22-.97-1.45-4.2-3.3-4.79l-7.15,1.98c-.86,5.1-1.38,13.11,4.79,12.66l2.65-5.35,6.67,1.67,1.76-3.73c-1.36-1.71-3.88-1.21-5.42-2.43ZM845.35,268.88h-3.37v7.38h3.37v-7.38ZM637.78,270.72v1.85c1.1-.62,1.1-1.23,0-1.85ZM633.53,279.96v-3.68h-1.66v3.68h1.66ZM611.51,281.81c-11.3-3.77-1.76,17.44,2.49,16.77,7.72-2.92,10.98-11,3.42-16.74l-5.89,5.53-.02-5.56ZM672.51,281.83h-2.51s-2.57,3.67-2.57,3.67h5.07s0-3.67,0-3.67ZM636.93,283.69h-3.37v1.81h3.37v-1.81ZM664.04,285.53h-5.07v3.68h5.07v-3.68ZM643.7,287.38c-4.5,2.5-8.81-1.1-11.81,4.63-.28,4.58,13.45.92,11.81-4.63ZM650.48,287.39h-3.37v1.81h3.37v-1.81ZM663.2,292.93v1.85c1.1-.62,1.1-1.23,0-1.85ZM881.78,292.93v1.85c1.1-.62,1.1-1.23,0-1.85ZM608.12,296.64h-6.76v3.68h6.76v-3.68ZM840.25,304.02v-5.53h-1.66v5.53h1.66ZM663.2,300.33v1.85c1.1-.62,1.1-1.23,0-1.85ZM857.21,300.34c-.97-1.06-5.04,1.54-5.04,2.77,0,5.12,7.6.03,5.04-2.77ZM657.26,361.39c-1.59-7.67-5.5-51.02-14.39-51.77-3.61-.31-1.11,5.25-.93,6.5,1.2,8.35,1.88,19.37,6.87,25.87l-3.38.91-.02,3.68c5.93-1.74,6.32,5.36,8.29,10.47,1,2.59-1.58,5.38,3.56,4.34ZM630.89,325.11c-6.91,12.59,9.57,8.97,9.4,5.76l-5.07-13.87c-3.08-.32-1.01,3.99-2.15,6.94-.22.57-1.9.66-2.18,1.18ZM592.87,320.7h-3.37v3.68h3.37v-3.68ZM854.67,322.54v1.85c1.1-.62,1.1-1.23,0-1.85ZM575.93,326.25l-5.07.91,2.56,2.77h2.51s0-3.67,0-3.67ZM595.42,328.09v1.85c1.1-.62,1.1-1.23,0-1.85ZM616.59,333.63v-2.74s-3.36-2.8-3.36-2.8v5.54s3.36,0,3.36,0ZM587.78,331.79h-3.36c-.28,3.63-.44,6.97,2.56,9.24h2.51s-1.71-9.24-1.71-9.24ZM642.01,335.5h-5.07s0,7.38,0,7.38h2.51c2.66-1.96,2.95-3.97,2.56-7.38ZM633.54,341.06h-3.37v3.68h3.37v-3.68ZM840.25,344.74v-3.68h-1.66v3.68h1.66ZM581,346.59v-3.68h-1.66v3.68h1.66ZM597.96,342.91c-3.16-.48-5.86,0-6.77,3.67h6.77s0-3.67,0-3.67ZM619.14,344.75v1.85c1.1-.62,1.1-1.23,0-1.85ZM600.51,352.15v1.85c1.1-.62,1.1-1.23,0-1.85ZM589,356.41c-.55-.64-4.42-2.63-4.57-2.4-3.86,27.05,16.43,16.17,4.57,2.4ZM597.96,359.54v-2.74s-3.36-2.8-3.36-2.8v5.54s3.36,0,3.36,0ZM861.45,354v1.85c1.1-.62,1.1-1.23,0-1.85ZM858.9,361.42h-3.37v1.81h3.37v-1.81ZM625.06,366.95v-3.68h-1.66v3.68h1.66ZM597.12,370.66v1.85c1.1-.62,1.1-1.23,0-1.85ZM658.95,379.91l1.68-4.63-3.33-2.77-1.68,4.63,3.33,2.77ZM581.01,379.9v-2.74s-3.36-2.8-3.36-2.8v5.54s3.36,0,3.36,0ZM631.84,385.46c1.05-1.23-.79-7.34-2.53-7.36-5.05-.05-.47,10.88,2.53,7.36ZM645.4,379.92h-3.37v3.68h3.37v-3.68ZM569.15,389.18h-3.38s2.55,3.68,2.55,3.68l.83-3.68ZM581.01,394.71c.97-1.06-1.41-5.51-2.53-5.51-4.69,0-.03,8.3,2.53,5.51ZM631.84,392.86v-3.68h-1.66v3.68h1.66ZM587.79,391.03h-3.37v3.68h3.37v-3.68ZM603.89,394.72v1.85c1.1-.62,1.1-1.23,0-1.85ZM631.01,396.57v1.85c1.1-.62,1.1-1.23,0-1.85ZM643.75,411.36c8.9.57,4.88-16.12-.85-14.78-5.68,1.33-.35,11.55.85,14.78ZM587.81,403.97c.64.9,4.49-3.23,3.36-5.55-.64-.9-4.49,3.23-3.36,5.55ZM608.15,398.43v2.74s2.54,2.77,2.54,2.77l-.88-5.51h-1.66ZM620.84,400.27v1.85c1.1-.62,1.1-1.23,0-1.85ZM596.27,402.14l-8.4,6.37,5,12.11c-7.9-.66-4.47-10.87-13.53-11.09-.13,9.14,5.23,16.48,12.72,19.91,12.32-7.17,3.27-16.57,4.21-27.29ZM604.6,402.3l-3.24.74,3.37,6.48-5.06-.93,9.31,12c10.87-12.3,5.3-8.86-3.53-15.51-.88-.66-.67-2.65-.84-2.78ZM623.38,407.65l-3.37-3.68v3.69s3.37,0,3.37,0ZM631.86,403.98c-.21,3.87-.65,6.93,2.53,9.21,6.26-4.89,5.22-9.71-2.53-9.21ZM619.98,413.22c1.13-2.32-2.71-6.45-3.36-5.55-1.13,2.32,2.71,6.45,3.36,5.55ZM603.04,413.24h-3.38s2.55,3.68,2.55,3.68l.83-3.68ZM653.87,413.22c-7.51-1.62-1.61,10.19,1.71,7.39l-1.71-7.39ZM638.62,422.47c.4-3.41.1-5.43-2.56-7.38h-2.51s0,7.38,0,7.38h5.07ZM825.87,416.93v1.85c1.1-.62,1.1-1.23,0-1.85ZM838.56,420.62v-3.68h-1.66v3.68h1.66ZM614.9,422.49h-3.37s1.71,7.38,1.71,7.38h1.66s0-7.38,0-7.38ZM562.39,429.87c.97,1.06,5.04-1.54,5.04-2.77,0-5.12-7.6-.03-5.04,2.77ZM584.4,428.04h-5.07s0,1.82,0,1.82l5.05,1.87v-3.69ZM589.47,433.57v-3.68h-1.66v3.68h1.66ZM611.51,429.89h-3.38s2.55,3.68,2.55,3.68l.83-3.68ZM637.78,429.88v1.85c1.1-.62,1.1-1.23,0-1.85ZM594.57,431.74h-3.37s0,2.74,0,2.74l2.53,2.79.83-5.53ZM619.98,431.74h-3.37v3.68h3.37v-3.68ZM645.44,439.1c3.07.53,4.93.08,6.71-2.74-2.08-3.48-4.89-2.98-8.44-2.76l1.73,5.5ZM841.12,433.58v1.85c1.1-.62,1.1-1.23,0-1.85ZM628.45,439.13v-3.68h-1.66v3.68h1.66ZM612.37,437.29v1.85c1.1-.62,1.1-1.23,0-1.85ZM842.81,437.29v1.85c1.1-.62,1.1-1.23,0-1.85ZM621.68,439.15h-3.37v3.68h3.37v-3.68ZM847.9,439.14v1.85c1.1-.62,1.1-1.23,0-1.85ZM640.35,453.93c4.18,3.33,13.39-8.05,3.93-10.81-7.46-2.18-5.59,9.49-3.93,10.81ZM855.5,463.2l-1.51-15.91-12.02-2.58,4.83,2.05c1.9,7.25,1.48,9.31-3.14,14.57l11.84,1.87ZM875.84,450.23v-3.68h-1.66v3.68h1.66ZM574.23,452.1c-.24-.32-6.65-2.96-7.64-.02l.89,7.41c1.83-.43,8.8-4.64,6.75-7.39ZM614.89,453.93v-3.68h-1.66v3.68h1.66ZM625.92,450.24v1.85c1.1-.62,1.1-1.23,0-1.85ZM835.17,455.78v-3.68h-1.66v3.68h1.66ZM631.84,457.65l-4.24-3.69-2.53,5.56-8.44-3.72c-.82,6.84,4.95,5.32,6.41,6.23.6.37.15,2.83.37,2.98,3.84,2.66,2.3-6.17,8.51-2.64l1.64-7.46-1.71,2.74ZM655.57,453.95c-2.69-2.94-7.75,2.6-5.07,5.53s7.75-2.6,5.07-5.53ZM872.45,459.49v-3.68h-1.66v3.68h1.66ZM876.7,455.79v1.85c1.1-.62,1.1-1.23,0-1.85ZM876.7,463.2v1.85c1.1-.62,1.1-1.23,0-1.85ZM635.23,468.74v-3.69s-3.37,2.78-3.37,2.78l3.37.91ZM883.48,465.05v1.85c1.1-.62,1.1-1.23,0-1.85ZM643.71,472.45c-.32.54-9.01-.67,1.68,7.41.33-1.5-.42-4.89.02-5.56.24-.37,3.24.94,3.4-.9l-5.08-6.49c-.32,1.52.42,4.81-.02,5.54ZM579.32,481.69c-.39-5.77-4.33-12.21-10.15-11.09l.28,7.11,9.87,3.98ZM625.92,470.6v1.85c1.1-.62,1.1-1.23,0-1.85ZM594.1,474.8c-1.27-1.11-9.21-2.91-9.69-2.34l-.02,5.53,11.86,3.7c.72-.81-1.1-5.97-2.16-6.89ZM638.62,474.32l-6.76-1.86v5.54s6.76-1.87,6.76-1.87v-1.81ZM652.17,502.05c1.46-2.59-4.86-24.94-8.45-20.34l1.72,14.74c7.54-1.75,2.98,3.67,6.73,5.6ZM636.57,487.79c-1.76-1.27-6.02-1.4-4.7,2.21l3.47,8.27c8.68,1.45,6.72-6.54,1.22-10.48ZM824.17,492.81v1.85c1.1-.62,1.1-1.23,0-1.85ZM815.7,500.21v1.85c1.1-.62,1.1-1.23,0-1.85ZM630.15,503.92h-3.38s1.71,5.53,1.71,5.53h1.66s0-5.53,0-5.53ZM658.95,503.91c-5.43-6.52-1.44,17.4,3.39,16.66l-3.39-16.66ZM624.23,509.47v1.85c1.1-.62,1.1-1.23,0-1.85ZM819.93,509.46c-4.14-5.73-4.93,12.5.86,14.8-.28-6.8,10.85,1.17,9.3-6.44-.66-3.25-6.69-5.4-9.32-2.84l-.84-5.51ZM562.4,516.91l4.2,3.66,4.21-6.49-5.03-2.76-3.38,5.59ZM823.32,529.83h-3.37s0,2.74,0,2.74l2.53,2.79.83-5.53ZM570.68,537.37l-6.59-.13c3.7,6.02,8.87,3.87,5.09,12.94,5.78-2.29,1.9-8.64,1.51-12.81ZM847.04,539.09h-6.76s0,1.82,0,1.82l6.75,1.87v-3.69ZM824.17,540.93v1.85c1.1-.62,1.1-1.23,0-1.85ZM581.87,542.78v1.85c1.1-.62,1.1-1.23,0-1.85ZM850.43,546.5h-6.76v1.81h6.76v-1.81ZM860.6,546.49c-2.69-2.94-7.75,2.6-5.07,5.53,2.69,2.94,7.75-2.6,5.07-5.53ZM574.24,552.05h-3.38s0,3.68,0,3.68l3.37-3.68ZM574.23,557.6h-3.37v1.81h3.37v-1.81ZM577.61,566.84c1.13-2.32-2.71-6.45-3.36-5.55-1.13,2.32,2.71,6.45,3.36,5.55ZM582.7,577.96c-1.36-1.11-4.06.97-4.86,2.72,2.44,5.13,2.48,13.56,9.95,12.06.9-3.87-2.98-4.84-3.99-7.37-.67-1.67-.68-7.08-1.1-7.42ZM818.23,583.49v-3.68h-1.66v3.68h1.66ZM863.99,581.66h-3.38s0,3.68,0,3.68l3.37-3.68ZM869.07,583.51l-3.37.91,3.36,2.78v-3.69ZM567.48,598.3c6.25-3.52,5.77-10.43-1.7-11.09l1.7,11.09ZM817.4,590.9v1.85c1.1-.62,1.1-1.23,0-1.85ZM833.48,594.59v-3.68h-1.66v3.68h1.66ZM882.65,598.3l3.36-2.8-2.54-4.59-.82,7.39ZM570.01,602v1.85c1.1-.62,1.1-1.23,0-1.85ZM836.03,602v1.85c1.1-.62,1.1-1.23,0-1.85ZM581.01,603.87h-3.37v1.81h3.37v-1.81ZM589.48,603.86h-6.76s.12,5.39.12,5.39l6.63,2.01v-7.39ZM795.37,603.85v1.85c1.1-.62,1.1-1.23,0-1.85ZM806.36,631.61c3.19-3.48,7.55-25.57.71-27.62-4.81-1.44-9.15,10.71-8.79,13.36.09.68,4.35,10.51,5.25,12.48.44.97-.91,5.86,2.83,1.78ZM570.01,607.56v1.85c1.1-.62,1.1-1.23,0-1.85ZM579.32,607.57h-3.37v3.68h3.37v-3.68ZM600.93,620.97c-3.09-2.29-9.53-2.14-11.4,2.32l13.52,2.76c.2-.17-1.91-4.92-2.12-5.07ZM823.32,624.2v-3.69s-3.37,2.78-3.37,2.78l3.37.91ZM839.42,620.51v1.85c1.1-.62,1.1-1.23,0-1.85ZM581.87,622.36v1.85c1.1-.62,1.1-1.23,0-1.85ZM602.2,627.91v1.85c1.1-.62,1.1-1.23,0-1.85ZM797.89,633.46v-3.68h-1.66v3.68h1.66ZM843.64,637.16v-3.68h-1.66v3.68h1.66ZM798.76,635.32v1.85c1.1-.62,1.1-1.23,0-1.85ZM807.23,637.17v1.85c1.1-.62,1.1-1.23,0-1.85ZM582.71,639.04h-5.07v1.81h5.07v-1.81ZM801.28,644.56v-3.68h-1.66v3.68h1.66ZM811.46,640.88l-5.07.91,2.56,2.77h2.51s0-3.67,0-3.67ZM819.93,646.41c2.22-2.26-4.43-7.9-6.76-5.53-2.22,2.26,4.43,7.9,6.76,5.53ZM592.88,651.96l-3.37-3.68v3.69s3.37,0,3.37,0ZM572.56,650.13c-.97,1.06,1.41,5.51,2.53,5.51,4.69,0,.03-8.3-2.53-5.51ZM811.46,651.99h-3.38s0,3.68,0,3.68l3.37-3.68ZM600.51,655.68v1.85c1.1-.62,1.1-1.23,0-1.85ZM804.69,655.69h-3.38s0,3.68,0,3.68l3.37-3.68ZM597.12,659.38v1.85c1.1-.62,1.1-1.23,0-1.85ZM817.4,659.38v1.85c1.1-.62,1.1-1.23,0-1.85ZM849.59,659.38v1.85c1.1-.62,1.1-1.23,0-1.85ZM808.92,663.08v1.85c1.1-.62,1.1-1.23,0-1.85ZM850.42,672.32v-3.68h-1.66v3.68h1.66ZM824.17,670.48v1.85c1.1-.62,1.1-1.23,0-1.85ZM608.13,677.9c-6.07,2.66-9.28-2.36-15.25-1.85,2.45,5.01,13.01,8.46,15.25,1.85ZM801.28,685.28v-3.68h-1.66v3.68h1.66ZM826.7,685.28v-3.68h-1.66v3.68h1.66ZM830.1,692.71h-3.37v1.81h3.37v-1.81ZM877.54,692.71h-3.37v1.81h3.37v-1.81ZM891.1,692.71h-3.38s0,3.68,0,3.68l3.37-3.68ZM804.68,696.4h-5.07v3.68h5.07v-3.68ZM816.53,701.93v-3.68h-1.66v3.68h1.66ZM869.92,701.94v1.85c1.1-.62,1.1-1.23,0-1.85ZM876.7,701.94v1.85c1.1-.62,1.1-1.23,0-1.85ZM874.14,716.74v-3.68h-1.66v3.68h1.66ZM840.26,722.31c-3.36.18-14.78-3.48-15.21,2.77-.3,4.43,20.32,1.93,15.21-2.77ZM811.46,724.18c-10.33-4.6-11.11,5.06,0,3.67v-3.67ZM823.32,727.85c1.72-1.86-3.31-7.43-5.07-5.53-1.72,1.86,3.31,7.43,5.07,5.53ZM857.21,722.31h-8.47s.02,5.54.02,5.54l8.46-1.86v-3.67ZM867.38,722.32h-3.38s0,3.68,0,3.68l3.37-3.68ZM875.85,722.32h-3.38s0,3.68,0,3.68l3.37-3.68ZM880.94,722.32h-3.38s0,3.68,0,3.68l3.37-3.68ZM886,725.99v-3.68h-1.66v3.68h1.66ZM823.33,731.58h-3.38s0,3.68,0,3.68l3.37-3.68ZM823.32,737.13h-3.37v1.81h3.37v-1.81ZM823.32,740.82h-3.37v3.68h3.37v-3.68ZM880.94,744.49l-3.37-3.68v3.69s3.37,0,3.37,0ZM813.15,742.67h-3.37v3.68h3.37v-3.68ZM832.65,742.66v1.85c1.1-.62,1.1-1.23,0-1.85ZM857.21,746.35v-3.69s-3.37,2.78-3.37,2.78l3.37.91ZM865.68,742.68h-3.37v1.81h3.37v-1.81ZM885.17,742.66v1.85c1.1-.62,1.1-1.23,0-1.85ZM857.21,750.07l-3.37.91,3.36,2.78v-3.69ZM863.98,753.76v-3.68h-1.66v3.68h1.66ZM880.93,750.08h-3.37v1.81h3.37v-1.81ZM835.62,756.98c-1.23-.85-1.4-4.03-2.99-5.05l-.85,5.56-9.35-3.66-2.46,6.41c.09,4.72,20.1,2.18,23.67,2.77.85-6.63-5.65-4.39-8.03-6.03ZM843.66,751.93h-5.07s0,3.67,0,3.67h2.51s2.57-3.67,2.57-3.67ZM885.17,751.91v1.85c1.1-.62,1.1-1.23,0-1.85ZM818.24,757.49h-6.77s0,3.67,0,3.67c3.16.48,5.86,0,6.77-3.67ZM809.76,759.33l-10.85-.04-.99,5.57c3.24-.41,5.21-1.9,8.66-2.68,1.77-.4,3.89,3.51,3.18-2.85ZM802.99,768.59c-2.48-.61-3.53.77-5.05,2.76l2.52,2.77,2.53-5.52ZM814.01,768.57v1.85c1.1-.62,1.1-1.23,0-1.85ZM825.87,768.57v1.85c1.1-.62,1.1-1.23,0-1.85ZM808.07,770.44h-3.37v1.81h3.37v-1.81ZM847.04,770.43h-3.37v3.68h3.37v-3.68ZM834.34,772.27v1.85c1.1-.62,1.1-1.23,0-1.85ZM804.68,775.99h-3.37v1.81h3.37v-1.81ZM808.92,775.97v1.85c1.1-.62,1.1-1.23,0-1.85ZM847.9,775.97v1.85c1.1-.62,1.1-1.23,0-1.85ZM882.62,775.99h-3.37v1.81h3.37v-1.81ZM838.59,794.49c-1.33-1.19.61-15.65-5.08-16.66l1.69,22.2,13.55-5.52-10.15-.02ZM804.69,788.93c.31-2.62.37-5.06,1.71-7.39l-6.79-1.86,1.69,9.23c1.12.04,2.25.02,3.38.02-.24,2-3.9,5.2,1.07,7,1.24.45,12.03.06,12.48-2.41,1.41-7.65-11.04-4.6-13.55-4.6ZM814.85,779.7h-3.37v1.81h3.37v-1.81ZM847.9,781.53v1.85c1.1-.62,1.1-1.23,0-1.85ZM873.31,783.38v1.85c1.1-.62,1.1-1.23,0-1.85ZM823.35,787.09l2.54,12.9c-.13-3.26,1.17-11.7-2.54-12.9ZM829.26,787.08v1.85c1.1-.62,1.1-1.23,0-1.85ZM871.62,787.08v1.85c1.1-.62,1.1-1.23,0-1.85ZM869.08,788.95h-3.38s-1.67,4.63-1.67,4.63l.8.87,4.25-5.5ZM792.83,792.64c-.97,1.06,1.41,5.51,2.53,5.51,4.69,0,.03-8.3-2.53-5.51ZM851.28,794.48v1.85c1.1-.62,1.1-1.23,0-1.85ZM798.26,803.31c.26-4.14-3.2-3.2-4.99-.91-3.03,3.86-.63,13.02.92,17.52,1.59,4.62,4.51,5.78,5.24,7.57,2.89,7.11,4.55,14.33,6.94,21.61l-5.05-.94,4.8,4.55-3.12,23.2c2.51.23,6.64-.78,8.62.79,2.24,1.78.04,7,3.23,6.62l.03-9.24,5.96,1.8-.02-3.75,9.29-3.59-19.5-1.71-7.6-48.26,5.1,5.53c10.01-6.09-2.28-12.98,1.67-22.2l-11.5,1.41ZM826.51,802.13l-4.62.04-1.92,6.24,4.2,2.76.86-3.73,5.05,3.7-3.58-9.01ZM847.04,803.75c-3.09-3.27-3.59,3.61-4.1,3.57-1.41-1.36-7.75-3.5-6.04,1.02,2.3,6.07,12.57-2.02,10.14-4.59ZM866.53,811.14v1.85c1.1-.62,1.1-1.23,0-1.85ZM833.47,827.79c1.09-5.91,2.95-10.11-3.35-12.94l3.35,12.94ZM841.95,820.38v-3.68h-1.66v3.68h1.66ZM879.23,822.23v-3.68h-1.66v3.68h1.66ZM824.17,820.39v1.85c1.1-.62,1.1-1.23,0-1.85ZM796.21,866.65c-9.78-13.68-4.09-30.69-12.71-44.37-5.66-.45.27,20.12.21,21.21-.1,1.91-4,4.83-2.76,8.36h5.09s-3.28,6.65-3.28,6.65l3.38,3.67-1.79,4.48h11.86ZM819.93,851.85l-.78-7.45-5.97-14.74c1.27,7.56-3.31,15,.25,21.93l6.51.26ZM835.17,835.19v-3.68h-1.66v3.68h1.66ZM846.2,838.9v1.85c1.1-.62,1.1-1.23,0-1.85ZM835.17,844.44v-3.68h-1.66v3.68h1.66ZM848.74,846.29l-3.37-3.68v3.69s3.37,0,3.37,0ZM861.45,842.6v1.85c1.1-.62,1.1-1.23,0-1.85ZM875.01,844.45v1.85c1.1-.62,1.1-1.23,0-1.85ZM841.96,850.03c-5.01-1.73-10.12-3.77-10.15,3.67,3.71.06,8.85,1.03,10.15-3.67ZM853.83,850.02c.15,4.56,9.99,3.8,10.13.91.21-4.05-8.7-.2-10.13-.91ZM877.57,855.56l3.36-2.8-2.54-4.59-.82,7.39ZM848.73,850.02h-3.37v1.81h3.37v-1.81ZM868.23,850.01v1.85c1.1-.62,1.1-1.23,0-1.85ZM873.31,850.01v1.85c1.1-.62,1.1-1.23,0-1.85ZM772.48,851.87h-3.37v1.81h3.37v-1.81ZM821.63,861.11c3.96,2.79,3.87,5.67,11.86,3.68l-.85-5.55c4.09,11.08,17.53,2.83,26.26,5.57v-7.39s-13.56,3.68-13.56,3.68c4.7-4.51-5.68-5.42-9.13-5.35-4.2.08-9.62,3.09-14.6,1.67-.13,1.2.16,2.52.01,3.7-2.25-1.58-3.84-4.2-6.77-3.69v7.38s6.77,0,6.77,0c.15-1.2-.14-2.52,0-3.7ZM863.99,857.43h-3.38s0,5.52,0,5.52h3.38v-5.52ZM772.44,864.68l-.35-4.56-6.36-.84-.02,13.92c9.69,1.33,12.34-3.44,1.71-7.47l5.02-1.05ZM875.84,866.65v-3.68h-1.66v3.68h1.66ZM797.92,868.52h-13.58s.02,5.55.02,5.55c4.17-1.37,8.61.46,12.72,1.79l.84-7.34ZM772.49,879.64c-5.47-2.18-7.21-1.5-6.77,5.52l4.85-.25,1.92-5.27ZM823.32,877.78h-3.38s2.55,3.68,2.55,3.68l.83-3.68ZM791.12,879.64h-3.37v1.81h3.37v-1.81ZM790.28,885.17v1.85c1.1-.62,1.1-1.23,0-1.85ZM792.84,890.68l11.81,2.84-1.5-5.66-2.95-2.11-7.36-.59v5.51ZM816.54,890.71c.54-2.7-.71-3.85-2.52-5.5l-4.24,1.83v1.81s6.76,1.86,6.76,1.86ZM855.36,885.33c-13.42,6.07-2.75,6.16,5.23,7.23l-5.23-7.23ZM781.81,887.02v1.85c1.1-.62,1.1-1.23,0-1.85ZM840.25,890.71v-3.68h-1.66v3.68h1.66ZM759.14,894.35l-3.57-5.47,1.5,11.77,5.26,1.17c-4.49-7.98,2.38-2.75,1.68-9.24l-4.87,1.77ZM823.32,892.56v-3.69s-3.37,2.78-3.37,2.78l3.37.91ZM776.73,890.72v1.85c1.1-.62,1.1-1.23,0-1.85ZM785.2,890.72v1.85c1.1-.62,1.1-1.23,0-1.85ZM766.56,892.57v1.85c1.1-.62,1.1-1.23,0-1.85ZM774.18,896.26l-.83-3.68-4.21,4.64,5.04-.95ZM790.28,892.57v1.85c1.1-.62,1.1-1.23,0-1.85ZM818.23,903.68l-1.7-11.09h-1.66c-.11,4.05-.94,9.66,3.35,11.09ZM796.2,898.12v-3.68h-1.66v3.68h1.66ZM780.12,896.27v1.85c1.1-.62,1.1-1.23,0-1.85ZM825.02,901.81l-1.71-5.52h-1.66s0,5.53,0,5.53h3.38ZM804.67,898.12c-6.15-1.74-.42,9.85-1.69,12.96-4.26-1.57-2.09-9.16-6.76-2.77l3.24,1.71-1.54,4.75h10.15s-3.4-16.65-3.4-16.65ZM841.12,899.98v1.85c1.1-.62,1.1-1.23,0-1.85ZM821.62,914.77c.97-1.06-1.41-5.51-2.53-5.51-4.69,0-.03,8.3,2.53,5.51ZM826.71,909.24h-3.37v5.53h3.37v-5.53ZM860.6,909.24l-6.76.91c1.83,2.85,3.64,3.22,6.76,2.78v-3.68ZM753.01,911.08v1.85c1.1-.62,1.1-1.23,0-1.85ZM755.54,914.8h-3.37v1.81h3.37v-1.81ZM845.34,918.47v-3.68h-1.66v3.68h1.66ZM821.62,918.49h-3.38s2.55,3.68,2.55,3.68l.83-3.68ZM836.03,920.33v1.85c1.1-.62,1.1-1.23,0-1.85ZM777.58,925.87h2.51s2.53-2.78,2.53-2.78l-5.04.96v1.81ZM847.05,925.9h-3.38s0,3.68,0,3.68l3.37-3.68ZM808.92,933.29v1.85c1.1-.62,1.1-1.23,0-1.85ZM814.01,935.14v1.85c1.1-.62,1.1-1.23,0-1.85ZM789.44,938.84c-.55-.1-1.14.07-1.69,0,.57.62,1.11,1.23,1.69,1.85v-1.85ZM579.36,678.81l1.66-.93-.14-7.24-20.19-.16,1.5,4.69c.09,1.11-3-.04-3.37,3.49-.34,3.26-.01,31.57.44,33.15,2.24,7.7,12.59.34,8.21-8.03l5.11,6.47c-5.01,3.85-6.13,8.38-13.6,6.5-1.14,6.25,10.14,4.34,13.55,5.56l-6.78,1.84.1,6.53-6.84.9,1.69,16.61c3.08.73,1.06-3.08,1.69-3.69s12.64,10.92,5.07-5.53c6.21,2.01,5.26-2.28,9.29-3.7l2.57,3.67-8.46,3.7,8.46.04-5.07,1.83v7.39s6.75-5.54,6.75-5.54c-5,7.72,7,5.88,2.57,13.04-1.19,1.93-7.71.98-2.5,6.34,3.75,3.86,7.4,1.42,11.8.95,1.31-5.11-2.82-2.78-3.94-5.9-1.12-3.1-1.29-6.51-1.15-9.8,10.12-4.47,6.18,10.76,7.15,14.57,1.6,6.24,15.99-2.33,21.66,1.13l-3.41-9.22-1.68,5.56c-8,2.2-14.32-11.12-6.76-13.86-2.1-1.75-8.86-17.31-2.59-15.73,6.99,1.75,2.88,4.66,3.46,8.27.63,3.94,3.35,8.97,2.53,13.9,2.53-3.79,8.17-1.42,8.39-1.85.83-1.61-1.52-6.08,1.74-5.54l3.43,12.94c4.38,2.55,2.74-6.96,6.75-3.68.89.73-5.14,6.79,1.69,5.55l1.68-5.56,5.96,16.63c2.4-5.33-4.33-14.23,2.55-15.72-6.74-3.15-7.23-12.35-8.51-19.44l-10.14,3.71-.14-9.12c-7.88-1.35-13.54-.17-17.66-9.35l-3.39,7.33c-3.16-3.31-7.14-3.38-5.95-9.23l-5.06,1.86,3.39-2.79-3.32-11.24-6.87,1.1,1.85,11.71-5.22,3.07c5.38-8.56-7.65-13.74-3.48-19.49,5.07-6.93,6.57,3.24,11.94,2.82l.02-12.93,10.14,9.25c1.69-7.74-8.51-13.8-1.71-19.45l-5.06.95c-1.2,1.21,6.95,11.47-4.99,5.44,3.6-7.46-3-5.75-5.16-12.85-.03-.1-1.67.24-1.66-.93ZM569.15,683.46h-3.37v1.81h3.37v-1.81ZM569.15,689h-3.37c-.41,3.41-.07,5.39,2.54,7.38l.83-7.38ZM571.7,690.84v1.85c1.1-.62,1.1-1.23,0-1.85ZM580.65,691.27c-1.99-1.34-8-1.87-6.4,3.27l4.97-.66,4.35,4.32c.64-1.18-2.63-6.74-2.92-6.94ZM570.84,698.25h-2.51s-2.57,3.67-2.57,3.67h5.07s0-3.67,0-3.67ZM580.17,700.09v1.85c1.1-.62,1.1-1.23,0-1.85ZM587.79,713.06h-3.38s2.55,3.68,2.55,3.68l.83-3.68ZM584.4,729.7l6.75-.91-3.37-10.17-3.38,11.09ZM577.62,727.85v-2.74s-3.36-2.8-3.36-2.8v5.54s3.36,0,3.36,0ZM613.21,737.09l-3.37-3.68v3.69s3.37,0,3.37,0ZM571.7,735.26v1.85c1.1-.62,1.1-1.23,0-1.85ZM591.18,742.65c.61-11.2-10.14-8.89-2.51,0h2.51ZM615.74,740.85c-1.67,1.29.91,2.54,1.73,3.63,1.68-1.22-.79-2.45-1.73-3.63ZM628.46,746.37h-3.35s-1.71,7.38-1.71,7.38h3.35s1.71-7.38,1.71-7.38ZM612.37,748.21v1.85c1.1-.62,1.1-1.23,0-1.85ZM581.02,679.74l3.41-.93-3.41-.93v1.85ZM659.79,600.33c-2.24-10.21-5.44-22.29-12.67-29.79,2.48,4.76.24,11.48.99,14.89.85,3.83,6.22,13.29,6.88,15.15.72,2.05,1,7.91,2.27,10.66l-13.54-5.52c-.31,3.01,3.15,1.62,4.53,4.5.92,1.91-1.32,7.43-1.16,9.19s5.38.08,3.39,4.79h-6.78s1.52-4.64,1.52-4.64l-4.7-1.12-.19-9.02c-4.97.04-3.37,6.12-10.17,3.69-.46,3.93-.14,4.04,3.39,3.71l-3.52,2.94,3.55,15.53c2.87.35,1.39-4.2,4.41-5.31,2.22-.82,5.06-.08,7.42-.25l-2.58-5.48c4.61,1.82,10.13,4.99,9.39,11.05,10.1-7.46,9.96-3.53,8.58,6.65-.49,3.64.47,2.68,3.26,2.6-.39-5.49.88-11.81-.4-17.13-.86-3.58-12.06-14.59-3-14.32l3.4,7.39v-20.35s-4.24.17-4.24.17ZM636.09,618.66v1.85c1.1-.62,1.1-1.23,0-1.85ZM655.57,626.08h-3.37v1.81h3.37v-1.81ZM589.49,821.31l-5.07,3.7,6.75,4.64.98-11.17-6.05-1.79c.45-3.31,2.96-3.08,5.07-1.85-2.48-3.7.14-14.04-.31-14.59-.53-.65-2.88.08-3.06-.21l-.84,3.69-2.55-3.67,3.39-.02c-.36-.59.5-5.17-.79-7.56l-4.28.16c-1.84-4.65,3.21-3.2,3.48-4.86,1.43-8.85-3.89-12.91-11.07-8.2-1.26.83.58,3.07-.07,3.86-1.72,2.1-6.67.73-5.94,5.47l-3.35-7.38,1.68,16.63-6.76-7.38v11.07s13.26-.36,13.26-.36l.3-5.16,5.05,3.7,1.69-3.69,6.79,12.04-5.07.92,3.38,4.62-3.4,1.84,3.41.93,3.38,4.62ZM581.87,779.68v1.85c1.1-.62,1.1-1.23,0-1.85ZM575.94,787.09l5.04.93c-7.7-6.5-13.35,1.94-10.11,10.15,5.54-1.45,4.54-10.74,5.07-11.08ZM707.32,883.07c5.93-4.36-.64-5.89-1.84-9.83-.98-3.24-.06-7.47-1.75-11.98-2.66-7.14-10.01-15.13-15.13-20.46.63,8.81,6.61,16.8,4.59,25.47l8.13,6.9-6.77,8.31,12.76,1.61ZM612.24,698.39l-6.68-3.41-3.48,3.3c-.25.58,1.07,8.59,1.37,8.91,1.68,1.76,6.54.62,6.37,4l-13.54-1.81c-.22,3.24,3.9,1.53,6.1,3.5,3.98,3.57-.16,7.73,11.7,11.26l2.48-6.49c-7.95.01-2.89-3.2-3.62-6.96-.64-3.27-5.7-4.4-4.81-8.72l11.84-.02-1.7-9.24-6.04,5.69ZM674.22,948.11l3.38,12.92-5.12-1.21-3.33-8.01c-6.98,12.79-6.09,19.6,8.44,19.43l-6.77-6.46,6.77-1.88c-1.65,7.48,4.26,7.61,8.44,2.79l-3.36-13.89-5.06,1.84,1.68-5.53h-5.08ZM670.81,962.89v-3.68h-1.66v3.68h1.66ZM657.19,745.52l-2.46-8.4c-5.72,5.76.15,1.59.83,5.52-3.35.5-7.23,1.16-6.79,5.56l-5.04-3.69,1.66,7.4-5.93-3.66,4.32,16.54,10.09.06-7.75-3.62,1.18-9.09c5.56-1.34,10.4.3,15.03,3.47l1.7-11.09-6.85,1ZM655.57,746.38h-3.38s0,3.68,0,3.68l3.37-3.68ZM659.81,748.21v1.85c1.1-.62,1.1-1.23,0-1.85ZM579.63,872.87c-3.52-6.76.23-18.76-8.76-22.86,1,16.18,8.25,31.32,13.56,46.26,6.88-3.77-.7-7.54-1.51-10.57-.99-3.7,2.1-7.88,1.28-9.46-.26-.5-3.25-.84-4.57-3.36ZM598.79,779.69l-.84,5.54-5.05.9c2.79,8.84,6.11,18.44,6.21,28.28l9.02,11.53c-1.06-3.51-2.59-8.77-3.87-11.99-.46-1.15-2.94-.87-2.95-2.01-.04-4.4,5.73-10.53-3.33-11.94l.86-3.7,5.89,1.87.03-7.39-6.79-.02,5.1-3.71-4.27-7.38ZM560.69,805.6l3.4,18.5,6.74-5.54c-.85,5.62,4.07,4.82,6.79.9l-3.49-1.96,1.8-4.49c-2.51.44-7.86,1.59-9.75-.47-1.45-1.58-.38-8.22-5.49-6.94ZM621.67,703.8c-5.56,2.85-1.86,12.09-1.16,17.03l9.64,16.27c.99-4.36-2.84-6.74-3.38-10.33-.38-2.52,1.13-5.2.87-7.26-.35-2.81-4.4-5.19-.85-10.15l-4.84-.23-.28-5.32ZM716.58,968.44l5.88-1.89,3.33-9.44c6.71-3.05,12.05,3.52,14.5-7.15-9.53,2.24-24.04,4.99-23.71,18.48ZM681.01,870.36c.98,8.63,2.5,16.11,10.13,20.35l1.56-10.99c-3.88.56-5.21-1.92-7.56-4.61-1.41-1.62-2.04-4.42-4.13-4.75ZM653.9,840.75l1.14,5.59,5.63-.03c-1.35,12.42-2.39,6.41,1.95,9.41,3.05,2.1-.17,4.49,6.5,1.68-2.41-7.83-7.81-14.8-15.22-16.64ZM586.11,843.52c3.26,5.71,8.9,9.51,5.11,16.68l3.32.91,6.8-9.22c-6.61,2.07-9.04-7.98-10.45-8.88-1.01-.64-4.54-1.25-4.77.52ZM631.85,683.46c-.55,4.56,5.01,7.8,5.1,8.32.75,4.1-2.33,1.95-3.33,4.14-1.91,4.19-2.32,10.39-5.13,14.4l3.23-.79.13,5.37h5.07s-3.48-13.73-3.48-13.73c7.85-3.27,5.12-8.21,8.46-14.99l-2.44-2.73-3.4,5.51.87-5.51h-5.09ZM757.23,944.39c-5.44,2.57-13.61,1.07-13.52,9.26,3.78-2.87,4.74-4.46,9.44-2.08,4.07,2.07,2.83,5.01,5.78,5.77l-1.7-12.95ZM675.93,846.3c-2.43,8.55,2.24,13.96,3.4,22.2l3.33-3.68-2.92-.32c.83-6.1,2.76-14.66-3.81-18.21ZM669.15,881.48c-.69,6.1-4.85,24.7,3.36,25.89l-3.36-25.89ZM731.06,970.91l-12.75,4.02c4.89,6.8,9.03-3.62,15.2.92l-2.45-4.94ZM733.54,916.64c-2.42,5.23-6.91,15.38,3.24,10.96l-3.24-10.96ZM776.75,940.7l-7.65,5.52c4.64,1.19,11.13,4.61,13.55-1.81-1.6.05-3.07.25-4.55-.65-.8-.48-.3-3.51-1.35-3.07ZM599.66,881.49c3.77,3.29,5.39,6.46,7.63,11.08l.85-11.11-8.48.03ZM758.1,959.21l-2.45,17.74,3.26,2.6-.82-20.34ZM647.12,722.31c1.14,5.41-.59,11.81,5.9,13.01,6.75-1.2.07-1.82-.21-2.46-1.59-3.7-1.56-8.92-5.7-10.55ZM576.79,244.82l-4.15,9.06,6.67,3.89-2.52-12.95ZM606.42,513.17l-1.69-14.81c-4.72-6.33-3.22,14.88,1.69,14.81ZM565.76,826.88l.02,8.31,6.77-1.86-3.42-7.37-3.37.92ZM667.45,859.26c4.16,7.81-1.85,7.79-1.7,8.32,2.07,7.32,9.06-5.85,8.47-6.45l-6.76-1.87ZM709.82,890.74l-3.4,1.83,1.7,5.53-8.32,4.61,4.89,4.66,4.26-8.94,5.93,3.37-5.06-11.07ZM614.93,589.05c-.22,4.1,1.26,9.5,5.05,11.1.59-4.88-.64-9.26-5.05-11.1ZM614.07,803.72l.84-9.23c-6.86.51-7.21,7.25-.84,9.23ZM579.29,295.72c-4.55-6.31-10.79,1.03-10.12,6.46,4.01-2.07,4.89-7.13,10.12-6.46ZM597.12,515.03c-2.05,2.4-4.92,3.87-4.23,7.39h5.05s-.82-7.39-.82-7.39ZM618.93,787.31l-5.7,1.65v1.81s8.44,1.87,8.44,1.87c.49-2.62-.56-4.18-2.74-5.32ZM731.84,872.21v9.24s3.37,0,3.37,0c-1.37-3.3.79-8.23-3.37-9.23ZM613.22,781.51c3.66,3.1,9.2-1.2,6.77-3.67-1.22-1.24-6.74.53-6.77,3.67ZM574.22,805.59l-5.06,1.87v3.67s5.07,0,5.07,0v-5.54ZM716.59,872.21v7.39s3.36,0,3.36,0c.44-3.45,0-6.4-3.36-7.39ZM625.04,767.66l-6.73-4.65-.88,11.07,2.68-7.33,4.93.91ZM714.04,877.78c-2.61,2-2.95,3.97-2.54,7.38h3.37s-.83-7.38-.83-7.38ZM726.73,883.31v-5.53c-6.21.03-6.21,5.5,0,5.53ZM630.17,940.7c-.41,3.41-.07,5.39,2.54,7.38l.83-7.38h-3.37ZM636.94,727.85c3,5.35,5.75,5.82,5.13-.94l-3.43-.91c-.48.48-1.61,1.94-1.69,1.85ZM638.62,722.3l-3.25,4.44c.07.76,1.38.78,1.57,1.11-.08-.09,1.25-1.33,1.69-1.85v-3.7ZM664.03,576.09l-6.77,1.87.02,3.68,6.77-1.87-.02-3.68ZM606.45,827.81v5.53h3.37v-5.53h-3.37ZM567.48,772.25l5.94,3.73c.72-5.44,5.41-1.84,5.9-5.54l-11.84,1.81ZM596.24,867.59l-5.03-4.63,1.7,7.4,3.34-2.77ZM597.12,524.31l-2.53,2.75,5.06,2.77c.56-2.71-.71-3.86-2.52-5.51ZM598.19,534.26l4.85,6.65-1.71-9.24-3.14,2.59ZM787.74,946.26l5.07,5.53c.57-3.38-1.86-6.14-5.07-5.53ZM656.43,670.49l-4.24,1.86v3.68s5.08-1.87,5.08-1.87l-.83-3.67ZM664.03,646.43h-1.66v9.24h1.66v-9.24ZM597.97,714.91v2.74s2.54,2.79,2.54,2.79l.83-5.53h-3.37ZM575.11,757.52l-4.24,1.82v1.81s6.77,0,6.77,0l-2.52-3.63ZM650.5,824.1v7.38s1.67,0,1.67,0l1.71-7.37h-3.38ZM601.37,450.24c-1.13,2.32,2.71,6.45,3.36,5.55,1.13-2.32-2.71-6.45-3.36-5.55ZM616.61,827.81v3.68h3.37v-3.68h-3.37ZM599.68,570.54c-1.13,2.32,2.71,6.45,3.36,5.55,1.13-2.32-2.71-6.45-3.36-5.55ZM674.21,837.07l1.71,5.52h1.66s0-5.53,0-5.53h-3.38ZM642.02,642.74c-.82.7,2.96,4.9,5.08,3.67.82-.7-2.96-4.9-5.08-3.67ZM633.56,670.5v1.81s5.06,1.87,5.06,1.87v-3.69s-5.06,0-5.06,0ZM626.78,663.09v3.68h3.37v-3.68h-3.37ZM672.53,942.55v3.69s3.38-3.68,3.38-3.68h-3.38ZM630.18,716.75v3.69s3.37,0,3.37,0l-3.37-3.68ZM670.84,922.19v3.69s3.37,0,3.37,0l-3.37-3.68ZM559,781.54v3.69s3.38-3.68,3.38-3.68h-3.38ZM650.51,903.68v3.69s3.37,0,3.37,0l-3.37-3.68ZM643.73,661.23v3.69s3.37,0,3.37,0l-3.37-3.68ZM630.14,640.87l-3.36,2.78,3.37.91v-3.69ZM640.34,555.73v3.69s3.37,0,3.37,0l-3.37-3.68ZM574.24,840.77l2.55,3.67.83-3.68h-3.38ZM648.81,539.09v3.69s3.38-3.68,3.38-3.68h-3.38ZM625.09,533.53v3.69s3.37,0,3.37,0l-3.37-3.68ZM645.42,529.83v3.69s3.38-3.68,3.38-3.68h-3.38ZM657.25,526.13h-1.66v5.53h1.66v-5.53ZM643.72,516.88v3.69s3.38-3.68,3.38-3.68h-3.38ZM631.84,859.27h-1.66v5.53h1.66v-5.53ZM642,875.93h-1.66v3.68h1.66v-3.68ZM647.11,520.59v1.81h3.37v-1.81h-3.37ZM664.03,537.24h-1.66v3.68h1.66v-3.68ZM636.92,542.79h-1.66v3.68h1.66v-3.68ZM603.03,544.64h-1.66v3.68h1.66v-3.68ZM611.53,883.34v1.81h3.37v-1.81h-3.37ZM653.86,835.21h-1.66v3.68h1.66v-3.68ZM647.09,565h-1.66v3.68h1.66v-3.68ZM606.42,579.8h-1.66v3.68h1.66v-3.68ZM643.73,583.51c-.39,2.26,2.48,9.47,3.36,7.38.39-2.26-2.48-9.47-3.36-7.38ZM608.11,585.36h-1.66v3.68h1.66v-3.68ZM611.53,816.71v1.81h3.37v-1.81h-3.37ZM611.53,811.16v1.81h3.37v-1.81h-3.37ZM608.11,896.28h-1.66v3.68h1.66v-3.68ZM657.25,650.13h-1.66v3.68h1.66v-3.68ZM653.89,666.8v1.81h3.37v-1.81h-3.37ZM591.19,779.7v1.81h3.37v-1.81h-3.37ZM565.78,775.99v1.81h3.37v-1.81h-3.37ZM623.36,687.15h-1.66v3.68h1.66v-3.68ZM628.47,690.86v1.81h3.37v-1.81h-3.37ZM792.81,953.66h-1.66v3.68h1.66v-3.68ZM665.72,951.81h-1.66v3.68h1.66v-3.68ZM658.95,716.76h-1.66v3.68h1.66v-3.68ZM723.36,922.2v1.81h3.37v-1.81h-3.37ZM626.75,925.9h-1.66v3.68h1.66v-3.68ZM545.44,935.16v1.81h3.37v-1.81h-3.37ZM636.09,720.45c1.1-.62,1.1-1.23,0-1.85v1.85ZM581.87,757.47c1.1-.62,1.1-1.23,0-1.85v1.85ZM661.51,759.32c1.1-.62,1.1-1.23,0-1.85v1.85ZM564.92,761.17c1.1-.62,1.1-1.23,0-1.85v1.85ZM562.41,773.22l.8.87c.94-1.18,3.41-2.41,1.73-3.63l-2.52,2.76ZM627.62,687.14c1.1-.62,1.1-1.23,0-1.85v1.85ZM608.98,774.12c1.1-.62,1.1-1.23,0-1.85v1.85ZM656.42,779.68c1.1-.62,1.1-1.23,0-1.85v1.85ZM629.31,674.18c1.1-.62,1.1-1.23,0-1.85v1.85ZM641.17,661.23c1.1-.62,1.1-1.23,0-1.85v1.85ZM654.73,659.38c1.1-.62,1.1-1.23,0-1.85v1.85ZM653.03,653.82c1.1-.62,1.1-1.23,0-1.85v1.85ZM642.87,790.78c1.1-.62,1.1-1.23,0-1.85v1.85ZM654.73,648.27c1.1-.62,1.1-1.23,0-1.85v1.85ZM658.12,646.42c1.1-.62,1.1-1.23,0-1.85v1.85ZM639.48,646.42c1.1-.62,1.1-1.23,0-1.85v1.85ZM634.39,798.18c1.1-.62,1.1-1.23,0-1.85v1.85ZM632.7,640.87c1.1-.62,1.1-1.23,0-1.85v1.85ZM614.06,807.44c1.1-.62,1.1-1.23,0-1.85v1.85ZM656.42,811.14c1.1-.62,1.1-1.23,0-1.85v1.85ZM651.34,812.99c1.1-.62,1.1-1.23,0-1.85v1.85ZM631.01,607.56c1.1-.62,1.1-1.23,0-1.85v1.85ZM619.16,605.67c1.68-1.22-.79-2.45-1.73-3.63-1.67,1.29.91,2.54,1.73,3.63ZM653.05,822.21c1.68-1.22-.79-2.45-1.73-3.63-1.67,1.29.91,2.54,1.73,3.63ZM663.2,598.3c1.1-.62,1.1-1.23,0-1.85v1.85ZM614.06,824.09c1.1-.62,1.1-1.23,0-1.85v1.85ZM626.8,597.39l.8.87c.94-1.18,3.41-2.41,1.73-3.63l-2.52,2.76ZM663.2,592.75c1.1-.62,1.1-1.23,0-1.85v1.85ZM574.28,828.74l.8.87c.94-1.18,3.41-2.41,1.73-3.63l-2.52,2.76ZM617.45,587.2c1.1-.62,1.1-1.23,0-1.85v1.85ZM637.78,579.79c1.1-.62,1.1-1.23,0-1.85v1.85ZM659.81,829.65c1.1-.62,1.1-1.23,0-1.85v1.85ZM607.28,561.29c1.1-.62,1.1-1.23,0-1.85v1.85ZM661.51,835.2c1.1-.62,1.1-1.23,0-1.85v1.85ZM597.12,559.44c1.1-.62,1.1-1.23,0-1.85v1.85ZM644.56,553.88c1.1-.62,1.1-1.23,0-1.85v1.85ZM639.48,553.88c1.1-.62,1.1-1.23,0-1.85v1.85ZM595.42,553.88c1.1-.62,1.1-1.23,0-1.85v1.85ZM614.06,844.45c1.1-.62,1.1-1.23,0-1.85v1.85ZM609.86,850.95l.8.87c.94-1.18,3.41-2.41,1.73-3.63l-2.52,2.76ZM647.95,546.48c1.1-.62,1.1-1.23,0-1.85v1.85ZM642.87,546.48c1.1-.62,1.1-1.23,0-1.85v1.85ZM631.01,529.82c1.1-.62,1.1-1.23,0-1.85v1.85ZM671.67,857.41c1.1-.62,1.1-1.23,0-1.85v1.85ZM592.03,516.87c1.1-.62,1.1-1.23,0-1.85v1.85ZM588.64,859.26c1.1-.62,1.1-1.23,0-1.85v1.85ZM593.73,874.07c1.1-.62,1.1-1.23,0-1.85v1.85ZM593.73,453.94c1.1-.62,1.1-1.23,0-1.85v1.85ZM602.2,448.39c1.1-.62,1.1-1.23,0-1.85v1.85ZM595.42,888.87c1.1-.62,1.1-1.23,0-1.85v1.85ZM649.64,890.72c1.1-.62,1.1-1.23,0-1.85v1.85ZM617.45,899.98c1.1-.62,1.1-1.23,0-1.85v1.85ZM649.64,899.98c1.1-.62,1.1-1.23,0-1.85v1.85ZM747.92,899.98c1.1-.62,1.1-1.23,0-1.85v1.85ZM780.12,905.53c1.1-.62,1.1-1.23,0-1.85v1.85ZM607.28,907.38c1.1-.62,1.1-1.23,0-1.85v1.85ZM634.39,907.38c1.1-.62,1.1-1.23,0-1.85v1.85ZM688.62,907.38c1.1-.62,1.1-1.23,0-1.85v1.85ZM769.95,909.23c1.1-.62,1.1-1.23,0-1.85v1.85ZM607.28,916.63c1.1-.62,1.1-1.23,0-1.85v1.85ZM598.81,918.48c1.1-.62,1.1-1.23,0-1.85v1.85ZM651.34,924.04c1.1-.62,1.1-1.23,0-1.85v1.85ZM729.28,931.44c1.1-.62,1.1-1.23,0-1.85v1.85ZM758.09,933.29c1.1-.62,1.1-1.23,0-1.85v1.85ZM749.62,935.14c1.1-.62,1.1-1.23,0-1.85v1.85ZM771.65,935.14c1.1-.62,1.1-1.23,0-1.85v1.85ZM780.12,942.54c1.1-.62,1.1-1.23,0-1.85v1.85ZM549.67,946.24c1.1-.62,1.1-1.23,0-1.85v1.85ZM576.78,268.87c1.1-.62,1.1-1.23,0-1.85v1.85ZM661.51,964.75c1.1-.62,1.1-1.23,0-1.85v1.85ZM799.62,808.34c2.84,2.39,2.17,8.66,5.05,8.33l-1.7-9.24-3.36.91ZM799.59,812.99l-3.36,2.78,3.37.91v-3.69ZM805.53,809.29c1.1-.62,1.1-1.23,0-1.85v1.85ZM836.03,861.11c1.1-.62,1.1-1.23,0-1.85v1.85ZM799.61,925.91v1.81h3.37v-1.81h-3.37ZM804.67,614.97h-1.66v3.68h1.66v-3.68ZM607.28,411.37c1.1-.62,1.1-1.23,0-1.85v1.85Z"/>
</svg>