<?xml version="1.0" encoding="UTF-8"?>
<svg id="Layer_1" xmlns="http://www.w3.org/2000/svg" version="1.1" viewBox="0 0 1920 1080">
  <!-- Generator: Adobe Illustrator 29.5.1, SVG Export Plug-In . SVG Version: 2.1.0 Build 141)  -->
  <path d="M939-2.23c.81,3.98,2.68,2.82,4.5,3.59-.14.66-1.65,1.56-1.27,2.86.4,1.39,2.47,1.56,2.77,1.92-.01,1.2.06,2.4,0,3.59-4.38-.28-8.63,1.61-9.76-2.4-3.5,6.36-4.93.31-5.31.09-3.53-2.1-1.95,3.75-5.92,2.32-2.6-4.3-.21-7.58-.02-11.95h15Z"/>
  <path d="M945-2.23c2,2,6.83-.03,6.02,3.58l1.49-2.38,2.24,2.4c.93-3.81,9.58-3.82,10.5,0l1.49-2.43,3.73.9.78,1.53.75-2.4h2.99s.75,2.4.75,2.4l3.74-2.4v10.76s-32.06.06-32.06.06c-.85-.15-1.5-2.52-2.43-3.66.02-1.98.85-3.79-1.5-4.78.23-1.1-.16-2.43,0-3.59h1.5Z"/>
  <path d="M926.9,14.61c.22.13-.39,1.96,1.09,2.28,1.76.39,6.42.45,8.76.54,14.15.55,28.5-1.2,42.75-.54v8.38c-10.17.22-20.17.67-30.3.77-1.11.01-5.64-1.4-5.68,1.02-.08,5.24,14.73,2.28,18.52,3.03l.96-2.42,2.43,2.42,13.9,1.27.14,7.06c-3.93-2.09-7.2.14-11.24.12-6.31-.03-14.2-1.57-20.77-1.3l-1.73-2.41c-3.54,5.77-16.18,1.69-23.24,3.59l1.51-10.75,2.23,2.39,2.24-2.4.76,2.4.75-2.4h2.99s.75,2.4.75,2.4c.59.05,1.64-6.24,4.5,0l2.22-3.01c-2.06-2.58-2.58-.98-4.1-.94-3.85.12-12.12,1.55-14.63-.84-.82-.78-2.53-5.4-2.35-6.41.14-.78,2.56-1.24,3.68-2.08,1.02-.77.93-3.88,3.84-2.18Z"/>
  <path d="M925.25,39.92c.39.24.23,1.49.27,2.08l2.23-2.4,1.73,2.41,30.94.19,9.34,5.75-.76-4.76h10.5s-.01,8.36-.01,8.36l-6.74-3.59-.76,3.61c-6.41-1.32-15.37-.17-21.52-1.21-1.18-.2-.99-3.98-5.26-2.14l-.23,2.13h-1.47s-.02-2.38-.02-2.38l-2.97.02-.31,2.05c-6.57,2.64-6.15-6.06-9.67.33-11,1.82-9.61-3.95-9.54-10.79,1.39.11,3.14-.36,4.24.31Z"/>
  <path d="M931.53,58.75h1.45c-.08-5.84,13.93-3.86,15.78.02l1.7-2.44h17.61s1.7,2.44,1.7,2.44c1.13-4.02,5.37-2.11,9.76-2.41v7.18s-58.51,0-58.51,0l1.4-7.85,6.7-.4,2.43,3.46Z"/>
  <path d="M927.64,100.11c.58.64,2.77,2.79,3.84,2.86l5.44-7.03,14.02-.08c-.14,4.29,5.45,12.53-2.93,13.09l-1.71-8.2-4.97-.22c-2.97,12.94-22.93,7.38-18.06-4.73,3.36-.17,3.02,2.82,4.37,4.31Z"/>
  <path d="M952.5,71.9c-.99.02-2.01.03-3,0h3Z"/>
  <path d="M924,80.27c-2.37-1.31-3.13-.92-2.75-3.87.92-7.19,10.41-9.54,18.24-8.07.57.11,4.34,3.41,10.01,3.57v3.59c-5.84-2.47-3.91.82-5.43,1.14-5.63,1.2-18.2-4.28-20.07,3.63Z"/>
  <path d="M952.5,71.9c.85-.01,2.99-1.21,5.18-1.2,7.37.03,14.53-.46,21.67,1.31.64,2.37-.5,16.13-3.84,16.71-14.97-2.24-34.98,1.82-49.23-.11-2.26-.31-4.32-1.4-5.09-3.14-1.63-3.68,3.6-2.07,2.81-5.2.11.06,1.33-.11,2.52.4.43.18.36,1.77,1.49,1.99,5.03.96,16.15-.06,22.11.2l2.4,3.39,1.49-3.59h22.5s-1.77-5.76-1.77-5.76c-5.18-2.61-17.49,2.16-20.17-2.57l-2.84,1.14.77-3.56Z"/>
  <path d="M971.87,95.97c.42.32-.25,2.17.5,3.05s3.55.96,3.94,2.23c.45,1.48-2.74,10.14-5.09,6.53-1.29-1.97.15-8.07-2.93-8.22-6.32-.29-7.35,5.37-6.8,9.4l-4.39-.07c-2.73-3.72-.21-12.32,5.13-13.1,1.58-.23,9.12-.24,9.64.16Z"/>
  <polygon points="116.99 937.55 116.99 939.33 114.01 941.13 114.01 937.55 116.99 937.55"/>
  <path d="M103.49,1006.9c.35,2.2.08,3.48-2.24,4.76l-2.22-1.77,1.48-2.98h2.98Z"/>
</svg>