<?xml version="1.0" encoding="UTF-8"?>
<svg id="Layer_1" xmlns="http://www.w3.org/2000/svg" version="1.1" viewBox="0 0 1920 1080">
  <!-- Generator: Adobe Illustrator 29.5.1, SVG Export Plug-In . SVG Version: 2.1.0 Build 141)  -->
  <path d="M1612.72,1079.83c-5.03.03-16.38.37-18.35-1.96l-1.38-26.74c8.96,1.29,11.49-2.94,7.61-9.04l-7.6-.52v-29.89l2.42,2.43c6.88,2.46,8.26-8.07,5.92-10.88-1.96-2.35-14.89-.59-18.85-1.12,1.35,5.31-1.99,23.91.47,27.23.27.37,2.61.25,2.62.9.04,1.45-2.68,4.19-3.13,7.11-.97,6.29.86,13.74.94,20.13.08,6.66-2.01,13.33.71,20.38l-12.1,1.97v-28.7h7.51s.03-8.9.03-8.9l-5.79-.84c-.18-.89-1.74-2.43-1.74-2.82v-34.67c-2.34-2.59-6.55-2.66-9,0v75.92h-10.5v-68.15h6.01c-.29-3.29,1.43-7.3-2.28-9.56-3.29-.56-2.08,3.22-5.98,3.68-6.98.82-5.03-2.81-7.65-3.54-6.78-1.89-10.05,2.23-7.45,7.12l6.86,1.11v69.35l-5.84-.14-1.68-18.99c-3.1-.09.25,3.12-3.73,2.4-.67-.12-1.67-5.67-4.13-.92-2.61,5.02-.43,12.2-1.13,17.65h-5.99c.36-14.94-.48-29.95-.08-44.89.07-2.47,1.37-4.6,1.46-7,.13-3.58-3.29-8.13.14-12.68,2.11-1.4,4.48,2.18,4.48,2.99v40.05c2.19.11,2.67-4.3,2.83-5.51.39-2.94.13-5.89.18-8.83l5.98,3.58c-.36-7.33.52-14.78,0-22.11-.28-3.96-1.26-13.81-2.68-17-2.32-5.18-11.08-8.44-16.46-4.84-5.82,3.89-5.87,37.43-3.29,44.5l-.07,31.74h-4.49l-3-76.53h-15.01c1.36,7.82-1.21,15.88-1.56,23.27-.73,15.52.53,31.39.14,46.64-.04,1.58-.76,7.78-4.57,6.62v-72.34c0-.58-1.91-2.68-1.7-4.02l-7.3-.17v47.23c0,.87,2.6,3.44,1.49,5.38-2.01,1.93-4.08-8.94-4.32-10.3-.97-5.68-4.01-40.63-6.31-42.19l-10.37-.12,1.51,74.75-3,1.77.06-34.13c-4.82-13.77,3.43-29.74-6.36-42.15-13.58-1.8-16.89.69-17.77,11.07-1.48,17.43-1.22,42.34-.02,59.89.14,2.04.38,3.48,1.58,5.3l-16.51.02v-26.9s7.56-46.44,7.56-46.44l-3.08-3.17c-2.38-.49-.87,1.41-1.92,2.02-1.04.6-3.15.12-3.73.55-1.15.87-2.14,12.99-3.29,15.99-.65,1.69.93,2.11-3.01,1.75l-4.65-20.21c-.49-.33-7.94-.36-9.37-.1-.53.1-2.82,4.69-8.21,2.06l-.33-2.03h-2.92s-.98,2.38-.98,2.38l-8.06-.03c.11,4.92-2.09,9.64,5.82,9.71-1.01,2.46,1.69,6.48,1.69,7.64v56.79h-18.01c1.22-3.83-1.5-7.94-1.42-11.29.07-3.13,6.79-5.92,4.42-7.83-2.75-2.23-4.36,2.1-5.98,2.38l-3.01-8.35c6.31,1.39,5.67-3.76,11.99-2.41v-9.56s-5.3.96-5.3.96l-2.19-1.56v-26.9h9.01s0-11.96,0-11.96h-19.51l1.5,76.53-5.9-.07c-3.82-8.57,1.72-17.21-.17-25.58-.54-2.41-3.83-5.14-4.39-7.29-.12-.46,2.27-.44,2.88-1.42,3.09-4.92,3.26-37.76-3.9-39.59-2.6-.66-16.46-.68-17.88.93l.86,73.02h-4.49v-77.87h-4.49v77.87h-6l.86-70.64c-.37-4.52-13.66-4.11-14.42-1.52l3.08,71.46-4.52.7-1.5-74.14h-7.51v37.67c0,.39-1.81,1.84-1.59,2.93l-3.62.1c-.67-.16-2.3-2.85-2.3-3.02v-35.87c-3.54-3.35-8.15-2.28-9.82,1.73-2.2,5.29.72,8.95.88,13.76.41,11.91-.37,23.89-.16,35.79l7.54,1.99.06,3.52-6.18.7c-1.83,4.74-2.41,10.23.17,14.84h-15s0-18.52,0-18.52c0-.36,4.31-3.25,1.49-6.57l5.79-.16c3.92-4.2-.44-7.74-.56-11.16-.19-5.16,3.97-36.37,2.29-37.71-4.42.7-19.26-1.79-20.82,1.96l2.82,72.18h-13.5c.56-7.4,6.9-14.01,3.82-21.6-.91-2.24-4.26-3.32-3.82-5.9h7.5s0-8.38,0-8.38h-6.01c-1.02-9.37-3.49-19.38.19-28.53l7.3-.16-1.56-8.31-16.44-.06c.35,12.94-.42,25.96-.07,38.91.06,2.24.04,13.99.52,14.63.25.34,2.6.21,2.61.94.02,1.15-1.51,2.95-1.58,4.7-.16,4.58.14,9.19.03,13.76h-12.01v-25.11h9.01s0-8.38,0-8.38h-9.01s0-19.72,0-19.72c0-.65-1.54-3.52-3.75-3.01-.47.11-1.65,3.22-5.35,3.05l1.6,53.15h-13.51s.01-3.57.01-3.57l3.01,2.38c1.78.36,2.03-1.24,2.15-2.27,1.65-14.08.8-38.81.01-53.32-.13-2.38-2.11-13.32-4.64-13.81-5.21.19-12.46-.98-16.23,2.48-4.23,3.89-4.3,29-3.87,35.28.31,4.49,2.6,8.93,1.58,13.7l4.47-2.39v5.98s-4.49-1.19-4.49-1.19v16.74h-18.01s.01-7.17.01-7.17l4.48,2.38.02-11.95c5.96,2.59,8.79-10.16,9.02-13.8.35-5.37-.99-7.85-8.26-7.83-2.68,0-15.43,1.8-17.71,2.53-1.32.42-1.25,1.41-1.09,2.35h-1.46c-.46-5.24-7.13-3.37-12.02-3.57l1.48,4.24,6.01-.67.02,3.59,2.97-2.38c-.23,2.64,2.47,3.19,5.35,3.59l2.22-.53,1.47-3.06,2.97,2.38.02-3.59c7.45,1.97,17-3.5,14.95,6.51-1.97,9.63-14.52,5.94-22.4,5.94-3.63,0-4.27,3.76-2.09,4.28,5.67,1.35,9.8-.21,15.54,0l-.02,8.37-1.49-7.16c-2.97-.79-3.98,1.28-4.14,3.25-.28,3.63,2.33,8.22,1.15,12.29l-11.93-.08-.82-3.53-1.57,3.67-38.18-.08-.74-4.78c-.94,0-.14,4.79-4.51,4.79h-273.75c-.53-1.86,2.05-.89,3.03-1.99,1.83-2.05,2.38-5.46-1.52-6.38l-.76,4.78-3.74-3.57c-1.11,2.73-1.97,4.51-.02,7.16h-18s1.58-7.73,1.58-7.73l-4.6-.64,1.5-7.16c-5.97-.81-.71,2.94-1.58,5.24-.59,1.56-4.1,1.69-4.45,2.52l.8,3,3.72-2.39c-.31,3.05-4.22,3.98-1.48,7.16l-12.05-.56-1.45-4.23,3,.61-.02-2.38-4.48-.61-.05-4.19,4.54-.59v-3.58s-14.05-.04-14.05-.04l-2.43,2.42c-2.25-6.12,2.43-5.55,3.71-7.13,2.89-3.58-2.17-15.51.77-20.36h-10.5c1.06,4.58-1.78,17.18.77,20.37.7.87,3.47.9,3.78,1.76,1.24,3.4-2.72,2.71-3.04,3.75-1.72,5.64,2.74,5.2,3,5.95,1.52,4.41-5,3.96-3.01,8.81l-12,.02v-4.79c-3.59,2.82-4.58,5.19-10.49,4.21l-1.49-3.01h7.5s-.07-8.33-.07-8.33c-6.06-.5-17.86-3.74-19.14,3.18-.95,5.12,1.1,3.42,3.22,5.03,4.96,3.77-11.09,4.52-12.38,3.52-.41-.31.22-2.16-.5-3.06-.88-1.08-7.35-2.15-3.02-5.15l3.42-.6c1.41-6.65-8.19-6.2-3.03-12.54-4.28-.01-8.07-.99-9.01,2.97-1.12,4.73-.22,13.86,1.51,18.53h-12c4.23-4.79,3.6-9.94,1.15-15.24-2.15-2.07-11.43-.97-11.74.43l.1,10.03,2.97-2.38,1.51,7.16-7.51.02c2.1-17.74-8.79-13.41-8.99,0h-21v-21.52l-6.04,3.21-.66,10-5.29-.06,1.5,8.37h-.04s.05.07.07.12c.11.36.21.72.32,1.07h970.54c-.07-.4-.13-.79-.16-1.19ZM1254,1015.26h4.48c1.29,1.68.02,3.22.02,4.18v24.51h-4.5v-28.7ZM708.01,1075.04v-1.77s2.25-1.8,2.25-1.8l.74,3.58h-2.99ZM733.51,1079.82v-3.58s1.48,0,1.48,0l1.52,3.57h-2.99ZM775.51,1072.66v-2.39s2.99,0,2.99,0l-2.99,2.38ZM1189.51,1058.31h2.99v2.38h-2.99v-2.38ZM1187.46,1056.72c-.19,7.52-1.83,15.44-.96,23.12h-5.99v-49.03l-5.99,3.58,1.5-8.37,2.98,1.21c-1.42-6.48,8.4-13.19,8.91-4.11.56,10.01-.18,23.08-.44,33.6ZM1189.51,1066.69h2.99v1.17h-2.99v-1.17ZM1230.01,1060.7h1.47s1.52,3.57,1.52,3.57h-2.99s0-3.57,0-3.57ZM1284,1079.83h-7.5v-23.32l2.4-1.72,5.1,1.12v23.91ZM1330.5,1015.26l4.62.7c1.9,2.06,1.98,20.24,1.46,23.87-.51,3.52-1.23,4.58-6.08,4.12v-28.7ZM1338,1079.83h-7.5v-25.11l5.78.18c-.21,1.33,1.72,3.41,1.72,4v20.92ZM1404.01,1079.84h-12.01l-1.49-65.77c2.76-.06,6.31-.52,7.29,1.96,1.28,3.25,1.06,13.16,1.89,17.62,2.96,15.72,6.09,29.96,4.31,46.19ZM1444.5,1079.83h-4.49s-1.51-10.16-1.51-10.16c2.17-15.7-2.92-36.36,0-51.41.91-4.67,6-3.28,6,0v61.58ZM1467,1078.04v-19.73c2.19-.21,2.72,3.12,2.88,4.28.79,5.54.81,11.66,1.61,17.24-1.4.51-4.49-1.06-4.49-1.79ZM1495.51,1079.83c-.92-18.04,1.19-35.87,1.51-53.8,2.62-.28,1.41,2.71,1.49,4.17.85,16.51.92,33.24,2.99,49.62h-5.99Z"/>
  <path d="M672,1023.63v-9.57s21.46,1.22,21.46,1.22c7.97,5.03,3.97,5.2,3.97,10.07,0,.72,2.33.59,2.6.95,3.61,4.83-4.68,22.53-5.55,28.41l-3.64-3.33-5.35.95c2.43,4.65,1.08,6.57-1.51,10.75l-2.97-4.77-1,4.8-7.25,1.19-.11-37.16c18.53-5.29,7.54,7.56,9.79,14.83l5.18,1.92c5.61-.86-.78-12.64,1.08-15.93l7.31-4.34h-24Z"/>
  <path d="M748.5,1052.33c.09.8-.62,2.47.75,2.4l5.24-2.4-1.5,17.92c-6.53.77-.97-6.95-1.51-9.55l-2.24,2.4-3.75-2.4-1.49,2.38-3.78-3.56-2.26,3.56c-4.06,1.39-2.31-2.43-3.72-2.4l-1.68,2.44-5.06-.03c1.2-6.36-1.35-12.47-1.65-18.54-.13-2.68,1.36-4.99,1.37-7.18,0-2.58-3.01-9.11-.82-11.12.56-.51,4.96-.13,2.58-2.61-.2-.21-3.5.01-4.3-1.94-.89-2.15.1-5.3-.2-7.65l7.43.07c-.11,2.23,1.09,4.35,1.25,6.54.34,4.41,0,12.52.79,16.55.58,2.96,5.43,10.74,3.39,12.76-1.18,1.16-4.28.47-3.85,2.35,4.79-.97,3.35,1.4,5.97,2.39,4.11-4.15,3.04-8.45,5.38-13.21l9.65.06-.19,9.43-5.82,1.33c-.09-.78.11-1.6-.01-2.39-2.92.6-3.4,2.57-2.98,4.78h1.47s.03-2.38.03-2.38h1.49Z"/>
  <path d="M651,1055.92c-3.85-.05-4.66-5.07-7.44-3.51-.51.29,1.08,3.49-3.06,2.31.43-13.09-1.09-26.52,1.64-39.33l18.32-.1c1.07,1.83,4.41,3.06,5.34,4.28,1.24,1.62,3.97,6.31-.51,6.47-4.75.17-9.56-.13-14.3,0v29.89Z"/>
  <path d="M715.05,1022.18c-.47.43-2.84.1-2.56.83,5.31,3.9,1.45,7.64,1.39,11.96-.09,6.59,2.38,13.42.1,19.74-2.63.1-.67-4.32-4.46-2.36-.29.15-.72,3.62-4.51,3.57.72-9.77-.66-19.64-.82-29.37-.02-1.16,1.69-2.37,1.71-3.48.06-2.98-6.17-7.92,1.37-9.02,7.93-1.16,11.28,4.91,7.78,8.13Z"/>
  <path d="M801.01,1014.06l-1.52,15.54-4.46-2.99c4.4,3.7,5.16,7.58,4.46,12.57l5.78.16,1.73,4.61h-9s3.01,11.95,3.01,11.95l-7.48-3.57-3.01,5.97.08-10.7,4.42-.66c-8.2-3.02-1.64-12.59-4.58-18.98l3.08-1.35-3.06-1.35.25-9.25,2.25-1.79,8.05-.17ZM796.49,1034.39l-.74-3.58-2.24,1.8v1.77s2.98,0,2.98,0Z"/>
  <path d="M756.01,1011.67l-1.5,23.92c-2.66-.04-9.69.78-10.34-1.89l2.99-21.9,8.86-.13Z"/>
  <path d="M658.5,1027.22l7.3.16c2.96,1.57,1.47,20.13-.46,22.63-1.24,1.6-4.67,1.1-6.84,1.13v-23.91Z"/>
  <path d="M770.79,1011.84c2.91,3.17.21,5.9.2,8.8-.01,2.26,1.59,3.7.92,6.59-1.16,5.04-3.27,3.48-6.48,5.18-1,.53.45,2.46-1.92,1.97-3.34-5.06-.28-9.14,0-13.74.16-2.67-2.83-5.7.2-8.8h7.07Z"/>
  <path d="M1216.29,1007.06c2.21,3.49,2.23,6.96-.01,10.45l-5.79.14v4.79s-3.74-3.6-3.74-3.6l-1.49,3.59c-4.47-4.02-1.41-10.63-2.26-15.54l13.3.17Z"/>
  <path d="M883.5,1059.49c-1.89,4.97,4,4.2,3,8.37l-5.34-.95-3.63,3.34-1.22-3.37,2.69-2.6-8.05-.04-2.43,2.42v-7.17s14.98,0,14.98,0ZM872.99,1060.7h-2.99s2.26,2.38,2.26,2.38l.74-2.38Z"/>
  <path d="M948.01,1055.92c1.28,3.63-1.75,3.12-2.45,4.03s-.42,2.31-.89,2.79c-1.25,1.26-4.83.97-5.48,1.69-1.25,1.4,1.62,5.85-1.67,5.83l-1.61-6.43c1.99-1.39,3.95.04,3.1-3.12h-4.52s3.67-5.68,3.67-5.68l9.85.9ZM939.75,1058.31v1.2c.97-.4.97-.8,0-1.2Z"/>
  <path d="M1107,1014.07v16.74s-5.99,0-5.99,0l-.04-6.42,3.05-1.37-3.01-.58v-8.39s5.98,0,5.98,0ZM1103.99,1018.85v-3.58h-1.47v3.58h1.47Z"/>
  <path d="M833.99,1021.24c-4.17.91-2.15-1.95-4.87-2.77-5.71-1.72-9.27,5.01-8.62,8.75l7.49-4.77-1.5,8.38c-16.23.47-4.33-7.31-5.83-15.42l11.89-.83,1.44,6.67Z"/>
  <path d="M811.5,1060.7l-1.47,6.67-10.53.5c-.18-4.79,6.49-8.43,12-7.17Z"/>
  <path d="M1159.51,1035.59c-1.6.11-3.5-.34-4.98-.04-1.97.4,0,2.92-2.52,2.42.21-5.95,2.01-10.06,4.5-15.53,2.22-.09,2.26,4.37,2.49,5.76.39,2.37-.34,4.98.51,7.39ZM1155.75,1030.81v1.2c.97-.4.97-.8,0-1.2Z"/>
  <path d="M1157.79,1010.66l.19,8.19-4.48-1.21-3,4.79,2.99-7.82c-6.92-2.07-1.5-7.29,4.29-3.96Z"/>
  <polygon points="954 1026.03 960.09 1027.89 959.99 1032 955.49 1031.41 955.51 1035.59 959.99 1034.4 959.99 1041.56 955.51 1037.99 954 1043.96 954 1026.03"/>
  <path d="M880.5,1022.45v7.16s-4.5.01-4.5.01v-3.61s-3.64,1.01-3.64,1.01c-2.56-1.94-2.19-4.21-6.86-3.39-.35-2.09,3.4-1.12,5.23-1.19,3.24-.11,6.53.07,9.76,0Z"/>
  <path d="M820.49,1035.6l.02,7.17,2.99-.56,1.49,4.14h-7.5c-.07-.74-1.07-14.54,3-10.75Z"/>
  <path d="M874.49,1066.68c1.59,5.01-3.82,3.34-6.71,6-2.6,2.39-.53,6.62-5.27,5.95,1.93-5.77,2.95-12.08,11.99-11.95Z"/>
  <path d="M1121.99,1017.65l-4.48-2.38c0,1.03-.76,1.93-.78,2.97-.13,7.21,3.93,1.5,6.07,4.14l.68,7.22-5.22-3.59-2.25,3.59c2.16-6.25-2.26-11.6-1.35-17.8l5.86-.8,1.47,6.64Z"/>
  <path d="M1088.99,1021.24c-.8,5.2.27,8.6,3,13.15-2.48.29-.8-2.01-3.36-2.79-2.04-.62-5.23.68-5.62.4-3.83-2.75,7.54-1.47,4.5-5.37l-4.34-.7-.16-4.69h5.98Z"/>
  <path d="M841.49,1070.26c-1.14,1.02-5.4-2.46-5.52-2.7-3.73-7.55,8.25-5.43,5.52,2.7Z"/>
  <path d="M899.83,1035.72l1.67,3.45-4.48-1.19c-1.76,1.62,3.35,10.76-1.5,11.95v-14.35s4.32.14,4.32.14Z"/>
  <polygon points="883.5 1037.99 883.5 1041.56 879.14 1041.63 877.51 1047.54 877.51 1037.98 883.5 1037.99"/>
  <path d="M871.25,1039.37c.28.19,1.06,2.57,1.76,3.38-5.15-.9-4.47,2.45-7.5,3.6v-7.17c1.63.21,4.7-.48,5.74.2Z"/>
  <polygon points="958.49 1054.73 955.51 1063.08 952.49 1056.54 958.49 1054.73"/>
  <path d="M851.99,1067.88l-1.48,10.75c-.62-2.97-6.16-10.61,1.48-10.75Z"/>
  <path d="M838.49,1037.99h-4.49c-1.33-3.22,2.17-2.04,2.65-2.56.38-.42-2.17-3.41,1.1-4.61l.74,7.17Z"/>
  <path d="M910.72,1054.46c5.29,1.69,2.89-1.41,5.77-2.12l-1.5,5.96c-2.53.5-.54-2.05-2.47-2.42-1.53-.29-3.39.14-5.01.03l1.52-3.57,1.71,2.12Z"/>
  <path d="M917.99,1046.36c.56,5.98-5.05,5.98-4.49,0h4.49Z"/>
  <path d="M955.49,1017.66c.56,5.98-5.05,5.98-4.49,0h4.49Z"/>
  <path d="M949.49,1014.07c2.38,1.9-2.11,5.47-4.49,3.58-2.38-1.9,2.11-5.47,4.49-3.58Z"/>
  <path d="M950.99,1070.26h-4.49s0-3.58,0-3.58c2.74-.39,4.96,1.32,4.49,3.58Z"/>
  <path d="M958.5,1067.87c.09-1.59-.07-3.19,0-4.78h2.99s0,4.78,0,4.78c-.99.06-2-.04-3,0-.04.79.07,1.6,0,2.39h-4.49s0-2.38,0-2.38c1.49-.06,3,.06,4.49,0Z"/>
  <polygon points="906 1054.73 905.99 1058.3 903.03 1058.29 900.01 1055.9 900.01 1054.73 906 1054.73"/>
  <polygon points="918 1037.99 916.48 1041.57 913.51 1041.56 913.51 1037.99 918 1037.99"/>
  <path d="M838.49,1046.35h-1.47c-1.17-2.52-.5-4.61,0-7.16h1.47s0,7.16,0,7.16Z"/>
  <path d="M1061.99,1018.86c.38,2.23,0,4.14-2.98,4.78v-4.78s2.98,0,2.98,0Z"/>
  <polygon points="940.5 1035.6 940.49 1037.98 936.01 1037.98 936.01 1034.39 940.5 1035.6"/>
  <polygon points="1136.98 1060.7 1138.5 1064.28 1134.01 1064.28 1134.01 1060.7 1136.98 1060.7"/>
  <rect x="1126.51" y="1060.7" width="2.99" height="3.58"/>
  <rect x="1137.01" y="1032.01" width="2.99" height="3.58"/>
  <rect x="939.01" y="1014.07" width="2.99" height="3.58"/>
  <rect x="817.51" y="1064.29" width="2.99" height="3.58"/>
  <rect x="640.51" y="1059.51" width="2.99" height="3.58"/>
  <polygon points="1126.5 1037.99 1122.03 1038.59 1123.51 1032.01 1126.5 1037.99"/>
  <polygon points="827.99 1064.29 827.26 1067.87 825.01 1066.06 825.01 1064.29 827.99 1064.29"/>
  <polygon points="822 1051.14 820.48 1054.71 819.02 1054.71 817.5 1051.14 822 1051.14"/>
  <polygon points="1088.99 1055.91 1086 1055.91 1087.52 1052.34 1088.99 1052.33 1088.99 1055.91"/>
  <rect x="1090.51" y="1039.18" width="2.99" height="2.38"/>
  <polygon points="940.5 1022.45 938.98 1026.02 937.51 1026.02 937.51 1022.44 940.5 1022.45"/>
  <polygon points="1120.49 1034.4 1120.49 1037.98 1119.02 1037.97 1117.5 1034.41 1120.49 1034.4"/>
  <rect x="795.01" y="1055.92" width="1.47" height="4.77"/>
  <polygon points="1057.49 1070.26 1054.51 1070.26 1054.51 1067.88 1058.26 1066.7 1057.49 1070.26"/>
  <polygon points="1085.99 1015.26 1083 1015.25 1084.52 1011.68 1085.99 1011.68 1085.99 1015.26"/>
  <polygon points="1036.5 1066.69 1034.98 1070.26 1033.51 1070.26 1033.51 1066.68 1036.5 1066.69"/>
  <polygon points="868.5 1014.08 866.98 1017.65 865.51 1017.65 865.51 1014.07 868.5 1014.08"/>
  <rect x="1017.01" y="1042.77" width="1.47" height="3.58"/>
  <rect x="970.51" y="1066.68" width="1.47" height="3.58"/>
  <rect x="1087.51" y="1011.68" width="1.47" height="3.58"/>
  <rect x="897.01" y="1064.29" width="1.47" height="3.58"/>
  <rect x="807.01" y="1015.27" width="1.47" height="3.58"/>
  <polygon points="919.48 1021.23 917.98 1020.63 919.51 1015.27 920.99 1015.27 919.48 1021.23"/>
  <rect x="846.01" y="1011.68" width="1.47" height="3.58"/>
  <rect x="972.01" y="1015.27" width="1.47" height="3.58"/>
  <rect x="792.01" y="1064.29" width="1.47" height="3.58"/>
  <rect x="846.01" y="1035.6" width="1.47" height="3.58"/>
  <rect x="825.01" y="1051.14" width="1.47" height="3.58"/>
  <rect x="958.51" y="1042.77" width="1.47" height="3.58"/>
  <rect x="838.51" y="1054.73" width="1.47" height="3.58"/>
  <rect x="933.01" y="1042.77" width="1.47" height="3.58"/>
  <rect x="903.01" y="1070.27" width="4.49" height="1.17"/>
  <rect x="846.01" y="1042.77" width="1.47" height="3.58"/>
  <polygon points="853.49 1023.63 850.51 1023.04 853.49 1021.24 853.49 1023.63"/>
  <rect x="837.01" y="1022.44" width="1.47" height="3.58"/>
  <rect x="846.01" y="1022.44" width="1.47" height="3.58"/>
  <rect x="933.01" y="1026.03" width="1.47" height="3.58"/>
  <rect x="892.51" y="1027.23" width="1.47" height="3.58"/>
  <rect x="1156.51" y="1076.25" width="1.47" height="2.38"/>
  <rect x="856.51" y="1064.29" width="1.47" height="2.38"/>
  <rect x="951.01" y="1063.1" width="2.99" height="1.17"/>
  <rect x="1072.51" y="1055.92" width="1.47" height="2.38"/>
  <rect x="870.01" y="1049.94" width="1.47" height="2.38"/>
  <rect x="1048.51" y="1043.97" width="1.47" height="2.38"/>
  <rect x="937.51" y="1043.97" width="1.47" height="2.38"/>
  <rect x="898.51" y="1041.57" width="1.47" height="2.38"/>
  <rect x="933.01" y="1035.6" width="1.47" height="2.38"/>
  <rect x="852.01" y="1035.6" width="1.47" height="2.38"/>
  <rect x="895.51" y="1015.27" width="1.47" height="2.38"/>
  <rect x="892.51" y="1015.27" width="1.47" height="2.38"/>
  <path d="M933.75,1017.66c.97.4.97.8,0,1.2v-1.2Z"/>
  <path d="M893.25,1021.24c.97.4.97.8,0,1.2v-1.2Z"/>
  <path d="M945.75,1021.24c.97.4.97.8,0,1.2v-1.2Z"/>
  <path d="M896.25,1022.44c.97.4.97.8,0,1.2v-1.2Z"/>
  <path d="M933.75,1022.44c.97.4.97.8,0,1.2v-1.2Z"/>
  <path d="M1139.25,1022.44c.97.4.97.8,0,1.2v-1.2Z"/>
  <path d="M1098.75,1037.98c.97.4.97.8,0,1.2v-1.2Z"/>
  <path d="M867.75,1049.94c.97.4.97.8,0,1.2v-1.2Z"/>
  <path d="M1010.25,1049.94c.97.4.97.8,0,1.2v-1.2Z"/>
  <path d="M1017.75,1049.94c.97.4.97.8,0,1.2v-1.2Z"/>
  <path d="M698.25,1051.13c.97.4.97.8,0,1.2v-1.2Z"/>
  <path d="M1002.75,1051.13c.97.4.97.8,0,1.2v-1.2Z"/>
  <path d="M1091.25,1051.13c.97.4.97.8,0,1.2v-1.2Z"/>
  <path d="M822.75,1058.31c.97.4.97.8,0,1.2v-1.2Z"/>
  <path d="M950.25,1058.31c.97.4.97.8,0,1.2v-1.2Z"/>
  <path d="M980.25,1058.31c.97.4.97.8,0,1.2v-1.2Z"/>
  <path d="M899.25,1071.46c.97.4.97.8,0,1.2v-1.2Z"/>
</svg>