<?xml version="1.0" encoding="UTF-8"?>
<svg id="Layer_1" xmlns="http://www.w3.org/2000/svg" version="1.1" viewBox="0 0 1920 1080">
  <!-- Generator: Adobe Illustrator 29.5.1, SVG Export Plug-In . SVG Version: 2.1.0 Build 141)  -->
  <defs>
    <style>
      .st0 {
        fill: #fff;
      }
    </style>
  </defs>
  <path d="M355.52,221.71c.31.79,2.14.75,2.49,1.22,1.03,1.39-.6,3.55,1.98,3.2l-1.69-7.04c-.89-.45-1.92-.04-2.79-.13.2.7-.37,1.77.02,2.75Z"/>
  <path d="M284.21,104.19c.98,1.45-.22,3.87,2.28,3.57v-13.14s-1.5,4.77-1.5,4.77l-4.48-3.58c.11,2.45,1.07,4.74,1.49,7.17.18.21,1.58.27,2.21,1.2Z"/>
  <path d="M207.01,38.42c2.33-.69,3.97-3.22,5.07-4.91.57-.87,4.03-9.86,5.34-4.93.9,3.4,4.22,3.49,4.06,5.66-.35,4.75-11.31,11.38-11.58,13.08-.26,1.64-.34,5.57.1,7.05.27.9,2.36.76,2.58,1.06.5.7.71,14.44.56,15.89-.33,3.09-3.71,4.58-3.15,7.74,9.52-.49,9.19,5.87,8.87,11.91l-4.34.08c-1,.44,2.52,10.49,2.29,12.59-.27,2.4-3.91,4.7-1.89,7.45.24.32,2.4.13,2.62,1.06.31,1.33,1.65,13.01,1.56,14.15-.49,5.64-6.65,9.37-6.18,15.52.47,6.14,7.7,15.01,7.64,20.33-.07,6.05-6.86-2.35-9.06-1.76-.73,3.47,3.89,5.71,3.86,8.97-.02,2.51-3.47,5.82-2.35,8.96l4.47-4.78,1.42,17.43-4.4,2.9c-.62-2.28,1.25-4.52,1.22-6.57-.02-1.05-.53-5.57-2.71-5.37-.82,3.15-2.43,7.59-2.26,10.7.44,8.09,1.64,17.09,2.68,25.4.89,7.12,1.99,14.39,2.24,20.94.15,3.97.75,26.35-1.31,27.72l-7.37.11c.01,34.08.04,68.19-.06,102.28,0,1.71.48,3.51.76,5.32.77.06,1.54.15,2.3.3v-.3c6.2.11,10.07-1.63,12.76,3.57,2.6-4.82,5.71-3.74,11.8-3.59l.98,2.38,2.21.05,2.89-2.5c43.19,1.07,86.04-1.41,129.08-1.09l3.1,1.14c.07,8.57,8.39,16.25,19.15,14.38.63-.11,6.96-6.12,7.63-7.28,4.72-8.14.58-29.25-14.74-23.9l-2.36-1.68v-39.46c0-.34-2.09-1.66-1.5-2.98,5.47-1.49,5.63,1.8,7.12,2.3,3.81,1.26,8.47,2.45,12.02,3.58,8.61,2.73,20.96,3.6,29.24,6.16,1.64.51,3.47,6.2,7.08-.68-1.64-2.17-4.71-1.33-7-2.22-6.23-2.43-19.35-7.5-25.59-9.07-4.57-1.14-12.53-1.09-17.24-2.55-.31-.1-4.77-3.28-4.94-3.51-1.12-1.54,2.06-17.91.83-21.89-.42-1.36-4.39-1.54-4.52-2.6-.05-.39,3.93-3.89,4.42-6.04.7-3.13-.32-6.89.05-10.12l-2.98,1.22v-3.61s-4.5,0-4.5,0v3.6s-5.1-1.18-5.1-1.18c-1.96.57-1.75,1.9-2.27,3.08-1.33,3.04-1.9,3.25-1.65-.12.67-8.99,8.87-4.88,11.37-7.69l.66-6.05,4.47,5.97v-11.95s-4.48,4.2-4.48,4.2c-1.84,1.09-2.77-1.19-3.02-2.41-.64-3.2,2.89-.92,4.19-2.04.57-.49.18-1.94.89-2.86.53-.69,2.27-.2,2.55-2.19,1.25-8.98.89-29.08-.28-38.22-.09-.72-1.48-8.08-4.33-5.5l-.02,5.97c-5.96-5.15-8.6,2.38-8.97,7.17l4.47-4.78.03,5.97,5.98-5.97-3.01,4.18c4.65.72,3.37,5.13,2.88,8.28-.18,1.18-.65,4.48-2.85,4.27l1.48-7.16-2.24,2.4-2.23-2.39c-1.73,2.04.41,8.07-4.51,7.16l-1.49-8.36c-.85,3.94-.39,7.99-.01,11.96.39-.49,1.77-1.36,2.25-2.4l3.73,2.41-1.5,3.58-2.97-2.38-1.5,3.58c-.13-1.58.14-3.2-.01-4.78-.22.28-2.71.74-1.51,3.58l-2.97-2.38-.02,2.38c-4.04,1.23-2.44-4.44-7.25-2.16-.35.17-4.33,5.09-4.45,5.4-.73,1.85.97,5.28-1.78,5.13l-3.03-5.36,4.61-1.25-1.6-16.11c1.95.12,4.11-.2,6.01,0-.86-3.06-.51-6.58-5.99-4.78v-3.54s7.5-1.27,7.5-1.27c-3.06-6.57,5.1-11.37,1.41-18.36l3.13-1.37-.06-2.96-2.97,2.38v-3.58c1.23-.57,6.51,1.43,4.47-2.98-1.08-2.33-4.58-.46-5.98-1.13l-1.45-2.35,1.46-5.51,4.48,1.2c.7-1.42-.34-6.95-3-5.39l-4.51,7.78-2.97-2.38,1.49,5.97-4.38.06c-.11,2.49-.12,4.9-.54,7.39-.2,1.17-.48,4.78-2.57,4.5.77-3.27,1.31-7.93-.09-11.09-.58-1.3-5.01-.51-1.46-3.89l-2.94.62c-.46-.18.46-5.9-.04-7.56-.31-1.02-3.01-.27-3.15-2.54-.21-3.31,5.52-17.91,4.66-18.58l-4.49-.02c.14,5.33-3.47,8.68-1.51,14.35-5.41.81-1.82-2.77-2.04-5.16-.22-2.38-2.57-14.21-3.98-15.16-2.67-1.81-2.5.42-3.01,1.75-.82,2.12-1.26,4.93-1.53,7.18-.12.95-.43,4.38,1.57,2.41l2.99-2.97v9.55s-5.25-5.95-5.25-5.95l-.76,8.34-1.5-5.96h-1.46c.6,3.17-3.16,2.49-4.94,3.57-1.48.89-1.01,2.51-3.97,3.06-2.32.43-5.1-.73-7.55.52,1.12-3.17-2.41-3.33-3.31-5.25-2.31-4.93,3.38-9.62,1.77-15.05,7.4.52,4.01,6.2,4.69,6.94.58.63,3.14.73,4.29,2.04.81.91-.47,3.05-1.51,1.09l-2.98-1.69v4.77c9.61.85,15.14-2.86,10.96-10.52-2.18-3.99-1.99.42-2.82-7.56-.53-5.14-1.84-10.24-2.16-15.4l-1.5,8.36-1.5-3.58-1.5,3.58c-6.31-1.74.03-4.16-.2-6.38-.17-1.57-3.38-3.42-2.78-5.57l6.78-1.09.7-4.89-5.98,1.19,1.48-9.56-2.97,4.77c.63-2.32-2.25-4.14-2.73-5.7-.83-2.66,2.19-4.07,2.21-5.65.02-1.57-3.81-5.04-2.5-7.78l-4.48,3.59c.26-7.1,5.83-13.17,4.48-20.31-6.11-.85-.88,4.67-1.51,7.16l-2.97-2.38c1.78,3.66-4.41,6.33-4.53,6.73-1.36,4.61,2.75,3.89,3.01,4.81,1.06,3.83-1.95,5.97,3.13,9.3l-3.13,15.01,3.01-4.77c9.41,1.87,2.72,7.46,5.66,12.6l-1.96,1.75-6.69-1.21-2.27,4.77c-5.46-4.24-.76-9.75.74-14.32-5.95,1.84-7.44-1.86-8.99-2.4-.16,1.05-1.17,4.77-2.25,4.79l-.77-.63c.53-1.39,1.13-2.76,1.52-4.17-.88-.15-2.03.1-3,0,1.95-2.97.55-6.32,0-9.56-1.46-1.69-3.6-2.76-3.01-5.98-3.97-1-2.3,1.66-4.04,2.37-2.04.82-5.64.45-7.53,1.56-2.07,1.21-3.83,7.33-7.9,8.03l-.02-13.16c-5.72-.9-8,4.25-11.19,4.83-8.69,1.6-1.2-8.12,5.19-4.82l-.13-7.8-4.35-.58,3.02-3.55,2.98.58,1.51,10.16,4.47-3.58c.31,3.29-1.45,7.29,2.28,9.55,2.9.49,2.97-2.65,4.78-3.64,2.5-1.37,7.74-1.83,10.82-2.44l.14-5.88c5.42-1.03,3.08,1.42,5.98,2.39l-.71-7.19-5.26,2.4,2.95-10.73-4.33-.08-.24-7.03-5.88-.09c-.24-4.65,4.01-5.55,8.98-5.97.98.83-2.97,7.88,1.5,8.36l.03-10.75c4.27,1.62,2.72,7.68,3,10.75,3.76-.55,2.21-8.01,1.45-9.86-.53-1.31-5.56-2.03-4.68-5.52l-5.79-.16c.33-5.59,5.12-11.13.03-16.15,2.54-.82,4.04,4.02,4.16,5.08.29,2.8-4.07,8.36,1.81,7.48l1.52-11.94,4.48,3.57c-.88-5.53-6.58-9.68-2.98-15.53,2.48.18.18,3.75.57,5.99.53,3.03,2.89,5.5,3.93,8.34,5.6-2.08-2.04-6.85-.01-10.75l5.81.21c-.7,3.77,3.76,2.45,2.86,5.97-1.06,4.17.16,1.42,1.75.28-1.24-3.91-1.87-7.25,1.54-10.66l-4.45,2.99c-5.1-5.99-1.89-9.8,5.32-13.1l3.65,2.34,1.51-8.36-3.74,3.58-2.25-4.77c2.09-.19,4.61.4,6.56.04,1.77-.33-.07-2.95,2.42-2.43l-2.98,14.34c4.87.89,2.52-3.56,3.37-6.27.38-1.21,2.45-2.23,2.54-3.85.18-2.96-4.93-10.35-5.92-13.79h-3c.65,5.91-6.39,13.98-14.19,13.17l-.82-3.6-4.46,2.38-2.97-6.46,5.93-4.29-1.48,5.97h2.98s.28-2.1.28-2.1l7.13-.44c-.62-3.67,1.56-3.22,4.6-4.63h-9l-1.8.85-1.2-.85h-31.5c.8,5.71-4.9,11.43,5.99,8.37-.13,2.94,1.24,6.32-2.24,8.35l-2.26-4.77c-11.18,1.37,1.16,7.72,1.54,9.19.87,3.37-3.05,5.84-2.74,7.96.26,1.75,3.29,3.62,2.81,6.09-6.31,1.28-.79,4.25-1.87,6.43-.23.46-9.95,6.96-10.19,1.98-.28-5.65-2.41-3.58-2.97-5.01-.44-1.14.07-2.74-.47-4.15-1.12-2.92-4.72-4.3-1.18-8.51,1.19-1.41,4.32-1.01,4.66-3.79.31-2.47-2.7-6.31-3.1-9.57-.54-4.42.58-8.32,1.51-12.57h-22.5c-.26,2.75-.97,4.51,3.03,5.4.89,4.96-1.58.9-4.49,3.56,5.17,4.44,1.24,9.12,1.59,13.04.6,6.79,6.63,18.85-1.61,23.44,3.35-8.48,2.14-12.59-4.52-19.7l3-6.6-7.51.58,1.52-7.77,4.48,1.21,1.51-13.16h-12c.49,3.08-2.94,4.79-3.17,7.78-.29,3.72,3.29,5.51,3.33,9.54.04,3.88-2.99,5.98-3.15,8.44-.13,1.9,1.46,3.74,1.37,5.81-.12,2.67-2.45,5.94-1.37,9.09ZM216.01,47.98v-1.17h2.99v1.17h-2.99ZM218.98,62.33l-1.47-8.36c4.19,1.13,1.65,5.99,1.47,8.36ZM373.51,299.08h1.47v3.58h-1.47v-3.58ZM369.75,352.88c.97.4.97.8,0,1.2v-1.2ZM378.75,229.73c.97.4.97.8,0,1.2v-1.2ZM379.49,233.31l-1.5,8.37c-6.29.72-2.64-7.79,1.5-8.37ZM365.25,234.51c.97.4.97.8,0,1.2v-1.2ZM361.49,287.11h-1.47v-3.58h1.47v3.58ZM360.75,242.88c.97.4.97.8,0,1.2v-1.2ZM363,263.21l-2.26,3.61-3.62-.13-1.62-2.9,7.49-.58ZM349.51,264.4h2.99v2.38h-2.99v-2.38ZM351.75,207.01v-1.2c.97.4.97.8,0,1.2ZM355.48,181.91l1.51,4.77h-1.47s-1.51-4.77-1.51-4.77h1.47ZM351.75,184.29c.97.4.97.8,0,1.2v-1.2ZM352.5,192.66l.75-2.4.75,2.4h1.49s.03-2.39.03-2.39h1.47c.43,2.2-.07,4.19-2.98,4.78v-2.39h-1.51v2.38s-2.99,0-2.99,0v-2.38s2.99,0,2.99,0ZM313.49,136.47c-1.01,2.68.9,8.19-2.98,9.56l.03-7.61-3.04-1.94h5.99ZM297.75,88.64v-1.2c.97.4.97.8,0,1.2ZM306.75,6.14c.97.4.97.8,0,1.2v-1.2ZM295.51,13.32h1.47v3.58h-1.47v-3.58ZM290.98,21.68l2.99-2.99-1.57,4.14-4.39-3.52,2.97,2.38ZM290.99,26.47v3.58s-1.48,0-1.48,0l-1.52-3.57h2.99ZM223.49,267.99l-1.47-8.36c4.35,1.07,1.57,5.93,1.47,8.36ZM226.49,192.65h-2.99v-2.38h2.99v2.38ZM230.99,212.98h-2.98s-1.52-3.57-1.52-3.57h4.49s0,3.57,0,3.57ZM226.51,166.35v-1.17h2.99v1.17h-2.99ZM229.49,169.95v3.58h-1.47v-3.58h1.47ZM234.01,177.11v-2.38h1.47v2.38h-1.47ZM238.49,156.79h-2.99s0-4.78,0-4.78c2.99.64,3.36,2.55,2.98,4.78ZM237.01,111.35v-1.77s2.25-1.8,2.25-1.8l.74,3.58h-2.99ZM239.99,190.27v3.58c-1.99,1.59-9.18-4.87,0-3.58ZM238.5,207.02l-1.48,11.94c.51-3.13-6.28-11.91,1.48-11.94ZM239.99,221.36l-.74,2.38-2.26-2.38h2.99ZM239.99,204.61h-1.47s-1.52-3.57-1.52-3.57h2.99s0,3.57,0,3.57ZM234.75,267.99v-1.2c.97.4.97.8,0,1.2ZM235.51,229.72v-1.77s2.25-1.8,2.25-1.8l.74,3.58h-2.99ZM238.51,247.65c-2.38-1.9,2.11-5.47,4.49-3.58s-2.11,5.47-4.49,3.58ZM244.49,259.61h-1.47v-3.58h1.47v3.58ZM240,229.72l1.51-5.97h2.98s0,5.99,0,5.99h-4.49ZM246.01,146.03l4.47,2.39,3-4.78.03,4.78c1.97.69,1.56-5,4.48-2.38.63.56-.43,3.5-1.1,4.52-.57.86-7.63,6.42-8.63,6.23-4.96-2.92-2.03-6.64-2.26-10.75ZM253.49,135.26h-1.47v-2.38h1.47v2.38ZM257.25,174.73v-1.2c.97.4.97.8,0,1.2ZM254.25,166.36v-1.2c.97.4.97.8,0,1.2ZM251.99,165.17v4.77h-1.47v-4.77h1.47ZM247.51,173.52v-4.77h1.47v4.77h-1.47ZM248.99,239.3v2.38h-1.47v-2.38h1.47ZM246,161.57l-.38,6.41-4.11,1.96c-.77-3.88-2.98-9.51,4.49-8.36ZM241.51,217.76v-2.38h2.99v2.38h-2.99ZM242.99,218.97v2.38h-1.47v-2.38h1.47ZM241.49,209.4v4.77h-1.47v-4.77h1.47ZM240.01,116.13v-3.58h1.47v3.58h-1.47ZM245.25,222.55v-1.2c.97.4.97.8,0,1.2ZM246.01,251.25c-.4-2.23-.01-4.14,2.97-4.78.4,2.23.01,4.14-2.97,4.78ZM252.1,180.76c.94-.31,2,.04,2.9-.06-.49-1.2-.68-2.44-1.5-3.58h4.49s0,3.57,0,3.57c-.97.11-2.04-.1-3,0,2.04,5.02,6,5.26,5.99,9.57h-4.41c-.17-2.2.35-5.28-3.06-5.98l-1.51,13.16,6.02-1.78-5.28,5.38c-5.82-6.44-1.36-13.21-.65-20.29ZM260.99,192.67v2.38h-1.47v-2.38h1.47ZM253.51,221.36h2.99v2.38h-2.99v-2.38ZM253.51,243.48l2.98-1.8v2.39s-2.98-.59-2.98-.59ZM253.51,239.28l1.51-5.96h1.47l1.51,5.96h-4.49ZM259.5,259.61l1.52-3.57h1.47s0,3.57,0,3.57h-2.99ZM273.8,234.64c-6.54.16-5.6,4.93-8.87,9-.56.69-4.14,2.32-4.69,4.01-3.24-3.89,2.28-3.5,4.44-6.02,4.15-4.83,1.04-11.39,9.81-11.91l-.68,4.92ZM260.99,217.76h-1.47v-1.77s2.25-1.79,2.25-1.79l-.78,3.56ZM262.51,218.97c2.21-.26,1.98,3.39,2.24,4.77.38,2,1.2,3.9.74,5.98-3.54,1.01-4.04-2.93-4.1-4.48-.09-2.28.9-4.08,1.13-6.26ZM267.01,207.01h2.99s0,1.77,0,1.77l-2.97,1.81v-3.58ZM270.75,223.75v-1.2c.97.4.97.8,0,1.2ZM270.75,218.96v-1.2c.97.4.97.8,0,1.2ZM278.99,233.31h-1.47c-.97-2.23-.97-3.74,0-5.97h1.47s0,5.97,0,5.97ZM278.99,215.37l-2.97-10.76c5.36,2.13,3.24,7.12,2.97,10.76ZM287.99,246.46h-1.47v-2.38h1.47v2.38ZM288.01,235.11l2.98-1.8v2.39s-2.98-.59-2.98-.59ZM290.98,217.76l-2.97-2.38c.27,2.53-3.02,3.67-6.01,3.57-.5-6.75,5.04-4.92,10.48-5.97l-1.5,4.77ZM280.51,201.02v-2.38h1.47v2.38h-1.47ZM284.25,193.86v-1.2c.97.4.97.8,0,1.2ZM285.75,185.49v-1.2c.97.4.97.8,0,1.2ZM285.75,178.31v-1.2c.97.4.97.8,0,1.2ZM286.51,201.02v-3.58h1.47v3.58h-1.47ZM294,165.17l5.97.58c-9.13,3.37.58,18.61-.31,19.53-2.54,2.6-3.55,2.05-2.82,7.86l-2.83,7.89,1.54-13.73-4.56-.62c.85-2.3,4.67-1.78,5.23-4.6.94-4.72-3.84-5.24-3.81-5.59.26-2.54,5.35-7.39,1.57-11.32ZM299.25,173.53v-1.2c.97.4.97.8,0,1.2ZM294.01,229.72v-2.38h2.99v2.38h-2.99ZM296.25,235.7v-1.2c.97.4.97.8,0,1.2ZM295.51,222.54v-1.17h2.99v1.17h-2.99ZM292.49,172.33h-2.99v-2.38h2.99v2.38ZM290.25,178.31v-1.2c.97.4.97.8,0,1.2ZM291.01,202.23h2.99s-.74,4.77-.74,4.77c-2.31-1.29-2.61-2.57-2.25-4.77ZM299.85,336.03l-5.85.12-.07-6.4c6.03-4.36,8.02,1.76,5.92,6.28ZM299.98,233.3h-1.47s0-3.57,0-3.57h2.99s-1.52,3.57-1.52,3.57ZM298.51,217.76v-3.58h1.47v3.58h-1.47ZM305.99,253.63h-1.47v-2.38h1.47v2.38ZM308.25,267.99v-1.2c.97.4.97.8,0,1.2ZM309.01,222.55v-3.58s1.48,0,1.48,0l1.52,3.57h-2.99ZM314.99,253.63h-1.47v-2.38h1.47v2.38ZM314.99,212.98h-1.47v-2.38h1.47v2.38ZM317.25,205.81v-1.2c.97.4.97.8,0,1.2ZM315.01,189.07l1.51-4.78c2.99.64,3.36,2.54,2.98,4.78h-4.49ZM319.49,227.34v2.38h-1.47v-2.38h1.47ZM320.99,233.31h-2.99v-2.38h2.99v2.38ZM323.99,282.33h-1.47v-3.58h1.47v3.58ZM321,202.21l1.51-4.77h1.47s0,4.77,0,4.77h-2.99ZM322.51,185.48v-3.58h1.47v3.58h-1.47ZM326.99,305.05h-1.47v-2.38h1.47v2.38ZM326.99,230.93l5.99-1.2v3.58s-5.98,0-5.98,0v-2.38ZM330,201.02c-3.52.79-3.57-1.55-3.76-3.54-.24-2.55.76-4.7.78-7.21,4.31,1.64.28,7.56,2.98,10.75ZM329.25,205.81v-1.2c.97.4.97.8,0,1.2ZM329.25,223.75v-1.2c.97.4.97.8,0,1.2ZM328.51,226.14h1.47v3.58h-1.47v-3.58ZM330.01,217.76v-3.58h1.47v3.58h-1.47ZM331.51,222.55v-3.58h1.47v3.58h-1.47ZM330.75,251.25v-1.2c.97.4.97.8,0,1.2ZM333.02,244.08h1.47s0,3.57,0,3.57h-2.99s1.52-3.57,1.52-3.57ZM333.01,177.11v-2.38h1.47v2.38h-1.47ZM333.75,267.99v-1.2c.97.4.97.8,0,1.2ZM335.99,320.58h-2.99v-1.17h2.99v1.17ZM341.25,283.53v-1.2c.97.4.97.8,0,1.2ZM341.99,266.78h-1.47v-2.38h1.47v2.38ZM343.49,263.2h-1.47v-3.58h1.47v3.58ZM342.01,258.42v-1.77s2.25-1.8,2.25-1.8l.74,3.58h-2.99ZM344.25,239.29v-1.2c.97.4.97.8,0,1.2ZM344.62,229.49c-.36.49-4.78,1.34-4.14,3.81l-2.23-2.4c-1.62,4.9-7.84,1.91.17-1.06,2.69-1,3.91-.02,5.83-3.7,1.46.19.93,2.58.36,3.35ZM343.51,223.74v-2.39s2.99,2.38,2.99,2.38h-2.99ZM346.49,215.38v1.77s-2.25,1.79-2.25,1.79l.78-3.56h1.47ZM345.75,210.59v-1.2c.97.4.97.8,0,1.2ZM347.99,195.66v1.77h-1.47l-.78-3.56,2.25,1.79ZM343.51,204.63h2.99v1.17h-2.99v-1.17ZM340.51,193.86h1.47v3.58h-1.47v-3.58ZM343.5,198.65l-1.51,5.96h-1.47s0-5.97,0-5.97h2.99ZM339.01,181.9h1.47v4.77h-1.47v-4.77ZM339,222.56l-1.52,3.57h-1.47s0-3.57,0-3.57h2.99ZM337.49,214.18c-1.26,1.18-2.98.69-2.8-1.69.2-2.73.38-5.13-.18-7.87,4.7,1.51,2.66,6.46,2.98,9.56ZM336.01,173.53h1.47v4.77h-1.47v-4.77ZM336.76,180.72l-.78,3.56h-1.47v-1.77s2.25-1.79,2.25-1.79ZM332.99,172.33l.76-7.16c3.98,2.34,1.75,5.49-.74,7.78l-2.99-3,2.97,2.38ZM327.01,163.98h2.99v1.17h-2.99v-1.17ZM325.51,166.36h1.47s1.51,7.16,1.51,7.16h-2.99s0-7.16,0-7.16ZM328.49,178.32v2.38h-1.47v-2.38h1.47ZM328.5,184.29c.46-.33.45-3.7,2.99-3.59l1.5,5.98-4.49-2.39,1.49,4.77-4.42-2.43c-1.44-3.45,2.33-1.91,2.93-2.34ZM328.49,214.19l-1.48,7.16c.65-4.06-7.82-5.56,1.48-7.16ZM321.01,165.17h2.99v3.58h-2.99v-3.58ZM318.75,165.16c.97.4.97.8,0,1.2v-1.2ZM318.02,169.95c2.26-.44,1.03,1.14,2,1.91,1.82,1.45,5.06,1.49,3.97,4.65-.76,2.21-6.64,1.94-8.98,1.8-.97-3.29,2.01-5.45,3.01-8.36ZM314.25,180.7c.97.4.97.8,0,1.2v-1.2ZM316.5,190.28l-2.98,8.36c-.12-2.12-2.68-9.09,2.98-8.36ZM312.76,218.94l-2.25-1.79v-1.77h1.47l.78,3.56ZM311.99,186.69v3.58h-1.47v-3.58h1.47ZM310.49,181.9l-2.97-8.37c4.87,1.66,3.71,5.07,2.97,8.37ZM307.51,169.95h2.99v2.38h-2.99v-2.38ZM310.49,192.67v1.17s-5.97.62-5.97.62c1.59-1.86,3.21-2.08,5.97-1.79ZM305.25,198.64v-1.2c.97.4.97.8,0,1.2ZM305.25,222.55v-1.2c.97.4.97.8,0,1.2ZM303.75,168.75c.97.4.97.8,0,1.2v-1.2ZM303.01,229.74h2.99v1.17h-2.99v-1.17ZM302.25,165.16c.97.4.97.8,0,1.2v-1.2ZM300.75,177.12c.97.4.97.8,0,1.2v-1.2ZM302.75,208.85c0,.64-1.07,4-1.27,4.14-3.35,2.25-3.78-4.91-3.72-5.91.12-2,2.03-2.96,2.26-4.84,2.06-.03,2.74,5.63,2.74,6.61ZM300.01,131.68l2.97,1.81v1.77s-2.98,0-2.98,0v-3.58ZM299.99,136.45l-.02,4.1,3,.06-4.46,3.02c-.19-1.62-.32-3.88-1.44-5.21-.94-1.11-3.62-.08-3.06-1.95l5.99-.02ZM293.99,146.04l.78,3.56-2.25-1.79v-1.77h1.47ZM292.51,143.63v-3.58h1.47v3.58h-1.47ZM292.51,132.88h2.99v2.38h-2.99v-2.38ZM289.49,120.93v1.77s-2.98,1.81-2.98,1.81v-3.58s2.98,0,2.98,0ZM287.99,125.71v3.58h-1.47v-3.58h1.47ZM286.51,131.69h2.99s-.74,5.97-.74,5.97c-2.55-1.44-2.49-3.68-2.25-5.97ZM288.76,140.06c1.33,6.2-.18,12.16,3.76,17.93,4.53,3.07,1.91-8.66,5.97-8.36-2.27,5.36-.06,9.18,1.51,14.34l-7.49-2.38-3,4.78c.96-5.38-.9-9.15-3.93-13.73l3.18-12.56ZM285.01,169.95h1.47v2.38h-1.47v-2.38ZM284.99,163.97v2.38h-1.47v-2.38h1.47ZM282.75,119.73c.97.4.97.8,0,1.2v-1.2ZM282.01,128.1h1.47v3.58h-1.47v-3.58ZM267.02,117.34l1.47,8.36c-4.19-1.13-1.65-5.99-1.47-8.36ZM279.01,120.93c2.81-.22,1.6,3.3.99,4.43-.14.26-1.53.31-1.92.82-3.48,4.52-2.81,2.01-5.17,3.87-2.83,2.23-3.38,6.55-10.39,7.6l3.54-5.48,12.96-11.25ZM272.99,146.02h-2.99s1.51-5.97,1.51-5.97h1.47s0,5.97,0,5.97ZM263.25,124.51v-1.2c.97.4.97.8,0,1.2ZM263.99,112.56v1.77s-2.98,1.81-2.98,1.81v-3.58s2.98,0,2.98,0ZM271.35,156.6c-.26-3.8,4.92-3.59,3.17-8.18l2.24,4.79,3.74-4.79c-1.64,3.26,5.33,4.38,2.99,7.13-.29.34-4.32.32-5.6,1.55-.79.76-1.14,3.14-2.38,4.64-1.31,1.59-4.95,4.33-5.31,5.45-.68,2.08,2.23,4.92,2.81,7.52.95.11,2.03-.08,3,0-1.14,2.37-.93,5.88,2.27,7.16,3.79,1.52.75-4.14,3.72-3.57l-1.46,6.61,2.96-.63c1.34,9.65-15.4,10.04-9,20.32l-3.74-3.56c-1.4,1.98-11.38,9.13-13.53,9.52-3.02.55-2.8-1.69-2.26-2.97.3-.7,3.36-1.17,4.54-2.34,3.25-3.24,7.45-8.27,6-12.6-.41-1.21-4.3-2.42-1.48-5.97l2.97,2.38,1.19-4.55-2.72-.83,3.07-6.57h2.98s-3,4.21-3,4.21l4.5,4.16c.53-3.7.99-6.34,0-10.76-.94-.11-2.02.11-3,.01v-4.8c-6.44-1.35-5.54,3.75-12,2.4.39-6.17,6.05-8.91,2.99-15.53l10.35-.19ZM278.25,166.36v-1.2c.97.4.97.8,0,1.2ZM261.01,180.7v-3.58h2.99v3.58h-2.99ZM265.51,178.31v-3.58h1.47v3.58h-1.47ZM258,106.58l-1.63,5.27,3.18,1.31-3.12,5.89c3.42,1.12,4.42,3.74,4.56,6.66-2.91-1.7-3.86-2.31-7.48-1.18-2.26-6.38,1.41-11.8-1.5-17.94h5.99ZM247.51,107.77h1.47v3.58h-1.47v-3.58ZM247.51,132.88c2.79-.19.78,2.55,1.93,4.51.12.2,5.16,1.53,2.55,3.85-2.87,2.55-7.27-6.28-4.48-8.36ZM245.99,125.71c2.38,1.9-2.11,5.47-4.49,3.58s2.11-5.47,4.49-3.58ZM244.49,107.77v3.58h-2.99v-3.58h2.99ZM266.98,70.7h-1.47s0-3.57,0-3.57h2.99s-1.52,3.57-1.52,3.57ZM280.49,38.42c-2.99-.64-3.37-2.55-2.97-4.78,2.99.64,3.37,2.55,2.97,4.78ZM281.99,33.63h-1.47v-2.38h1.47v2.38ZM284.99,25.26h-1.47v-2.38h1.47v2.38ZM285.76,13.33l-.78,3.56h-1.47v-1.77s2.25-1.79,2.25-1.79ZM279.75,13.31c.97.4.97.8,0,1.2v-1.2ZM281.99,26.46c-2.79.26-1.07-2.61-1.44-4.2-.45-1.89-1.56-3.47-1.53-5.36,4.65,1.45,2.7,6.39,2.97,9.56ZM264.01,2.56l4.48-1.2.02,5.98h4.49s.01-8.38.01-8.38h4.49s1.5,11.96,1.5,11.96c-.44.35-8.39-1.76-9.09.77.05,5.66,3.1,12.25,3.16,17.74.03,2.39-.22,1.92-3.05,1.83-1.87-4.01-.26-9.4-.76-12.6-.15-.94-1.55-1.91-1.78-3.26-.81-4.67.02-8.26-3.47-12.84ZM269.99,34.84v2.38h-1.47v-2.38h1.47ZM248.26,63.51c.57.14.76,1.87,1.1,2.01,6.21,2.62,4.56-5.7,5.56-9.8.23-.97-1.74-.6-2.92-.56-.08,1.59.07,3.19,0,4.78h-2.99s0-4.78,0-4.78c.99-.05,2,.03,3,0,.08-1.58-.08-3.19.02-4.77l2.94.62-1.43-2.92c7.04-.9,8-7.03,16.46-6.09l-1.51,8.36-3.73-2.4-.76,3.61-4.48-1.22c-2.46,6.03-4.73,16.96,2.84,20.86l-1.36,4.26-4.47-3.58c-.42,1.29-.83,4.48-2.45,4.83-7.24,1.54-5.85-4.27-7.29-8.45-.51-1.48-5.45-6.55,1.48-4.78ZM244.51,53.97h1.47v4.77h-1.47v-4.77ZM244.49,83.86l-7.49,4.77c.29-4.34,2.04-5.54,7.49-4.77ZM236.25,26.47c.97.4.97.8,0,1.2v-1.2ZM235.51,34.84h1.47v2.38h-1.47v-2.38ZM235.51,43.21h2.99v2.38h-2.99v-2.38ZM236.99,128.1l-.74,4.77c-2.31-1.29-2.61-2.57-2.25-4.77h2.99ZM233.25,119.73c.97.4.97.8,0,1.2v-1.2ZM231.76,198.63l-2.24-1.8v-1.77s2.98,0,2.98,0l-.74,3.58ZM230.25,185.49v-1.2c.97.4.97.8,0,1.2ZM229.49,129.28h-1.47s0-5.97,0-5.97c4.18.91,1.51,3.4,1.47,5.97ZM226.51,102.98v-5.97s1.48,0,1.48,0l1.51,5.96h-2.99ZM228.75,120.92v-1.2c.97.4.97.8,0,1.2ZM229.49,94.61h-1.47s-1.5-7.17-1.5-7.17c3.82.93,3.07,4.53,2.97,7.17ZM227.99,76.68h-1.47c-.71-2.52-2.67-4.13.74-5.97l.73,5.97ZM225.01,65.92c1.61-2.8-4.94-10.42,1.48-9.57-.8,2.72,2.97,8.3-1.48,9.57ZM226.49,47.99l-1.51,5.96h-1.47s0-5.96,0-5.96h2.99ZM227.99,144.84v3.58s-2.98,0-2.98,0l-1.52-3.58h4.49ZM221.99,244.07l1.5,7.17c-3.01,2.54-8.45-8.24-1.5-7.17ZM223.49,234.5h-5.99c1.91-6.18-2.62-16.64-1.58-22.09.56-2.91,2.62-3.37,6.06-3.01l1.5,25.1ZM221.99,174.72h-1.47v-2.38h1.47v2.38ZM214.49,21.68c.4,2.23.01,4.14-2.97,4.78-.4-2.23-.01-4.14,2.97-4.78Z"/>
  <path d="M286.5,112.55c-.37-.13-.98.09-1.5,0,.3-1.09-.78-3.61.75-3.6,1.33.23.88,2.7.75,3.6Z"/>
  <path d="M273,185.49c-.41,2.83-.9,5.58-1.51,8.37l-5.99-1.2.19-2.24,7.31-4.93Z"/>
  <path d="M318-2.23c-.19,2.34.25,5.38,2.24,7.18,3.27,2.96,2.77-2.91,5.24-2.39.21,1.86,1.85,3.28,3.02,4.77h-2.98s-1.52,3.58-1.52,3.58c2.75.4,4.96-1.31,4.5-3.58.38.48,2.8-.04.89,3.64-1.51,2.9-5.21,2.94-5.41,5.92-2.31.42-.94-1.57-2.49-2.44-1.25-.7-3.52-.54-4.65-1.39-2.48-1.88-1.24-12.17-1.85-15.29h3Z"/>
  <path d="M334.5-2.23l-2.25,7.18c-1.8-.04-.61-6.01.75-7.18h1.5Z"/>
  <path d="M340.5-2.23c.32,2-.12,3.57-2.25,4.76l-2.25-1.8,1.5-2.96h3Z"/>
  <path d="M310.5-2.23h1.5-1.5Z"/>
  <path d="M308.63,42.99c-1.83,1.38-6.4-2.27-2.62,5.01l4.47-1.23c3.14,5.56,2.06,9.76,3.01,15.55l-4.48-2.38-.02,7.76,2.99-4.17c.89,2.93,2.53,6.99,1.56,9.94-.42,1.27-3.7,1.09-4.35,2.74-1.1,2.78-2.31,5.31-3.12,7.31-.91,2.26.83,8.31-4.57,7.5l6-14.96-2.78-1.13c-.15-2.34,2.29-6.78,2.2-8.42-.13-2.61-4.61-3.95-3.94-6.56,5.88.58,8.02-4.49,9-8.37l-4.48,3.58-1.5-4.77c1.39,4.91-3.17,2.94-6.11,5.31-1.28,1.03-.6,3.38-2.88,3.05-.37-2.26-2.59-4.68-1.09-6.91.17-.26,6.37-1.95,1.08-4.49-3.64-1.75-6.93,3.77-9.7,4.28-6.18,1.14-5.06-3.82.69-5.17,2.34-.55,5.68.09,7.85-.84,1.71-.74,1.55-2.8,3.55-3.28.91-.22,2.56.68,3.67.21.74-.31,4.13-4.87,6.69-5.31,1.69.52-.86,5.56-1.13,5.76ZM302.99,45.6h-2.99s0,4.77,0,4.77h1.47s1.51-4.77,1.51-4.77Z"/>
  <path d="M330,120.92l.75,2.4c1.42.04.53-1.49.75-2.4.97.08,2.05-.11,3,0-.62,2.58-.68,5.7-1.5,8.37-.94.11-2.42-.2-3,0-1.3-4.48-.07-5.65,0-8.37Z"/>
  <path d="M330,129.29c.19.67-.11,1.61,0,2.39,4.42.49,2.44-.59,2.99-2.39l1.51,3.59,4.47-3.58c2.45,5.46,2.86,9.49-5.96,7.75,5.62,8.3,9.7,1.22,9-5.37h5.97s0,4.77,0,4.77l-4.48-3.58c2.79,8.12-.16,5.83-3.13,9.2-.96,1.09-.67,3.57-2.14,3.97l-3.78-.83.04-3.98c-8.69,1.38-8.31-4.03-1.52-6.57l-4.49.6c-.91-2.02-1.69-4.87,1.49-5.97ZM331.49,140.05v-2.38h-1.47v2.38h1.47Z"/>
  <path d="M330,120.92c.01-.43-1.5-1.71-1.37-3,.29-3.07,12.38-12.25,13.36-11.35-2.35,4.9-2.2,6.57-1.86,11.41.07.96-.91,1.94-.88,2.39s4.64,1.03,2.75,4.13c-5.11-.13-2.16-2.94-7.49-3.58.77-3.23,3.53-5.67,2.25-8.38-2.88,3.06-4.31,4.47-5.25,8.38h-1.5Z"/>
  <path d="M351,153.2l-5.99-1.19c-.24,2.54-.69,3.92,2.98,3.6l-4.48,4.76.03-11.11,13.45-11.59c1.96,5.28-4.13,8.74-8.98,10.77v1.17c3.7-.32,3.19,1.06,2.99,3.6.06-.18,2.63-1.72,1.51-3.58l4.48,2.38,1.49-7.17,1.51,10.13c-.48,1.65-9.91.22-1.39,3.72l-4.84,9.32-7.27,5.51c2.31-2.64,2.77-5.97,4.5-8.75.55-.88,5.52-1.1,2.26-4.39l-5.24,5.97c-1.69-4.01-2.3-5.23,1.48-8.36-.21.38-.45,2.52.75,2.4,1.45.03.49-1.51.75-2.4.02-.06,1.47.16,1.47-.6l-1.47-.6c.3-1.04-.32-2.6,0-3.59Z"/>
  <path d="M351,157.99c-.02.11-1.44-.12-1.5,0,.38-.31.17-1.45,1.5-1.2-.11.38.09.81,0,1.2Z"/>
  <path d="M324.02,99.39l2.96-2.37c-.73,1.86,2.47,2.35,2.67,2.67,1.33,2.2-3.4,6.2.34,6.88,3.33-3.97,3.72-4.54,1.51-9.55l7.5-1.19c.39,1.95-2.51.7-3.5,2.61-1.33,2.56-.28,6.28-1.7,8.17-1.13,1.51-4.22,1.43-5.79,2.33-1.07.61-1.56,4.87-4.07,1.74s-3.06-11.04-2.92-14.86l3,3.58ZM325.49,106.57v-2.38h-1.47v2.38h1.47Z"/>
  <path d="M366,155.59c-.48-.31-3.1.72-3.06-.65l3.06-5.33c-.23,1.93.33,4.1,0,5.98Z"/>
  <path d="M364.5,144.83c-.05-.95-2.3-3.06-1.49-4.78h4.49c.25,1.12-.29,2.58,0,3.58-1.67-.21-1.42,1.14-1.5,1.2-.24.18-1.41-.18-1.5,0Z"/>
  <path d="M369,152.01c-1.31.02-2.07-1.68-3-2.39s-2.96-.98-3.13-2.05c-.22-1.39,1.64-2.56,1.63-2.73l.75,1.17c.93,0,.69-1.13.75-1.17.21-.13,1.75.16,1.5-1.2.98,3.37,1.54,4.28,1.5,8.37Z"/>
  <path d="M369,152.01c1.95-.04.49-2.89,2.99-2.39v11.96s-4.46-.62-4.46-.62c2.72,2.39.61,5.19-.02,7.78l4.48-2.38-.7,6.01c-7.06,3.5-5.4-4.84-5.8-7.64-.2-1.41-1.95-2.66-1.97-3.75s2.11-3.29,2.47-5.38c.9.57,1.53,1.43,1.53,2.38h1.46c.05-1.98,0-3.98.01-5.97Z"/>
  <path d="M377.99,177.12c-.86,2.74-1.91,16.72-5.24,16.71-6.51-3.61-1.8-7.98-2.12-11.18-.13-1.33-5.49-1.19-4.63-3.73.51-2.07,10.07-1.61,11.99-1.8ZM375,181.91c-4.82-.92-3.01,5.15-4.49,7.16,4.82.92,3.01-5.15,4.49-7.16Z"/>
  <path d="M356.98,79.07c-2.63,1.72-2.57-.23-2.94-1.82-.6-2.57-1.76-10.72-1.69-13.17.06-2,4.63-1.9,3.17-5.33l2.59,10.19c.12,2.02.32,9.19-1.12,10.13Z"/>
  <path d="M336,42.01v-2.38c5.81-.52,2,1.89,1.5,3.58l-1.5-1.2Z"/>
  <path d="M336,42.01l1.5,1.2c-.3,1,.22,2.47,0,3.6-5.89-2.73-5.61,1.47-8.32,3.59-1.26.99-3,.25-3.75.69-1.75,1.03-.3,3.8-4.42,2.87-.89-6.18,4.14-6.08,7.91-8.32,2.13-1.27,2.27-4.53,7.09-3.63Z"/>
  <path d="M322.85,94.32c-1.54-1.3-1.9-3.91-1.85-5.67l4.48,2.38.71-3.39,3.04-.09,3.74-7.28c.44,6.05-1.18,11.12-6.71,15.44-.9-.69-2.73-.81-3.43-1.4Z"/>
  <path d="M318.01,25.26c2.54.5,1.9-5.3,5.25-2.4,2.84,2.46.54,5.49.72,8.39h-8.97s1.51-9.57,1.51-9.57l1.5,3.58ZM321.75,26.47v1.2c.97-.4.97-.8,0-1.2Z"/>
  <path d="M356.99,9.73c1.43,5.26-2.76,2.94-6.48,4.77-1.57.77-1.01,3.8-7.01,2.39l1.51-5.97,4.46,2.38c-.26-3.2,4.1-3.65,7.51-3.57Z"/>
  <path d="M379.49,165.16c-7.52-4.25-1.23-12.92-2.97-19.12,2.17-.11,2.75,4.43,2.87,5.58.42,4.01-.73,9.3.11,13.55Z"/>
  <path d="M322.49,37.22l-2.97-2.38c-3.19,4.68,1.76,2.72,1.52,5.25l-4.53,6.7-1.51-13.15,7.48,3.58Z"/>
  <path d="M349.49,112.55c1.66,11.2-7.65,11.16-5.98,0h5.98Z"/>
  <path d="M340.49,14.51l-3.01,7.16c-2.51.53-.81-2.1-2.22-2.41-5.19-1.14-2,3.2-6.75,2.42l-1.51-3.57,13.49-3.59Z"/>
  <path d="M323.6,71.62c-.19.31-6.26,4.62-7.09,3.86l1.51-8.36,2.97,3.58,1.53-7.16c2.8.1,1.65,7.19,1.08,8.08Z"/>
  <path d="M358.49,39.62c2.54,2.12-2.76,3.96-2.87,4.35-.39,1.46,1.13,7.02-4.62,6.4l.35-6.91c2.4.23,4.9-5.7,7.13-3.84Z"/>
  <path d="M322.51,43.2c1.39-4.06,2.33-8.1,3.39-12.24.29-1.15.53-3.59,2.58-3.3.35,5.91,1.08,11.93-5.97,15.54Z"/>
  <path d="M337.5,6.14l-1.5,1.2-4.49,5.97,3.01-8.36c2.78-.65,2.49.98,2.98,1.19Z"/>
  <path d="M337.5,6.14c.79.34,1.56.7,2.25,1.17l5.24-4.75c-.4,4.91-1,8.57-8.22,8.38-1.26-.06-1-2.76-.77-3.6.02-.08,1.76.16,1.5-1.2Z"/>
  <path d="M294,55.17c-3.61,2.85,1.66,11.49-4.49,10.75.51-3.57-2.49-10.68,4.49-10.75Z"/>
  <path d="M346.5,37.23c.32-.24.55-3.6,5.99-3.59v8.36s-5.99-4.78-5.99-4.78c.39,1.2-1.08,1.73-1.5,2.39l-1.5-1.2c.81-.92,2.61-.91,3-1.2Z"/>
  <path d="M345,39.62c-1.04,1.61-.27,4.21-4.5,3.58.66-1.79,1.66-3.24,3-4.77l1.5,1.2Z"/>
  <path d="M293.99,95.81l1.5-3.58-2.24,8.36c-2.76-4.34-5.06-6.26-3.73-11.95,3.43.86-.42,6.61,4.47,7.17Z"/>
  <path d="M331.5,56.36c-.16-1.57.09-3.2.01-4.78h1.47s1.51,4.77,1.51,4.77c-.98.08-2.02-.08-3,.01.26,2.64,3.69,7.73-1.49,9.56l-1.5-9.55c.98-.07,2.01.08,2.99,0Z"/>
  <path d="M364.49,229.72c-5.68.86-1.54-3.78-1.58-6.46-.02-1.74-1.97-3.52-1.4-5.49,5.26,2.05,2.31,8.25,2.98,11.95Z"/>
  <polygon points="350.78 107.66 346.73 107.91 345.01 111.35 343.81 106.77 350.99 102.99 350.78 107.66"/>
  <path d="M337.5,62.34l-4.49,9.55c-.34-2.42.27-4.65,1.07-6.97.73-2.12-.49-3.12,3.42-2.59Z"/>
  <path d="M291,76.69v3.58c-3.6.45-6.36-.56-5.99-3.58h5.99Z"/>
  <path d="M307.49,22.88c.57,2.87-.71,5.07-4.49,4.77v-4.77s4.49,0,4.49,0Z"/>
  <path d="M320.99,86.24h-2.99s0-7.17,0-7.17c3.83.93,3.05,4.53,2.98,7.17Z"/>
  <path d="M356.99,100.6c.07,2.64.85,6.24-2.98,7.17v-7.17s2.98,0,2.98,0Z"/>
  <path d="M380.99,198.64c-4.98-1.53-2.47-5.35-1.47-8.36,3.28.46.73,6.28,1.47,8.36Z"/>
  <rect x="295.51" y="100.6" width="2.99" height="5.97"/>
  <polygon points="374.99 83.86 373.48 91.02 372.01 91.02 372.01 83.86 374.99 83.86"/>
  <path d="M292.49,67.11l3,13.16c-4.69-1.1-1.52-4.52-2.6-6.82-.81-1.71-7.62-6.62-.4-6.33Z"/>
  <polygon points="347.99 43.21 346.48 50.37 345.01 50.37 345.01 43.21 347.99 43.21"/>
  <path d="M356.99,132.87c-6.35.82-.02-6.69-2.98-9.55,3.38.11,3.47,9.09,2.98,9.55Z"/>
  <polygon points="352.51 94.61 355.49 92.23 355.49 97.01 351.01 97.01 351.01 92.23 352.51 94.61"/>
  <path d="M311.26,25.29v9.52c-4.28-3.26-5.31-6.64,0-9.52Z"/>
  <path d="M318.01,63.53c-.92-.73.68-4.74,2.24-4.76,4.39-.04.55,6.98-2.24,4.76Z"/>
  <path d="M346.49,27.67l-1.51,5.96h-1.47c-.98-2.22-.93-3.74,0-5.97h2.98Z"/>
  <path d="M337.48,37.22h-1.47s0-7.17,0-7.17c4.64,1.29,2.45,4.3,1.47,7.17Z"/>
  <path d="M306,30.06c-1.92,1.87-1.43,6.51-4.49,7.16.74-2.05-.22-8.06,4.49-7.16Z"/>
  <rect x="372.01" y="116.14" width="2.99" height="4.77"/>
  <rect x="355.51" y="33.64" width="2.99" height="4.77"/>
  <rect x="339.01" y="58.75" width="2.99" height="4.77"/>
  <polygon points="356.99 108.97 355.48 114.94 354.01 114.94 354.01 108.97 356.99 108.97"/>
  <path d="M365.99,50.38l-2.24,9.54c-3.72-2.5-.03-3.76-.5-7.85-.29-2.46,1.59-2.78,2.75-1.69Z"/>
  <path d="M348,94.63c-1.27,2.26.76,5.3-2.99,5.97v-5.97s2.99,0,2.99,0Z"/>
  <rect x="316.51" y="50.38" width="2.99" height="4.77"/>
  <path d="M338.99,88.64c.92,2.22.98,3.75,0,5.97h-1.47s-1.51-5.96-1.51-5.96h2.98Z"/>
  <rect x="363.01" y="42.01" width="2.99" height="4.77"/>
  <path d="M341.99,99.4v3.58s-4.49,0-4.49,0c-.48-2.26,1.75-3.97,4.49-3.58Z"/>
  <polygon points="367.49 88.64 367.49 92.22 363 92.22 364.52 88.64 367.49 88.64"/>
  <path d="M382.49,6.14c.38,2.23,0,4.14-2.98,4.78v-4.78s2.98,0,2.98,0Z"/>
  <polygon points="300 62.32 300.75 65.93 302.98 63.54 302.25 68.29 296.97 65.33 300 62.32"/>
  <rect x="337.51" y="80.27" width="1.47" height="7.16"/>
  <path d="M367.49,80.27c.48,2.26-1.76,3.97-4.49,3.57l1.52-3.58h2.98Z"/>
  <polygon points="362.99 14.51 361.48 19.28 360.01 19.29 360.01 14.51 362.99 14.51"/>
  <rect x="348.01" y="26.47" width="2.99" height="3.58"/>
  <rect x="310.51" y="102.99" width="2.99" height="3.58"/>
  <rect x="360.01" y="22.88" width="2.99" height="3.58"/>
  <polygon points="356.99 16.91 355.48 21.67 354.01 21.68 354.01 16.91 356.99 16.91"/>
  <path d="M343.48,25.26h-1.47c-.3-2.1,1.06-3.96,1.5-5.96h1.47s-1.5,5.96-1.5,5.96Z"/>
  <path d="M348.01,22.88c-.4-2.23-.01-4.14,2.97-4.78.4,2.23.01,4.14-2.97,4.78Z"/>
  <polygon points="394.49 21.68 391.51 21.68 391.51 18.1 394.49 19.91 394.49 21.68"/>
  <polygon points="337.48 58.74 336.01 58.74 336.01 53.97 338.96 55.75 337.48 58.74"/>
  <path d="M374.98,99.39h-1.47c-.41-2.14.08-4.18,2.97-4.77l-1.5,4.77Z"/>
  <path d="M365.98,217.76c-2.96.27-.61-2.08-.41-3.32.24-1.53-.45-5.28,1.91-5.04l-1.5,8.36Z"/>
  <polygon points="409.5 10.91 405 10.91 406.52 7.34 407.98 7.34 409.5 10.91"/>
  <rect x="328.51" y="-1.03" width="1.47" height="5.97"/>
  <rect x="354.01" y="25.28" width="2.99" height="2.38"/>
  <rect x="349.51" y="2.56" width="2.99" height="2.38"/>
  <polygon points="361.49 91.04 361.49 94.61 360.02 94.61 358.5 91.04 361.49 91.04"/>
  <rect x="411.01" y="2.56" width="1.47" height="4.77"/>
  <rect x="303.01" y="56.36" width="2.99" height="2.38"/>
  <polygon points="403.49 18.1 403.49 21.68 402.02 21.68 400.5 18.11 403.49 18.1"/>
  <polygon points="379.49 141.24 376.5 141.24 378.02 137.67 379.49 137.67 379.49 141.24"/>
  <polygon points="392.99 173.54 392.99 177.11 391.52 177.11 390 173.54 392.99 173.54"/>
  <rect x="307.51" y="94.62" width="1.47" height="4.77"/>
  <rect x="310.51" y="108.97" width="2.99" height="2.38"/>
  <rect x="396.01" y="19.3" width="2.99" height="2.38"/>
  <rect x="373.51" y="107.77" width="1.47" height="4.77"/>
  <rect x="358.51" y="83.86" width="1.47" height="3.58"/>
  <rect x="363.01" y="107.77" width="1.47" height="3.58"/>
  <path d="M355.49,88.62c-2.03-.24-3.24.73-3.01,2.4h-1.47s1.5-4.77,1.5-4.77l2.97,2.37Z"/>
  <rect x="349.51" y="131.69" width="1.47" height="3.58"/>
  <rect x="325.51" y="75.49" width="1.47" height="3.58"/>
  <rect x="324.01" y="18.1" width="1.47" height="3.58"/>
  <rect x="387.01" y="186.69" width="1.47" height="3.58"/>
  <rect x="369.01" y="42.01" width="1.47" height="3.58"/>
  <rect x="297.01" y="119.74" width="4.49" height="1.17"/>
  <rect x="286.51" y="71.9" width="1.47" height="3.58"/>
  <rect x="333.01" y="91.04" width="1.47" height="3.58"/>
  <rect x="411.01" y="45.61" width="2.99" height="1.17"/>
  <rect x="372.01" y="76.69" width="1.47" height="2.38"/>
  <rect x="333.01" y="74.3" width="1.47" height="2.38"/>
  <rect x="385.51" y="47.99" width="1.47" height="2.38"/>
  <rect x="345.01" y="87.45" width="2.99" height="1.17"/>
  <rect x="372.01" y="71.91" width="1.47" height="2.38"/>
  <rect x="345.01" y="71.91" width="1.47" height="2.38"/>
  <rect x="298.51" y="71.91" width="1.47" height="2.38"/>
  <rect x="342.01" y="92.23" width="1.47" height="2.38"/>
  <rect x="367.51" y="112.56" width="1.47" height="2.38"/>
  <polygon points="365.99 119.72 364.51 119.72 364.51 117.95 366.76 116.16 365.99 119.72"/>
  <rect x="384.01" y="117.34" width="1.47" height="2.38"/>
  <rect x="375.01" y="123.32" width="1.47" height="2.38"/>
  <polygon points="352.49 128.09 351.01 128.09 350.24 124.53 352.49 126.32 352.49 128.09"/>
  <rect x="369.01" y="125.71" width="1.47" height="2.38"/>
  <polygon points="322.49 131.68 321.01 131.68 321.01 129.9 323.26 128.12 322.49 131.68"/>
  <rect x="382.51" y="140.06" width="2.99" height="1.17"/>
  <rect x="400.51" y="155.61" width="2.99" height="1.17"/>
  <rect x="384.01" y="26.48" width="2.99" height="1.17"/>
  <rect x="403.51" y="56.36" width="1.47" height="2.38"/>
  <rect x="336.01" y="22.88" width="1.47" height="2.38"/>
  <rect x="387.01" y="192.67" width="2.99" height="1.17"/>
  <rect x="358.51" y="214.19" width="2.99" height="1.17"/>
  <path d="M368.25,16.9c.97.4.97.8,0,1.2v-1.2Z"/>
  <path d="M353.25,58.75c.97.4.97.8,0,1.2v-1.2Z"/>
  <path d="M372.75,62.33c.97.4.97.8,0,1.2v-1.2Z"/>
  <path d="M401.25,9.73c.97.4.97.8,0,1.2v-1.2Z"/>
  <path d="M393.75,9.73c.97.4.97.8,0,1.2v-1.2Z"/>
  <polygon points="354.76 53.99 355.47 54.55 353.24 56.34 352.53 55.77 354.76 53.99"/>
  <path d="M341.25,55.16c.97.4.97.8,0,1.2v-1.2Z"/>
  <path d="M371.25,135.27c.97.4.97.8,0,1.2v-1.2Z"/>
  <path d="M341.25,128.1c.97.4.97.8,0,1.2v-1.2Z"/>
  <path d="M338.25,70.7c.97.4.97.8,0,1.2v-1.2Z"/>
  <path d="M338.25,75.49c.97.4.97.8,0,1.2v-1.2Z"/>
  <path d="M347.25,79.07c.97.4.97.8,0,1.2v-1.2Z"/>
  <path d="M365.25,75.49c.97.4.97.8,0,1.2v-1.2Z"/>
  <polygon points="341.26 45.62 341.97 46.18 339.74 47.97 339.03 47.4 341.26 45.62"/>
  <rect x="210.01" y="148.43" width="2.99" height="3.58"/>
  <rect x="211.51" y="107.77" width="1.47" height="3.58"/>
  <polygon points="211.49 123.32 211.49 125.7 208.51 123.91 211.49 123.32"/>
  <rect x="252.01" y="31.25" width="1.47" height="2.38"/>
  <rect x="171.01" y="307.45" width="1.47" height="3.58"/>
  <path d="M103.49,1006.9c.35,2.2.08,3.48-2.24,4.76l-2.22-1.77,1.48-2.98h2.98Z"/>
  <rect x="249.01" y="149.62" width="1.47" height="2.38"/>
  <path class="st0" d="M1561.15,209.38l-.2,11.53c-4.26,1.66-7.63,1.21-11.99.15l2.76-11.39,9.43-.29Z"/>
</svg>