<?xml version="1.0" encoding="UTF-8"?>
<svg id="Layer_1" xmlns="http://www.w3.org/2000/svg" version="1.1" viewBox="0 0 1920 1080">
  <!-- Generator: Adobe Illustrator 29.5.1, SVG Export Plug-In . SVG Version: 2.1.0 Build 141)  -->
  <path d="M861,205.81c2.48-2.54-.85-6.4,3.77-8.36l-.78,5.36,2.99,1.81c1.08-2.48,2.6-9.6,5.29-10.75s2.73,1.89,2.23,2.98c-.82,1.79-9.02,1.27-1.53,8.37-2.83,3.17-6.32-1.09-7.49,3.61-1.4,5.61,5.59,6.97,6.04,1.77l2.23,2.4c1.08-3.26,2.89-2.56,6.76-2.41v-3.58s-6.01,0-6.01,0l1.52-4.77,3.73,2.4,4.51-2.41c1.9,2.88,1.31,4.47-2.36,5.49l3.85,6.46c2.45-1.56,1.18-4.43,5.24-3.57l.02,3.6,9-1.21-3-8.36,8.36.91,5.13-3.3.8,3.59-8.07,1.35-1.72,5.8c5.18,1.69,6.17-2.21,6.99-2.37,8.23-1.56,10.49,1.13,7.99,7.12,3.77.35,5.38.86,6.76,3.64l2.26-3.59c-5.36,1.22-6.24-4.6-8.23-8.43-.88-1.7-.57-2.89,1.48-3.52,6.14-1.9,2.91,6.41,5.99,7.17,3.1.29,4.1.16,3.76-2.39h1.47c-.28,4.09,2.97,3.18,3.76-.02l1.5,2.41,2.23-2.4.75,2.41c5.07.78,2.44-3.2,7.53-2.45l1.49,2.43c1-6.03,19.63-1.69,20.23-2.42l.02-3.57h4.49s-1.49,10.76-1.49,10.76c4.97.9,3.44-4.13,4.62-6.24.52-.93,2.06-.9,2.36-1.33,1.01-1.41-.55-3.52,2-3.18,4.27,6.93-6.59,11.91-5.98,19.12,2.33.54,2.98-.25,4.42-.88,4.97-2.16,2.25-6.52,3.27-7.39.55-.47,5.23.44,5.05-2.5,4.55,2.71-5.17,10.29,3.74,10.77-2.94-4.86.47-6.52,1.13-9.19.97-3.94-3.12-4.96-7.11-2.76-2.28-4.83,4.18-5.18,5.1-8.32.47-1.62-.82-2.89-.67-4.05.12-.94,3.02-.68,3.16-1.51.33-1.88-4.53-7.91.63-7.63,2.86,1.53,2.18,2.77,1.92,5-.66,5.54-3.71,11.97,2.6,16.49,3.69-6.51,7.13-3,13.8-5.12,4.61-2.69.15-8.57,4.93-10.4-.11,4.06.69,8.82-1.22,12.68-1.3,2.62-4.58,1.9-4.8,4.64l.25,1.64,4.03,2.85c-3.46,5.34-3.31,18.19-6.46,22.44-1.33,1.79-1.65,1-3.04,0-5.23-3.81,1.51-11.4.75-11.96h-4.49c1.03,5.07,1.86,7.39-2.97,11.36,1.44,2.43,5.73,1.2,7.22,1.97,2.73,1.41-2.07,14.12-3.21,16.79-18.12,42.53-50.98,87.06-100.51,108.56-5.49,2.38-19.65,9.28-24.69,10.67-34.51,9.55-74.24,9.75-112.21,8.56-5.71-4.57-17.4-2.36-25.13-3.7-1.07-.19-.86-1.94-2.14-2.29-6.93-1.93-14.2-2.74-20.33-6.05-.38-.2-5.14-4.1-5.27-4.39-1.99-4.6,1.61-12.4-9.39-10.67-3.47.55-3.77,4.01-5.15,4.28h-1.47c-1.98-4.33-5.5-3.22-8.88-4.92-2.4-1.2-5.82-6.01-8.8-7.41-9.72-4.56-11.48.39-15.07.18-3.31-.19-16.17-12.21-18.73-14.98-6.53-7.07-13-14.43-19.26-21.74-12.98-15.17-22.1-33.38-30.1-51.17l1.02-3.28c2.86-2.09,5.4-.3,6.06,2.28.61,2.36-2.09,6.23,2.99,5.38l-1.51-14.34-3.64,3.34-5.35-.96c-.07,2.37,1.19,4.27-3,3.58.76-5.5-1.93-10.59-4.52-15.53l4.18-.2,1.82-6.98-5.05-.03-2.42,2.41-1.51-7.16,8.94,1.17c2.38-1.96-.2-11.09-1.47-11.94-2.72-1.82-2.49.61-3.1,1.7-1.35,2.38-2.63,5.22-2.89,7.86-1.86.36-2.59-2.4-2.7-3.3-.73-6.21,2.88-6.9,9.44-8.72l1.5,2.47,5.27-3.01c-1.01-4.93-1.02,2.61-4.48.6-1.11-.64.15-9.29.82-10.65,1.62-3.29,7.23-5.45,6.69-9.66,2.7-.32,1.36,2.67.85,3.71-1.16,2.39-3.49,2.22-4.32,3.73-4.88,8.97,10.35,4.37,12.33,5.8,1.88,6.55,1.19,6.74-5.88,8.28.61-3.76-.4-3.45-4.49-4.79l-3,8.37c2.34.35,1.45-2.1,2.99-3.02,1.64-.98,3.31-.3,4.5-.56-.34,2.13-2.13,5.59-2.88,7.87l2.99,1.17-1.6,2.9,8.98.02c-.82-3.3,1.01-3.78,4.5-4.79l-1.68,8.22-9.47,1.24-3.82-3.48-1.53,5.96-4.47-2.39v10.77c3.7,1.3,2.26-1.77,4.08-2.36,8-2.59,11.22,1.94,12.42,7.16l2.98-1.22v4.79s-4.47-2.38-4.47-2.38c-.1,1.33-4.85,12.04-.77,11.93,3-.08,1.34-9.97,8.27-8.96-.06-7.52-10.23-8.21-7.53-16.13,2.94-.27,6.9.58,9.59-.14s1.35-3.66,3.9-3.44l1.62,6.5c-.23,1.13-8.33.48-6.1,5.44l8.9-.04,1.49-4.23-2.75-2.13,5.85-10.33-5.99,3.57c-.26-4.27,1.17-7.51,2.25-11.35.22-.78-1-2.27-.55-3.4,1.09-2.74,8.57-4.96,11.32-6.04.56-.22.73-1.83,1.22-1.95,8.77-2.2-1.1,6.31-1.39,7.15-.53,1.52.86,2.86.71,4.05-.03.26-5.72,2.22-3.05,4.36,3.53,2.83,6.77-5.63,10.49-4.77l1.44,6.48,3.04.68c1.2-5.34,8.7-8.38,14.4-10.68,1.25-1.15-3.84-5.9,2.12-4.86l.05,4.76c8.98-1.06,8.79,5.51,10.45,10.78-6.93,1.42-3.53-3.28-6.35-5.68s-6.99-1.41-7.86,1.97c-.16.6-.36,8.15-.08,8.51,2.2,2.84,7.01.83,6.81-2.39l2.23,2.4,1.49-2.44c5.28-.83,7.75,7.81,14.25,7.2,1.48-5.04-2.79-3.16-5.57-5.12-7.2-5.08,2.89-12.41,5.57-10.41l-1.37,5.19,4.37,1.97c-.05-5.51-.39-13.25,9.02-11.95l-1.71-7.01-7.31-.16,1.54-8.36h4.46c-1.48,6.56,1.05,4.98,4.59,7.72,1.81,1.4.32,3.97,4.41,3.03l1.48-2.38,2.27,3.56,3.74-3.56.03,7.17,5.97-4.78.02,5.97c7.64,1.31,4.4-5.76,9.47-7.93,2.72-1.16,3.76-1.16,7.02-2.83h-2.99s0-3.58,0-3.58h2.99s0,3.58,0,3.58c.95-.49,3.52.27,4.52-3.01.08-.25-5.06-1.08-3.01-4.16h4.49c-.79,2.32,2.08,5.84,1.4,7.64s-6.85,1.14-4.2,7.14c1.53,3.47,14.44,2.38,18.34,3.12,1.12.21.95,4.19,3.94,2.41.16-.1.41-2.04,1.45-3.02,3.27-3.08,7.43.15,12.08-.56l-1.5,10.75,3.74-2.4,1.69,2.44,9.33-.21,1.74-2.84-3.03-2.95-4.47,2.37v-3.58c.84-.57,9.76.5,12.49-.01,1.14-.22.86-2.16,2-2.37,4.58-.86,10.82,1.27,15.49-1.2l-.85,7.22,9.85,3.54,1.53-5.97c-7.34.5-11.43-3.02-2.52-4.99,2.68-.59,11.17-2.29,12.69-3.57,1.86-1.57-2.01-7.33,9.15-5.92-.66-4.71,4.44-6.89,6.09-9.15.8-1.09.52-2.94,1.57-4.24.89-1.1,4.21-1.96,4.5-5.03,3.15-1.49.94,2,.59,2.88-1.65,4.22-3.89,4.66,2.42,8.49.2.12.07,1.07.74,1.18,1.02-.19.59-1.01.76-1.18ZM854.99,204.62h-2.99v2.38h2.99v-2.38ZM855,214.18c-.06-1.59.06-3.2-.01-4.78l-5.99,1.2c-1.11,3.04,3.3,3.15,6.01,3.58.05,1.19-.05,2.39,0,3.58h2.99s0-3.58,0-3.58c-.97-.14-2.12.13-3,0ZM964.5,222.55c2.41-3.17,6-4.04,2.98-9.56l-1.5,5.97-2.39-3.67c-2.41-.95-5.16-1.72-6.59.7-.7,1.18,4.77,3.77,4.45,6.01.88.71,2.14.37,3.04.55-.9,1.18-1.85,2.06-1.49,3.58h5.99s0-3.58,0-3.58c-1.41-.2-3.28.24-4.5,0ZM891,222.55c.12-.09-.2-.9.27-1l8.1.74,2.15-3.32,2.97,2.38,4.51-5.96c-8.44-1-5.39,6.18-11.98-1.2l-3,4.78-.76-3.6-1.51,2.41c-3.95.8-.25-3.37-5.23-2.39,1.43,4.45,1.39,7.5,0,11.95,3.03-.79,2.08-2.88,4.49-4.78v3.58s2.99,0,2.99,0v-3.58s-2.99,0-2.99,0ZM937.49,214.19l-8.11,1.1-.88,3.68c5.17.32,10,.44,8.99-4.77ZM1003.49,217.76c-.03-4.39-4.46-4.39-4.49,0h4.49ZM1007.99,214.19h-2.99v3.58h2.99v-3.58ZM861.64,217.26c-.62-.49-.85-1.19-.66-1.88h-1.46s0,3.57,0,3.57h4.49s0-1.17,0-1.17c-.86.15-1.73-.03-2.35-.52ZM872.99,221.35v-5.97h-1.47c-.97,2.22-.97,3.74,0,5.97h1.47ZM953.99,215.38c-3.88-1.25-2.4,2.16-3.94,2.42l-8.15.49-1.39,7.86,5.86-.12,1.75-6.96,7.38-.11-1.51-3.58ZM842.99,217.77h-2.99v3.58h2.99v-3.58ZM849,217.78c-2.74-.4-4.97,1.31-4.49,3.57h2.98s1.52-3.57,1.52-3.57ZM971.99,218.97h-2.99v2.38h2.99v-2.38ZM983.25,221.36v1.2c.97-.4.97-.8,0-1.2ZM994.49,223.74l-.74-2.38-2.26,2.38h2.99ZM1005,223.74l-2.99-2.38v2.39s2.99,0,2.99,0ZM704.25,222.55v1.2c.97-.4.97-.8,0-1.2ZM874.37,223.86l-5.86-1.31v4.77s5.99,0,5.99,0l-.13-3.47ZM881.87,223.86l-5.86-1.31v4.77s5.99,0,5.99,0l-.13-3.47ZM922.49,222.55c-4.41,1.25-10.54-.89-8.98,4.78,4.46-.44,10.27.63,8.98-4.78ZM936,226.13l-2.24-3.09-7.3-.37c-2.72.89-2.74,2.51-2.45,4.66l3-3.58,1.5,3.59,7.49-1.21ZM1009.49,222.56h-2.99v3.58h2.99v-3.58ZM753,259.62c3.04-.11,4.96-.58,4.52,2.38h1.47s1.5-3.57,1.5-3.57l1.5,3.58c-.06-1.68-.68-2.92,2.25-2.4,1.6.29-.58,3.49,3.75,2.4.16-5.02,1.22-6.35-5.21-7.19-2.86-.37-3.48-.33-2.27-2.96,2.82-2.78,9.09.77,9-4.19l2.97,2.38,1.5-8.36-5.99,2.38c1.9-3.43,7.95-5.94,4.48-9.92-.72-.82-2.97-.77-3.08-1.55-.35-2.49,4.68-7.34,3.09-8.84-2.37-2.23-3.6,2.57-4.47,2.98-2.7,1.27-11.67,1.58-8.27,6.58l8.23-2.39v10.75s-1.7-2.12-1.7-2.12l-4.27-.25c1.57,3-2.76,3.67-2.99,4.4-.68,2.21.36,5.17-.04,7.55-1.28-.8-3.95-.26-4.52-.65-1.5-1.03-.66-3.27-2.95-2.93,1.03,3.57,1.61,8.32,1.49,11.95-1.19.04-2.69-.57-3.04.78l-1.46,6.39c5.79.85.99-2.54,1.79-3.4s2.54,1.26,2.7-3.77ZM850.38,229.62l.11-5.87c-2.45-.29-.87,2.02-3.36,2.81-3.4,1.08-8.52-1.49-11.66,1.37l.76,2.9,14.15-1.21ZM961.49,226.13v-2.38h-1.47v2.38h1.47ZM700.49,230.92c.38-2.23,0-4.14-2.98-4.78v4.78s2.98,0,2.98,0ZM712.18,233.06c1.11-1.98-1.58-4.71-1.19-6.93l-5.79,1.35-1.83,10.5c-1.5.99-11.05-1.84-10.36,3.69l6.74-2.4,2.23,2.39c-.83-3.02,3.1-1.93,4.12-2.7.7-.52.22-2.18,1.45-3.23.95-.81,4.5-2.47,4.62-2.68ZM741,227.34c-8.43-.44-18.46-2.17-10.48,5.96,2.77.42.48-2.01,2.24-2.39,3.18-.68,1.64,4.05,6.65,2.36l1.58-5.93ZM905.25,226.14v1.2c.97-.4.97-.8,0-1.2ZM717.68,229.17c-.71-.78-.83-3.04-2.19-1.23v4.68s4.5.69,4.5.69c1.15-3.48-1.21-2.93-2.31-4.14ZM833.99,227.34h-4.49c.03,4.39,4.46,4.39,4.49,0ZM599.99,229.74h-2.99v1.17h2.99v-1.17ZM751.71,237.98c-1.78-2.04,6.11-4.77,4.28-8.25-2.57-.3-1.11,2.14-2.3,3.58-.8.97-3.65.95-3.81,1.96-.26,1.72,1.97,4.36,1.64,6.4l3.01-3.01-2.81-.69ZM800.99,229.74c-2.79-1.14-9.78,1.52-7.49,3.57,2.51,2.25,3.09-1.93,3.35-2.07,1.66-.86,4.58.65,4.13-1.5ZM810,229.73h-5.99v3.58h5.99v-3.58ZM972.28,231.17c-.78.37-1.06,2.77-2.53,3.32l-3.73-3.56c.88,3.79-6.81,2.57-10.22,2.72-2.66.12-3.82-1.65-3.29,2.05,4.55.1,11.61-2.85,12.01,2.38l2.23.04,1.49-2.44h3.03c1.26,6.88,12.04-2.98,9.73-4.75-2.49.3-6.76-.69-8.72.24ZM659.99,233.32h-2.99v1.17h2.99v-1.17ZM926.99,234.51c-6.21.6-11.82,1.83-17.21-1.21-3.45,1.98-2.18,5.5-2.28,8.38,4.68,1.14,3.8-1.94,6.62-2.62,3.3-.8,9.19-.25,12.89-.98l-.02-3.58ZM938.99,235.7v-2.39s-4.48,1.21-4.48,1.21v1.17s4.48,0,4.48,0ZM951,233.32h-2.99s0,2.38,0,2.38l2.99-2.38ZM994.49,233.32h-2.99v2.38h2.99v-2.38ZM695.25,234.51v1.2c.97-.4.97-.8,0-1.2ZM748.49,234.51l-7.48,3.6c.4,1.66,7.11,5.43,7.51,2.91l-.02-6.51ZM760.5,234.52h-4.49s0,3.57,0,3.57h2.98s1.52-3.57,1.52-3.57ZM933,234.52h-4.49s0,3.57,0,3.57h2.98s1.52-3.57,1.52-3.57ZM941.25,234.51v1.2c.97-.4.97-.8,0-1.2ZM988.5,234.52h-2.99s0,3.57,0,3.57h1.47s1.52-3.57,1.52-3.57ZM1005.75,234.51v1.2c.97-.4.97-.8,0-1.2ZM635.99,238.09v-2.38h-1.47v2.38h1.47ZM643.49,235.71l-5.87,2.5c3.14,3.34,1.72,5.63,1.38,9.45,5.94-2.44,6.12,4.28,13.49,3.58,1.56-5.15-7.16-4.56-8.98-8.35,3.81-1.4,4.98-.03,8.28,1.21l3.71-2.41-5.86-.12-2.39-5.88-3.74,5.98-.02-5.97ZM818.94,235.74l-2.99.66c-2.21,3.58-2.52,7.45,3,4.38l1.54-1.48c-1.07,2.1,1.26,4.76,3.77,4.75.43,0,4.19-2.56.49-2.51l-5.8-5.8ZM857.99,239.28v-3.58h-1.47v3.58h1.47ZM862.49,239.28v-3.58h-1.47v3.58h1.47ZM869.99,238.09v-2.38h-1.47v2.38h1.47ZM887.99,235.71c-9.18-1.3-1.99,5.17,0,3.58v-3.58ZM893.99,235.71h-2.99v2.38h2.99v-2.38ZM659.99,241.68v-3.58h-1.47v3.58h1.47ZM721.49,241.68v-3.58h-1.47v3.58h1.47ZM729.75,238.09v1.2c.97-.4.97-.8,0-1.2ZM734.99,241.68l-.74-3.58-2.24,1.8v1.77s2.98,0,2.98,0ZM796.49,241.68l-.74-3.58-2.24,1.8v1.77s2.98,0,2.98,0ZM800.99,238.1h-2.99v3.58h2.99v-3.58ZM807,238.11h-4.5l1.52,3.57h1.47l1.52-3.57ZM839.25,238.09v1.2c.97-.4.97-.8,0-1.2ZM724.49,242.87v-3.58h-1.47v3.58h1.47ZM782.99,241.68v-2.38h-1.47v2.38h1.47ZM791.99,239.3h-2.99v2.38h2.99v-2.38ZM986.99,239.3h-2.98s0,4.77,0,4.77h2.22s2.24-1.79,2.24-1.79l-1.48-2.98ZM904.49,241.69h-4.49v2.38h4.49v-2.38ZM949.49,241.69h-2.22s-2.27,2.38-2.27,2.38h4.49s0-2.38,0-2.38ZM956.99,241.69h-2.22s-2.27,2.38-2.27,2.38h4.49s0-2.38,0-2.38ZM964.5,241.69c-1.87-.79-5.23,1.91-4.5,2.37,1.87.79,5.23-1.91,4.5-2.37ZM979.49,241.69h-2.99v1.17h2.99v-1.17ZM880.49,242.88h-2.99v3.58h2.99v-3.58ZM919.49,242.89h-2.99v1.17h2.99v-1.17ZM941.99,242.89h-5.99s1.52,3.57,1.52,3.57l4.47-2.4v-1.17ZM968.99,246.46v-3.58h-1.47v3.58h1.47ZM671.99,244.08c-7.05-.1-.98,3.34.03,5.96,3.08.08-.27-3.11,3.71-2.39,1.76.32-.54,2.83,2.25,2.39v-5.97s-3.74,2.4-3.74,2.4h-1.49s-.76-2.4-.76-2.4ZM709.4,244.17l-2.94.59-1.45,5.29,5.75-.18c3.15-4.22-.25-2.25-1.36-5.7ZM836.98,244.09c-4.2-2.11-8.35,9.95-3.72,11.93l1.44-4.88,6.8-1.71-4.52-5.35ZM865.48,244.08c-8.43-.58-3.52,2.52-1.45,5.96,3.26.25,2.06-5.64,1.45-5.96ZM871.49,246.46v-2.38h-1.47v2.38h1.47ZM637.5,247.67l-6,.61,1.52,5.35,1.49-3.6,2.98,1.22v-3.59ZM658.5,246.47h-4.49s0,3.57,0,3.57h2.98s1.52-3.57,1.52-3.57ZM695.99,246.47h-2.99v1.17h2.99v-1.17ZM725.25,246.46v1.2c.97-.4.97-.8,0-1.2ZM736.49,246.47c-4.36-1.08-3.46,3.52-2.99,5.37,1.61,6.29,8.95,1.26,1.85-.8l1.14-4.57ZM781.49,246.47c-2.9-2.31-9.26,3.8-3.72,4.77,3.16.55,4.81-3.9,3.72-4.77ZM790.49,250.05v-3.58h-1.47v3.58h1.47ZM800.99,250.05v-3.58h-1.47v3.58h1.47ZM661.49,250.05v-2.38h-1.47v2.38h1.47ZM686.99,250.05v-2.38h-1.47v2.38h1.47ZM742.49,247.67h-2.99v5.97h2.99v-5.97ZM748.49,247.67h-2.99s0,3.58,0,3.58l2.97-1.81v-1.77ZM794.99,250.05v-2.38h-1.47v2.38h1.47ZM803.99,250.05v-2.38h-1.47v2.38h1.47ZM809.99,253.64l1.5-5.97h-1.47s-2.96,4.24-2.96,4.24l-.05,1.73h2.98ZM666.75,250.05v1.2c.97-.4.97-.8,0-1.2ZM908.99,254.83c.36-2.2.08-3.49-2.25-4.76l.78,4.76h1.47ZM918,254.82l-.74-4.75c-2.34,1.26-2.61,2.56-2.26,4.76h2.99ZM958.49,250.06h-2.99v3.58h2.99v-3.58ZM987,250.06h-2.99s0,3.57,0,3.57h1.47s1.52-3.57,1.52-3.57ZM990.75,250.05v1.2c.97-.4.97-.8,0-1.2ZM1000.49,253.63v-3.58h-1.47v3.58h1.47ZM595.49,253.63v-2.38h-1.47v2.38h1.47ZM940.49,251.25h-2.99v3.58h2.99v-3.58ZM946.49,253.63v-2.38h-1.47v2.38h1.47ZM967.49,254.83v-3.58h-1.47v3.58h1.47ZM661.06,259.35c1.38-2.22.05-6.28-3.29-5.7-4.6,2.52-3.95,4.56-2.25,8.36,1.31.84,5.4-2.43,5.54-2.66ZM682.5,256.04l-10.49-2.4-1.52,4.78c1.62.04,3.51-.21,5.03.19,3.04.79,1.08,4.37,5.46,3.41l1.52-5.97ZM799.48,258.41l1.48-2.99c-2.09-2.09-2.34-2.09-4.43,0l1.48,2.99h1.47ZM885,253.65h-4.49s0,2.38,0,2.38h2.22s2.27-2.38,2.27-2.38ZM899.25,253.64v1.2c.97-.4.97-.8,0-1.2ZM705.75,254.83v1.2c.97-.4.97-.8,0-1.2ZM710.25,254.83v1.2c.97-.4.97-.8,0-1.2ZM729,254.84c-3.78-.31-5.07,1.9-4.49,4.77.89.88,4.86-4.52,4.49-4.77ZM794.25,254.83v1.2c.97-.4.97-.8,0-1.2ZM845.99,254.84h-4.49v1.17h4.49v-1.17ZM628.49,258.42v-2.38h-1.47v2.38h1.47ZM643.49,256.03h-5.99s0,3.58,0,3.58c3.6.45,6.36-.56,5.99-3.58ZM649.49,258.42v-2.38h-1.47v2.38h1.47ZM686.99,258.42v-2.38h-1.47v2.38h1.47ZM694.49,258.42v-2.38h-1.47v2.38h1.47ZM714.4,259.33c-1.07-1.32.81-3.65-1.88-3.29v5.97s4.48,0,4.48,0c1.31-3.14-2.02-1.97-2.6-2.67ZM773.99,256.03l-4.48,3.01,3,2.96,1.47-5.96ZM779.99,258.42v-2.38h-1.47v2.38h1.47ZM874.49,259.61v-3.58s-1.48,0-1.48,0l-1.52,3.57h2.99ZM927,256.02l-3.05.69-1.44,7.67c4.6-.08,13.13-1.5,9.72-5.99l-5.22,1.23v-3.6ZM961.51,263.2l6.84-1.16-.86-6c-1.05.29-3.72,2.57-4.28,3.15-1.36,1.39-2.41,1.58-1.7,4.02ZM622.49,262l-.74-3.58-2.24,1.8v1.77s2.98,0,2.98,0ZM630.75,258.42v1.2c.97-.4.97-.8,0-1.2ZM959.99,258.43h-5.99c-.26,11.22,5.78,11.48,5.99,0ZM988.49,258.43c-10.41-1.08-9.52,6.97-.12,3.46l.12-3.46ZM838.49,262v-2.38h-1.47v2.38h1.47ZM946.49,262v-2.38h-1.47v2.38h1.47ZM974.99,263.2v-3.58h-1.47v3.58h1.47ZM997.49,263.2v-3.58h-1.47v3.58h1.47ZM861.75,262.01v1.2c.97-.4.97-.8,0-1.2ZM876,264.39l-2.99-2.38v2.39s2.99,0,2.99,0ZM916.49,264.39v-2.38h-1.47v2.38h1.47ZM764.25,263.2v1.2c.97-.4.97-.8,0-1.2ZM779.99,263.21c-4.67-.89-3.81,5.12-4.49,7.16,4.86.82,4.33-4.85,4.49-7.16ZM787.49,263.21h-2.99v4.77h2.99v-4.77ZM833.99,266.78l-.74-3.58-2.24,1.8v1.77s2.98,0,2.98,0ZM619.49,264.4h-2.99s0,1.77,0,1.77l2.24,1.8.74-3.58ZM629.99,264.4h-2.98s-1.52,3.57-1.52,3.57h4.49s0-3.57,0-3.57ZM638.99,264.4h-2.99v2.38h2.99v-2.38ZM669.65,266.26c-1-.96-.02-2.24-2.13-1.86l-1.51,5.96h5.99c1.06-3.58-1.02-2.83-2.35-4.11ZM746.99,267.98v-3.58h-1.47v3.58h1.47ZM769.49,266.78v-2.38h-1.47v2.38h1.47ZM817.49,264.4h-5.99v2.38h5.99v-2.38ZM732,266.8h-2.99s0,3.57,0,3.57h1.47s1.52-3.57,1.52-3.57ZM805.49,266.8l-10.49.58c3.57,6.54,4.93,1.66,6.43,1,1.8-.8,4.48.47,4.06-1.58ZM978.41,270.09c-.99-1.02.41-3.05-1.15-3.29l-2.25,2.97,2.26,1.8h3.73s0-1.17,0-1.17c-.8.09-2.13.17-2.58-.31ZM679.49,267.99h-2.99v2.38h2.99v-2.38ZM707.25,270.38v1.2c.97-.4.97-.8,0-1.2ZM907.49,270.38c-2.84-.38-4.98,1.4-4.49,3.58h4.49s0-3.58,0-3.58ZM746.99,271.58h-2.99v3.58h2.99v-3.58ZM895.49,271.58h-2.99v2.38h2.99v-2.38ZM958.24,271.89c-1.12-.67-2.84-.22-4.23-.31v3.56s7.49,0,7.49,0v-3.57s-2.25,2.4-2.25,2.4c-1.4.19-.38-1.72-1.01-2.09ZM654.75,273.96v1.2c.97-.4.97-.8,0-1.2ZM658.49,276.35v-2.38h-1.47v2.38h1.47ZM788.25,273.96v1.2c.97-.4.97-.8,0-1.2ZM845.25,273.96v1.2c.97-.4.97-.8,0-1.2ZM969,273.97h-2.99s0,2.38,0,2.38l2.99-2.38ZM973.5,273.97h-2.99s0,2.38,0,2.38l2.99-2.38ZM625.49,278.74v-3.58h-1.47v3.58h1.47ZM701.25,275.16v1.2c.97-.4.97-.8,0-1.2ZM984.75,275.16v1.2c.97-.4.97-.8,0-1.2ZM631.49,278.74v-2.38h-1.47v2.38h1.47ZM649.5,276.36c-3.71-.79-3.01,1.46-4.5,3.57l6.77-1.17-.02-2.42-1.5,2.41-.75-2.4ZM662.99,278.74v-2.38h-1.47v2.38h1.47ZM695.99,278.74v-2.38h-1.47v2.38h1.47ZM709.49,278.74v-2.38h-1.47v2.38h1.47ZM722.99,279.94v-3.58h-1.47v3.58h1.47ZM764.99,278.74v-2.38h-1.47v2.38h1.47ZM666.75,278.75v1.2c.97-.4.97-.8,0-1.2ZM614.99,283.52v-3.58h-1.47v3.58h1.47ZM955.49,282.33v-2.38h-1.47v2.38h1.47ZM635.25,282.33v1.2c.97-.4.97-.8,0-1.2ZM713.25,282.33v1.2c.97-.4.97-.8,0-1.2ZM967.49,284.72l-.74-2.38-2.26,2.38h2.99ZM723.75,283.53v1.2c.97-.4.97-.8,0-1.2ZM975.75,283.53v1.2c.97-.4.97-.8,0-1.2ZM620.99,284.73h-2.99v2.38h2.99v-2.38ZM631.49,287.11v-2.38h-1.47v2.38h1.47ZM910.49,288.31v-3.58h-1.47v3.58h1.47ZM914.99,287.11v-2.38h-1.47v2.38h1.47ZM934.49,284.73h-2.98s-1.52,3.57-1.52,3.57h4.49s0-3.57,0-3.57ZM940.49,284.73h-2.99v3.58h2.99v-3.58ZM714.75,287.12v1.2c.97-.4.97-.8,0-1.2ZM789.75,287.12v1.2c.97-.4.97-.8,0-1.2ZM899.25,287.12v1.2c.97-.4.97-.8,0-1.2ZM921.75,287.12v1.2c.97-.4.97-.8,0-1.2ZM954,287.13h-4.5l1.52,3.57h1.47l1.52-3.57ZM956.25,287.12v1.2c.97-.4.97-.8,0-1.2ZM640.5,288.32h-5.99c-.37,3.01,2.39,4.03,5.99,3.58v-3.58ZM824.99,288.32h-2.99v2.38h2.99v-2.38ZM735.75,290.7v1.2c.97-.4.97-.8,0-1.2ZM748.49,290.71h-4.49v2.38h4.49v-2.38ZM836.25,290.7v1.2c.97-.4.97-.8,0-1.2ZM878.99,290.71c-5.54-.33-6.41.95-4.48,4.77h2.97s1.51-4.77,1.51-4.77ZM963.75,290.7v1.2c.97-.4.97-.8,0-1.2ZM626.99,291.9h-2.99s1.52,3.57,1.52,3.57h1.47s0-3.57,0-3.57ZM698.99,291.9l-3.01,3.58c-2.02.67-1.48-4.94-4.48-2.38-2.43,2.07,7.55,15.28,7.49-1.2ZM741.75,291.9v1.2c.97-.4.97-.8,0-1.2ZM806.25,291.9v1.2c.97-.4.97-.8,0-1.2ZM976.49,296.68v-3.58s-1.48,0-1.48,0l-1.52,3.57h2.99ZM959.99,295.49c-4.45.65-10.67-.11-8.98,4.78,3.3-.87,5.69-.88,8.98,0v-4.77ZM655.49,299.07v-2.38h-1.47v2.38h1.47ZM646.49,302.65v-2.38h-1.47v2.38h1.47ZM683.99,303.85v-3.58h-1.47v3.58h1.47ZM710.99,302.65v-2.38h-1.47v2.38h1.47ZM922.49,303.85v-3.58h-1.47v3.58h1.47ZM820.49,305.05v-2.38h-1.47v2.38h1.47ZM947.98,307.43l1.48-2.99-2.95-1.78v4.78s1.47,0,1.47,0ZM968.99,307.44c.57-2.87-.71-5.07-4.49-4.77v4.77s4.49,0,4.49,0ZM650.25,303.86v1.2c.97-.4.97-.8,0-1.2ZM701.99,307.44v-3.58h-1.47v3.58h1.47ZM959.99,303.86c-2.38-1.9-6.87,1.68-4.49,3.58s6.87-1.68,4.49-3.58ZM657.65,306.91c-1-.96-.03-2.23-2.13-1.85-2.61,2.81,1.05,8.55,4.48,5.97,2.36-1.78-1.54-3.35-2.34-4.11ZM905.99,307.44v-2.38h-1.47v2.38h1.47ZM684.75,307.44v1.2c.97-.4.97-.8,0-1.2ZM830.99,307.44l-5.86,1.31,1.39,7.06c5.08.94,6-7.05,4.48-8.36ZM626.99,313.41v-2.38h-1.47v2.38h1.47ZM748.49,311.03h-2.99s2.26,2.38,2.26,2.38l.74-2.38ZM633,312.24h-2.99s0,3.57,0,3.57h1.47s1.52-3.57,1.52-3.57ZM682.49,317v-3.58h-1.47v3.58h1.47ZM671.25,315.81v1.2c.97-.4.97-.8,0-1.2ZM768.75,315.81v1.2c.97-.4.97-.8,0-1.2ZM959.99,315.81l-4.49.58c-5.04,3.36,5.57,7.26,4.49-.58ZM963.75,315.81v1.2c.97-.4.97-.8,0-1.2ZM761.99,319.39v-2.38h-1.47v2.38h1.47ZM737.99,323h-2.99v1.17h2.99v-1.17ZM754.49,323h-2.99v1.17h2.99v-1.17ZM821.98,327.76l1.48-2.99-2.95-1.78v4.78s1.47,0,1.47,0ZM851.25,322.99v1.2c.97-.4.97-.8,0-1.2ZM653.99,327.76v-3.58h-1.47v3.58h1.47ZM680.99,327.76v-1.77s-2.98-1.81-2.98-1.81v3.58s2.98,0,2.98,0ZM890.25,324.18v1.2c.97-.4.97-.8,0-1.2ZM703.49,327.76v-2.38h-1.47v2.38h1.47ZM715.49,327.76v-2.38h-1.47v2.38h1.47ZM761.99,325.38h-2.99v2.38h2.99v-2.38ZM641.99,327.78h-2.99v1.17h2.99v-1.17ZM750.75,327.77v1.2c.97-.4.97-.8,0-1.2ZM866.99,327.78h-2.99v1.17h2.99v-1.17ZM722.99,331.36c-2.75-.27-4.41-.08-5.98,1.8.35,6.85,7.39,4.58,5.98-1.8ZM754.49,331.37h-2.99v1.17h2.99v-1.17ZM692.99,336.13v-1.77s-2.98-1.81-2.98-1.81v3.58s2.98,0,2.98,0ZM730.49,337.33c.56-5.98-5.05-5.98-4.49,0h4.49ZM891.01,337.33c2.99.37,5.87-.17,5.99-2.97-1.61-1.85-3.22-2.09-5.99-1.8v4.77ZM933.75,332.55v1.2c.97-.4.97-.8,0-1.2ZM683.99,337.33v-3.58h-1.47v3.58h1.47ZM697.49,336.13v-2.38h-1.47v2.38h1.47ZM851.99,333.75h-2.99v2.38h2.99v-2.38ZM829.49,339.72v-2.38h-1.47v2.38h1.47ZM677.25,344.51v1.2c.97-.4.97-.8,0-1.2ZM685.5,344.52h-2.99s0,3.57,0,3.57h1.47s1.52-3.57,1.52-3.57ZM692.99,348.09v-3.58h-1.47v3.58h1.47ZM716.25,344.51v1.2c.97-.4.97-.8,0-1.2ZM758.99,344.52h-2.99v1.17h2.99v-1.17ZM698.99,348.09v-2.38h-1.47v2.38h1.47ZM796.49,348.09v-2.38h-1.47v2.38h1.47ZM701.99,354.08h-2.99v2.38h2.99v-2.38ZM727.49,356.46v-2.38h-1.47v2.38h1.47ZM746.99,356.46v-2.38h-1.47v2.38h1.47ZM908.99,356.46v-2.38h-1.47v2.38h1.47ZM788.99,356.47h-2.99v1.17h2.99v-1.17ZM769.49,361.26h-2.99v1.17h2.99v-1.17ZM727.49,364.83v-2.38h-1.47v2.38h1.47ZM742.49,366.03h-2.99v2.38h2.99v-2.38ZM758.99,368.43h-2.99v1.17h2.99v-1.17ZM820.49,372v-2.38h-1.47v2.38h1.47ZM764.99,376.78l-.74-3.58-2.24,1.8v1.77s2.98,0,2.98,0ZM734.99,376.78v-2.38h-1.47v2.38h1.47Z"/>
  <path d="M861,205.81c-.03.05-1.47.05-1.5,0-.11-.2.6-.76.75-1.18.15.43.86.99.75,1.18Z"/>
  <path d="M905.97,181.91l3.02,7.16c-.6.69-18.51,1-21.12.87-1.49-.08-3.93.13-4.37-1.47-1.24-4.59,12.99-1.33,16.08-2.65,3.78-1.61,2.28-4.61,6.39-3.9Z"/>
  <path d="M905.57,195.45c.74.48-.12,2.17,1.18,2,1.75-3.98,6.95-3.44,11.24-2.4l-2.22,3.15c-9.97-.32-20.07.31-30.06.44-6.59.08-10.26-3.55-2.72-4.2,3.43-.3,20.71-.19,22.57,1.01Z"/>
  <path d="M985.36,181.99c.82.49,2.2,4.02-.78,4.6-4.01.78-13.67-1.32-18.58.08v-4.77s19.36.09,19.36.09Z"/>
  <path d="M949.2,188.83c-.64.29-11.29,1.62-10.19-1.53l9.77-2.98,2.96-11.97c5.2,2.16-.12,15.38-2.54,16.49Z"/>
  <path d="M986.99,193.86c-1.14,4.4,1.35,12.79-7.49,11.95-2.03-1.71,1.95-12.58,7.49-11.95Z"/>
  <path d="M871.48,192.65l.03-3.57c-2.72.27-5.07.25-4.53-2.39l-1.49,3.59c-15.03-1.57,2.6-7.94,7.55-5.44,3.91,1.98-1.19,5.39-1.56,7.81Z"/>
  <path d="M737.99,195.06c-1.89,7.94-12.19,10.44-7.28.16l7.28-.16Z"/>
  <path d="M670.5,197.45l-.04,4.19-4.49-.11-1.34,2.28-3.12.81c1.46-3.5-2.51-3.45-2.77-3.75-3.35-3.84,9.45-2.15,11.76-3.41Z"/>
  <path d="M952.49,202.23c3.02,2.98-16,7.13-11.98,0l2.24,2.4c.3-3.23,7.9-4.21,9.74-2.4Z"/>
  <path d="M974.99,193.86c1.45,1.14-3.46,7.88-5.98,8.36l-1.51-8.36h7.49Z"/>
  <path d="M623.99,238.09c-6.71.51-3.55-9.54-.74-11.95l.74,11.95Z"/>
  <path d="M994.23,182.18c1.15.66.5,4.14,4.76,2.11l-1.5,5.98-1.63-3.45c-11.04,1.02-6.28-7.3-1.62-4.63Z"/>
  <path d="M718.47,192.65c-4.17.88-3.86-3-4.59-5.22.12-1.56,8.2-3.08,7.45.88l-2.86,4.34Z"/>
  <path d="M732,192.66l-8.99,1.2c-1.59-5.92,4.84-3.72,7.16-5.13.94-.57-.62-2.53,1.82-2.04v5.97Z"/>
  <path d="M925.5,185.5l-1.6,3.5-4.17-.21-1.72-2.1c.19,3.07-5.08,4.92-7.51,1.77,2.57-7.46,8.54-.74,14.99-2.96Z"/>
  <path d="M670.5,209.4l1.52-4.77h1.47c1.87,5.54-2.74,4.51-2.99,4.77-.67.72.55,5.62-4.49,4.78-.91-1.35-2.16-10.22,1.51-7.79,1.44.95.65,3.36,2.98,3.01Z"/>
  <path d="M889.74,204.34c1.41.82,3.99.16,5.76.28l-1.59,4.71h-4.32s-1.61-6.5-1.61-6.5c1.99-2.13,1.15,1.15,1.76,1.51Z"/>
  <path d="M682.23,215.62c.34.16,3.54,4.64,3.25,5.73l-4.46-2.38-2.28,3.56c-3.84-2.68-1.12-9.05,3.48-6.91Z"/>
  <path d="M950.99,193.86v3.58s-7.49,0-7.49,0c-.4-3.67,3.76-3.9,7.49-3.58Z"/>
  <path d="M658.49,207.01c-1.35,2.75,1.4,8.72-4.49,8.36,1.67-2.32-1.14-9.15,4.49-8.36Z"/>
  <path d="M881.99,185.49v3.57c-3.21.23-3.83,2.07-5.99-.6.11-2.8,3-3.34,5.99-2.97Z"/>
  <path d="M646.51,218.96c-.67-3.69.98-7.85,4.48-4.17.58,2.49-1.26,4.57-4.48,4.17Z"/>
  <rect x="660.01" y="215.38" width="2.99" height="7.16"/>
  <polygon points="724.49 198.64 722.98 204.61 721.52 204.61 720.01 198.64 724.49 198.64"/>
  <polygon points="854.99 190.27 852.02 189.69 856.49 181.9 854.99 190.27"/>
  <path d="M959.99,178.32h-2.98c-.19-2.52-.58-4.49,2.24-5.96l2.21,1.76-1.47,4.2Z"/>
  <path d="M671.99,186.69c1.85,1.72-5.36,12.09-7.5,5.98l4.51-.7c-1.97-.95.25-7.82,2.99-5.28Z"/>
  <path d="M919.51,198.63l.17-3.44,4.31-1.34c.58,2.87-.7,5.07-4.48,4.78Z"/>
  <path d="M660.96,176.7c-.2.24-6.61,6.37-5.32,2.34l16.35-21.04c-1.78,5.68-6.91,13.81-11.03,18.71Z"/>
  <path d="M745.51,218.96c-.92-.73.68-4.74,2.24-4.76,4.39-.04.55,6.98-2.24,4.76Z"/>
  <polygon points="694.49 184.29 691.51 184.28 693.02 178.32 694.49 178.32 694.49 184.29"/>
  <path d="M895.5,144.84c-1.33,2.12-2.37,5.29-6,4.76,1.33-2.12,2.37-5.29,6-4.76Z"/>
  <polygon points="884.99 163.96 882.01 163.96 883.52 157.99 884.99 157.99 884.99 163.96"/>
  <polygon points="1020 185.47 1014.01 186.68 1017.03 181.91 1020 185.47"/>
  <path d="M929.99,195.06c2.02,1.57-6.15,7.32-4.49,0h4.49Z"/>
  <path d="M623.99,180.7h-1.47c-.1-2.6-.84-6.26,2.97-7.17l-1.5,7.17Z"/>
  <rect x="958.51" y="184.3" width="5.99" height="2.38"/>
  <polygon points="656.99 186.69 655.48 192.65 654.01 192.65 654.01 186.69 656.99 186.69"/>
  <path d="M857.99,168.74h-1.47s0-7.16,0-7.16h1.47c1.17,2.52.5,4.61,0,7.16Z"/>
  <polygon points="754.48 215.38 756 218.95 751.51 218.96 751.51 215.38 754.48 215.38"/>
  <polygon points="625.48 215.38 627 218.95 622.51 218.96 622.51 215.38 625.48 215.38"/>
  <polygon points="727.5 144.84 725.98 148.42 723.01 148.42 723.01 144.84 727.5 144.84"/>
  <polygon points="1017 193.87 1015.48 197.44 1012.51 197.44 1012.51 193.86 1017 193.87"/>
  <polygon points="638.99 190.27 639 192.65 634.51 193.86 634.51 190.27 638.99 190.27"/>
  <rect x="571.51" y="132.88" width="2.99" height="3.58"/>
  <path d="M935.99,198.64c-2.99-.64-3.37-2.55-2.97-4.78,2.99.64,3.37,2.55,2.97,4.78Z"/>
  <rect x="706.51" y="197.45" width="2.99" height="3.58"/>
  <rect x="877.51" y="149.62" width="2.99" height="3.58"/>
  <polygon points="929.99 204.62 929.99 209.39 928.52 209.39 927.01 204.62 929.99 204.62"/>
  <rect x="933.01" y="204.62" width="4.49" height="2.38"/>
  <rect x="675.01" y="178.32" width="2.99" height="3.58"/>
  <path d="M689.98,221.35h-1.47c-.3-2.1,1.06-3.96,1.5-5.96h1.47s-1.5,5.96-1.5,5.96Z"/>
  <polygon points="629.99 192.65 627.01 192.65 627.01 190.88 629.26 189.08 629.99 192.65"/>
  <polygon points="644.99 192.65 642.01 192.65 642.01 189.07 644.99 190.88 644.99 192.65"/>
  <polygon points="1004.99 190.27 1004.26 193.85 1002.01 192.05 1002.01 190.27 1004.99 190.27"/>
  <polygon points="688.5 213 686.23 215.37 684.01 215.37 684.01 212.99 688.5 213"/>
  <polygon points="637.49 198.64 636.76 202.22 634.51 200.42 634.51 198.64 637.49 198.64"/>
  <rect x="588.01" y="207.01" width="2.99" height="2.38"/>
  <rect x="996.01" y="169.95" width="2.99" height="2.38"/>
  <rect x="913.51" y="174.73" width="2.99" height="2.38"/>
  <rect x="730.51" y="207.01" width="2.99" height="2.38"/>
  <rect x="927.01" y="186.69" width="2.99" height="2.38"/>
  <polygon points="667.49 132.88 664.51 132.29 668.26 128.12 667.49 132.88"/>
  <rect x="1003.51" y="181.9" width="1.47" height="4.77"/>
  <rect x="906.01" y="173.53" width="1.47" height="4.77"/>
  <polygon points="1009.49 197.45 1009.49 201.02 1008.02 201.02 1006.5 197.45 1009.49 197.45"/>
  <rect x="628.51" y="197.45" width="1.47" height="3.58"/>
  <rect x="846.01" y="197.45" width="1.47" height="3.58"/>
  <rect x="865.51" y="173.53" width="1.47" height="3.58"/>
  <polygon points="588 215.37 585.01 215.37 585.01 212.99 588 215.37"/>
  <path d="M622.51,156.8c3.63.83-.59,7.27-2.28,8.34l2.28-8.34Z"/>
  <rect x="856.51" y="156.8" width="1.47" height="3.58"/>
  <rect x="888.01" y="177.12" width="1.47" height="3.58"/>
  <rect x="907.51" y="157.99" width="1.47" height="3.58"/>
  <rect x="940.51" y="193.86" width="1.47" height="3.58"/>
  <rect x="651.01" y="189.08" width="1.47" height="3.58"/>
  <rect x="856.51" y="169.95" width="1.47" height="3.58"/>
  <rect x="573.01" y="125.71" width="1.47" height="2.38"/>
  <rect x="954.01" y="157.99" width="1.47" height="2.38"/>
  <rect x="582.01" y="161.58" width="1.47" height="2.38"/>
  <rect x="931.51" y="161.58" width="1.47" height="2.38"/>
  <rect x="711.01" y="163.98" width="2.99" height="1.17"/>
  <rect x="618.01" y="166.36" width="1.47" height="2.38"/>
  <rect x="880.51" y="168.76" width="2.99" height="1.17"/>
  <rect x="585.01" y="169.95" width="1.47" height="2.38"/>
  <rect x="729.01" y="169.95" width="1.47" height="2.38"/>
  <rect x="873.01" y="169.95" width="1.47" height="2.38"/>
  <rect x="604.51" y="227.34" width="1.47" height="2.38"/>
  <rect x="696.01" y="186.69" width="1.47" height="2.38"/>
  <rect x="934.51" y="186.69" width="1.47" height="2.38"/>
  <rect x="706.51" y="189.08" width="2.99" height="1.17"/>
  <rect x="613.51" y="222.56" width="2.99" height="1.17"/>
  <rect x="583.51" y="197.45" width="2.99" height="1.17"/>
  <rect x="691.51" y="197.45" width="2.99" height="1.17"/>
  <rect x="577.51" y="198.64" width="1.47" height="2.38"/>
  <rect x="654.01" y="217.78" width="2.99" height="1.17"/>
  <rect x="997.51" y="198.64" width="1.47" height="2.38"/>
  <rect x="643.51" y="207.01" width="1.47" height="2.38"/>
  <rect x="705.01" y="207.01" width="1.47" height="2.38"/>
  <rect x="580.51" y="209.41" width="2.99" height="1.17"/>
  <path d="M720.75,209.4c.97.4.97.8,0,1.2v-1.2Z"/>
  <path d="M615.75,212.99c.97.4.97.8,0,1.2v-1.2Z"/>
  <path d="M632.25,205.81c.97.4.97.8,0,1.2v-1.2Z"/>
  <polygon points="717.74 213.01 719.97 214.79 719.26 215.36 717.03 213.57 717.74 213.01"/>
  <path d="M729.75,212.99c.97.4.97.8,0,1.2v-1.2Z"/>
  <path d="M858.75,201.03c.97.4.97.8,0,1.2v-1.2Z"/>
  <path d="M686.25,201.03c.97.4.97.8,0,1.2v-1.2Z"/>
  <path d="M645.75,221.36c.97.4.97.8,0,1.2v-1.2Z"/>
  <path d="M603.75,197.44c.97.4.97.8,0,1.2v-1.2Z"/>
  <path d="M701.25,192.66c.97.4.97.8,0,1.2v-1.2Z"/>
  <path d="M603.75,192.66c.97.4.97.8,0,1.2v-1.2Z"/>
  <path d="M686.25,189.07c.97.4.97.8,0,1.2v-1.2Z"/>
  <path d="M576.75,189.07c.97.4.97.8,0,1.2v-1.2Z"/>
  <path d="M896.25,177.12c.97.4.97.8,0,1.2v-1.2Z"/>
  <path d="M998.25,163.96c.97.4.97.8,0,1.2v-1.2Z"/>
  <path d="M681.75,163.96c.97.4.97.8,0,1.2v-1.2Z"/>
  <path d="M894.75,156.79c.97.4.97.8,0,1.2v-1.2Z"/>
  <path d="M674.25,155.59c.97.4.97.8,0,1.2v-1.2Z"/>
  <path d="M965.25,140.05c.97.4.97.8,0,1.2v-1.2Z"/>
  <rect x="763.51" y="244.08" width="1.47" height="2.38"/>
</svg>