<?xml version="1.0" encoding="UTF-8"?>
<svg id="Layer_1" xmlns="http://www.w3.org/2000/svg" version="1.1" viewBox="0 0 1920 1080">
  <!-- Generator: Adobe Illustrator 29.5.1, SVG Export Plug-In . SVG Version: 2.1.0 Build 141)  -->
  <path d="M189.03,1079.83h-.03l-4.49-670.75c3.59-.66,2.42.5,3.33,1.55,3.44,4,3.03,7.98,10.95,8.07,7.76.09,6.96-4.04,10.87-7.23.21-1.75.21-3.52.21-5.27,0-.03.01-.05.02-.08l-4.38-19.76,4.48,2.38v-13.32c-.72.05-1.44-.05-2.17-.06.27,2.55-.1,5.09-3.07,7.39-6.93-4.37-8.39-15.27-18.76-13.13l-.09-36.54c.34-2.31,6.23-2.99,6.23-10.7s-5.89-8.38-6.23-10.7c-.96-84.08,1.08-168.75,1.67-252.29.14-20.54-.24-41.1-.07-61.63h-6c-.83,5.53-6.09,20.01-13.07,21.28-4.59.83-6.24-.73-10.07,2.73l-56.82-.07c-7.62-6.23-9.01-15.77-7.04-23.94H0v1083.26h188.93c.06-.4.1-.79.11-1.2ZM183,962.06v22.72c0,.24-3.2,3.68-3.44,3.82-4.99,3.02-11.64.38-16.75.3-19.03-.29-38.11.27-57.15.14-2.37-.22-8.17-6.19-8.17-7.86,0-4.14-1.07-16.37,0-19.13,1.03-2.66,6.94-1.38,9.5-1.81,1.21-.2.79-2.83,3.15-2.47,14.57.02,26.65,4,42.22,2.58,6.39-6.41,11.84-.44,13.64-.11,2.99.55,17-1.23,17,1.8ZM152.34,532.24l16.51.08c3.52-2.31,4.21-3.26,9.62-2.48l1.52,28.69h-37.5c.21-5.2,1.9-9.59,1.5-14.97-.14-1.9-1.17-3.32-2.99-1.77l-3.22,18.98-32.5-.09c-1.9-3.31-5.43-5.74-7.4-9.03-8.07-13.45-9.06-44.09,4.96-55.24,1.67-1.33,4.95-.86,5.55-3.26l15.44-.46c10.44,3.95,12.14,10.56,14.31,19.09l5.76.07c.64-2.96.71-7.07,1.97-9.79,2.68-5.8,10.93-7.61,16.02-11.18,5.41-3.8,10.05-11.6,18.09-11.26v26.9c0,.27-1.54,4.96-1.75,5.16-.6.56-4.37.55-6.23,1.39-6.26,2.83-12.43,9.5-16.94,14.3-1.28,1.36-6.17,1.48-2.73,4.87ZM178.5,570.48l-.68,7.26-8.3,3.5c-3.24-6.16-.2-12.41,8.98-10.76ZM160.5,452.12v-21.52l11.05-.16c3.35-.87,2.55-4.63,2.4-6.97-3.33.16-6.45-1.05-9.7-1.23-4.85-.27-30.48.51-34.24,1.2-1.25.23-.29,2.24-3.14,2.48-8.49.72-27.17-3.85-24.86,5.88,9.24-.21,18.57.28,27.82.06,3.53-.08,24.68-3.47,24.68.55v19.73c-.71.56-12.56-.53-15.5,0-1.25.23-.29,2.24-3.14,2.48-4.56.38-23.06.56-26.83-.12-1.08-.2-.99-1.8-2.17-2.28-2.37-.98-4.32-.45-7.03-2.55-1.24-.96-5.47-7.02-5.98-8.38-1.7-4.51-2.3-25.73-.06-29.77,1.72-3.09,9.04-10.23,13.53-10.73,5.83-.65,8.95,1.46,13.32-2.55l46.32.12c3.98,3.55,7.57,3.34,10.63,8.47,3.58,6,3.18,23.26,2.47,30.41-1.02,10.25-5.39,16.06-19.56,14.9ZM170.8,385l-77.8,1.35v-25.71c0-.38,2.02-1.8,1.5-2.99h42l-.19-8.23-30.28-1.35c-3.41-3.3-7.79-6.02-10.1-10.09-4.72-8.28-4.34-35.64.42-44.02.76-1.34,8.41-8.7,9.7-9.25,2.81-1.19,16.48-2.26,20.64-2.44,11.46-.5,31.11-.95,42.14,0,7.23.62,9.64,10.07,10.84,15.28.55,2.36,1.69,9.59,1.66,11.74-.06,3.62-5.35,6.66-5.83,9.59-1.2,7.21,8.5,12.42.74,20.85-.42.46-9.56,7.7-10.2,7.97-3.63,1.51-10.36,1.54-14.53,1.59.18,2.16-.92,6.61,1.41,7.85,1.61.86,15.87-.2,18.62-.68,1.44-.25.16-3.21,4.65-2.4,14.61,11.74-4.39,18.66-5.36,30.94ZM139.51,31.24h4.49v5.99h-4.49v-5.99ZM101.44,43.3c4.6-5.03,15.63-6.41,22.71-4.08,3.81,1.26,9.72,12.7,9.37,16.39-.17,1.31,2.6.91,3.56.62,3.52-1.06,8.59-10.12,11.84-12.69,1.68-1.33,9.69-4.76,11.98-6.34,7.09-4.87,9.28-11.06,20.6-10.74v28.1c0,4.26-4.24,4.1-6.42,5.37-7.43,4.35-19.95,10.45-24.86,17.53-1.35,1.95-3.94,5.05.49,5.2,3.22.11,7.62.35,10.65.09,2.86-.24,1.89-2.27,3.13-2.48,3.87-.64,17.01-1.78,17.01,2.98v24.51l-88.5,4.79c-1.73-4.96.02-9.28.07-13.71.19-17.08-4.47-41.51,8.37-55.55ZM166.51,149.61l-35.36-.09c-2.35-.36-1.96,2.26-3.14,2.48-7.77,1.41-22.3-3.96-21.62,5.4.66,9.13,14.17-.53,16.41,4.95.86,2.11.62,20.09-.52,21.95-2.21,3.57-18.65,3.18-22.39,1.1-10.75-5.99-9.05-49.95,2.01-58.9,14.27-3.33,29.42-3.28,44.17-3.15l.99-2.38h2.93s.99,2.38.99,2.38l20.57,1.35c2.11.54,5.77,6.03,6.59,7.9,2.97,6.8,2.94,30.17,1.91,37.96-1.96,14.81-11.33,16.94-28.52,16.13v-26.3c2.57-.21,5.52.41,7.97-.03,1.04-.19,1.04-1.6,1.6-1.88,5.75-2.79,6.3-1.53,5.44-8.86ZM91.5,230.33c.63-8.92,2.61-16.3,9.82-23.28,9.41-9.1,23.81-5.28,37.23-5.98l2.43-2.42c0,.6-.19,1.81.25,2.09,4.13,2.66,5.8-1.59,6.13-1.74,4.44-2,27.31.74,34.14-.37l-1.73,65.65c-3.88-.75-3.92,2.38-6.43,2.6-12,1.06-28.01-.33-40.67-.15-10.24.15-21.1,3.11-31.86-.2-7.74-11-10.21-23.62-9.32-36.21ZM93.19,582.59c4.04-.36,7.91.16,11.96-.68,3.94-.81,1.48-3.82,5.83-3.06,4.31,2.79,3.73,45.68,4.68,53.08.09.72,1.42,8,4.32,5.51l.15-25.8-3.14-2.27c2.94-3.4,2.87-12.28,2.74-16.76-.12-4.13-2.41-9.16-1.24-13.75l33-2.38,5.22,50.25,5.28,1.16-4.49-53.8h4.49s6.13,56.45,6.13,56.45c3.05,3.45,6.76,3.88,11.87,4.53v22.12c-2.01,5.66-9.32-2.67-9.93-2.82-5.83-1.43-5.97-1.72-9.86-2.95-12.63-3.98-28.67-4.71-40.6-9.25-1.09-.42-.97-2.05-2.17-2.28-4.54-.88-11.38,1.15-12.46-4.82l-2.37,2.43c-5.19,1.25-4.77-3.08-9.38-2.56.5-7.19-4.76-49.79-.04-52.34ZM104.28,676.87c-2.24-1.79-8.06-1.73-11.14-2.47.05-3.05-1.47-18.37,2.34-19.08,5.21.67,12.77-.82,17.5.07,1.08.2.88,1.92,2.15,2.29,2.48.71,14.49,2.24,15.13,2.73.52.4.06,2.1.81,2.85,5.78,5.72,19.75,3.61,28.39,5.3,1.19.23.85,1.95,2.14,2.28,5.75,1.52,12.59-.27,16.59,5.66,2.21,3.27,3,27.88,1.11,30.31-1.05,1.35-4.09,1.49-5.71,2.39-6.97,3.88-6.76,1.9-13.47,3.64-1.25.32-1.05,1.9-2.25,2.23-17.83,4.87-39.83,8.08-56.2,14.47-2.67,1.04-4.7,6.31-8.66,5.95v-27.5c2.64-1.11,8.41-.64,10.18-1.46,3.09-1.44,6.49-12.74,6.46-15.89-.02-2.06-3.99-12.67-5.36-13.76ZM97.66,746.97c.57-.76,7.67-5.99,8.67-6.19,2.92-.59,5.81-.1,8.14-.54,1.23-.23.9-2.16,2.02-2.36,4.36-.77,11.94-.03,16.96-1.16,2.47,7.9,2.01,15.87-.13,23.73-1.86,1.48-15.21.8-18.3,1.36-.99.18-.77,1.71-2.18,2.27-3.32,1.32-7.88-.36-7.93,5.44-.05,5.69,2.97,8.65,9.76,9.07,8.56.53,22.74.36,31.4-.2,8.03-.52,28.67-1.75,19.55-11.72-4.99-5.46-11.66-6.55-19.94-6.21l-.28-24.3c5.11-.4,3.77-3.55,7.57-3.03l.99,2.38c15.94-.06,25.66-2.44,27.56,12.51,1.1,8.65,1.21,37.54-4.68,44.12-2.01,2.24-4.01,2-6.27,3.15-.95.48-1,1.89-1.41,2.05-2.3.91-6.44.01-9.86,1.13-1.79.58-1.6,2.58-2.8,2.77-8.43,1.36-27.01,1.71-35.81,1.25-2.52-.13-10.59-.92-12.3-1.59-.47-.18-.52-1.57-1.47-2.05-4.19-2.15-5.44-1.69-8.48-6.11-6.48-9.4-7.59-36.73-.77-45.77ZM143.94,858.08c-.54-2.32-2.58-3.4-3.04-7.14-.58-4.71.62-10.2.11-15.02,5.66-2.16,4.15,14.71,8.98,10.76l1.52-32.28c1.92-.03,4.16-.46,5.28,1.16.24.35,2.21,7.4,2.21,7.8v50.82l-12.13-.78c-4.95-4.66-1.75-10.23-2.93-15.32ZM97.57,897.44c-.11-4.36-3.13-7.9-.05-12.49,2.33-.47,1.03,1.31,1.91,1.95,3.87,2.85,7.9-.89,10.85,1.58l12.65,31.79,39.58.38c8.35-5.25,3.13-13.96-7.06-11.81l-1.03,2.33-2.9.06c.56-4.55-8.07-1.63-7.54-5.95h-1.46c.68,2.8-2.69,2.11-4.36,3.12-1.31.8-1.44,2.62-2.7,2.87-1.34.28-8.5.22-9.26-.18-6.73-8.46,8.87-16.09-4.83-20.93l1.7-5.19c4.53-1.26,4.23,1.77,4.76,1.99,5.41,2.2,5.59-1.46,6.03-1.66,1.34-.6,20.23-.79,22.64-.35,1.26.23.3,2.27,3.14,2.48,6.58.5,13.86.54,20.36-.1-1.69,6.68,1.77,14.88,1.58,20.87-.06,1.97-1.42,3.97-1.58,6.03-.4,5.41,1.03,11.76-3.17,16.6-.63.73-14.4,11.83-15.34,12.26-5.52,2.5-35.82,2.14-43.79,1.68-7.28-.42-5.23-1.26-8.73-3.18-1.67-.91-3.23-.64-5.29-2.36-1.89-1.58-5.65-7.29-6.08-9.52-1.71-9.03.24-22.54-.02-32.26ZM97.51,1000.92l82.07,2.74c6.82,4.4,3.12,20.52,4.56,26.6l-2.09,1.58-31.38.21c-14.72-1.93-36.74,2.63-50.64-1.46-5.38-1.58-1.07-7.77-1.15-11.01-.07-2.84-3.08-17.28-1.37-18.65ZM182.03,1075.1l-59.89.04c-6.21-5.18-16.22-.65-24.64-3.68v-26.9c4.33-5.15,10.81,1.65,11.48,1.78,6.27,1.24,4.08-3.38,8.77-2.4.64.13.53,2.19,1.73,2.41,2.22.41,16.77.26,18.15-.36.48-.21.16-3.25,5.48-2.08l1.64,2.45,1.69-2.44c7.22-1.51,6.08,3.34,10.31,2.45.6-.13-.12-3.39,9.11-2.5,3.02.29.99,3.26,7.44,2.58,3.33-.35,1.29-3.34,5.85-2.5.43,1.35,3.63,2.61,3.8,3.26.88,3.32,1.53,10.48,1.64,14.09.06,2.07-.53,13.42-2.56,13.81Z"/>
  <path d="M166.5,319.4h-60v-7.18c18.27,1.11,38.22-2.93,56.32-1.25,7.72.72,5.08,3.89,3.68,8.43Z"/>
  <rect x="171.01" y="307.45" width="1.47" height="3.58"/>
  <polygon points="166.51 229.72 166.51 235.71 134.14 235.61 129.86 238.19 106.49 238.1 106.49 230.91 166.51 229.72"/>
  <path d="M129.01,82.67l-22.58.68c-5.38-11.26,5.47-19.42,19.67-15.72l2.9,15.03Z"/>
  <path d="M127.28,516.87c.86.42,4.53,7.46,4.67,8.92,1.1,10.86-13.27,7.66-22.52,7.09-8.91-18.25.75-11.62,12.58-13.81.9-.17,1.38-4.11,5.27-2.2Z"/>
  <path d="M142.48,602.77l1.53,11.96h-10.51s.19-8.23.19-8.23c5.41.05,4.75-4.02,8.79-3.73Z"/>
  <path d="M142.14,689.13c8.44,6.42-10.3,9.67-12.46,6.95-1.08-2.81-1.7-6.71.78-9.1.68-.38,10.49,1.24,11.68,2.15Z"/>
  <rect x="117.01" y="790.49" width="2.99" height="3.58"/>
  <polygon points="116.99 937.55 116.99 939.33 114.01 941.13 114.01 937.55 116.99 937.55"/>
  <path d="M103.49,1006.9c.35,2.2.08,3.48-2.24,4.76l-2.22-1.77,1.48-2.98h2.98Z"/>
</svg>