<?xml version="1.0" encoding="UTF-8"?>
<svg id="Layer_1" xmlns="http://www.w3.org/2000/svg" version="1.1" viewBox="0 0 1920 1080">
  <!-- Generator: Adobe Illustrator 29.5.1, SVG Export Plug-In . SVG Version: 2.1.0 Build 141)  -->
  <path d="M226.05,1075.03c2.02.41,5.29-1,4.94,1.2l-14.32-.9-2.17,4.47c0,.4,0,.81.04,1.21h23c-.01-.4-.04-.79-.08-1.19h-.47s-.65-8.45-.65-8.45l-8.35-2.9,9.01-.6v-7.19c-5.02.3-19.39-1.63-20.93,3.27-.7,2.24.49,5.17-1.59,7.48,2.85,1.04,6.96.63,9.42,1.27,1.32.34.94,2.07,2.14,2.31ZM223.51,1067.88h2.99v2.38h-2.99v-2.38Z"/>
  <path d="M214.5,1034.39v-7.18s12.55-.02,12.55-.02c1.59.27,0,3.68,3.95,2.41,1.06-2.82-2.99-5.33-2.68-7.56.55-3.97,10.56-11.18,1.95-12.76l-5.2,9.01-9.18.03c-2.7-4.78-3.39-9.97-1.24-14.9l7.34-.12c.55.43-6.49,14.97-.01,10.75,2.34-1.52-.67-12.08,8.27-12.07,7.22,0,9.59,10.75,6.47,14.88-1.23,1.63-4.2,1.88-4.33,2.75-.64,4.08,5.67,10.31,4.61,14.77h-22.5Z"/>
  <path d="M232.19,1039.49c.3.12,4.33,3.84,4.49,4.07,2.83,4.08,1.56,8.01.15,12.21l-5.83.13c-1.89-1.46,6.11-8.64.72-9.55-4.73-.8-6.31,14.19-15.84,9.04-2.42-1.31-3.75-16.34,4.6-13.82,2.17,1.77-4.85,9.63,1.49,8.37-.09-3.52,5.56-12.34,10.21-10.45Z"/>
</svg>