<?xml version="1.0" encoding="UTF-8"?>
<svg id="Layer_1" xmlns="http://www.w3.org/2000/svg" version="1.1" viewBox="0 0 1920 1080">
  <!-- Generator: Adobe Illustrator 29.5.1, SVG Export Plug-In . SVG Version: 2.1.0 Build 141)  -->
  <path d="M1029-2.23c-.55.86-2.73.95-3,1.2v-1.2h3Z"/>
  <path d="M1024.5-2.23l1.5,1.2c-.11.1.15,1.11-.61,1.97-.48.54-2.21.28-2.16.97.17,2.29,3.48,5.18-3.22,5.42l-1.52-8.36c-2.65-.09-4,5.68-4.51,5.96-3.02,1.68-2.85-1.76-3.28-2.05-1.4-.96-5.59-.23-7.74-.35l-1.71,2.42-2.21-.06-.05-2.32-2.98-.02-.75,2.4-.75-2.4h-2.99s-.02,2.38-.02,2.38h-1.47c.61-3.45-2.08-2.17-5.05-2.39l.53-4.78h39Z"/>
  <path d="M1024.49,21.67v4.8s19.5-1.21,19.5-1.21v9.57c-3.88-.14-5.65-.87-6.75,2.4l-2.23-2.4c.2,1.97.15,2.27-2.21,2.44-5.93.43-1.9-3.19-6.81-2.44l-1.49,2.38-4.41-11.21-4.6-.73c2.58,4.76,3.14,12.04-4.58,12.58,1.04,2.47.05,6.35.39,8.36.1.62,4.14.21,2.7,4.62-.26.81-2.72.61-3,1.53-1.32,4.33.82,11.28,5.96,13.55,4.27-4.05,2.09-7.39,4.54-11.94l-4.38-.07-.12-5.91,3.74,2.4.8-1.51,4.44-.89c-1.63,4.28-.15,9.3-1.93,13.39-4.31,9.93-15.25,4.06-25.06,5.73l3.08-1.85-1.58-6.51,4.53.74c.31-.19,3.46-5,3.68-5.6.8-2.25-.91-3.55-.72-5.25.21-1.88,3.02-3.05,2.75-4.59s-4.66-6.25-4.43-9.06c-5.55-2.29-7.8,2.13-8.32,2.23-1.48.28-11.87.21-12.39-.07l-1-9.52c4.27-3.09,10.51-1.58,14.89-2.36,1.17-.21.85-2.15,2-2.37,5.81-1.11,16.18.75,23-1.21ZM1006.49,25.28c-4.52-.85-2.81,2.27-4.4,4-1.03,1.12-3.61.1-3.08,1.97,4.87.77,7.3-2.63,7.49-5.96ZM1010.26,25.29l-2.24,1.78.71.57,2.24-1.78-.71-.57ZM991.5,30.05c-.54-.62,1.19-2.85-1.49-2.38-1.89,5.66,8.17,5.15,5.97,0-1.92-.53-1.95,5.3-4.48,2.38ZM1012.5,30.06h-2.99s0,3.57,0,3.57h1.47s1.52-3.57,1.52-3.57ZM1037.25,30.05v1.2c.97-.4.97-.8,0-1.2ZM1008.75,62.33v1.2c.97-.4.97-.8,0-1.2Z"/>
  <path d="M1016.86,14.38c-4.53,2.56-10.11,3.82-15.68,4.85-6.26,1.15-4.16.33-9.34,2.35-9.1,3.55-7.59-1.83-6.32-7.06l2.24,2.4,2.24-2.39,3.78,3.56,1.49-4.74,2.27,3.56c3.1.05-.29-3.07,3.72-2.4,1.35.23-.13,3.49,4.45,2.45.85-.19,6.32-5.81,6.07-7.23l5.09,4.67Z"/>
  <path d="M994.51,107.77h-9c-.57-4.4,1.33-4.72,5.96-4.17-3.48-3.27,3.46-7.28-2.98-8.36l1.53-3.01,2.97,2.38-1.47-7.17c6.86,2.74,2.24,5.27,1.89,7.9-.27,2.07,2.61,11.22,1.1,12.43Z"/>
  <path d="M1050.03,58.74l2.21.02,2.25-2.39v3.57s-4.61.72-4.61.72l-.61,6.45c-3.36-2.42-4.63-5.12-2.26-8.34h-6.01s.01-3.58.01-3.58c4.49-1.39,8.31-.5,9.02,3.56Z"/>
  <path d="M1037.99-1.03c.16.13.79,3.84-1.06,3.58-5-.85-4.13.66-5.86,2.26-2.22,2.05-4.71,1.08-5.07-.47-.85-3.65,6.85-1.93,7.7-4.41.11-1.51,4.1-1.1,4.28-.95Z"/>
  <path d="M1054.48,53.96c-4.68-1.96-2.76-7.63-1.47-10.75,1.9,0,4.47,4.61,4.47,5.37,0,1.76-3.04,3.41-3.01,5.37Z"/>
  <path d="M1043.67,50.17c-1.78,1.28-7.62.4-10.16,1.4v-3.57c3.59-.79,7.32.44,9.75-2.39,2.63.97,1.88,3.51.42,4.56Z"/>
  <path d="M1009.5,83.86c1.22-1,3.28-1.44,3.02-3.58l2.23,2.4,3.74-2.4c1.37,3.66-5.99,7.65-8.99,5.97-.09-.79.05-1.6,0-2.39-1.02.84-2.71,3.92-4.49,2.39-2.45-2.11,3.45-4.12,3.01-5.96,2.53-.32,1.39,2.25,1.48,3.58Z"/>
  <path d="M1045.5,16.91c-.75,1.18-9.11,5.88-10.49,4.77-4.15-3.33,7.59-5.38,10.49-4.77Z"/>
  <polygon points="1055.98 42 1055.91 37.73 1052.95 36.62 1057.49 31.25 1055.98 42"/>
  <path d="M1026,9.74c-1.04,3.61-3.53,3.71-7.49,4.77-.9-4.55,2.56-5.21,7.49-4.77Z"/>
  <polygon points="1003.49 88.63 1003.49 94.61 1000.52 94.61 999.01 88.64 1003.49 88.63"/>
  <path d="M1055.99,2.56l-8.98,4.78c-.88-2.96,1.71-2.19,4.41-3.27.38-.15.81-2.67,4.57-1.5Z"/>
  <path d="M1045.49,80.27c.49.46.14,8.36-2.98,8.36.84-2.53-2.59-9.35,2.98-8.36Z"/>
  <path d="M1018.51,95.81c-3.26-2.8,9.24-6.62,9.76-9.54l-4.93,6.82c-.46,1.33-3.59,3.78-4.82,2.72Z"/>
  <path d="M1040.99,59.95l-2.99,5.97,5.98-2.38.02,3.58h-9.01c1.51-2.33,3.32-3.82,1.5-6.49l4.49-.68Z"/>
  <path d="M988.5,62.33c-.89.1-2.51,1.65-2.99,1.19v-8.36s2.24,3.59,2.24,3.59l3.75-3.59c-1.72,2.48-3.02,4.14-3,7.16.91-.11,1.97-.03,2.88.07l1.62,4.7c-4.2.31-4.48-2.1-4.5-4.77Z"/>
  <path d="M988.49,82.67c-.92,2.23,2.69,9.28-2.99,8.36l.02-7.79,2.97-.57Z"/>
  <path d="M1020.01,83.85l.07-3.5,5.19-1.25.71.56c-2.29,1.71-2.05,4.8-5.97,4.19Z"/>
  <polygon points="1030.49 67.11 1026 67.11 1029.76 62.34 1030.49 67.11"/>
  <polygon points="1057.5 62.35 1055.98 65.92 1053.01 65.92 1053.01 62.34 1057.5 62.35"/>
  <polygon points="1055.99 27.67 1055.99 29.44 1053.01 31.25 1053.01 27.67 1055.99 27.67"/>
  <polygon points="1015.5 99.41 1013.98 102.98 1012.51 102.98 1012.51 99.4 1015.5 99.41"/>
  <polygon points="1029.01 9.72 1031.99 7.34 1027.49 7.94 1029.01 9.72"/>
  <polygon points="997.5 67.11 994.51 67.11 994.51 63.54 995.98 63.54 997.5 67.11"/>
  <polygon points="1042.5 6.15 1040.98 9.72 1039.51 9.72 1039.51 6.14 1042.5 6.15"/>
  <polygon points="996 82.67 994.48 86.24 993.01 86.24 993.01 82.67 996 82.67"/>
  <path d="M1039.49,88.63c-2.86-.81-2.1-6.33-2.97-8.36,3.08.8,2.63,6.27,2.97,8.36Z"/>
  <polygon points="1054.5 94.63 1051.51 97.01 1051.51 94.62 1054.5 94.63"/>
  <rect x="997.51" y="80.27" width="1.47" height="3.58"/>
  <rect x="993.01" y="56.36" width="1.47" height="3.58"/>
  <rect x="1008.01" y="92.23" width="1.47" height="3.58"/>
  <rect x="1056.01" y="99.4" width="1.47" height="3.58"/>
  <rect x="991.51" y="47.99" width="1.47" height="2.38"/>
  <rect x="994.51" y="47.99" width="1.47" height="2.38"/>
  <polygon points="1017.01 88.64 1018.49 88.64 1018.49 90.42 1016.24 92.2 1017.01 88.64"/>
  <rect x="990.01" y="7.34" width="1.47" height="2.38"/>
  <path d="M986.25,65.92c.97.4.97.8,0,1.2v-1.2Z"/>
  <path d="M1005.75,99.4c.97.4.97.8,0,1.2v-1.2Z"/>
  <path d="M1004.25,95.81c.97.4.97.8,0,1.2v-1.2Z"/>
  <path d="M1056.75,94.62c.97.4.97.8,0,1.2v-1.2Z"/>
  <polygon points="116.99 937.55 116.99 939.33 114.01 941.13 114.01 937.55 116.99 937.55"/>
  <path d="M103.49,1006.9c.35,2.2.08,3.48-2.24,4.76l-2.22-1.77,1.48-2.98h2.98Z"/>
</svg>