<?xml version="1.0" encoding="UTF-8"?>
<svg id="Layer_1" xmlns="http://www.w3.org/2000/svg" version="1.1" viewBox="0 0 1920 1080">
  <!-- Generator: Adobe Illustrator 29.5.1, SVG Export Plug-In . SVG Version: 2.1.0 Build 141)  -->
  <defs>
    <style>
      .st0 {
        font-family: MyriadPro-Regular, 'Myriad Pro';
        font-size: 12px;
      }
    </style>
  </defs>
  <text class="st0" transform="translate(1560.7 5.29)"><tspan x="0" y="0">file:///Users/oxo/Downloads/jpg(1)</tspan></text>
  <g>
    <path d="M1192.49,430.6l1.35,7.85c-3.8.81-3.06,2.45-2.84,5.31-3.53-.84-5.73.78-6.74-2.4-3.05,2.55-.78,5.59-6.57,4.86l-.34,5.83c-6.94-1.03-4.38,4.22-5.86,6.05-1.91,2.35-6.49-4.41-8.97-2.39l4.48,14.34c-2.24.05-6.12-9.65-8.98-7.16l1.49,4.77-8.98-1.18-1.6,5.31c2.96,1.21,3.67,1.08,3.07,4.25l-10.49-1.18,3.09,1.95-.09,6.4,4.51-1.77c-.36,3.65-.81,5.56-5.67,5.64l-3.34,5.7c5.79-1.98,7.5,2.31,9.63,2.49,5.78.48,11.19.7,15-2.58l18.85.09c-1.27-6.86,3.78-12.73,12.5-8.37,1.38.69.47,3.39,4.71,2.43,2.24-.51,2.75-10.94,16.15-5.92,12.05,4.52,23.3,8.9,35.29,14.18,3.72,1.64,7.73-.41,6.37,4.85l-17.09.23-2.44,4.57c-3.54.12-4.74-5.08-7.39-3.5-.23.14.21,1.59-.4,1.98-1.32.84-4.32,0-6.23.49s-1.89,2.54-2.92,3.11c-1.42.79-3.53-.27-4.05.91-1.05,2.36,2.03,1.32,2.95,2.65,7.79,11.23,18.32,20.65,24.09,33.18,15.91,34.57,9.29,71.9,10.4,107.58.94,30.28,2.71,61.51.07,92.11-1.93,22.33-13.52,47.13-34.58,62.08-7.98,5.67-14.76,7.38-24.29,10.34-1.12.35-1,2.09-2.16,2.29-10.69,1.81-37.04,2.17-47.41-.02-1.19-.25-.97-1.95-2.19-2.26-11.8-3.01-25.01-7.63-33.38-15.35-45.37-41.83-22.99-111.32-28.57-162.36l3.07-7.7-4.48,1.2-4.5-5.98c-.38,2.57,3.24,8.93-2.99,8.37-2.44-7.01-2.22-13.72,8.98-10.77.53-3.48-1.33-6.69-1.56-10.11-.91-13.67.18-40.42,3.5-53.51,1.44-5.67,12.03-29.97,15.96-33.62,2.33-2.16,6.8-.88,8.86-7.67,1.09-3.59-1.58-2.16-2.77-3.54-2.39-2.76.46-6.14,4.51-6.37-5.99-5.62-1.24-8.38-.35-12.82.66-3.27-.59-7.39,1.87-11.04,2.89.99.57,3.43,5.98,2.38-1.07-3.89-1.57-6.43,1.47-9.89,1.01-1.15,3.21-1.16,4.2-2.88.92-1.59.58-4.34,1.68-5.61,1.2-1.39,16.02-8.2,19.16-10.7,1.72-1.37,2.4-4.22,3.89-5.26,2.85-2,8.13-.87,10.19-2.08,1.46-.86.86-3.24,1.81-3.97.67-.51,2.69-.07,3.58-.61,1.14-.7,1.11-2.52,2.97-3.04,2.71-.76,7.36.2,10.1-1.29,1.78-.97,1.13-4.47,3.21-6.11,1.23-.97,3.39-.87,4.68-1.63,1.6-.94,2.72-3.9,6.55-3.12ZM1130.99,495.15v-3.58h-1.47v3.58h1.47ZM1142.98,496.36c-4.45-2.73-6.17,9.13,1.51,8.36l-1.51-8.36ZM1167,499.95h-2.99s0,3.57,0,3.57h1.47s1.52-3.57,1.52-3.57ZM1198.51,504.72c5.9,0,5.97-4.74,0-4.77v4.77ZM1156.49,503.53h-2.99v3.58h2.99v-3.58ZM1178.99,507.11v-2.38h-1.47v2.38h1.47ZM1148.97,513.1l-3,.61c1.17,3.52-.1,7.81,6.02,6.55l-3.02-7.16ZM1184.99,513.1h-2.99s1.51,5.96,1.51,5.96h1.47s0-5.96,0-5.96ZM1138.5,515.5h-4.5l1.52,3.57h1.47l1.52-3.57ZM1120.15,517.01c-2-.77-4.81-.43-7.01-.21-1.71,5.45.21,14.92,9.42,13.11,1.1-.21,3.95-6.74,3.7-7.69-.09-.35-5.71-5.04-6.12-5.2ZM1135.48,532.22c1.64-.92.15-6.94-2.96-7.16l-1.51,7.16h4.47ZM1127.99,532.23h-2.99v1.17h2.99v-1.17ZM1169.99,535.81v-2.38h-1.47v2.38h1.47ZM1156.49,552.55h-4.49c-.57,2.87.71,5.07,4.49,4.77v-4.77ZM1195.49,568.1c-1.93-.31-3.79.46-4.35,1.98-2.43,6.65,7.3,10.83,4.35-1.98ZM1178.57,570.83c-2.89-1.72-15.95-2.37-19.06-.89-4.91,2.34-7.04,11.09-7.5,15.49-1.36,13.07,1.9,26.51-1.64,39.46,5.66,34.67-2.46,73.19,1.64,107.59,1.63,13.67,12.77,13.63,27.13,10.6,1.08-2.21,3.08-3.79,3.98-6.12,1.83-4.75,2.99-14.8,3.38-20.02,2.56-34.55,2.11-80.11.07-114.83-.32-5.42-1.05-13.51-1.95-18.77-.46-2.7-3.58-11.04-6.05-12.51ZM1127.99,590.8v-2.38h-1.47v2.38h1.47ZM1123.27,606.58c-5.9-2.75-9.55,9.04-3.36,11.63,9.76,2.48,6.96-9.95,3.36-11.63ZM1125.75,626.68v1.2c.97-.4.97-.8,0-1.2ZM1193.25,630.27v1.2c.97-.4.97-.8,0-1.2ZM1243.49,630.27c-2.79-2.23-6.64,4.79-2.24,4.76,1.56-.01,3.16-4.02,2.24-4.76ZM1241.99,643.42h-2.97s-1.51,4.77-1.51,4.77h4.49s0-4.77,0-4.77ZM1094.99,662.54v-2.38h-1.47v2.38h1.47ZM1210.49,682.87v-2.38h-1.47v2.38h1.47ZM1215.75,682.87v1.2c.97-.4.97-.8,0-1.2ZM1193.25,731.9v1.2c.97-.4.97-.8,0-1.2ZM1194.75,755.81v1.2c.97-.4.97-.8,0-1.2ZM1108.5,772.56l-5.99,1.2v2.37s4.32-.14,4.32-.14l1.68-3.43Z"/>
    <path d="M1211.99,421.03l-1.51,13.14-4.47-4.78-1.54,4.78-4.47-3.58-.29,3.31-5.71,1.46.7-4.89c5.69.04,2.72-1.3,4.71-3.34,1.56-1.61,11.28-7.21,12.58-6.11Z"/>
    <path d="M316.49,870.59h-1.47c-.86-2.81-2.97-5.08.74-7.16l.73,7.16Z"/>
    <polygon points="1205.99 435.38 1204.48 441.35 1203.01 441.35 1203.01 435.38 1205.99 435.38"/>
    <rect x="1186.51" y="446.14" width="1.47" height="3.58"/>
    <rect x="1258.51" y="492.77" width="1.47" height="2.38"/>
    <rect x="316.51" y="859.84" width="1.47" height="2.38"/>
    <path d="M1257.75,234.51c.97.4.97.8,0,1.2v-1.2Z"/>
  </g>
</svg>