<?xml version="1.0" encoding="UTF-8"?>
<svg id="Layer_1" xmlns="http://www.w3.org/2000/svg" version="1.1" viewBox="0 0 1920 1080">
  <!-- Generator: Adobe Illustrator 29.5.1, SVG Export Plug-In . SVG Version: 2.1.0 Build 141)  -->
  <path d="M609.29,1081.03c-.01-.46-.02-.92-.03-1.38-.77-.39-2.12-1.26-3.22-1.07l-.04-3.53c10.89.71,1.23-14.34,4.49-20.33-7.28,2.58-17.98.49-7.38-4.26l-2.87-6.35,2.86-.81-1.61-4.11,4.5-1.21,1.53,9.56,2.71-2.05-1.24-21.86c-2.03-1.29-2.87-.16-2.99,1.77-.21,3.38.16,6.81,0,10.18-6.34.81,1.53-3.36-3.74-5.95-1.87,2.3-5.13,1.91-7.76,2.81-4.27,1.46-6.82,1.51-10.69,2.77-1.92.63-2.62,5.11-7.81,2.16-.9-2.85,2.87-4.73,3.59-6.54.53-1.33-.53-3.11.05-4.79.85-2.46,2.71-9.43,4.57-10.82,2.08-1.56,5.08-.65,6.48-1.48.94-.56-.64-2.55,1.8-2.05,1.45,2.62.98,8.22,4.5,9.55-.38-2.97,1.97-7.22-2.72-7.34l-.26-1.6c2.14-2.68,4.99-2.94,8.69-3.23l1.8-6.96,5.99,4.78c-4.04-25.89.6-52.39-1.43-78.36-.12-1.54-1.35-8.84-2.42-8.99l-99.35,1.57c-1.84,5.65-3.08.38-4.39-.25-.74-.36-4.9-1.26-5.56-1.15-5.51,7.4-4.74,1.44-6.33,1.1-8.27-1.79-18.86.89-27.51-.01l.07,77.18c-3.1,18.89,0,41.29-11.76,58.78-.89,1.33-9.99,12.19-10.68,12.72-3.11,2.38-16.05,1.61-19.43,6.12l1.19,3.88c.21.06.36.26.36.47v1.07h186.04ZM604.51,1059.51h2.99v1.17h-2.99v-1.17ZM600.01,1076.25h1.47v2.38h-1.47v-2.38ZM596.99,980.59h-1.47v-3.58h1.47v3.58ZM595.5,966.23l3.76-4.77.74,4.77h-4.49ZM598.51,927.99h2.99v3.58h-2.99v-3.58ZM595.51,936.36h2.99v3.58h-2.99v-3.58ZM598.5,949.5v-3.59s2.99,0,2.99,0l.04,2.99c-.37.92-2.83.42-3.03.59-1.91,1.55-3.32,7.8-4.49-1.19l4.49,1.19ZM592.51,992.55h1.47v2.38h-1.47v-2.38ZM584.25,988.96c.97.4.97.8,0,1.2v-1.2ZM513.75,1022.44v-1.2c.97.4.97.8,0,1.2ZM516.75,993.74v-1.2c.97.4.97.8,0,1.2ZM523.49,1070.26h-1.47v-2.38h1.47v2.38ZM523.49,1049.93h-1.47v-2.38h1.47v2.38ZM530.25,1039.18v-1.2c.97.4.97.8,0,1.2ZM530.99,968.63h-1.47v-2.38h1.47v2.38ZM541.49,1054.72h-1.47v-2.38h1.47v2.38ZM542.25,1071.46v-1.2c.97.4.97.8,0,1.2ZM543.75,993.74v-1.2c.97.4.97.8,0,1.2ZM544.49,980.59h-1.47v-2.38h1.47v2.38ZM598.49,1063.08h-2.99v-2.38h2.99v2.38ZM597,1037.99l-1.52,3.57h-1.47s0-3.57,0-3.57h2.99ZM595.49,1047.55v2.38h-1.47v-2.38h1.47ZM597,1051.14l-1.52,3.57h-1.47s0-3.57,0-3.57h2.99ZM592.51,1078.64h2.99v1.17h-2.99v-1.17ZM582.83,1066.88l3.65,3.38,3-5.97c1.76,8.96-4.97,7.26-13.49,7.16,1.05-3.29,2.97-3.79,6.83-4.57ZM577.03,1053.73c1.08-1.62-.78-3.27,3.47-2.59l-.13,7.06c-2.41,1.4-4.35.19-5.87.11-1.58,3.93-1.28,7.69-4.55,11.36l3.04,2.99h-8.99l4.37-2.43c-1.73-5.16,1.99-5.28,2.67-6.17.24-.31-.93-4.35.49-5.72.98-.06,1.97-.06,2.96-.01.71-1.75,1.45-2.97,2.53-4.58ZM564.01,997.32v-2.38h2.99v2.38h-2.99ZM571.51,977v-2.38h2.99v2.38h-2.99ZM574.49,1011.68v2.38h-1.47v-2.38h1.47ZM571.51,965.04v-3.58s2.98,1.81,2.98,1.81v1.77s-2.98,0-2.98,0ZM577.49,998.52h-1.47v-3.58h1.47v3.58ZM576.01,988.95v-2.38h1.47v2.38h-1.47ZM583.49,1010.47h-2.99v-1.17h2.99v1.17ZM583.49,966.24l-4.49-1.21v-2.37s4.49,0,4.49,0v3.58ZM578.99,945.92c-2.13-.58-5.47-3.17-4.47-4.78h1.47c-.17.7.02,1.35.62,1.88,1.01.89,3.44-.11,2.39,2.9ZM577.5,927.38c-.7,1.24-3.67,1.35-4.25,2-2.09,2.33,4.98,9.11-1.74,8.18l-7.52-11.34c.58-2.28,14.65-2.35,13.51,1.16ZM562.51,986.57h2.99v2.38h-2.99v-2.38ZM555.75,1058.31c.97.4.97.8,0,1.2v-1.2ZM552.01,969.84h1.47v2.38h-1.47v-2.38ZM549.01,969.84h1.47v2.38h-1.47v-2.38ZM547.51,1011.68h2.99v2.38h-2.99v-2.38ZM544.39,928.05l1.6,5.91c-5.7-1.11-10.1-6.95-1.6-5.91ZM534.75,1017.66c.97.4.97.8,0,1.2v-1.2ZM532.51,1078.64h2.99v1.17h-2.99v-1.17ZM530.99,925.6l-.74,3.58-2.24-1.8v-1.77s2.98,0,2.98,0ZM525.75,956.68c.97.4.97.8,0,1.2v-1.2ZM525.75,985.37c.97.4.97.8,0,1.2v-1.2ZM523.51,969.84h1.47v2.38h-1.47v-2.38ZM522.01,933.97h1.47v2.38h-1.47v-2.38ZM522.75,1006.89v-1.2c.97.4.97.8,0,1.2ZM522.75,1018.85v-1.2c.97.4.97.8,0,1.2ZM522.01,1034.4h2.99v3.58h-2.99v-3.58ZM518.25,1010.48c.97.4.97.8,0,1.2v-1.2ZM516.01,933.97h1.47v2.38h-1.47v-2.38ZM513.01,986.57h1.47v2.38h-1.47v-2.38ZM509.25,985.37c.97.4.97.8,0,1.2v-1.2ZM504.75,968.63c.97.4.97.8,0,1.2v-1.2ZM502.51,1032.01h1.47v2.38h-1.47v-2.38ZM501.01,998.53h1.47v2.38h-1.47v-2.38ZM498.75,951.9c.97.4.97.8,0,1.2v-1.2ZM492.01,1011.68h1.47v2.38h-1.47v-2.38ZM492.01,1076.25h1.47v2.38h-1.47v-2.38ZM491.25,943.53c.97.4.97.8,0,1.2v-1.2ZM490.49,1066.67h-2.99v-2.38h2.99v2.38ZM484.51,998.53h4.49v4.78h-4.49v-4.78ZM472.49,1058.3h-1.47v-2.38h1.47v2.38ZM480.75,1046.35c.97.4.97.8,0,1.2v-1.2ZM473.25,943.53c.97.4.97.8,0,1.2v-1.2ZM471.01,998.53h4.49v2.38h-4.49v-2.38ZM466.51,1006.9h1.47s1.52,3.57,1.52,3.57h-2.99s0-3.57,0-3.57ZM459.48,1070.29c1.42-.71.19-2.85,2.51-2.41.89,3.48-1.44,3.63-3.86,5.3-2.59,1.79-6.75,4.46-6.62-.51,2.57-.48,5.77-1.28,7.97-2.39ZM442.5,1075.06l-1.52,3.57h-1.47s0-3.57,0-3.57h2.99Z"/>
  <path d="M607.52,1011.69h1.47c2.19,3.71,1.72,9.36-2.99,5.35l1.52-5.35Z"/>
  <rect x="600.01" y="1014.07" width="2.99" height="4.77"/>
  <polygon points="595.48 1029.61 592.51 1029.61 592.56 1027.88 595.52 1023.64 596.99 1023.64 595.48 1029.61"/>
  <path d="M602.99,1026.02h-2.99c-.36-2.21-.06-3.48,2.25-4.77l.74,4.77Z"/>
  <rect x="591.01" y="1017.66" width="1.47" height="3.58"/>
</svg>