<?xml version="1.0" encoding="UTF-8"?>
<svg id="Layer_1" xmlns="http://www.w3.org/2000/svg" version="1.1" viewBox="0 0 1920 1080">
  <!-- Generator: Adobe Illustrator 29.5.1, SVG Export Plug-In . SVG Version: 2.1.0 Build 141)  -->
  <defs>
    <style>
      .st0 {
        fill: #fff;
      }

      .st1 {
        font-family: DINCondensed-Bold, 'DIN Condensed';
        font-size: 438.93px;
        font-weight: 700;
      }
    </style>
  </defs>
  <path d="M1428,835.92c1.31,2.98-4.62,3.27-6.91,3.46-6.07.49-16.14-1.81-17.84,2.54l-1.5-2.42-3.74,2.4v-5.97s29.99,0,29.99,0Z"/>
  <path d="M1528.51,844.28c-.37-3.56.12-7.11,3.74-9.54,3.16-.09,4.48,11.72-3.74,9.54Z"/>
  <path d="M1452.06,354.64c-.59-.5.15-4.38,1.66-4.41.24,0,3.75,1.75,3.9,2.21.71,2.18-4.9,2.75-5.55,2.2Z"/>
  <path d="M1441.49,835.92c2.02,1.57-6.15,7.32-4.49,0h4.49Z"/>
  <polygon points="1557 863.43 1555.48 867 1554.01 867 1554.01 863.42 1557 863.43"/>
  <rect x="1588.51" y="455.71" width="1.47" height="3.58"/>
  <polygon class="st0" points="1363.43 710.81 1362.86 707.69 1364.13 703.17 1363.43 710.81"/>
  <path class="st0" d="M1458.76,505.61l-3.33,7.86h-6.55c-1.05-4.98,3.86-8.75,9.88-7.86Z"/>
  <polygon class="st0" points="1557.74 508.22 1557.74 497.72 1560.98 497.72 1564.23 504.3 1557.74 508.22"/>
  <g>
    <path d="M1449.61,520.32c-3.6,1.91-8.69-2.78-6.77-7.13,1.92-4.37,8.66-2.59,9.51,1.38.18.85-2.4,5.57-2.74,5.75Z"/>
    <path d="M1543.91,494.85c-7.18,2.23-4.11-13.83-1.76-13.79,2.74,3.93,3.38,9.28,1.76,13.79Z"/>
    <path d="M1554.31,487.51c-1.3-2.11-1.26-6.75,1.74-7.23,5.67-.91,5.56,9.67-1.74,7.23Z"/>
    <text class="st1" transform="translate(1412.88 818.58) scale(1.66 1)"><tspan x="0" y="0">I</tspan></text>
  </g>
  <rect class="st0" x="1465.77" y="303" width="2.4" height="3.88"/>
  <rect class="st0" x="1534.65" y="508.23" width="3.24" height="5.24"/>
  <path class="st0" d="M1506.59,502.96c2.14.88,2.14,1.75,0,2.63v-2.63Z"/>
  <path class="st0" d="M1499.09,594.64l-4.78-.45-3.37,49.8-9.53-.87c1.04-9.88,2.19-14.33-.81-17.42l2.91-5.47c-2.01.32-2.3.17-1.92-5.84.96-15.16,3.62-4.54,4.03-17.12l-2.02-4.01,12.2-10.2,1.8-11.66c-5.35,6.15-12.73,6.91-11.45-12.82-2.71,2.43-6.33-.44-8.41.22-.64.2-1.18,10.52-5.23,6.46-.74-.74.03-6.97-.82-7.78-4-3.76-11.42,1.05-14.89,13.95,3.03,11.24,6.87,6,10.82,12.65l1.1-11.16,5.92.24-3.27,9.32,1.32,2.17-.16,11.4c-3.88-4.54-9.23-1.24-12.88-6.13-8.88-11.9-.47-39.22.17-64.36l1.12,8.02,6.86-3.43-1.79,11.47c.12.81,4.17,9.28,4.72,9.88,2.05,2.24,3.75-2,5.39-1.36,1.82.72,2.33,7.98,3.92,7.44,1.55-.53,7.32-11.3,10.06-10.46,3.58-13.92-.3-20.05-.27-21.39.07-3.8,2.57-30.27,2.98-31.56l9.72-1.67c2.07,11.17-.88,26.91-1.14,38.13-.07,2.99,1.94,2.37,1.89,5.32-.25,14.9-4.54,41.15-4.18,58.69ZM1499.72,548.45c1.9-11.43-1.6-7.37-2.95-11.58-.87-2.73.75-9.22-1.24-8.04-1.91,12.35.91,18.83,4.18,19.62ZM1498.82,558.05l-1.25-5.86-.73,1.76,1.25,5.86.73-1.76ZM1498.49,509.83c.75-1.32,2.56,3.29,2.72-3.58-5.19-5.33-7.05,20.35-1.4,15.22.98-4.84-4.82-5.44-1.32-11.64ZM1493.55,563.31l.71-7.62-3.56-.31-.34,3.75,3.2,4.19ZM1487.76,626.36l-1.19-.11c.17,2.52.57,2.55,1.19.11ZM1462.29,550.8l-1.19-.11c.17,2.52.57,2.55,1.19.11Z"/>
  <path class="st0" d="M1477.95,719.8l-6.65,7.2,1.67,7.77c-2.99,2.06-10.56,8.01-9.5,18.41l8.18-10.79c2.78,2.86-2.23,26.22-1.6,30.94s3.92,1.12,1.91,11.39c-4.12-.18-3.74,14.07-7.54,16.73-.42,3.46,4.2,1.7,2.19,15.6-.71,4.91-4.42-3.71-4.46,9.21l4.93,4.03-.38,11.82c-1.86-.21-8.04,1.66-7.5-6.33.17-2.53,1.53-6.78,1.77-11.01,1.15-20.54,3.7-29.48,4.12-34.83s-2.86-8.49,2.5-22.78c-1.62-14.31-6.45-.55-8.96-.46-2.38.08-5.86-10.69-9.56-7.14l10.07-18.26-6.89,3.1c-1.63-4.84-1.1-6.79.65-13.28l-3.75,1.48,4.79-7.52,2.34,8.18-1.81-19.38,4.77.39c2.31-15.87-3.71-2.3-5.29-5.06-.21-.36-2.38-12.26-1.29-14.78l6.43,8.25-1.16-13.6c14.69-12.02.72,39.74,2.87,48.19l7,.78c1.67-7.25,2.08-32.02,5.01-34.08,1.9-.19,7.35,8.88,5.12,15.82ZM1468.66,755.61l-1.19-.11c.17,2.52.57,2.55,1.19.11Z"/>
  <path class="st0" d="M1490.05,771.07c.78-8.15,2.56-16.99-.96-15.55l.34-3.74,3.91-3.49c-2.13-.66-3.73,3.55-3.07-5.96,1.43-20.65,3.19-43.7,3.45-63.36,3.59-2.53,1.14,6.03,3.03,9.17,2.86,4.75,5.56-1.62,3.21,14.48l-3.75,1.58c6.4,10.8-.85,41.57-.79,60.87.02,5.01,2.84.32,1.77,6.63l-7.14-.62Z"/>
  <path class="st0" d="M1450.57,717.34c-.14-.57-.83.35-1.19-.11-.02-14.09-2.04-10.29-6.04-12.25.51-7.8,1.33-22.73,4.96-22.47.48.03,3.79,3.65,3.88,4.19,1.82,10.55-5.38,3.76-4.78,12.96.33,5.08,4.47,7.47,3.17,17.67Z"/>
  <path class="st0" d="M1456.19,656.28l-.53,5.63,1.86,5.95-3.55-.34.36-11.81-6.28-2.14c3.2-8.33,6.18-11.33,8.83-5l1.42-15.31,3.55.36c.34,11.55-1.45,21.22-5.66,22.66Z"/>
  <path class="st0" d="M1459.91,668.07c3.05-11.74,8.25-6.33,11.04-2.75-.44,4.83-5.64,10.97-6.4,10.9-1.76-.16-2.68-8.06-4.65-8.15Z"/>
  <path class="st0" d="M1466.22,640.87c-.86-4.65,1.39-19.43.99-26.02l3.56.31c-.06,9.23-2.15,18.61.09,25.06-1.59,6.6-3.93,4.46-4.63.65Z"/>
  <path class="st0" d="M1469.71,692.06c-1.57-11.06,9.36-13.65,8.12,2.75-1.91,10.86-7.81-.59-8.12-2.75Z"/>
  <path class="st0" d="M1488.74,693.86c-.45,1.08-7.27-1.02-6.43-8.22,4.23-1.18,3.75-15.88,7.7-6.68l-1.27,14.9Z"/>
  <path class="st0" d="M1498.91,648.58c-1-2.01-3.72-23.74-2.29-27.17,4.29-10.27,3.57,19.83,2.29,27.17Z"/>
  <polygon class="st0" points="1471.47 672.98 1475.74 673.18 1477.53 665.75 1481.82 677.8 1471.47 672.98"/>
  <path class="st0" d="M1500.03,675.69l2.03,4.02c-1.85,19.03-4.87-.22-2.51-11.8-5.09,5.16-4.86,8.2-9.51,3.47-1.91-1.94-3.6,2.48-2.03-8.37,5.44,7.63,11.14-4.61,14.76,9.1l-2.72,3.58Z"/>
  <path class="st0" d="M1435.81,642.75c-.57,1.2-8.35-.42-7.63-8.36,2.32,2.36,9.92-5.74,7.63,8.36Z"/>
  <path class="st0" d="M1457.11,633.15l-5.24-8.16.97,15.45-3.57-.27,2.12-22.94c1.96,4.05,3.03,8.8,6.1,4.41l-.38,11.51Z"/>
  <path class="st0" d="M1438.23,577.51l3.47.49.03,13.34-.73,1.75c-1.16-5.99-4.3-5.66-2.77-15.58Z"/>
  <polygon class="st0" points="1452.43 605.75 1453.49 594.31 1457.36 604.31 1452.43 605.75"/>
  <polygon class="st0" points="1450.85 674.98 1447.65 670.79 1448.35 663.21 1451.91 663.54 1450.85 674.98"/>
  <polygon class="st0" points="1485.74 674.32 1483.98 674.14 1482.87 666.4 1486.44 666.71 1485.74 674.32"/>
  <path class="st0" d="M1428.9,626.69c1.48-7.2,6.79-4.76,9.02-6.81-1.52,7.78-6.86,6.13-9.02,6.81Z"/>
</svg>