<?xml version="1.0" encoding="UTF-8"?>
<svg id="Layer_1" xmlns="http://www.w3.org/2000/svg" version="1.1" viewBox="0 0 1920 1080">
  <!-- Generator: Adobe Illustrator 29.5.1, SVG Export Plug-In . SVG Version: 2.1.0 Build 141)  -->
  <path d="M499.5-2.23l3.74,4.84,51.76-1.25v24.51l-2.25,1.79h-53.25c-1.99,3.4-1.2,21.96-5.47,22.77-3.35.63-8.2.69-8.78-2.45l-2.23,2.4-2.27-3.56-3.01,3.61h-2.99s-1.5-2.45-1.5-2.45l-2.19.07-1,2.36-8.05-.02c.4-2.44-1.56-11.28,2.4-11.88l5.1,1.12-2.99,7.16c5.88.86,7.31-3.49,7.51-7.17l2.99,5.98c6.07,1.58.3-7.24,5.23-5.98,2.61.67.26,7.24,5.24,5.98l2.9-13.67-2.33-1.6-62.86-.21.8-25.17c.67-.53,11.22.5,14.01,0,1.25-.23.29-2.24,3.14-2.48,9.77-.82,21.52.64,31.66.1,4.28-.23,1.56-2.96,2.2-4.79h22.5Z"/>
</svg>