<?xml version="1.0" encoding="UTF-8"?>
<svg id="Layer_1" xmlns="http://www.w3.org/2000/svg" version="1.1" viewBox="0 0 1920 1080">
  <!-- Generator: Adobe Illustrator 29.5.1, SVG Export Plug-In . SVG Version: 2.1.0 Build 141)  -->
  <defs>
    <style>
      .st0 {
        fill: #fff;
      }
    </style>
  </defs>
  <path d="M1452.06,354.64c-.59-.5.15-4.38,1.66-4.41.24,0,3.75,1.75,3.9,2.21.71,2.18-4.9,2.75-5.55,2.2Z"/>
  <path d="M1493.21,293.46v3.54s-3.33,0-3.33,0c-.42-2.13.52-3.76,3.33-3.54Z"/>
  <path d="M1586.99,513.1l-1.51,5.96h-1.47c-.98-2.22-.93-3.74,0-5.97h2.98Z"/>
  <polygon points="1564.41 320.07 1562.73 321.82 1561.08 321.83 1561.08 320.06 1564.41 320.07"/>
  <rect x="1574.43" y="345.78" width="2.21" height="1.77"/>
  <rect x="1588.51" y="455.71" width="1.47" height="3.58"/>
  <rect x="1559.97" y="345.78" width="1.09" height="2.65"/>
  <rect x="1593.01" y="516.69" width="1.47" height="2.38"/>
  <rect x="1569.98" y="353.76" width="2.21" height=".87"/>
  <rect x="1571.1" y="345.78" width="1.09" height="1.77"/>
  <path d="M1257.75,234.51c.97.4.97.8,0,1.2v-1.2Z"/>
  <path class="st0" d="M1400.34,309.61c-.73-1.48-.31-7.05-.49-7.75l1.19.11-.7,7.64Z"/>
  <path class="st0" d="M1386.98,454.8l-6.33,68.78-2.71-9.88c6.78-7.47,1.44-13.77,1.49-15.87.3-15.33,4.19-45.51,4.66-63.83.08-3.24-2.03-.77-1.72-8.27.31-7.45.88-16.47,3.71-13.39-.43,7.98-.55,14.01,1.77,16.52l-.15,18.31c-.07,1.26-.28,2.56-.35,3.82-.01.21-1.12-.64-1.35,1.8l.99,2.02Z"/>
  <path class="st0" d="M1371.16,626.75c-3.18.09-4.33,2.23-2.72-10.1,1.25-9.56,2.81-1.98,3.28-9.08l-3.58-.38,3.28-42.1c-6.48,2.12-5.11,36.98-6.92,41.6l-3.49-.13c-2.56,10.45,6.83,10.32,2.01,17.57-6.86,10.31-7.56-2.61-9.95-2.95-2.13-.3-8.31,17.29-10.28,1.03,8.86-22.55,7.89-6.6,12.1-2.59,4.18,3.98,6.13-9.68,1.56-15.41l4.08-5.47c.42-6.74-1.99-1.19-1.88-11.19.06-5.34,2.36-34.09,3.89-36.89l6.78,3.32-.86,10.9,9.38-10.73-6.68,72.6ZM1362.08,595.05l2.37.22.35-3.75-2.37-.22-.35,3.75Z"/>
  <path class="st0" d="M1392.61,393.67c-1.82-3.94.53-14.3.67-20.47.07-3.06-1.96-2.34-1.89-5.33.21-8.71,2.41-20.33,1.53-29.99l4.61,2.3-4.92,53.49Z"/>
  <polygon class="st0" points="1378.55 546.51 1371.92 540.15 1380.3 527.4 1378.55 546.51"/>
  <path class="st0" d="M1368.56,472.38c.78-8.15,2.56-16.99-.96-15.55l.34-3.74,3.91-3.49c-2.13-.66-3.73,3.55-3.07-5.96,1.43-20.65,3.19-43.7,3.45-63.36,3.59-2.53,1.14,6.03,3.03,9.17,2.86,4.75,5.56-1.62,3.21,14.48l-3.75,1.58c6.4,10.8-.85,41.57-.79,60.87.02,5.01,2.84.32,1.77,6.63l-7.14-.62Z"/>
  <path class="st0" d="M1361.77,467.91l-.68,7.58,2.16,2.65c-1.01,21.92-5.26,14.2-9.17,8.09l2.26-12.81c.11-4.14-6.81-11.26.71-19.44-3.43-3.15-1.34-10.63-.46-21.24l7.15.68c-.22,13.74-2.12,7.84-3.78,14.99l2.75,4.05-1.46,9.71,3.24,2.16-2.72,3.58Z"/>
  <path class="st0" d="M1351.57,578.75l3.23,4.12-1.06,11.44c-2.89-.6-6.6,2.56-7.79-6.48l4.08-5.45-1.67-7.78,3.76-1.62-3.33-4.5.49-16.93,6.93,1.15-.55,20.19-4.07,5.88Z"/>
  <path class="st0" d="M1359.23,521.58l-6.5,5.22,5.65,2.8-1.27,14.93c-11.29,3.19-6.73-10.54-3.98-35.05.36-1.14,8.71.81,6.09,12.11Z"/>
  <path class="st0" d="M1312.34,362.57l-2.35,2.31,2.03,4.54c-.97,5.57-.54,22.53-3.69,20.32-1.5-5.45.48-16.94-2.76-15.69l2.92-5.43c1.76-10.57-2.13-10.45-1.67-21.34l6.79,4.5-1.28,10.79Z"/>
  <path class="st0" d="M1334.7,357.58l-.53,5.63,1.86,5.95-3.55-.34.36-11.81-6.28-2.14c3.2-8.33,6.18-11.33,8.83-5l1.42-15.31,3.55.36c.34,11.55-1.45,21.22-5.66,22.66Z"/>
  <path class="st0" d="M1397.04,332.41c-.17.4-4.01,1.65-3.31-3.03,2.02-12.65.31-10.57-.88-15.13-1.52-5.85.03-12.09,1.66-12.87,3.84-1.83.32,17.62,2.59,20.03,1.48.41.13,10.54-.06,11Z"/>
  <path class="st0" d="M1338.42,369.37c3.05-11.74,8.25-6.33,11.04-2.75-.44,4.83-5.64,10.97-6.4,10.9-1.76-.16-2.68-8.06-4.65-8.15Z"/>
  <path class="st0" d="M1344.72,342.18c-.86-4.65,1.39-19.43.99-26.02l3.56.31c-.06,9.23-2.15,18.61.09,25.06-1.59,6.6-3.93,4.46-4.63.65Z"/>
  <path class="st0" d="M1348.22,393.37c-1.57-11.06,9.36-13.65,8.12,2.75-1.91,10.86-7.81-.59-8.12-2.75Z"/>
  <path class="st0" d="M1361.79,402.43c10.35,4.04.67,37.82-.77,15.09-.25-4.02,1.29-10.2.77-15.09Z"/>
  <path class="st0" d="M1367.25,395.17c-.45,1.08-7.27-1.02-6.43-8.22,4.23-1.18,3.75-15.88,7.7-6.68l-1.27,14.9Z"/>
  <path class="st0" d="M1370.21,545.72c-.6,1.47-8.7-1.19-6.08-12.08l7.14.65-1.06,11.43Z"/>
  <path class="st0" d="M1377.42,349.88c-1-2.01-3.72-23.74-2.29-27.17,4.29-10.27,3.57,19.83,2.29,27.17Z"/>
  <polygon class="st0" points="1349.97 374.29 1354.25 374.49 1356.04 367.06 1360.33 379.1 1349.97 374.29"/>
  <path class="st0" d="M1378.53,376.99l2.03,4.02c-1.85,19.03-4.87-.22-2.51-11.8-5.09,5.16-4.86,8.2-9.51,3.47-1.91-1.94-3.6,2.48-2.03-8.37,5.44,7.63,11.14-4.61,14.76,9.1l-2.72,3.58Z"/>
  <path class="st0" d="M1389.13,300.87c-3.35-2.99-2.86-9.34-3-19.51,4.74-1.87,4.58,6.99,3,19.51Z"/>
  <path class="st0" d="M1365.75,502.93l2.92-18.95c-2.08,11.61,4.44,4.49,2.35,13.63-1.33,5.84-3.6,6.3-5.28,5.33Z"/>
  <path class="st0" d="M1389.25,377.93l-2.65-23.31c3.15-1.96,1.79,4.55,2.23,11.54.06.97,2.47,2.3.43,11.77Z"/>
  <path class="st0" d="M1314.32,344.06c-.57,1.2-8.35-.42-7.63-8.36,2.32,2.36,9.92-5.74,7.63,8.36Z"/>
  <path class="st0" d="M1305.18,273.89c3.55-8.05,4.42,24.14,7.21,25.73l-5.63-13.19c-1.22-1.29-2.93-9.48-1.58-12.54Z"/>
  <path class="st0" d="M1335.62,334.46l-5.24-8.16.97,15.45-3.57-.27,2.12-22.94c1.96,4.05,3.03,8.8,6.1,4.41l-.38,11.51Z"/>
  <polygon class="st0" points="1365.89 514.5 1366.59 506.89 1373.37 511.39 1373.02 515.14 1365.89 514.5"/>
  <path class="st0" d="M1316.73,278.81l3.47.49.03,13.34-.73,1.75c-1.16-5.99-4.3-5.66-2.77-15.58Z"/>
  <polygon class="st0" points="1330.94 307.06 1332 295.61 1335.87 305.62 1330.94 307.06"/>
  <polygon class="st0" points="1329.36 376.29 1326.16 372.1 1326.86 364.52 1330.42 364.84 1329.36 376.29"/>
  <path class="st0" d="M1345.18,608.93c-.85-.26-8.03-4.79-4.89-11.98,2.61-5.97,2.88,4.87,3.1,5.6,1.03,3.43,3.52-7.03,1.78,6.38Z"/>
  <polygon class="st0" points="1364.25 375.63 1362.48 375.45 1361.38 367.71 1364.95 368.02 1364.25 375.63"/>
  <polygon class="st0" points="1364.48 529.78 1365.18 522.17 1366.94 522.35 1368.21 528.23 1364.48 529.78"/>
  <polygon class="st0" points="1388.44 308.55 1390.11 316.34 1390.57 304.84 1388.44 308.55"/>
  <polygon class="st0" points="1388.84 343.23 1385.64 339.04 1385.98 335.29 1389.54 335.6 1388.84 343.23"/>
  <path class="st0" d="M1307.41,327.99c1.48-7.2,6.79-4.76,9.02-6.81-1.52,7.78-6.86,6.13-9.02,6.81Z"/>
  <polygon class="st0" points="1297.92 365.69 1296.25 357.86 1298.62 358.06 1297.92 365.69"/>
  <rect class="st0" x="1306.5" y="394.36" width="3.77" height="2.38" transform="translate(794.61 1662.19) rotate(-84.74)"/>
  <polygon class="st0" points="1360.93 633.55 1360.58 637.3 1356.85 638.95 1359.16 633.38 1360.93 633.55"/>
  <path class="st0" d="M1355.2,500.05c-.63,2.44-1.02,2.41-1.19-.11l1.19.11Z"/>
  <path class="st0" d="M1389.57,387.61c-.63,2.44-1.02,2.41-1.19-.11l1.19.11Z"/>
  <path class="st0" d="M1297.4,371.42c-.63,2.44-1.02,2.41-1.19-.11l1.19.11Z"/>
  <path class="st0" d="M1515.1,216.6c.68.56,5.36-1.66,6.81,1.63l-7.21,28.2,2.45-5.84,4.89,2.97c-6.65,7.28-1.19,16.01-5.21,24.11l-9.48.21c-2.39-5.35,6.44-12.09,6.94-14.99.43-2.49-4.18-4.48-4.53-7.49-.51-4.25,3.69-11.5,0-17.47l7.35,2.89-4.9-16.54c3.19-3.39,1.93,1.51,2.89,2.31Z"/>
  <path class="st0" d="M1561.15,226.95c-4.08,8.4,6.63,28.98-9.76,27.3l2.24-18.68c-11.07-3.43-2.19-10.51,7.52-8.62Z"/>
  <path class="st0" d="M1534.2,269.88c5.98,6.85,5.6,7.76,2.51,16.21l-7.35,1.3-.04-16.54,4.88-.97Z"/>
  <path class="st0" d="M1544.04,295.21c-1.6,8.89-4.95,6.12-9.04,8.37-1.76.97.72,4.09-3.17,3.29l-2.46-13.63,14.68,1.96Z"/>
  <path class="st0" d="M1561.14,256.2c.62,5.14-1,10.16-6.1,13.61l-3.66-13.62h9.76Z"/>
  <path class="st0" d="M1514.7,287.38l4.85-5.83-4.85,13.64,7.31-1.94v9.73s-6.11-5.86-6.11-5.86l-6.1,5.86c.93-9.13,5.23-15.89,2.46-25.33l2.45,9.73Z"/>
  <path class="st0" d="M1558.68,287.38l-7.33-4.97c-2.21-3.61,3.46-6.66,6.14-6.68,5.29-.04,2.72,9.17,1.19,11.65Z"/>
  <path class="st0" d="M1458.38,347.83c-4.22.56-2.63-4.71-1.95-6.43,1.09-2.78,5.66-9.77,9.29-11.1l-7.35,17.53Z"/>
  <path class="st0" d="M1539.12,269.84l-8.09-1.95c-8.77-1.72,9.83-16.39,8.09,1.95Z"/>
  <path class="st0" d="M1561.14,302.98c-9.43-.32-10.78-7.71-1.21-9.7l3.6,2.86-2.39,6.84Z"/>
  <path class="st0" d="M1455.97,363.43c-.34-5.32,3.75-8.42,9.75-9.74.93,4.76-2.98,9.99-9.75,9.74Z"/>
  <path class="st0" d="M1534.24,310.8l-4.87,11.68c2.91-3.05-3.65-13.37,4.87-11.68Z"/>
  <path class="st0" d="M1468.17,301.03c-5.27.03-1.56-11.98,2.45-11.68l-2.45,11.68Z"/>
  <path class="st0" d="M1463.28,287.38h-2.4c-.16-4.23-1.37-10.21,4.85-11.69l-2.45,11.69Z"/>
  <path class="st0" d="M1561.15,326.38h-4.86c-1.51-3.63-1.6-6.1,0-9.73h2.39s2.46,9.73,2.46,9.73Z"/>
  <rect class="st0" x="1495.12" y="267.9" width="4.87" height="7.78"/>
  <polygon class="st0" points="1504.88 308.85 1504.88 314.68 1500.04 314.66 1495.12 310.76 1495.12 308.86 1504.88 308.85"/>
  <path class="st0" d="M1514.7,334.19l4.85-3.88c2.72,8.73-10.01,8.73-7.3,0l2.45,3.88Z"/>
  <path class="st0" d="M1534.24,336.13h-4.87c-.59-3.6-.1-5.67,3.67-7.78l1.2,7.78Z"/>
  <polygon class="st0" points="1519.56 343.95 1517.1 353.68 1514.7 353.68 1514.69 343.95 1519.56 343.95"/>
  <rect class="st0" x="1539.16" y="310.8" width="2.4" height="11.68"/>
  <rect class="st0" x="1468.21" y="248.4" width="4.87" height="5.83"/>
  <path class="st0" d="M1458.76,505.61l-3.33,7.86h-6.55c-1.05-4.98,3.86-8.75,9.88-7.86Z"/>
  <path class="st0" d="M1478,236.69c-.65-3.64-.02-6.76,4.85-7.8.65,3.64.02,6.76-4.85,7.8Z"/>
  <path class="st0" d="M1499.97,287.38h-2.4s0-9.73,0-9.73h2.4c1.59,3.63,1.59,6.11,0,9.73Z"/>
  <rect class="st0" x="1541.6" y="277.65" width="4.87" height="5.83"/>
  <polygon class="st0" points="1558.7 340.05 1558.69 347.83 1556.29 347.83 1553.83 340.05 1558.7 340.05"/>
  <polygon class="st0" points="1497.57 349.79 1498.76 342 1502.43 346.84 1497.57 349.79"/>
  <polygon class="st0" points="1557.74 508.22 1557.74 497.72 1560.98 497.72 1564.23 504.3 1557.74 508.22"/>
  <polygon class="st0" points="1482.87 248.41 1480.4 254.23 1478 254.24 1477.99 248.4 1482.87 248.41"/>
  <rect class="st0" x="1480.45" y="213.3" width="2.4" height="7.78"/>
  <polygon class="st0" points="1519.57 322.48 1514.69 322.48 1514.7 316.65 1517.1 316.65 1519.57 322.48"/>
  <rect class="st0" x="1497.56" y="293.25" width="4.87" height="3.88"/>
  <rect class="st0" x="1470.66" y="221.1" width="2.4" height="5.83"/>
  <rect class="st0" x="1482.9" y="295.2" width="2.4" height="5.83"/>
  <polygon class="st0" points="1570.93 340.05 1569.73 343.93 1566.05 340.06 1570.93 340.05"/>
  <path class="st0" d="M1539.12,336.13h-2.4c-.59-3.58-.14-5.69,3.67-7.76l-1.27,7.76Z"/>
  <g>
    <path d="M1578.4,399.89c.74.47,2.42-.41,2.82.45l-7.28,11.69,1.82.37c1.68-.73,4.5-9.37,5.82-8.77,3.17,1.45-1.1,6.56-1.82,8.38l2.19-.36c.13.81-.07,1.46-.34,2.21-1.1,3.06-10.62,15.36-13.25,18.89-4.1,5.51-9.01,10.24-12.58,15.96-.82,4.36,5.09,25.09,2,27.13-11.56-1.13-.79-19.33-2.85-26.94-.4-.43-8.25,3.24-9.03,3.74-4.98,3.23-2.63,19.14-2.65,24.74-.99.03-1.42.24-2.23-.49-2.65-2.4-4.59-16.51-8.38-17.08-2.16-.33-11.64,3.47-14.79,4.22-23.64,5.6-46.51,7.1-69.54-1.99-1.03,6.42-2.29,12.07-2.23,18.66.04,4.59,3.47,22.44,1.57,24.86-1.17,1.48-3.98,1.5-5.24-.02-2.87-4.88-.16-9.67.08-14.63s.18-14.23-.3-18.9c-.22-2.15-2.31-13.83-5.47-12.05-.98.55-8.6,15.63-11.05,13.03l.76-20.68-11.33-6.39c-3.6.37-6.32,16.1-8.87,16.76-1.96-.08-3.05-1.24-3.14-3.21,3.19-3.69,3.39-15.48.2-18.51-1.64-1.56-6.58-3.24-7.61-4.8-.91-1.37-.45-2.9-1.05-4.06-1.36-2.62-7.03-1.98.32-7.02-.48-1.95-1.85-3.32-2.69-5.22-.26-.58-1.68-2.84.17-2.37,46.03,30.86,102.2,51.19,152.98,17.85,1.96-1.29,8.5-9.88,9.53-9.09l-1.47,3.27c-.24.94.15,1.46,1.09,1.09,3.11-1.2,7.84-9.69,9.73-12.91,3.22-5.49,7.5-17.16,10.78-21.35.55-.7,1.35-2.12,2.16-.79.51.87.64,3.96,1.18,4.3ZM1560.05,431.38c1.49.19,2.39-1.24,3.29-2.18,2.84-2.96,7.81-9.25,8.38-13.15-1.81.9-12.4,14.61-11.67,15.33Z"/>
    <path d="M1449.61,520.32c-3.6,1.91-8.69-2.78-6.77-7.13,1.92-4.37,8.66-2.59,9.51,1.38.18.85-2.4,5.57-2.74,5.75Z"/>
    <path d="M1543.91,494.85c-7.18,2.23-4.11-13.83-1.76-13.79,2.74,3.93,3.38,9.28,1.76,13.79Z"/>
    <path d="M1545.98,403.82c1.93,1.96,1.17,6.81-2.36,7.18-9.24.97-2.16-11.77,2.36-7.18Z"/>
    <path d="M1443.54,417.08c5.53-.32,4.14,9.77-2.05,7.61-3.46-1.21-1.43-7.41,2.05-7.61Z"/>
    <path d="M1418,385.63c4.02,0,4.34,7.76,0,8.53-4.34-.77-4.02-8.53,0-8.53Z"/>
    <path d="M1554.31,487.51c-1.3-2.11-1.26-6.75,1.74-7.23,5.67-.91,5.56,9.67-1.74,7.23Z"/>
    <path d="M1411.54,414.66c3.71-.38,5.9,4.39,3.21,6.9-4.45,4.14-7.42-4.06-3.21-6.9Z"/>
  </g>
  <rect class="st0" x="1539.16" y="342" width="2.4" height="5.83"/>
  <rect class="st0" x="1480.45" y="308.85" width="2.4" height="5.83"/>
  <rect class="st0" x="1480.45" y="334.2" width="2.4" height="5.83"/>
  <rect class="st0" x="1485.34" y="256.2" width="2.4" height="3.88"/>
  <polygon class="st0" points="1464.55 308.88 1465.71 309.8 1459.61 316.61 1458.45 315.68 1464.55 308.88"/>
  <rect class="st0" x="1497.57" y="322.5" width="2.4" height="3.88"/>
  <rect class="st0" x="1465.77" y="303" width="2.4" height="3.88"/>
  <polygon class="st0" points="1475.51 353.68 1473.11 353.68 1473.11 350.79 1476.78 347.88 1475.51 353.68"/>
  <rect class="st0" x="1534.65" y="508.23" width="3.24" height="5.24"/>
  <path class="st0" d="M1474.31,213.29c1.59.65,1.59,1.3,0,1.95v-1.95Z"/>
  <path class="st0" d="M1469.42,234.74c1.59.65,1.59,1.3,0,1.95v-1.95Z"/>
  <path class="st0" d="M1506.59,502.96c2.14.88,2.14,1.75,0,2.63v-2.63Z"/>
  <path class="st0" d="M1493.88,334.19c1.59.65,1.59,1.3,0,1.95v-1.95Z"/>
  <path class="st0" d="M1481.65,320.54c1.59.65,1.59,1.3,0,1.95v-1.95Z"/>
  <path class="st0" d="M1537.92,306.89c1.59.65,1.59,1.3,0,1.95v-1.95Z"/>
  <path class="st0" d="M1484.1,262.04c1.59.65,1.59,1.3,0,1.95v-1.95Z"/>
  <path class="st0" d="M1499.09,594.64l-4.78-.45-3.37,49.8-9.53-.87c1.04-9.88,2.19-14.33-.81-17.42l2.91-5.47c-2.01.32-2.3.17-1.92-5.84.96-15.16,3.62-4.54,4.03-17.12l-2.02-4.01,12.2-10.2,1.8-11.66c-5.35,6.15-12.73,6.91-11.45-12.82-2.71,2.43-6.33-.44-8.41.22-.64.2-1.18,10.52-5.23,6.46-.74-.74.03-6.97-.82-7.78-4-3.76-11.42,1.05-14.89,13.95,3.03,11.24,6.87,6,10.82,12.65l1.1-11.16,5.92.24-3.27,9.32,1.32,2.17-.16,11.4c-3.88-4.54-9.23-1.24-12.88-6.13-8.88-11.9-.47-39.22.17-64.36l1.12,8.02,6.86-3.43-1.79,11.47c.12.81,4.17,9.28,4.72,9.88,2.05,2.24,3.75-2,5.39-1.36,1.82.72,2.33,7.98,3.92,7.44,1.55-.53,7.32-11.3,10.06-10.46,3.58-13.92-.3-20.05-.27-21.39.07-3.8,2.57-30.27,2.98-31.56l9.72-1.67c2.07,11.17-.88,26.91-1.14,38.13-.07,2.99,1.94,2.37,1.89,5.32-.25,14.9-4.54,41.15-4.18,58.69ZM1499.72,548.45c1.9-11.43-1.6-7.37-2.95-11.58-.87-2.73.75-9.22-1.24-8.04-1.91,12.35.91,18.83,4.18,19.62ZM1498.82,558.05l-1.25-5.86-.73,1.76,1.25,5.86.73-1.76ZM1498.49,509.83c.75-1.32,2.56,3.29,2.72-3.58-5.19-5.33-7.05,20.35-1.4,15.22.98-4.84-4.82-5.44-1.32-11.64ZM1493.55,563.31l.71-7.62-3.56-.31-.34,3.75,3.2,4.19ZM1487.76,626.36l-1.19-.11c.17,2.52.57,2.55,1.19.11ZM1462.29,550.8l-1.19-.11c.17,2.52.57,2.55,1.19.11Z"/>
  <path class="st0" d="M1456.19,656.28l-.53,5.63,1.86,5.95-3.55-.34.36-11.81-6.28-2.14c3.2-8.33,6.18-11.33,8.83-5l1.42-15.31,3.55.36c.34,11.55-1.45,21.22-5.66,22.66Z"/>
  <path class="st0" d="M1459.91,668.07c3.05-11.74,8.25-6.33,11.04-2.75-.44,4.83-5.64,10.97-6.4,10.9-1.76-.16-2.68-8.06-4.65-8.15Z"/>
  <path class="st0" d="M1466.22,640.87c-.86-4.65,1.39-19.43.99-26.02l3.56.31c-.06,9.23-2.15,18.61.09,25.06-1.59,6.6-3.93,4.46-4.63.65Z"/>
  <path class="st0" d="M1498.91,648.58c-1-2.01-3.72-23.74-2.29-27.17,4.29-10.27,3.57,19.83,2.29,27.17Z"/>
  <polygon class="st0" points="1471.47 672.98 1475.74 673.18 1477.53 665.75 1481.82 677.8 1471.47 672.98"/>
  <path class="st0" d="M1435.81,642.75c-.57,1.2-8.35-.42-7.63-8.36,2.32,2.36,9.92-5.74,7.63,8.36Z"/>
  <path class="st0" d="M1457.11,633.15l-5.24-8.16.97,15.45-3.57-.27,2.12-22.94c1.96,4.05,3.03,8.8,6.1,4.41l-.38,11.51Z"/>
  <path class="st0" d="M1438.23,577.51l3.47.49.03,13.34-.73,1.75c-1.16-5.99-4.3-5.66-2.77-15.58Z"/>
  <polygon class="st0" points="1452.43 605.75 1453.49 594.31 1457.36 604.31 1452.43 605.75"/>
  <polygon class="st0" points="1450.85 674.98 1447.65 670.79 1448.35 663.21 1451.91 663.54 1450.85 674.98"/>
  <polygon class="st0" points="1485.74 674.32 1483.98 674.14 1482.87 666.4 1486.44 666.71 1485.74 674.32"/>
  <path class="st0" d="M1428.9,626.69c1.48-7.2,6.79-4.76,9.02-6.81-1.52,7.78-6.86,6.13-9.02,6.81Z"/>
  <path class="st0" d="M1552.41,454.13l-6.65,7.2,1.67,7.77c-2.99,2.06-10.56,8.01-9.5,18.41l8.18-10.79c2.78,2.86-2.23,26.22-1.6,30.94s3.92,1.12,1.91,11.39c-4.12-.18-3.74,14.07-7.54,16.73-.42,3.46,4.2,1.7,2.19,15.6-.71,4.91-4.42-3.71-4.46,9.21l4.93,4.03-.38,11.82c-1.86-.21-8.04,1.66-7.5-6.33.17-2.53,1.53-6.78,1.77-11.01,1.15-20.54,3.7-29.48,4.12-34.83s-2.86-8.49,2.5-22.78c-1.62-14.31-6.45-.55-8.96-.46-2.38.08-5.86-10.69-9.56-7.14l10.07-18.26-6.89,3.1c-1.63-4.84-1.1-6.79.65-13.28l-3.75,1.48,4.79-7.52,2.34,8.18-1.81-19.38,4.77.39c2.31-15.87-3.71-2.3-5.29-5.06-.21-.36-2.38-12.26-1.29-14.78l6.43,8.25-1.16-13.6c14.69-12.02.72,39.74,2.87,48.19l7,.78c1.67-7.25,2.08-32.02,5.01-34.08,1.9-.19,7.35,8.88,5.12,15.82ZM1543.12,489.95l-1.19-.11c.17,2.52.57,2.55,1.19.11Z"/>
  <path class="st0" d="M1564.51,505.41c.78-8.15,2.56-16.99-.96-15.55l.34-3.74,3.91-3.49c-2.13-.66-3.73,3.55-3.07-5.96,1.43-20.65,3.19-43.7,3.45-63.36,3.59-2.53,1.14,6.03,3.03,9.17,2.86,4.75,5.56-1.62,3.21,14.48l-3.75,1.58c6.4,10.8-.85,41.57-.79,60.87.02,5.01,2.84.32,1.77,6.63l-7.14-.62Z"/>
  <path class="st0" d="M1525.03,451.68c-.14-.57-.83.35-1.19-.11-.02-14.09-2.04-10.29-6.04-12.25.51-7.8,1.33-22.73,4.96-22.47.48.03,3.79,3.65,3.88,4.19,1.82,10.55-5.38,3.76-4.78,12.96.33,5.08,4.47,7.47,3.17,17.67Z"/>
  <path class="st0" d="M1530.65,390.61l-.53,5.63,1.86,5.95-3.55-.34.36-11.81-6.28-2.14c3.2-8.33,6.18-11.33,8.83-5l1.42-15.31,3.55.36c.34,11.55-1.45,21.22-5.66,22.66Z"/>
  <path class="st0" d="M1534.37,402.4c3.05-11.74,8.25-6.33,11.04-2.75-.44,4.83-5.64,10.97-6.4,10.9-1.76-.16-2.68-8.06-4.65-8.15Z"/>
  <path class="st0" d="M1540.68,375.21c-.86-4.65,1.39-19.43.99-26.02l3.56.31c-.06,9.23-2.15,18.61.09,25.06-1.59,6.6-3.93,4.46-4.63.65Z"/>
  <path class="st0" d="M1544.17,426.4c-1.57-11.06,9.36-13.65,8.12,2.75-1.91,10.86-7.81-.59-8.12-2.75Z"/>
  <path class="st0" d="M1563.2,428.2c-.45,1.08-7.27-1.02-6.43-8.22,4.23-1.18,3.75-15.88,7.7-6.68l-1.27,14.9Z"/>
  <path class="st0" d="M1573.37,382.92c-1-2.01-3.72-23.74-2.29-27.17,4.29-10.27,3.57,19.83,2.29,27.17Z"/>
  <polygon class="st0" points="1545.93 407.32 1550.2 407.52 1551.99 400.09 1556.28 412.14 1545.93 407.32"/>
  <path class="st0" d="M1574.49,410.02l2.03,4.02c-1.85,19.03-4.87-.22-2.51-11.8-5.09,5.16-4.86,8.2-9.51,3.47-1.91-1.94-3.6,2.48-2.03-8.37,5.44,7.63,11.14-4.61,14.76,9.1l-2.72,3.58Z"/>
  <path class="st0" d="M1510.27,377.09c-.57,1.2-8.35-.42-7.63-8.36,2.32,2.36,9.92-5.74,7.63,8.36Z"/>
  <path class="st0" d="M1531.57,367.49l-5.24-8.16.97,15.45-3.57-.27,2.12-22.94c1.96,4.05,3.03,8.8,6.1,4.41l-.38,11.51Z"/>
  <path class="st0" d="M1512.68,311.84l3.47.49.03,13.34-.73,1.75c-1.16-5.99-4.3-5.66-2.77-15.58Z"/>
  <polygon class="st0" points="1526.89 340.09 1527.95 328.64 1531.82 338.65 1526.89 340.09"/>
  <polygon class="st0" points="1525.31 409.32 1522.11 405.13 1522.81 397.55 1526.37 397.87 1525.31 409.32"/>
  <polygon class="st0" points="1560.2 408.66 1558.43 408.48 1557.33 400.74 1560.9 401.05 1560.2 408.66"/>
  <path class="st0" d="M1503.36,361.03c1.48-7.2,6.79-4.76,9.02-6.81-1.52,7.78-6.86,6.13-9.02,6.81Z"/>
  <path class="st0" d="M1466.97,285.04l-2.93-1.63-16.14,30.93-5.86-3.23c3.44-6.03,5.43-8.56,4.37-11.38l3.4-2.68c-1.38-.36-1.52-.54.41-4.28,4.87-9.43,3.59-1.89,7.39-9.83l-.17-3.14,10.68-3.11,4.43-6.96c-5.15,2.43-10.09.85-3.73-11.42-2.41.79-3.93-2.06-5.45-2.22-.47-.05-3.71,6.4-5.17,2.67-.27-.69,1.98-4.46,1.66-5.21-1.5-3.53-7.61-2.54-13.45,4.75-1.22,8.05,2.71,5.77,3.37,11.14l3.84-6.84,3.72,1.81-4.71,5.05.23,1.76-3.3,7.25c-1.21-4-5.56-3.39-6.52-7.54-2.34-10.11,10.72-25.24,18.18-41.15l-1.53,5.45,5.35-.27-4.37,6.84c-.15.56.06,7.11.25,7.65.69,2.01,2.97-.23,3.83.64.96.97-.75,5.76.42,5.86,1.14.1,7.86-5.18,9.38-3.87,6.2-7.91,5.44-12.92,5.83-13.77,1.11-2.41,10.15-18.65,10.77-19.37l6.69,1.66c-1.81,7.73-8.12,16.98-11.44,24.09-.88,1.9.58,2.06-.28,3.93-4.35,9.47-14.47,25.06-19.16,36.39ZM1480.34,255.65c4.43-6.78,1.04-5.17,1.37-8.24.21-1.99,3.07-5.69,1.47-5.49-4.69,7.37-4.71,12.31-2.83,13.73ZM1477.07,261.54l.85-4.1-.96.92-.85,4.1.96-.92ZM1490.4,230.58c.85-.64.71,2.82,2.75-1.53-1.83-4.87-10.23,11.05-5.17,9.35,1.98-2.82-1.56-4.84,2.42-7.82ZM1472.22,263.43l2.59-4.68-2.19-1.2-1.27,2.3.87,3.58ZM1450.8,302.16l-.73-.4c-.6,1.66-.36,1.79.73.4ZM1455.72,246.64l-.73-.4c-.6,1.66-.36,1.79.73.4Z"/>
  <path class="st0" d="M1418.28,359.22l-6.28,2.74-1.11,5.45c-2.49.48-9.01,2.16-11.25,9.12l8.27-4.61c.97,2.61-8.79,16.16-9.71,19.36s2.2,1.82-1.97,7.83c-2.59-1.27-6.35,7.96-9.53,8.59-1.24,2.09,2.21,2.27-2.98,10.6-1.83,2.94-1.78-3.62-5.44,4.64l2.02,3.96-3.56,7.46c-1.13-.66-5.62-1.2-3.02-6.16.82-1.57,2.89-3.91,4.23-6.55,6.51-12.82,10.65-17.83,12.42-21.14s.56-6.24,8-13.88c2.98-9.62-3.98-2.17-5.61-2.81s-.75-8.49-4.11-7.26l11.58-8.86-5.28.05c.31-3.56,1.2-4.66,4.15-8.32l-2.82-.1,5.18-3.46-.8,5.89,4.28-12.92,2.95,1.59c5.94-9.51-1.73-2.52-1.96-4.73-.03-.29,1.92-8.52,3.33-9.82l1.8,7.09,3.08-9.03c12.78-3.56-10.7,25.64-11.7,31.66l4.26,2.47c3.11-4.17,10.32-19.92,12.78-20.41,1.27.41,2.21,7.75-1.17,11.57ZM1402.28,379.54l-.73-.4c-.6,1.66-.36,1.79.73.4Z"/>
  <path class="st0" d="M1401.44,349.96c.07-.4-.63,0-.73-.4,3.94-9.03,1.58-7.16-.43-9.54,2.52-4.85,7.24-14.18,9.49-12.99.3.16,1.4,3.4,1.31,3.78-1.8,7.27-4.5.89-6.7,6.95-1.22,3.35.76,6.04-2.93,12.2Z"/>
  <path class="st0" d="M1422.2,312.45l-1.92,3.45-.48,4.33-2.18-1.21,3.55-7.46-3.42-3.13c4.39-4.44,7.14-5.52,7.06-.72l5.21-9.4,2.17,1.23c-3.03,7.49-6.89,13.17-9.99,12.92Z"/>
  <path class="st0" d="M1421.27,321.04c5.25-6.66,7.06-1.74,7.84,1.34-1.64,2.97-6.69,5.44-7.16,5.18-1.08-.59.55-5.91-.68-6.52Z"/>
  <path class="st0" d="M1432.94,305.41c.76-3.22,6.35-12.05,7.94-16.38l2.19,1.2c-2.63,5.89-6.6,11.31-6.98,16.06-2.87,3.78-3.77,1.75-3.15-.89Z"/>
  <path class="st0" d="M1420.8,339.16c2.1-7.52,9.83-6.11,4.42,4.04-4.27,6.41-4.84-2.57-4.42-4.04Z"/>
  <path class="st0" d="M1432.48,345.65c-.59.56-4.37-2.69-1.81-7.07,3.04.43,6.86-9.11,6.81-2.11l-5,9.18Z"/>
  <polygon class="st0" points="1427.28 327.44 1429.96 328.76 1433.2 324.51 1432.55 333.42 1427.28 327.44"/>
  <path class="st0" d="M1444.8,337.19l.17,3.14c-6.53,11.66-3.05-1.51,1.7-8.26-4.71,1.87-5.41,3.88-7.06-.45-.68-1.78-3,.57,1.05-5.93,1.34,6.41,8.42.17,6.89,9.97l-2.75,1.53Z"/>
  <path class="st0" d="M1429.27,297.91l-1.07-6.69-3.72,10.16-2.21-1.18,7.8-14.09c.12,3.15-.54,6.48,2.67,4.54l-3.48,7.26Z"/>
  <path class="st0" d="M1432.82,256.98l2.08,1.29-3.73,8.55-.96.92c.94-4.16-1.17-4.83,2.6-10.75Z"/>
  <polygon class="st0" points="1433.98 279.05 1437.87 272.02 1437.54 279.51 1433.98 279.05"/>
  <polygon class="st0" points="1413.52 322.93 1412.65 319.34 1415.23 314.69 1417.41 315.9 1413.52 322.93"/>
  <polygon class="st0" points="1436.04 332.3 1434.96 331.69 1436.43 326.43 1438.63 327.63 1436.04 332.3"/>
  <path class="st0" d="M1428.31,479.91l1.15-2.59-27.21-11.27,2.28-5.16c5.33,2.45,7.6,3.93,9.89,2.83l2.51,2.66c.2-1.18.34-1.32,3.63.03,8.29,3.4,1.86,2.88,8.81,5.48l2.62-.37,3.4,8.74,6.18,3.21c-2.43-4.15-1.46-8.42,9.33-3.98-.85-1.97,1.44-3.46,1.46-4.75,0-.39-5.66-2.64-2.62-4.14.56-.28,3.89,1.33,4.5,1.01,2.86-1.52,1.57-6.58-4.99-10.95-6.85-.42-4.65,2.71-9.11,3.66l6.03,2.72-1.25,3.26-4.59-3.58-1.46.33-6.34-2.24c3.27-1.31,2.43-4.93,5.86-6.04,8.33-2.72,22.02,7.13,35.95,12.23l-4.7-.89.63,4.48-6.08-3.17c-.48-.09-5.97.58-6.41.78-1.64.73.41,2.48-.26,3.27-.74.88-4.9-.2-4.9.79s4.94,6.22,3.95,7.59c7.11,4.62,11.27,3.62,12.01,3.88,2.11.76,16.44,7.15,17.08,7.62l-.9,5.75c-6.63-.95-14.88-5.57-21.11-7.83-1.66-.6-1.69.64-3.33.05-8.28-2.95-22.15-10.3-32.02-13.4ZM1454.01,488.97c6.03,3.22,4.42.49,7.03.54,1.69.03,5.01,2.15,4.73.82-6.54-3.39-10.7-3.04-11.76-1.36ZM1448.81,486.66l3.51.41-.85-.74-3.51-.41.85.74ZM1475.83,495.56c.6.67-2.32.81,1.49,2.2,3.96-1.9-10.05-7.78-8.24-3.65,2.52,1.46,3.95-1.67,6.75,1.46ZM1446.86,482.72l4.13,1.83.85-1.93-2.03-.9-2.94,1ZM1412.71,467.59l.29-.64c-1.44-.38-1.53-.17-.29.64ZM1459.75,467.6l.29-.64c-1.44-.38-1.53-.17-.29.64Z"/>
  <path class="st0" d="M1403.36,430.87l-.85-1.75-2.92.28c-2.93-1.59-12.49-4.55-10.66-5.9,3.33.19,9.38,3.46,9.29,1.41l2.48,2.66c5.58,2.98,6.24.78,12.24,3.09l-3.8,2.95-5.79-2.75Z"/>
  <path class="st0" d="M1401.93,444.31l-3.05-1.36-3.68-.08.86-1.92,6.53,2.43,2.38-3.11c4.06,3.36,5.17,5.59,1.13,5.88l8.29,3.68-.87,1.92c-6.52-1.99-11.59-4.81-11.6-7.44Z"/>
  <path class="st0" d="M1394.64,444.16c5.99,3.92,1.98,5.8-.54,6.69-2.62-1.16-5.07-5.22-4.89-5.63.42-.95,5.01.02,5.43-1.06Z"/>
  <path class="st0" d="M1408.65,452.81c2.76.4,10.6,4.44,14.36,5.46l-.85,1.93c-5.15-1.77-10-4.71-14.03-4.67-3.39-2.13-1.75-3.04.51-2.71Z"/>
  <path class="st0" d="M1398.18,469.64c1.31-.18,13.97,2.4,15.62,3.84,4.93,4.34-11.76-1.74-15.62-3.84Z"/>
  <path class="st0" d="M1382.82,465.15l-2.63.37c-10.29-4.62,1.04-2.68,7.07.82-1.92-3.82-3.67-4.26-.14-5.97,1.44-.7-.71-2.48,5.06.44-5.29,1.6.48,7.1-7.87,6.53l-1.49-2.2Z"/>
  <path class="st0" d="M1413.34,435.46c-.57-.55,1.81-4.59,6.11-2.69-1.76.85,1.34,6.63-6.11,2.69Z"/>
  <path class="st0" d="M1454.29,443.58c3.83,3.5-14.33-2.08-15.74-.82l8.43-.66c.95-.44,5.85.15,7.31,1.48Z"/>
  <path class="st0" d="M1414.69,449.18l5.55-1.39-8.82-2.37.83-1.94,12.43,5.51c-2.64.33-5.49.03-3.62,2.58l-6.36-2.38Z"/>
  <path class="st0" d="M1449.36,449.11l-.93,1.85-7.46-2.5-.84-.74c3.57.48,3.97-1.34,9.23,1.39Z"/>
  <polygon class="st0" points="1430.89 451.73 1437.09 454.48 1430.77 454.76 1430.89 451.73"/>
  <polygon class="st0" points="1392.48 437.79 1395.43 436.79 1399.54 438.61 1398.68 440.54 1392.48 437.79"/>
  <path class="st0" d="M1423.62,434.63c3.75,2.18,1.38,4.7,2.11,6.33-4.06-2.32-2.14-4.99-2.11-6.33Z"/>
  <polygon class="st0" points="1404.34 422.21 1409.03 422.75 1408.47 424.05 1404.34 422.21"/>
</svg>