<?xml version="1.0" encoding="UTF-8"?>
<svg id="Layer_1" xmlns="http://www.w3.org/2000/svg" version="1.1" viewBox="0 0 1920 1080">
  <!-- Generator: Adobe Illustrator 29.5.1, SVG Export Plug-In . SVG Version: 2.1.0 Build 141)  -->
  <defs>
    <style>
      .st0 {
        font-family: MyriadPro-Regular, 'Myriad Pro';
        font-size: 12px;
      }

      .st1 {
        fill: #fff;
      }
    </style>
  </defs>
  <text class="st0" transform="translate(1560.7 5.29)"><tspan x="0" y="0">file:///Users/oxo/Downloads/jpg(1)</tspan></text>
  <g>
    <path d="M574.5,369.62l-32.05-.04-1.7,2.44-.75-2.4h-2.99s-.75,2.4-.75,2.4l-1.51-2.41-4.37,2.5-92.37-.09v-5.99c-3.4.36-7.86-.57-10.99.02-1.14.21-.85,2.15-2,2.37-3.49.66-8.69-.41-12.51.01l.08-5.93c5.62.05,12-2.11,17.34-2.35,2.5-.11,5.34,1.45,7.18,1.03,2.28-.53,1.15-4.84,7.41-3.55,1.77.37,1.79,5.06,7,3.62-.43-3.25-5.07-4.02-6.4-6.23-1.94-3.21-1.57-19.72-1.15-24.29.16-1.78,1.51-8.45,1.96-10.38,1.85-7.84,7.52-17.38,14.07-23.53,5.86-5.51,8.66-4.14,15.9-6.18,1.27-.36,1.07-2.08,2.15-2.29,2.21-.42,15.2-.41,17.45,0,1.08.2,1.02,1.87,2.18,2.27,6.18,2.16,9.91,2.64,14.25,7.53,12.29,13.83,12.52,30.29,14.6,46.37h48v25.11ZM466.5,325.97c-1.54,4.25,1.13,13.58,0,18.53h34.5c1.84-7.84,1.39-16.48-3.38-23.61-2.6-1.69-20.84-2.2-24.14-1.32-.5.13-6.83,5.98-6.98,6.39ZM455.99,364.83v-2.38h-1.47v2.38h1.47Z"/>
    <path class="st1" d="M1334.7,357.58l-.53,5.63,1.86,5.95-3.55-.34.36-11.81-6.28-2.14c3.2-8.33,6.18-11.33,8.83-5l1.42-15.31,3.55.36c.34,11.55-1.45,21.22-5.66,22.66Z"/>
    <path class="st1" d="M1338.42,369.37c3.05-11.74,8.25-6.33,11.04-2.75-.44,4.83-5.64,10.97-6.4,10.9-1.76-.16-2.68-8.06-4.65-8.15Z"/>
    <path class="st1" d="M1314.32,344.06c-.57,1.2-8.35-.42-7.63-8.36,2.32,2.36,9.92-5.74,7.63,8.36Z"/>
    <polygon class="st1" points="1329.36 376.29 1326.16 372.1 1326.86 364.52 1330.42 364.84 1329.36 376.29"/>
    <polygon class="st1" points="1297.92 365.69 1296.25 357.86 1298.62 358.06 1297.92 365.69"/>
    <path class="st1" d="M1297.4,371.42c-.63,2.44-1.02,2.41-1.19-.11l1.19.11Z"/>
  </g>
</svg>