<?xml version="1.0" encoding="UTF-8"?>
<svg id="Layer_1" xmlns="http://www.w3.org/2000/svg" version="1.1" viewBox="0 0 1920 1080">
  <!-- Generator: Adobe Illustrator 29.5.1, SVG Export Plug-In . SVG Version: 2.1.0 Build 141)  -->
  <defs>
    <style>
      .st0 {
        font-family: MyriadPro-Regular, 'Myriad Pro';
        font-size: 12px;
      }

      .st1 {
        fill: #fff;
      }
    </style>
  </defs>
  <text class="st0" transform="translate(1560.7 5.29)"><tspan x="0" y="0">file:///Users/oxo/Downloads/jpg(1)</tspan></text>
  <g>
    <path d="M377.98,633.85c1.91-8.7,7.27-16.51,9.82-25.06,7.84-26.29,6.32-65.28,5.26-92.76-.8-20.93-2.51-42.28-10.16-62.44-1.34-3.53-12.83-27.43-14.67-27.77-6.69-1.23-.8,12.07-6.72,13.15l1.26-20.15-4.26-1.37,1.48,9.56c-3.51.63-6.75-.88-9.9-1.09-2.05-.14-4.34,1.14-5.72.92-.72-.11-8.33-7.02-10.32-7.81-2.31-.91-5.93-.88-8.55-1.59l2.46-3.47,7.06.98c2.65-.55,4.69-5.43,3.82-7.5-.12-.29-5.01-4.27-5.38-4.34-2.22-.38-12.31-.4-14.47,0-1.25.23-.29,2.24-3.14,2.48-5.1.43-28.84.66-32.86-.1-1.15-.22-.83-2.16-2-2.37-6.01-1.08-15.64-.5-21.84-2.5-.46-.15-7.89-3.56-8.27-3.82-2.2-1.46-2.82-6.7-7.07-6.84-7.73-.25-6.45,8.99-11.32,11.34-4.66,2.25-12.55-2.43-18.04,1.21-1.9,1.26-.7,3.68-2.32,4.22-.14,1.21-.37,2.41-.65,3.6.22,3.05-1.39,5.82-1.55,8.86-2.12,38.94,0,78.36,0,117.17,0,14.37.13,28.73.06,43.1.72,4.78,7.21,2.32,11.02,2.99,1.14.2.84,2.18,1.98,2.38,2.79.49,7.2-.76,9.61.52l4.19,14.4c-12.95,30.41-5.69,61.1-7.36,92.04-.26,4.81,1.55,21.63-1.4,23.99-4.25,3.4-12.42-.5-18.04.57l-.11,22.21c4,3.15,3.53,4.92,3.18,9.54-1.3,16.92-3.75,34.39-4.62,51.3-.25,4.84-1.04,22.89.29,26.18,1.46,3.62,5.42.85,8.03,1,2.47.14,4.77.96,7.44,1.03,10.09.27,30.71-1.6,38.87-.1,1.82.34-.08,2.93,2.43,2.42,4.52-5.81.77-9.89,1.86-15.85.38-2.05,5.73-12.82,7.9-12.82l7.52,13.13c4.89-1.47,4.2-6.05,11.18-4.82l.06-10.72,3.01,2.92,2.98,7.84v-19.13l5.99,7.17c-1.54-4.37-2.18-9.09-1.36-13.65.74-4.13,3.91-6.18,4.47-10.78,1.07-8.86-2.46-19.12-2.32-28.19l-2.26-1.17c.4,6.49-5.92,3.76-8.31,5.94-1.82,3.45-10.47,23.92-13.46,23.93l-2.35-2.98,4.59-98.63h31.5c.25,0,.47,3.13,2.25,3.57,2.46-5.36,8.03-3.26,13.09-4.86,2.38-.75,14-6.63,16.55-8.27,12.86-8.25,16.92-18.71,21.34-31.1,2.37-6.64,3.25-13.62,5.27-20.31l-.03,17.34,3,5.36ZM223.51,731.9h1.47v3.58h-1.47v-3.58ZM226.49,748.02l-2.97,1.81v-3.58s2.98,0,2.98,0v1.77ZM232.49,637.44h-1.47v-3.58h1.47v3.58ZM236.25,733.09v-1.2c.97.4.97.8,0,1.2ZM237.51,619.31l-3.49,7.36c.6-5.02,1.66-10.08,2.96-15.01.56-2.11-1.45-3.48,3.02-2.91l-2.49,10.56ZM258.01,721.14h2.99v3.58h-2.99v-3.58ZM251.99,735.48h-1.47v-2.38h1.47v2.38ZM254.99,483.2h-1.47v-2.38h1.47v2.38ZM255.75,729.51v-1.2c.97.4.97.8,0,1.2ZM256.51,733.1h1.47v2.38h-1.47v-2.38ZM262.49,776.72l-2.24,1.78c-2.83-1.48-2.41-3.44-2.24-5.95,3.22-.4,5.06,1.68,4.48,4.17ZM261.01,735.48v-2.38h1.47v2.38h-1.47ZM261.02,483.2c-.99-2.34-2.48-7.79,2.96-7.17.99,2.34,2.48,7.79-2.96,7.17ZM265.49,470.04h-2.99v-3.58h2.99v3.58ZM274.49,635.04h-2.99v-3.58h2.99v3.58ZM315.27,583.25c-5.68,8.6-6.33,5.86-15.72,7.59-.76.14-2.52,3.34-4.8,3.54l-3.72-3.56c.62,2.95-3.56,2.48-6.01,3.57.44-3.48-1.32-6.7-1.58-10.11-2.15-28.31-3-74.92.23-102.74.25-2.16,1.78-4.37,1.34-6.71,5.08,6.47,11.1,4.22,18.98,6.42.38.11.46,1.42,1.65,1.85,2.09.75,5.11.05,7.45,1.63,9.19,6.16,5.82,21.6,6.33,30.21,1.04,17.44,5.73,53.33-4.17,68.31ZM322.49,415.04h-2.99v-1.17h2.99v1.17ZM334.51,472.45h1.47v3.58h-1.47v-3.58ZM337.49,501.13h-4.49v-1.17h4.49v1.17ZM352.49,472.43h-2.99v-1.17h2.99v1.17ZM351.01,437.76l1.51-5.97h2.97s0,5.98,0,5.98h-4.49ZM361.49,630.26h-1.47v-3.58h1.47v3.58ZM373.51,454.5v-2.38h2.99v2.38h-2.99Z"/>
    <path d="M343.48,406.7c.13.08-.14,1.17,1.14,2.36.66.6,2.69.79,3.32,1.84,1.41,2.33-1.88,4.11-3.71,4.04-3.35-.12-5.88-11.27-.75-8.25Z"/>
    <path d="M376.49,638.64c1.29,1.16-5.14,11.72-7.49,9.55-.62-1.75,4.81-11.95,7.49-9.55Z"/>
    <path d="M289.49,706.79c.38,2.97.13,6.29-4.49,5.97-.38-2.97-.13-6.29,4.49-5.97Z"/>
    <polygon points="313.5 835.91 310.51 835.91 310.51 833.53 313.5 835.91"/>
    <rect x="304.51" y="806.03" width="1.47" height="3.58"/>
    <rect x="316.51" y="802.44" width="1.47" height="3.58"/>
    <rect x="300.01" y="834.73" width="2.99" height="1.17"/>
    <path d="M291.75,728.31c.97.4.97.8,0,1.2v-1.2Z"/>
    <path d="M302.62,584.52c-6.49,5.44-9.9-5.21-5.73-7.55,6.01-3.36,10.54,3.52,5.73,7.55Z"/>
    <path d="M1257.75,234.51c.97.4.97.8,0,1.2v-1.2Z"/>
    <path class="st1" d="M1389.13,300.87c-3.35-2.99-2.86-9.34-3-19.51,4.74-1.87,4.58,6.99,3,19.51Z"/>
    <path class="st1" d="M1305.18,273.89c3.55-8.05,4.42,24.14,7.21,25.73l-5.63-13.19c-1.22-1.29-2.93-9.48-1.58-12.54Z"/>
    <path class="st1" d="M1316.73,278.81l3.47.49.03,13.34-.73,1.75c-1.16-5.99-4.3-5.66-2.77-15.58Z"/>
  </g>
</svg>