<?xml version="1.0" encoding="UTF-8"?>
<svg id="Layer_1" xmlns="http://www.w3.org/2000/svg" version="1.1" viewBox="0 0 1920 1080">
  <!-- Generator: Adobe Illustrator 29.5.1, SVG Export Plug-In . SVG Version: 2.1.0 Build 141)  -->
  <defs>
    <style>
      .st0 {
        font-family: MyriadPro-Regular, 'Myriad Pro';
        font-size: 12px;
      }
    </style>
  </defs>
  <text class="st0" transform="translate(1560.7 5.29)"><tspan x="0" y="0">file:///Users/oxo/Downloads/jpg(1)</tspan></text>
  <g>
    <path d="M833.62,432.15c4.39,1.86,4.98,1.8,9.75,3.31,1.41.45,2.59,4.23,8.54,2.18l.13-3.43,5.07.08c2.85.78,4.97,15.32,5.39,18.42,1.42,10.63,1.92,23.97,1.57,34.72-.22,6.62-4.16,14.98-.14,21.56.94.54,20.6-1.32,22.97-1.95,5.64-1.5,14.55-4.35,20.19-5.85,2.35-.62,12.34-1.65,14.43-1.1,4.99,1.3.04,9.71-2.44,11.47-1.26.9-3.31.82-4.5,1.51-3.08,1.78-7.9,4.7-11.24,5.89-7.94,2.83-10.81-.16-9.34,10.86,6.3-1.15,12-1.63,18.08.69l-3.09,71.06c-5.93,1.64-5.6-2.46-8.92-3.04-1.49-.26-4.03.5-4.68.09-1.67-1.07-1.13-6.33-7.39-5.42l2.99,5.96h-15.54s-1.07,2.28-1.07,2.28l-2.86.11c-.52-2.15-1.34-4.06-4.52-3.58l-.27,3.38c-4.85-.07-4.48,1.24-5.3,4.7.17,7.42.5,15,1.07,22.41,1.06,13.85,1.35,18.61,0,32.3-1.77,18.07,4.49,37.36,4.48,55.58-4.85-2.64-16.67,1.32-18.56,1.01-2.3-.37-6.98-9.78-14.05-4.28-4.88,3.8.15,4.31,1.08,5.34,4.3,4.76,6.42,11.79,15.03,9.89,1.73-3.07-2.82-1.99-3.06-3.06-1.16-5.04,4.11-4.05,4.59-7.68h1.46c-.29,3.43,5.02,4.03,8.02,2.42,1.52-.82.19-2.85,2.49-2.42,3.02,3.78.23,8.51.69,11.4.22,1.4,1.75,2.56,1.96,3.78,1.14,6.66-1.09,13.63,10.15,11.24,3.63-.77.87-3.27,5.21-2.51l-1.5,10.76-3-5.98-4.47,2.38-2.26-3.57-3.62,1.31c1.43,6.03-2.55,5.6-5.17,8.52-1.98,2.21-2.2,7.42-5.45,5.68-.13-.07.5-1.53-1.12-2.32-.86-.42-6.2-1.46-6.4-1.25l-.81,7.2,3.8,1.18,3-3.59v4.8c3.02.25,7.02-1.41,6.01,2.37-7.08,1.85-14.35-1.07-21.43,1.25-1.3.42-1.27,1.41-1.09,2.34h-1.46c.73-3.7-3.86-2.23-7.51-2.38-.19,5.95,9.56,1.76,13.19,3.8l.29,6.94-2.97-2.38,1.5,5.96c2.4.4,1.87-3.39,3.72-3.56,4.58-.42,7.03,7.54,1.51,9.54l-3.01-4.77-3.74,1.82c4.09,4.27,2.08,6.49,1.5,11.34-2.79,0-3.16.69-2.82-1.72.74-5.25-.67-9.69,1.31-15.02-1.49.37-5.6,5.07-5.78,5.62-.65,2.01,1.82,4.22,1.28,6.33h-4.49s-.02-7.17-.02-7.17h-4.48s-.75,15.53-.75,15.53c-3.15-.46-4.02-3.52-5.18-4.2-1.99-1.17-7.55,3.59-6.09-2.96l-1.49,3.6-3.81-.86-2.98,3.28-3.48-.26c-4.52-8.08-10.59-15.27-9.22-24.89,8.76,2.7,6.91-1,10.12-2.38,5.28-2.27,9.62,1.5,7.86-7.18l-2.24,2.4-1.69-2.44-10.24-.04-.82,3.66h-4.49c-.83-3.13,1.42-6.1,1.53-8.96.08-2.01-1.81-4.07-1.56-5.95s3.21-3.22,2.8-4.59c-.97-3.27-4.45-15.03-4.46-18.16,0-2.4,2.4-3.63,2.65-5.02,3.7-20.86.26-48.39,2.03-70.3.76-9.46,5.84-18.29,4.62-27.59-.3-2.27-2.82-1.51-3.11-2.51-1.02-3.56.34-9.93-.02-14.15-.27-3.27-2.34-6.59-1.51-10.16l-29.99-1.2-.06-43.7,1.56-29.25c1.76-1.4,25.79,2.48,31.99.99,3.1-.74,2.96-3.36,4.51-4.26,2.52-1.46,3.86,1.44,5.07-4.8.91-4.69.78-8.96-1.09-13.45l-8.15,2.37c-2-.35-3.44-5.08-3.7-6.67-3.08-18.79.73-43.36,2.74-62.2.29-2.7-3.73-5.75,2.41-6.5,5.44-.66,10.41,2.44,17.58-.04,1.3-.45,1.11-2.08,2.16-2.27,2.08-.39,11.98-.35,13.6.34ZM817.49,449.73h-2.99v2.38h2.99v-2.38ZM905.99,508.32h-2.99v1.17h2.99v-1.17ZM892.5,527.44c-9.87-1.27-14.97,5.66-23.87,6.07-.58,3.99-.93,7.2,5.06,7.14,1.49-.01,9.91-1.19,10.93-1.6.47-.19.53-1.58,1.46-2.06,5.53-2.86,7.2-1.94,6.42-9.56ZM785.98,533.44c-3.5-.92-4.38,1.6-1.51,2.99,2.72,1.31,6.58.17,9.55.58.34.05,2.71,4.42,5.47,2.39,4-2.96-11.1-4.37-12.54-3.55l-.97-2.4ZM805.48,537.01h-2.98c-.47,2.24,1.68,3.96,4.49,3.58l-1.52-3.58ZM899.99,545.38l-.73-4.78-2.25,2.97,2.98,1.81ZM814.1,542.19c-1.71-.77-4.79-1.28-4.09,1.38,6.4,2.93,11.02,7.18,19.48,6.58.22-1.94-3.16-1.41-4.96-2.38-3.16-1.72-7.27-4.14-10.44-5.58ZM893.97,545.38c-2.29-1.4-5.46,3.53-5.75,4.48-1.15,3.7,5.84,10.55,8.56,1.79.34-1.11-2.47-6.07-2.81-6.27ZM868.47,553.77c-2.36-.61-1.98.07-2.95.72-1.05.71-4.32,3.56-4.57,4.61-2.65,11.09,12.51,15.54,12.71,3.15.09-5.35-3.57-4.46-5.19-8.48ZM788.99,557.34h-2.99v3.58h2.99v-3.58ZM898.49,568.09v-2.38h-1.47v2.38h1.47ZM883.49,577.66h-2.99s1.52,3.57,1.52,3.57h1.47s0-3.57,0-3.57ZM905.98,582.44c-3.88-2.45-5.16,7.28-4.47,8.36,6.55-.48,6.58-4.46,4.47-8.36ZM896.99,593.2c2.31-6.73-5.08-12.24-3.76-3.53.31,2.03.2,4.3,3.76,3.53ZM850.49,642.22v-2.38h-1.47v2.38h1.47ZM830.99,645.8v-2.38h-1.47v2.38h1.47ZM802.49,660.16h-2.99v2.38h2.99v-2.38ZM843.75,662.55v1.2c.97-.4.97-.8,0-1.2ZM859.49,675.7v-3.58h-1.47v3.58h1.47ZM809.99,674.52h-2.99v1.17h2.99v-1.17ZM815.99,688.85v-2.38h-1.47v2.38h1.47ZM823.49,688.85v-2.38h-1.47v2.38h1.47ZM860.99,696.02v-3.58h-1.47v3.58h1.47ZM814.49,697.22v-2.38h-1.47v2.38h1.47ZM841.5,697.21l-2.27-2.37h-2.22s0,2.38,0,2.38h4.49ZM822.75,696.03v1.2c.97-.4.97-.8,0-1.2ZM825.75,696.03v1.2c.97-.4.97-.8,0-1.2ZM850.49,696.04h-2.99v1.17h2.99v-1.17ZM854.25,696.03v1.2c.97-.4.97-.8,0-1.2ZM862.49,703.21l-7.42,1.27-.05,3.46,7.47,1.23v-5.97ZM804.01,709.18l2.95-1.78-1.48-2.99h-1.47s0,4.78,0,4.78ZM832.49,704.4h-4.49c-.56,5.98,5.05,5.98,4.49,0ZM845.99,704.4h-2.99v3.58h2.99v-3.58ZM799.49,709.17v-2.38h-1.47v2.38h1.47ZM815.99,706.79h-2.99v2.38h2.99v-2.38ZM825,706.8h-2.99s0,2.38,0,2.38l2.99-2.38ZM819,717.54c-1.59-3.42-7.35-1.65-10.49-1.17l10.49,1.17ZM823.48,719.93l1.48-2.99c-2.09-2.09-2.34-2.09-4.43,0l1.48,2.99h1.47ZM829.49,717.54v-2.38h-1.47v2.38h1.47ZM824.99,729.5c.38-2.23,0-4.14-2.98-4.78v4.78s2.98,0,2.98,0ZM800.99,731.89v-5.97h-1.47c-.97,2.22-.97,3.74,0,5.97h1.47ZM808.49,725.92h-2.99s0,5.97,0,5.97h1.47s1.51-5.97,1.51-5.97ZM815.99,725.92h-2.98s1.51,5.97,1.51,5.97h1.47c.98-2.22.93-3.75,0-5.97ZM833.99,725.92h-2.99s0,3.58,0,3.58l2.97-1.81v-1.77ZM860.99,725.92c-3.73-2.28-7.95,9.62.1,5.22l-.1-5.22ZM835.49,741.46c.17-9.8-4.09-4.14-6.76-3.97-1.32.09-7.03-4.06-8.24-.19-.97,3.1,7.09,11.44,6.01,2.97l8.99,1.19ZM800.98,743.85c5.28-9.2-7.68-9.07-3.34-1.49.93,1.62.21,1.87,3.34,1.49ZM809.99,736.68c-5.46-.23-4.67,4.27-4.49,7.16,4.85.82,4.32-4.86,4.49-7.16ZM819,736.68h-7.5s1.53,7.16,1.53,7.16l4.38-.04,1.59-7.12ZM842.99,736.68h-4.49v4.78h4.49v-4.78ZM851.99,736.68c-9.23-1.67-7.86,5.29,0,4.77v-4.77ZM865.49,736.68h-10.5c-1.5,4.09,1.99,4.15,3.03,7.16,2.34.51.95-1.47,1.91-1.96,2.98-1.53,6.73-.38,5.56-5.2ZM816.64,748.09c-1.04-.94,0-2.22-2.13-1.84l-3.06,5.35,4.48,2.53c-.76,3.58-2.43,6.46.33,9.85l9.4,1.28,3.09-3.49c.15,3.68,9.77,4.6,11.99,2.44,3.88-3.78.39-7.35.63-10.03.1-1.12,6.7-1.63,4.63-5.54-2.82.29-4.91.2-4.55-2.35h-2.91c-.67,6.52-3.63-2.06-7.46,0-.35,1.95-2.55,3.98-.87,5.96,2.45,2.89,7.57-1.91,9.73,1.88l-2.19,6.48c-1.78-3.65-4.41-3.52-8.83-2.63l-2.37-1.67,1.44-10.07-4.61.7-1.46,5.73c7.99,2.29-2.33,9.1-4.31,3.57-.87-2.43,1.73-4.86,1.46-6.83-.1-.71-1.85-.81-2.42-1.33ZM853.49,746.25h-4.49s1.51,5.97,1.51,5.97h1.47s1.51-5.97,1.51-5.97ZM860.99,746.24l-4.36.09-1.63,5.88h5.99s0-5.98,0-5.98ZM798.01,753.41c5.9,0,5.97-4.74,0-4.77v4.77ZM809.99,748.64c-2.38-1.9-6.87,1.68-4.49,3.58s6.87-1.68,4.49-3.58ZM801.4,760.17c-.83-.51.47-2.46-1.88-1.96l-1.51,5.96,5.99-2.39.75,3.59,2.25-3.57c-2.14-.13-3.87-.57-5.6-1.63ZM826.48,776.13c1.32-3.28,3.24-7.09-2.97-7.17.69,2.47-2.37,8.14,2.97,7.17ZM816.01,770.16l-.78,3.56,2.25-1.79v-1.77h-1.47ZM821.58,778.97c-1.08-.72-2.42-.77-3.33-1.62l-3.73,4.75-1.5-3.57-1.5,7.17c7.25-1.07,13.54.45,14.98-7.17l-3.01,2.38h-1.47c.06-.59.04-1.63-.44-1.95ZM836.99,777.33c-3.28.99-7.85-.87-7.49,3.59l7.49,1.2v-4.79ZM805.49,784.5v-2.38h-1.47v2.38h1.47ZM812.98,786.9c-6.33-1.09-.58,5-1.47,5.96-.43.46-6.33.21-6,2.4l8.9-2.48-1.43-5.88ZM821.99,790.49l-4.48-1.2v5.98c1.98-.27,5.74-3.77,4.48-4.78Z"/>
    <path d="M888,764.18c.41-3.05-1.89-8.46,4.5-8.36l-1.5,8.37c-.97.09-2.05-.12-3,0-.65,4.79-1.25,9.54-1.51,14.35l-3.74-2.39-3.76,5.96c2.95-.1,6.27.64,9-.64.46-.22,7.15-5.87,7.38-6.26,1.45-2.46.1-7.14,4.62-6.23-.88,1.61-1.58,6.41-1.15,7.77.15.49,4.12,1.23,2.66,4.17l2.97-2.38c3.31,11.64,1.44,24.25-1.5,35.86-6.35.77-1.02-4.83-.78-7.01.34-3.13-1.51-6.6-.65-10.29.68-2.91,3.5-3.75,3.06-8.43-.81-8.67-6.65-1.77-9.66.26-1.55,1.05-4.84-.55-5.11,4.58,4.44,4.71,3.19-2.06,8.64-.65l-1.5,13.16h-4.49s-1.49-3.59-1.49-3.59c.65,2.9-3.8,8,1.51,7.79l4.47-3-1.5,7.18h-7.48c1.89-5.23-4.64-4.74-4.52-9.58l-5.98,2.38c.97-5.1-2.62-9.57.04-14.34l6.03.65c8.16-12.3-4.93-6.49-9.09,0-7.08,1.78-3.68-7.55-1.26-8.85,1.63-.88,7.23,1.07,5.75-1.96-2.64-5.4-7.29-2.76-9.31-6.27l-2.66.88,1.5-10.76,13.48-2.4c2.5,1.7-2.27,7.16,3.01,5.97v-5.98c.98-.09,2.06.12,3.01,0ZM877.49,770.16h-5.99s2.24,7.15,2.24,7.15c2.57-1.78,4.09-4.42,3.74-7.15ZM894.75,780.92v1.2c.97-.4.97-.8,0-1.2ZM887.99,795.26v-2.38h-1.47v2.38h1.47ZM883.49,802.44l-1.5-7.17h-1.47c-.09,2.64-.85,6.24,2.97,7.17ZM887.99,804.83v-2.38h-1.47v2.38h1.47Z"/>
    <path d="M907.5,733.09l-7.36.12-1.63,8.25,7.48-1.19-1.44,5.42-10.54.55,2.99-10.75c-2.67-.29-7.82,1.01-8.89,3.07-1.69,3.25,2.61,2.68,2.9,3.68,1.64,5.77-.73,7.76-7.5,7.59,4.59-4.72-.41-12.26,4.43-15.88,1.4-1.04,3.15-.85,4.41-1.57s1.44-2.34,1.97-2.58c2.03-.96,6.58.24,7.14-.33.34-.34,1.07-6.71,3.07-8.31l2.99,11.94ZM888.75,743.85v1.2c.97-.4.97-.8,0-1.2Z"/>
    <path d="M853.5,813.2c-.34.31-1.53.43-2.18,1.24-4.72,5.96,6.22,11.52-3.82,10.72,1.65-6.04-2.39-9.96-3.02-15.55l-5.98,5.97v-10.75s6.86.86,6.86.86c2.05-5.7,10.6-2.9,11.04-3.29.7-.62,1.19-6.98,4.57-7.14,3,6.38,1.57,10.39-7.48,10.77l-1.49-3.59c-2.74,5,.94,7.4,1.49,10.76,2.05-1.88,2.07-3.01,5.99-2.4l.02,8.37,5.98-4.78.02,7.16,4.47-2.38,1.51,3.58c-2.1.2-4.61-.39-6.56-.03-1.8.33.08,2.94-2.41,2.43l-2.27-3.56c-1.36.02-2.28,5.6-5.23,3.56-1.28-.88-1.15-9.72-1.52-11.95Z"/>
    <path d="M861,789.29c2.02-.32,1.12-3.68,5.98-2.39l1.47,5.32c-2.17,2.97-5.66.21-8.94,1.85-.89-1.78,1.44-3.82,1.49-4.78-3.78.6-9.3-3.8-7.49-4.79l3.06.58,2.91-2.96c.87,2.47,1.64,4.52,1.52,7.17Z"/>
    <path d="M835.49,797.65c1.54,12.39-8.28,13.12-4.5.81l4.5-.81Z"/>
    <path d="M874.49,797.66c-.57,1.14.31,11-3.72,9.55-5.53-1.99,1.37-11.83,3.72-9.55Z"/>
    <path d="M899.99,749.84c.28,1.59.43,8.37-2.24,8.34-3.18-.03-3.22-9.46,2.24-8.34Z"/>
    <path d="M862.51,773.74l2.24-8.36c3.62,2.26,3.7,8.53-2.24,8.36Z"/>
    <path d="M876.01,758.19c-.4-2.82,5.09-4.96,7.48-5.97l-7.48,5.97Z"/>
    <path d="M913.49,807.23c-.85,2.53,2.58,9.35-2.99,8.36.85-2.53-2.58-9.35,2.99-8.36Z"/>
    <path d="M844.51,798.85c-.65-4.1-.28-4.78,4.48-5.97.37,2.98.16,6.29-4.48,5.97Z"/>
    <rect x="807.01" y="802.44" width="4.49" height="4.78"/>
    <path d="M872.99,753.42l1.5,7.17c-2.79.43-.49-2.07-2.25-2.39-3.99-.72-.61,2.48-3.73,2.39,1.55-2.22-.31-8.13,4.48-7.17Z"/>
    <path d="M899.99,760.6v4.77c-5.97-.03-5.9-4.77,0-4.77Z"/>
    <path d="M905.99,770.15c-2.2.31-1.89-3.78-1.99-5.06-.15-1.81-1.91-2.86,1.26-4.49l.73,9.55Z"/>
    <path d="M866.99,761.78h-2.99s0-5.97,0-5.97c3.4.73,3.2,3.68,2.98,5.97Z"/>
    <path d="M905.99,757c-4.64-1.29-2.45-4.3-1.47-7.17h1.47s0,7.17,0,7.17Z"/>
    <rect x="883.51" y="817.99" width="2.99" height="3.58"/>
    <rect x="897.01" y="817.99" width="1.47" height="3.58"/>
    <path d="M871.49,817.98h-1.47c-.36-2.2-.08-3.49,2.25-4.76l-.78,4.76Z"/>
    <rect x="853.51" y="778.53" width="1.47" height="2.38"/>
    <path d="M912.75,826.35c.97.4.97.8,0,1.2v-1.2Z"/>
    <path d="M830.25,813.2c.97.4.97.8,0,1.2v-1.2Z"/>
    <path d="M864.75,804.83c.97.4.97.8,0,1.2v-1.2Z"/>
    <path d="M854.25,794.07c.97.4.97.8,0,1.2v-1.2Z"/>
    <path d="M905.25,772.55c.97.4.97.8,0,1.2v-1.2Z"/>
  </g>
</svg>