<?xml version="1.0" encoding="UTF-8"?>
<svg id="Layer_1" xmlns="http://www.w3.org/2000/svg" version="1.1" viewBox="0 0 1920 1080">
  <!-- Generator: Adobe Illustrator 29.5.1, SVG Export Plug-In . SVG Version: 2.1.0 Build 141)  -->
  <path d="M1300.5,1002.11v-81.3c2.54.01,2.88,3.97,3.02,5.37,1.42,14.15,2.29,30.04,3.05,44.2.26,4.8-1.41,28.83,1.65,30.39l5.8.14v.06h4.49v-.05h13.51s.06-55.65.06-55.65c-3.66-10.21.23-21.85-1.93-31.94-1.75-8.18-10.13-7.62-11.54-.22-3.4,17.72,2.83,38.42,1.47,56.17-.14,1.8-.36,7.11-3.05,7.72-2.56-9.94-2.58-63.4-10.75-67.96l-16.28-.19,1.42,91.39,9.09,1.88ZM1309.51,965.06h2.99v1.17h-2.99v-1.17Z"/>
  <path d="M1546.14,905.59c.4.16,5.47,4.95,5.72,5.56.84,2.04,1.89,8.92,2.13,11.45,1.53,16.28,2.12,47.47.02,63.37-.66,4.97-3.09,11.75-9.84,12.44-9.33.94-14.07.58-16.72-6.82-4.13-11.55-3.39-64.57-.13-77.1.28-1.1,5.41-8.73,5.96-8.99,1.34-.62,11.24-.55,12.85.08ZM1542,919.61c-1.65-.48-6,.5-6,1.79v63.97c1.96.46,6,1.48,6-.6v-65.16Z"/>
  <path d="M1424.65,912.7c1.27,1.73.07,9.29.36,12.29,1.73,17.74,4.41,48.75-.1,65.69-.45,1.67-5.21,9.55-6.19,10-1.21.56-10.29.54-12.18.22-.37-.06-5.05-4.11-5.23-4.37-1.35-2-3.02-6.99-3.33-9.34-1.93-14.68-1.92-49.85.17-64.46,1.28-8.93,6.29-18.66,19.87-14.89.43.12,6.39,4.55,6.62,4.86ZM1408.5,923.8v62.17c0,.53,1.87,1.84,1.52,2.98h1.46c-.57-1.62,3.02-3.94,3.02-4.18v-60.98c0-3.28-5.09-4.67-6,0Z"/>
  <path d="M1194,963.25c-.15-.46-2.62-2.15-2.99-1.79l-.02,20.33-3.79-.1-2.19,7.27-.13-46.11c7.41-5.31.42-6.31.13-7.28-1.83-6.16,1.38-17.21-1.52-24.31h12s5.9,47.35,5.9,47.35c-1.99,5.03-1.08,9.16,2.36,13.64.57-.01,2.11-7.69,2.25-8.98.74-7.15-.32-22.66,1.5-28.51.3-.95,3.07-.75,3.09-1.4.05-1.87-2.87-3.54-2.92-5.89-.05-2.42,1.16-10.25,1.73-12.95.21-1,.71-3.05,2.08-3.3l11.03.05c-.78,19.29.99,38.76.07,58.04-.18,3.78-2.67,6.74-.22,10.65l-4.29,1.97c4.37,6.23,2.69,13.38,2.93,20.22l-6.04-.77c-3.66-7.67,1.14-14.85.16-22.64-.26-2.03-4.5-1.91-3.13-5.29l-2.99,7.18c-4.93,1.56-3.41-5.99-5.24-5.99l-2.44,5.84-7.31.15c-1.02-4.81,1.4-13.1,0-17.34ZM1214.99,941.14h-2.99s0,1.77,0,1.77l2.24,1.8.74-3.58ZM1216.5,954.28l-2.99-2.38v2.39s2.99,0,2.99,0ZM1189.49,965.04c.38-2.23,0-4.14-2.98-4.78v4.78s2.98,0,2.98,0ZM1213.48,962.68l-2.98.58.02,8.96,3.74-5.98,5.24,5.98c.87-4.32-2.32-5.05-4.86-7.2-1.33-1.13-1.02-2.27-1.15-2.34Z"/>
  <path d="M1453.08,909.2c2.67,1.86,4.55,8.11,4.91,11.02,1.86,15.24,2.28,53.21-.1,68.05-.24,1.52-2.76,8.24-3.66,9.07-1.02.93-3.15.98-4.64,1.68-.57.27-.58,1.67-1.62,1.87-4.29.79-10.79-.49-15.47.04l1.52-93.26c5.22.42,15.06-1.25,19.07,1.54ZM1443,920.81v68.15c3.69.84,5.77-4.46,6.08-6.52,1.82-11.84,1.42-41.73.02-53.94-.29-2.5-1.57-8.26-6.1-7.7Z"/>
  <path d="M1474.5,996.73c-.15.9-1.86,2.56-1.7,4.02l-7.3.17,4.5-93.27,14.86.12c.2,1.47.95,2.92,1.22,4.37,3.75,19.88,5.66,46.34,6.49,66.6.14,3.43.66,20.76-1.76,22.01h-5.62s-3.3-22.47-3.3-22.47l-7.39-.09c-.7,5.85.96,12.87,0,18.53ZM1480.49,931.57c-1.67-1.55-2.87-.19-3,1.77-.73,11.72-.79,23.58-1.49,35.3h5.99s-1.5-37.06-1.5-37.06Z"/>
  <path d="M1576.5,966.24h10.51s1.59,19.07,1.59,19.07l4.52-.64,1.18-29.63-1.25-1.42c-8.04,2.25-14.32-4.95-15.09-10.66-1.41-10.37.43-22.97,1.75-33.35,7.19-4.74,10.76-6.41,20.56-4.16,4.92,4.25,7.23,29.98,2.25,30.95l-6.67-.74-1.35-18.44-4.38.08c-3.26,8.17-.88,17.07-1.69,25.55,4.28.48,11.66,3.17,13.48,6.38,1.46,2.58,3.23,14.34,3.23,17.61s-1.52,5.72-1.63,8.37c-.22,5.39,1.89,18.63-3.45,21.76-3.31,1.93-13.9,1.69-17.15.04-2.11-1.07-6.4-9.07-6.4-11.04v-19.73Z"/>
  <path d="M1344,1000.92l-7.3-.16c-3.93-5.44-.3-10.67-.14-15.93.72-23.53.24-47.14,2.92-70.61.21-1.81.77-3.57,1.71-5.21l13.15-.04,6.14,39.94,3.01,52.01h-10.51v-20.33h-9v20.33ZM1349.99,932.77c-5.67-.82-1.89,3.44-2.03,5.58-.69,10.51-.72,21.09-2.47,31.48h7.51s-3.01-37.06-3.01-37.06Z"/>
  <path d="M1243.44,908.91l7.4,91.32c-16.78,8.81-9-15.75-8.81-22.62.16-5.46-2.35-10.88-3.12-15.48-1.27-7.6,1.24-17.43.15-25.22-.25-1.8-.31-3.68-3.05-4.14,2.39,13.42-2.41,27.99-2.19,41.25.09,5.27,4.9,23.69.31,26.61-.61.39-5.56,1.47-6.25,1.37-4.92-.74.3-15.36.44-18.56.32-7.17-5.05-15.15,3.15-21.38l-3.78-.43c-1.51-6.07,1.26-51.11,4.01-52.61l11.74-.1ZM1231.49,977v-2.38h-1.47v2.38h1.47Z"/>
  <path d="M1370.69,909.11l4.81,28.44c3.14.09,2.88.55,2.99-1.79.18-3.81,2.36-25.35,3.66-26.99,1.56-1.96,8.95-1.71,9.75.82l-9.85,53.87c.88,4.94,2.82,36.72-1.53,37.5l-8.03-.05c-.39-7.35.53-14.83.07-22.18-1.34-21.54-9.08-43.69-10.59-64.54-.44-6.1,1.32-8.19,8.72-5.09Z"/>
  <path d="M1499.81,905.42c3.74,8.51,3.82,17.78,4.7,26.75.15,1.56-1.3,5.05,2.22,4.19l5.41-30.97,8.86-.12c1.2.95-2.57,23.23-3.2,26.75-1.46,8.11-4.96,17.42-5.79,25.27-1.38,13,.91,27.4.09,40.57-.32,1.23-5.77-.19-4.62,3.05l-6.08-3.05c2.55-30.25-5.35-59.78-9.63-89.63.21-4.23,3.38-3.16,8.04-2.81Z"/>
  <path d="M1279.5,932.76c-1.65-1.54-2.88-.2-3,1.77-.55,8.81,3.05,19.53-4.51,26.35l3.08,1.35-.08,39.88-6.08-.53c-3.31-1.78.03-7.76.15-10.78.97-24.81-2.71-50.61-.06-75.37.23-2.19,1.27-4.3,1.64-6.46l11.67.03c4.08,2.23,4.42,39.53,4.69,45.88.14,3.28,2.37,5.35,1.16,9.26-2.16,6.99-.57,2.54.44,8.61,1.46,8.84-1.27,20.22-.1,29.37l-5.83-.14c-1.64-1.07-2.49-20.5-1.71-22.96.37-1.16,6.9-2.11,4.53-6.8l-3.01.61-1.27-1.35c-.78-3.91.26-7.95-.14-11.86-.16-1.56-1.56-3.18-1.56-3.54v-23.32Z"/>
  <path d="M693,934.56c-.88-2.52-7-3.6-8.81-1.62-.9.98-.32,20.91-.27,24.39.04,2.82,1.61,4.97,1.27,8-.6,5.31-6.53,7.03-11.68,9.28l-.14-38.95,3.13-2.29c-4.12-2.81-4.04-8.58-2.98-12.55l2.97,2.38c2.29-7.18,4.7-14.54,8.63-21.28.98-1.68-.93-3.28,3.38-2.62l-9,20.31c14.44-1.16,4.32,4.3,9.77,9.56l4.49-9.55c4.56-.62,2.81.19,3.87,1.71,8.83,12.68,2.77,36.23,4.38,50.9h-9.01v-37.67ZM680.99,924.39v-3.58h-1.47v3.58h1.47Z"/>
  <path d="M667.5,949.5l-9.85-1.12c-2.39-5.7,2.56-12.91-4.4-16.79-7.89,7.26-.31,17.47-5.24,25.08,2.3.57.96-4.54,4.46-2.38.37.23,2.04,5.05,4.51,6.47,1.27.73,6.97.26,8.98.73-.66,7.89,10.1,17.5-7.34,15.41l-1.64-10.65-2.23,2.42c-.96-.18-2.05.16-2.97-.01-.78-.14-10.61-8.66-10.98-9.23-3.53-5.38-3.29-36.43,4.55-39.01,3.09-1.02,12.16-1.41,15.16-.61,1.86.49,6.99,7.64,6.99,8.78v20.92Z"/>
  <path d="M1252.5,908.85l7.3.16c5.01,2.64,2.92,69.26,3.13,79.4.08,4.08,3.01,6.76.46,11.02-2.16,3.6-9.42,3.93-10.73.72l2.86-30.31,4.47,3.58c-.1-1.38.26-2.86.08-4.23-.81-6.37-3.95-1.81-7.57-4.73v-55.6Z"/>
  <path d="M728.99,919.62l.02,11.96-9.85,1.11c-1.09,1.3-1.05,10.54-.73,12.69,1.18,7.78,7.59,1.16,9.88,4.08l.7,8.43h-10.5s1.49,11.95,1.49,11.95h-11.98s-.01-50.22-.01-50.22h21ZM722.99,927.98v-3.58h-1.47v3.58h1.47ZM716.99,931.56l-.74-3.58-2.24,1.8v1.77s2.98,0,2.98,0Z"/>
  <path d="M702,980.6c-1.29,2.25-4.28,3.69-4.33,6.51-.02,1.41.98,9.36,1.33,10.63.25.9,2.71.67,2.98,1.59.92,3.07-.6,7.8.02,11.17h-7.5s1.62-6.41,1.62-6.41c-7.41-3.04-6.71-11.58-7.64-17.5-7.91,3.52-4.09,12.39-3.04,18.43l-2.38,1.66-3.57-.98-.13,3.48-5.87.13.2-14.79,2.04-1.59,3.75.84.02-3.59h-6.03s0-8.38,0-8.38l28.51-1.18ZM680.99,998.53h-2.99v2.38h2.99v-2.38Z"/>
  <path d="M1153.49,939.93l-4.48-3.58c.25,3.31-1.59,8.21,2.98,9.56l1.5-4.78c-.75,4.11.77,8.67.69,12.54-.06,2.69.38,8.75-3.66,7.79l3.04,1.92c1.96,5.95-4.45,6.22-4.67,7.23-.48,2.1,1.96,10.09,1.45,14.03-.16,1.24-.52,4.48-2.81,4.31l-1.52-68.15c-9.62-1.71-10.28,10.16-12.01,15.55-3.84,2.53-5.08-7.76.02-7.75-6.69-5.34.88-11.14,2.92-16.82l12.16-.02c4.61,8.95,4.78,18.66,4.39,28.16Z"/>
  <path d="M718.06,998.23c-.15.23-4.39,1.87-4.08,3.87h4.54c-3.92,5.96,5.35,5.99,1.47.03l8.94-1.2c1.37,2.95,1.9,5.32-.15,8.19l-18.31.21-2.45-7.21,4.47-.02c2.2-3.68-2.51-3.19-3.73-4.73-1.86-2.34-.07-14,.77-17.35,1.07-4.29,7.5-4.05,8.75-1.05,1.45,3.49-1.04,6.52-1.01,9.39s2.79,6.77.79,9.87ZM713.25,988.96v1.2c.97-.4.97-.8,0-1.2ZM727.49,1003.31h-2.99v2.38h2.99v-2.38ZM714.75,1005.7v1.2c.97-.4.97-.8,0-1.2Z"/>
  <path d="M1024.51,927.98l2.97-2.38c-.46,12.75,4.9,27.39-.93,39.5l-5.05-.06c-.63-2.28,1.26-4.54,1.23-6.56-.13-9.55-.64-18.96-.14-28.66.13-2.44-3.01-5.38,1.88-6.61l.03,4.78Z"/>
  <path d="M1208.99,981.79l-1.56,20.26c-3.15.07-9.09.99-10.22-1.9-.7-1.8-2.36-16.09-1.54-17.02l13.32-1.34Z"/>
  <path d="M808.44,923.15l-8.75,1.4c-1.12,4.19-.56,9.09-1.03,13.11-.12,1.02-.37,2.64-2.14,2.26-1.06-4.49-12.26-3.12-1.53-7.76l-3.12-1.3c2.26-4.06.42-7.13.13-11.25l14.05.03,2.43-2.42-.05,5.92Z"/>
  <path d="M1120.71,917.38c-.43.4,0,9.92-6.23,7.68-3.78-1.36-3.37-9.4-4.47-12.62l14.12-1.08c7.43,5.41-2.59,5.23-3.42,6.01ZM1113.75,919.61v1.2c.97-.4.97-.8,0-1.2Z"/>
  <path d="M777.36,925.82c-.77.92-.25,2.25-.35,3.35l4.48-1.19v3.58s-4.41.05-4.41.05c-.73,2.57.89,5.03.87,7.52,0,.95-.35,4.74-2.44,4.38-2.13-4.28-1.74-7.65,0-11.94l-4.6-.65.11-5.32c2.77-.43.49,1.94,2.25,2.39,2.59.67,2.58-.8,2.23-2.38-4.7-.25-4.92-2.64-4.5-5.99,2.54-.28,5.72.47,8.06.03,1.77-.33-.07-2.94,2.43-2.42-.17,2.02.6,4.56-.2,6.43-.7,1.64-3.52,1.67-3.93,2.16ZM775.49,923.19v-2.38h-1.47v2.38h1.47ZM779.99,920.81h-2.99v2.38h2.99v-2.38Z"/>
  <path d="M1154.99,992.55c-.23,8.41-20.28,17.23-19.5,4.78,8.76,1.84,10.91-4.55,19.5-4.78Z"/>
  <path d="M1192.5,985.37v17.93l-6.1-.52c-2.57-1.39-1.61-8.92-.38-11.19.74-1.37,2.83-1.33,3.09-1.72,1.41-2.08-1.68-5.3,3.39-4.51Z"/>
  <path d="M1012.51,977l2.97-4.77c-.32,2.4.62,5.31,0,7.57-.15.56-5.26,1.66-2.97,5.57l4.48-2.38c-1.83,3.09,1.57,8.58-.67,10.84-.88.89-3.39.77-4.88,1.53-.97.5.41,2.45-1.93,1.96v-7.16s4.47,2.38,4.47,2.38c1.87-3.39-2.8-3.57-2.98-4.36-.57-2.36.18-5.54,0-8.19-.19-2.9-3.31-5.55.75-7.76l.76,4.77Z"/>
  <path d="M1051.49,941.14h-4.49c-1.94-4.84,8.28-7.15-.07-10.25l1.56-5.29-3.74,2.4-2.24-2.4,1.47,5.25-3.74,1.9c-3.47-1.97-2.14-5.43-2.23-8.34,19.76-4.17,12.21,5.66,13.48,16.73Z"/>
  <path d="M1104,912.44v8.36c-5.05-.68-8.45-1.67-13.49,0l-.02-8.37h13.5Z"/>
  <path d="M1140.01,961.46l-4.61,10.1c3.68,1.2,3.56,1.33,2.78,4.54l-5.67,10.46c0-2.14-.26-4.33.1-6.48.62-3.71,3.31-10.69,2.99-14.3-.04-.47-7.21-3.47-4.58-7.91,2.38-.38,1.38,2.2,2.95,3.02,1.68.87,4.1.55,6.05.57Z"/>
  <path d="M1038.56,956.17c1.43,1.17,3.76,1.13,3.67,3.18-.03.71-.88,5.99-2.72,5.69l-1.5-7.16.69,10.82,8.28.52c-1.49,6.13-7.95,3.6-11.97,8.98l1.49-23.29c1.64-2,1.38.71,2.06,1.27Z"/>
  <path d="M1042.49,954.28c-5.31.46-5.07-5.84-5.16-8.96-.14-4.55.23-8.37,4.42-11.37,3.92-.17-.64,17.86.74,20.33ZM1040.99,944.72v-3.58h-1.47v3.58h1.47Z"/>
  <path d="M755.99,977.01c-.12,3.77.2,7.59,0,11.36-.08,1.45,1.14,4.45-1.49,4.17l-.02-5.98-4.18.35-3.3,2.04c-3.08-2.93,6.91-13.8,8.99-11.95ZM752.99,985.37v-3.58h-1.47v3.58h1.47Z"/>
  <path d="M749.98,994.96c.25.14-.94,3.46,3.78,2.4l2.22-2.42-1.5,10.75-1.49-3.59-5.98,1.2v-8.36s2.97.02,2.97.02Z"/>
  <path d="M1047.76,943.54c7.3-1.53,7.38,9.7-.02,10.72-2.9-.08-1.93-10.32.02-10.72Z"/>
  <path d="M801,1003.31c-.09,1.19.09,2.4,0,3.59-7.24,2.94-12.61-5.91-8.99-8.37,2.49-1.69,4.14,3.06,6,4.16.92.54,2.49.34,2.98.62.06-.79-.09-1.6,0-2.39l6.49-.05,2.51,4.82c-6.58,1.21-6-.74-8.99-2.39Z"/>
  <path d="M781.5,993.75v12.54c-.35,2.19-8.21-.27-6.01-4.18l4.5-.59c-3.38-2.83-4.98-7.69,1.51-7.77Z"/>
  <path d="M1097.98,990.16l1.52,8.36h-7.51c-.97-3.52.69-8,5.99-8.36Z"/>
  <path d="M799.49,953.1l-1.5,11.96h-4.48c-2.5-4.78,4.59-6.4,1.49-11.96h4.49Z"/>
  <rect x="1130.99" y="943.52" width="7.51" height="5.99"/>
  <path d="M736.49,919.62c.18,2.13-.43,4.46.03,6.55.52,2.33,3.4,3.01,2.97,5.4h-5.99c.13-3.36-.22-6.8,0-10.18.12-1.96,1.33-3.32,3-1.77Z"/>
  <path d="M992.99,936.35c-3.86,1.85-4.35-7.33-4.25-7.79.16-.73,2.7-.39,2.76-1.27.11-1.61-2.07-3.99.02-6.46,2.61-.28,1.41,2.72,1.48,4.17.18,3.78-.12,7.59,0,11.36Z"/>
  <path d="M781.49,974.62c-.31,2.4.59,5.25-.03,7.53-.08.28-4.72,4.33-5.96,3.22-.56-3,1.1-5.55,2.61-8.13.98-1.68-.94-3.28,3.37-2.62Z"/>
  <polygon points="992.99 954.29 988.43 952.3 988.4 946.46 992.26 943.53 992.99 954.29"/>
  <path d="M1096.49,931.56c-3.11.09.26-3.11-3.72-2.39-1.76.32.54,2.83-2.25,2.39l.18-7.02,5.79-1.34v8.36Z"/>
  <polygon points="1040.99 992.55 1040.82 997.18 1033.51 996.72 1035.95 992.71 1040.99 992.55"/>
  <path d="M1004.99,993.75l-.03,6.41,3.02,3.15c-5.87-1.08-11.81-8.71-2.99-9.56Z"/>
  <path d="M1062.01,986.57l5.97-13.15c.6,4.67-.64,10.35-5.97,13.15Z"/>
  <path d="M1027.49,968.63c1.69,12.59-4.89,10.42-4.49,0h4.49ZM1025.25,972.22v1.2c.97-.4.97-.8,0-1.2Z"/>
  <path d="M1016.99,965.05l-1,3.59-6.49,1.19c-.89-4.52,2.57-5.22,7.48-4.77Z"/>
  <path d="M764.99,919.61c.37,5.29,1.52,11.91-7.49,11.96l5.34-3.49.65-7.26-4.48,2.38v-3.58s5.98-.01,5.98-.01Z"/>
  <path d="M1048.49,982.98l-9.66-1.08-5.33,3.47c-1.89-7.99,12.09-1.54,12.01-7.16h1.46s1.51,4.77,1.51,4.77Z"/>
  <path d="M1008.52,915.54c1.06.82,5.88,2.54,3.98,4.06-2.75,2.2-2.28-3.43-6.76-2.41l-2.22,2.42,3.01-5.96c2.26-.46,1.05,1.17,1.99,1.9Z"/>
  <polygon points="1115.98 956.67 1114.41 950.22 1119.76 948.33 1115.98 956.67"/>
  <polygon points="781.49 986.57 781.49 992.54 779.25 990.15 777.01 992.54 781.49 986.57"/>
  <path d="M797.99,992.54h-2.99c-.11-2.56-.65-5.47,2.25-7.16l.74,7.16Z"/>
  <path d="M925.51,966.24c-.27-1.95.87-3.67,1.33-5.52.4-1.58-.99-4.32,1.64-4.04-.3,3.1,1.72,8.05-2.97,9.56Z"/>
  <path d="M922.5,960.27c-1.56,2.3-1.56,3.65,0,5.96-6.17.12-6.17-6.08,0-5.96Z"/>
  <polygon points="810 927.99 809.99 931.56 805.68 931.43 804 927.99 810 927.99"/>
  <rect x="1023.01" y="992.55" width="2.99" height="5.97"/>
  <rect x="1000.5" y="948.31" width="2.99" height="5.96"/>
  <path d="M977.99,990.16c2.38,1.9-2.11,5.47-4.49,3.58-2.38-1.9,2.11-5.47,4.49-3.58Z"/>
  <path d="M849.01,945.92c.65-2.23,1.61-7.36,4.47-8.36-.25,2.74-.78,7.13-4.47,8.36Z"/>
  <path d="M1051.49,962.66c2.38,1.9-2.11,5.47-4.49,3.58-2.38-1.9,2.11-5.47,4.49-3.58Z"/>
  <path d="M1081.49,925.6c2.38,1.9-2.11,5.47-4.49,3.58s2.11-5.47,4.49-3.58Z"/>
  <path d="M1010.64,932.47c-1.33,1.3-8.85,3.12-7.12-.89l5.66-.24,3.31-5.74c-.28,1.75-.63,5.67-1.85,6.87Z"/>
  <path d="M922.5,980.6c-1.27,2.26.76,5.3-2.99,5.97v-5.97s2.99,0,2.99,0Z"/>
  <path d="M1027.49,982.99v3.58c-1.99,1.59-9.18-4.87,0-3.58Z"/>
  <path d="M1052.99,993.74h-1.47c-.44-2.5.81-4.79,1.5-7.16h1.47s-1.5,7.16-1.5,7.16Z"/>
  <polygon points="992.99 972.22 991.51 977 988.49 972.83 992.99 972.22"/>
  <rect x="1114.51" y="929.18" width="1.47" height="8.36"/>
  <polygon points="1120.5 966.26 1120.49 968.63 1116.01 968.63 1116.01 965.05 1120.5 966.26"/>
  <path d="M1009.49,944.72h-2.99s0-4.78,0-4.78c2.99.64,3.36,2.55,2.98,4.78Z"/>
  <path d="M1078.51,954.28l1.51-4.77h1.47s1.48,2.99,1.48,2.99c-1.34,1.28-2.26,2.16-4.46,1.78Z"/>
  <polygon points="1051.49 960.26 1047.01 960.26 1047 957.89 1051.49 956.68 1051.49 960.26"/>
  <polygon points="748.51 968.63 751.31 967.86 747.01 972.22 748.51 968.63"/>
  <rect x="847.51" y="986.57" width="4.49" height="2.38"/>
  <rect x="990.01" y="913.64" width="2.99" height="3.58"/>
  <polygon points="1025.99 913.64 1025.99 915.41 1023.01 917.22 1023.01 913.64 1025.99 913.64"/>
  <polygon points="1093.49 945.92 1093.49 947.69 1090.51 949.5 1090.51 945.92 1093.49 945.92"/>
  <polygon points="778.49 945.92 778.49 947.69 775.51 949.5 775.51 945.92 778.49 945.92"/>
  <polygon points="750.02 948.3 752.99 944.73 752.24 949.51 747.03 945.31 750.02 948.3"/>
  <polygon points="961.48 948.3 960.01 948.3 960.01 943.53 962.96 945.31 961.48 948.3"/>
  <polygon points="926.99 948.3 924.02 945.92 921.03 948.92 926.26 943.53 926.99 948.3"/>
  <polygon points="749.99 965.04 747.01 965.04 747.01 961.46 749.99 963.27 749.99 965.04"/>
  <polygon points="992.99 961.46 988.51 961.45 988.51 960.28 992.99 957.88 992.99 961.46"/>
  <polygon points="994.49 962.66 994.49 964.43 991.51 966.24 991.51 962.66 994.49 962.66"/>
  <polygon points="791.99 985.38 791.99 988.96 790.52 988.95 789 985.38 791.99 985.38"/>
  <rect x="1119.01" y="931.57" width="1.47" height="4.77"/>
  <rect x="991.51" y="992.55" width="2.99" height="2.38"/>
  <polygon points="979.49 932.77 979.49 936.35 978.02 936.34 976.5 932.78 979.49 932.77"/>
  <rect x="849.01" y="994.94" width="2.99" height="2.38"/>
  <rect x="780.01" y="960.27" width="1.47" height="4.77"/>
  <polygon points="921 936.36 919.48 939.93 918.01 939.93 918.01 936.36 921 936.36"/>
  <rect x="1101.01" y="1000.92" width="2.99" height="2.38"/>
  <rect x="982.51" y="939.94" width="1.47" height="4.77"/>
  <rect x="1114.51" y="939.94" width="1.47" height="4.77"/>
  <polygon points="777 961.47 775.48 965.04 774.01 965.04 774.01 961.47 777 961.47"/>
  <rect x="1012.51" y="945.92" width="2.99" height="2.38"/>
  <rect x="796.51" y="941.14" width="1.47" height="3.58"/>
  <rect x="919.51" y="1002.12" width="1.47" height="3.58"/>
  <rect x="861.01" y="939.94" width="1.47" height="3.58"/>
  <rect x="925.51" y="937.55" width="1.47" height="3.58"/>
  <path d="M752.99,941.13h-1.47c-.36-2.2-.08-3.49,2.25-4.76l-.78,4.76Z"/>
  <rect x="1116.01" y="977.01" width="1.47" height="3.58"/>
  <rect x="906.01" y="968.64" width="1.47" height="3.58"/>
  <rect x="1077.01" y="997.34" width="1.47" height="3.58"/>
  <rect x="946.51" y="994.94" width="1.47" height="3.58"/>
  <rect x="747.01" y="953.1" width="1.47" height="3.58"/>
  <rect x="780.01" y="933.97" width="1.47" height="3.58"/>
  <rect x="1116.01" y="990.16" width="1.47" height="3.58"/>
  <rect x="780.01" y="968.64" width="1.47" height="3.58"/>
  <rect x="1078.51" y="916.03" width="1.47" height="3.58"/>
  <rect x="690.01" y="1006.9" width="1.47" height="2.38"/>
  <rect x="685.51" y="1006.9" width="1.47" height="2.38"/>
  <rect x="958.51" y="998.53" width="1.47" height="2.38"/>
  <rect x="1078.51" y="985.38" width="2.99" height="1.17"/>
  <rect x="939.01" y="978.2" width="1.47" height="2.38"/>
  <rect x="861.01" y="978.2" width="1.47" height="2.38"/>
  <rect x="1090.51" y="972.23" width="1.47" height="2.38"/>
  <rect x="1002.01" y="972.23" width="2.99" height="1.17"/>
  <rect x="978.01" y="966.25" width="1.47" height="2.38"/>
  <rect x="897.01" y="966.25" width="1.47" height="2.38"/>
  <rect x="858.01" y="954.29" width="1.47" height="2.38"/>
  <rect x="753.01" y="954.29" width="1.47" height="2.38"/>
  <rect x="948.01" y="949.51" width="1.47" height="2.38"/>
  <rect x="1120.51" y="943.53" width="1.47" height="2.38"/>
  <rect x="748.51" y="941.14" width="1.47" height="2.38"/>
  <rect x="748.51" y="937.55" width="1.47" height="2.38"/>
  <rect x="1071.01" y="912.45" width="2.99" height="1.17"/>
  <rect x="961.51" y="913.64" width="1.47" height="2.38"/>
  <rect x="885.01" y="936.36" width="2.99" height="1.17"/>
  <rect x="960.01" y="933.97" width="1.47" height="2.38"/>
  <polygon points="861.01 933.97 862.49 933.97 862.49 935.74 860.24 937.53 861.01 933.97"/>
  <rect x="906.01" y="917.23" width="1.47" height="2.38"/>
  <rect x="1072.51" y="932.78" width="2.99" height="1.17"/>
  <rect x="918.01" y="927.99" width="2.99" height="1.17"/>
  <path d="M851.98,927.97h-1.47c-.61-1.06,1.59-3.37,1.51-4.77h1.47s-1.51,4.77-1.51,4.77Z"/>
  <polygon points="961.51 925.6 962.99 925.6 962.99 927.37 960.74 929.16 961.51 925.6"/>
  <rect x="1005.01" y="924.41" width="2.99" height="1.17"/>
  <path d="M1010.25,923.2c.97.4.97.8,0,1.2v-1.2Z"/>
  <path d="M939.75,927.98c.97.4.97.8,0,1.2v-1.2Z"/>
  <path d="M906.75,931.57c.97.4.97.8,0,1.2v-1.2Z"/>
  <path d="M1026.75,919.61c.97.4.97.8,0,1.2v-1.2Z"/>
  <path d="M972.75,916.03c.97.4.97.8,0,1.2v-1.2Z"/>
  <path d="M920.25,916.03c.97.4.97.8,0,1.2v-1.2Z"/>
  <path d="M873.75,899.29c.97.4.97.8,0,1.2v-1.2Z"/>
  <path d="M692.25,890.92c.97.4.97.8,0,1.2v-1.2Z"/>
  <path d="M794.25,943.53c.97.4.97.8,0,1.2v-1.2Z"/>
  <path d="M1101.75,944.72c.97.4.97.8,0,1.2v-1.2Z"/>
  <path d="M908.25,951.9c.97.4.97.8,0,1.2v-1.2Z"/>
  <path d="M780.75,953.09c.97.4.97.8,0,1.2v-1.2Z"/>
  <path d="M906.75,961.46c.97.4.97.8,0,1.2v-1.2Z"/>
  <path d="M965.25,968.63c.97.4.97.8,0,1.2v-1.2Z"/>
  <path d="M992.25,968.63c.97.4.97.8,0,1.2v-1.2Z"/>
  <path d="M804.75,972.22c.97.4.97.8,0,1.2v-1.2Z"/>
  <path d="M834.75,977c.97.4.97.8,0,1.2v-1.2Z"/>
  <path d="M887.25,985.37c.97.4.97.8,0,1.2v-1.2Z"/>
  <path d="M1091.25,985.37c.97.4.97.8,0,1.2v-1.2Z"/>
  <path d="M863.25,988.96c.97.4.97.8,0,1.2v-1.2Z"/>
  <path d="M1055.25,1002.11c.97.4.97.8,0,1.2v-1.2Z"/>
  <path d="M1178.74,1001.9l-13.25.81c-8.22-6.08-5.31-14.87-5.99-22.72-1.44-16.55-3.45-39.85-1.49-56.19,1.08-9.04,2.77-14.59,15.77-12.57,5.59.87,7.8,15.32,8.22,19.74,1.69,17.94-.5,37.21-2.17,55-.45,4.76,1.78,10.66-1.09,15.93ZM1174.5,993.75l-1.74-68.57c-3.54-4.03-6.71-2.17-7.34,2.15-1.91,13.07,4.23,31.91,1.5,45.44-.71,3.54-4.42,5.83-5.93,9.02l3.78-1.16c-1.19,2.76,2.15,2.28,2.29,3.1.37,2.08-2.72,6.61.08,9.89l7.35.13Z"/>
</svg>