<?xml version="1.0" encoding="UTF-8"?>
<svg id="Layer_1" xmlns="http://www.w3.org/2000/svg" version="1.1" viewBox="0 0 1920 1080">
  <!-- Generator: Adobe Illustrator 29.5.1, SVG Export Plug-In . SVG Version: 2.1.0 Build 141)  -->
  <defs>
    <style>
      .st0 {
        fill: #fff;
      }
    </style>
  </defs>
  <path d="M1493.21,293.46v3.54s-3.33,0-3.33,0c-.42-2.13.52-3.76,3.33-3.54Z"/>
  <polygon points="1564.41 320.07 1562.73 321.82 1561.08 321.83 1561.08 320.06 1564.41 320.07"/>
  <rect x="1574.43" y="345.78" width="2.21" height="1.77"/>
  <rect x="1559.97" y="345.78" width="1.09" height="2.65"/>
  <rect x="1569.98" y="353.76" width="2.21" height=".87"/>
  <rect x="1571.1" y="345.78" width="1.09" height="1.77"/>
  <path d="M1257.75,234.51c.97.4.97.8,0,1.2v-1.2Z"/>
  <path class="st0" d="M1371.16,626.75c-3.18.09-4.33,2.23-2.72-10.1,1.25-9.56,2.81-1.98,3.28-9.08l-3.58-.38,3.28-42.1c-6.48,2.12-5.11,36.98-6.92,41.6l-3.49-.13c-2.56,10.45,6.83,10.32,2.01,17.57-6.86,10.31-7.56-2.61-9.95-2.95-2.13-.3-8.31,17.29-10.28,1.03,8.86-22.55,7.89-6.6,12.1-2.59,4.18,3.98,6.13-9.68,1.56-15.41l4.08-5.47c.42-6.74-1.99-1.19-1.88-11.19.06-5.34,2.36-34.09,3.89-36.89l6.78,3.32-.86,10.9,9.38-10.73-6.68,72.6ZM1362.08,595.05l2.37.22.35-3.75-2.37-.22-.35,3.75Z"/>
  <polygon class="st0" points="1378.55 546.51 1371.92 540.15 1380.3 527.4 1378.55 546.51"/>
  <path class="st0" d="M1361.77,467.91l-.68,7.58,2.16,2.65c-1.01,21.92-5.26,14.2-9.17,8.09l2.26-12.81c.11-4.14-6.81-11.26.71-19.44-3.43-3.15-1.34-10.63-.46-21.24l7.15.68c-.22,13.74-2.12,7.84-3.78,14.99l2.75,4.05-1.46,9.71,3.24,2.16-2.72,3.58Z"/>
  <path class="st0" d="M1351.57,578.75l3.23,4.12-1.06,11.44c-2.89-.6-6.6,2.56-7.79-6.48l4.08-5.45-1.67-7.78,3.76-1.62-3.33-4.5.49-16.93,6.93,1.15-.55,20.19-4.07,5.88Z"/>
  <path class="st0" d="M1359.23,521.58l-6.5,5.22,5.65,2.8-1.27,14.93c-11.29,3.19-6.73-10.54-3.98-35.05.36-1.14,8.71.81,6.09,12.11Z"/>
  <path class="st0" d="M1312.34,362.57l-2.35,2.31,2.03,4.54c-.97,5.57-.54,22.53-3.69,20.32-1.5-5.45.48-16.94-2.76-15.69l2.92-5.43c1.76-10.57-2.13-10.45-1.67-21.34l6.79,4.5-1.28,10.79Z"/>
  <path class="st0" d="M1334.7,357.58l-.53,5.63,1.86,5.95-3.55-.34.36-11.81-6.28-2.14c3.2-8.33,6.18-11.33,8.83-5l1.42-15.31,3.55.36c.34,11.55-1.45,21.22-5.66,22.66Z"/>
  <path class="st0" d="M1338.42,369.37c3.05-11.74,8.25-6.33,11.04-2.75-.44,4.83-5.64,10.97-6.4,10.9-1.76-.16-2.68-8.06-4.65-8.15Z"/>
  <path class="st0" d="M1344.72,342.18c-.86-4.65,1.39-19.43.99-26.02l3.56.31c-.06,9.23-2.15,18.61.09,25.06-1.59,6.6-3.93,4.46-4.63.65Z"/>
  <path class="st0" d="M1348.22,393.37c-1.57-11.06,9.36-13.65,8.12,2.75-1.91,10.86-7.81-.59-8.12-2.75Z"/>
  <path class="st0" d="M1361.79,402.43c10.35,4.04.67,37.82-.77,15.09-.25-4.02,1.29-10.2.77-15.09Z"/>
  <path class="st0" d="M1367.25,395.17c-.45,1.08-7.27-1.02-6.43-8.22,4.23-1.18,3.75-15.88,7.7-6.68l-1.27,14.9Z"/>
  <path class="st0" d="M1370.21,545.72c-.6,1.47-8.7-1.19-6.08-12.08l7.14.65-1.06,11.43Z"/>
  <polygon class="st0" points="1349.97 374.29 1354.25 374.49 1356.04 367.06 1360.33 379.1 1349.97 374.29"/>
  <path class="st0" d="M1365.75,502.93l2.92-18.95c-2.08,11.61,4.44,4.49,2.35,13.63-1.33,5.84-3.6,6.3-5.28,5.33Z"/>
  <path class="st0" d="M1314.32,344.06c-.57,1.2-8.35-.42-7.63-8.36,2.32,2.36,9.92-5.74,7.63,8.36Z"/>
  <path class="st0" d="M1305.18,273.89c3.55-8.05,4.42,24.14,7.21,25.73l-5.63-13.19c-1.22-1.29-2.93-9.48-1.58-12.54Z"/>
  <path class="st0" d="M1335.62,334.46l-5.24-8.16.97,15.45-3.57-.27,2.12-22.94c1.96,4.05,3.03,8.8,6.1,4.41l-.38,11.51Z"/>
  <polygon class="st0" points="1365.89 514.5 1366.59 506.89 1373.37 511.39 1373.02 515.14 1365.89 514.5"/>
  <path class="st0" d="M1316.73,278.81l3.47.49.03,13.34-.73,1.75c-1.16-5.99-4.3-5.66-2.77-15.58Z"/>
  <polygon class="st0" points="1330.94 307.06 1332 295.61 1335.87 305.62 1330.94 307.06"/>
  <polygon class="st0" points="1329.36 376.29 1326.16 372.1 1326.86 364.52 1330.42 364.84 1329.36 376.29"/>
  <path class="st0" d="M1345.18,608.93c-.85-.26-8.03-4.79-4.89-11.98,2.61-5.97,2.88,4.87,3.1,5.6,1.03,3.43,3.52-7.03,1.78,6.38Z"/>
  <polygon class="st0" points="1364.25 375.63 1362.48 375.45 1361.38 367.71 1364.95 368.02 1364.25 375.63"/>
  <polygon class="st0" points="1364.48 529.78 1365.18 522.17 1366.94 522.35 1368.21 528.23 1364.48 529.78"/>
  <path class="st0" d="M1307.41,327.99c1.48-7.2,6.79-4.76,9.02-6.81-1.52,7.78-6.86,6.13-9.02,6.81Z"/>
  <polygon class="st0" points="1297.92 365.69 1296.25 357.86 1298.62 358.06 1297.92 365.69"/>
  <rect class="st0" x="1306.5" y="394.36" width="3.77" height="2.38" transform="translate(794.61 1662.19) rotate(-84.74)"/>
  <polygon class="st0" points="1360.93 633.55 1360.58 637.3 1356.85 638.95 1359.16 633.38 1360.93 633.55"/>
  <path class="st0" d="M1355.2,500.05c-.63,2.44-1.02,2.41-1.19-.11l1.19.11Z"/>
  <path class="st0" d="M1297.4,371.42c-.63,2.44-1.02,2.41-1.19-.11l1.19.11Z"/>
  <path class="st0" d="M1515.1,216.6c.68.56,5.36-1.66,6.81,1.63l-7.21,28.2,2.45-5.84,4.89,2.97c-6.65,7.28-1.19,16.01-5.21,24.11l-9.48.21c-2.39-5.35,6.44-12.09,6.94-14.99.43-2.49-4.18-4.48-4.53-7.49-.51-4.25,3.69-11.5,0-17.47l7.35,2.89-4.9-16.54c3.19-3.39,1.93,1.51,2.89,2.31Z"/>
  <path class="st0" d="M1561.15,226.95c-4.08,8.4,6.63,28.98-9.76,27.3l2.24-18.68c-11.07-3.43-2.19-10.51,7.52-8.62Z"/>
  <path class="st0" d="M1534.2,269.88c5.98,6.85,5.6,7.76,2.51,16.21l-7.35,1.3-.04-16.54,4.88-.97Z"/>
  <path class="st0" d="M1544.04,295.21c-1.6,8.89-4.95,6.12-9.04,8.37-1.76.97.72,4.09-3.17,3.29l-2.46-13.63,14.68,1.96Z"/>
  <path class="st0" d="M1561.14,256.2c.62,5.14-1,10.16-6.1,13.61l-3.66-13.62h9.76Z"/>
  <path class="st0" d="M1514.7,287.38l4.85-5.83-4.85,13.64,7.31-1.94v9.73s-6.11-5.86-6.11-5.86l-6.1,5.86c.93-9.13,5.23-15.89,2.46-25.33l2.45,9.73Z"/>
  <path class="st0" d="M1558.68,287.38l-7.33-4.97c-2.21-3.61,3.46-6.66,6.14-6.68,5.29-.04,2.72,9.17,1.19,11.65Z"/>
  <path class="st0" d="M1539.12,269.84l-8.09-1.95c-8.77-1.72,9.83-16.39,8.09,1.95Z"/>
  <path class="st0" d="M1561.14,302.98c-9.43-.32-10.78-7.71-1.21-9.7l3.6,2.86-2.39,6.84Z"/>
  <path class="st0" d="M1534.24,310.8l-4.87,11.68c2.91-3.05-3.65-13.37,4.87-11.68Z"/>
  <path class="st0" d="M1561.15,326.38h-4.86c-1.51-3.63-1.6-6.1,0-9.73h2.39s2.46,9.73,2.46,9.73Z"/>
  <rect class="st0" x="1495.12" y="267.9" width="4.87" height="7.78"/>
  <polygon class="st0" points="1504.88 308.85 1504.88 314.68 1500.04 314.66 1495.12 310.76 1495.12 308.86 1504.88 308.85"/>
  <path class="st0" d="M1514.7,334.19l4.85-3.88c2.72,8.73-10.01,8.73-7.3,0l2.45,3.88Z"/>
  <path class="st0" d="M1534.24,336.13h-4.87c-.59-3.6-.1-5.67,3.67-7.78l1.2,7.78Z"/>
  <polygon class="st0" points="1519.56 343.95 1517.1 353.68 1514.7 353.68 1514.69 343.95 1519.56 343.95"/>
  <rect class="st0" x="1539.16" y="310.8" width="2.4" height="11.68"/>
  <path class="st0" d="M1458.76,505.61l-3.33,7.86h-6.55c-1.05-4.98,3.86-8.75,9.88-7.86Z"/>
  <path class="st0" d="M1478,236.69c-.65-3.64-.02-6.76,4.85-7.8.65,3.64.02,6.76-4.85,7.8Z"/>
  <path class="st0" d="M1499.97,287.38h-2.4s0-9.73,0-9.73h2.4c1.59,3.63,1.59,6.11,0,9.73Z"/>
  <rect class="st0" x="1541.6" y="277.65" width="4.87" height="5.83"/>
  <polygon class="st0" points="1558.7 340.05 1558.69 347.83 1556.29 347.83 1553.83 340.05 1558.7 340.05"/>
  <polygon class="st0" points="1497.57 349.79 1498.76 342 1502.43 346.84 1497.57 349.79"/>
  <polygon class="st0" points="1482.87 248.41 1480.4 254.23 1478 254.24 1477.99 248.4 1482.87 248.41"/>
  <rect class="st0" x="1480.45" y="213.3" width="2.4" height="7.78"/>
  <polygon class="st0" points="1519.57 322.48 1514.69 322.48 1514.7 316.65 1517.1 316.65 1519.57 322.48"/>
  <rect class="st0" x="1497.56" y="293.25" width="4.87" height="3.88"/>
  <rect class="st0" x="1482.9" y="295.2" width="2.4" height="5.83"/>
  <polygon class="st0" points="1570.93 340.05 1569.73 343.93 1566.05 340.06 1570.93 340.05"/>
  <path class="st0" d="M1539.12,336.13h-2.4c-.59-3.58-.14-5.69,3.67-7.76l-1.27,7.76Z"/>
  <g>
    <path d="M1554.93,288.98c.64,4.5-5.25,4.83-5.83,8.76,5.66-1.93,9.24-8.47,16.06-8.02l-5.83,6.56,8.03-2.18c-.16,7.74-7.9,9.64-2.09,18.16.86.54,6.9-1.87,5.74.45-3.68,4.25-14.3,6.48-14.67,12.4-.1,1.65,1.69,7.65-1.03,7.68-2.35.02-.6-6.99-4.99-5.86l-4.1,6.98c6.46,9.34,11.74,19.39,17.62,29.07.91,1.5,5.45,6.77,5.64,7.59.34,1.54-1.49,2.4-1.4,4.15.08,1.66,2.34,3.96,1.48,6.27-4.32.56-4.09-6.15-8.03-6.56l1.46,4.37-3.65-.71,2.18,4.37-6.08-1.35-1.57,3.54c-1.65-.85-6.44-10.88-8.4-9.48-3.17,5.53,4.18,20.28-.32,24.18-1.73,1.4-3.94-.63-4.47-2.23-1.68-5.07,4.39-17.68,3.05-24.17-.43-2.07-11.74-17.54-13.25-17.54-4.08,3.33-5.18,10.51-7.29,15.37-.81,1.87-3.35,4.37-3.7,5.82-.4,1.66,1.2,5.16.31,6.5-.29.44-2.83.62-3.72,1.02-4.75,2.14-2.55.8-6.59,1.38-1.24.18-5.79,3.48-6.39,2.8-2.54-10.39,5.12-19.01,7.29-28.47-1.63-.15-2.8,1.5-3.48,2.72-1.48,2.66-5.2,16.16-6.02,16.99-1.06,1.06-1.32-.09-1.45-1.08-1.19-8.83,15.8-29.75,14.61-31.04-2.47.53-4.94,4.26-6.44,6.33-3.8,5.24-7.55,15.38-11.42,19.25-2.14,2.14-4.37,3.32-5.48-.37,1.1-7.61,9.52-12.05,12.55-17.39,1.54-2.71,2.14-6.52,3.6-9.54,2.67-5.52,5.57-10.92,8.5-16.3l-13.59-24.89.59-2.75,5.13-1.08-2.92-6.56c3.32.43,4.85-1.7,7.09-3.57l1.69.24c5.02,6.75,10.13,13.62,17.05,18.6,4.62-4.53,9.04-9.64,14-13.8,1.4-1.17,9.31-7.85,10.56-6.59Z"/>
    <path d="M1545.98,403.82c1.93,1.96,1.17,6.81-2.36,7.18-9.24.97-2.16-11.77,2.36-7.18Z"/>
  </g>
  <rect class="st0" x="1539.16" y="342" width="2.4" height="5.83"/>
  <rect class="st0" x="1480.45" y="308.85" width="2.4" height="5.83"/>
  <rect class="st0" x="1480.45" y="334.2" width="2.4" height="5.83"/>
  <rect class="st0" x="1485.34" y="256.2" width="2.4" height="3.88"/>
  <rect class="st0" x="1497.57" y="322.5" width="2.4" height="3.88"/>
  <path class="st0" d="M1474.31,213.29c1.59.65,1.59,1.3,0,1.95v-1.95Z"/>
  <path class="st0" d="M1506.59,502.96c2.14.88,2.14,1.75,0,2.63v-2.63Z"/>
  <path class="st0" d="M1493.88,334.19c1.59.65,1.59,1.3,0,1.95v-1.95Z"/>
  <path class="st0" d="M1481.65,320.54c1.59.65,1.59,1.3,0,1.95v-1.95Z"/>
  <path class="st0" d="M1537.92,306.89c1.59.65,1.59,1.3,0,1.95v-1.95Z"/>
  <path class="st0" d="M1484.1,262.04c1.59.65,1.59,1.3,0,1.95v-1.95Z"/>
  <path class="st0" d="M1499.09,594.64l-4.78-.45-3.37,49.8-9.53-.87c1.04-9.88,2.19-14.33-.81-17.42l2.91-5.47c-2.01.32-2.3.17-1.92-5.84.96-15.16,3.62-4.54,4.03-17.12l-2.02-4.01,12.2-10.2,1.8-11.66c-5.35,6.15-12.73,6.91-11.45-12.82-2.71,2.43-6.33-.44-8.41.22-.64.2-1.18,10.52-5.23,6.46-.74-.74.03-6.97-.82-7.78-4-3.76-11.42,1.05-14.89,13.95,3.03,11.24,6.87,6,10.82,12.65l1.1-11.16,5.92.24-3.27,9.32,1.32,2.17-.16,11.4c-3.88-4.54-9.23-1.24-12.88-6.13-8.88-11.9-.47-39.22.17-64.36l1.12,8.02,6.86-3.43-1.79,11.47c.12.81,4.17,9.28,4.72,9.88,2.05,2.24,3.75-2,5.39-1.36,1.82.72,2.33,7.98,3.92,7.44,1.55-.53,7.32-11.3,10.06-10.46,3.58-13.92-.3-20.05-.27-21.39.07-3.8,2.57-30.27,2.98-31.56l9.72-1.67c2.07,11.17-.88,26.91-1.14,38.13-.07,2.99,1.94,2.37,1.89,5.32-.25,14.9-4.54,41.15-4.18,58.69ZM1499.72,548.45c1.9-11.43-1.6-7.37-2.95-11.58-.87-2.73.75-9.22-1.24-8.04-1.91,12.35.91,18.83,4.18,19.62ZM1498.82,558.05l-1.25-5.86-.73,1.76,1.25,5.86.73-1.76ZM1498.49,509.83c.75-1.32,2.56,3.29,2.72-3.58-5.19-5.33-7.05,20.35-1.4,15.22.98-4.84-4.82-5.44-1.32-11.64ZM1493.55,563.31l.71-7.62-3.56-.31-.34,3.75,3.2,4.19ZM1487.76,626.36l-1.19-.11c.17,2.52.57,2.55,1.19.11ZM1462.29,550.8l-1.19-.11c.17,2.52.57,2.55,1.19.11Z"/>
  <path class="st0" d="M1456.19,656.28l-.53,5.63,1.86,5.95-3.55-.34.36-11.81-6.28-2.14c3.2-8.33,6.18-11.33,8.83-5l1.42-15.31,3.55.36c.34,11.55-1.45,21.22-5.66,22.66Z"/>
  <path class="st0" d="M1459.91,668.07c3.05-11.74,8.25-6.33,11.04-2.75-.44,4.83-5.64,10.97-6.4,10.9-1.76-.16-2.68-8.06-4.65-8.15Z"/>
  <path class="st0" d="M1466.22,640.87c-.86-4.65,1.39-19.43.99-26.02l3.56.31c-.06,9.23-2.15,18.61.09,25.06-1.59,6.6-3.93,4.46-4.63.65Z"/>
  <path class="st0" d="M1498.91,648.58c-1-2.01-3.72-23.74-2.29-27.17,4.29-10.27,3.57,19.83,2.29,27.17Z"/>
  <polygon class="st0" points="1471.47 672.98 1475.74 673.18 1477.53 665.75 1481.82 677.8 1471.47 672.98"/>
  <path class="st0" d="M1435.81,642.75c-.57,1.2-8.35-.42-7.63-8.36,2.32,2.36,9.92-5.74,7.63,8.36Z"/>
  <path class="st0" d="M1457.11,633.15l-5.24-8.16.97,15.45-3.57-.27,2.12-22.94c1.96,4.05,3.03,8.8,6.1,4.41l-.38,11.51Z"/>
  <path class="st0" d="M1438.23,577.51l3.47.49.03,13.34-.73,1.75c-1.16-5.99-4.3-5.66-2.77-15.58Z"/>
  <polygon class="st0" points="1452.43 605.75 1453.49 594.31 1457.36 604.31 1452.43 605.75"/>
  <polygon class="st0" points="1450.85 674.98 1447.65 670.79 1448.35 663.21 1451.91 663.54 1450.85 674.98"/>
  <polygon class="st0" points="1485.74 674.32 1483.98 674.14 1482.87 666.4 1486.44 666.71 1485.74 674.32"/>
  <path class="st0" d="M1428.9,626.69c1.48-7.2,6.79-4.76,9.02-6.81-1.52,7.78-6.86,6.13-9.02,6.81Z"/>
  <path class="st0" d="M1573.55,328.97l-4.78-.45-3.37,49.8-9.53-.87c1.04-9.88,2.19-14.33-.81-17.42l2.91-5.47c-2.01.32-2.3.17-1.92-5.84.96-15.16,3.62-4.54,4.03-17.12l-2.02-4.01,12.2-10.2,1.8-11.66c-5.35,6.15-12.73,6.91-11.45-12.82-2.71,2.43-6.33-.44-8.41.22-.64.2-1.18,10.52-5.23,6.46-.74-.74.03-6.97-.82-7.78-4-3.76-11.42,1.05-14.89,13.95,3.03,11.24,6.87,6,10.82,12.65l1.1-11.16,5.92.24-3.27,9.32,1.32,2.17-.16,11.4c-3.88-4.54-9.23-1.24-12.88-6.13-8.88-11.9-.47-39.22.17-64.36l1.12,8.02,6.86-3.43-1.79,11.47c.12.81,4.17,9.28,4.72,9.88,2.05,2.24,3.75-2,5.39-1.36,1.82.72,2.33,7.98,3.92,7.44,1.55-.53,7.32-11.3,10.06-10.46,3.58-13.92-.3-20.05-.27-21.39.07-3.8,2.57-30.27,2.98-31.56l9.72-1.67c2.07,11.17-.88,26.91-1.14,38.13-.07,2.99,1.94,2.37,1.89,5.32-.25,14.9-4.54,41.15-4.18,58.69ZM1574.18,282.79c1.9-11.43-1.6-7.37-2.95-11.58-.87-2.73.75-9.22-1.24-8.04-1.91,12.35.91,18.83,4.18,19.62ZM1573.28,292.39l-1.25-5.86-.73,1.76,1.25,5.86.73-1.76ZM1572.94,244.17c.75-1.32,2.56,3.29,2.72-3.58-5.19-5.33-7.05,20.35-1.4,15.22.98-4.84-4.82-5.44-1.32-11.64ZM1568.01,297.65l.71-7.62-3.56-.31-.34,3.75,3.2,4.19ZM1562.22,360.7l-1.19-.11c.17,2.52.57,2.55,1.19.11ZM1536.75,285.14l-1.19-.11c.17,2.52.57,2.55,1.19.11Z"/>
  <path class="st0" d="M1525.03,451.68c-.14-.57-.83.35-1.19-.11-.02-14.09-2.04-10.29-6.04-12.25.51-7.8,1.33-22.73,4.96-22.47.48.03,3.79,3.65,3.88,4.19,1.82,10.55-5.38,3.76-4.78,12.96.33,5.08,4.47,7.47,3.17,17.67Z"/>
  <path class="st0" d="M1530.65,390.61l-.53,5.63,1.86,5.95-3.55-.34.36-11.81-6.28-2.14c3.2-8.33,6.18-11.33,8.83-5l1.42-15.31,3.55.36c.34,11.55-1.45,21.22-5.66,22.66Z"/>
  <path class="st0" d="M1534.37,402.4c3.05-11.74,8.25-6.33,11.04-2.75-.44,4.83-5.64,10.97-6.4,10.9-1.76-.16-2.68-8.06-4.65-8.15Z"/>
  <path class="st0" d="M1540.68,375.21c-.86-4.65,1.39-19.43.99-26.02l3.56.31c-.06,9.23-2.15,18.61.09,25.06-1.59,6.6-3.93,4.46-4.63.65Z"/>
  <path class="st0" d="M1544.17,426.4c-1.57-11.06,9.36-13.65,8.12,2.75-1.91,10.86-7.81-.59-8.12-2.75Z"/>
  <path class="st0" d="M1563.2,428.2c-.45,1.08-7.27-1.02-6.43-8.22,4.23-1.18,3.75-15.88,7.7-6.68l-1.27,14.9Z"/>
  <path class="st0" d="M1573.37,382.92c-1-2.01-3.72-23.74-2.29-27.17,4.29-10.27,3.57,19.83,2.29,27.17Z"/>
  <polygon class="st0" points="1545.93 407.32 1550.2 407.52 1551.99 400.09 1556.28 412.14 1545.93 407.32"/>
  <path class="st0" d="M1574.49,410.02l2.03,4.02c-1.85,19.03-4.87-.22-2.51-11.8-5.09,5.16-4.86,8.2-9.51,3.47-1.91-1.94-3.6,2.48-2.03-8.37,5.44,7.63,11.14-4.61,14.76,9.1l-2.72,3.58Z"/>
  <path class="st0" d="M1510.27,377.09c-.57,1.2-8.35-.42-7.63-8.36,2.32,2.36,9.92-5.74,7.63,8.36Z"/>
  <path class="st0" d="M1531.57,367.49l-5.24-8.16.97,15.45-3.57-.27,2.12-22.94c1.96,4.05,3.03,8.8,6.1,4.41l-.38,11.51Z"/>
  <path class="st0" d="M1512.68,311.84l3.47.49.03,13.34-.73,1.75c-1.16-5.99-4.3-5.66-2.77-15.58Z"/>
  <polygon class="st0" points="1526.89 340.09 1527.95 328.64 1531.82 338.65 1526.89 340.09"/>
  <polygon class="st0" points="1525.31 409.32 1522.11 405.13 1522.81 397.55 1526.37 397.87 1525.31 409.32"/>
  <polygon class="st0" points="1560.2 408.66 1558.43 408.48 1557.33 400.74 1560.9 401.05 1560.2 408.66"/>
  <path class="st0" d="M1503.36,361.03c1.48-7.2,6.79-4.76,9.02-6.81-1.52,7.78-6.86,6.13-9.02,6.81Z"/>
  <path class="st0" d="M1398.18,469.64c1.31-.18,13.97,2.4,15.62,3.84,4.93,4.34-11.76-1.74-15.62-3.84Z"/>
</svg>