<?xml version="1.0" encoding="UTF-8"?>
<svg id="Layer_1" xmlns="http://www.w3.org/2000/svg" version="1.1" viewBox="0 0 1920 1080">
  <!-- Generator: Adobe Illustrator 29.5.1, SVG Export Plug-In . SVG Version: 2.1.0 Build 141)  -->
  <defs>
    <style>
      .st0 {
        fill: #fff;
      }
    </style>
  </defs>
  <path d="M1192.5-2.23l3.01,7.17,1.49-2.38h2.97s2.28,3.56,2.28,3.56l-.76-8.35h1.5l1.51,7.17,3.72-2.39v3.57s3.02-3.6,3.02-3.6h3s1.49,2.44,1.49,2.44l2.24-2.4.02,2.4h1.47c.16-4.9,11.24-1.61,15.75-3.61l.78,3.6,2.32-3.61c4.78.27,5.31.9,8.16,3.61.08.37,1.44.89,1.5,1.2.21,1.12-.12,2.42-.01,3.58-2.5.52-.71-2.08-2.37-2.43-5.62-1.19-5.37,2.36-5.85,2.46h-3.03s-.86-2.27-.86-2.27l-2.85-.14c-.15,5.18-8.67,4.43-9.04,0-3.07-.1.23,3.15-3.72,2.39-1.4-.27-.52-1.4-.83-2.32l-2.9-.08c-.19,4.83-3.96,2.02-5.97,2.99-2.49,1.2-7.24,5.97-2.35,7.62,2.54-1.07,5.83-.59,5.32-3.43l2.97-.02.02,2.38,2.97-2.38,3.77,4.75,2.31-4.74,4.21.25.98,2.13c2.48-5.25,2.77-2.03,4.88-.03,1.31,1.24,6.4,2.08,1.88,5.38l-6.7.65-.82-3.62-2.38,2.43c-3.97.26-4.7.42-5.85-2.45-1.44,0,.77,3.23-4.51,2.43l-1.49-2.43c-1.17-.12-1.14,4.84-5.99,3.6l-3.73-3.58c-.02,4.09-5.6,2.48-6.78,5.99-9.35-8.1-.71-5.96,2.2-9.11,1.81-1.97-.02-4.27.04-6.44l-3,3.58c-2.78.42-.48-1.99-2.25-2.39-3.47-.78-1.83,2.09-2.28,2.35-2.96,1.72-2.76-1.56-3.44-1.98-1.07-.66-3.22-.13-3.79-.52-.89-.61.05-2.53-.24-3.43-.65.86-1.71,1.56-2.33,3.66l-6.58-.16-1.57-3.5c.06,4.22-1.65,5.86-6.01,7.78l4.5,1.79-3.02,8.37-3.75-3.6-5.23,3.59-.02-7.17,5.81-.15,3.2-7.01-5.34-.95-3.64,3.33-1.51-7.16c6.42,1.77,6.25.27,9.74-3.6,1.48,3.06,4.07,3.74,8.25,3.6l.12-3.47,4.98-.18c1.54.3,2.04,3.66,2.41,4.84.27-.36,2.49-.59,2.54-3.13.06-3.01-3.19-4.7,1.96-6.43h1.5ZM1242.75,4.94v1.2c.97-.4.97-.8,0-1.2ZM1172.99,9.72v-2.38h-1.47v2.38h1.47Z"/>
  <polygon points="1186.5 -2.23 1185.31 -1.38 1183.5 -2.23 1186.5 -2.23"/>
  <path d="M1168.5,58.75c4.98-1.14,5.54-4.47,5.99-8.36l-2.97.57-1.51,3.01c-.95-4.79-1.78-9.87-9.03-8.38v-3.58c6.36,1.97,7.79-2.31,8.27-2.42,6.18-1.42,3.9,5.49,6,6.01,3.63.51,2.61-4.33,3.75-5.98l5.24,3.56,2.26-3.57,2.37,2.43c3.34.13,5.7.6,5.12-2.43h1.47c.58.6-1.43,3.05,2.25,2.39,1.6-.29-.58-3.49,3.75-2.4l-1.5,7.17-5.98-1.21-1.71,5.86h-3.61s-.72-3.46-.72-3.46l-2.24,2.4-3.74-2.4c-.48.43,2.32,4.94,2.99,5.97l-5.99,2.39v-4.77s-2.92,3.15-2.92,3.15l.64,5.19,5.25-1.17-1.48,7.17c.98.07,2.01-.08,2.99,0-.03,1.13,1.49,2.24,1.5,2.39.05,1.28-3.66,9.45-4.17,11.61-.57,2.41,1.27,8.02-2.57,7.51-1.67-1.28-6.24-6.53-7.8-7.17-5.47-2.27-9.45,1.1-7.97-5.96,3.86.1,5.71.87,6.75-2.42.49,1.3,8.8,9.22,11.24,7.18l-9.01-19.12-1.49,5.97-6.02-4.21.03-2.96c.93-.18,2.3.2,3,0,.15.46-.19.97.75,1.17.95,0,.67-1.16.75-1.17ZM1181.25,67.12v1.2c.97-.4.97-.8,0-1.2Z"/>
  <path d="M1167,58.75c-.77-2.43.74-4.53-4.49-4.8l2.23-2.38,5.18,4.16-1.42,3.02c-.16.18-1.02-.14-1.5,0Z"/>
  <path d="M1185,53.97c.95,1.46,3.01,3.03,3.76,4.79l2.24-4.8,5.99.02-1.51,11.94-4.48-2.38-1.5,10.75,2.97-2.38v4.78s-4.48-1.19-4.48-1.19v3.58s5.77-.19,5.77-.19l3.23-6.98c3.83.73,2.29,5.15,1.47,7.16v-3s-2.97-.58-2.97-.58l-1.53,10.76c-4.39-.86,3.82-7.11-2.98-5.97l-.02,10.75-1.5-3.58-2.88,3.49c1.73.45,6.06,3.04,6.97,3.96.29.29-.93,1.45-.61,1.82,6.39,7.26,5.93-1.34,7.17-2.01l11.86-.08-4.51,4.77c-2.52.34-1.23-1.49-1.46-2.74-.6-3.3-7.64,1.35-7.54,3.93,2.86-.26,5.08-.21,4.53,2.39,2.34.51.98-1.46,1.91-1.95,8.35-4.4,9.15.69,4.59,5.6h-8.58s-1.69-2.45-1.69-2.45l-1.7,2.44-26.04,1.16,1.03-3.56,7.78-1.37c.76-2.02-.37-4.23.19-6.24.25-.89,2.62-.62,2.94-1.62,1.01-3.15.54-7.83.06-11.12l4.48,2.38,1.5-5.96-4.48,2.38c-1.92-3.55,2.76-6.77,2.9-8.92.17-2.47-2.86-5-2.91-5.42s1.64-1.5,1.5-2.38c-.98-.08-2.02.08-3-.01.1-4.26.93-7.81,1.5-11.96ZM1187.99,97v-4.77s-1.48,0-1.48,0l-1.51,4.77h2.99ZM1182.01,97.01v1.77s2.25,1.79,2.25,1.79l-.78-3.56h-1.47ZM1191.75,99.4v1.2c.97-.4.97-.8,0-1.2Z"/>
  <path d="M1240.72,74.02l7.27-2.13v3.61s2.99-1.22,2.99-1.22l.09,4.12-7.56,1.9,2.97,8.33-4.51-.69c-.75-2.49,2.48-8.65-2.96-7.67l-1.51,11.96c5.16-3.06,3.61,2.95,0,3.58-.42-6.17-6.5-10.06-4.53-16.74l-3,4.78-4.47-3.58-1.53,5.96-4.56-5.27c.6-2.7,2.6-5.31,6-6.18,4.84-1.24,13.34,2.17,13.59-2.88l1.7,2.11Z"/>
  <path d="M1235.66,27.94c1.34,1.1,2.74,5.75-.61,6.65s-19.1-2.01-24.55.24l3.02-9.56c4.74,3.55,18.65-.18,22.14,2.67Z"/>
  <path d="M1174.51,31.25c2.88.08,6.35-1.02,6.01-3.58l4.47,3.58.83-3.66,8.18.08-1.5,7.17c-2.63.08-4.93-1.13-7.6-.71-2.22.35-7.57,8.02-7.4-.5-7.48,8.28-9.19.94-10.47-5.95l6.04-.73,1.45,4.3ZM1172.99,33.63v-2.38h-1.47v2.38h1.47Z"/>
  <path d="M1206,56.36c4.89-3.02,5.37,1.23,8.26,3.57.96-1.1-1.05-2.48-.84-3.99.12-.86,2.34-.66,3.03-1.68,1.86-2.73-1.83-6.31,2.28-6.27,1.36.01,7.15,10.6,9.01,3.58l2.24,2.4,3.01-3.58-.75,5.97c5.76-5.44,2.89-12.37,6.17-18l6.59.07c.62,4.14-1.38,7.87-1.51,11.96.78.22,2.39-.41,3.02.58l-3.01,3c-.01-1.19-.05-2.39-.01-3.58-3.96-1.14-2.21-2.63-5.99-2.39l1.49,11.95-5.98-3.58c.45,4.5,0,9.07-5.22,11.66l-3.66-1.03-.14-7.05-2.97,2.38-1.53-3.01,3.1-1.24-1.59-6.52c-3.7-.38-2.36.05-3.14,1.67-2.29,4.79-.88,7.94.14,12.68l-6-4.41-2.98-5.15c-.17,2.57.2,5.21-.01,7.78-.2,2.39,1.19,3.45-2.99,2.97l1.51-6.45c-.02-.9-2.28-1.22-3.01-1.92,2.09.07,1.31-1.29,1.5-2.39ZM1228.49,62.33v-2.38h-1.47v2.38h1.47Z"/>
  <path d="M1204.5,58.75c-5.64-5.4-3.22-3.85-1.49-10.75l2.24,2.4,2.24-2.4c-.63,2.77-1,5.58-1.49,8.36-.11.07-1.08-.22-1.49.61v1.78Z"/>
  <path d="M1233,38.43c-1.63,4.37,2.77,9.5-5.27,9.36l-1.47-2.19-5.26,2.38-.08-1.84c-5.85,1.45-4.39-4.47-4.41-7.71h16.49ZM1225.49,43.2v-3.58h-1.47v3.58h1.47Z"/>
  <path d="M1215,39.62c-.04,1.86-1.54,3.47-1.54,5.36,0,2.48,3.54,7.5-1.44,8.97-2.2-3.9-1.8-7.3-7.62-7.82l.1-6.52h10.5Z"/>
  <path d="M1158,88.64c-1.48-.11-3.02.1-4.51.01l-.03-4.77c-13.31-.32-10.81-12.08,3.03-8.39l-4.5,6.53c5,2.09,4.46,3.04,6,6.61,1.19.09,2.44-.11,3.64-.08l.87,3.67,4.47-3.58.02,5.97c4.24,1.1,3-2.91,5.24-3.58,3.48-1.04,4.41.4,3.78,2.99-.12.5-6.63,2.89-7.98,2.71s-9.09-3.91-9.59-4.86c-.79-1.49-.2-2.64-.46-3.24Z"/>
  <path d="M1218,68.32l-2.98,7.16,4.48-.6c-3.28,3.99-3.89,5.01-10.5,4.19l.02-3.59,2.98,1.21v-9.56s6.01,1.2,6.01,1.2Z"/>
  <path d="M1212,86.25c.89,1.89,2.42,3.21,1.49,5.98-2.73-.46-3.27-2.8-2.99-4.78l1.5-1.2Z"/>
  <path d="M1212,86.25l-1.5,1.2h-5.14s-1.61,3.6-1.61,3.6l-2.24-3.59c-.31,2.12-1.53,6.47-4.5,7.16,1.23-1.69,1.11-7.7,1.74-8.22.46-.38,2.67.14,3.77-.5.98-.57-.39-2.98,3.47-2.03l1.48,2.38,2.27-3.56c2.17.91,1.67,2.34,2.25,3.57Z"/>
  <path d="M1185,21.68l-.76-8.35,2.28,5.96,5.98-2.39c.18,4.3,3.02,9.55-4.49,8.37l-.12-3.48c-.89-.51-2.33.09-2.88-.11l1.49,3.58c-3.09.11.23-3.15-3.73-2.39-1.47.28.3,3.56-3.74,2.4l-1.51-8.36c5.76-1.1,5.25,3.97,7.49,4.78Z"/>
  <path d="M1244.82,33.49l-5.81.15c-1.17-4.82,1.8-10.34,7.34-5.28l-1.52,5.13Z"/>
  <path d="M1207.49,26.47l-1.14,4.57c3.31.33,2.85,1.42,2.64,3.79h-5.99c1.02-2.03-.38-9.23,4.49-8.36Z"/>
  <polygon points="1199.99 34.84 1195.51 34.84 1197.75 26.49 1199.99 34.84"/>
  <path d="M1228.49,86.25c2.1,2.29-5.33,11.55-7.49,9.55-1.98-1.84.93-3.01,1.96-3.88,3.88-3.29.77-6.05,5.53-5.67Z"/>
  <polygon points="1153.28 43.39 1153.49 47.98 1147.72 46.61 1147.51 42.01 1153.28 43.39"/>
  <path d="M1258.48,80.28c-4.77-1.19-5.12-1.89-4.47-5.98l7.47.59-2.99,5.4Z"/>
  <path d="M1198.5,68.31c-2.24-2.9-1.05-7.95,2.99-9.57l2.99,4.15c-1.72.49-.85,2.8-2.24,3.03-4.01.64-.71-2.71-3.72-2.39l2.97,7.16-2.99-2.38v2.38s-2.99,0-2.99,0v-2.38s2.99,0,2.99,0Z"/>
  <rect x="1141.51" y="68.32" width="2.99" height="5.97"/>
  <polygon points="1195.48 91.03 1192.51 91.02 1192.47 88.03 1196.99 86.25 1195.48 91.03"/>
  <path d="M1216.49,99.4c-5.7.98-1.09-4.43-.81-7,.23-2.05-1.03-4.08-.68-6.15,6.31,2.45-.15,8.83,1.48,13.15Z"/>
  <path d="M1244.99,95.81h-2.99s0-4.78,0-4.78c2.99.64,3.36,2.55,2.98,4.78Z"/>
  <path d="M1145.99,99.39h-4.49c.03-4.39,4.46-4.39,4.49,0Z"/>
  <path d="M1147.5,25.28c-.07.87-1.58,8.44-4.49,5.97-2.42-2.05,1.79-3.32,2.07-3.6,1.3-1.34-2.86-2.86,2.42-2.36Z"/>
  <polygon points="1224 87.45 1222.48 91.02 1221.02 91.02 1219.51 86.25 1224 87.45"/>
  <path d="M1157.99,106.57h-2.98s-1.52-3.57-1.52-3.57c2.74-.4,4.97,1.31,4.49,3.57Z"/>
  <path d="M1150.81,56.13c.58.57,6.83.37-.3,3.81-.07-2.39-2.92-7.24,1.48-8.36l-1.18,4.55Z"/>
  <polygon points="1222.49 63.54 1221.76 67.11 1219.51 65.31 1219.51 63.54 1222.49 63.54"/>
  <polygon points="1247.99 104.18 1245 104.17 1246.52 100.6 1247.99 100.6 1247.99 104.18"/>
  <polygon points="1157.99 33.64 1157.99 37.22 1156.52 37.22 1155 33.65 1157.99 33.64"/>
  <rect x="1243.51" y="56.36" width="2.99" height="2.38"/>
  <polygon points="1228.49 104.18 1225.5 104.17 1227.02 100.6 1228.49 100.6 1228.49 104.18"/>
  <rect x="1164.01" y="33.64" width="1.47" height="3.58"/>
  <rect x="1144.51" y="59.95" width="1.47" height="3.58"/>
  <rect x="1156.51" y="46.8" width="1.47" height="3.58"/>
  <polygon points="1150.49 65.93 1149.76 68.31 1147.5 65.93 1150.49 65.93"/>
  <rect x="1234.51" y="62.34" width="1.47" height="3.58"/>
  <rect x="1206.01" y="76.69" width="1.47" height="2.38"/>
  <rect x="1195.51" y="47.99" width="1.47" height="2.38"/>
  <polygon points="1235.99 106.57 1234.51 106.57 1234.51 104.8 1236.76 103.01 1235.99 106.57"/>
  <rect x="1146.01" y="53.97" width="1.47" height="2.38"/>
  <polygon points="1156.51 7.34 1157.99 7.34 1158.76 10.9 1156.51 9.11 1156.51 7.34"/>
  <path d="M1151.25,62.33c.97.4.97.8,0,1.2v-1.2Z"/>
  <path d="M1244.25,62.33c.97.4.97.8,0,1.2v-1.2Z"/>
  <path d="M759.75,25.27c.97.4.97.8,0,1.2v-1.2Z"/>
  <path d="M1164.75,65.92c.97.4.97.8,0,1.2v-1.2Z"/>
  <path d="M1169.25,67.12c.97.4.97.8,0,1.2v-1.2Z"/>
  <path d="M1218.75,102.99c.97.4.97.8,0,1.2v-1.2Z"/>
  <path d="M1161.75,33.64c.97.4.97.8,0,1.2v-1.2Z"/>
  <path d="M761.25,38.42c.97.4.97.8,0,1.2v-1.2Z"/>
  <polygon points="116.99 937.55 116.99 939.33 114.01 941.13 114.01 937.55 116.99 937.55"/>
  <path d="M103.49,1006.9c.35,2.2.08,3.48-2.24,4.76l-2.22-1.77,1.48-2.98h2.98Z"/>
  <path d="M1377.2,5.8c.97.4.97.8,0,1.2v-1.2Z"/>
  <path class="st0" d="M1424.63,45.18c3.55-8.05,4.42,24.14,7.21,25.73l-5.63-13.19c-1.22-1.29-2.93-9.48-1.58-12.54Z"/>
  <path class="st0" d="M1436.18,50.1l3.47.49.03,13.34-.73,1.75c-1.16-5.99-4.3-5.66-2.77-15.58Z"/>
  <path class="st0" d="M1426.85,99.28c1.48-7.2,6.79-4.76,9.02-6.81-1.52,7.78-6.86,6.13-9.02,6.81Z"/>
</svg>