<?xml version="1.0" encoding="UTF-8"?>
<svg id="Layer_1" xmlns="http://www.w3.org/2000/svg" version="1.1" viewBox="0 0 1920 1080">
  <!-- Generator: Adobe Illustrator 29.5.1, SVG Export Plug-In . SVG Version: 2.1.0 Build 141)  -->
  <path d="M792-2.23l-.98.97c-3.3.47-6.73.47-10.03,0l-.98-.97h12Z"/>
  <polygon points="772.5 -2.23 770.24 1.36 768.01 1.35 768 -2.23 772.5 -2.23"/>
  <path d="M801-2.23c-1.86,1.68-4.22,1.68-6,0h6Z"/>
  <path d="M807-2.23c-1.48,1.51-2.97,1.44-4.5,0h4.5Z"/>
  <path d="M859.5-2.23h1.5-1.5Z"/>
  <path d="M808.5,10.92c.07-.07-.28-.86.76-1.19h2.23s-1.49,3.58-1.49,3.58c-.14-1.21.53-2.46-1.5-2.39Z"/>
  <path d="M810,13.31c.18,1.57-.14,3.21.01,4.79l2.98-1.21c.91,4.34-.32,4.6-4.47,6.59l-.05,2.4,3.05,1.16c-4.5,1.88-.61,15.77-1.54,16.15-.64.26-2.83-.45-4.06.35-1.02.66.5,2.53-1.9,2.05v-11.96s2.96.62,2.96.62l-4.3-7.24c9.88-3.5-.44-6.88-.17-12.5,5.27.95,3.87-1.56,6-3.59l1.5,2.39ZM806.99,42v-2.38h-1.47v2.38h1.47Z"/>
  <path d="M844.48,62.33c-1.7,1.12-5.93-3.06-6.07-4.11-.67-5.07,3.25-1.85,4.67-3.83l-.1-12.38-4.47,3.58c-.86-3.3-4.67-9.44,2.97-5.96l1.51-5.98c-2.98-.05-5.34.95-4.51-2.39l3.74-4.76c5.85,3.29,2.26,6.97,2.53,10.14.73,8.59,3.56,17.18-.29,25.7Z"/>
  <path d="M795.26,18.93c.41.34,3.29-1.02,4.17,1l-4.42,17.29,1.5-3.58,3,1.82c-4.08,4.47-.73,9.82-3.2,14.78l-5.81.13c-1.47-3.28,3.95-7.41,4.26-9.19.26-1.53-2.56-2.75-2.78-4.59-.31-2.6,2.27-7.05,0-10.71l4.51,1.77-3.01-10.14c1.96-2.08,1.18.93,1.77,1.41Z"/>
  <path d="M845.99,1.36c-3.47,6.98,2.03,14.34,1.2,20.61-.46,3.46-3.52,5.44-4.94.89l-2.23,2.4-1.52-5.97h4.51c.69-2.18-2.43-3.63-2.46-5.35-.06-2.45,3.78-5.47.95-9l-4.48,1.2-.02-3.58,9-1.2Z"/>
  <path d="M823.49,25.27c-2.5,5.15,4.07,17.77-5.99,16.74l1.38-11.46c-6.79-2.1-1.34-6.44,4.61-5.28Z"/>
  <path d="M784.76,33.47c.2.23,2.44.02,2.76.91,1.4,3.84-1.54,5.06-6.02,5.23l.27-9,2.77-1.17-3.07-4.76,6.01-10.17c-2.15,4.52.41,10.8-.49,14.73-.31,1.34-3.46,2.77-2.24,4.22Z"/>
  <path d="M845.99,97.01l-7.46-1.78c1.25-1.7,3.29-3.26,4.18-5.08.96-1.96-3.29-4.89,1.78-2.7-.72-3.99-2.34-6.8.03-10.75,2.09-.36,2.43,3.42,2.43,4.37,0,5.1-2.76,10.55-.95,15.94Z"/>
  <path d="M828,1.36l5.96,1.3v4.11s-2.95-.63-2.95-.63c-.37,3.56,1.07,6.72.22,10.29-.54,2.25.89,3.38-3.23,2.86V1.36Z"/>
  <path d="M829.5,39.62c.32.87-.75,2.4.75,2.4l.75-2.4c0,.21,2.64,2.6,1.6,4.07l-2.34,10.29c-1.81,0-3.45-13.09-.76-14.35Z"/>
  <path d="M829.5,39.62c-2.11-5.8-1.58-10.73-1.49-16.75,7.38-1.37,4.86,4.39,1.49,7.8,6.23,1.31,1.59,5.58,1.51,8.94h-1.5Z"/>
  <path d="M823.49,14.5l-.12,7.07c-2.61,1.02-4.68.74-7.35.09l1.69-6.98,5.78-.18Z"/>
  <path d="M806.97,51.6c3.67,4.2,3.43,4.76,1.54,9.94l-4.51.8-.03-10.14,2.99-.6Z"/>
  <path d="M811.49,7.33l-4.47-2.39-1.53,5.97c-6.45-3.15-.89-12.01,6.78-8.38l-.78,4.79Z"/>
  <path d="M786,4.95l-.48,7.55-4,6.79,1.54-7.69c-4.46-1.16-3.08-3.27-3.04-6.66h5.99Z"/>
  <path d="M813.01,67.13c-.98,5.45-3.04,3.75-5.55,5.13-1.08.59.44,2.51-1.95,2.02l-1.51-8.36,9,1.2Z"/>
  <path d="M823.49,43.21c.38,3.15-.61,6.23-3.74,8.34l-2.24-8.35h5.99Z"/>
  <path d="M820.5,7.33c-1.53,2.1-1.11,4.23-4.49,3.58V2.56s7.49,0,7.49,0c.45,2.12-1.79,3.13-2.99,4.78h2.99s0,3.58,0,3.58h-2.99s0-3.58,0-3.58Z"/>
  <path d="M795.01,62.33l2.97-3.58-2.97,8.36,4.48-1.19v5.96s-3.75-3.59-3.75-3.59l-3.74,3.59c.57-5.6,3.21-9.74,1.51-15.53l1.5,5.97Z"/>
  <path d="M821.98,62.33l-4.5-3.04c-1.35-2.21,2.12-4.09,3.77-4.1,3.24-.02,1.67,5.62.73,7.14Z"/>
  <path d="M764.99,14.51c-.85,2.53,2.58,9.35-2.99,8.36.85-2.53-2.58-9.35,2.99-8.36Z"/>
  <path d="M809.99,51.57l-4.96-1.2c-5.38-1.06,6.03-10.05,4.96,1.2Z"/>
  <path d="M831,63.53c-.97-.09-2.01.09-2.99,0l1.52-7.17c4.64-2.99,1.83,6.02,1.48,7.17.97.09,2.01-.07,2.99,0,.64,2.38-2.83,3.13-2.9,5.3-.05,1.62,1.8,3.59,1.39,5.45-2.63.35-.87-1.84-1.97-3.24-.39-.49-2.6-.26-2.58-.95.02-.65,2.37-4.28,3.06-6.56Z"/>
  <polygon points="775.5 6.15 769.51 13.31 770.22 7.31 775.5 6.15"/>
  <path d="M823.49,71.89c-5.78-.2-6.61-4.73-.74-5.95l2.21,1.76-1.47,4.19Z"/>
  <path d="M797.99,2.56l-2.98,7.16c-.24-2.34-2.68-7.86,2.98-7.16Z"/>
  <path d="M806.99,76.69l-2.99,7.16c1.78-1.87-2.24-8.19,2.99-7.16Z"/>
  <path d="M833.99,79.08l-.13,3.46-5.87,1.3c1.31-2.07,2.38-5.27,5.99-4.77Z"/>
  <path d="M844.49,75.49c-4.64-1.29-2.45-4.3-1.47-7.17h1.47s0,7.17,0,7.17Z"/>
  <path d="M766.48,70.7c-3.23.02-.96-7.35,1.5-7.16l-1.5,7.16Z"/>
  <path d="M763.48,62.33h-1.47c-.1-2.59-.84-6.26,2.97-7.17l-1.5,7.17Z"/>
  <path d="M823.49,86.24h-2.98c-.92-2.22-.98-3.74,0-5.97h1.47s1.51,5.97,1.51,5.97Z"/>
  <path d="M763.49,6.14c2.38,1.9-2.11,5.47-4.49,3.58s2.11-5.47,4.49-3.58Z"/>
  <rect x="783.01" y="50.38" width="2.99" height="4.77"/>
  <polygon points="789 75.49 788.99 79.07 786.03 79.05 783.01 76.66 783.01 75.5 789 75.49"/>
  <path d="M844.49,104.19l1.48,2.98-2.22,1.77c-2.32-1.27-2.59-2.56-2.24-4.76h2.98Z"/>
  <path d="M795.01,91.03l2.97-2.38c1.66,5.35-6.14,5.35-4.47,0l1.5,2.38Z"/>
  <path d="M806.99,92.22h-2.99c-.36-2.21-.06-3.48,2.25-4.77l.74,4.77Z"/>
  <polygon points="798 97.02 796.49 102.98 795.01 102.98 795.01 97.01 798 97.02"/>
  <rect x="810.01" y="76.69" width="1.47" height="7.16"/>
  <rect x="766.51" y="38.43" width="2.99" height="3.58"/>
  <path d="M774,107.78l-1.52,3.58h-2.98c-.48-2.27,1.76-3.98,4.49-3.58Z"/>
  <path d="M772.51,31.25c-.4-2.23-.01-4.14,2.97-4.78.4,2.23.01,4.14-2.97,4.78Z"/>
  <path d="M785.98,62.33h-1.47s0-5.97,0-5.97h1.47c.97,2.23.97,3.74,0,5.97Z"/>
  <rect x="811.51" y="56.36" width="2.99" height="3.58"/>
  <polygon points="821.99 94.62 821.99 99.39 820.52 99.39 819.01 94.62 821.99 94.62"/>
  <polygon points="784.51 100.6 785.24 95.82 787.49 98.79 784.51 100.6"/>
  <polygon points="832.49 111.35 829.51 111.35 829.51 107.77 832.49 109.58 832.49 111.35"/>
  <polygon points="819.01 108.96 819.01 104.19 820.48 104.19 821.96 107.18 819.01 108.96"/>
  <polygon points="775.5 38.43 773.98 42 772.51 42 772.51 38.43 775.5 38.43"/>
  <polygon points="841.49 50.38 841.49 53.96 840.02 53.96 838.5 50.39 841.49 50.38"/>
  <rect x="774.01" y="16.91" width="1.47" height="4.77"/>
  <polygon points="798 83.85 795.01 83.85 795.01 80.27 796.48 80.28 798 83.85"/>
  <rect x="784.51" y="65.93" width="2.99" height="2.38"/>
  <rect x="768.01" y="21.69" width="1.47" height="3.58"/>
  <rect x="775.51" y="67.12" width="1.47" height="3.58"/>
  <polygon points="829.49 94.62 828.76 97 826.5 94.63 829.49 94.62"/>
  <path d="M809.99,92.22h-1.47c-.36-2.2-.08-3.49,2.25-4.76l-.78,4.76Z"/>
  <rect x="796.51" y="10.93" width="1.47" height="3.58"/>
  <rect x="810.01" y="95.82" width="1.47" height="3.58"/>
  <rect x="774.01" y="75.49" width="1.47" height="3.58"/>
  <rect x="774.01" y="91.04" width="1.47" height="3.58"/>
  <rect x="777.01" y="43.21" width="1.47" height="2.38"/>
  <polygon points="764.26 75.51 764.97 76.07 761.24 80.25 760.53 79.68 764.26 75.51"/>
  <rect x="784.51" y="83.86" width="1.47" height="2.38"/>
  <rect x="765.01" y="71.91" width="1.47" height="2.38"/>
  <polygon points="770.99 102.98 769.51 102.98 769.51 101.21 771.76 99.42 770.99 102.98"/>
  <rect x="808.51" y="108.97" width="1.47" height="2.38"/>
  <path d="M770.25,16.9c.97.4.97.8,0,1.2v-1.2Z"/>
  <path d="M759.75,25.27c.97.4.97.8,0,1.2v-1.2Z"/>
  <path d="M767.25,30.05c.97.4.97.8,0,1.2v-1.2Z"/>
  <path d="M795.75,106.57c.97.4.97.8,0,1.2v-1.2Z"/>
  <path d="M782.25,91.03c.97.4.97.8,0,1.2v-1.2Z"/>
  <path d="M827.25,87.44c.97.4.97.8,0,1.2v-1.2Z"/>
  <path d="M761.25,38.42c.97.4.97.8,0,1.2v-1.2Z"/>
  <path d="M774.75,82.66c.97.4.97.8,0,1.2v-1.2Z"/>
  <path d="M809.25,74.29c.97.4.97.8,0,1.2v-1.2Z"/>
  <path d="M776.25,46.79c.97.4.97.8,0,1.2v-1.2Z"/>
  <polygon points="116.99 937.55 116.99 939.33 114.01 941.13 114.01 937.55 116.99 937.55"/>
  <path d="M103.49,1006.9c.35,2.2.08,3.48-2.24,4.76l-2.22-1.77,1.48-2.98h2.98Z"/>
  <path d="M1377.2,5.8c.97.4.97.8,0,1.2v-1.2Z"/>
</svg>