<?xml version="1.0" encoding="UTF-8"?>
<svg id="Layer_1" xmlns="http://www.w3.org/2000/svg" version="1.1" viewBox="0 0 1920 1080">
  <!-- Generator: Adobe Illustrator 29.5.1, SVG Export Plug-In . SVG Version: 2.1.0 Build 141)  -->
  <defs>
    <style>
      .st0 {
        font-family: MyriadPro-Regular, 'Myriad Pro';
        font-size: 12px;
      }
    </style>
  </defs>
  <text class="st0" transform="translate(1560.7 5.29)"><tspan x="0" y="0">file:///Users/oxo/Downloads/jpg(1)</tspan></text>
  <g>
    <path d="M1021.51,804.83c3.74.4,2.37-.08,3.15-1.7,1.71-3.53.47-5.57-.16-9.07-6.45-.45-2.29,8.03-2.99,10.76Z"/>
    <path d="M1064.98,525.05c-2.91-1.86-2.27,2.28-5.12,2.49-5.54.4-20.37,1.26-22.87-2.48h-12.51c-.3-10.96.4-21.98.07-32.94-.14-4.61-3.5-8.82.14-13.54l10.84-.13c1.61-.33.8-2.42.96-2.42h25.5l-3.09-11.29c.03-.68,2.37-.59,2.63-.94,1.74-2.33,1.1-47.93.53-54.18-.18-2.02-.47-3.94-1.41-5.83-.66-.72-18.92-2.87-21.92-3.08-5.72-.41-14.41.89-19.25-.01-1.17-.22-.86-2.14-1.95-2.38-6.03-1.31-4.8,2.02-6.45,2.99-.97.57-3.33-.54-4.92-.28-9.71,1.6-17.89,4.26-24.34,10.49-20.91,20.18-21.5,46.51-24.83,71.1-.35,2.56.19,5.21-.02,7.77-2.5.51-.65-2.08-2.43-2.42-8.19-1.56-11.14,2.4-11.05,8.39,2.9.11,5.95.08,8.69-.81,1.8-.58,2.28-4.76,4.79-2.77,1.15.91-1.49,3.82-1.49,4.18v18.53c2.09-.2,4.61.38,6.54.03,1.8-.33-.05-2.93,2.44-2.42l-1.39,11.43c-7.06,1.79-13.64-1.72-18.74,3.01l-17.36-.1v74.14s5.08.03,5.08.03l2.41-2.42c-.66,4.23,10.96,2.11,15.76,2.39,1.64.09,10.89,1.14,12.53,1.71.64-.01,1.27,0,1.91.06.96.1,1.93.02,2.89.1l4.42-.69c-1.41,10.55-.79,21.14-1.5,31.69-.56,8.3-2.86,18.07-3.14,26.31-.38,11.23,4.11,16.02.44,27.79-.6,1.91,1.36,9.17-.29,12.26l10.31.16c.6,2.07.76,7.62-2.1,8.21-3.93.82-5.76-4.4-8.03-.45-2.83,17.39.44,34.45-.17,51.87h-12.01s0,13.14,0,13.14c3.89.94,3.41-3.15,5.56-3.59,3.67-.74,8.67.35,12.42-1.19v4.78s-4.47-1.19-4.47-1.19c1.95,5.43,3.93,7.72,1.4,13.6l3.15,1.41-1.57,4.69c6.5,4.37,3.12-2.93,3.45-4.57.19-.95,1.96-1.93,2.14-2.91.36-1.98-1.48-6.9,1.9-7.43l-1.48,20.31c5.16,1.37,3.17-7.38,5.25-7.18l1.49,2.43,6.76-2.41c.48,2.38-2.51,3.14-3.04,5.35-.52,2.16,1.82,2.6,3.02,1.81.81-.53,1.15-10.32,4.51-7.17-1.49,5.8,4.38,8.72,1.51,14.34h4.48s1.42-10.01,1.42-10.01l-5.88-1.98,1.47-8.33-16.49,1.19v-3.58c2.95.02,8.93.16,10.62-1.99,1.32-1.69,4.85-10.73.38-10.27l-.49-3.27,11.99-1.21c-1.41,3.83-2.51,4.08-7.5,3.58l1.52,11.95,4.48-2.39v3.59c5.86,1,4.53-1.71,5.82-5.57.69-2.06-1.13-3.36,3.18-2.79-4.14,5,2.88,7.34,3.03,7.78,2.41,7.12-13.43-.77-11.64,6.92.22.96,1.92,1.89,2.21,2.92.3,1.05,2.31,12.47,4.74,5.55.97-2.77-.59-5.08-.61-7.62,3.63,2.43,4.09,5.98,3.77,9.54,8.36-.37.69-7.6,4.51-11.94,2.86,1.1,4.28,5.03,5.98,7.17.64.8,3.12,1.34,3.91,3.54,1.22,3.4-3.47,9.15,3.58,11.99v-16.73c-3.23-.15-5.35,2.24-7.47-.63l1.5-5.35,1.49,3.59h4.49s2.99-5.99,2.99-5.99c.33,5.93-.92,11.95,1.09,17.73.74,2.13-.51,3.1,3.42,2.6v-19.13c4.85-.94,2.05,3.31,5.25,4.76l2.27-3.56,2.96,2.38c2.4-6.16,2.18-12.93,0-19.12,3.98.04,6.66.52,7.52-2.99.94-3.85-.32-16.05-1.55-20.1-.23-.76-5.04-1.42-2.94-5.57,4.82.19,8.41-.22,7.49-4.82-1.24-.78-15.76-.72-18.52-1.2-.97-.17-.52-3.76-7.5-2.37-.53.11-2.76,4.37-8.48,2.37,1.09-4.28-2.72-8.77-2.76-12.53-.02-1.8,1.35-3.8,1.31-5.94-.11-6.77,0-13.55-.17-20.32,6.23-.64,5.85-3.48,4.58-7.82l-4.48,2.38.14-84.2,2.33-4.33,28.08-1.1,1.7-2.44c1.13,4.03,5.37,2.1,9.75,2.4v-73.53c0-.16-1.36-2.88-1.52-2.99ZM1050.01,438.97h1.47v3.58h-1.47v-3.58ZM1026.01,418.64h1.47v2.38h-1.47v-2.38ZM941.99,547.76h-2.99v-2.38h2.99v2.38ZM964.49,578.85l-2.98-1.8,2.99-.59v2.39ZM959.83,564.36c-5.99,1.69-8.6-2.88-8.83-7.01,6.35-.35,5.88-5.36,13.49-3.6l-4.66,10.61ZM969.75,570.48v-1.2c.97.4.97.8,0,1.2ZM960.75,765.37v-1.2c.97.4.97.8,0,1.2ZM1054.49,761.79l-.74,3.58-2.24-1.8v-1.77s2.98,0,2.98,0ZM1044.01,743.86h1.47v2.38h-1.47v-2.38ZM1044,772.56c-.58,1.54-2.28,2.6-2.62,4.33-.42,2.09,3.66,4.71-1.87,4.03l-.03-7.67,4.52-.68ZM1038.75,755.81c.97.4.97.8,0,1.2v-1.2ZM1036.5,745.06l-1.42,3.49,2.92,1.27c-4.14.86-7.61-5.46-1.49-4.76ZM1027.51,743.86h1.47v2.38h-1.47v-2.38ZM1027.51,772.55h1.47v8.36h-1.47v-8.36ZM1017.01,676.9h4.49c2.02,1.57-6.15,7.32-4.49,0ZM1017.02,703.19l-1.51-14.34h4.49c-.11,3.34.33,6.73-.12,10.07-.15,1.14-.68,4.49-2.86,4.27ZM1018.49,711.58v3.58h-2.99v-3.58h2.99ZM1019.99,667.34c2.38,1.9-2.11,5.47-4.49,3.58s2.11-5.47,4.49-3.58ZM1014.01,723.52h5.99s-1.56,5.96-1.56,5.96l-4.43.03v-5.99ZM1016.98,740.26h-1.47s-1.51-4.77-1.51-4.77c4.86,0,4.38,1.68,2.98,4.77ZM1012.49,697.23v1.77s-2.98,1.81-2.98,1.81v-3.58s2.98,0,2.98,0ZM1010.25,716.35v-1.2c.97.4.97.8,0,1.2ZM1010.99,687.66v3.58s-1.48,0-1.48,0l-1.52-3.57h2.99ZM1010.99,723.53l-5.22,5.97c-5.91-4.96,0-5.68,5.22-5.97ZM1001.97,737.31c3.32.37,2.78-6.42,6.01-4.21,2.49,1.71,1.4,9.7-2.97,10.75,1.32-4.03-4.16-3.1-3.04-6.54ZM1002.75,717.55v-1.2c.97.4.97.8,0,1.2ZM1006.49,697.23v3.58h-1.47v-3.58h1.47ZM1005.75,672.11v-1.2c.97.4.97.8,0,1.2ZM1006.49,712.77v3.58h-1.47v-3.58h1.47ZM1006.5,405.5l-1.51,3.58h-2.97l-1.51-3.58h6ZM1002.75,675.7v-1.2c.97.4.97.8,0,1.2ZM1002.75,687.66v-1.2c.97.4.97.8,0,1.2ZM999.01,422.23h2.99v3.58h-2.99v-3.58ZM993.23,748.37c1.32.82,4.03.14,5.77.28l-1.73,3.39-7.26.18,1.51-5.96c2.49-.5.86,1.59,1.72,2.12ZM999,731.89h-7.5c-.46-3.55-.1-6.23,3.76-8.34,1.72,0,4.62,7.66,3.75,8.34ZM984.02,721.14c2.45-.03,2.97,4.1,3.03,5.38.16,3.28-.34,5.88-1.57,8.95-2.88,1.76-4.27-2.91-4.23-4.13.1-3.17,2.19-6.98,2.77-10.2ZM984.01,712.77l2.98,7.16c-5.66.7-3.22-4.82-2.98-7.16ZM982.51,711.56l1.44-13.66,3.03-.68,1.45,2.95,3.07-.57.03,2.96c-5.17.86-2.5,9.33-9.02,8.99ZM997.49,712.77v4.78s-7.48,0-7.48,0c-1.86-1.35,5.63-6.29,7.48-4.77ZM997.49,707.98l-5.99-1.21v-2.37s5.99,0,5.99,0v3.58ZM985.53,687.08c-.79,3.69,6.26-.52,4.5,4.77-.08.25-4.52,1.85-4.53,3.61l-4.49-.63c-.32-2.27,2.6-3.34,3.02-5.44,1.67-8.19-5.8-9.52,11.96-10.09,2.11,6.48-9.21,1.97-10.46,7.79ZM989.99,670.92c.62,2.87-1.94,6.2-5.98,5.97l.21-4.62,5.77-1.36ZM989.25,643.42v-1.2c.97.4.97.8,0,1.2ZM991.49,483.2h-4.49v-4.78h4.49v4.78ZM987.01,446.14h2.99v3.58h-2.99v-3.58ZM975.23,455.9c1.02-.56,7.21-.51,8.47.06.41.18,4.66,5.55,4.83,6.37.52,2.42-.96,9.14-3.98,9.95-13.76,3.7-15.06-9.25-9.32-16.38ZM977.98,680.49l1.48,5.92-7.45,1.24c-2.27-1.85,3.6-8.65,5.97-7.17ZM974.27,696.02c-5.54-.97.83-7.08,3.72-4.77,1.09.87-.56,5.33-3.72,4.77ZM979.5,740.26c4.93-1.51,6.47,2.61,3.01,4.26-2.1,1-4.15-.34-6.2-.04-1.89.27-3.23,2.35-5.81,1.76l1.51-5.97c3.85-.52,5.59.54,6.01,3.58l1.49-3.59ZM970.51,737.87l.06-13.09,7.43-.06c.49,4.89.36,12.32-7.5,13.15ZM977.99,715.16v4.78c-3.92.36-3.94.25-5.24-2.4l-2.24,2.4c-1.05-5.05,3.16-4.26,7.48-4.78ZM969.75,761.79v-1.2c.97.4.97.8,0,1.2ZM974.99,760.59c-6.15-2.6-4.5-6.99-4.48-11.95l4.56.53,1.27,1.43-1.35,9.98ZM988.51,770.66c-.26,1.59-3.7,6.98-6,7.87,1.98-5.03-3.8-5.24-5.01-7.44-3.23-5.87-.5-12.95,6.49-15.89,1.32-2.35-4.64-.98-2.98-4.76,1.06-2.4,5.72-2.53,7.49.01l-4.15,7.51c2.98-.48,4.44,10.94,4.15,12.7ZM989.23,740.12c.53-3.32,6.23-3.54,9.76-3.43l-.25,4.64c-3.38-.99-5.5,4.3-8.72,2.53-.2-.11-.91-2.95-.79-3.73ZM998.99,759.98c-1.25,2.35-6.25,1.86-8.98,1.8-.65-.5,1.95-9.73,5.98-8.36-1.7,3.5,4.63,3.5,3,6.57ZM1000.51,694.84h2.99v1.17h-2.99v-1.17ZM1016.99,766.56h-7.49v-1.17h7.49v1.17ZM1013.25,760.6l-.75-2.4h-2.98s-.3,2.08-.3,2.08l-7.21.3c-.73-2.29,1.39-4.68,1.34-6.63-.06-2.43-6.05-8.48,3.07-8.37,7.1.08,1.48,9.91,3.09,11.41,6.27.79,1.04-8.04,3.69-10.8,3.27-2.84,5.62,2.43,6.05,2.45l3.75-2.4-1.83,5.78-4.18.2,1.4,5.9c-3.45-.23-3.99.09-5.14,2.47ZM1022.25,757v-1.2c.97.4.97.8,0,1.2ZM1027.5,784.5c-4.81.85-1.49-3.58-6.76-2.41l-2.22,2.41c-1.59-3.14-1.33-5.8-.04-8.99.67-1.66-.98-2.13,3.02-1.77l.18,4.71c5.49-.69,4.78,2.5,5.83,6.05ZM1049.99,564.5h-2.99v-3.58h2.99v3.58ZM1055.99,574.07h-2.99s0-4.78,0-4.78c2.99.64,3.36,2.55,2.98,4.78Z"/>
    <path d="M991.49,804.84c1.36,1.02-4.12,7.5-3.95,8.95.26,2.29,5.45,4.95-1.29,8.96-4.08.19.86-11.7.76-13.12l-4.35-.11-.15-4.68h8.99Z"/>
    <path d="M964.48,789.28l-1.17-10.14,1.92-6.59c6.63,5.87.47,10.47-.76,16.73Z"/>
    <path d="M1001.99,813.21l-.18,5.88c-4.83-.66-4.12,2.19-7.3,3.68-.89-1.84,5.17-11.66,7.48-9.56Z"/>
    <path d="M1044.01,806.03l.73-11.95c3.42,2.62,3.93,10.22-.73,11.95Z"/>
    <path d="M1005.77,806.03c3.67-.64,5,4.15,1.46,4.77-3.67.64-5-4.15-1.46-4.77Z"/>
    <polygon points="1048.49 821.56 1044.01 821.56 1045.52 815.6 1046.98 815.6 1048.49 821.56"/>
    <polygon points="982.49 817.98 978.01 817.98 978.01 816.2 981.76 813.21 982.49 817.98"/>
    <path d="M1024.5,806.04c-1.92,1.87-1.43,6.51-4.49,7.16.74-2.05-.22-8.06,4.49-7.16Z"/>
    <path d="M1016.99,806.03l-4.48-1.2v-1.77s2.24-1.79,2.24-1.79c2.32,1.27,2.6,2.56,2.24,4.76Z"/>
    <path d="M1046.99,809.62l-.74,4.77c-2.31-1.29-2.61-2.57-2.25-4.77h2.99Z"/>
    <polygon points="951 777.32 946.51 778.53 948.02 773.75 949.48 773.75 951 777.32"/>
    <path d="M1041,817.99l-1.52,3.58h-2.98c-.48-2.27,1.76-3.98,4.49-3.58Z"/>
    <polygon points="965.99 801.24 963.01 801.24 963.01 799.47 965.26 797.66 965.99 801.24"/>
    <polygon points="965.99 790.49 965.26 794.06 963.01 792.26 963.01 790.49 965.99 790.49"/>
    <rect x="955.51" y="784.51" width="2.99" height="2.38"/>
    <rect x="1008.01" y="801.25" width="1.47" height="3.58"/>
    <rect x="963.01" y="680.49" width="1.47" height="2.38"/>
    <rect x="973.51" y="795.27" width="1.47" height="2.38"/>
    <rect x="984.01" y="795.27" width="1.47" height="2.38"/>
    <polygon points="1014.01 807.23 1015.49 807.23 1015.49 809 1013.24 810.79 1014.01 807.23"/>
    <path d="M1026.75,817.98c.97.4.97.8,0,1.2v-1.2Z"/>
    <path d="M1010.25,817.98c.97.4.97.8,0,1.2v-1.2Z"/>
    <path d="M966.75,809.61c.97.4.97.8,0,1.2v-1.2Z"/>
    <path d="M995.25,780.92c.97.4.97.8,0,1.2v-1.2Z"/>
    <path d="M959.25,780.92c.97.4.97.8,0,1.2v-1.2Z"/>
    <path d="M962.25,699.61c.97.4.97.8,0,1.2v-1.2Z"/>
  </g>
</svg>