<?xml version="1.0" encoding="UTF-8"?>
<svg id="Layer_1" xmlns="http://www.w3.org/2000/svg" version="1.1" viewBox="0 0 1920 1080">
  <!-- Generator: Adobe Illustrator 29.5.1, SVG Export Plug-In . SVG Version: 2.1.0 Build 141)  -->
  <defs>
    <style>
      .st0 {
        font-family: MyriadPro-Regular, 'Myriad Pro';
        font-size: 12px;
      }
    </style>
  </defs>
  <path d="M1144.53,201.02c2.47,1.53,2.83-1.9,5.1-2.6,7.51-2.32,24.94,3.28,12.11-9.34-3.25-.66-4.36,5.14-7.76,5.84-2.77.57-6.08-1.29-7.96-2.87-.4-3.59,5.1-.43,8.28-2.94,4-3.16,0-8.94,4.46-11.97,2.53,5.49,12.62,6.96,14.27,1.18l2.23,2.39,1.5-2.41,1.49,3.59c3.97-2.43,3.64-8.37,9.75-7.16-1.14,8.41-2.8,10.96-13.49,10.77l-1.49-3.59c-.56,3.69-3.47,4.29-7.49,4.17l1.48,4.2,19.26-1.38c1.18-5.21,1.2-8.58,9.23-8.18,2.1,4.85-4.04,4.38-3.01,7.7.11.34,5.83,4.59,5.98,5.09.47,1.63-.11,3.47.02,5.14,3.5.15,8.29-1.4,7.53,2.37h1.46c.28-5.12,7.46-2.65,12.03-3.58v-3.58s-18,1.19-18,1.19c-1.32-1.06,3.68-4.7,4.03-4.76,8.06-1.32,39.5.81,43.57-1.59.45-.27.39-3.69,3.35-1.99.13.07-.45,1.58,1.11,2.31,4.8,2.26,10.21,1.66,9.43-3.54l3.79,1.17c1.65,3.02-.31,5.57-3.8,6.59,6.61,5.09,2.88,13.54,3.02,19.16.47,18.47.44,36.69.05,54.93-.43,20.05,1.63,39.87,1.53,59.9l-3.13,4.11-4.46-2.38-1.52,3.58c11.25-.58,6.25,3.89,6.54,8.78.41,7.01,1.7,14.06.97,21.13l-105.86-.1-4.28,2.58h-37.67s-5.18-3.68-5.18-3.68l-.83,3.66-21.69-.07c2.58-33.26-4.39-68.06-1.55-101.08.43-4.99,5.78-13.02-.04-14.43,2.94-7.32.47-15.25.53-22.33.03-3.55,2.36-7.34,2.36-9.79,0-1.85-1.8-3.87-1.38-5.86.21-.99,3.18-.13,3.2-2.49.04-4.64-4.58-3.71-4.75-5-.09-.7,1.61-7.84,2.05-9.07,2.14-5.98,4.3-5.3,8.56-1.41-4.06,11.89,7.54,8.84,11.28.49,3.77-.7,1.49,2.99,3.62,4.25,1.6.95,4.22.43,6.11.51l-3.26-9.29-2.7.37,1.47-3.02-15.01-1.22v-3.57c4.24.56,10.06-1.49,13.85.04,1.67.68.7,3.29,4.9,2.37,1.43-.31-.3-2.95,2.22-2.41v7.16s9.02,1.21,9.02,1.21l-1.46,4.2c5.77,1.08,8.37-3.4,10.47-7.17-.83-3.2-13.4,1.46-10.45-5.34l5.93-1.27,1.5,3.6c-1.36-4.96,2.59-2.77,4.61-4.35,1.64-1.29,2.55-5.12,5.17-6.38l-5.37,18.51c-.9,1.56,2.22,8.39,3.13,8.96ZM1242,192.67l-7.51,4.77-1.49-3.59-4.49.6c5.66,7.78,4.64,2.93,7.93.97,1.65-.98,5.1-.3,5.56-2.74ZM1253.25,192.66v1.2c.97-.4.97-.8,0-1.2ZM1184.88,195.14l-16.37-1.28,1.82,6.98,4.19.2-2.98,4.18c2.5,2.16,5.92.03,5.99,4.17l2.9-.07,1.03-2.33,11.04.02c.9-3.2-1.16-1.69-3.02-3.11l.79-2.84-6.77,1.16,1.38-7.07ZM1227,193.87h-2.99s0,3.57,0,3.57h1.47s1.52-3.57,1.52-3.57ZM1249.5,193.85h-4.49c-1.81,6.88,2.2,7.88,6.02,11.61.97.95.84,2.57,1.37,3.21,2.61,3.17,3-1.06,4.11-1.69,4.29-2.45,8.14-1.07,6.44-8.29l-6.8-.97-3.62,3.3c-1.05-2.95-4.52-3.18-3.03-7.17ZM1195.49,201.02l-1.5-5.96h-1.47s1.5,5.96,1.5,5.96h1.47ZM1094.25,197.44v1.2c.97-.4.97-.8,0-1.2ZM1129.49,201.02v-1.77s-2.25-1.79-2.25-1.79l.78,3.56h1.47ZM1225.5,198.65l-3,5.97-5.99-2.38,3.01,8.37c5.74-1.65,5.68-6.38,13.5-4.79.79-2.76-.61-4.14-3.77-4.77-1.68-.34,1.1,4.97-3.73,3.58v-5.96ZM1123.49,201.03c-3.42-.94-4.18,3.44-4.76,5.16-.4,1.19-2.1,4.46,1.02,4.38,2.44-.06,4.68-7.51,3.74-9.54ZM1125.75,201.03v1.2c.97-.4.97-.8,0-1.2ZM1241.99,204.61c.48-2.26-1.76-3.97-4.49-3.57l1.52,3.58h2.98ZM1211.97,202.25l-2.97-.02,3.74,4.76,2.24-2.35c-3.16.67-2.8-2.28-3.01-2.39ZM1235.99,204.61v-2.38h-1.47v2.38h1.47ZM1114.49,209.39c2.98-6.28-12.25-5.34-13.48-2.97-.62,1.19-.6,3.73,2.23,2.99,1.42-.37-.21-3.44,4.52-2.42.41.09,1.31,4.15,6.73,2.41ZM1168.49,204.62h-2.99v2.38h2.99v-2.38ZM1206,204.63c-2.7-2.26-6.43,5.75-6.12,7.59.17,1,2.95,1.05,3.78,1.98,1.32,1.47,1.54,4.79,2.15,6.76.65,2.1-1.08,3.33,3.18,2.78-2.84-5.04,2-10.38,8.94-9.62l.05-4.72c-4.7,1.19-4.6,4.91-10.48,3.58l1.48-7.17-4.47,3.58,1.49-4.77ZM1154.99,205.82h-2.99v3.58h2.99v-3.58ZM1161.75,205.81v1.2c.97-.4.97-.8,0-1.2ZM1136.13,208.88c-1.03-.94.02-2.26-2.12-1.86l-3.01,8.36c4.22.33,5.41-3.34,7.5-5.4.19-.56-1.71-.49-2.37-1.09ZM1100.99,210.6h-5.99s1.35,3.05,1.35,3.05c-3.84.95-3.03,2.29-2.84,5.32l4.45-1.31-.8-3.56,3.84-3.49ZM1115.99,212.98v-2.38h-1.47v2.38h1.47ZM1148.99,210.6c-2.35-1.97-5.84,3.55-8.73,2.53-3.1,10.9,12.99,1.05,8.73-2.53ZM1152.75,212.99v1.2c.97-.4.97-.8,0-1.2ZM1235.99,215.37v-2.38h-1.47v2.38h1.47ZM1112.99,217.76c.48-2.26-1.76-3.97-4.49-3.57l1.52,3.58h2.98ZM1184.99,214.18c-6.67-1.67-6.73,3.11-8.98,4.2-2.5,1.22-9.07-.64-8.99,3.57.08,3.82,6.91-.5,7.97-.43,2.11.15,5.19,3.14,8.46,2.19l1.54-9.54ZM1223.25,214.18v1.2c.97-.4.97-.8,0-1.2ZM1196.98,215.38l-3,.61.79,2.85c-9.26-.36-1.17,7.42,3.08,2.56,1.68-1.92-.7-4.1-.87-6.03ZM1238.99,217.76v-2.38h-1.47v2.38h1.47ZM1258.49,217.76v-2.38h-1.47v2.38h1.47ZM1252.51,221.35l-.02-3.58-7.5,1.2.02,2.38h7.5ZM1155,222.54l-1.52-3.57h-1.47s0,3.57,0,3.57h2.99ZM1165.49,222.55v-3.58h-1.47v3.58h1.47ZM1241.99,218.97c-5.14-.52-6-.23-7.49,3.57,3.74.3,7.89.12,7.49-3.57ZM1113.74,221.38l-.71.57,2.24,1.78.71-.57-2.24-1.78ZM1120.49,221.36h-2.99s2.26,2.38,2.26,2.38l.74-2.38ZM1150.49,221.37h-2.99v1.17h2.99v-1.17ZM1161,221.37h-2.99s0,2.38,0,2.38l2.99-2.38ZM1217.99,221.37h-2.99v1.17h2.99v-1.17ZM1255.49,223.75h-2.99v2.38h2.99v-2.38ZM1261.49,226.13v-2.38h-1.47v2.38h1.47ZM1192.49,227.34h-2.99v3.58h2.99v-3.58ZM1201.08,227.72c-2.15-.93-4.76-.26-7.08-.38-1.93,3.66,4.41,3.79,4,6.58-.16,1.09-2.67,2.56-3.35,4.12-.78,1.79-.17,3.72-.72,5.18-.28.76-5.36,2.19-2.92,6.83l2.97-3.58,1.53,8.36,4.48-3.58c-2.27,3.99-1.14,4.8,2.99,7.16l3.01-4.76-9.04-4.24c2.77-4.99.79-13.53,9.15-14.37.92-6.76-.81-4.17-4.02-5.75-.6-.29-.62-1.42-1-1.58ZM1138.49,234.5c1.2-5.74-7.1-6.84-7.49-1.2l7.49,1.2ZM1163.99,229.74h-2.99v1.17h2.99v-1.17ZM1171.49,229.73l-4.48,1.81,3.01,4.16,1.47-5.96ZM1221.75,229.73v1.2c.97-.4.97-.8,0-1.2ZM1259.99,229.72c-3.94-.66-2.32.69-3.12,1.73-1.74,2.27-3.33,5.06-2.86,7.83l7.45-1.26-1.46-8.31ZM1099.49,234.5v-3.58s-1.48,0-1.48,0l-1.52,3.57h2.99ZM1108.5,230.93h-5.99v3.58h5.99v-3.58ZM1111.49,234.5v-3.58h-1.47v3.58h1.47ZM1115.99,234.5v-3.58h-1.47v3.58h1.47ZM1121.99,230.93h-2.99s0,3.58,0,3.58l2.97-1.81v-1.77ZM1129.49,230.93h-5.99s0,2.38,0,2.38l3.74,1.18,2.23-1.79v-1.77ZM1142.99,230.93h-2.99v2.38h2.99v-2.38ZM1162.49,238.09v-2.38h-1.47v2.38h1.47ZM1228.48,235.71c-3.47-.68-5.18.49-5.98,2.99-.32,1.02,5.71-.41,4.52,2.97,3.2.3,2.13-5.58,1.46-5.97ZM1106.99,241.68v-3.58h-1.47v3.58h1.47ZM1126.49,238.1c-1.5-1.2-7.23.69-5.98,4.17,2.56,4.34,7.72-2.78,5.98-4.17ZM1142.99,238.11h-2.99v1.17h2.99v-1.17ZM1181.99,238.1c-2.84-.38-4.98,1.4-4.49,3.58h4.49s0-3.58,0-3.58ZM1208.25,238.09v1.2c.97-.4.97-.8,0-1.2ZM1117.49,239.3h-4.49v2.38h4.49v-2.38ZM1174.49,244.08h-2.99v3.58h2.99v-3.58ZM1187.99,244.08h-2.99s0,1.77,0,1.77l2.24,1.8.74-3.58ZM1220.98,244.09c-3.68-.51-3.19.39-3.01,2.98l5.28,4.18.97-3.36c.48-.49,13.19-1.76,5.04-3.82l-1.71,2.42h-5.6s-.97-2.4-.97-2.4ZM1250.99,244.08h-2.99v3.58h2.99v-3.58ZM1139.25,246.46v1.2c.97-.4.97-.8,0-1.2ZM1146.75,246.46v1.2c.97-.4.97-.8,0-1.2ZM1097.99,247.67h-2.99s0,1.77,0,1.77l2.24,1.8.74-3.58ZM1118.99,250.05v-2.38h-1.47v2.38h1.47ZM1104.75,250.05v1.2c.97-.4.97-.8,0-1.2ZM1133.99,258.41c.95-.77-1.83-3.49-2.53-4.57s.44-2.99-1.95-2.6c-.82,1.43,1.37,9.68,4.48,7.16ZM1099.49,256.03h-2.99v3.58h2.99v-3.58ZM1180.49,258.42v-2.38h-1.47v2.38h1.47ZM1214.99,266.78v-3.58h-1.47v3.58h1.47ZM1109.99,266.78v-2.38h-1.47v2.38h1.47ZM1180.49,264.4h-2.99v3.58h2.99v-3.58ZM1199.99,264.4h-2.98s-1.52,3.57-1.52,3.57h4.49s0-3.57,0-3.57ZM1252.49,267.98v-3.58h-1.47v3.58h1.47ZM1157.25,266.79v1.2c.97-.4.97-.8,0-1.2ZM1232.99,270.38h-2.99s1.52,3.57,1.52,3.57h1.47s0-3.57,0-3.57ZM1253.25,270.38v1.2c.97-.4.97-.8,0-1.2ZM1220.99,273.96v-2.38h-1.47v2.38h1.47ZM1182.01,275.16c-1.09.87.56,5.33,3.72,4.77,5.54-.97-.83-7.08-3.72-4.77ZM1201.49,275.17h-2.99v1.17h2.99v-1.17ZM1169.25,278.75v1.2c.97-.4.97-.8,0-1.2ZM1202.97,279.97c-2.54-1.32-5.95,4.05-5.97,5.35-.02,1.12,4.39,6.4,5.27,6.57,7.96-2.96,4.34-7.83.7-11.93ZM1228.5,284.71l-2.27-2.37h-2.22s0,2.38,0,2.38h4.49ZM1159.5,288.3l-1.52-3.57h-1.47l-1.52,3.57h4.5ZM1236,288.3l-1.52-3.57h-1.47s0,3.57,0,3.57h2.99ZM1190.99,296.68c-.91-5.2-.58-10.91-8.99-9.56l1.64,9.44,7.35.11ZM1142.98,302.65c.33-3.02,5.3-5.51,4.33-8.72-1.28-4.23-12.03-5.32-10.07,1.9.36,1.34,3.73,6.17,5.74,6.82ZM1103.99,295.48v-2.38h-1.47v2.38h1.47ZM1241.99,295.48v-2.38h-1.47v2.38h1.47ZM1133.99,302.66h-2.99v2.38h2.99v-2.38ZM1196.25,302.66v1.2c.97-.4.97-.8,0-1.2ZM1113.75,311.03v1.2c.97-.4.97-.8,0-1.2ZM1220.99,319.4h-4.49c-.56,5.98,5.05,5.98,4.49,0ZM1250.99,319.4h-2.99v3.58h2.99v-3.58ZM1253.99,322.98v-2.38h-1.47v2.38h1.47ZM1211.99,327.76v-3.58h-1.47v3.58h1.47ZM1188.75,327.77v1.2c.97-.4.97-.8,0-1.2ZM1246.49,331.35v-3.58h-1.47v3.58h1.47ZM1219.49,331.35v-2.38h-1.47v2.38h1.47ZM1180.49,333.75h-2.99s0,3.58,0,3.58l2.97-1.81v-1.77ZM1217.99,336.14h-2.99v3.58h2.99v-3.58ZM1237.49,336.15h-2.99v1.17h2.99v-1.17ZM1144.49,340.91v-3.58h-1.47v3.58h1.47ZM1154.99,340.91v-3.58h-1.47v3.58h1.47ZM1187.25,340.92v1.2c.97-.4.97-.8,0-1.2ZM1210.49,344.5v-2.38h-1.47v2.38h1.47ZM1225.49,360.04l-1.5-5.96h-1.47s1.5,5.96,1.5,5.96h1.47ZM1114.49,360.05v-2.38h-1.47v2.38h1.47Z"/>
  <path d="M1264.72,178.18l3.13.17c4.58,3.23-5.49,1.36-4.88,5.93l-2.99-.85-.72-2.72-3.77,3.57-1.5-2.38c-3.04.16.16,3.49-4.48,2.38l-.75-2.4c-.52,3.6-9.06,3.9-8.27.02l-2.88,3.02-10.59.55c-1.3-4.95,2.07-3.1,4.93-4.77.92-.54.92-1.75,2.23-2.31,3.98-1.69,7.55-1.86,7.86,2.29l2.51-2.37,17.53-1.16,2.43-2.43.23,3.45Z"/>
  <path d="M1223.99,178.32c1.21.87-6.4,9.97-8.98,8.36-2.68-5.69,1.34-9.78,8.98-8.36Z"/>
  <polygon points="1210.49 180.71 1208.98 186.68 1205.11 184.18 1198.51 185.48 1198.51 180.7 1210.49 180.71"/>
  <path d="M1181.99,166.36c1.57,2.74-4.5,9.58-7.49,7.16-1.29-1.04,3.04-9.24,7.49-7.16Z"/>
  <polygon points="1020 185.47 1014.01 186.68 1017.03 181.91 1020 185.47"/>
  <polygon points="1017 193.87 1015.48 197.44 1012.51 197.44 1012.51 193.86 1017 193.87"/>
  <rect x="571.51" y="132.88" width="2.99" height="3.58"/>
  <polygon points="1144.49 157.98 1141.51 157.98 1143.02 153.21 1144.49 153.21 1144.49 157.98"/>
  <rect x="1162.51" y="168.75" width="2.99" height="3.58"/>
  <rect x="1170.01" y="169.95" width="2.99" height="3.58"/>
  <polygon points="1004.99 190.27 1004.26 193.85 1002.01 192.05 1002.01 190.27 1004.99 190.27"/>
  <polygon points="1228.49 173.52 1224.01 173.52 1227.02 169.95 1228.49 169.95 1228.49 173.52"/>
  <polygon points="1250.99 172.33 1248.01 172.33 1248.01 170.56 1250.26 168.75 1250.99 172.33"/>
  <rect x="588.01" y="207.01" width="2.99" height="2.38"/>
  <rect x="996.01" y="169.95" width="2.99" height="2.38"/>
  <polygon points="1105.49 193.85 1102.5 193.85 1104.02 190.28 1105.49 190.27 1105.49 193.85"/>
  <rect x="1110.01" y="190.27" width="2.99" height="2.38"/>
  <rect x="1003.51" y="181.9" width="1.47" height="4.77"/>
  <rect x="1090.51" y="184.3" width="2.99" height="2.38"/>
  <polygon points="1009.49 197.45 1009.49 201.02 1008.02 201.02 1006.5 197.45 1009.49 197.45"/>
  <polygon points="588 215.37 585.01 215.37 585.01 212.99 588 215.37"/>
  <rect x="1171.51" y="157.99" width="1.47" height="3.58"/>
  <rect x="1092.01" y="173.53" width="1.47" height="3.58"/>
  <path d="M1108.48,166.35c-2.84.29-.9-2.25-.44-3.34.96-2.23,1.83-4.61,4.22-6.2l-3.78,9.54Z"/>
  <rect x="1153.51" y="168.75" width="1.47" height="3.58"/>
  <rect x="573.01" y="125.71" width="1.47" height="2.38"/>
  <rect x="582.01" y="161.58" width="1.47" height="2.38"/>
  <rect x="1095.01" y="163.97" width="1.47" height="2.38"/>
  <rect x="585.01" y="169.95" width="1.47" height="2.38"/>
  <rect x="1149.01" y="169.95" width="1.47" height="2.38"/>
  <rect x="1240.51" y="169.95" width="1.47" height="2.38"/>
  <rect x="1134.01" y="174.73" width="1.47" height="2.38"/>
  <rect x="1125.01" y="184.3" width="2.99" height="1.17"/>
  <rect x="583.51" y="197.45" width="2.99" height="1.17"/>
  <rect x="577.51" y="198.64" width="1.47" height="2.38"/>
  <rect x="997.51" y="198.64" width="1.47" height="2.38"/>
  <rect x="580.51" y="209.41" width="2.99" height="1.17"/>
  <path d="M576.75,189.07c.97.4.97.8,0,1.2v-1.2Z"/>
  <path d="M1140.75,165.16c.97.4.97.8,0,1.2v-1.2Z"/>
  <path d="M1134.75,165.16c.97.4.97.8,0,1.2v-1.2Z"/>
  <path d="M998.25,163.96c.97.4.97.8,0,1.2v-1.2Z"/>
  <path d="M1236.75,156.79c.97.4.97.8,0,1.2v-1.2Z"/>
  <path d="M594.75,119.73c.97.4.97.8,0,1.2v-1.2Z"/>
  <polygon points="1180.49 201.03 1180.49 204.61 1179.02 204.61 1177.5 201.04 1180.49 201.03"/>
  <path d="M1257.75,234.51c.97.4.97.8,0,1.2v-1.2Z"/>
  <text class="st0" transform="translate(1560.7 5.29)"><tspan x="0" y="0">file:///Users/oxo/Downloads/jpg(1)</tspan></text>
</svg>