<?xml version="1.0" encoding="UTF-8"?>
<svg id="Layer_1" xmlns="http://www.w3.org/2000/svg" version="1.1" viewBox="0 0 1920 1080">
  <!-- Generator: Adobe Illustrator 29.5.1, SVG Export Plug-In . SVG Version: 2.1.0 Build 141)  -->
  <polygon points="918 -2.23 917.99 1.36 912.76 1.36 912 -2.23 918 -2.23"/>
  <polygon points="910.5 -2.23 908.24 1.36 906.01 1.35 906 -2.23 910.5 -2.23"/>
  <polygon points="894 -2.23 893.99 1.35 891.76 1.36 889.5 -2.23 894 -2.23"/>
  <polygon points="873 -2.23 871.2 -1.38 870 -2.23 873 -2.23"/>
  <path d="M882-2.23h1.5-1.5Z"/>
  <path d="M859.5-2.23h1.5-1.5Z"/>
  <path d="M891.75,6.14c.32,0,1.14-1.47,2.3-.72l2.93,4.3,2.43-3.55,4.44,1.02,1.54-2.25,9.68.51,1.45,5.47c-6.07-1.57-5.44,3.07-9.78,2.42l-1.49-2.43-1.69,2.44h-5.61s-1.69-2.44-1.69-2.44l-1.7,2.44h-20.61s-1.7-2.44-1.7-2.44c-1.88,4.89-12.81,1.42-18.76,2.41V2.55s12.62-.13,12.62-.13l2.38,3.71,6.01-4.77-4.5,4.77c7.24,0,14.5,0,21.75,0ZM859.49,6.15h-2.99v1.17h2.99v-1.17Z"/>
  <path d="M889.25,97.29c.73.5-.4,2.29,1,2.12l1.73-2.41,15.6.7-.09,5.28c-4.39.87-2.09-3.16-6.75-3.12-3.79.03-3.83,4.91-9.75,3.14,2.85,4.76,1.58,9.79-5.99,8.36l-.02-10.76-2.43,2.42-11.92.06-2.89-2.51-2.22.04c.72,2.41-3,2.59-3.79,3.58-.95,1.2.8,3.85-.64,6.41-2.4,4.26-9.46-3.58-3.1-7.04l-3.49-2.08.7-4.33c2.36-1.25,32.75-.75,34.04.13Z"/>
  <path d="M897,42.01l-2.48,6.06c-9.57-2.21-30.43,2.31-38.02-.68-5.16-2.03-1.97-5.95-2.02-8.58-.04-1.92-1.3-3.74-.99-5.68.66-4.12,5.49-7.54,10.54-4.79l.07,5.83-4.72,1.37c-1.74,2.47-1.08,6.74,3.07,7.18,2.33.25,3.33-.72,3.8-.72h30.75Z"/>
  <path d="M898.52,74.29h1.45c-.44-3.59,6.29-3.2,9.73-3.64.55,3.8,2.78,3.5,5.29,6.02l-11.05.05-.96-2.42-2.43,2.42-14.61-.07-.97,2.42-2.22-2.41c-3.11-.24-4.13-.18-3.78,2.41h-1.46c.2-1.98.15-2.28-2.21-2.44-5.17-.36-3.55,4.22-6.74,2.36-.23-.13.05-2.19-.81-2.33-4.89-.82-4.49,6.29-7.51.02l-.98,2.12-4.2.25-1.56-8.33c13.98,2.1,28.4.23,42.54.08l2.48,3.5Z"/>
  <path d="M911.71,27.9c8.4,10.81,6.15,22.43-13.21,20.09v-5.99s12.51.06,12.51.06l2.55-4.09c-6.3-5.97-16.81-2.85-25.56-3.14l2.48-7.22,21.23.29Z"/>
  <path d="M916.51,18.1v3.58s-43.5,1.19-43.5,1.19c-1.05-3.32,2.14-5.24,5.9-5.44,1.97-.11,3.02,1.54,4.99,1.55,6.68.05,14.88-1.3,21.35-1.44,3.42-.07,7.53,1.1,11.27.56Z"/>
  <path d="M889.51,86.25v4.77s-20.05.03-20.05.03l-1.71-2.43-2.18.07-1.1,2.3c-6,1.24-15.86,1.58-8.43-4.58l33.48-.16Z"/>
  <path d="M856.74,58.47c2.16,1.39,23.6-.36,28.24.86l-1.55,4.19-24.48-.02c-4.3,6.98-6.87-3.06-3.94-7.14,2.48-.5.89,1.57,1.72,2.11Z"/>
  <path d="M916.49,56.36l-.64,6.05-7.35,1.11-1.08,2.32-2.9.04c.63-3.08-5.46-3.65-7.97-2.39-1.65.83-1.04,3.81-7.05,2.42l3.16-7.02c6.97.21,12.77,1.33,19.8-.17,1.8-.39-.06-3.43,4.03-2.36Z"/>
  <path d="M891,91.03l.88-3.68c7.97-2.56,16.49,0,24.61-1.1l-1.49,4.78h-24Z"/>
  <path d="M871.49,18.1c1.13,7.78-11.89,3.96-17.99,4.77-1.41-7.37,12.08-2.8,17.99-4.77Z"/>
  <path d="M914.99,97l-.24,9.97-4.25,1.98c-.13-4.23-1.58-7.76.03-11.95h4.46Z"/>
  <rect x="874.49" y="27.66" width="7.51" height="7.19"/>
</svg>