<?xml version="1.0" encoding="UTF-8"?>
<svg id="Layer_1" xmlns="http://www.w3.org/2000/svg" version="1.1" viewBox="0 0 1920 1080">
  <!-- Generator: Adobe Illustrator 29.5.1, SVG Export Plug-In . SVG Version: 2.1.0 Build 141)  -->
  <defs>
    <style>
      .st0 {
        font-family: MyriadPro-Regular, 'Myriad Pro';
        font-size: 12px;
      }
    </style>
  </defs>
  <path d="M1263-2.23h4.5l.75,3.6.75-3.6h574.5c-1.22,5.69,1.16,12.15,1.24,17.33.07,4.67-2.57,11.61-2.72,14.34-.11,1.91,2.82,3.81,2.97,6.04.91,12.84-1.76,28.58-1.37,41.92.18,6.05,2.67,13.09,1.39,19.61l-135.86-.1c-2.93.23-1.49,3.7-7.24,2.5-.5-.1-3.35-5.97-5.75-.38l-233.67,1.57c-1-.98,2.34-5.95-2.99-4.8v4.8s-6,0-6,0v-4.8s-4.5,0-4.5,0v4.8s-6,0-6,0v-5.99c-2.8-.06-8.11-.55-8.92,1.94l1.41,6.43c-4.05.99-2.44-1.75-3.95-2.44-2.85-1.3-6.21-.01-7.29-3.54-.72-.04-5.94,8.04-9.75,6,.45-3.6.07-7.69-5.24-8.39-.73-.01-1.92,13.83-5.64,6.89-.96-1.79-.18-6.6-3.36-5.69-1.26.36-1.21,5.8-2.34,7.14l-4.4.04-2.27-7.19c-.82,0-2.15,13.55-6.82,4.88l-2.17-.1-1.66,2.44h-4.2s-.96-2.36-.96-2.36l-2.18-.08-1.66,2.44h-4.2s-1.64-2.44-1.64-2.44c-1.08,3.74-4.56,2.37-8.8,2.42-3.57-6.17-2.69.79-7.72,0-1.29-.2-.06-2.5-1.49-2.43l-5.24,3.61-.76-3.61c-2.24,5.55-8.37,2.38-14.24,3.59-1.65-4.54,3.73-3.09,4.5-6.57.85-3.87-4.89.97-5.96-2.49l1.44-12.45c-11.97.19-2.47,7.51-6.01,13.15-3.16.1-2.84.54-2.99-1.77-.13-2.08.57-9.37-.12-10.08-2.22-2.29-7.56-.38-5.87,3.49l2.98-1.22c-.47,3.53,1.77,8.12-2.24,10.75-3.73.01-.29-14.45-4.5-16.73-5,3.26,1.97,14.81-3.02,16.74-3.08,1.19-2.23-2.71-2.49-4.07-.36-1.86-.9-10.23-2.98-4.59l-7.24-2.09v14.34c2.07.32,3.63-.42,4.25-2.02.3-.78-1.71-9.02,2.47-7.53,3.88,1.39-.37,10.1,2.26,13.14h-13.49s-.02-11.95-.02-11.95l-4.47,4.78-.04-9-2.96.65-.76-4.8.84,6.53-3.11,1.23c4.43,3.41.48,8.13,1.5,12.58l-5.99-.02,4.52-11.33-4.51,1.77c-.59-4.55-.68-5.82,4.48-7.77.57-.79-2.17-.37-3.04-1.39-1.55-1.82-2.08-19.7-1.41-22.27,1.38-5.29,17.82-2.29,19.26-3.39l1.65-4.05c-2.35-2.51-1.95-1.22-3.88-.75-3.33.81-6.14.85-8.51,1.42-.47.11-3.64,4.79-8.37,2.18-3.17-1.75,1.26-9.51,3.08-10.37,2.19-1.03,6.63,1.2,5.68-2-.22-.75-1.83-1.77-1.49-3.01-2.26-.56-.99,4.56-4.46,2.38-1.7-1.07-.96-8.19-1.73-10.02-.65-1.55-5.38-1.82-5.03-5.51-3.08,1.64-1.77,2.72-1.6,4.75.4,4.71,1.93,8.9-.39,13.78l2.58,29.71-4.35,1.97c2.4-4.99-2.73-10.48-2.98-13.8-.21-2.84,2.29-6.47-.05-10.1l-4.46,11.37c-3.43,2.54-2.87-1.91-3.86-1.9l-5.17,1.27c.81-3.22,5.6-3.5,4.51-7.16l2.97,2.38c.94-4.7,1.2-10.13,3.12-14.64.46-1.08,2.34-.33,2.99-2.61.22-.77.32-4.46-1.58-2.45l-8.27,12.53-2.23-3.58.75,8.34c-6.03-4.35-2.48-12.04-3.1-17.99l1.95-2.3,12.37-1.23v-4.75s-14.98-.02-14.98-.02c-.09-9.94,7.24-4.82,13.45-8.34-.22,2.34-.04,2.74,3.02,2.37l1.51-5.98-2.95.65-1.53-3.04-.7,3.48c-3.63-.65-6.51.79-6.83-3.47h-1.45c-.31,4.99-6.16,2.65-10.52,3.58-2.51-2.01,6.14-13.84,7.51-5.98h1.47c.51-5.48,10.66-1.05,15.75-3.6l1.51,5.99,6.77-5.38-2.79-.79c2-4.69-1.77-4.64-3.24-8.16h-1.47s-.16,2.29-.16,2.29l-5.91-.61-1.47,3.1-2.22-2.42c-4.66-.68-3.65,2.27-4.5,2.44-4.7.95-3.15-1.34-5.26-3.61-.42-.45-1.06-.77-1.5-1.2-.23-1.1.14-2.44,0-3.59,5.79,2.23,4.93-1.46,9-3.58h7.5ZM1409.98-1.02l-2.98.58-.08,4.65,5.37,1.85c5.11-3.35.62-3.14-1.17-4.72-1.3-1.16-1-2.29-1.14-2.36ZM1346.99,4.94v-1.77s-2.98-1.81-2.98-1.81v3.58s2.98,0,2.98,0ZM1373.99,4.94c.48-2.26-1.75-3.97-4.49-3.58v3.58s4.49,0,4.49,0ZM1381.49,4.94c-.03-4.39-4.46-4.39-4.49,0h4.49ZM1426.49,4.94l-1.44-3.02-4.54-.55v1.17c2.95-.21,5.1-.27,4.51,2.39h1.47ZM1436.99,1.36h-2.99v3.58h2.99V1.36ZM1448.25,1.36v1.2c.97-.4.97-.8,0-1.2ZM1571.25,1.36v1.2c.97-.4.97-.8,0-1.2ZM1730.25,1.36v1.2c.97-.4.97-.8,0-1.2ZM1313.99,7.33l-1.5-4.77h-1.47s-1.52,3.57-1.52,3.57l4.49,1.21ZM1352.99,4.94v-2.38h-1.47v2.38h1.47ZM1363.49,4.94v-2.38h-1.47v2.38h1.47ZM1555.49,4.94v-2.38h-1.47v2.38h1.47ZM1288.48,9.72l-.71-4.74-12.76,1.16v4.79s9.52-1.17,9.52-1.17l.99-2.41,2.97,2.38ZM1297.5,7.32l-2.25-2.36-2.24,1.78,4.49.58ZM1303.49,4.95h-2.99v2.38h2.99v-2.38ZM1305.75,4.94v1.2c.97-.4.97-.8,0-1.2ZM1601.25,4.94v1.2c.97-.4.97-.8,0-1.2ZM1706.99,4.95h-2.99v1.17h2.99v-1.17ZM1502.25,6.14v1.2c.97-.4.97-.8,0-1.2ZM1794.75,6.14v1.2c.97-.4.97-.8,0-1.2ZM1472.99,9.72v-2.38h-1.47v2.38h1.47ZM1610.99,10.92v-3.58h-1.47v3.58h1.47ZM1324.49,13.31v-2.38h-1.47v2.38h1.47ZM1570.5,14.5l-1.52-3.57h-1.47l-1.52,3.57h4.5ZM1281.75,13.31v1.2c.97-.4.97-.8,0-1.2ZM1414.5,14.51l-8.99-1.2c-1.6,5.74,8.49,7.1,8.99,1.2ZM1430.99,16.89l.78-3.56-2.25,1.79v1.77h1.47ZM1439.99,16.89v-3.58h-1.47v3.58h1.47ZM1620.75,13.31v1.2c.97-.4.97-.8,0-1.2ZM1632.75,13.31v1.2c.97-.4.97-.8,0-1.2ZM1667.25,13.31v1.2c.97-.4.97-.8,0-1.2ZM1765.49,16.89v-3.58h-1.47v3.58h1.47ZM1324.49,19.29v-4.78s-1.47,0-1.47,0l-1.48,2.99,2.95,1.78ZM1336.49,14.52l-2.99,3.57,8.99-1.8c.14-3.58-3.98-2.16-3.03.56l-2.2.06-.76-2.4ZM1346.99,16.89v-2.38h-1.47v2.38h1.47ZM1354.49,14.51h-2.99v2.38h2.99v-2.38ZM1363.49,14.51h-2.99v2.38h2.99v-2.38ZM1395,18.09l-1.52-3.57h-1.47s0,3.57,0,3.57h2.99ZM1423.49,14.51h-4.49v2.38h4.49v-2.38ZM1451.99,14.51h-4.49v2.38h4.49v-2.38ZM1259.26,16.92l-2.24,1.78.71.57,2.24-1.78-.71-.57ZM1274.99,25.26l-1.47-8.36c-1.05,2.4-2.69,7.22,1.47,8.36ZM1314,19.28l-2.25-2.36-2.24,1.78,4.49.58ZM1318.5,16.91h-2.99s0,2.38,0,2.38l2.99-2.38ZM1484.99,16.91h-2.99v2.38h2.99v-2.38ZM1280.98,25.26c.98-2.87,3.17-5.87-1.47-7.17v7.17s1.47,0,1.47,0ZM1285.51,18.1c-.92.73.68,4.74,2.24,4.76,4.39.04.55-6.98-2.24-4.76ZM1296,18.11h-2.99s0,3.57,0,3.57h1.47s1.52-3.57,1.52-3.57ZM1303.49,18.11h-4.49v1.17h4.49v-1.17ZM1582.49,18.11h-2.99v1.17h2.99v-1.17ZM1270.49,21.69h-2.99s1.52,3.57,1.52,3.57h1.47s0-3.57,0-3.57ZM1514.25,21.68v1.2c.97-.4.97-.8,0-1.2ZM1502.99,25.26v-2.38h-1.47v2.38h1.47ZM1601.99,22.88h-2.99v2.38h2.99v-2.38ZM1387.5,27.65l-2.99-2.38v2.39s2.99,0,2.99,0ZM1692.75,25.27v1.2c.97-.4.97-.8,0-1.2ZM1294.49,31.26l-1.47-4.79c.38,4.56-2.36,5.17-7.53,4.78l.02,3.58,14.99-1.2c1.42-4.27-4.97-1.61-6.02-2.38ZM1348.49,30.05v-3.58h-1.47v3.58h1.47ZM1371.75,26.47v1.2c.97-.4.97-.8,0-1.2ZM1376.25,26.47v1.2c.97-.4.97-.8,0-1.2ZM1379.25,26.47v1.2c.97-.4.97-.8,0-1.2ZM1382.25,26.47v1.2c.97-.4.97-.8,0-1.2ZM1412.99,26.48l-4.54.55-1.44,3.02h1.47c-.59-2.66,1.56-2.6,4.51-2.4v-1.17ZM1423.49,26.48h-2.99v1.17h2.99v-1.17ZM1427.99,26.48h-2.99v1.17h2.99v-1.17ZM1438.5,26.48h-5.99s0,1.17,0,1.17l4.47,2.4,1.52-3.57ZM1280.98,37.22c.87-1.88.76-2.52.34-4.35-.19-.81-1.64-5.4-3.31-5.2-1.22,3.43-1.77,7.57,2.97,9.55ZM1314,27.67h-2.98s-.97,2.41-.97,2.41c-4.19.85-9.54-2.44-8.04,3.55,2.49.51.66-2.09,2.43-2.42,4.64-.88,16.25-.21,21.54.04l.02-3.58-9.57-.04-1.69,2.44-.75-2.4ZM1337.99,27.67h-2.99v2.38h2.99v-2.38ZM1342.49,30.05v-2.38h-1.47v2.38h1.47ZM1351.49,30.05v-2.38h-1.47v2.38h1.47ZM1552.49,27.67h-2.99v2.38h2.99v-2.38ZM1658.99,30.05v-2.38h-1.47v2.38h1.47ZM1264.49,30.06h-2.99v1.17h2.99v-1.17ZM1571.99,30.06h-2.99v1.17h2.99v-1.17ZM1596,34.82l-1.52-3.57h-1.47l-1.52,3.57h4.5ZM1610.99,37.22l-1.51-5.96h-1.47s0,5.96,0,5.96h2.99ZM1504.49,37.22v-3.58h-1.47v3.58h1.47ZM1711.49,33.65h-2.99v1.17h2.99v-1.17ZM1577.14,36.72c-.62-.49-.85-1.19-.66-1.88h-1.46s0,3.57,0,3.57h4.49s0-1.17,0-1.17c-.86.15-1.73-.03-2.35-.52ZM1292.99,39.61v-2.38h-1.47v2.38h1.47ZM1460.99,37.24h-2.99v1.17h2.99v-1.17ZM1370.99,38.43c-2.38-1.9-6.87,1.68-4.49,3.58s6.87-1.68,4.49-3.58ZM1375.5,38.43h-2.99s0,3.57,0,3.57h1.47s1.52-3.57,1.52-3.57ZM1382.99,38.43h-2.99v1.17h2.99v-1.17ZM1393.5,38.43h-6s1.68,3.44,1.68,3.44l4.31.14v-3.58ZM1414.51,38.43h-7.52v3.58h7.52v-3.58ZM1423.49,38.43c-2.38-1.9-6.87,1.68-4.49,3.58s6.87-1.68,4.49-3.58ZM1433.99,38.43h-4.49s1.52,3.58,1.52,3.58h2.98s0-3.58,0-3.58ZM1627.49,38.43h-2.99v3.58h2.99v-3.58ZM1683.75,38.42v1.2c.97-.4.97-.8,0-1.2ZM1320.22,41.74l-1.71-2.11c.71,3.53-3.21,2.4-6.61,2.36-2.62.2-.91,6.5,3.55,2.71l1.54-1.5.02,2.38h2.23s1.72-2.42,1.72-2.42l6.56.03-.02-3.58-7.27,2.11ZM1337.99,39.62h-4.49c-1.65,7.35,6.52,1.52,4.49,0ZM1351.49,39.62h-5.99v2.38h5.99v-2.38ZM1355.99,39.62h-2.99v2.38h2.99v-2.38ZM1427.99,42v-2.38h-1.47v2.38h1.47ZM1450.49,43.2v-3.58h-1.47v3.58h1.47ZM1519.49,39.62h-4.49c.03,4.39,4.46,4.39,4.49,0ZM1292.99,42.01c-4.53.44-7.91.94-8.99,4.77h9.01s-.02-4.77-.02-4.77ZM1550.99,42.02h-2.99v1.17h2.99v-1.17ZM1301.99,43.21h-2.99v2.38h2.99v-2.38ZM1307.99,43.21h-2.99v2.38h2.99v-2.38ZM1537.49,45.59v-2.38h-1.47v2.38h1.47ZM1253.26,45.62l-2.24,1.78.71.57,2.24-1.78-.71-.57ZM1490.25,45.6v1.2c.97-.4.97-.8,0-1.2ZM1660.49,45.61h-2.99v1.17h2.99v-1.17ZM1693.49,46.8h-4.49v1.17h4.49v-1.17ZM1761.75,46.79v1.2c.97-.4.97-.8,0-1.2ZM1414.37,51.69l-3.63-1.29-2.23,4.15c1.57,1.88,3.23,2.07,5.98,1.8l-.12-4.66ZM1419.01,55.16l3.75,1.17,2.21-1.76-3.72-4.17c-1.86.7-3.18,3.73-2.24,4.76ZM1460.99,50.39h-2.99v1.17h2.99v-1.17ZM1601.25,50.38v1.2c.97-.4.97-.8,0-1.2ZM1336.49,51.58h-2.99s0,2.38,0,2.38l3.76,1.18-.77-3.56ZM1348.49,51.58h-4.49c-1.65,7.35,6.52,1.52,4.49,0ZM1354.49,51.58h-4.49v2.38h4.49v-2.38ZM1369.49,51.57l-2.9,1.71,4.4,5.46-1.5-7.17ZM1585.49,51.58h-2.99v2.38h2.99v-2.38ZM1327.5,56.35c-2.39-4.69-8.59-.21-12.73-2.39l-.76,4.79,2.43-2.42,11.05.03ZM1340.25,53.97v1.2c.97-.4.97-.8,0-1.2ZM1405.49,56.35v-2.38h-1.47v2.38h1.47ZM1503,53.98c-2.74-.43-4.29,1.43-5.91,3.08l2.16,2.88,3.74-5.96ZM1266.75,55.16v1.2c.97-.4.97-.8,0-1.2ZM1460.99,59.94v-4.77h-1.47v4.77h1.47ZM1610.99,55.17h-2.99v1.17h2.99v-1.17ZM1665.75,55.16v1.2c.97-.4.97-.8,0-1.2ZM1445.99,56.36h-2.99s0,3.58,0,3.58l2.97-1.81v-1.77ZM1572,59.93l-1.52-3.57h-1.47l-1.52,3.57h4.5ZM1548,58.76h-2.99s0,3.57,0,3.57h1.47s1.52-3.57,1.52-3.57ZM1427.99,62.33v-2.38h-1.47v2.38h1.47ZM1594.49,59.95h-2.99v2.38h2.99v-2.38ZM1624.49,62.33v-2.38h-1.47v2.38h1.47ZM1322.99,65.92v-2.38h-1.47v2.38h1.47ZM1696.49,65.92v-2.38h-1.47v2.38h1.47ZM1315.49,68.31v-2.38h-1.47v2.38h1.47ZM1510.49,65.93h-2.99v2.38h2.99v-2.38ZM1675.49,68.31v-2.38h-1.47v2.38h1.47ZM1812.75,65.92v1.2c.97-.4.97-.8,0-1.2ZM1292.25,67.12v1.2c.97-.4.97-.8,0-1.2ZM1412.99,74.29l-2.98-7.17-1.51,7.17h4.49ZM1583.99,67.13h-2.99v1.17h2.99v-1.17ZM1635,67.13h-2.99s0,3.57,0,3.57h1.47s1.52-3.57,1.52-3.57ZM1393.48,68.32l-2.88,1.7,2.14,5.44.74-7.15ZM1430.99,71.89v-3.58h-1.47v3.58h1.47ZM1442.99,68.32h-2.99v2.38h2.99v-2.38ZM1450.48,74.28c.97-2.22.97-3.74,0-5.96h-1.47s0,5.97,0,5.97h1.47ZM1460.99,71.89v-3.58s-1.48,0-1.48,0l-1.52,3.57h2.99ZM1528.49,68.32h-2.98s-1.52,3.57-1.52,3.57h4.49s0-3.57,0-3.57ZM1384.49,74.29v-3.58h-1.47v3.58h1.47ZM1469.99,70.71h-2.99v1.17h2.99v-1.17ZM1553.99,74.29v-3.58h-1.47v3.58h1.47ZM1591.49,74.29v-1.77s-2.98-1.81-2.98-1.81v3.58s2.98,0,2.98,0ZM1324.49,71.91h-2.98s-1.51,4.77-1.51,4.77h4.49s0-4.77,0-4.77ZM1433.99,74.29v-2.38h-1.47v2.38h1.47ZM1741.49,74.29v-2.38h-1.47v2.38h1.47ZM1316.99,75.49h-2.99s0,4.78,0,4.78c2.99-.64,3.36-2.55,2.98-4.78ZM1682.99,75.5h-2.99v1.17h2.99v-1.17ZM1303.49,83.85v-7.16s-1.48,0-1.48,0l-1.51,7.16h2.99ZM1386.49,84.22c1.96-1.89,7.36-3.75,7-7.53l-11.79,7.85,1.35,3.42c-7.11,1.64.15,6.95,4.46,2.45.23-2.09-4.53-2.8-1.02-6.18ZM1294.49,83.85v-4.77h-1.47v4.77h1.47ZM1416,79.08l-7.53.57-1.47,4.2c4.6-1.02,3.39,1.46,5.98,2.39,1.04-3,4.54-3.08,3.02-7.16ZM1427.99,79.08c-4.92-.45-8.37.25-7.49,4.77h7.5s-.01-4.77-.01-4.77ZM1443,79.08c-8.94-1.02-11.15,2.12-7.49,8.36-4.92,2.2-16.24-2.61-16.5,3.59l8.05.04,1.7-2.44,1.69,2.44h5.61c2.57-6.65,4.83,2.55,8.45-.04,2.5-1.8-4.32-3.5-4.54-4.2-.5-3.75,4.9-2.69,3.05-7.75ZM1447.51,83.85c2.99.37,5.87-.17,5.99-2.97-1.61-1.85-3.22-2.09-5.99-1.8v4.77ZM1462.49,83.85c.57-2.87-.71-5.07-4.49-4.77v4.77s4.49,0,4.49,0ZM1543.49,82.66l-.74-3.58-2.24,1.8v1.77s2.98,0,2.98,0ZM1342.49,80.27h-2.99v2.38h2.99v-2.38ZM1348.49,82.66v-2.38h-1.47v2.38h1.47ZM1562.99,80.27c-9.18-1.3-1.99,5.17,0,3.58v-3.58ZM1288.48,88.63l1.5-5.97c-3.34.7-3.22,3.59-2.97,5.97h1.47ZM1377.98,85.94l-.22-3.27c-4.47,3.6-6.37,3.73-12.83,4.14l.16,5.38,4.41.03-1.51-3.57,4.5-1.2.02,4.79c9.74,1.29-.65-5.33,5.47-6.3ZM1403.25,82.66v1.2c.97-.4.97-.8,0-1.2ZM1675.49,82.67h-2.99v1.17h2.99v-1.17ZM1285.49,86.24v-2.38h-1.47v2.38h1.47ZM1393.49,86.24v-2.38h-1.47v2.38h1.47ZM1358.99,87.44c-.21-.38-5.23-.23-5.92,1.93,1.7,9.44,2.55,3.12,8.92,2.84.58-1.94-2.27-.5-2.96-2.11-.39-.92.2-2.22-.04-2.66ZM1453.49,92.22c.93-5.38-5.51-6.75-5.99-1.2l5.99,1.2ZM1651.49,87.45h-2.99v1.17h2.99v-1.17ZM1342.48,88.64l-3.64,2.45c1.34,2.29-5.92,4.3-3.83,5.91,2.64,2.04,12.93-3.49,7.47-8.36ZM1348.49,94.61v-5.97s-1.48,0-1.48,0l-1.51,5.96h2.99ZM1395,88.64h-5.99s0,2.37,0,2.37l5.99,1.21v-3.58ZM1400.99,88.64h-2.99s0,3.58,0,3.58l2.97-1.81v-1.77ZM1405.49,88.64h-2.99s0,1.77,0,1.77l2.24,1.8.74-3.58ZM1417.49,88.64l-8.98,1.77c1.28,2.1,10.43,1.63,8.98-1.77ZM1460.99,88.64h-2.99v2.38h2.99v-2.38ZM1383,95.82h-2.99s0,3.57,0,3.57h1.47s1.52-3.57,1.52-3.57ZM1361.99,99.39v-2.38h-1.47v2.38h1.47Z"/>
  <path d="M1240.72,74.02l7.27-2.13v3.61s2.99-1.22,2.99-1.22l.09,4.12-7.56,1.9,2.97,8.33-4.51-.69c-.75-2.49,2.48-8.65-2.96-7.67l-1.51,11.96c5.16-3.06,3.61,2.95,0,3.58-.42-6.17-6.5-10.06-4.53-16.74l-3,4.78-4.47-3.58-1.53,5.96-4.56-5.27c.6-2.7,2.6-5.31,6-6.18,4.84-1.24,13.34,2.17,13.59-2.88l1.7,2.11Z"/>
  <path d="M1233,38.43c-1.63,4.37,2.77,9.5-5.27,9.36l-1.47-2.19-5.26,2.38-.08-1.84c-5.85,1.45-4.39-4.47-4.41-7.71h16.49ZM1225.49,43.2v-3.58h-1.47v3.58h1.47Z"/>
  <path d="M1244.82,33.49l-5.81.15c-1.17-4.82,1.8-10.34,7.34-5.28l-1.52,5.13Z"/>
  <path d="M1228.49,86.25c2.1,2.29-5.33,11.55-7.49,9.55-1.98-1.84.93-3.01,1.96-3.88,3.88-3.29.77-6.05,5.53-5.67Z"/>
  <path d="M1316.99,99.4c.67,3.61-1.3,5.31-5.99,4.77-.67-3.61,1.3-5.31,5.99-4.77Z"/>
  <path d="M1258.48,80.28c-4.77-1.19-5.12-1.89-4.47-5.98l7.47.59-2.99,5.4Z"/>
  <path d="M1303.51,104.18c-1.09-.87.56-5.33,3.72-4.77,5.54.97-.83,7.08-3.72,4.77Z"/>
  <path d="M1216.49,99.4c-5.7.98-1.09-4.43-.81-7,.23-2.05-1.03-4.08-.68-6.15,6.31,2.45-.15,8.83,1.48,13.15Z"/>
  <path d="M1244.99,95.81h-2.99s0-4.78,0-4.78c2.99.64,3.36,2.55,2.98,4.78Z"/>
  <polygon points="1224 87.45 1222.48 91.02 1221.02 91.02 1219.51 86.25 1224 87.45"/>
  <rect x="1282.51" y="100.6" width="2.99" height="3.58"/>
  <polygon points="1222.49 63.54 1221.76 67.11 1219.51 65.31 1219.51 63.54 1222.49 63.54"/>
  <polygon points="1247.99 104.18 1245 104.17 1246.52 100.6 1247.99 100.6 1247.99 104.18"/>
  <rect x="1243.51" y="56.36" width="2.99" height="2.38"/>
  <polygon points="1228.49 104.18 1225.5 104.17 1227.02 100.6 1228.49 100.6 1228.49 104.18"/>
  <rect x="1318.51" y="99.41" width="4.49" height="1.17"/>
  <rect x="1234.51" y="62.34" width="1.47" height="3.58"/>
  <polygon points="1235.99 106.57 1234.51 106.57 1234.51 104.8 1236.76 103.01 1235.99 106.57"/>
  <path d="M1244.25,62.33c.97.4.97.8,0,1.2v-1.2Z"/>
  <path d="M1218.75,102.99c.97.4.97.8,0,1.2v-1.2Z"/>
  <text class="st0" transform="translate(1560.7 5.29)"><tspan x="0" y="0">file:///Users/oxo/Downloads/jpg(1)</tspan></text>
</svg>