<?xml version="1.0" encoding="UTF-8"?>
<svg id="Layer_1" xmlns="http://www.w3.org/2000/svg" version="1.1" viewBox="0 0 1920 1080">
  <!-- Generator: Adobe Illustrator 29.5.1, SVG Export Plug-In . SVG Version: 2.1.0 Build 141)  -->
  <defs>
    <style>
      .st0 {
        font-family: MyriadPro-Regular, 'Myriad Pro';
        font-size: 12px;
      }
    </style>
  </defs>
  <text class="st0" transform="translate(1560.7 5.29)"><tspan x="0" y="0">file:///Users/oxo/Downloads/jpg(1)</tspan></text>
  <g>
    <path d="M509.61,505.1c6.2,2.79,12.16,3.64,19.42,6.81,36.31,15.82,49.34,54.71,51.53,86.63,3.01,43.92-.21,89.91,1.5,134.02-2.31,30.73-10.52,67.45-44.72,85.42-5.58,2.93-11.91,3.16-17.22,4.88-1.28.42-1.09,2.11-2.14,2.29-8.43,1.46-28.57,1.49-36.98,0-1.08-.19-.77-1.97-2.09-2.32-6.64-1.75-6.55-.71-13.45-3.66-47.09-20.08-51.6-55.19-51.53-95.1.07-38.55-3.15-77.77-2.39-116.92.65-33.65,8.05-72.92,44.01-94.08,8.35-4.91,45.11-12.02,54.06-7.98ZM471,525.04l-1.51-4.77h-1.47s0,4.77,0,4.77h2.99ZM473.99,539.39v-3.58h-1.47v3.58h1.47ZM484.49,569.29c-3.48-3.24-4.59,7.23-.74,8.36l.74-8.36ZM497.98,582.44h-4.47c-.03,4.84-.61,9.7,1.51,14.34,2.35.02,2.44-4.15,2.74-5.58.63-2.95,1.43-5.81.22-8.76ZM487.48,601.56l1.57-7.71-3.04-7.81-1.56,5.36,3.02,10.17ZM501.38,746.61c1.79-1.12,7.42-.16,9.37-2.76,1.63-2.19,3.57-18.31,3.82-22.06,2.1-31.34.6-67.89-1.57-99.21-.76-10.98,1.53-22.82-5.24-32.94-6.43,4.72-8.19,8.57-9.92,15.38l-4.91.17-.96-2.38-2.95-.04c-.68,5.69-6.05,10.82-7.16,16.43-5.74,29.02-1.45,73.88,1.14,103.74.66,7.65-1.35,15.07,3.95,22.22l10.08,1.08c3.47,5.85,3.52.9,4.36.38ZM572.99,662.54v-3.58h-1.47v3.58h1.47ZM572.25,666.14v1.2c.97-.4.97-.8,0-1.2Z"/>
    <rect x="1186.51" y="446.14" width="1.47" height="3.58"/>
  </g>
</svg>