<?xml version="1.0" encoding="UTF-8"?>
<svg id="Layer_1" xmlns="http://www.w3.org/2000/svg" version="1.1" viewBox="0 0 1920 1080">
  <!-- Generator: Adobe Illustrator 29.5.1, SVG Export Plug-In . SVG Version: 2.1.0 Build 141)  -->
  <path d="M1920,152.01l-3.01-5.97c-3.24,1.6-5.61,3.92-4.38,7.1l4.48.72-1.59,10.12h-22.5c-1.54-3.76-2.28-6.93.21-10.6l14.81-.77-1.67-6.44c-6.11,1.19-20.03-1.73-14.2-8.57,2.05-2.41,16.71-.48,20.94-1.19l3.89,4.86,3.01-4.78v15.54Z"/>
  <path d="M1920,193.86v8.37l-3.02.66.02,4.13h3s0,8.37,0,8.37c-4.25.65-8.56-.74-12.49-.77s-15.4,2.74-16.12-2.19c-1.65-11.34,11.17-4.55,19.61-5.42l-5.53-4.75-12.47-.02v-8.38s27.01,0,27.01,0Z"/>
  <path d="M1920,670.92c-5.99-1-1.66,7.13-3.01,8.37h-5.99s0-7.18,0-7.18l-18.03-.68v-5.3c5.78,2,8.02-2.29,8.51-2.38,2.52-.46,8.17.65,9.32-.17l2.44-4.6,6.75,4.76v7.17Z"/>
  <path d="M1890-2.23h30V2.55c-4.26-2.81-3.9,2.62-6.98,3.4-1.96.5-4.4.23-6.44.12l-1.56-3.51c-3.09,9.74-14.86,2.28-15.02-4.79Z"/>
  <path d="M1920,9.73v4.78c-2.93-.7-3.34-2.47-2.99-4.78h2.99Z"/>
  <path d="M1894.5,902.87c-1.38-3.4-2.14-6.11.21-9.4,3.16-1.74,21.58,3.04,13.8-5-3.74-.43-13.91,1.61-15.31-1.9l-.21-6.42h18s-1.56-8.31-1.56-8.31l-14.94-.05.66-7.26,20.35-1.12-1.51,16.74,4.59.63c-2.23,7.8.66,14.6-1.58,22.09h-22.5Z"/>
  <path d="M1918.5,377.99l-18.55-.04-2.43,2.42-3.01-10.75c4.71-.89,2.12,3.24,6.76,3.66,4.04.37,9.58-2.27,14.24-1.28l-7.52-23.9-4.41,7.77c-.01,2.67,5.04,5.62,2.23,9.01-9.1,1.76-12.89,1.2-11.31-7.22h6.01c-1.28-2.79-1.82-4.14-5.9-3.64l.55-4.81c2.46-2.83,10.57,1.55,8.3-4.67l-3.87-.46-5.09-4.35c3.69,1.28,4.68-2.23,5.53-2.38,2.52-.45,5.88.17,8.73,0,3.71-.22,7.07-2.67,9.74.58v40.05Z"/>
  <path d="M1891.5,593.8c.13-.62,1.49-1.87,1.78-2.78,5.26-.79,12.26-.95,17.19-2.39,3.14-.92.83-3.38,5.02-2.59l-.24,24.95c-5.94-1.16-8.02,6.27-10.99.13h-3.01c-1.14,3.94-5.47,2.17-9.75,2.42.9-6.02-1.24-14.01,0-19.73Z"/>
  <path d="M1893,278.75c-1.54-3.76-2.28-6.93.21-10.6l17.8-.17v-3.58s-18.08-.54-18.08-.54c-6.23-11.64,11.49-7.33,20.77-7.58,4.61,6.45,6.16,15.3,3.3,22.47h-24Z"/>
  <path d="M1891.5,474.83c-1.11-3.1,1.36-6.54,1.38-9.09.03-3.89.05-8.14,0-11.96-.04-3.12-2.41-5.71-1.12-9.19,1.84-4.99,11.76-2.83,16.78-3.21l1.71-2.43c3.5-.77,4.47,5.7,3.11,7.27l-15.71,1.24-1.65,7.04,14.04.03,3.95-2.41-.19,7.01-16.31,1.35c-.24,1.94-.01,9.12,2.41,9.63,5.48,1.15,5.04-2.24,6.09-2.44,2.77-.52,6.52.28,9.5,0l-1.5,7.17h-22.5Z"/>
  <path d="M1918.5,47.99v8.38c-4.73.14-9.56-.21-14.3-.01-3.41.14-2.18.63-2.21,2.99l9.56.58.97,2.4h2.98s1.49-2.36,1.49-2.36l1.52,7.16c-6.08-1.5-19.75,2.34-23.99.62-4.9-1.98-1.69-4.75-1.8-7.18-.09-1.92-1.52-3.52-1.01-5.71.09-.38,3.82-6.85,4.3-6.85h22.5Z"/>
  <path d="M1915.5,943.53h-21c-.44-3.42-2.35-6.14.21-9.41,4.64-.49,9.39.03,14.06-.16,2.46-.1,4.17-1.05,2.22-2.39l-16.34-.13-1.02-7.1c1.96-2.17,17.92-1.17,21.96-.62,2.59,6.49,3.33,13.39-.1,19.8Z"/>
  <path d="M1915.51,515.48c2.39,7.53-9.05,9.41-4.31,16.61l5.82.14c.79,5.73-7.43,7.82-9.03,11.94h-1.45c-2.35-8.06-17.9,1.81-15.03-10.75l15.09-1.87c1.76-10-5.6-7.61-15.08-7.7-1.95-11.17,14.63-7.77,24.01-8.36Z"/>
  <path d="M1915.5,817.98h-22.5l.2-7.02,17.81-1.36v-3.58s-18.01,0-18.01,0l.66-7.26c1.75-2.11,17.96-1.16,21.94-.6,3.29,1.74.89,16.13-.1,19.8Z"/>
  <path d="M1915.16,709.45c4.1,6.58,3.69,12.48-1.46,18.62-14.58,1.35-21.96.75-20.69-12.31,1.05-10.72,11.46-8.67,22.15-6.31ZM1911.01,716.36h-12.02v3.58h12.02v-3.58Z"/>
  <path d="M1915.51,839.5c-1.01,4.26,2.06,8.54,1.63,12.57-1.12,10.55-18.46,8.72-12.13-1.79-3.5.4-4.12,0-5.26-2.41l-2.26,3.59,4.38.07.14,7.12-8.94-.06c-.23-3.49-1.65-6.3-1.45-9.93.7-12.49,11.96-8.76,23.89-9.16ZM1910.99,850.27h-2.99v3.58h2.99v-3.58Z"/>
  <path d="M1894.5,969.83c-.39-3.51-2.34-7.48,3-8.94-3.8-3.16-3.11-7.32-3.01-11.39l22.4-1.1c2.07,6.29,1.83,8.73-6.87,9.39-4.38.33-10.96-2.59-9.53,3.67l16.35.13c.45,3.07,3.44,6.11-.6,8.24h-21.75Z"/>
  <path d="M1913.57,684.42c3.82,2.46,4.15,9.67,3.35,13.35-1.83,8.45-12.25,5.04-20.62,5.18-4.29-4.25-5.21-14.11-.38-18.04,3.16-2.57,14.04-2.82,17.65-.49ZM1910.99,694.82c-.21-5.55-7.5-3.4-11.99-2.36-.47,4.85,8.36,3.45,11.99,2.36Z"/>
  <path d="M1891.5,564.51c-2.14-9.54,7.65-7.38,15.79-8.3,3.37-.38,1.71-1.53,3.7-3.06l-19.5-.6v-4.77c5.44.73,6.09-.11,9.65-2.49l14.36.09c.86,6.89,1.47,12.44-1.51,19.14h-22.5Z"/>
  <path d="M1918.5,988.96v5.97c-6.41-.68-7.21,4.18-15.01,2.4v3.58s9.55.03,9.55.03c3.37-6.9,8.26,3.08,3.2,5.96h-21.75c1.07-2.45-1.4-17.93,2.25-17.93h21.75Z"/>
  <path d="M1915.49,569.28c.88,5.15,4.32,14.46-4.33,16.23-3.55.73-6.88.03-9.67.52-1.16.21-.85,2.16-2,2.37-2.39.44-5.46-.19-8.01,0-.94-10.54,6-9.62,16.5-10.77.35-2.09-3.41-1.13-5.23-1.18-3.74-.12-7.53.09-11.26,0l1.71-5.81,22.28-1.37Z"/>
  <path d="M1894.5,1032.6c20.45-9.93,28.21,2.44,20.81,17.19l-7.32.14c-2.11-4.26,7.63-11.07-.76-12-13.59-1.52,1.24,14.33-12.73,12v-17.34Z"/>
  <path d="M1917,71.9v8.38s-19.49,0-19.49,0c-.33,3.13-.21,1.99,2.25,2.35,5.58.82,11.55,1.32,17.25,1.23l-.77,8.39c-6.06.35-5.88-2.78-7.86-3.54-3.61-1.38-9.63-1.38-13.54-2.71l-3.41-11.07c5.28-.05,4.23-3.02,4.58-3.02h21Z"/>
  <path d="M1894.5,189.07l-2.9-10.02c1.59-4.64,20.63,3.83,20.9-4.33l-4.6-.65.95-5.35,6.65.02-1.51,8.36,4.59.63-3.08,11.33h-21Z"/>
  <path d="M1893,13.31c.57-.46,8.6.44,11.01,0,1.22-.23.21-3.44,6.01-2.38.42.08,5.7,4.73,5.89,5.04,2.75,4.38-.66,9.54-2.09,13.94l-7.31.14,1.51-10.14c-.47-2.87-7.89,2.41-8.56,3.32-1.67,2.25-.22,8.34-6.45,8.03V13.31Z"/>
  <path d="M1893,655.38c2.5-8.86-11.46-20.78,6.73-21.54,1.76.07.51,4.96.11,6.12-.87,2.51-5.5,2.13-3.83,5.25,2.38,4.46,14.58-.21,17.96,1.14,4.6,1.84,3.45,9.03.78,9.03h-21.75Z"/>
  <path d="M1893,241.68c-2.36-3.47-2.04-10.32,3.68-10.84,11.13-1.02,27.06-1.46,20.32,10.84h-24Z"/>
  <path d="M1913.7,614.97c2.4,1.1,3.92,7.58,3.35,9.94-.19.77-4.55,4.88-4.91,5.03-1.61.64-16,.69-17.33.07-3.56-1.64-3.92-9.09-1.01-11.7,1.06-.95,3.13-.99,4.63-1.69.58-.27.59-1.68,1.62-1.87,1.89-.35,12.44-.34,13.66.22ZM1911,619.51c-6.97-.86-12.67.12-15,5.97,6.86.37,15.03,1.03,15-5.97Z"/>
  <path d="M1915.5,411.46c2.21,7.33,3.34,16.15-2.26,22.75l-3.86-.73c-3.75-6.04.46-10.32,1.62-16.03l-17.85-.11-.14-5.88h22.5Z"/>
  <path d="M1897.39,109.08l1.07,2.29,15.61.52,2.29,7.88c-2.34,2.6-16.32.31-20.88,1.14-1.15.21-1.12,3.78-5.48,2.39-.46-3.28.2-5.93,1.43-9.02.73-1.84,3.47-6.64,5.95-5.21Z"/>
  <path d="M1917.01,1011.67v14.36s-7.52,0-7.52,0l.02-4.8-15.14-.7c-4.32-11.06,13.08-8.92,22.64-8.86Z"/>
  <path d="M1917,218.96l1.41,6.44-2.16,1.93h-22.5c-4.12-2.28-1.53-5.27-.75-8.37h24Z"/>
  <path d="M1916.97,907.68l1.43,7.6c-.85,2.7-18.04,2.47-21.65,1.94-5.78-.85-3.78-4.94-2.04-8.21l22.26-1.33Z"/>
  <path d="M1917,244.07c1.44,6.16,3.26,10.76-6.83,9.66-2.94-.32-1.91-2.23-3.17-2.47-3.03-.58-14.64.61-15.5-.01l1.5-7.17h24Z"/>
  <path d="M1899.29,772.28c6.17,2.95,9.17-2,9.72-2.11,8.25-1.62,8.02,2.9,7.99,8.35-.92.65-13.78-.6-17.01.01-.81.15-1.79,4.06-6.99,2.39l-1.5-11.96c6.26-1.65,6.52,2.72,7.78,3.32Z"/>
  <path d="M1917,758.2l-1.4,7.85c-3.71.64-23.81,1.63-24.05-1.26l2.96-6.59h22.5Z"/>
  <polygon points="1918.5 974.61 1918.5 982.98 1894.5 982.98 1896 974.61 1918.5 974.61"/>
  <path d="M1897.04,735.7c11.38-2.72,7.67,5.63,7.17,9.9-.25,2.17,2.93,6.43-1.67,7.65-12.96,3.44-10.51-9.73-8.18-16.08.73-.66,1.61-1.22,2.68-1.47ZM1900.49,743.86h-2.99v2.38h2.99v-2.38Z"/>
  <path d="M1916.79,35c6.56,12.3-7.46,6.72-15.29,8.22-1.09.21-.55,3.58-6.01,2.42-.73-.16-3.48-3.79-3.7-4.48-1.94-6.08,9.41-3.13,13.71-3.93,1.13-.21.85-2.16,1.99-2.37,1.52-.28,8.44-.31,9.29.15Z"/>
  <path d="M1906.14,496.69c.36.14,4.72,4.24,4.91,5.02.98,3.99-1.39,11.39-7.54,10.19l1.49-8.36-6.1.51-1.48,5.41-5.91.06c-3-6.69,6.22-16.09,14.63-12.82Z"/>
  <path d="M1893,792.87v-7.18s23.79-1.03,23.79-1.03c2.14,2.89,1.37,5.21.21,8.21h-24Z"/>
  <path d="M1889.61,337.65c.89.66,2.55,4.15,1.89,4.47h-4.51c.25,4.64,4.27,7.33,2.98,12.51-.45,1.82-3.02,3.26-2.74,4.61s3.96,3.1,2.75,5.6l-6.63-3.56-3.84,3.56c1.48-4.43,1.35-7.52,0-11.95l5.96,3.57,3.17-4.13-2.4-4.22-6.72,3.57c-1.63-5.88,1.49-6.61,4.5-10.75-1.07-.56-6.52,1.46-4.5-2.99,1.23-2.71,7.78-2.01,10.1-.29Z"/>
  <path d="M1893,302.66l1.52-9.56c3.75-1.2,2.49,2.15,3.93,2.41,1.72.31,5.52.24,7.41.07,3.01-.27,1.27-2.29,4.34-2.56,6.55-.58,5.09,5.78,5.3,9.65h-22.5Z"/>
  <path d="M1909.5,483.2v11.97s-4.49,0-4.49,0l-.08-3.48c-8.75-.53-17.84,2.43-13.27-7.16l17.84-1.32Z"/>
  <path d="M1912.46,733.12c-.27,2.48,2.99,2.65,4.22,4.36,3.63,5.07-1.19,14.28-5.78,10.37-4.05-3.44-3.59-9.89-1.46-14.08l3.02-.65Z"/>
  <path d="M1889.99,368.42c1.83,3.37-5.13,5.69-4.49,7.76,9.96,3.95,1.3,6.24-6,5.39.86-6.31.57-13.29,10.49-13.14Z"/>
  <path d="M1915.5,633.85c1.03,7.28-.32,4.63-3.93,6.4-1.22.6-1.35,3.48-6.39,1.81l-1.04-7.1,11.37-1.12Z"/>
  <polygon points="1912.4 125.76 1914.01 135.27 1906.49 135.27 1907.88 126.41 1912.4 125.76"/>
  <path d="M1915.51,284.73l-.67,6.05c-1.3,1.59-4.63,1.11-6.83,1.13v-7.18s7.5,0,7.5,0Z"/>
  <path d="M1902.01,168.75c1.01,5.89-2.29,6.5-9,5.98v-5.99s9,.01,9,.01Z"/>
  <path d="M1915.51,102.98v5.99c-4.87.76-10.94-1.84-8.25-5.99h8.25Z"/>
  <path d="M1898.99,124.5c1.66,11.2-7.65,11.16-5.98,0h5.98Z"/>
  <path d="M1889.25,838.31c.97.4.97.8,0,1.2v-1.2Z"/>
</svg>