<?xml version="1.0" encoding="UTF-8"?>
<svg id="Layer_1" xmlns="http://www.w3.org/2000/svg" version="1.1" viewBox="0 0 1920 1080">
  <!-- Generator: Adobe Illustrator 29.5.1, SVG Export Plug-In . SVG Version: 2.1.0 Build 141)  -->
  <path d="M1086-2.23h27l-3.75,3.61c-3.15-6.06-5.41-.18-6.23-.02-5.98,1.1-17.86,0-25.01,1.21-1.26.21-.23,2.09-3.16,2.47s-6.44.63-5.34-2.46c3.12-.3,5.47-.74,6.37-3.27l7.13-1.53c.49-.04,1.01.04,1.5,0,.08,0-.21,1.17.75,1.17l.75-1.17Z"/>
  <path d="M1153.5-2.23c.15,3.16,1.02,4.11-3.83,3.64-3.77-.37-.87-2.62-3.65-2.43l-.02,3.6-16.51.59c1.06,6.26,14.58,1.7,16.44,3.08l.08,3.49c4.16,1.59,3.77-7.74,6.77-3.61,4.26,5.88-.75,7.76-.79,10.18-.04,2.15,7.03,6.69.77,10.14-9.09-6.76-2.85-7.26-1.44-11.81,1.4-4.53-3.99-5.22-6.06-.14l-2.28-3.56c-2.64.2-.39,2.09-4.29,2.9-2.08.43-13.35.77-14.5-.49l1.05-7.06,4.27-.14-4.51-8.36h28.5ZM1141.49,9.72v-2.38h-1.47v2.38h1.47Z"/>
  <path d="M1062-2.23c-1.47,2.17-5.59.78-7.99,1.21-1.19.21-.84,2.16-2.01,2.37-3.4.59-8-.54-11.73,1.22l.73-4.8h21Z"/>
  <polygon points="1122 -2.23 1119.76 4.95 1114.5 -2.23 1122 -2.23"/>
  <path d="M1073.97,31.26l3.04,5.96,2.97-2.38c.91,2.78,3.5,9.78,7.51,7.77l-4.49-7.16c1.01-3.03,10.29-.18,12.1-1.24s.3-4.01,4.36-2.95c.08,4.12,5.61,2.44,6.78,5.98,1.36.1.51-4.33,5.99-3.61,1.94.26-1.29,4.74,3.74,3.6l1.39-5.28,4.62-.71c-.02,1.87.94,7.86-2.2,8.04-.99.06-2.7-.9-4.35-.75-8.04.73-11.61-.99-13.71-.91s-3.2,3.62-8.96-.41c-5.51,2.92.02,6.48.14,8.97s-3.95,6.81-2.44,10.17l-7.47-8.36,1.45,6.58c-1.83,2.07-2.61,1.72-5.19.57l.71,3.6-3.1-4.09,3.1-3.08-7.48,3.58-.02-4.79c-6.26-.84-.76,3.91-1.78,5.73-.13.24-4.69,3.5-5.71,2.64l2.98-7.16-5.25,2.4c-5.2-13.53,15.45-4.36,18.66-7.28l.05-7.04c-2.88-1-12.54.87-13.45-1.86-.14-1.87,3.19-8.13,5.98-6.54ZM1088.25,37.23v1.2c.97-.4.97-.8,0-1.2Z"/>
  <path d="M1119,97.01c-1-1.12-4.26-.65-1.34-4.03,3.18-3.68,6.57,1.24,5.86-2.55-.66-3.52-7.12-9.03-12.01-7.77.27,2.42-.28,4.66-1.08,6.98-.73,2.12.49,3.11-3.42,2.58,3.66-4.08,3.22-8.34,2.99-13.15l23.05.03.97-2.4h2.98c-.58,4.73.55,10.3,3.13,14.61.71,1.19,2.96.88,2.94,1.54-.03,1.14-5.25,8.57-6.05,7.75,1.72-2.88-3-3.93-3.01-4.29-.08-2.19,2.15-5.57-.01-8.86l-4.47,3.58-4.51-4.77v8.37s-1.51,1.2-1.51,1.2l-3-.63-1.5,1.82ZM1123.49,82.66v-2.38h-1.47v2.38h1.47ZM1130.25,82.66v1.2c.97-.4.97-.8,0-1.2ZM1137.75,91.03v1.2c.97-.4.97-.8,0-1.2Z"/>
  <path d="M1125,94.62c.36-.19,1.46.32,2-.02,1.66-1.01.17-2.76,2.49-2.37l.11,6.52-3.5.61-1.11,4.82c-3.43-.76-2.8-2.84-1.47-4.77-5.88.9-3.93-1.74-4.52-2.4,2.86.86,3.93-1,4.5-1.2.81-.28,1.11-.99,1.5-1.2ZM1127.25,95.81v1.2c.97-.4.97-.8,0-1.2Z"/>
  <path d="M1093.5,14.51c-3.2-.03-6.71-.99-6.02,2.38h-1.47s-1.5-3.57-1.5-3.57c-.18,2.18,1.52,3.39-2.21,3.6-8.09.47-17.13.83-24.79,2.37-1.11-3.34,2.31-1.68,3.46-3.86,1.75-3.28-.83-5.39,5.52-4.52l.75,3.59c3.98-7.37,16.21-2.96,23.72-4.79,1.95-.48.02-2.86,2.52-2.37v7.17Z"/>
  <path d="M1092,21.68l2.97-.02.95-2.39c8.57-1,5.71,3.94,3.48,8.39l-5.07-1.08c-1.62.27-4.14,7.81-7.59,1.07-1.1,3.7-4.09,2.31-8.25,2.41v-7.18c5.36-1.04,3.14,1.4,5.98,2.39l1.48-3.11,3.83.57.73-3.42,1.49,2.38Z"/>
  <path d="M1123.49,45.6c1.6,1.21-10.27,11.15-3.72,16.84,1.82,1.58,4.93-2.17,3.7,3.45l-8.97,1.23v-7.16s-4.49,2.38-4.49,2.38l4.49-3.59c1.12-3.98-2.83-1.71-4.52-2.4,2.28-8.61,1.3-11.12,13.51-10.75ZM1117.5,50.39h-2.99s0,3.57,0,3.57h1.47s1.52-3.57,1.52-3.57Z"/>
  <path d="M1071,80.28l1.49,2.38,3.01-2.38v7.17s4.49-1.2,4.49-1.2c2.15,4.17-2.85,4.97-3.02,5.57-1.07,3.77,3.77,11.7,4.53,15.94-1.72-.21-4.1.88-4.47-.82-.66-3.01-2.44-5.48-2.77-7.2-.54-2.86,3.56-6.19-1.02-8.7l-.76,9.55-1.5-4.78-5.98,3.58,1.53-4.76,2.95,1.19,4.51-11.95-6-1.23,2.99-2.37Z"/>
  <path d="M1075.5,58.75c4.11,7.87,4.47,1.29,5.24,1.17,5.59-.89,1.77,3.15,6.76,2.41l-2.99-5.97,4.51,5.97,4.48-3.57-1.51,8.36c-4.75-1.91-10.73,1.47-12.75-3.59-3.71-.78-1.88,4.28-6.73,3.59-.18-2.45.54-4.88,1.49-7.17.88-.21,1.67,0,1.5-1.2Z"/>
  <path d="M1074,58.75c-.22.19.17.8,0,1.2-5.48,1.31-3.93,2.97-4.55,7.14-3.06.2-8.9.76-8.92-2.88,0-.48,1.28-4.11,1.49-4.25,4.04-2.78,1.65,5.01,5.22,3.58,1.97-.79,2.75-5.14,6.76-4.78Z"/>
  <path d="M1075.5,58.75h-1.5l.75-2.4c1.54-.04.35,1.64.75,2.4Z"/>
  <path d="M1141.06,31.64c1.42.88.87,3.79,4.84,2.07l1.59,3.51,2.25-7.16,3.76,7.16-4.47-2.38c-.13,1.49-1.3,4.09-3.76,3.58-2.12-.44-1.19-4.88-5.26-3.59l-.02,3.58h-14.98c0-2.13-.93-7.79,2.36-8.23,1.21-.16,3.09.96,4.55.91,3.7-.13,5.74-1.57,9.15.55ZM1136.99,37.22l.78-3.56-2.25,1.79v1.77h1.47Z"/>
  <path d="M1131,56.36c-.34-2.93-.42-5.4-.01-8.36l-4.48,3.58v-5.98s5.77.17,5.77.17c3.76,3.81-3.48,10.32,4.72,10.58-2.73-3.39,3.2-5.35,3.02-7.75l-4.52-.61,1.52-4.77,2.23,2.4c.09-2.13,3.96-3.51,5.24-2.4,1.65,1.43-5.67,9.88-1.64,12.64l-2.92,1.18c2.29,3.13.51,5.66.05,8.9-5.27.88-2-3.83-3.44-6.87-.4-.84-4.06-2.62-5.54-2.69.22,1.86,1.88,3.9,1.49,5.97-1.35.05-4.16-3.69-4.43-4.24-1.05-2.15,1.12-1.82,2.94-1.74Z"/>
  <path d="M1135.52,21.68l1.49-3.59h4.49c-.13,2.94,1.23,6.34-2.24,8.36l-2.27-3.56-2.97,2.38-.76-3.59-1.63,3.72-6.61,1.07.2-7,7.88-1.3,2.43,3.52Z"/>
  <path d="M1112.99,19.29l2.26,5.99.89-5.89,5.86-.11c1.65,10.95-3.86,7.66-13.5,7.18-.46-.25,0-8.75,4.5-7.17Z"/>
  <path d="M1111.5,45.61l-1.55,5.93h-8.01c-1.57.27,0,3.7-3.94,2.43l-1.49-8.37h14.99Z"/>
  <path d="M1052.77,80.55l.98,2.13,1.7-2.44c2.2.46,8.79-1.53,8.04,1.82-2.07,1.99-6.61,1.07-6.01,4.19l-2.22-2.41c-4.18-.78-3.99,3.08-8.25,3.62l1.51-7.18,4.25.28Z"/>
  <path d="M1050.03,58.74l2.21.02,2.25-2.39v3.57s-4.61.72-4.61.72l-.61,6.45c-3.36-2.42-4.63-5.12-2.26-8.34h-6.01s.01-3.58.01-3.58c4.49-1.39,8.31-.5,9.02,3.56Z"/>
  <polygon points="1102.49 92.23 1100.99 99.4 1097.25 97 1093.51 99.39 1093.5 92.23 1102.49 92.23"/>
  <path d="M1090.49,79.07v8.38c-4.28.42-8.42-.23-7.54-4.15.07-.31,4.66-1.22,3.1-4.18l4.45-.05Z"/>
  <path d="M1132.51,106.57c.2-4.11,2.84-4.06,5.9-1.37l1.57,1.38c.29-4.84,3.99-2.16,7.14-3.16,2.56-.81.9-3.09,3.37-2.81,2.35,10.72-9.87,6.81-17.98,5.97Z"/>
  <path d="M1105.49,56.35l1.46,5.32-5.94.65c-.5,3.72,3.85,3.91,2.99,8.37h-4.5c2.26-3.93-.98-6.06-1.46-9.02-.72-4.47,1.15-2.17,3.25-2.99s.16-3.21,4.19-2.34Z"/>
  <path d="M1054.48,53.96c-4.68-1.96-2.76-7.63-1.47-10.75,1.9,0,4.47,4.61,4.47,5.37,0,1.76-3.04,3.41-3.01,5.37Z"/>
  <path d="M1043.67,50.17c-1.78,1.28-7.62.4-10.16,1.4v-3.57c3.59-.79,7.32.44,9.75-2.39,2.63.97,1.88,3.51.42,4.56Z"/>
  <path d="M1063.47,42c-4.25,2.57-5.65-8.07.78-8.34,4.29.91.05,7.83-.78,8.34Z"/>
  <path d="M1066.51,27.66c1.2-10.68,14.7-4.13,5.9-.61-1.55.62-4.02-.35-5.9.61Z"/>
  <path d="M1063.49,22.88c.44.35-.14,7.33-2.97,7.16-.61-4.1-6.32-2.28-2.88-7.06l5.85-.1Z"/>
  <path d="M1121.99,6.14c.59.47-.15,8.78-4.49,7.16v-7.17s4.49.01,4.49.01Z"/>
  <polygon points="1153.28 43.39 1153.49 47.98 1147.72 46.61 1147.51 42.01 1153.28 43.39"/>
  <path d="M1045.5,16.91c-.75,1.18-9.11,5.88-10.49,4.77-4.15-3.33,7.59-5.38,10.49-4.77Z"/>
  <polygon points="1055.98 42 1055.91 37.73 1052.95 36.62 1057.49 31.25 1055.98 42"/>
  <path d="M1056.01,13.31l1.49-2.39c7.48.1.09,4.87-4.5,3.59,2.19,4.6,3.37,4.09,1.69,9.15-.69,2.08,1.09,3.36-3.19,2.79,2.78-6.11-2.2-10.67,3.01-15.53l1.49,2.38Z"/>
  <path d="M1105.49,14.5l-7.48-1.17c4.59,1,1.59-4.83,5.22-3.59,2.32.79,2.58,3,2.26,4.77Z"/>
  <path d="M1055.99,2.56l-8.98,4.78c-.88-2.96,1.71-2.19,4.41-3.27.38-.15.81-2.67,4.57-1.5Z"/>
  <path d="M1067.99,102.99v3.57c-3.21.23-3.83,2.07-5.99-.6.11-2.8,3-3.34,5.99-2.97Z"/>
  <path d="M1045.49,80.27c.49.46.14,8.36-2.98,8.36.84-2.53-2.59-9.35,2.98-8.36Z"/>
  <path d="M1099.49,79.07c-5.57.99-2.14-5.83-2.98-8.36,2.6.02,3.34,8.02,2.98,8.36Z"/>
  <path d="M1040.99,59.95l-2.99,5.97,5.98-2.38.02,3.58h-9.01c1.51-2.33,3.32-3.82,1.5-6.49l4.49-.68Z"/>
  <rect x="1141.51" y="68.32" width="2.99" height="5.97"/>
  <polygon points="1109.99 13.31 1107.01 13.31 1108.51 6.15 1109.99 6.14 1109.99 13.31"/>
  <path d="M1145.99,99.39h-4.49c.03-4.39,4.46-4.39,4.49,0Z"/>
  <polygon points="1057.5 62.35 1055.98 65.92 1053.01 65.92 1053.01 62.34 1057.5 62.35"/>
  <path d="M1147.5,25.28c-.07.87-1.58,8.44-4.49,5.97-2.42-2.05,1.79-3.32,2.07-3.6,1.3-1.34-2.86-2.86,2.42-2.36Z"/>
  <rect x="1101.01" y="71.91" width="2.99" height="3.58"/>
  <path d="M1157.99,106.57h-2.98s-1.52-3.57-1.52-3.57c2.74-.4,4.97,1.31,4.49,3.57Z"/>
  <path d="M1150.81,56.13c.58.57,6.83.37-.3,3.81-.07-2.39-2.92-7.24,1.48-8.36l-1.18,4.55Z"/>
  <polygon points="1055.99 27.67 1055.99 29.44 1053.01 31.25 1053.01 27.67 1055.99 27.67"/>
  <polygon points="1115.99 13.31 1113.01 13.31 1113.01 11.54 1115.26 9.73 1115.99 13.31"/>
  <polygon points="1157.99 33.64 1157.99 37.22 1156.52 37.22 1155 33.65 1157.99 33.64"/>
  <polygon points="1042.5 6.15 1040.98 9.72 1039.51 9.72 1039.51 6.14 1042.5 6.15"/>
  <path d="M1039.49,88.63c-2.86-.81-2.1-6.33-2.97-8.36,3.08.8,2.63,6.27,2.97,8.36Z"/>
  <polygon points="1054.5 94.63 1051.51 97.01 1051.51 94.62 1054.5 94.63"/>
  <rect x="1144.51" y="59.95" width="1.47" height="3.58"/>
  <rect x="1080.01" y="79.08" width="1.47" height="3.58"/>
  <rect x="1156.51" y="46.8" width="1.47" height="3.58"/>
  <rect x="1056.01" y="99.4" width="1.47" height="3.58"/>
  <polygon points="1150.49 65.93 1149.76 68.31 1147.5 65.93 1150.49 65.93"/>
  <rect x="1128.01" y="102.99" width="1.47" height="3.58"/>
  <rect x="1065.01" y="80.27" width="1.47" height="2.38"/>
  <rect x="1146.01" y="53.97" width="1.47" height="2.38"/>
  <polygon points="1156.51 7.34 1157.99 7.34 1158.76 10.9 1156.51 9.11 1156.51 7.34"/>
  <rect x="1131.01" y="63.54" width="1.47" height="2.38"/>
  <path d="M1151.25,62.33c.97.4.97.8,0,1.2v-1.2Z"/>
  <path d="M1104.75,25.27c.97.4.97.8,0,1.2v-1.2Z"/>
  <path d="M1092.75,53.97c.97.4.97.8,0,1.2v-1.2Z"/>
  <path d="M1059.75,1.36c.97.4.97.8,0,1.2v-1.2Z"/>
  <path d="M1056.75,94.62c.97.4.97.8,0,1.2v-1.2Z"/>
  <polygon points="116.99 937.55 116.99 939.33 114.01 941.13 114.01 937.55 116.99 937.55"/>
  <path d="M103.49,1006.9c.35,2.2.08,3.48-2.24,4.76l-2.22-1.77,1.48-2.98h2.98Z"/>
</svg>