<?xml version="1.0" encoding="UTF-8"?>
<svg id="Layer_1" xmlns="http://www.w3.org/2000/svg" version="1.1" viewBox="0 0 1920 1080">
  <!-- Generator: Adobe Illustrator 29.5.1, SVG Export Plug-In . SVG Version: 2.1.0 Build 141)  -->
  <path d="M1612.68,1079.83v1.19h231.14c.05-.4.08-.8.09-1.2h-.41c1.35-2.2,3.08-3.98,3.15-6.63.06-2.35-3.12-1.05-3.31-3.48-.18-2.3,0-10.7.18-13.16.15-2.19,2.85-3.98,3.04-6.13.23-2.67-2.78-3.91-3.07-5.93-.37-2.59,2.92-6.83,3.12-10.69.28-5.62-1.75-13.16-1.68-19.09.08-6.71-.81-6.2-1.43-10.86-.34-2.58,3.94-15.25-.05-17.27-3.26-1.65-5.91,4.49-10.97,2.42-5.69-1.11.77-24.3-.96-28.75h-6.03s1.45-6.62,1.45-6.62l4.58.16,1.49-7.88h-6.03s0-4.17,0-4.17c4.33-2.7,1.19,2.84,6,1.78-.04-2.46.43-6.82-1.36-8.8-1.49-1.66-7.87-.38-6.13-5.54l7.49,2.38c-.27-2.15.43-4.58.11-6.64-.25-1.58-9.05-7.35-7.6-11.29,1.74.17,4.47-.49,5.74.28.83.51-.73,2.6,1.74,2.09,2.72-4.64.5-8.38-.04-13.1-2.56-.37-5.5.39-7.96-.05-1.17-.21-.28-3.52-6.02-2.38-.96.19-.39,1.85-3.2,2.51-3.65.86-7.3-.49-10.08.11-1.64.35-3.05,2.18-4.95,2.18-2.18,0-3.85-2.47-6-2.45-2.04.01-3.36,1.98-4.79,2.25-.54.1-5.19-2.03-8.61-2.29-14.42-1.13-30.49,1.21-45.01,1.32l-123.84,1.14,1.51,174.58c-.37,0-.81,0-1.32,0ZM1829.99,1058.3h-2.99v-3.58h2.99v3.58ZM1829.98,1034.39h-1.47l-1.48-2.99c2.09-2.09,2.34-2.09,4.43,0l-1.48,2.99ZM1827.01,1017.66h4.49c.56,5.98-5.05,5.98-4.49,0ZM1825.51,985.37v-7.16h1.47v7.16h-1.47ZM1829.98,1009.28h-1.47s-1.51-5.97-1.51-5.97h2.98c.92,2.22.98,3.75,0,5.97ZM1826.24,965.05c3.33,2.03,3.53,7.15-.73,8.36l.73-8.36ZM1826.27,1066.68c3.67-.64,5,4.15,1.46,4.77-3.67.64-5-4.15-1.46-4.77ZM1819.51,907.67h2.99v1.17h-2.99v-1.17ZM1817.99,1071.45c-.37.29-4.54-.17-5.99,0v-3.57c4.31-2.61,8.07,1.91,5.99,3.57ZM1809.75,1029.61c.97.4.97.8,0,1.2v-1.2ZM1802.99,1076.25l-.74,3.58-2.24-1.8v-1.77s2.98,0,2.98,0ZM1754.99,1072.65h-4.49v-2.38h4.49v2.38ZM1774.49,1059.5h-1.47v-3.58h1.47v3.58ZM1781.25,1006.89v-1.2c.97.4.97.8,0,1.2ZM1784.99,986.56h-2.99v-1.17h2.99v1.17ZM1792.5,923.21l-2.99,2.38v-2.39s2.99,0,2.99,0ZM1785.01,1070.27h2.99v2.38h-2.99v-2.38ZM1780.51,954.29h2.98s1.52,3.57,1.52,3.57c-2.81.39-4.96-1.33-4.49-3.57ZM1779.75,1058.31c.97.4.97.8,0,1.2v-1.2ZM1774.51,953.1c3.78-.3,5.06,1.9,4.49,4.77h-4.49s0-4.77,0-4.77ZM1771.51,1022.45h2.99v1.17h-2.99v-1.17ZM1770.01,953.1h1.47v3.58h-1.47v-3.58ZM1752.15,1049.84l-1.64-5.87,4.35.1,1.64,5.87-4.35-.1ZM1752.01,1034.39v-2.38h2.99v2.38h-2.99ZM1754.99,1018.86c2.38,1.9-2.11,5.47-4.49,3.58s2.11-5.47,4.49-3.58ZM1749.01,969.84h1.47v2.38h-1.47v-2.38ZM1744.51,1070.27h4.49v2.38h-4.49v-2.38ZM1740.01,1070.27h1.47v2.38h-1.47v-2.38ZM1631.99,1027.22h-2.99v-4.77h2.99v4.77ZM1633.49,1018.85h-2.99v-3.58h2.99v3.58ZM1629.01,1010.48v-3.58s4.48,0,4.48,0v2.37s-4.48,1.21-4.48,1.21ZM1639.48,1078.63h-1.47v-5.96h1.47v5.96ZM1640.99,1066.67h-2.99v-2.38h2.99v2.38ZM1643.25,1076.24v-1.2c.97.4.97.8,0,1.2ZM1663.49,1021.24v2.39s-2.98-.59-2.98-.59l2.98-1.8ZM1662.75,1010.48v-1.2c.97.4.97.8,0,1.2ZM1663.49,1074.43l-2.97,1.81v-3.58s2.98,0,2.98,0v1.77ZM1663.49,1042.75h-2.99v-1.17h2.99v1.17ZM1681.51,1076.24l.7-4.89,6.78-1.08c.17,3.57-3.01,6.1-7.48,5.97ZM1690.56,1055.94c5.76-1.35,3.13,3,6.67,2.37,1.76-.31-.54-2.83,2.25-2.39l-.88,7.28-15.6,1.08c-.28-3.4-.07-7.9,4.48-9.56l-1.48,5.97c3.97.49,4.52-2.65,4.56-4.75ZM1690.53,1072.05l8.96-1.78c1.25,7.52-5.83,7.46-8.96,1.78ZM1691.99,1023.64v-5.99c5.52-.83,8.71,1.62,9,5.98h-9ZM1682.99,1014.06v-4.77h12.01v4.77h-12.01ZM1689.01,1018.86l-.26,4.64c-4.42-.62-3.19,1.67-5.73,2.52l-1.52-7.16h7.51ZM1709.99,1072.65h-2.99v-2.38h2.99v2.38ZM1709.99,973.41h-2.99v-1.17h2.99v1.17ZM1715.25,990.16v-1.2c.97.4.97.8,0,1.2ZM1718.99,1072.65l-2.99-.59,2.98-1.8v2.39ZM1714.51,957.88h2.99v3.58h-2.99v-3.58ZM1705.51,957.88h2.98s1.52,3.57,1.52,3.57c-2.81.39-4.96-1.33-4.49-3.57ZM1699.6,1001.6l-16.59.52v-8.37c8.21,1.37,22.94-3.45,16.59,7.86ZM1690.37,974.51l-5.81-1.16-.07-3.51h15.01s0,4.77,0,4.77c-3.51-.14-8.24,1.36-7.52-2.37l-1.61,2.28ZM1699.49,981.79l-1.44,6.48-2.94.58-2.93-2.82,1.51-4.08,5.8-.16ZM1699.51,956.67v5.98c-3.96-.15-6.77-1.9-10.49,0l-.02-5.98h10.51ZM1683.01,956.68c5.54.02,4.33,2.64,2.98,5.97-3.42-.73-3.16-3.68-2.98-5.97ZM1681.49,981.79h9.01v4.77h-9.01v-4.77ZM1689.75,1031.59c1.17,0,6.17-3.49,9.75-1.98v21.52l-5.98,1.21-2.28-6c-5.76.02-.45,8.84-7.53,4.83v-8.47c1.54-2.14,8.12,2.09,8.29-1.12l-3.13-.71.88-6.48-5.02,1.38-1.7,5.8-1.53-11.34c2.37-2.56,6.92,1.36,8.27,1.36ZM1674.74,1064.28l-.88-5.91-4.36-.06v-3.58s4.44.02,4.44.02c-.76,3.46,5.64,6.83.8,9.54ZM1671.74,1011.65l-2.23-1.77,5.99-.58v1.17s-3.76,1.18-3.76,1.18ZM1673.99,1021.25v2.38h-2.99v-2.38h2.99ZM1669.5,981.79h5.99v3.58h-5.99v-3.58ZM1673.99,993.75c2.38,1.9-2.11,5.47-4.49,3.58s2.11-5.47,4.49-3.58ZM1675.49,1071.46l.02,3.58h-7.5s-.01-2.38-.01-2.38l7.49-1.2ZM1664.99,985.37h-2.97s-1.51-4.77-1.51-4.77h2.22c2.35,1.27,2.61,2.57,2.26,4.77ZM1663.49,971.61l-2.97,1.81v-3.58s2.98,0,2.98,0v1.77ZM1661.99,957.88l-.74,3.58-2.24-1.8v-1.77s2.98,0,2.98,0ZM1648.51,1078.63v-5.98c1.46.2,5.6-.29,5.99.01,1.91,1.48-4.34,7.45-5.99,5.97ZM1650.01,1037.99h2.99v1.17h-2.99v-1.17ZM1648.51,973.41v-3.58s2.98,0,2.98,0l1.52,3.58h-4.49ZM1651.51,1023.63v-2.39s2.99,2.38,2.99,2.38h-2.99ZM1652.99,956.68c2.38,1.9-2.11,5.47-4.49,3.58s2.11-5.47,4.49-3.58ZM1645.49,1047.55l-1.39,8.31c.68.29,2.68-.34,3.95.4.57.33.39,3.67,3.42,2,.46-.26-1.18-3.49,3.03-2.34-2.08,4.37-4.28,5.81-1.5,10.75-5.88,1.12-1.55-5.58-3.14-7.06l-10.36-1.31c2.96-4.05-2.27-3.78-3-8.35,2.1-.2,4.61.4,6.56.03,1.77-.33-.07-2.95,2.42-2.43ZM1644,1035.6c.7.46-3.29,7.63-5.98,5.97l-1.51-7.17,7.49,1.2ZM1640.99,997.32h-1.47v-2.38h1.47v2.38ZM1642.51,953.1h1.47s.78,4.76.78,4.76c-2.33-1.26-2.61-2.56-2.25-4.76ZM1641.01,1011.68h1.47v2.38h-1.47v-2.38ZM1638.01,977.01h2.99v3.58h-2.99v-3.58ZM1639.49,1018.86c-.63,2.93,3.65,6.96-1.47,8.36.77-2.02-1.85-7.76,1.47-8.36ZM1629.01,966.25h2.99v5.97h-2.99v-5.97ZM1627.52,974.62l2.84.14c.24.14-.13,1.54.47,1.93,2.36,1.53,7.24-1.94,5.66,3.9l-2.24-2.4c-1.12,3.7-4.06,2.31-8.24,2.4l1.51-5.97ZM1630.49,1058.31l1.42,7.63-5.9,1.93c-.46-.38,1.31-9.36,4.48-9.56ZM1624.51,1072.66h5.99s-2.24,7.15-2.24,7.15c-2.57-1.78-4.09-4.42-3.74-7.15Z"/>
  <path d="M1697.99,1035.6l-2.22,7.16c-4.71-1.36-.38-9.56,2.22-7.16Z"/>
</svg>