<?xml version="1.0" encoding="UTF-8"?>
<svg id="Layer_1" xmlns="http://www.w3.org/2000/svg" version="1.1" viewBox="0 0 1920 1080">
  <!-- Generator: Adobe Illustrator 29.5.1, SVG Export Plug-In . SVG Version: 2.1.0 Build 141)  -->
  <defs>
    <style>
      .st0 {
        fill: #fff;
      }
    </style>
  </defs>
  <path d="M1266,398.91c2.72-3.5,6.34-.46,9.81-.53s6.77-1.23,10.37-1.31c15.42-.37,30.95.36,46.37.09l1.7-2.44,1.7,2.44,27.56-.04-.06,306.63c.06,6.87-1.38,32.83,1.52,36.93.78,1.1,2.67.65,3.91,1.26.62.3.64,1.55,1.77,1.84,4.53,1.15,26.22,1.77,27.52,3.17l2.84,71.05h-128.25c-.73,0-3.12,1.92-5.24,1.19l-.8-67.05,1.1-2.06c3.11-.87,7.7-.58,10.55-1.52,1.22-.4,1.03-1.92,2.25-2.23,7.57-1.9,17.31-.26,21.43-7.81l.08-202.08c-1.78-19.01,0-38.49.03-57.41,0-2.6-1.29-5.11-1.83-7.62-.88-.57-11.14-.73-13.71-1.41-1.3-.35-.96-2.05-2.15-2.28-4.49-.88-18.45.28-18.45-4.22v-64.56ZM1328.97,599.19l-2.98.59,1.52,10.16c8.38-.74,3.21-7.42,1.46-10.75ZM1343.99,602.77c-4.55-2.9-.79,7.61-2.98,8.36,5.07,1.43,3.61-7.96,2.98-8.36ZM1323,611.13l-2.99-2.38v2.39s2.99,0,2.99,0ZM1331.99,617.11h-4.49c-.4,10.42,6.18,12.59,4.49,0Z"/>
  <path d="M873.75,899.29c.97.4.97.8,0,1.2v-1.2Z"/>
  <rect x="763.51" y="244.08" width="1.47" height="2.38"/>
  <path d="M1257.75,234.51c.97.4.97.8,0,1.2v-1.2Z"/>
  <path class="st0" d="M1362.02,726.09l-7.84,7.02,2.02,4.02-.7,7.58-4.08,5.49,8.49-1.18-.35,3.82-7.49,3.2,1.51,9.7-3.56-.33,2.88,8.03-.7,7.64-2.78,3.57,1.87,5.92-2.39-.16-.33,3.74c4.83.86-1.04,28.78-.11,40.45l-3.77,1.66,3.05,6.25c-1.39,12.16-2.14,13.45-5.51,20.46-.39.16-1.22,3.59-1.54,3.71-1.17.44-2.39-.52-3.56-.36.07-6.41,2.24-1.61,2.98-5.83,2.5-14.2-1.09-13.89-1.08-15.13l.71-7.71,2.46-1.99.81-7.24c-5.12-.86-2.38-22.49,2.12-23.03.81-7.81-3.19.29-1.51-9.7.59-3.54,1.52-1.19,2.5-1.9l.76-7.39c-4.76-.94-1.09-10.26-1.58-15.48-.61-6.46-4.25-18.99-7.04-6.68.47,6.56-.77,14.89,2.17,13.85l-.68,7.58-2.38-.18,1.68,7.79-5.62,9.16,4.18,6.32-1.24,10.71-2.35,2.29c4.64,6.8,1.37,7.23-1.11,12.42-1.55,3.24-3.58,16.11-5.8,4.3l.92-17.12,3.8-1.76-1.86-6.29c.67-10.13.68-12.01,3.81-14.69.33-3.67-3.4,1.68-1.36-11.72l2.77-3.56c.39-2.96-4.55-3.34-2.18-15.6l4.44-9.17c-4.07-.43-1.16-14.49-4.38-17.81,10.25-23.08,6.1-1.26,8.56,6.43,1.54,4.8,4.26.33,6.41.69l-2.86-7.98c.24-7.11,2.1-1.05,2.91-5.5,1.59-8.76-1.65-4.85-1.81-6.01-1.02-7.71,2.2-6.9,2.78-8.58.91-2.66.88-8.18,1.4-9.6.81-2.21,2.51.36,3.48-.28-.71-1.73-1.15-4.49-3.1-6.28l1.7-16.75,3.85-3.67c-4.22-.24-5.44-4.75-6.34-16.01l-2.83,11.3-7.63-8.46,4.46-9.22-2.35-13.65,7.15.62-1.21,14.8,6.23,8.79,2.2-13.51-2.46-9.57,7.48-3.19c-3.26,16.19-1.73,15.88,1.3,25.15-3.39,3.48-4.68,10.02-5.52,20.67l3.43.62-.99,12.69c-.66,3.89-4.13,4.86-5.39,5.7.29.72,0,6.39,2.52,6.76,2.98.44,5.42-7.7,5.95,5.58l-.35,3.82ZM1343.1,853.44l-1.19-.11c.17,2.52.57,2.55,1.19.11ZM1354.69,675.29l2.37.22.35-3.75-2.37-.22-.35,3.75Z"/>
  <path class="st0" d="M1400.34,309.61c-.73-1.48-.31-7.05-.49-7.75l1.19.11-.7,7.64Z"/>
  <path class="st0" d="M1386.98,454.8l-6.33,68.78-2.71-9.88c6.78-7.47,1.44-13.77,1.49-15.87.3-15.33,4.19-45.51,4.66-63.83.08-3.24-2.03-.77-1.72-8.27.31-7.45.88-16.47,3.71-13.39-.43,7.98-.55,14.01,1.77,16.52l-.15,18.31c-.07,1.26-.28,2.56-.35,3.82-.01.21-1.12-.64-1.35,1.8l.99,2.02Z"/>
  <path class="st0" d="M1371.16,626.75c-3.18.09-4.33,2.23-2.72-10.1,1.25-9.56,2.81-1.98,3.28-9.08l-3.58-.38,3.28-42.1c-6.48,2.12-5.11,36.98-6.92,41.6l-3.49-.13c-2.56,10.45,6.83,10.32,2.01,17.57-6.86,10.31-7.56-2.61-9.95-2.95-2.13-.3-8.31,17.29-10.28,1.03,8.86-22.55,7.89-6.6,12.1-2.59,4.18,3.98,6.13-9.68,1.56-15.41l4.08-5.47c.42-6.74-1.99-1.19-1.88-11.19.06-5.34,2.36-34.09,3.89-36.89l6.78,3.32-.86,10.9,9.38-10.73-6.68,72.6ZM1362.08,595.05l2.37.22.35-3.75-2.37-.22-.35,3.75Z"/>
  <path class="st0" d="M1392.61,393.67c-1.82-3.94.53-14.3.67-20.47.07-3.06-1.96-2.34-1.89-5.33.21-8.71,2.41-20.33,1.53-29.99l4.61,2.3-4.92,53.49Z"/>
  <polygon class="st0" points="1378.55 546.51 1371.92 540.15 1380.3 527.4 1378.55 546.51"/>
  <polygon class="st0" points="1363.43 710.81 1362.86 707.69 1364.13 703.17 1363.43 710.81"/>
  <path class="st0" d="M1306.92,659.37c-.03,12.8,3.16,14.51,6.92,16.03l.12-7.62-2.64-4.11c4.99-1.99,10.24-3.64,10.46-22.23l3.57.33c-3.45,16.02.47,20.06.47,21.29-.04,15.87-6.38,9.42-7.39,14.74-1.36,9.2,3.7,7.05,5.07,10.11l-4.78,13.03,3.02,6.09-2.98,5.82c-.92,8.51-1.93,14.46,1.21,13.27l-.34,3.74c-.74,1.42-2.71-3.92-2.92,5.52-.09,4.1,3.61-1.16,1.51,9.78l-6.79-4.48,2.6-15.12-5.44-4.88.85-9.18,3.61-1.51-1.86-5.92,3.26-9.32c-.32-1.25-5.46,5.46-6.65,7.08l-.98-15.47,4.75.46-2.45-7.74-5.32,1.16-.07,13.49-6.79-4.42c-.3,2.49-.39,5.14-.71,7.62-1.12-.17-2.58,3.6-2.73,3.6-1.29,0-8.55-10.18-10.59-11.68-2.27-1.68-8.29,2.49-6.88-7.23,1.67-4.14,7.97-15.31,8.97-19.21,3.54-13.73,1.12-24.18,7.8-19.75-1,9.82-2.21,14.45.82,17.42-1.41,1.13-11.25,21.57-9.79,27.98l21.15-21.2-5.59-4.34,5.6-14.96,2.94.35c-.04,2.39-.74,5.83-.7,7.63-.49.33-.92-.58-1.35,1.8-.22,2.42.99,1.81.99,2.02ZM1295.6,691.08l-1.19-.11c.17,2.52.57,2.55,1.19.11Z"/>
  <path class="st0" d="M1307.28,655.55c2.6-1.75,4.33,2.31,5.84-11l1.85,5.89-5.36,12.82-2.67-3.89c-.14-.43.38-2.57.35-3.82Z"/>
  <path class="st0" d="M1307.82,701.84c-1.68,2.29-3.72,7.38-5.65,9.15l4.25,6.15-1.43,15.27-11.54-4.93,3.42-11.19-10.35-4.81,1.67,7.79-4.76-.43,2.24-11.3-3.56-.34-1.17,14.74,6.19,8.87c-1.62,9.68-5.66,5.36-7.47,3.08l2.99.26,1.28-7.51-10.35-4.88c1.89-11.09,6.18,10.39,6.64-7.04l-10.7-1.04,3.92-3.49-2.8-7.66c-.85,4.35-4.45,15.17-5.58,17.39-.36.71-1.23-2.51-1.67-1.71-8.73,15.6-.05,15.22.32,18.44l-2.7,30.21-3.69-11.93c.25-6.44,1.77-2.99,3.07-3.46,3.43-1.23.45-19.6-2.15-19.56-.41,7.31-.98,12.95-3.44,11.33-1.05,5.9,1.22,2.62,1.5,5.04,2.42,21.67-2.83,23.24-6.65,11.18l2.03-21.86,2.83-4.08-2.03-4.54,4.95-66.44,3.3,2.94-.46,19.94c1.83,2.12,4.29-.56,6.17,1.04.83.71,0,6.74.92,7.65,2.9,2.85,7.67,2.1,11.06,1.16l-3.42,11.19,5.59,4.38-1.32-11.64c3.98-4.56,6.1,7.64,8.2,8.2,2.42.65,5.65-6.84,6.08-6.91s1.11,4.3,2.02,4.05c.31-2.5.4-5.16.71-7.65,4.22.65,7.56,3.09,11.55,4.92ZM1264.26,705.52l4.75.42.34-3.75-4.39-4.29-.71,7.62ZM1265.65,690.28l-1.76-.16-2.31,5.57,3.73-1.65.35-3.75ZM1260.99,714.87l-1.19-.11c.17,2.52.57,2.55,1.19.11Z"/>
  <path class="st0" d="M1356.46,421.1l-6.65,7.2,1.67,7.77c-2.99,2.06-10.56,8.01-9.5,18.41l8.18-10.79c2.78,2.86-2.23,26.22-1.6,30.94s3.92,1.12,1.91,11.39c-4.12-.18-3.74,14.07-7.54,16.73-.42,3.46,4.2,1.7,2.19,15.6-.71,4.91-4.42-3.71-4.46,9.21l4.93,4.03-.38,11.82c-1.86-.21-8.04,1.66-7.5-6.33.17-2.53,1.53-6.78,1.77-11.01,1.15-20.54,3.7-29.48,4.12-34.83s-2.86-8.49,2.5-22.78c-1.62-14.31-6.45-.55-8.96-.46-2.38.08-5.86-10.69-9.56-7.14l10.07-18.26-6.89,3.1c-1.63-4.84-1.1-6.79.65-13.28l-3.75,1.48,4.79-7.52,2.34,8.18-1.81-19.38,4.77.39c2.31-15.87-3.71-2.3-5.29-5.06-.21-.36-2.38-12.26-1.29-14.78l6.43,8.25-1.16-13.6c14.69-12.02.72,39.74,2.87,48.19l7,.78c1.67-7.25,2.08-32.02,5.01-34.08,1.9-.19,7.35,8.88,5.12,15.82ZM1347.17,456.92l-1.19-.11c.17,2.52.57,2.55,1.19.11Z"/>
  <path class="st0" d="M1280.43,529.77c1.34-2.43,1.65-10.79,4.33-3.04,2.92,8.44-2.78,16.62,1.17,15.15,3.66-1.37,10.66-17.31,10.55-29.89-2.47.48-4.58-1.15-6.7-3.4-1.94-2.06-3.21.95-1.77-8.95,3.21,9.7,7.55,8.97,12.39,8.83l-5.44,58.72,2.16,2.69-.68,7.58c-4.59-1.9-10.4.47-15.3,6.63-1.35,1.7-1.57,7.47-2.22,7.36-1.12-.19-7.31-14.17-6.3-16.13,2.46,4.66,4.62-7.28,4.98-7.29,2.2,0,5.05,5.99,8.83.78l-2.52-11.71,5.81-11.05-8.33-.8-.84-3.93,1.33-7.58-1.46-3.99ZM1293.67,542.52l2.37.22.35-3.75-2.37-.22-.35,3.75ZM1292.08,559.74l-1.19-.11c.17,2.52.57,2.55,1.19.11ZM1281.99,578.08l-1.19-.11c.17,2.52.57,2.55,1.19.11Z"/>
  <path class="st0" d="M1281.4,545.27c.1.93-.65,3.68-.45,5.09.62,4.33,2.71.69,1.78,6.56l-6.52-.31.22-8.98-4.54-3.27c1.56-8.66,3.48-6.87,5.1-3.3.48-15.07,2.65-9.85,3.45-11.29-1.52,7.2.07,10.11.14,11.57.09,2.08.73,2.92.84,3.93ZM1279.68,550.9l-1.19-.11c.17,2.52.57,2.55,1.19.11Z"/>
  <path class="st0" d="M1274.79,841.95l.41,18.72-3.6-.3.52,7.71-4.13-.14-.12-19.42-8.99,6.79,1.75-11.44c2.66-1.68,8.03,7.12,8.33-6.83l-11.56-4.94c1.84,13.44-3.79,8.93-3.56-.32,6.25-.5,11.54-15.64,17.73-10l-4.06-8.09,4.61-11.05-5.58-4.45,6.32-11.12c2.55,1.77,4.68,7.11,4.75,15.84.1,12.43-5.28,33.77-.32,34.89l-2.5,4.15Z"/>
  <path class="st0" d="M1368.56,472.38c.78-8.15,2.56-16.99-.96-15.55l.34-3.74,3.91-3.49c-2.13-.66-3.73,3.55-3.07-5.96,1.43-20.65,3.19-43.7,3.45-63.36,3.59-2.53,1.14,6.03,3.03,9.17,2.86,4.75,5.56-1.62,3.21,14.48l-3.75,1.58c6.4,10.8-.85,41.57-.79,60.87.02,5.01,2.84.32,1.77,6.63l-7.14-.62Z"/>
  <path class="st0" d="M1321.86,833.26c-1.41,3.32-6.37,6.46-6.48-2.15s6.48-48.46,5.52-62.56l8.81,8.56c-4.64,11.74-4.2,47.53-7.85,56.15Z"/>
  <path class="st0" d="M1332.89,677.21c-.75,7.33-.47,16.27,2.16,15.63l-4.61,11.05,3.45,2.44-2,20.83-6.79-4.48c.53-6.7,2.28-12.45,2.49-19.31.17-5.68-6.21-20.02,2.23-18.81-6.49-19.82,1.22-23.49,8.38-26.13l-.69,15.46-4.62,3.31ZM1330.88,673.1l2.37.22.35-3.75-2.37-.22-.35,3.75Z"/>
  <path class="st0" d="M1361.77,467.91l-.68,7.58,2.16,2.65c-1.01,21.92-5.26,14.2-9.17,8.09l2.26-12.81c.11-4.14-6.81-11.26.71-19.44-3.43-3.15-1.34-10.63-.46-21.24l7.15.68c-.22,13.74-2.12,7.84-3.78,14.99l2.75,4.05-1.46,9.71,3.24,2.16-2.72,3.58Z"/>
  <path class="st0" d="M1330.57,545.93c-1.58,3.97-8.7-27.19-15.89-11.01-2,4.49,1.01,12.76-4.3,9.12l.88-22.96,7.14.62-1.32-11.63,2.52,11.76c3.71,3.21,2.37-7.06,3.44-11.28,8.04,6.6,10.77,4.33,7.54,35.39ZM1327.2,530.22l.71-7.62-3.56-.31-.34,3.75,3.2,4.19Z"/>
  <path class="st0" d="M1300.52,755.11c1.86,12.75-2.48,13.56-5.49,20.72.87,2.54,2.72-2.45,4.17-1.77.83.39.11,6.01.96,7.87,2.28,4.99,6.71-4.09,5.71,6.39-.33,3.47-12.23,17.25-5.68,22.63l-2.91,5.48,2.86,7.99-5.77-2.46c4.06,15.17,11.64,8.5,16.48,17.38l-1.61,16.78c-4.27,1.19-7.52-4.24-11.56-4.93-.41,1.97-.15,6.12-1.28,7.64l-2.29-7.94c1.18.08,2.39.09,3.57.29,2.06-9.98,3.14-5.39,3.78-15.05l-12.24,2.7,4.96-14.91c-4.58.74-9.03-.81-10.39-14.37l1.88-9.22,7.05.28-1.67-7.79,3.35-3.63.5,8.01,6.86-3.45c1.24-9.4.5-6.03-.93-8.15-4.23-6.28-7.7-2.97-12.66-.81l5.79-14.87,5.83-7.13c-2.52-.68-5.23.03-7.75-.75-2.33-.72-3.72,2.72-2.25-7.9l6.07,4.43c.9.03,1.75-5.71,2.61-7.5-.56,5.33.98,3.45,2.03,4.04ZM1289.3,811.85l2.37.22.35-3.75-2.37-.22-.35,3.75Z"/>
  <path class="st0" d="M1298.49,751.07c6.7-13.88,4.59-7.86,11.06-2.8l-2.91,5.47,1.86,5.92c-2.61-1.86-5.32-3.07-7.98-4.56-.04-.29.47-2.72-.26-3.84l-1.77-.2Z"/>
  <path class="st0" d="M1312.04,825.52c-3.97-4.54-10.11,6.18-8.09-14.29l2.53-3.54-1.14-13.61,1.85-.05c-.07-15.03,5.48-10.78,8.71-10.53l-3.86,42.01ZM1309.05,805.96l3.56.33.35-3.75-3.56-.33-.35,3.75Z"/>
  <path class="st0" d="M1308.34,409.02l-2.72,3.58,1.67,7.88-7.15-.63.14,11.53c-4.66,5.1-4.28-7.7-4.84-8.19-3.5-3.07-12.54,8.54-16.94,10.07.61-4.35.09-10.51,1.87-11.31,3.15-1.41,6.03-5.72,7.82-6.39,2.98-1.11,5.33,9.65,8.9-1.81l-9.34-2.81,5.11-3.38-2.16-15.55,4.39,4.33-1.88,7.4,10.84,12.59,2.63-15.17,1.66,7.84Z"/>
  <path class="st0" d="M1328.72,422.47c-8.8,9.75-2.33,11.27-2.39,13.23-.42,14.31-3.56,4.22-3.99,16.99l6.64-7.06-7,10.94,2.5,11.75-7.97-4.62c3.02-11.93,1.05-27.46,6.57-32.15,1.65-9.39-3.82-5.17-2-17.47,2.48-.25,4.73,1.81,6.79,4.46,0,2.27-.39,4.26.84,3.93Z"/>
  <path class="st0" d="M1329.08,418.65c-.14-.57-.83.35-1.19-.11-.02-14.09-2.04-10.29-6.04-12.25.51-7.8,1.33-22.73,4.96-22.47.48.03,3.79,3.65,3.88,4.19,1.82,10.55-5.38,3.76-4.78,12.96.33,5.08,4.47,7.47,3.17,17.67Z"/>
  <path class="st0" d="M1328.72,422.47l.35-3.82,2.22,2.13c-.32,3.93-1.72.75-2.57,1.69Z"/>
  <path class="st0" d="M1340.35,591.95c-1.21,3.53-3.98,1.88-3.19,12.13l-3.87,3.73,6.6,6.38-8.01,8.93,3.42-11.17c-1.45-.46-3.77-3.7-2.68-9.9.93-5.37,5.14-2.59,4.81-13.07l-3.56-.38,3.5-38.15c2.13.2,7.98-1.66,7.65,6.76-.12,3.09-1.68,7.78-1.97,11.5-.74,9.44.22,14.75-2.69,23.24ZM1335.75,581.07l3.36,2.3-1.25-5.9-1.76-.16-.35,3.75Z"/>
  <path class="st0" d="M1318.1,564.06c3-.6,5.48-.58,8.33.73l-2.51-11.74,5.95.54-1.53,14.69c-4.67,9.23-9.46-9.81-11.64,11.05,4.02-6.65,4.58,8.65,7.01,8.4l1.67-11.46,4.39,4.32-2.91,5.47c2.1.43,2.57,10.41,1.16,13.58-1.81,4.07-8.51-15.34-12.2-5.33l-.49-7.55c-3.65,5.54-5.75.78-8.88-.68.36-13.5,4.29-4.74,7.65-8.14.93-.94,3.56-10.09,3.98-13.87-1.9.38-4.32,4.44-6.3,3.24.26-3.46,4.65-10.26,5.26-10.89,2.39-2.48,1.55,3.02,1.04,7.65Z"/>
  <path class="st0" d="M1351.57,578.75l3.23,4.12-1.06,11.44c-2.89-.6-6.6,2.56-7.79-6.48l4.08-5.45-1.67-7.78,3.76-1.62-3.33-4.5.49-16.93,6.93,1.15-.55,20.19-4.07,5.88Z"/>
  <path class="st0" d="M1315.07,779.56c-1.85-.27-3.1-4.23-4.98-4.41-2.47-.24-8.3,8.32-8.6-4.49,4.4-5.26,7.69-3.91,9.58-18.69l6.47.84-2.47,26.75Z"/>
  <path class="st0" d="M1359.23,521.58l-6.5,5.22,5.65,2.8-1.27,14.93c-11.29,3.19-6.73-10.54-3.98-35.05.36-1.14,8.71.81,6.09,12.11Z"/>
  <path class="st0" d="M1333.37,515.38l-5.54-4.48,1.87-20.4c.11-4.03-3.67-.35-1.49-10.25l8.68-3.04-3.52,38.18Z"/>
  <path class="st0" d="M1279.62,629.88c.46-3.76.61-7.71,1.04-11.48l4.75.37c3.44-33.87,14.56-26.42,7.64,8.5l-5.44-12.07c-3.26,12.54-4.08,11.08-7.99,14.69-.37,3.02-.46,6.23-.77,9.28l-3.85,1.89,2.52,11.72-5.95-.5c-2.09,10.7,2.19,7.91,2.34,13.68.22,8.96-1.43,11.19-3.86,9.36-.47-.35-1.32-17.14-.83-20.57.47-3.28,6.03-22.8,7.09-23.99,1.66-1.87,2.67-.27,3.33-.88Z"/>
  <path class="st0" d="M1312.34,362.57l-2.35,2.31,2.03,4.54c-.97,5.57-.54,22.53-3.69,20.32-1.5-5.45.48-16.94-2.76-15.69l2.92-5.43c1.76-10.57-2.13-10.45-1.67-21.34l6.79,4.5-1.28,10.79Z"/>
  <path class="st0" d="M1334.7,357.58l-.53,5.63,1.86,5.95-3.55-.34.36-11.81-6.28-2.14c3.2-8.33,6.18-11.33,8.83-5l1.42-15.31,3.55.36c.34,11.55-1.45,21.22-5.66,22.66Z"/>
  <path class="st0" d="M1285.79,784.58l-6.43-8.26-.45,11.47c-3.21-8.72-4.07-10.37-1.71-27.13l3.57.37-1.9,7.48,9.52.9-2.6,15.17Z"/>
  <polygon class="st0" points="1289.05 488.16 1282.27 483.67 1285.54 474.37 1284.03 464.61 1291.16 465.25 1289.05 488.16"/>
  <path class="st0" d="M1269.34,767.66c-2.09,2.1-3.77,5.86-6.3,3.24,1.1-6.91,3.56-8.08,5.46-7.17l.84,3.93Z"/>
  <path class="st0" d="M1269.34,767.66l-.84-3.93,1.21-13.09-3.21-4.44,4.1-5.37c-2.03-.98-6.09-4.49-6.07-12.13,1.4,3.28,7.41,3.53,7.78,5.19.27,1.21-.77,6.8-.39,9.66.34,2.56,3.06-.72,1.2,9.03l-2.72,3.56,3.02,6.11c-1.41,5.45-2.72,4.04-4.08,5.41Z"/>
  <path class="st0" d="M1339.97,704.8l8.49-1.18-6.47,5.25.97,15.45c-4.32.06-10.22,6.82-7.28-12.2h3.49c.71-2.21.46-5.94.79-7.32l-3.91,3.46c.62-7.89,3.08.88,3.26-9.28.07-3.76-3.62.45-1.51-9.75l8.68-3.09c-.25,14.78-5.19,13.01-6.51,18.65Z"/>
  <path class="st0" d="M1304.97,458.8l-8.34-.77c.58-10.94,2.2-21.44,5.9-18.84.3.21.12,11.98,3.43,8.28l-.99,11.33Z"/>
  <path class="st0" d="M1324.08,499.08l-5.64,3.24.74-15.2c-3.59-1.6-4.8,9.44-9.04,6.86l1.06-11.46c3.38,6.12,6.27-1.95,9.32-2.89,4.63-1.43,1.9,3.13,2.21,8.56s3.16.69,1.35,10.89Z"/>
  <path class="st0" d="M1397.04,332.41c-.17.4-4.01,1.65-3.31-3.03,2.02-12.65.31-10.57-.88-15.13-1.52-5.85.03-12.09,1.66-12.87,3.84-1.83.32,17.62,2.59,20.03,1.48.41.13,10.54-.06,11Z"/>
  <path class="st0" d="M1338.42,369.37c3.05-11.74,8.25-6.33,11.04-2.75-.44,4.83-5.64,10.97-6.4,10.9-1.76-.16-2.68-8.06-4.65-8.15Z"/>
  <path class="st0" d="M1344.72,342.18c-.86-4.65,1.39-19.43.99-26.02l3.56.31c-.06,9.23-2.15,18.61.09,25.06-1.59,6.6-3.93,4.46-4.63.65Z"/>
  <path class="st0" d="M1348.22,393.37c-1.57-11.06,9.36-13.65,8.12,2.75-1.91,10.86-7.81-.59-8.12-2.75Z"/>
  <path class="st0" d="M1361.79,402.43c10.35,4.04.67,37.82-.77,15.09-.25-4.02,1.29-10.2.77-15.09Z"/>
  <path class="st0" d="M1329.92,761.66l-4.28-3.31c-1.11,8.41-2.09,7.12-4.39,6.37l1.4-15.25c1.78,2.79,9.28-.11,7.27,12.2Z"/>
  <polygon class="st0" points="1323.35 741.78 1324.4 730.35 1332.19 736.83 1323.35 741.78"/>
  <path class="st0" d="M1367.25,395.17c-.45,1.08-7.27-1.02-6.43-8.22,4.23-1.18,3.75-15.88,7.7-6.68l-1.27,14.9Z"/>
  <path class="st0" d="M1265.47,809.67c-2.77,5.14-10.26-14.64-7.76-19.94,2.29-4.87,2.78,2.64,3.41,5.35,2.36,10.19,5.84,2.51,4.35,14.6Z"/>
  <path class="st0" d="M1370.21,545.72c-.6,1.47-8.7-1.19-6.08-12.08l7.14.65-1.06,11.43Z"/>
  <polygon class="st0" points="1325.79 621.99 1321.16 622.13 1323.88 607.56 1328.51 607.43 1325.79 621.99"/>
  <path class="st0" d="M1377.42,349.88c-1-2.01-3.72-23.74-2.29-27.17,4.29-10.27,3.57,19.83,2.29,27.17Z"/>
  <polygon class="st0" points="1349.97 374.29 1354.25 374.49 1356.04 367.06 1360.33 379.1 1349.97 374.29"/>
  <path class="st0" d="M1378.53,376.99l2.03,4.02c-1.85,19.03-4.87-.22-2.51-11.8-5.09,5.16-4.86,8.2-9.51,3.47-1.91-1.94-3.6,2.48-2.03-8.37,5.44,7.63,11.14-4.61,14.76,9.1l-2.72,3.58Z"/>
  <path class="st0" d="M1389.13,300.87c-3.35-2.99-2.86-9.34-3-19.51,4.74-1.87,4.58,6.99,3,19.51Z"/>
  <path class="st0" d="M1365.75,502.93l2.92-18.95c-2.08,11.61,4.44,4.49,2.35,13.63-1.33,5.84-3.6,6.3-5.28,5.33Z"/>
  <path class="st0" d="M1389.25,377.93l-2.65-23.31c3.15-1.96,1.79,4.55,2.23,11.54.06.97,2.47,2.3.43,11.77Z"/>
  <path class="st0" d="M1314.32,344.06c-.57,1.2-8.35-.42-7.63-8.36,2.32,2.36,9.92-5.74,7.63,8.36Z"/>
  <path class="st0" d="M1302.86,481.72c.32-14.27,6.31-4.93,9.02-6.82-.63,6.62-8.77,7.78-9.02,6.82Z"/>
  <path class="st0" d="M1305.18,273.89c3.55-8.05,4.42,24.14,7.21,25.73l-5.63-13.19c-1.22-1.29-2.93-9.48-1.58-12.54Z"/>
  <path class="st0" d="M1290.37,734.91c3.42-5.44,8.16-1.95,8.82,8.48l-4.84,7.23c-.08-4.43-2.59-2.42-2.49-5.98.3-10.28,2.87-1.55,3.25-9.26l-7.83,6.92,3.08-7.39-2.37-.23.7-7.61,2.37.23-.7,7.62Z"/>
  <path class="st0" d="M1335.62,334.46l-5.24-8.16.97,15.45-3.57-.27,2.12-22.94c1.96,4.05,3.03,8.8,6.1,4.41l-.38,11.51Z"/>
  <rect class="st0" x="1296.58" y="590.28" width="7.64" height="5.97" transform="translate(590.48 1833.83) rotate(-84.74)"/>
  <polygon class="st0" points="1365.89 514.5 1366.59 506.89 1373.37 511.39 1373.02 515.14 1365.89 514.5"/>
  <polygon class="st0" points="1268.46 725.13 1269.16 717.56 1272.14 717.74 1272.86 729.41 1268.46 725.13"/>
  <path class="st0" d="M1316.73,278.81l3.47.49.03,13.34-.73,1.75c-1.16-5.99-4.3-5.66-2.77-15.58Z"/>
  <path class="st0" d="M1255.19,777.9c.36-14.61,4.67-2.38,7.16-1.41,1.99.77,4.3-2.26,6.28-1.16-3.92,15.84-8.75-1.2-13.44,2.57Z"/>
  <polygon class="st0" points="1330.94 307.06 1332 295.61 1335.87 305.62 1330.94 307.06"/>
  <polygon class="st0" points="1329.36 376.29 1326.16 372.1 1326.86 364.52 1330.42 364.84 1329.36 376.29"/>
  <path class="st0" d="M1345.18,608.93c-.85-.26-8.03-4.79-4.89-11.98,2.61-5.97,2.88,4.87,3.1,5.6,1.03,3.43,3.52-7.03,1.78,6.38Z"/>
  <polygon class="st0" points="1265.33 798.11 1262.13 793.93 1262.48 790.19 1267.58 786.79 1265.33 798.11"/>
  <rect class="st0" x="1303.69" y="488.09" width="7.64" height="3.58" transform="translate(699.89 1747) rotate(-84.74)"/>
  <path class="st0" d="M1313.68,614.55c-.71,1.43-1.97,17.36-3.73-1.1,2.39.04,7.9-6.77,7.98,4.53l-4.25-3.42Z"/>
  <polygon class="st0" points="1364.25 375.63 1362.48 375.45 1361.38 367.71 1364.95 368.02 1364.25 375.63"/>
  <polygon class="st0" points="1364.48 529.78 1365.18 522.17 1366.94 522.35 1368.21 528.23 1364.48 529.78"/>
  <polygon class="st0" points="1289.5 796.47 1286.11 794.26 1288.43 788.71 1290.2 788.86 1289.5 796.47"/>
  <polygon class="st0" points="1388.44 308.55 1390.11 316.34 1390.57 304.84 1388.44 308.55"/>
  <polygon class="st0" points="1334.38 634.91 1330.82 634.56 1331.17 630.81 1335.08 627.28 1334.38 634.91"/>
  <polygon class="st0" points="1388.84 343.23 1385.64 339.04 1385.98 335.29 1389.54 335.6 1388.84 343.23"/>
  <path class="st0" d="M1307.41,327.99c1.48-7.2,6.79-4.76,9.02-6.81-1.52,7.78-6.86,6.13-9.02,6.81Z"/>
  <polygon class="st0" points="1297.92 365.69 1296.25 357.86 1298.62 358.06 1297.92 365.69"/>
  <rect class="st0" x="1329.14" y="650.16" width="3.77" height="3.58" transform="translate(559.85 1917.63) rotate(-84.74)"/>
  <rect class="st0" x="1307.51" y="598.08" width="3.77" height="3.58" transform="translate(592.07 1848.79) rotate(-84.74)"/>
  <rect class="st0" x="1303.58" y="432.03" width="3.77" height="3.58" transform="translate(753.85 1694.04) rotate(-84.74)"/>
  <rect class="st0" x="1317.8" y="629.85" width="3.77" height="3.58" transform="translate(569.77 1887.89) rotate(-84.74)"/>
  <polygon class="st0" points="1304 612.84 1301.8 610.75 1304.69 605.22 1304 612.84"/>
  <rect class="st0" x="1277.02" y="753.86" width="3.77" height="2.38" transform="translate(409.84 1959.39) rotate(-84.74)"/>
  <rect class="st0" x="1306.5" y="394.36" width="3.77" height="2.38" transform="translate(794.61 1662.19) rotate(-84.74)"/>
  <rect class="st0" x="1308.06" y="729.74" width="3.77" height="2.38" transform="translate(462.05 1968.39) rotate(-84.74)"/>
  <rect class="st0" x="1313.71" y="603.1" width="3.77" height="2.38" transform="translate(593.29 1858.98) rotate(-84.74)"/>
  <polygon class="st0" points="1360.93 633.55 1360.58 637.3 1356.85 638.95 1359.16 633.38 1360.93 633.55"/>
  <rect class="st0" x="1307.7" y="564.02" width="3.77" height="2.38" transform="translate(626.75 1817.49) rotate(-84.74)"/>
  <path class="st0" d="M1307.4,615.1c-.63,2.44-1.02,2.41-1.19-.11l1.19.11Z"/>
  <path class="st0" d="M1355.2,500.05c-.63,2.44-1.02,2.41-1.19-.11l1.19.11Z"/>
  <path class="st0" d="M1300.66,649.16c-.63,2.44-1.02,2.41-1.19-.11l1.19.11Z"/>
  <path class="st0" d="M1298.41,660.51c-.63,2.44-1.02,2.41-1.19-.11l1.19.11Z"/>
  <path class="st0" d="M1329.44,466.85c-.63,2.44-1.02,2.41-1.19-.11l1.19.11Z"/>
  <path class="st0" d="M1389.57,387.61c-.63,2.44-1.02,2.41-1.19-.11l1.19.11Z"/>
  <path class="st0" d="M1333.51,644.48c-.63,2.44-1.02,2.41-1.19-.11l1.19.11Z"/>
  <path class="st0" d="M1297.4,371.42c-.63,2.44-1.02,2.41-1.19-.11l1.19.11Z"/>
  <rect class="st0" x="1468.21" y="248.4" width="4.87" height="5.83"/>
  <path class="st0" d="M1478,236.69c-.65-3.64-.02-6.76,4.85-7.8.65,3.64.02,6.76-4.85,7.8Z"/>
  <polygon class="st0" points="1482.87 248.41 1480.4 254.23 1478 254.24 1477.99 248.4 1482.87 248.41"/>
  <rect class="st0" x="1480.45" y="213.3" width="2.4" height="7.78"/>
  <rect class="st0" x="1470.66" y="221.1" width="2.4" height="5.83"/>
  <path class="st0" d="M1474.31,213.29c1.59.65,1.59,1.3,0,1.95v-1.95Z"/>
  <path class="st0" d="M1469.42,234.74c1.59.65,1.59,1.3,0,1.95v-1.95Z"/>
  <path class="st0" d="M1484.1,262.04c1.59.65,1.59,1.3,0,1.95v-1.95Z"/>
  <path class="st0" d="M1432.82,256.98l2.08,1.29-3.73,8.55-.96.92c.94-4.16-1.17-4.83,2.6-10.75Z"/>
  <path class="st0" d="M1394.64,444.16c5.99,3.92,1.98,5.8-.54,6.69-2.62-1.16-5.07-5.22-4.89-5.63.42-.95,5.01.02,5.43-1.06Z"/>
  <path class="st0" d="M1382.82,465.15l-2.63.37c-10.29-4.62,1.04-2.68,7.07.82-1.92-3.82-3.67-4.26-.14-5.97,1.44-.7-.71-2.48,5.06.44-5.29,1.6.48,7.1-7.87,6.53l-1.49-2.2Z"/>
  <polygon class="st0" points="1392.48 437.79 1395.43 436.79 1399.54 438.61 1398.68 440.54 1392.48 437.79"/>
  <polygon class="st0" points="1404.34 422.21 1409.03 422.75 1408.47 424.05 1404.34 422.21"/>
</svg>