<?xml version="1.0" encoding="UTF-8"?>
<svg id="Layer_1" xmlns="http://www.w3.org/2000/svg" version="1.1" viewBox="0 0 1920 1080">
  <!-- Generator: Adobe Illustrator 29.5.1, SVG Export Plug-In . SVG Version: 2.1.0 Build 141)  -->
  <defs>
    <style>
      .st0 {
        font-family: MyriadPro-Regular, 'Myriad Pro';
        font-size: 12px;
      }

      .st1 {
        fill: #fff;
      }
    </style>
  </defs>
  <text class="st0" transform="translate(1560.7 5.29)"><tspan x="0" y="0">file:///Users/oxo/Downloads/jpg(1)</tspan></text>
  <g>
    <path d="M482.99,215.38c-.43-3.61-6.5-16.32-.52-17.82,1.12-.28,22.13.84,23.53,1.09,1.08.19.77,1.97,2.09,2.32,7.12,1.87,7.06,1.07,14.26,4,2.39.97,6.27,1,8.24,2.38.55.38,7.52,8.55,8.21,9.59,10.15,15.38,5.62,37.23-9.72,49.53-3.21,2.58-9.81,3.81-13.44,5.2-1.13.43-1,1.85-3.19,2.5-11.12,3.35-49.32,3.38-60.41,0-2.12-.65-1.86-2-3.2-2.49-3.56-1.33-10.11-2.52-13.43-5.21-14.39-11.68-15.53-36.45-6.2-50.3,4.29-6.37,7.76-8.49,15.21-11.56.88-.36.97-1.87,1.41-2.05,2.66-1.05,9.8-.31,13.52-1.6,1.31-.45,1.11-2.11,2.15-2.29,3.85-.67,9.13.66,13.37-1.17,7.22.05.15,15.28,8.1,17.89ZM483.02,241.67l-4.41-15.01c-.97-.52-21.06.3-23.1.68-1.12.21-.79,2.1-2.04,2.35-6.08,1.2-14.69-1.04-16.66,5.73-1.94,6.64,4.36,6.82,9.07,8.73,1.18.48,1.06,2.09,2.17,2.28,13.7,2.31,54.85,2.39,68.44,0,1.1-.19.86-1.9,2.17-2.27,5.24-1.51,13.28-1.01,12.36-7.8-.14-1.05-2.47-4.51-3.44-5.09-4.85-2.87-13.37.66-15.55-3.94l-29-1.2c-.15,3.07,1.26,5.86,1.57,8.91.13,1.32,1.04,6.65-1.55,6.62Z"/>
    <path class="st1" d="M1334.7,357.58l-.53,5.63,1.86,5.95-3.55-.34.36-11.81-6.28-2.14c3.2-8.33,6.18-11.33,8.83-5l1.42-15.31,3.55.36c.34,11.55-1.45,21.22-5.66,22.66Z"/>
    <path class="st1" d="M1338.42,369.37c3.05-11.74,8.25-6.33,11.04-2.75-.44,4.83-5.64,10.97-6.4,10.9-1.76-.16-2.68-8.06-4.65-8.15Z"/>
    <path class="st1" d="M1314.32,344.06c-.57,1.2-8.35-.42-7.63-8.36,2.32,2.36,9.92-5.74,7.63,8.36Z"/>
    <polygon class="st1" points="1329.36 376.29 1326.16 372.1 1326.86 364.52 1330.42 364.84 1329.36 376.29"/>
    <polygon class="st1" points="1297.92 365.69 1296.25 357.86 1298.62 358.06 1297.92 365.69"/>
    <path class="st1" d="M1297.4,371.42c-.63,2.44-1.02,2.41-1.19-.11l1.19.11Z"/>
  </g>
</svg>