<?xml version="1.0" encoding="UTF-8"?>
<svg id="Layer_1" xmlns="http://www.w3.org/2000/svg" version="1.1" viewBox="0 0 1920 1080">
  <!-- Generator: Adobe Illustrator 29.5.1, SVG Export Plug-In . SVG Version: 2.1.0 Build 141)  -->
  <path d="M426,144.24c.11-.53,1.63-2.87,2.51-3.04l22.99-1.16-4.53-7.14-2.89.08-.17,2.19-2.89.09c-.53-5.8-7.71-1.02-8.72-6.86-1.11-6.46,10-16.68,8.68-24.21l-11.15,4.74c-8.94-7.76.24-35.71,10.17-40.18,7.86-3.54,18.94,0,25.52-1.8,2.33-.64,2.5-3.27,3.95-4.01,3.53-1.79,14.74.78,20.32.67,6.43-.13,12.7-2.03,19.29-1.34,5.8,11.42,7,1.4,8.59.23,1.09-.8,6.85.29,9.35-.16,1.37-.25.24-3.28,4.67-2.41.66.13.73,1.42,1.39,1.92.86.66,2.41.39,2.41.49v24.51l-79.86,5.34c-7.54,7.94-7.5,18.44-5.3,27.87,1.36,5.8,5.47,12.44,12,15.6,18.2,8.79,40.5,4.74,61.7,5.57l1.71,2.43,2.21-.05.99-2.38,24.55.02c-1.76,4.46,3.53,25.67-.06,27.48s-4.79-2.24-5.42-2.36c-5.18-.94-8.19-.21-11.66,2.48l-110.36-.09c1.08-7.5-1.47-17.34,0-24.51Z"/>
</svg>