<?xml version="1.0" encoding="UTF-8"?>
<svg id="Layer_1" xmlns="http://www.w3.org/2000/svg" version="1.1" viewBox="0 0 1920 1080">
  <!-- Generator: Adobe Illustrator 29.5.1, SVG Export Plug-In . SVG Version: 2.1.0 Build 141)  -->
  <defs>
    <style>
      .st0 {
        font-family: MyriadPro-Regular, 'Myriad Pro';
        font-size: 12px;
      }
    </style>
  </defs>
  <text class="st0" transform="translate(1560.7 5.29)"><tspan x="0" y="0">file:///Users/oxo/Downloads/jpg(1)</tspan></text>
  <g>
    <path d="M738,504.72c.47.33-1.23,8.82-1.81,9.95-.97,1.92-5.98,2.45-5.76,6.06.05.78,6.16,4.41,8.91,2.98.55-.29,2.86-8.7,3.07-10.21.49-3.57-4.01-9.87,4.58-8.79l1.51,81.32c-6.04-1-16.2-.25-21.52-1.21-1.15-.21-.9-2.18-1.93-2.39-6.34-1.25-4.14,1.12-5.61,3.14-.61.84-4.19.17-1.03,3.48-5.74-.58-4.88,5.66-8.89,8.34l7.46-6.58c-.3,5.03-7.89,19.6-15.57,17.99-5.01-1.05-.06-15.31-1.02-18.47,5.55-1.23,9.14-4.14,6.86-9.09-5.64,7.15-15.68,14.73-17.13,23.41-2.09,12.49.22,31.17.42,44.35.61,41.17,1.65,82.93,2.52,124.09.23,11.02.85,23.92-.01,34.76-.2,2.51-2.6,4.96-2.52,5.92.1,1.26,4.33,4.78,2.46,7.79-5.79,1.24-1.77-6.22-2.99-7.17h-7.51s1.5,8.37,1.5,8.37l-29.35-.09-4.28,2.58-42.52-.46c-2.44-5.49-5.78,2.64-12.34.37-1.08-4.75,1.31-9.24,1.57-13.7.8-13.73-1.24-28.33-.13-41.95.35-4.34,2.79-19.44,8.55-20.75l16.86.94c2.29-6.14,4.48-12.38,5.73-18.74,1.33-6.7.98-13.62,2.08-19.87s4.84-12.94,4.36-19.84l1.83,11.08c7.56,14.24-3.16,29.21-3.34,43.91,2.49-.05,6.91.58,8.34-1.12,1.98-2.35.08-19.82.66-24.58,1.04-8.54,2.88-11.79,2.92-21.58,0-2.16,1.32-4.14,1.35-5.98.07-4.8-8.6-4.88-8.85-13.13-.2-6.77,5.61-17.01-1.54-22.59.83-18.03-.04-36.04-1.38-53.89-.36-4.74,1.02-11.41.03-15.58-1.63-6.88-15.53-5.41-21.5-6.57-1.25-.24-.92-2.15-2.03-2.35-3.57-.65-10.88,1.52-12.3-1.96l-2.98-67.82c1.42-3.24,4.31-.85,6.5-1.02,8.13-.63,18.62-.9,26.96-1,18.74-.22,37.62-.14,56.16,1.37-1.14,12.58,2.03,27.75.26,40-.28,1.95-9.26,5.78-2.36,10.07,6.57-11.77,9.91-24.48,15.71-36.47,1.17-2.41,6.39-13.15,7.43-14.16s2.93-.46,4.13-1.12c.86-.47.35-2.03.48-2.03h27ZM675.66,511.33c-1.02-.97-.06-2.19-2.14-1.81l-1.65,11.89-4.37.06,6.15,14.57c3.37.6,3.7,6.75,6.59,5.74,2.63-.92,2.44-4.05,2.26-5.98l-2.98,1.21-.02-7.18-2.97,2.38c-.38-2.36-6.86-7.71-.02-7.16l1.49,2.38c-.19-4.4,1.36-9.39.07-13.75-.65-2.19-1.5-1.51-2.4-2.36ZM667.49,515.48v-3.58h-1.47v3.58h1.47ZM718.49,539.41h-2.99v1.17h2.99v-1.17ZM734.99,544.19h-2.99v3.58h2.99v-3.58ZM710.25,552.55v1.2c.97-.4.97-.8,0-1.2ZM680.99,569.28c.92-.73-.68-4.74-2.24-4.76-4.39-.04-.55,6.98,2.24,4.76ZM701.99,564.51c-2.38-1.9-6.87,1.68-4.49,3.58s6.87-1.68,4.49-3.58ZM686.98,570.48h-2.98s0,3.58,0,3.58h4.49s-1.52-3.58-1.52-3.58ZM655.75,596.52c-.87-.55.75-2.62-1.73-2.11l-.07,4.22,7.55.55c1.15-4.22-3.72-1.37-5.75-2.66ZM649.49,637.43v-2.38h-1.47v2.38h1.47ZM659.99,662.54v-1.77s-2.98-1.81-2.98-1.81v3.58s2.98,0,2.98,0ZM664.49,660.16h-2.99v2.38h2.99v-2.38ZM629.25,757v1.2c.97-.4.97-.8,0-1.2Z"/>
    <path d="M635.99,667.34c-2.66,14.35-4.42,29.03-7.96,43.26-.65,2.6-.87,8.22-4.02,9.33,2.3-16.96,5.2-34.02,9.03-50.8.35-1.52.64-3.95,2.95-1.8Z"/>
    <rect x="700.51" y="807.23" width="2.99" height="3.58"/>
    <polygon points="736.49 737.88 736.49 739.65 733.51 741.46 733.51 737.88 736.49 737.88"/>
    <path d="M754.51,765.37l-.02-3.59,3.77-1.17.71.57c-1.91,1.25-1.82,3.86-4.46,4.2Z"/>
    <rect x="1186.51" y="446.14" width="1.47" height="3.58"/>
    <rect x="702.01" y="864.62" width="1.47" height="2.38"/>
  </g>
</svg>