<?xml version="1.0" encoding="UTF-8"?>
<svg id="Layer_1" xmlns="http://www.w3.org/2000/svg" version="1.1" viewBox="0 0 1920 1080">
  <!-- Generator: Adobe Illustrator 29.5.1, SVG Export Plug-In . SVG Version: 2.1.0 Build 141)  -->
  <path d="M1732.75,695.02c-.25,2.77-1.78,6.2.73,8.38,3.35,2.91,2.72-2.9,5.25-2.4l.05,14.78-2.99.79-.06,1.76,3.05,1.37c.97,28.94-8.08,58.65-31.81,80.97-4.3,4.04-13.56,10.22-18.86,12.66-13.56,6.25-46.94,8.54-62.2,3.55-1.22-.4-1.11-1.82-2.31-2.19-12.57-3.95-18.89-4.91-28.58-14.02-18.32-17.22-25.81-38.35-27.34-60.76-2.28-33.27-1.1-68.32-1.5-101.63-.29-23.62,1.13-47.03,1.56-70.6.36-4.07,4.69-2.4,7.9-3.04,1.36-.27,1.5-2.85,4.08-2.37-.42-4.06-7.32-4.87-8.32-5.86-2.04-2.02,5.09-17.72,6.82-21.03,1.86-3.56,6.41-11.02,8.99-14.05,1.49-1.74,18.75-15.65,20.58-16.42,4.36-1.84,7.56-2.84,11.97-4.8,12.39-5.51,43.66-7.17,57.87-3.49,1.24.32,1.02,1.81,2.25,2.22,1.63.55,4.08.26,6.04.91.61.2,9.85,4.5,11.22,5.19,1.47.74,14.76,11.43,16.12,12.83,17.55,18.03,23.95,45.06,25.48,67.24l-5.98-7.16-1.52,10.75-4.48-2.38,1.5,14.34,4.47-8.36c-.16,4.47.5,9-.36,13.46-.2,1.04-.67,3.6-2.61,3.27l-1.53-7.17-2.84,1.91,2.93,10.03c9.29-2.59,5.03,10.09,1.44,7.2l-1.53-5.97c-2.9.96-.47,3.46-5.93,2.36l-2.3-4.74-3.72,1.19c-.64,4.5,3.84,7.3,1.46,11.93-2.89-.7-4.34-5.04-4.5-7.17l-3,3.59-4.48-4.2c-4.8-2.9-.38,12.52-1.5,13.76l3.74-9.54c3.88,3.08,3.92,7.86,3.76,11.93,2.87.04.86-3.56,3.76-4.77,5.42-2.27,2.33,9.65,2.34,10.28.07,3.81,4.96,10.77-3.1,11.23l-1.52-8.36c-2.08-.23-2.87,4.64-2.86,5.5.02,2.59,1.74,5.01,1.39,7.65l5.97-3.58c3.29,8.82-1.64,18.16,0,27.5l-3.45-3.81-2.52-9.33v21.52c1.98.42,4.69-6.93,6.76-3.61,3.68,5.92-1.92,12.85.73,19.15,3.9.87,4.06-5.35,8.29-2.44l.71,10.8c5.42-2.11-.37-9.17,1.48-13.16l-2.98,1.21c-1.23-3.72,1.81-4.58,5.99-4.79.14-1.58-.11-3.2,0-4.78,6.55.21,6.44,5.47,5.99,9.55-5.35,1.05-1.99-3.55-3-4.79-.99.03-2-.04-2.99.01ZM1683.24,510.9h-2.99v1.17h2.99v-1.17ZM1655.5,519.26v1.2c.97-.4.97-.8,0-1.2ZM1671.24,525.24h-2.99s0,3.58,0,3.58l2.97-1.81v-1.77ZM1633,527.63v1.2c.97-.4.97-.8,0-1.2ZM1640.5,527.63v1.2c.97-.4.97-.8,0-1.2ZM1704.24,527.64h-2.99v1.17h2.99v-1.17ZM1612.74,531.22h-2.99v2.38h2.99v-2.38ZM1687.74,539.58c.48-2.26-1.76-3.97-4.49-3.57l1.52,3.58h2.98ZM1653.24,537.2h-2.99v2.38h2.99v-2.38ZM1698.25,539.6h-2.99s0,3.57,0,3.57h1.47s1.52-3.57,1.52-3.57ZM1711.74,540.79h-2.99s0,3.58,0,3.58l2.97-1.81v-1.77ZM1669,544.37v1.2c.97-.4.97-.8,0-1.2ZM1615.74,545.57h-2.99v3.58h2.99v-3.58ZM1632.23,547.95v-2.38h-1.47v2.38h1.47ZM1723.41,545.87c-5.64-2.53-7.04,1.57-8.3,2-2.16.73-10.42,1.02-10.79,1.34-1.8,5.66,2.11,7.49,5.19,11.89l-.77-4.77,17.7-.26,2.65-4.62c-.08-.47-5.28-5.41-5.68-5.58ZM1682.95,549.41c-9.01-4.03-18.71,11.59,3.3,8.11,1.2-.86-1.98-7.52-3.3-8.11ZM1666.36,557.29c2.87-5.09-9.94-8.26-13.11-2.75,1.9,2.86,5.38,6.18,9.45,5.34.24-.05,3.55-2.42,3.65-2.59ZM1650.21,553.98l-12.04-.69c-2.77,1.42-.63,4.68.29,6.46h10.07s1.68-5.77,1.68-5.77ZM1699.74,552.75h-2.99v1.17h2.99v-1.17ZM1613.86,554.31c-1.83-.59-3.6-.61-5.48-.27-.99,3.57-2.84,6.17,2.33,8.09,4.32-.64,8.26-2.17,5.5-5.8-.09-.12-2.18-1.97-2.34-2.02ZM1602.24,561.1l-1.46-4.21-9.04-.56v4.77s10.5,0,10.5,0ZM1624.74,562.3l-1.51-4.77h-1.47s0,4.77,0,4.77h2.99ZM1702.74,561.11h-5.99v3.58h5.99v-3.58ZM1720.73,564.69v-3.58h-1.47v3.58h1.47ZM1695.24,573.06v-3.58s-1.48,0-1.48,0l-1.52,3.57h2.99ZM1635.25,589.2v28.1h-5.99s-1.49-4.78-1.49-4.78l-.11,5.28c.11.42,7.23,1.6,7.7,4.82.71,32.12-2.03,64.9-.17,96.96.29,5.04,1.03,15.29,2.3,19.71,2.73,9.51,25.27,7.21,28.23.89,1.14-2.44,2.29-11.51,2.53-14.68,2.65-34.52.66-73.23,0-107.61-.22-11.45,1.52-28.46-1.85-39.17-2.11-6.7-17.77-8.32-24.11-5.42-6.76,3.09-4.91,8.67-5.64,13.43-.16,1.08-1.35,2.02-1.4,2.47ZM1614.23,576.64v-2.38h-1.47v2.38h1.47ZM1729.74,585.01l-2.24-8.36c-3.53,1.63-3,9,2.24,8.36ZM1707.24,577.85h-2.99s0,4.78,0,4.78c2.99-.64,3.36-2.55,2.98-4.78ZM1722.23,592.19c.06-3.55-.72-7.6-1.94-11-.44-1.23-.36-3.61-2.53-3.34.26,2.88-.56,6.1.06,8.91.26,1.19,2.36,5.29,4.42,5.43ZM1600,580.24v1.2c.97-.4.97-.8,0-1.2ZM1698.24,580.25h-2.99v1.17h2.99v-1.17ZM1689.24,582.64c-5-.55-8.7,3.52-7.49,7.17h5.94s1.55-7.17,1.55-7.17ZM1713.23,585.01v-2.38h-1.47v2.38h1.47ZM1705.73,596.97c.28-3.91,4.05-8.77-.74-11.93l-3.69,5.37,4.42,6.56ZM1698.23,586.21c-6.12-.82-1.75,5.97-1.47,8.37,5.3-1.57,1.39-5.36,1.47-8.37ZM1713.24,588.62h-2.99v1.17h2.99v-1.17ZM1683.26,596.97l-3.02-4.19-3.01,1.8,4.6.71c-.89,4.29.38,5.91,5.16,7.64,4.66-3.51,2.54-8.78-2.24-10.73l-1.5,4.77ZM1710.26,592.19c-.17,2.51-.59,4.48,2.24,5.96l2.24-2.95-4.48-3ZM1722.24,610.12c-1.32-3.76.35-7.46-.08-11.23-.12-1.06-.78-4.53-2.89-4.29l-3.12,4.13c-.06,2.24,3.89,3.36,4.28,4.96.48,1.96-4.31,7.28,1.81,6.44ZM1629.23,600.56v-2.38h-1.47v2.38h1.47ZM1705.74,598.17h-4.49s1.49,8.37,1.49,8.37c-5.95.26-5.47-5.19-11.99-3.58-1.17,4.73,3.17,5.4,5.57,7.58.82.75-.31,2.61,1.41,3.2,1.73.59,10.07,1,11.01-.03-2-5.48-4.16-9.52-3-15.54ZM1620.24,602.96h-2.99v3.58h2.99v-3.58ZM1714.74,602.96h-2.99s0,3.58,0,3.58l2.97-1.81v-1.77ZM1687.74,608.94c-12.08.77-2.31,4.51-1.81,6.71.33,1.46-1.54,3.54-1.17,5.24l4.27-2.93-1.29-9.02ZM1713.24,617.3l1.48-2.98-2.24-1.78h-2.22s0,4.77,0,4.77h2.98ZM1701.25,638.81c-4.96-6.29-1.46-14.47-3.74-21.51-3.46,3.23-2.79,10.78-2.12,14.83.41,2.46,1.54,7.14,5.87,6.67ZM1600.74,622.09l-5.99,1.2c1.09,3.52,4.05,4.42,1.5,8.35,6.68,0,3.49-5.24,1.47-7.75l3.02-1.8ZM1629.23,631.64v-2.38h-1.47v2.38h1.47ZM1687.75,634.04c.24-1.61,1.89-3.03,1.49-4.78l-7.5,1.2c-.94,5.36,1.38,3.06,6.01,3.58-.23,1.55.14,3.22.01,4.78l4.48-1.21,1.5,3.59-.19-5.81c-1.82-.61-3.84-1.14-5.8-1.36ZM1707.24,654.36c-.17-4.52.37-9.09-.16-13.61-.14-1.16-.66-5.63-2.82-5.51l-1.53,10.75c-2.37-.45-1.1-1.9-4.49-2.98-3.88-1.23.65,6.51.02,7.76,2.51.73.58-6.34,4.47-3.58,1.79,1.27-.53,8.33,4.51,7.16ZM1600.74,638.82c-7.26-1.18-6.81,5.51-2.24,8.35l2.24-8.35ZM1630.74,642.42c-2.84-.38-4.98,1.4-4.49,3.58h4.49s0-3.58,0-3.58ZM1687.74,643.61c-2.6-2.4-6.93,5.8-2.22,7.16l2.22-7.16ZM1605.26,651.98l2.95-1.78-1.48-2.99h-1.47s0,4.78,0,4.78ZM1630.74,650.79h-2.99v3.58h2.99v-3.58ZM1594.74,651.98c-7.25-.59,1.05,6.7.04,9.55l4.39-.03,1.57-9.53-4.45.89-.07,1.49-1.49-2.38ZM1690.48,655.84c-3.07-2.19-9.32,4.56-7.25,5.7h6.03c-1.59,5.35,1.85,5.88,5.24,9.55,3.51-2.03,2.09-5.42,2.24-8.36l-2.98,1.22,1.56-4.08-4.83-4.02ZM1707.24,655.57c-2.63-2.4-5.12,5.01-5.2,5.8-.19,1.88,1.29,12.72,2.23,13.32,2.01,1.29,2.85.19,2.98-1.77.4-6.15-1.84-11.71,0-17.35ZM1608.24,657.96h-2.99s0,4.78,0,4.78c2.99-.64,3.36-2.55,2.98-4.78ZM1621.73,661.54v-2.38h-1.47v2.38h1.47ZM1630.74,659.16h-4.49v3.59h4.48v-3.59ZM1714.75,662.73l-1.52-3.57h-1.47s0,3.57,0,3.57h2.99ZM1614.24,667.51v-3.58s-1.48,0-1.48,0l-1.52,3.57h2.99ZM1683.25,667.51c2.83.39,4.98-1.39,4.48-3.57h-1.46s-3.02,3.57-3.02,3.57ZM1620.23,669.91c4.05-.97,11.02,3.52,12.01-1.77l-11.98-1.81-.02,3.58ZM1675.74,666.33h-2.99v1.17h2.99v-1.17ZM1603.74,667.52h-2.99v3.58h2.99v-3.58ZM1692.24,674.7c-6.35-1.12-6.69,4.31-11.99,3.59l6.11,3.07c.33,2.74-1.43,5.26-1.25,7.97.48,7.48,7.62,10.94,5.69.27-.57-3.15-3.85-6.77-3.16-9.33.37-1.35,6.53-1.53,4.6-5.57ZM1614.24,675.89h-2.99c-.36,2.21-.06,3.48,2.25,4.77l.74-4.77ZM1603,678.28v1.2c.97-.4.97-.8,0-1.2ZM1621.74,678.29h-2.99v2.38h2.99v-2.38ZM1626.23,680.67v-2.38h-1.47v2.38h1.47ZM1630.74,678.29h-2.99s2.26,2.38,2.26,2.38l.74-2.38ZM1705.73,703.38c-.03-7.39,2.15-14.75-.07-22.06-.63-2.08-1.26-3.41-4.41-3.04,2.52,7.54,2.02,14.52,2.22,22.13.03,1.04.26,3.32,2.26,2.97ZM1699.75,679.49c-2.77-.29-4.4-.08-5.99,1.8v1.77s4.31-.14,4.31-.14l1.68-3.43ZM1599.24,684.26c-2.38-1.9-6.87,1.68-4.49,3.58,2.38,1.9,6.87-1.68,4.49-3.58ZM1606.74,687.84v-3.58s-1.48,0-1.48,0l-1.52,3.57h2.99ZM1620.23,687.85h-2.97s0,4.78,0,4.78h4.49s-1.51-4.78-1.51-4.78ZM1698.24,691.43v-3.58s-1.48,0-1.48,0l-1.52,3.57h2.99ZM1630.74,690.24h-5.99s0,1.18,0,1.18l5.98,1.21v-2.39ZM1716.24,703.38c-.06-2.53-.97-5.03-1.96-7.41-.52-1.26-.34-3.62-2.52-3.34-.39,2.85.11,5.42,1.07,8.16.74,2.11-.5,3.11,3.41,2.59ZM1602.24,695.02l-7.28,1.36,1.32,10.6h4.47s1.5-11.95,1.5-11.95ZM1609.73,698.6v-2.38h-1.47v2.38h1.47ZM1698.23,703.38v-7.16s-1.47,0-1.47,0c-.5,2.56-1.17,4.65,0,7.16h1.47ZM1629.23,703.38l1.48-2.99c-2.09-2.09-2.34-2.09-4.43,0l1.48,2.99h1.47ZM1620.23,706.97v-2.38h-1.47v2.38h1.47ZM1722.23,711.75v-3.58h-1.47v3.58h1.47ZM1735.73,732.08c-.45-2.85.75-5.7.64-8.5-.04-1.11,0-3.82-2.11-3.45.08,2.57-.17,5.2-.01,7.78.09,1.46-1.14,4.44,1.49,4.17ZM1720.73,723.71v-2.38h-1.47v2.38h1.47ZM1618.74,723.73h-2.99v1.17h2.99v-1.17ZM1689.24,724.92l-5.99-1.21-1.51,4.78,7.5-3.56ZM1727.5,723.71v1.2c.97-.4.97-.8,0-1.2ZM1729.74,732.08v-1.77s-2.98-1.81-2.98-1.81v3.58s2.98,0,2.98,0ZM1708.73,735.67v-3.58h-1.47v3.58h1.47ZM1722.23,736.86v-4.77h-1.47v4.77h1.47ZM1629.23,735.67v-2.38h-1.47v2.38h1.47ZM1727.5,735.67v1.2c.97-.4.97-.8,0-1.2ZM1732.76,740.45c2.99-.64,3.37-2.55,2.97-4.78-2.99.64-3.37,2.55-2.97,4.78ZM1696,739.26v1.2c.97-.4.97-.8,0-1.2ZM1703.5,739.26v1.2c.97-.4.97-.8,0-1.2ZM1728.24,744.04l-.74-3.58-2.24,1.8v1.77s2.98,0,2.98,0ZM1722.24,741.65h-2.99s0,5.97,0,5.97h1.47s1.51-5.97,1.51-5.97ZM1734.23,745.23v-3.58h-1.47v3.58h1.47ZM1630.74,745.24h-2.99v3.58h2.99v-3.58ZM1609.74,747.63h-2.99v2.38h2.99v-2.38ZM1686.23,750.01v-2.38h-1.47v2.38h1.47ZM1696.73,750.01v-2.38h-1.47v2.38h1.47ZM1713.24,748.83h-2.99v1.17h2.99v-1.17ZM1687.64,759.51c1.21-2.84,3.16-5.87-1.38-7.1l-.76,3.6-3.74-2.4,1.38,5.27,4.51.63ZM1728.93,755.43c-.75-.77-.81-3.04-2.19-1.23-.12,2.49-.69,4.9,2.26,6.55,4.6-3.1,2.22-2.97-.07-5.33ZM1600,756v1.2c.97-.4.97-.8,0-1.2ZM1719.26,760.78l2.98-1.81-2.25-2.97-.73,4.78ZM1611.23,759.58v-2.38h-1.47v2.38h1.47ZM1621.74,757.2h-2.98s-1.52,3.57-1.52,3.57h4.49s0-3.57,0-3.57ZM1629.24,757.2h-2.98c-3.52,6.43,6.49,6.45,2.98,0ZM1638.24,761.97v-2.39s-2.99,1.8-2.99,1.8l2.99.59ZM1696,759.58v1.2c.97-.4.97-.8,0-1.2ZM1687.65,765.62c-5.32-2.69-10.14,7.76-3.59,10.75l3.8-.74c1.82-1.82,1.43-9.18-.21-10ZM1722.23,767.95v-2.38h-1.47v2.38h1.47ZM1711.73,777.52c-.04-3.14,4.16-7.71-1.47-9.56,1.14,3.22-3.88,7.99,1.47,9.56ZM1698.24,779.9l-2.98-10.75c-.75,2.76-.73,5-.1,7.77.51,2.21-1.28,3.53,3.08,2.98ZM1704.23,777.51v-4.77h-1.47v4.77h1.47ZM1720.74,776.33h-2.99v3.58h2.99v-3.58ZM1619.5,779.91v1.2c.97-.4.97-.8,0-1.2ZM1697.5,781.11v1.2c.97-.4.97-.8,0-1.2ZM1628.5,784.69v1.2c.97-.4.97-.8,0-1.2ZM1681,784.69v1.2c.97-.4.97-.8,0-1.2ZM1713.23,788.27v-2.38h-1.47v2.38h1.47ZM1705.73,796.64v-3.58h-1.47v3.58h1.47ZM1681.73,801.43v-3.58h-1.47v3.58h1.47Z"/>
  <path d="M1573.5,632.06c.5-1.71,3.65-2.17,4.37.12.85,2.69-.79,5.62-.29,8.61.39,2.3-.15,3.11,3.41,2.63v-23.31s2.98-.58,2.98-.58c.99,2.98,4.57,3.01,3.02,7.16l-2.98-1.21,1.42,9.05,6.15,1.18c.04,2.51.88,7.86-3.81,7.73l-.78-3.59c-1.95-.32-2.4,2.22-2.61,3.27-1.29,6.61.91,13.86-.39,20.64-5.25-1.8-2.04-10.31-4.63-13.07l-5.85-.08c1.02-5.33-1.41-13.7,0-18.53ZM1584.75,637.44v1.2c.97-.4.97-.8,0-1.2Z"/>
  <path d="M1591.49,619.5c-8.35-1.25-4-15.4-2.98-20.31,2.6-.29,1.43,2.72,1.49,4.16.24,5.47.1,10.77,1.49,16.15Z"/>
  <path d="M1577.99,675.69c-.44,4.16,5.59,12.47-2.99,13.15l-1.5-13.15h4.49Z"/>
  <path d="M1573.51,626.68l-1.52-8.96c6.89-3.01,11.63,10.44,1.52,8.96Z"/>
  <polygon points="1577.96 655.38 1579.49 666.14 1575.04 666.13 1573.51 655.37 1577.96 655.38"/>
  <path d="M1589.99,679.28c-2.12.24-2.88-3.3-2.94-4.32-.21-3.74,1.18-9.26,1.16-13.01-.02-3.01-2.31-6.71-1.2-10.16,2.53.01,2.86,3.97,3,5.36.75,7.36-1.27,14.78-.03,22.13Z"/>
  <path d="M1586.99,513.1l-1.51,5.96h-1.47c-.98-2.22-.93-3.74,0-5.97h2.98Z"/>
  <polygon points="1616.99 658.96 1614.02 658.39 1615.51 650.6 1616.99 658.96"/>
  <path d="M1649.99,721.14c.38,2.23,0,4.14-2.98,4.78v-4.78s2.98,0,2.98,0Z"/>
  <path d="M1589.99,584.84l-.74,4.77c-2.31-1.29-2.61-2.57-2.25-4.77h2.99Z"/>
  <rect x="1602.01" y="601.58" width="2.99" height="3.58"/>
  <rect x="1587.01" y="627.88" width="2.99" height="3.58"/>
  <polygon points="1610.99 651.79 1610.99 653.57 1608.01 655.37 1608.01 651.79 1610.99 651.79"/>
  <polygon points="1610.99 660.16 1610.99 661.94 1608.01 663.74 1608.01 660.16 1610.99 660.16"/>
  <polygon points="1574.99 691.25 1574.99 694.83 1573.52 694.82 1572 691.26 1574.99 691.25"/>
  <rect x="1613.6" y="691.51" width="1.47" height="3.58"/>
  <rect x="1584.01" y="670.92" width="1.47" height="3.58"/>
  <rect x="1593.01" y="516.69" width="1.47" height="2.38"/>
  <rect x="1614.01" y="645.82" width="1.47" height="2.38"/>
  <rect x="1608.01" y="657.78" width="2.99" height="1.17"/>
  <rect x="1618.1" y="705.86" width="1.47" height="2.38"/>
  <rect x="1606.51" y="753.42" width="1.47" height="2.38"/>
  <path d="M1647.75,736.68c.97.4.97.8,0,1.2v-1.2Z"/>
  <path d="M1618.84,667.59c.97.4.97.8,0,1.2v-1.2Z"/>
  <path d="M1602.75,645.81c.97.4.97.8,0,1.2v-1.2Z"/>
  <rect x="763.51" y="244.08" width="1.47" height="2.38"/>
  <path d="M1257.75,234.51c.97.4.97.8,0,1.2v-1.2Z"/>
</svg>